<?xml version="1.0" encoding="utf-8"?>
<!-- Generator: Adobe Illustrator 21.1.0, SVG Export Plug-In . SVG Version: 6.00 Build 0)  -->
<svg version="1.1" id="Layer_1" xmlns="http://www.w3.org/2000/svg" xmlns:xlink="http://www.w3.org/1999/xlink" x="0px" y="0px"
	 viewBox="0 0 64 64" enable-background="new 0 0 64 64" xml:space="preserve">
<g>
	<g>
		<g id="Grocery_e-commerce_">
			<g id="Group_1349" transform="translate(-3303.152 -1903.114)">
				<path id="Path_534" fill="#FFFFFF" d="M3345.8,1942.1c-2.5,0-4.5,2-4.5,4.5s2,4.5,4.5,4.5s4.5-2,4.5-4.5l0,0
					C3350.3,1944.2,3348.2,1942.1,3345.8,1942.1z M3347.5,1946.7c0,1-0.8,1.8-1.8,1.8s-1.8-0.8-1.8-1.8s0.8-1.8,1.8-1.8
					C3346.7,1944.9,3347.5,1945.7,3347.5,1946.7L3347.5,1946.7z"/>
				<path id="Path_535" fill="#FFFFFF" d="M3353,1924.8c-0.3-0.3-0.7-0.5-1.1-0.5h-26.4l-1.2-5.1c-0.1-0.6-0.7-1.1-1.3-1.1h-4.5
					c-0.8,0-1.4,0.6-1.4,1.4s0.6,1.4,1.4,1.4h3.4l4.4,18.3c0.1,0.6,0.7,1.1,1.3,1.1h21c0.6,0,1.2-0.4,1.3-1l3.3-13.3
					C3353.4,1925.5,3353.3,1925.1,3353,1924.8z M3328.7,1937.5l-2.5-10.5h24l-2.6,10.5H3328.7z"/>
				<path id="Path_536" fill="#FFFFFF" d="M3329.4,1942.1c-2.5,0-4.5,2-4.5,4.5s2,4.5,4.5,4.5s4.5-2,4.5-4.5l0,0
					C3333.9,1944.2,3331.9,1942.1,3329.4,1942.1z M3331.2,1946.7c0,1-0.8,1.8-1.8,1.8s-1.8-0.8-1.8-1.8s0.8-1.8,1.8-1.8
					C3330.4,1944.9,3331.2,1945.7,3331.2,1946.7L3331.2,1946.7z"/>
			</g>
		</g>
	</g>
</g>
</svg>
