<?xml version="1.0" encoding="utf-8"?>
<!-- Generator: Adobe Illustrator 21.1.0, SVG Export Plug-In . SVG Version: 6.00 Build 0)  -->
<svg version="1.1" id="Layer_1" xmlns="http://www.w3.org/2000/svg" xmlns:xlink="http://www.w3.org/1999/xlink" x="0px" y="0px"
	 viewBox="0 0 64 64" enable-background="new 0 0 64 64" xml:space="preserve">
<g id="Group_1352" transform="translate(11.15 15.14)">
	<path id="Path_526" fill="#FFFFFF" d="M40.1,28.7h-1.2v-3.5c0-0.7-0.6-1.3-1.3-1.3h-12c-1.9,0-3.6,0.9-4.8,2.3
		c-1.2-1.5-2.9-2.3-4.8-2.3H4c-0.7,0-1.3,0.6-1.3,1.3v3.5H1.6c-0.7,0-1.3,0.6-1.3,1.3s0.6,1.3,1.3,1.3h11.3c2-0.1,4,0.4,5.6,1.6
		c0.7,0.5,1.5,0.8,2.3,0.8s1.7-0.3,2.3-0.8c1.6-1.1,3.6-1.7,5.6-1.6H40c0.7,0,1.3-0.6,1.3-1.3C41.4,29.3,40.8,28.7,40.1,28.7
		L40.1,28.7z M36.3,26.6v2.2h-7.5c-2.3-0.1-4.6,0.5-6.6,1.7V30c0-1.9,1.6-3.5,3.5-3.5L36.3,26.6z M19.5,30v0.4
		c-2-1.2-4.3-1.8-6.6-1.7H5.4v-2.2h10.7C18,26.6,19.5,28.1,19.5,30L19.5,30z"/>
	<path id="Path_527" fill="#FFFFFF" d="M3.7,7.4l8.6,2.5v5.8c0,0.5,0.3,1,0.7,1.2l5.3,2.6c0.6,0.3,1.1,0.7,1.6,1.1
		c0.2,0.2,0.6,0.4,0.9,0.4s0.7-0.1,0.9-0.4c0.5-0.4,1-0.8,1.6-1.1l5.3-2.6c0.4-0.2,0.7-0.7,0.7-1.2V9.8l2.2-0.6v8.9
		c0,0.7,0.6,1.3,1.3,1.3c0.7,0,1.3-0.6,1.3-1.3V8.5l3.8-1.1c0.6-0.2,1-0.7,1-1.3s-0.4-1.1-1-1.3L21.2,0c-0.2,0-0.5,0-0.7,0L3.7,4.8
		c-0.6,0.2-1,0.7-1,1.3C2.8,6.7,3.2,7.2,3.7,7.4z M8.9,6.1l12-3.4l12,3.4l-12,3.4L8.9,6.1z M15,10.6l5.5,1.6c0.2,0.1,0.5,0.1,0.7,0
		l5.5-1.6v4.3l-4.6,2.3c-0.5,0.2-0.9,0.5-1.3,0.8c-0.4-0.3-0.8-0.6-1.3-0.8l-4.6-2.3L15,10.6z"/>
</g>
</svg>
