<?xml version="1.0" encoding="utf-8"?>
<!-- Generator: Adobe Illustrator 23.0.1, SVG Export Plug-In . SVG Version: 6.00 Build 0)  -->
<svg version="1.1" id="Layer_1" xmlns="http://www.w3.org/2000/svg" xmlns:xlink="http://www.w3.org/1999/xlink" x="0px" y="0px"
	 viewBox="0 0 64 80" style="enable-background:new 0 0 64 80;" xml:space="preserve">
<style type="text/css">
	.st0{fill:#FFFFFF;}
</style>
<g>
	<g>
		<path class="st0" d="M60.35,42.7c-0.79-0.48-1.77-0.53-2.59-0.12L40.3,51.31v-6.35c0-0.92-0.48-1.78-1.26-2.27
			c-0.79-0.48-1.77-0.53-2.59-0.12l-17.46,8.73V28.98c0-1.47-1.19-2.66-2.66-2.66H5.66C4.19,26.31,3,27.51,3,28.98v42.63
			c0,1.47,1.19,2.66,2.66,2.66h53.29c1.47,0,2.66-1.19,2.66-2.66V44.97C61.62,44.04,61.14,43.18,60.35,42.7z M13.66,31.64v2.66H8.33
			v-2.66H13.66z M56.29,68.94H8.33V39.64h5.33v15.99c0,0.92,0.48,1.78,1.26,2.27c0.78,0.48,1.77,0.53,2.59,0.12l17.46-8.73v6.35
			c0,0.92,0.48,1.78,1.26,2.27c0.79,0.48,1.77,0.53,2.59,0.12l17.46-8.73V68.94z"/>
		<path class="st0" d="M21.65,58.29c-1.47,0-2.66,1.19-2.66,2.66v2.66c0,1.47,1.19,2.66,2.66,2.66c1.47,0,2.66-1.19,2.66-2.66v-2.66
			C24.31,59.48,23.12,58.29,21.65,58.29z"/>
		<path class="st0" d="M29.64,58.29c-1.47,0-2.66,1.19-2.66,2.66v2.66c0,1.47,1.19,2.66,2.66,2.66c1.47,0,2.66-1.19,2.66-2.66v-2.66
			C32.31,59.48,31.11,58.29,29.64,58.29z"/>
		<path class="st0" d="M42.97,66.28c1.47,0,2.66-1.19,2.66-2.66v-2.66c0-1.47-1.19-2.66-2.66-2.66s-2.66,1.19-2.66,2.66v2.66
			C40.3,65.09,41.49,66.28,42.97,66.28z"/>
		<path class="st0" d="M50.96,66.28c1.47,0,2.66-1.19,2.66-2.66v-2.66c0-1.47-1.19-2.66-2.66-2.66s-2.66,1.19-2.66,2.66v2.66
			C48.29,65.09,49.49,66.28,50.96,66.28z"/>
		<path class="st0" d="M10.99,20.99c1.47,0,2.66-1.19,2.66-2.66c0-4.41,3.58-7.99,7.99-7.99c4.41,0,7.99,3.59,7.99,7.99
			s3.58,7.99,7.99,7.99s7.99-3.58,7.99-7.99c0-1.47-1.19-2.66-2.66-2.66s-2.66,1.19-2.66,2.66c0,1.47-1.19,2.66-2.66,2.66
			s-2.66-1.2-2.66-2.67C34.97,10.98,29,5,21.65,5S8.33,10.98,8.33,18.32C8.33,19.79,9.52,20.99,10.99,20.99z"/>
	</g>
</g>
</svg>
