<?xml version="1.0" encoding="utf-8"?>
<!-- Generator: Adobe Illustrator 21.1.0, SVG Export Plug-In . SVG Version: 6.00 Build 0)  -->
<svg version="1.1" id="Layer_1" xmlns="http://www.w3.org/2000/svg" xmlns:xlink="http://www.w3.org/1999/xlink" x="0px" y="0px"
	 viewBox="0 0 64 64" enable-background="new 0 0 64 64" xml:space="preserve">
<g>
	<g>
		<g id="Event_management">
			<g id="Group_1354" transform="translate(782.159 -5387.5)">
				<path id="Path_1313" fill="#FFFFFF" d="M-730.6,5403.8c-0.1-0.1-3.4-2.3-11.5-2.3s-11.4,2.2-11.5,2.3c-0.3,0.2-0.5,0.6-0.5,1
					v2.4c-2.5,0.5-5,1.4-7.4,2.5c-7.3,3.4-9.4,6.8-9.4,7c-0.2,0.3-0.2,0.8-0.1,1.1l4.9,10.5c2.4,5.1,7.5,8.3,13.1,8.3
					c1.2,0,2.5-0.2,3.7-0.5l0,0l0,0c0.1,0,0.3-0.1,0.4-0.2c2.1-1.5,3.7-3.5,4.8-5.8c0.6,0.2,1.2,0.4,1.8,0.5h0.1l0,0h0.1
					c0.1,0,0.1,0,0.2,0c6.8-1.3,11.8-7.2,11.8-14.2v-11.6C-730.1,5404.4-730.3,5404-730.6,5403.8z M-763.9,5427.3l-4.6-9.8
					c0.8-1,3.1-3.2,8-5.5s8.1-2.6,9.4-2.6l4.6,9.8c2.4,5.2,0.9,11.3-3.7,14.7C-755.8,5435.2-761.5,5432.5-763.9,5427.3
					L-763.9,5427.3z M-732.5,5416.4c0,5.7-4,10.6-9.6,11.8c-0.4-0.1-0.8-0.2-1.3-0.3c0.6-2.3,0.6-4.7,0.1-7c1.6-0.4,3.2,0,4.4,1.1
					c0.2,0.2,0.5,0.4,0.9,0.4c0.3,0,0.6-0.1,0.9-0.4c0.5-0.5,0.5-1.2,0-1.7c-1.8-1.8-4.4-2.5-6.8-1.7c-0.1-0.1-0.1-0.3-0.2-0.4
					l-2-4.2c1,0,1.9-0.4,2.6-1.1c0.5-0.5,0.5-1.2,0-1.7s-1.2-0.5-1.7,0c-0.2,0.2-0.6,0.4-0.9,0.4c-0.3,0-0.7-0.1-0.9-0.4
					c-0.1-0.1-0.3-0.2-0.5-0.3l-1.5-3.2c-0.2-0.4-0.5-0.6-0.9-0.7c-0.5-0.1-1.1-0.1-1.6,0v-1.4c1.1-0.5,4.1-1.6,9.6-1.6
					s8.5,1.1,9.6,1.6L-732.5,5416.4z"/>
				<path id="Path_1314" fill="#FFFFFF" d="M-737.5,5413.9c1,0,1.9-0.4,2.6-1.1c0.5-0.5,0.5-1.2,0-1.7s-1.2-0.5-1.7,0
					c-0.2,0.2-0.6,0.4-0.9,0.4c-0.3,0-0.7-0.1-0.9-0.4c-0.5-0.5-1.2-0.5-1.7,0s-0.5,1.2,0,1.7
					C-739.4,5413.5-738.5,5413.9-737.5,5413.9z"/>
				<path id="Path_1315" fill="#FFFFFF" d="M-757.8,5421.4c0.2-0.6-0.1-1.3-0.7-1.6l0,0c-0.9-0.3-1.9-0.3-2.8,0.1
					c-0.9,0.4-1.6,1.2-1.9,2.1c-0.2,0.6,0.1,1.3,0.7,1.6c0.1,0,0.3,0.1,0.4,0.1c0.5,0,1-0.3,1.1-0.8c0.1-0.3,0.4-0.6,0.7-0.7
					s0.7-0.2,1,0C-758.7,5422.4-758,5422-757.8,5421.4L-757.8,5421.4z"/>
				<path id="Path_1316" fill="#FFFFFF" d="M-754.5,5419.9c0.1,0,0.3,0.1,0.4,0.1c0.5,0,1-0.3,1.1-0.8c0.1-0.3,0.4-0.6,0.7-0.7
					s0.7-0.2,1,0c0.6,0.2,1.3-0.1,1.6-0.7c0.2-0.6-0.1-1.3-0.7-1.6l0,0c-1.9-0.7-4.1,0.3-4.7,2.2
					C-755.5,5419-755.1,5419.7-754.5,5419.9z"/>
				<path id="Path_1317" fill="#FFFFFF" d="M-749.2,5424.6c0.2-0.6-0.1-1.3-0.7-1.6c-0.6-0.2-1.3,0.1-1.6,0.7l0,0
					c-0.8,2.3-3.4,3.5-5.7,2.7c-0.6-0.2-1.3,0.1-1.6,0.7l0,0c-0.2,0.6,0.1,1.3,0.7,1.6l0,0c0.7,0.3,1.5,0.4,2.3,0.4
					C-752.8,5429.2-750.2,5427.4-749.2,5424.6z"/>
			</g>
		</g>
	</g>
</g>
</svg>
