<?xml version="1.0" encoding="utf-8"?>
<!-- Generator: Adobe Illustrator 21.1.0, SVG Export Plug-In . SVG Version: 6.00 Build 0)  -->
<svg version="1.1" id="Layer_1" xmlns="http://www.w3.org/2000/svg" xmlns:xlink="http://www.w3.org/1999/xlink" x="0px" y="0px"
	 viewBox="0 0 64 64" enable-background="new 0 0 64 64" xml:space="preserve">
<g>
	<g>
		<g id="e-ticketing">
			<g id="Group_1350" transform="translate(1566 -3104)">
				<path id="Path_2485" fill="#FFFFFF" d="M-1520.5,3120h-27.8c-1.2,0-2.4,0.5-3.3,1.4s-1.4,2-1.4,3.3c0,2.6,2.1,4.6,4.6,4.6h1.2
					v17.4c0,2.6,2.1,4.6,4.6,4.6c1.1,0,2.2-0.4,3-1.1c0.4-0.4,0.8-0.8,1-1.3c0.3,0.5,0.6,0.9,1,1.3c0.8,0.7,1.9,1.1,3,1.1
					s2.2-0.4,3-1.1c0.4-0.4,0.8-0.8,1-1.3c0.3,0.5,0.6,0.9,1,1.3c0.8,0.7,1.9,1.1,3,1.1c2.6,0,4.6-2.1,4.6-4.6v-17.4h1.2
					c1.2,0,2.4-0.5,3.3-1.4s1.4-2,1.4-3.3C-1515.9,3122.1-1518,3120-1520.5,3120z M-1518.9,3126.3c-0.4,0.4-1,0.7-1.6,0.7h-1.2v-0.6
					c0-0.6-0.5-1.2-1.2-1.2s-1.2,0.5-1.2,1.2v20.3c0,1.3-1,2.3-2.3,2.3c-1.1,0-2.1-0.8-2.3-2c-0.1-0.9-0.9-1.5-1.8-1.5
					s-1.6,0.6-1.8,1.5c-0.2,1.1-1.2,2-2.3,2c-1.1,0-2.1-0.8-2.3-2c-0.1-0.9-0.9-1.5-1.8-1.5s-1.6,0.6-1.8,1.5c-0.2,1.1-1.2,2-2.3,2
					c-1.3,0-2.3-1-2.3-2.3v-20.3c0-0.6-0.5-1.2-1.2-1.2s-1.2,0.5-1.2,1.2v0.6h-1.2c-1.3,0-2.3-1-2.3-2.3c0-0.6,0.2-1.2,0.7-1.6
					c0.4-0.4,1-0.7,1.6-0.7h27.8c1.3,0,2.3,1,2.3,2.3C-1518.2,3125.3-1518.5,3125.8-1518.9,3126.3L-1518.9,3126.3z"/>
				<path id="Path_2486" fill="#FFFFFF" d="M-1530.4,3141.4h-8.1c-0.6,0-1.2-0.5-1.2-1.2s0.5-1.2,1.2-1.2h8.1c0.6,0,1.2,0.5,1.2,1.2
					S-1529.8,3141.4-1530.4,3141.4z"/>
				<path id="Path_2487" fill="#FFFFFF" d="M-1530.4,3135.6h-8.1c-0.6,0-1.2-0.5-1.2-1.2s0.5-1.2,1.2-1.2h8.1c0.6,0,1.2,0.5,1.2,1.2
					S-1529.8,3135.6-1530.4,3135.6z"/>
			</g>
		</g>
	</g>
</g>
</svg>
