<?xml version="1.0" encoding="utf-8"?>
<!-- Generator: Adobe Illustrator 21.1.0, SVG Export Plug-In . SVG Version: 6.00 Build 0)  -->
<svg version="1.1" id="Layer_1" xmlns="http://www.w3.org/2000/svg" xmlns:xlink="http://www.w3.org/1999/xlink" x="0px" y="0px"
	 viewBox="0 0 64 64" enable-background="new 0 0 64 64" xml:space="preserve">
<g>
	<g>
		<g id="Insurance_">
			<g id="Group_1357">
				<g id="Group_1353" transform="translate(14.156 14.141)">
					<path id="Path_537" fill="#FFFFFF" d="M34.8,25.9c-0.7-0.3-1.3-0.5-2-0.8l-1.3-0.5l-1.9-0.8l-0.5-0.2c4.4-7.4,1.9-17-5.5-21.4
						c-6.2-3.6-13.9-2.6-19,2.4C2,7.2,0.3,10.7,0,14.4C-0.6,23,5.8,30.5,14.4,31.2c3.2,0.3,6.4-0.5,9.1-2.1v0.1l0.6,1.4
						c0.6,1.4,1.1,2.8,1.7,4.2c0.1,0.3,0.3,0.6,0.6,0.8c0.2,0.1,0.4,0.2,0.7,0.2c0.1,0,0.3,0,0.4-0.1c0.4-0.2,0.7-0.5,0.8-0.9
						c0.3-0.8,0.5-1.6,0.7-2.4c0.1-0.4,0.2-0.8,0.4-1.2l0.5,0.5c0.5,0.5,1,1,1.5,1.5c0.2,0.2,0.5,0.4,0.8,0.4
						c0.5,0.1,1.1-0.2,1.3-0.7c0.3-0.5,0.1-1.1-0.3-1.5c-0.5-0.5-0.9-0.9-1.4-1.4l-0.7-0.7l0.7-0.2c0.9-0.3,1.9-0.6,2.8-0.9
						c0.6-0.1,1-0.6,1.1-1.2C35.8,26.6,35.4,26.1,34.8,25.9z M30.8,27c-0.5,0.2-0.9,0.3-1.4,0.4l-0.2,0.1c-1.2,0.4-1.3,0.4-1.7,1.7
						c0,0.1,0,0.2-0.1,0.3c-0.1,0.5-0.3,0.9-0.4,1.4l-2.6-6.4L30.8,27z M21.6,20.9c-0.3,0.1-0.5,0.3-0.7,0.6c-0.2,0.3-0.2,0.7,0,1.1
						c0.4,0.9,0.7,1.8,1.1,2.7l0.5,1.2c0,0.1,0.1,0.2,0.1,0.2C17.1,30.1,10,29,5.8,24.2c-1.3-1.5-2.2-3.2-2.7-5.1c0.2,0,0.4,0,0.6,0
						c0.7,0.1,1.3-0.5,1.4-1.2c0.1-0.7-0.5-1.3-1.2-1.4c-0.1,0-0.1,0-0.2,0H2.9H2.6v-1.9h1.6c0.7,0,1.4,0,2.1,0s1.2-0.6,1.2-1.3
						c0-0.6-0.4-1-0.9-1.2C6.4,12.1,6.2,12,6,12c-0.8,0-1.5,0-2.3,0H3c1.9-7,9-11.2,16-9.3c5.8,1.5,9.8,6.8,9.7,12.7
						c0,2.4-0.7,4.8-2,6.9l-0.2-0.1l-1-0.4c-0.9-0.4-1.9-0.8-2.9-1.1C22.3,20.8,21.9,20.8,21.6,20.9L21.6,20.9z"/>
					<path id="Path_538" fill="#FFFFFF" d="M15.7,14.4L15.7,14.4c-1.2,0-2.2-1-2.2-2.1c0-0.4,0.1-0.7,0.3-1.1c0.6-1,1.9-1.4,3-0.8
						c0.7,0.4,1.1,1.1,1.1,1.8s0.5,1.3,1.2,1.3h0.1c0.7,0,1.2-0.6,1.2-1.3v-0.1c-0.1-1.9-1.2-3.5-3-4.2c-0.1,0-0.3-0.1-0.4-0.2
						c0-0.2,0-0.3,0-0.5l0,0V7.1c0-0.1,0-0.2,0-0.3c0-0.7-0.5-1.3-1.3-1.3l0,0l0,0c-0.7,0-1.3,0.6-1.3,1.3l0,0c0,0.3,0,0.6,0,0.8
						c0,0.1,0,0.1-0.1,0.2c-1.1,0.3-2,1-2.6,2c-0.6,0.9-0.8,2-0.7,3.1c0.3,2.3,2.3,4.1,4.7,4.1h0.1c1,0,1.8,0.7,2,1.6
						c0.3,1.2-0.4,2.3-1.6,2.6c-0.5,0.1-1.1,0.1-1.6-0.2c-0.7-0.4-1.1-1.1-1.1-1.9c0-0.3-0.1-0.7-0.4-0.9c-0.3-0.2-0.6-0.3-0.9-0.3
						c-0.7,0-1.2,0.6-1.2,1.3l0,0c0,2,1.4,3.8,3.3,4.4h0.1l0,0v0.1c0,0.3,0,0.6,0,0.9c0,0.7,0.6,1.3,1.3,1.3l0,0l0,0
						c0.7,0,1.3-0.6,1.3-1.3l0,0v-0.1c0-0.3,0-0.5,0-0.8v-0.1c0,0,0.1,0,0.1-0.1c2.2-0.7,3.6-2.8,3.3-5.1
						C19.9,16.1,18,14.4,15.7,14.4z"/>
				</g>
			</g>
		</g>
	</g>
</g>
</svg>
