<?xml version="1.0" encoding="utf-8"?>
<!-- Generator: Adobe Illustrator 21.1.0, SVG Export Plug-In . SVG Version: 6.00 Build 0)  -->
<svg version="1.1" id="Layer_1" xmlns="http://www.w3.org/2000/svg" xmlns:xlink="http://www.w3.org/1999/xlink" x="0px" y="0px"
	 viewBox="0 0 64 64" enable-background="new 0 0 64 64" xml:space="preserve">
<g>
	<g>
		<g id="FMCG">
			<g id="Group_1351" transform="translate(1590 -2410.936)">
				<path id="Path_2488" fill="#FFFFFF" d="M-1539.9,2442.2c-0.7-1-1.6-1.8-2.7-2.4v-4.7h-2.3v-5.5l-3.5-3.7l-2.6,1.9l-2.4-1.8
					l-2.4,1.8l-2.4-1.8l-2.4,1.8l-2.4-1.8l-2.4,1.8l-2.6-1.9l-3.5,3.7v16.2c-3.7,0.6-6.3,3.7-6.3,7.4c0,4.1,3.4,7.5,7.5,7.5h31.9
					v-14.2C-1538.6,2445-1539.1,2443.5-1539.9,2442.2L-1539.9,2442.2z M-1544.2,2441.7c2,0.8,3.3,2.7,3.3,4.8v1.1h-10.4v-1.1
					c0-2.1,1.3-4.1,3.3-4.8l0.7-0.3v-3.9h2.3v3.9L-1544.2,2441.7z M-1551.3,2449.9h10.4v3.1h-10.4V2449.9z M-1567,2444.4
					c0,0.7-0.6,1.3-1.3,1.3h-1v-1c0-0.7,0.6-1.3,1.3-1.3l0,0h1V2444.4L-1567,2444.4z M-1575.7,2453.2c0-2.9,2.3-5.2,5.2-5.2
					s5.2,2.3,5.2,5.2s-2.3,5.2-5.2,5.2C-1573.4,2458.4-1575.7,2456.1-1575.7,2453.2L-1575.7,2453.2L-1575.7,2453.2z M-1565.1,2458.4
					c1.3-1.4,2.1-3.3,2.1-5.2c0-2.4-1.1-4.6-3.1-6c0.8-0.7,1.3-1.7,1.3-2.8v-3.3h-3.3c-0.5,0-0.9,0.1-1.3,0.3v-10.8l1.4-1.5l2.3,1.7
					l2.4-1.8l2.4,1.8l2.4-1.8l2.4,1.8l2.4-1.8l2.4,1.8l2.3-1.7l1.4,1.5v4.6h-2.3v4.7c-1.1,0.6-2,1.4-2.7,2.4
					c-0.9,1.3-1.3,2.7-1.3,4.3v11.9L-1565.1,2458.4z M-1551.3,2458.4v-3.1h10.4v3.1H-1551.3z"/>
			</g>
		</g>
	</g>
</g>
</svg>
