<?xml version="1.0" encoding="utf-8"?>
<!-- Generator: Adobe Illustrator 21.1.0, SVG Export Plug-In . SVG Version: 6.00 Build 0)  -->
<svg version="1.1" id="Layer_1" xmlns="http://www.w3.org/2000/svg" xmlns:xlink="http://www.w3.org/1999/xlink" x="0px" y="0px"
	 viewBox="0 0 64 64" enable-background="new 0 0 64 64" xml:space="preserve">
<g>
	<g>
		<g id="Healthcare">
			<path id="Path_2495" fill="#FFFFFF" d="M48.6,24.7c0.2-0.7,0.3-1.4,0.3-2.1c0-2.3-0.9-4.5-2.5-6.1c-3.4-3.4-8.8-3.4-12.2,0l-2,2
				l-2-2c-3.4-3.4-8.8-3.4-12.2,0c-1.6,1.6-2.5,3.8-2.5,6.1c0,0.7,0.1,1.4,0.3,2.1c-1.3,0.8-1.9,2.3-1.6,3.8l1.6,8.7l7,6.8v6.3h19
				V44l7-6.8l1.6-8.7C50.5,27,49.8,25.5,48.6,24.7z M46.1,24.2c-1.2,0.2-2.3,0.9-2.8,2l-1.8,3.6c-0.5-0.3-1.2-0.5-1.8-0.5
				c-0.9,0-1.8,0.4-2.5,1l-3.9,3.9l0,0c-0.4,0.5-0.8,1-1.1,1.5c-0.3-0.5-0.7-1-1.1-1.5l0,0l-3.9-3.9c-1.1-1.1-2.9-1.3-4.3-0.5
				L21,26.2c-0.5-1.1-1.6-1.8-2.8-2c-0.1-0.5-0.2-1-0.2-1.5c0-1.6,0.6-3.1,1.8-4.3c1.1-1.1,2.7-1.8,4.3-1.8c1.6,0,3.1,0.6,4.3,1.8
				l3.8,3.8l3.8-3.8c2.4-2.4,6.2-2.4,8.6,0c1.1,1.1,1.8,2.7,1.8,4.3C46.3,23.1,46.2,23.7,46.1,24.2z M21.2,32.3
				c-0.2,1.1,0.2,2.2,1,3l3.2,3.2l1.8-1.8L24,33.5c-0.2-0.2-0.3-0.4-0.3-0.7c0-0.2,0.1-0.5,0.3-0.7c0.2-0.2,0.4-0.3,0.7-0.3
				c0.2,0,0.5,0.1,0.6,0.3l3.7,3.7c1.2,1.2,1.9,2.9,1.9,4.6v7.2h-5.6v-4.8l-7.2-7L16.6,28c-0.1-0.6,0.3-1.1,0.8-1.3
				c0.5-0.1,1,0.1,1.3,0.6L21.2,32.3z M39,47.7h-5.6v-7.2c0-1.7,0.7-3.4,1.8-4.6l3.7-3.7c0.2-0.2,0.4-0.3,0.6-0.3l0,0
				c0.2,0,0.5,0.1,0.6,0.3c0.2,0.2,0.3,0.4,0.3,0.7c0,0.2-0.1,0.5-0.3,0.7l-3.2,3.2l1.8,1.8l3.2-3.2c0.7-0.7,1-1.5,1-2.5
				c0-0.2,0-0.3,0-0.5l2.5-5c0.2-0.5,0.8-0.7,1.3-0.6c0.6,0.1,0.9,0.7,0.8,1.3L46,36l-7.2,7L39,47.7z"/>
		</g>
	</g>
</g>
</svg>
