<?xml version="1.0" encoding="utf-8"?>
<!-- Generator: Adobe Illustrator 23.0.1, SVG Export Plug-In . SVG Version: 6.00 Build 0)  -->
<svg version="1.1" id="Layer_1" xmlns="http://www.w3.org/2000/svg" xmlns:xlink="http://www.w3.org/1999/xlink" x="0px" y="0px"
	 viewBox="0 0 32 40" style="enable-background:new 0 0 32 40;" xml:space="preserve">
<style type="text/css">
	.st0{fill:#FFFFFF;}
</style>
<g>
	<path class="st0" d="M27.83,18.19c0,4.55,0,9.09,0,13.63c-0.61,0-1.21,0-1.83,0c0-0.06,0-0.11,0-0.17c0-4.77,0-9.53,0-14.3
		c0-0.61,0.35-0.97,0.96-1c0.01,0,0.02-0.01,0.06-0.01C23.34,13.4,19.67,10.46,16,7.53c-3.67,2.94-7.34,5.87-11.03,8.82
		c0.06,0,0.1,0.01,0.13,0.01c0.51,0.02,0.89,0.41,0.89,0.93c0,4.5,0,8.99,0,13.49c0,0.04,0,0.09,0,0.14c-0.61,0-1.2,0-1.82,0
		c0-4.23,0-8.47,0-12.73c-0.06,0-0.11,0-0.16,0c-0.56,0-1.13,0.01-1.69,0c-0.38-0.01-0.66-0.2-0.81-0.56
		c-0.14-0.35-0.08-0.68,0.17-0.97c0.04-0.05,0.1-0.09,0.15-0.13c4.52-3.62,9.04-7.23,13.56-10.84c0.39-0.31,0.83-0.31,1.22,0
		c4.53,3.62,9.05,7.24,13.58,10.86c0.31,0.25,0.43,0.57,0.35,0.95c-0.08,0.37-0.33,0.6-0.71,0.68c-0.08,0.02-0.17,0.02-0.25,0.02
		c-0.53,0-1.06,0-1.59,0C27.94,18.19,27.9,18.19,27.83,18.19z"/>
	<path class="st0" d="M12.36,31c0-0.89,0-1.78,0-2.67c0-0.08-0.03-0.17-0.07-0.23c-0.55-0.79-0.83-1.67-0.84-2.62
		c-0.03-2.18,1.59-4.12,3.75-4.5c2.33-0.4,4.56,0.99,5.18,3.25c0.38,1.39,0.14,2.68-0.67,3.87c-0.04,0.06-0.07,0.14-0.07,0.22
		c0,1.77,0,3.53,0,5.3c0,0.67-0.58,1.09-1.22,0.88c-0.77-0.25-1.54-0.51-2.3-0.76c-0.07-0.02-0.16-0.02-0.22,0
		c-0.76,0.25-1.53,0.51-2.29,0.76c-0.65,0.22-1.24-0.21-1.24-0.89C12.36,32.74,12.36,31.87,12.36,31z M16,28.16
		c1.52,0,2.73-1.19,2.73-2.69c0-1.5-1.23-2.73-2.73-2.73c-1.5,0-2.72,1.23-2.73,2.72C13.27,26.96,14.48,28.16,16,28.16z
		 M14.19,32.37c0.45-0.15,0.88-0.28,1.31-0.44c0.34-0.13,0.66-0.13,1,0c0.43,0.16,0.86,0.29,1.3,0.44c0-0.9,0-1.8,0-2.7
		c-1.21,0.5-2.41,0.5-3.61,0C14.19,30.57,14.19,31.47,14.19,32.37z"/>
	<path class="st0" d="M7.81,23.64c0-0.06,0-0.12,0-0.17c0-1.75,0-3.51,0-5.26c0-0.56,0.38-0.94,0.95-0.94c4.83,0,9.65,0,14.48,0
		c0.56,0,0.95,0.39,0.95,0.95c0,1.77,0,3.53,0,5.3c0,0.04,0,0.08-0.01,0.12c-0.6,0-1.2,0-1.81,0c0-1.51,0-3.02,0-4.53
		c-4.25,0-8.48,0-12.73,0c0,1.51,0,3.02,0,4.53C9.03,23.64,8.43,23.64,7.81,23.64z"/>
	<path class="st0" d="M15.99,15.46c-0.88,0-1.76-0.01-2.64,0c-0.59,0.01-1.03-0.44-0.99-1c0.02-0.27,0-0.55,0-0.82
		c0-0.53,0.39-0.92,0.92-0.92c1.82,0,3.64,0,5.46,0c0.51,0,0.9,0.4,0.9,0.91c0,0.3,0,0.6,0,0.9c0,0.53-0.38,0.93-0.92,0.93
		c-0.63,0-1.26,0-1.89,0C16.55,15.46,16.27,15.46,15.99,15.46z"/>
</g>
</svg>
