<?xml version="1.0" encoding="utf-8"?>
<!-- Generator: Adobe Illustrator 21.1.0, SVG Export Plug-In . SVG Version: 6.00 Build 0)  -->
<svg version="1.1" id="Layer_1" xmlns="http://www.w3.org/2000/svg" xmlns:xlink="http://www.w3.org/1999/xlink" x="0px" y="0px"
	 viewBox="0 0 64 64" enable-background="new 0 0 64 64" xml:space="preserve">
<g>
	<g>
		<g id="Social_Media">
			<path id="Path_2494" fill="#FFFFFF" d="M49.7,35.1c-1-1.9-2.4-3.4-4.2-4.5c-2.2-1.4-4.8-1.9-7.4-1.4c-2.6,0.4-4.9,1.8-6.5,3.8
				c-0.4,0.5-0.7,0.9-1,1.4c-0.1,0.2-0.3,0.4-0.4,0.6L25,33.1c0.2-1.3-0.1-2.6-0.8-3.7l1.3-1.3c1.3-1.3,2.6-2.6,3.9-3.9
				c0.1-0.1,0.1-0.1,0.2,0c0.7,0.4,1.5,0.7,2.3,0.7c3,0.3,5.7-1.9,6-5c0-0.1,0-0.1,0-0.2c0.2-3-2.2-5.6-5.2-5.8
				c-0.4,0-0.8,0-1.2,0.1c-1.5,0.2-2.8,1.1-3.6,2.4c-0.8,1.2-1.1,2.7-0.8,4.2c0.1,0.5,0.3,0.9,0.4,1.3c0.1,0.2,0.1,0.3,0.2,0.5
				l-5.2,5.3c-0.1-0.1-0.2-0.1-0.2-0.1l0,0c-2.6-1.5-6-0.6-7.5,2.1c-0.3,0.5-0.5,1-0.6,1.6c0,0.1-0.1,0.2-0.1,0.3c0,0.1,0,0.1,0,0.2
				l0,0V33l0,0c0.1,0.2,0.1,0.4,0.2,0.6c0.1,0.4,0.2,0.8,0.4,1.2c1.3,2.7,4.6,3.8,7.3,2.5c0.8-0.4,1.5-1,2-1.7
				c0.1-0.2,0.2-0.2,0.3-0.1c1.3,0.5,2.6,1,3.9,1.4l1.1,0.4c0,0.1,0,0.3-0.1,0.4c-0.1,0.4-0.1,0.8-0.2,1.2c-0.2,2.2,0.3,4.3,1.3,6.2
				c1.3,2.4,3.5,4.2,6.1,5c0.5,0.2,1,0.3,1.6,0.4c0.2,0,0.5,0.1,0.7,0.1c0.1,0,0.2,0,0.2,0H39h1.5l0,0c0.2,0,0.4-0.1,0.6-0.1
				c0.4-0.1,0.8-0.1,1.2-0.2c2.2-0.5,4.1-1.7,5.6-3.3s2.4-3.7,2.6-5.9C50.9,39.1,50.6,37,49.7,35.1z M41.9,38.8
				c0,1.1-0.9,1.9-1.9,1.9l0,0c-1.1,0-1.9-0.9-1.9-2s0.9-1.9,1.9-1.9l0,0C41,36.8,41.8,37.7,41.9,38.8z M44.3,38.4
				c-0.1-1.2-0.7-2.3-1.6-3.1c-1.9-1.6-4.7-1.3-6.3,0.6c-1.4,1.6-1.4,4,0,5.7c-1.4,0.8-2.5,2-3.1,3.5c-1.6-2-2.2-4.6-1.7-7
				c1-4.5,5.5-7.3,10-6.3c2.6,0.6,4.8,2.4,5.8,4.9c1.2,2.8,0.7,6.1-1.2,8.4c-0.6-1.5-1.7-2.7-3.1-3.5C44.1,40.7,44.4,39.6,44.3,38.4
				L44.3,38.4z M35.5,46.7c0.5-2.1,2.3-3.5,4.4-3.5l0,0c2.1,0,4,1.5,4.4,3.6c0,0.2,0,0.2-0.1,0.3c-1.3,0.8-2.8,1.2-4.3,1.2l0,0
				c-1.5,0-2.9-0.4-4.2-1.2C35.5,47,35.5,46.9,35.5,46.7z M22.5,32.4c0,0.8-0.3,1.6-0.9,2.1c-0.6,0.6-1.3,0.9-2.1,0.9
				c-1.7,0-3-1.4-3-3c0-0.8,0.3-1.6,0.9-2.1c0.6-0.6,1.3-0.9,2.1-0.9l0,0C21.2,29.4,22.5,30.7,22.5,32.4L22.5,32.4z M29.4,19.5
				c0-0.8,0.3-1.6,0.9-2.1c1.2-1.2,3.1-1.2,4.3-0.1c0.6,0.6,0.9,1.3,0.9,2.2c0,0.8-0.3,1.6-0.9,2.1c-0.6,0.6-1.3,0.9-2.1,0.9
				C30.7,22.5,29.4,21.2,29.4,19.5L29.4,19.5z"/>
		</g>
	</g>
</g>
</svg>
