<?xml version="1.0" encoding="utf-8"?>
<!-- Generator: Adobe Illustrator 23.0.1, SVG Export Plug-In . SVG Version: 6.00 Build 0)  -->
<svg version="1.1" id="Layer_1" xmlns="http://www.w3.org/2000/svg" xmlns:xlink="http://www.w3.org/1999/xlink" x="0px" y="0px"
	 viewBox="0 0 100 125" style="enable-background:new 0 0 100 125;" xml:space="preserve">
<style type="text/css">
	.st0{fill:#FFFFFF;}
</style>
<g>
	<path class="st0" d="M49.4,39.96l-19.9,6.5c-0.7,0.2-1.2,0.9-1.2,1.7v26.1c0,0.8,0.5,1.4,1.2,1.7l19.9,6.5c0.2,0.1,0.4,0.1,0.5,0.1
		c0.2,0,0.4,0,0.6-0.1l19.9-6.5c0.7-0.2,1.2-0.9,1.2-1.7v-26.1c0-0.8-0.5-1.4-1.2-1.7l-19.9-6.5C50.2,39.86,49.8,39.86,49.4,39.96z
		 M48.2,78.46l-16.4-5.4v-22.4l16.4,5.4V78.46z M68.1,73.06l-16.4,5.4v-22.5l16.4-5.4V73.06z M50,52.86l-14.2-4.7l14.2-4.7l14.3,4.7
		L50,52.86z"/>
	<path class="st0" d="M12.1,49.86c1.1,0,2.1-0.9,2.1-2.1c0-11.7,9-21.3,20.5-22.2v5.2c0,0.7,0.4,1.4,1.1,1.8c0.3,0.2,0.7,0.3,1,0.3
		c0.4,0,0.7-0.1,1.1-0.3l12.4-7.5c0.6-0.4,1-1,1-1.8c0-0.8-0.4-1.4-1-1.8l-12.5-7.4c-0.6-0.4-1.4-0.4-2.1,0
		c-0.7,0.4-1.1,1.1-1.1,1.8v5.6c-13.7,1-24.6,12.4-24.6,26.4C10,48.96,10.9,49.86,12.1,49.86z"/>
	<path class="st0" d="M36.6,97.06c-11.7,0-21.3-9-22.2-20.5h5.2c0.7,0,1.4-0.4,1.8-1.1c0.4-0.7,0.4-1.4,0-2.1l-7.5-12.4
		c-0.4-0.6-1-1-1.8-1s-1.4,0.4-1.8,1l-7.5,12.5c-0.4,0.6-0.4,1.4,0,2.1c0.4,0.7,1.1,1.1,1.8,1.1h5.6c1,13.7,12.4,24.6,26.4,24.6
		c1.1,0,2.1-0.9,2.1-2.1S37.7,97.06,36.6,97.06z"/>
	<path class="st0" d="M87.9,72.66c-1.1,0-2.1,0.9-2.1,2.1c0,11.7-9,21.3-20.5,22.2v-5.2c0-0.7-0.4-1.4-1.1-1.8
		c-0.7-0.4-1.4-0.4-2.1,0l-12.4,7.5c-0.6,0.4-1,1-1,1.8s0.4,1.4,1,1.8l12.4,7.5c0.3,0.2,0.7,0.3,1.1,0.3c0.4,0,0.7-0.1,1-0.3
		c0.7-0.4,1.1-1.1,1.1-1.8v-5.6c13.8-1.1,24.7-12.5,24.7-26.5C90,73.56,89.1,72.66,87.9,72.66z"/>
	<path class="st0" d="M97.2,46.96c-0.4-0.7-1.1-1.1-1.8-1.1h-5.6c-1-13.7-12.4-24.6-26.4-24.6c-1.1,0-2.1,0.9-2.1,2.1
		s0.9,2.1,2.1,2.1c11.7,0,21.3,9,22.2,20.5h-5.2c-0.7,0-1.4,0.4-1.8,1.1c-0.4,0.7-0.4,1.4,0,2.1l7.5,12.4c0.4,0.6,1,1,1.8,1
		c0.7,0,1.4-0.4,1.8-1l7.5-12.4C97.6,48.36,97.6,47.56,97.2,46.96z"/>
</g>
</svg>
