<?xml version="1.0" encoding="utf-8"?>
<!-- Generator: Adobe Illustrator 21.1.0, SVG Export Plug-In . SVG Version: 6.00 Build 0)  -->
<svg version="1.1" id="Layer_1" xmlns="http://www.w3.org/2000/svg" xmlns:xlink="http://www.w3.org/1999/xlink" x="0px" y="0px"
	 viewBox="0 0 64 64" enable-background="new 0 0 64 64" xml:space="preserve">
<g>
	<g>
		<g id="Telecommunication">
			<g id="signal-tower" transform="translate(20 14)">
				<path id="Path_2489" fill="#FFFFFF" d="M5.8,12.8c0.4,0.5,1,0.6,1.5,0.2s0.6-1,0.2-1.5C6,9.5,6.1,6.7,7.7,4.7
					C8.1,4.2,8,3.6,7.5,3.2S6.4,2.9,6,3.3l0,0C3.8,6.1,3.7,10,5.8,12.8L5.8,12.8z"/>
				<path id="Path_2490" fill="#FFFFFF" d="M3.5,16.1c0.6,0,1.1-0.5,1.1-1.1c0-0.2-0.1-0.5-0.2-0.7c-3-3.7-2.9-9,0.2-12.6
					C5,1.2,4.9,0.6,4.5,0.2C4-0.1,3.3-0.1,2.9,0.4C-0.9,4.8-1,11.2,2.7,15.7C2.9,16,3.2,16.1,3.5,16.1z"/>
				<path id="Path_2491" fill="#FFFFFF" d="M17.5,8.2c0,1.2-0.4,2.4-1.1,3.3C16,12,16.1,12.6,16.6,13s1.2,0.3,1.5-0.2l0,0
					c2.1-2.8,2-6.7-0.2-9.5c-0.4-0.5-1.1-0.5-1.5-0.2c-0.5,0.4-0.5,1.1-0.2,1.5C17,5.7,17.5,6.9,17.5,8.2z"/>
				<path id="Path_2492" fill="#FFFFFF" d="M21.8,8.2c0,2.2-0.8,4.4-2.2,6.2c-0.4,0.5-0.3,1.1,0.1,1.5s1.1,0.3,1.5-0.1l0,0
					c3.7-4.5,3.6-11-0.2-15.3C20.6,0,19.9,0,19.5,0.4C19,0.7,19,1.3,19.4,1.8C20.9,3.6,21.8,5.8,21.8,8.2z"/>
				<path id="Path_2493" fill="#FFFFFF" d="M22.1,34.7h-3l-5.5-23.5c1.6-0.9,2.3-2.9,1.4-4.6c-0.9-1.6-2.9-2.3-4.6-1.4
					S8.1,8.1,9,9.8c0.3,0.6,0.8,1.1,1.4,1.4L4.8,34.7h-3c-0.6,0-1.1,0.5-1.1,1.1s0.5,1.1,1.1,1.1h20.3c0.6,0,1.1-0.5,1.1-1.1
					S22.7,34.7,22.1,34.7L22.1,34.7z M14.8,26l-4.1-2.5l3.1-1.8L14.8,26z M12,7c0.7,0,1.2,0.5,1.2,1.2S12.7,9.4,12,9.4
					s-1.2-0.5-1.2-1.2l0,0C10.7,7.5,11.3,7,12,7z M12,13.8l1.3,5.7l-3.1,1.8L12,13.8z M9.3,25.2l5.1,3l-6.7,4L9.3,25.2z M7.6,34.7
					l8.1-4.8l1.1,4.8H7.6z"/>
			</g>
		</g>
	</g>
</g>
</svg>
