<?xml version="1.0" encoding="utf-8"?>
<!-- Generator: Adobe Illustrator 23.0.1, SVG Export Plug-In . SVG Version: 6.00 Build 0)  -->
<svg version="1.1" id="Illustration" xmlns="http://www.w3.org/2000/svg" xmlns:xlink="http://www.w3.org/1999/xlink" x="0px"
	 y="0px" viewBox="0 0 3710 3710" style="enable-background:new 0 0 3710 3710;" xml:space="preserve">
<style type="text/css">
	.st1000{opacity:0.1;fill:#0AA350;}
	.st1{fill:#95D7B3;}
	.st2{fill:#BDD0FB;}
	.st3{fill:#DCE5FE;}
	.st4{fill:url(#SVGID_1_);}
	.st5{fill:#91B3FA;}
	.st6{fill:url(#SVGID_2_);}
	.st7{fill:#7D97F4;}
	.st8{opacity:0.87;fill:#FFFFFF;}
	.st9{fill:url(#SVGID_3_);}
	.st10{fill:url(#SVGID_4_);}
	.st11{fill:url(#SVGID_5_);}
	.st12{fill:url(#SVGID_6_);}
	.st13{fill:url(#SVGID_7_);}
	.st14{fill:url(#SVGID_8_);}
	.st15{fill:url(#SVGID_9_);}
	.st16{fill:url(#SVGID_10_);}
	.st17{fill:#FFFFFF;}
	.st18{fill:url(#SVGID_11_);}
	.st19{fill:url(#SVGID_12_);}
	.st20{fill:url(#SVGID_13_);}
	.st21{fill:url(#SVGID_14_);}
	.st22{fill:url(#SVGID_15_);}
	.st23{fill:url(#SVGID_16_);}
	.st24{fill:url(#SVGID_17_);}
	.st25{fill:url(#SVGID_18_);}
	.st26{fill:url(#SVGID_19_);}
	.st27{fill:url(#SVGID_20_);}
	.st28{fill:url(#SVGID_21_);}
	.st29{fill:url(#SVGID_22_);}
	.st30{opacity:0.6;fill:#FFFFFF;}
	.st31{fill:url(#SVGID_23_);}
	.st32{fill:url(#SVGID_24_);}
	.st33{fill:url(#SVGID_25_);}
	.st34{fill:url(#SVGID_26_);}
	.st35{fill:url(#SVGID_27_);}
	.st36{fill:url(#SVGID_28_);}
	.st37{fill:url(#SVGID_29_);}
	.st38{fill:url(#SVGID_30_);}
	.st39{fill:url(#SVGID_31_);}
	.st40{fill:url(#SVGID_32_);}
	.st41{fill:url(#SVGID_33_);}
	.st42{fill:url(#SVGID_34_);}
	.st43{fill:url(#SVGID_35_);}
	.st44{fill:url(#SVGID_36_);}
	.st45{fill:url(#SVGID_37_);}
	.st46{fill:url(#SVGID_38_);}
	.st47{fill:url(#SVGID_39_);}
	.st48{fill:url(#SVGID_40_);}
	.st49{fill:url(#SVGID_41_);}
	.st50{fill:url(#SVGID_42_);}
	.st51{fill:url(#SVGID_43_);}
	.st52{fill:url(#SVGID_44_);}
	.st53{fill:url(#SVGID_45_);}
	.st54{fill:url(#SVGID_46_);}
	.st55{fill:url(#SVGID_47_);}
	.st56{fill:url(#SVGID_48_);}
	.st57{fill:url(#SVGID_49_);}
	.st58{fill:url(#SVGID_50_);}
	.st59{fill:url(#SVGID_51_);}
	.st60{fill:url(#SVGID_52_);}
	.st61{fill:url(#SVGID_53_);}
	.st62{fill:url(#SVGID_54_);}
	.st63{fill:url(#SVGID_55_);}
	.st64{fill:url(#SVGID_56_);}
	.st65{fill:url(#SVGID_57_);}
	.st66{fill:url(#SVGID_58_);}
	.st67{fill:url(#SVGID_59_);}
	.st68{fill:url(#SVGID_60_);}
	.st69{fill:url(#SVGID_61_);}
	.st70{fill:url(#SVGID_62_);}
	.st71{fill:url(#SVGID_63_);}
	.st72{fill:url(#SVGID_64_);}
	.st73{fill:url(#SVGID_65_);}
	.st74{fill:url(#SVGID_66_);}
	.st75{fill:url(#SVGID_67_);}
	.st76{fill:url(#SVGID_68_);}
	.st77{fill:url(#SVGID_69_);}
	.st78{fill:url(#SVGID_70_);}
	.st79{fill:url(#SVGID_71_);}
	.st80{fill:url(#SVGID_72_);}
	.st81{fill:url(#SVGID_73_);}
	.st82{fill:url(#SVGID_74_);}
	.st83{fill:url(#SVGID_75_);}
	.st84{fill:url(#SVGID_76_);}
	.st85{fill:url(#SVGID_77_);}
	.st86{fill:url(#SVGID_78_);}
	.st87{fill:url(#SVGID_79_);}
</style>
<g>
	<path class="st1000" d="M3469,2333c-355.1,666.5-1292.6,952.8-2027.1,904c-200.5-13.3-604.1-40.1-919.1-279.4
		C-82.2,2498.2,11,1537.8,590.2,972.4c74.6-72.8,590.9-560.6,1395.5-554.1c589.1,4.8,1002.5,272,1052.8,305.3
		c63.5,42,203.6,142,329.8,300.5C3664.9,1396.5,3691,1916.5,3469,2333z"/>
	<path class="st1" d="M2698.4,876.9c55.6,16.5,138.8,91.8,211.7,211.7c89.7,147.6,143,160.5,269.9,87.8
		c126.9-72.7,276-23.9,383.9,169.7c107.9,193.6-81.1,344.1-256.3,579.9c-175.2,235.8,174.6,174.8,287.9,450.3
		c113.3,275.4-46.5,584.4-572.2,580.7c-526.5-3.7-1322.3,3.4-1322.3,3.4s-738.1,65.1-1006.8-103.1
		c-268.8-168.2,61.8-250.1-188.2-357.6C255.9,2392-5,2384.8,104.3,2106.7s264-220.5,363.8-294.8c99.8-74.3,159.9-155,17.1-287.4
		c-142.7-132.3-252-221.5-179.9-396.8c103.5-251.5,354.8-284,630.8-177.4c276,106.6,322.9,243.1,778.4,164.1
		C1968.8,1070.4,2224.9,736,2698.4,876.9z"/>
	<g>
		<path class="st2" d="M2567.8,2911c2.1,3.4,7.3,1.3,6.4-2.6c-12.7-55.7-41.4-235,91.4-321.2c154.8-100.4,421.6-144,258.1-750.8
			c-6-22.2-31.6-32.4-51.3-20.5c-90.9,55.3-309.2,208.5-320.6,411.6c-14.5,256.9,29.9,311.3,7.1,405.9
			C2518.7,2800.7,2549.7,2881.1,2567.8,2911z"/>
		<g>
			<path class="st2" d="M2497.6,2924.2c-0.6,2.4-4.2,1.7-3.9-0.8c14.5-99.9,56-415,44.2-666.6c-14.3-303.2-68.2-436.5-91.9-590.9
				c-23.7-154.4,74.2-350.1,336.2-286.9c213.9,51.6,382.1,86.8,460.9,75.4c15.1-2.2,26.4,13.6,19.5,27.3
				c-45.3,90-168.2,293.3-361.6,309.5c-249.1,20.8-252.6-47.4-305,18.8c-52.5,66.1-49.8,131-45.7,252.7
				C2554.2,2180,2570.6,2642.5,2497.6,2924.2z"/>
			<path class="st3" d="M2528.6,1963.3c-7.5-18.7-13.3-37.4-18.4-56.6c-5-19.1-9.2-38.5-12-58.1c-5.6-39.2-6.7-79.4,0.4-119
				c3.6-19.7,9.4-39.2,17.7-57.6c8.3-18.4,19.2-35.8,32.6-51c13.4-15.2,29.3-28.2,46-39.2c8.4-5.2,16.6-10.6,25.3-15.4
				c8.5-5.1,17.3-9.5,26.1-14.1c17.8-8.7,36-16.5,54.9-22.8c18.9-6.1,38.3-10.8,57.9-13.8c19.6-3,39.5-4.4,59.2-4.3
				c19.8,0,39.4,1.4,58.9,3.2c39,3.8,77.5,9.2,116.1,11.2c38.6,2.2,77.4,0.2,115.6-6.5l0,0c1.7-0.3,3.3,0.8,3.6,2.5
				c0.3,1.7-0.8,3.3-2.5,3.6c-38.5,7.7-77.9,10.8-117.1,9.6c-39.3-1-78.1-6-116.8-9c-38.6-3-77.3-3.5-115,2.8
				c-18.9,3.1-37.4,7.9-55.5,14c-18.1,6.3-35.6,14-52.7,22.7c-8.5,4.5-17,9-25.2,14c-8.4,4.7-16.4,10.1-24.4,15.3
				c-15.8,10.5-30.2,22.5-42.5,36.6c-24.6,28.3-39.5,64.1-46.1,101.2c-6.7,37.3-5.9,75.9-0.5,113.8c2.7,19,6.4,37.8,11.1,56.5
				c4.7,18.6,10.3,37.2,17.1,54.8l0.1,0.3c1.5,3.8-0.4,8.2-4.3,9.6C2534.4,1969,2530.2,1967.1,2528.6,1963.3z"/>
		</g>
		<g>
			<path class="st2" d="M2543.3,2904.3c-1.4,2.1-4.7,0.4-3.8-2c13.2-35.3,41.7-127.5,34.9-248.2c-8.7-155.7-123.1-531.4,172.6-599.4
				c260.5-59.9,414.5-73,486.7-123.6c10.5-7.4,24.9,0.4,24.5,13.2c-3.3,93.1-27.6,339-190.4,400c-202,75.7-398.1-7.2-462.5,65.5
				C2542.7,2480.3,2648,2750.7,2543.3,2904.3z"/>
			<path class="st3" d="M2560.3,2466.4c-1.3-17-1.5-33.6-1-50.4c0.5-16.7,1.5-33.5,3.2-50.1c3.6-33.3,9.7-66.6,19.8-98.9
				c5-16.2,11.2-32.1,18.2-47.6c7.2-15.5,15.9-30.4,25.6-44.6c10-14.1,21.4-27.3,34.2-39.1l10.1-8.4c1.7-1.4,3.3-2.9,5.1-4.1
				l5.4-3.7c3.6-2.4,7.1-5.1,10.9-7.3l11.4-6.5l2.9-1.6l3-1.3l6-2.7c4-1.7,7.9-3.8,12.1-5l12.4-4.2c4.1-1.5,8.3-2.3,12.4-3.5
				c16.6-4.2,33.7-6.8,50.7-8.1c34.3-2.7,68.1,1.9,100.6,5.9c32.6,4.3,64.8,7.5,96.5,2.6c31.7-4.7,61.9-17.7,90-34.7l0,0
				c1.3-0.8,3-0.4,3.8,0.9c0.7,1.2,0.4,2.8-0.7,3.7c-13.3,10-27.5,19.1-42.7,26.5c-15.2,7.4-31.3,13.2-48,16.8
				c-16.7,3.5-33.8,5.1-50.7,5.2c-16.9,0-33.7-1.3-50.2-2.6c-16.5-1.4-32.8-3-49-3.7c-16.2-0.7-32.2-0.6-48,0.8
				c-15.8,1.4-31.5,4.2-46.8,8.3c-3.8,1.1-7.7,2-11.4,3.4l-11,3.9c-3.8,1.1-7.2,3-10.7,4.6l-5.3,2.4l-2.7,1.2l-2.5,1.4l-10.1,5.8
				c-3.4,1.9-6.4,4.4-9.7,6.5l-4.8,3.3c-1.6,1.1-3,2.5-4.5,3.7l-8.9,7.5c-11.3,10.7-21.8,22.5-31,35.3
				c-18.1,25.9-31.6,55.1-41.7,85.7c-4.9,15.3-9.3,30.9-12.8,46.7c-3.5,15.8-6.3,31.8-8.6,47.9c-4.6,32.1-6.8,65-6.6,97.3l0,0.3
				c0,4.1-3.3,7.5-7.4,7.5C2563.8,2473.3,2560.6,2470.3,2560.3,2466.4z"/>
		</g>
		<g>
			<path class="st2" d="M1287.1,2335.3c0,0,9.8-257.2-107.7-327.8c-117.5-70.6-342.2-116.8-345.4-486.4
				c-1.8-216.4-5.8-311-8.8-352.3c-1.2-16.1,13.3-28.9,29.1-25.7c111.9,22.8,475.3,115,548.2,365
				C1488.9,1804.5,1287.1,2335.3,1287.1,2335.3z"/>
			<path class="st3" d="M939.5,1247.4c8.6,7.9,16.9,16,25,24.2c4.1,4.1,8.1,8.3,12,12.5c4,4.2,8,8.4,11.9,12.7
				c7.8,8.5,15.7,17,23.2,25.8l11.5,13.1l11.2,13.3l11.1,13.4l10.8,13.6c7.2,9,14.4,18.1,21.3,27.4c14.1,18.4,27.4,37.4,40.8,56.3
				c12.9,19.3,26,38.4,38,58.2l9.2,14.8l4.6,7.4l4.4,7.5l17.5,30.1l4.3,7.5l4.1,7.7l8.2,15.4l8.2,15.4l4.1,7.7l3.8,7.8
				c10.1,20.9,20.8,41.4,29.8,63.1c2.4,5.3,4.5,10.8,6.7,16.2c2.1,5.4,4.4,10.8,6.4,16.3l5.9,16.5l3,8.3l2.7,8.3l5.4,16.7l4.9,16.8
				c3.4,11.2,6,22.6,8.9,33.9c10.7,45.4,18.5,91.5,22.6,137.9c4.4,46.4,5.4,93,3.7,139.4c-1,23.2-2.6,46.4-5,69.5
				c-2.4,23.2-5.5,46-10.2,69.2c-0.8,4.2-4.9,6.9-9.1,6c-4-0.8-6.7-4.6-6.1-8.7l0-0.3c6.4-44.7,9.4-90.7,9.8-136.2
				c0.4-45.6-1.6-91.3-6.5-136.5c-4.8-45.3-12.6-90.2-23.3-134.3c-11.2-44-24.7-87.5-42.6-129.1c-36.3-83.5-80.9-163.9-130.4-240.8
				l-19.1-28.6c-6.2-9.6-13.1-18.8-19.6-28.2c-6.5-9.5-13.2-18.7-20-27.9l-10.2-13.9l-10.5-13.6c-27.7-36.5-57.1-71.9-88.2-105.3
				l-0.1-0.1c-1.7-1.8-1.6-4.5,0.2-6.2C935.2,1245.9,937.8,1245.9,939.5,1247.4z"/>
		</g>
		<g>
			<path class="st2" d="M1322,2894.1c18.3,8.9-173.6-230.6-234.9-607.6c-28.9-177.6-30.1-400.4-131.7-485.8
				c-84.5-71.1-371.1-24.9-464.9-7.4c-11.7,2.2-15.6,17-6.5,24.6c45.1,37.6,141.7,126.4,167.2,216.1
				c33.5,118.3,146.4,193.2,247.2,213.2c100.9,20,157,39.6,206.7,200.5C1154.9,2608.8,1270,2868.9,1322,2894.1z"/>
			<path class="st3" d="M622.6,1843c60.6,2.4,120.4,17.2,175.5,43.2c27.6,12.9,53.6,29.4,77.2,49.1c23.4,19.8,44.3,42.8,60.9,68.7
				l6.2,9.7c2,3.3,3.8,6.7,5.7,10c1.8,3.4,3.8,6.8,5.4,10.1l5,10.1c6.8,13.4,13.5,26.9,20,40.4c13.2,27.1,25.9,54.3,38.1,81.8
				c24.6,54.9,47.4,110.6,66.7,167.7c0.5,1.6-0.3,3.3-1.9,3.8c-1.5,0.5-3.2-0.2-3.8-1.7l0-0.1c-11.3-27.7-23.2-55.2-35.6-82.5
				c-12.2-27.4-24.8-54.6-37.6-81.7c-12.8-27.1-25.8-54.1-39.2-80.9c-6.6-13.5-13.3-26.8-20.1-40.2l-5.1-10
				c-1.7-3.3-3.5-6.5-5.3-9.7c-1.8-3.2-3.4-6.5-5.3-9.6l-5.8-9.3c-15.6-24.8-35.6-46.7-57.6-66.1c-11.2-9.5-22.8-18.6-35.2-26.5
				l-4.6-3.1l-4.7-2.9c-3.2-1.9-6.3-3.9-9.4-5.8c-6.4-3.6-12.8-7.3-19.5-10.6c-26.3-13.6-54.3-23.9-82.8-32.2
				c-28.5-8.3-58-14.2-87.6-17l-0.2,0c-1.3-0.1-2.3-1.3-2.2-2.6C620.3,1843.9,621.4,1843,622.6,1843z"/>
		</g>
		<g>
			<path class="st2" d="M1231.3,2990.5c10.8,5.7-61-117.9-66.5-226.8c-5.5-108.9-30.1-294.8-124-406
				c-93.9-111.2-196.8-121.3-326.4-20.3c-108,84.2-175.4,126.8-214.9,134.7c-9.8,2-14.8,13-10,21.8c25.3,46.7,97,153.9,217.3,146.3
				c153.4-9.6,339.4-109.4,396.1-26.2c56.7,83.2,49.4,129.8,51.1,169.2C1155.7,2822.6,1159.6,2952.7,1231.3,2990.5z"/>
			<path class="st3" d="M758,2471.1c8.5-8.2,17.4-15.5,26.7-22.6c9.3-7.1,18.8-13.8,28.7-19.9c19.8-12.4,41-22.9,63.6-30.2
				c11.3-3.6,23-6.4,34.9-7.9c11.9-1.5,24.2-1.7,36.3-0.2c3,0.5,6.1,0.8,9.1,1.4c3,0.7,6,1.3,8.9,2.1l17,5.3l16.6,6.5l16.1,7.7
				c21.1,11.1,40.2,26.2,56.1,43.9c16,17.7,28.5,38.1,38.7,59.1c2.6,5.3,5.2,10.5,7.3,16c2.2,5.4,4.5,10.8,6.5,16.3l5.7,16.5
				c2,5.5,3.3,11.2,4.9,16.8c6.4,22.4,10.7,45.2,14.4,68c0.2,1.5-0.8,2.8-2.2,3.1c-1.4,0.2-2.7-0.7-3-2l0-0.1
				c-5.5-22.3-10.8-44.6-18.3-66.2c-3.4-10.9-7.7-21.4-11.7-32.1c-2.1-5.3-4.6-10.4-6.9-15.6c-2.2-5.2-4.9-10.2-7.5-15.2
				c-10.5-20-23.2-38.7-38.3-55c-15.1-16.4-33.1-29.8-52.7-40.1l-15.1-7.1l-15.6-6l-16-4.9c-2.7-0.8-5.2-1.3-7.9-1.9
				c-2.6-0.6-5.3-0.9-8-1.3c-10.7-1.4-21.7-1.3-32.6-0.1c-10.9,1.2-21.8,3.4-32.5,6.5c-21.5,6.2-42.2,15.5-62.1,26.3
				c-9.9,5.5-19.8,11.2-29.4,17.4c-9.5,6.2-19,12.8-28,19.6l-0.1,0.1c-1.2,0.9-3,0.7-3.9-0.5C756.9,2473.6,757,2472,758,2471.1z"/>
		</g>
	</g>
	<linearGradient id="SVGID_1_" gradientUnits="userSpaceOnUse" x1="1124.5859" y1="1966.8759" x2="2584.0715" y2="1966.8759">
		<stop  offset="0" style="stop-color:#09005D"/>
		<stop  offset="1" style="stop-color:#1A0F91"/>
	</linearGradient>
	<path class="st4" d="M1265.4,957.2l1200.3,13.2c66.4,0.7,118.4,58,118.3,129.9l-1.1,1779.3c0,49.8-40.3,91.1-88.9,91.3l-1286.8,5.7
		c-45.4,0.2-82.6-37.8-82.6-84.4V1109C1124.6,1024.5,1187.6,956.4,1265.4,957.2z"/>
	<path class="st5" d="M2365.7,1127.8H1356.7c-42.3,0-76.3,34.9-76.3,76.1v1468.4c0,41.2,34,73.2,76.3,73.2h1008.9
		c42.3,0,76.9-32,76.9-73.2V1203.9C2442.6,1162.7,2408,1127.8,2365.7,1127.8z"/>
	<g>
		<linearGradient id="SVGID_2_" gradientUnits="userSpaceOnUse" x1="1596.191" y1="1966.8759" x2="2126.1858" y2="1966.8759">
			<stop  offset="0" style="stop-color:#DAE3FE"/>
			<stop  offset="1" style="stop-color:#E9EFFD"/>
		</linearGradient>
		<path class="st6" d="M1799.5,2379.1v-64.6c-67.4-2.7-134-18.6-181.3-39.3c-16.9-7.4-25.5-26.4-20.7-44.2l16.4-60.2
			c6-22.1,30-33.5,51.1-24.7c47,19.7,104.9,35.3,167.4,35.3c64.9,0,113.3-22,113.3-67.1c0-40.7-37.4-64.9-127.6-89.1
			c-128.7-35.2-221.1-91.3-221.1-204.6c0-102.3,74.8-180.4,204.6-201.3v-64.6c0-20.8,16.9-37.7,37.7-37.7h38
			c20.8,0,37.7,16.9,37.7,37.7v58c62.3,2.5,107.7,13.2,143.7,25.8c18.5,6.5,28.5,26.4,23.4,45.2l-15.1,55.7
			c-5.8,21.5-28.8,33.2-49.6,25.4c-33.2-12.5-80-25.6-141-25.6c-77,0-99,31.9-99,60.5c0,35.2,46.2,59.4,146.3,90.2
			c143,42.9,202.4,102.3,202.4,209c0,97.9-72.6,185.9-213.4,207.9v72.3c0,20.8-16.9,37.7-37.7,37.7h-38
			C1816.4,2416.7,1799.5,2399.9,1799.5,2379.1z"/>
	</g>
	<g>
		<path class="st7" d="M3328.5,1930.3l-620.4-55.1c-25.2-2.2-44.5-23.2-44.6-48.5l-2.3-418.3c-0.2-28.5,23.9-51.1,52.3-49.1
			l660.6,46c27.3,1.9,47.8,25.9,45.4,53.1l-37.9,427.4C3379.1,1912.8,3355.4,1932.7,3328.5,1930.3z"/>
		<path class="st8" d="M2697.5,1448.9l-4.1,361.2c-0.2,15.7,11.7,28.9,27.3,30.5l594.9,59.1c16.8,1.7,31.7-10.7,33.1-27.4L3383,1486
			c1.5-17.1-11.4-32-28.5-32.9l-625.1-34.1C2712.2,1418.1,2697.7,1431.7,2697.5,1448.9z"/>
		<path class="st7" d="M2979.5,1764.5l336.7,19.8c3.5,0.2,6.1,3.2,5.7,6.7l-0.5,5.4c-0.3,3.3-3.2,5.8-6.6,5.6l-336.2-25.2
			c-3.4-0.3-6-3.2-5.6-6.7v0C2973.4,1766.8,2976.2,1764.3,2979.5,1764.5z"/>
		<path class="st7" d="M2970.6,1798.2l-0.2,2.3c-0.3,3.4,2.2,6.3,5.6,6.6l335.8,29.8c3.4,0.3,6.3-2.2,6.6-5.6l0.2-2.3
			c0.3-3.4-2.2-6.3-5.6-6.6l-335.8-29.8C2973.8,1792.4,2970.9,1794.9,2970.6,1798.2z"/>
		<path class="st7" d="M3069.8,1837.4l-0.1,1c-0.3,3.4,2.2,6.3,5.6,6.6l233.9,20.8c3.4,0.3,6.3-2.2,6.6-5.6l0.4-4.8
			c0.3-3.4-2.2-6.4-5.7-6.7l-234.2-17C3073,1831.6,3070.1,1834,3069.8,1837.4z"/>
	</g>
	<g>
		
			<linearGradient id="SVGID_3_" gradientUnits="userSpaceOnUse" x1="3411.2927" y1="960.7563" x2="2340.6709" y2="1832.0315" gradientTransform="matrix(0.9998 2.040000e-02 -2.040000e-02 0.9998 17.9687 38.1115)">
			<stop  offset="0" style="stop-color:#FE7062"/>
			<stop  offset="1" style="stop-color:#FF928E"/>
		</linearGradient>
		<path class="st9" d="M3276.4,1780.9l-732.2-14.9c-29.7-0.6-54-23.7-56.2-53.3l-36.2-490.5c-2.5-33.4,24-61.8,57.5-61.8l778.6,1
			c32.2,0,58.1,26.5,57.5,58.7l-10.3,504.4C3334.5,1756.3,3308.2,1781.5,3276.4,1780.9z"/>
		<linearGradient id="SVGID_4_" gradientUnits="userSpaceOnUse" x1="2717.5664" y1="399.6739" x2="2913.7986" y2="1474.1283">
			<stop  offset="0" style="stop-color:#FF928E"/>
			<stop  offset="1" style="stop-color:#FEB3B1"/>
		</linearGradient>
		<path class="st10" d="M2497.8,1266.7l24.1,424c1,18.4,16,33,34.4,33.6l702.6,21.7c19.8,0.6,36.3-15.1,36.7-34.8l9.3-455.8
			c0.4-20.1-15.9-36.6-36.1-36.3l-736,10.1C2512.6,1229.4,2496.6,1246.5,2497.8,1266.7z"/>
		
			<linearGradient id="SVGID_5_" gradientUnits="userSpaceOnUse" x1="3548.6807" y1="1129.5282" x2="2478.0251" y2="2000.8308" gradientTransform="matrix(0.9998 2.040000e-02 -2.040000e-02 0.9998 17.9687 38.1115)">
			<stop  offset="0" style="stop-color:#FE7062"/>
			<stop  offset="1" style="stop-color:#FF928E"/>
		</linearGradient>
		<path class="st11" d="M2853.9,1614.3l396.5-3.8c4.1,0,7.4,3.3,7.3,7.4l-0.1,6.4c-0.1,3.9-3.3,7.1-7.3,7.1l-396.4-2.6
			c-4,0-7.2-3.3-7.2-7.4l0,0C2846.8,1617.5,2850,1614.4,2853.9,1614.3z"/>
		
			<linearGradient id="SVGID_6_" gradientUnits="userSpaceOnUse" x1="3566.9575" y1="1151.9835" x2="2496.301" y2="2023.2869" gradientTransform="matrix(0.9998 2.040000e-02 -2.040000e-02 0.9998 17.9687 38.1115)">
			<stop  offset="0" style="stop-color:#FE7062"/>
			<stop  offset="1" style="stop-color:#FF928E"/>
		</linearGradient>
		<path class="st12" d="M2846.1,1654.6l-0.1,2.7c-0.1,4,3.1,7.3,7.1,7.4l396.3,8.1c4,0.1,7.3-3.1,7.4-7.1l0.1-2.7
			c0.1-4-3.1-7.3-7.1-7.4l-396.3-8.1C2849.4,1647.5,2846.1,1650.6,2846.1,1654.6z"/>
		
			<linearGradient id="SVGID_7_" gradientUnits="userSpaceOnUse" x1="3607.947" y1="1202.3469" x2="2537.2927" y2="2073.6484" gradientTransform="matrix(0.9998 2.040000e-02 -2.040000e-02 0.9998 17.9687 38.1115)">
			<stop  offset="0" style="stop-color:#FE7062"/>
			<stop  offset="1" style="stop-color:#FF928E"/>
		</linearGradient>
		<path class="st13" d="M2965.6,1692.6l0,1.2c-0.1,4,3.1,7.3,7.1,7.4l276,5.6c4,0.1,7.3-3.1,7.4-7.1l0.1-5.6c0.1-4-3.1-7.3-7.2-7.4
			l-276.1-1.2C2968.9,1685.5,2965.7,1688.6,2965.6,1692.6z"/>
	</g>
	<linearGradient id="SVGID_8_" gradientUnits="userSpaceOnUse" x1="2237.4941" y1="1341.0187" x2="3228.634" y2="1341.0187">
		<stop  offset="0" style="stop-color:#020039"/>
		<stop  offset="1" style="stop-color:#090056"/>
	</linearGradient>
	<path class="st14" d="M3164.8,1684.6h-812.3c-32.9,0-60.5-25.1-63.5-57.8l-51.2-543.1c-3.5-37,25.2-69.1,62.3-69.8l863.5-16.4
		c35.7-0.7,65,28.1,65,63.8v559.6C3228.6,1656.1,3200.1,1684.6,3164.8,1684.6z"/>
	<linearGradient id="SVGID_9_" gradientUnits="userSpaceOnUse" x1="2289.5801" y1="1354.033" x2="3184.4558" y2="1354.033">
		<stop  offset="0" style="stop-color:#DAE3FE"/>
		<stop  offset="1" style="stop-color:#E9EFFD"/>
	</linearGradient>
	<path class="st15" d="M2289.7,1132.1l36.3,469.7c1.6,20.4,18.5,36.2,38.9,36.4l779.6,8.2c22,0.2,39.9-17.5,39.9-39.5v-505.6
		c0-22.3-18.5-40.2-40.8-39.5l-815.9,27.8C2305.3,1090.3,2288,1109.7,2289.7,1132.1z"/>
	<path class="st7" d="M2705.9,1127.8l439.6-13.2c4.5-0.1,8.2,3.5,8.2,8v7.1c0,4.4-3.5,7.9-7.9,8l-439.6,6.1c-4.5,0.1-8.1-3.5-8.1-8
		l0,0C2698.2,1131.4,2701.6,1127.9,2705.9,1127.8z"/>
	<path class="st7" d="M2698.2,1172.6v3c0,4.4,3.6,8,8,8h439.6c4.4,0,8-3.6,8-8v-3c0-4.4-3.6-8-8-8h-439.6
		C2701.7,1164.6,2698.2,1168.2,2698.2,1172.6z"/>
	<g>
		<path class="st7" d="M2590.8,1568c-2,0-3.6-1.6-3.6-3.6l0-10.8c0-2,1.6-3.6,3.6-3.6c0,0,0,0,0,0c2,0,3.6,1.6,3.6,3.6l0,10.8
			C2594.4,1566.4,2592.8,1568,2590.8,1568C2590.8,1568,2590.8,1568,2590.8,1568z M2590.7,1532.1c-2,0-3.6-1.6-3.6-3.6l0-10.8
			c0-2,1.6-3.6,3.6-3.6c0,0,0,0,0,0c2,0,3.6,1.6,3.6,3.6l0,10.8C2594.3,1530.5,2592.7,1532.1,2590.7,1532.1
			C2590.7,1532.1,2590.7,1532.1,2590.7,1532.1z M2590.6,1496.2c-2,0-3.6-1.6-3.6-3.6l0-10.8c0-2,1.6-3.6,3.6-3.6c0,0,0,0,0,0
			c2,0,3.6,1.6,3.6,3.6l0,10.8C2594.2,1494.6,2592.6,1496.2,2590.6,1496.2C2590.6,1496.2,2590.6,1496.2,2590.6,1496.2z
			 M2590.5,1460.4c-2,0-3.6-1.6-3.6-3.6l0-10.8c0-2,1.6-3.6,3.6-3.6c0,0,0,0,0,0c2,0,3.6,1.6,3.6,3.6l0,10.8
			C2594.1,1458.7,2592.5,1460.4,2590.5,1460.4C2590.5,1460.4,2590.5,1460.4,2590.5,1460.4z"/>
	</g>
	<g>
		<path class="st7" d="M2770.9,1557.7c-2,0-3.6-1.6-3.6-3.6v-10.8c0-2,1.6-3.6,3.6-3.6c2,0,3.6,1.6,3.6,3.6v10.8
			C2774.5,1556.1,2772.9,1557.7,2770.9,1557.7z M2770.9,1521.9c-2,0-3.6-1.6-3.6-3.6v-10.8c0-2,1.6-3.6,3.6-3.6c2,0,3.6,1.6,3.6,3.6
			v10.8C2774.5,1520.3,2772.9,1521.9,2770.9,1521.9z M2770.9,1486c-2,0-3.6-1.6-3.6-3.6v-10.8c0-2,1.6-3.6,3.6-3.6
			c2,0,3.6,1.6,3.6,3.6v10.8C2774.5,1484.4,2772.9,1486,2770.9,1486z M2770.9,1450.1c-2,0-3.6-1.6-3.6-3.6v-10.8
			c0-2,1.6-3.6,3.6-3.6c2,0,3.6,1.6,3.6,3.6v10.8C2774.5,1448.5,2772.9,1450.1,2770.9,1450.1z M2770.9,1414.3c-2,0-3.6-1.6-3.6-3.6
			v-10.8c0-2,1.6-3.6,3.6-3.6c2,0,3.6,1.6,3.6,3.6v10.8C2774.5,1412.7,2772.9,1414.3,2770.9,1414.3z"/>
	</g>
	<g>
		<path class="st7" d="M2908.3,1587.4c-1.9,0-3.5-1.5-3.6-3.5l-0.2-6.4c-0.1-2,1.5-3.6,3.5-3.7c2-0.2,3.6,1.5,3.7,3.5l0.2,6.4
			c0.1,2-1.5,3.6-3.5,3.7C2908.4,1587.4,2908.4,1587.4,2908.3,1587.4z M2907.4,1555.9c-1.9,0-3.5-1.5-3.6-3.5l-0.3-10.8
			c-0.1-2,1.5-3.6,3.5-3.7c2-0.1,3.6,1.5,3.7,3.5l0.3,10.8c0.1,2-1.5,3.6-3.5,3.7C2907.4,1555.9,2907.4,1555.9,2907.4,1555.9z
			 M2906.2,1520c-1.9,0-3.5-1.5-3.6-3.5l-0.3-10.8c-0.1-2,1.5-3.6,3.5-3.7c2-0.1,3.6,1.5,3.7,3.5l0.3,10.8c0.1,2-1.5,3.6-3.5,3.7
			C2906.3,1520,2906.3,1520,2906.2,1520z M2905.1,1484.2c-1.9,0-3.5-1.5-3.6-3.5l-0.3-10.8c-0.1-2,1.5-3.6,3.5-3.7
			c2-0.1,3.6,1.5,3.7,3.5l0.3,10.8c0.1,2-1.5,3.6-3.5,3.7C2905.2,1484.2,2905.2,1484.2,2905.1,1484.2z M2904,1448.3
			c-1.9,0-3.5-1.5-3.6-3.5l-0.3-10.8c-0.1-2,1.5-3.6,3.5-3.7c2-0.2,3.6,1.5,3.7,3.5l0.3,10.8c0.1,2-1.5,3.6-3.5,3.7
			C2904.1,1448.3,2904.1,1448.3,2904,1448.3z M2902.9,1412.5c-1.9,0-3.5-1.5-3.6-3.5l-0.3-10.8c-0.1-2,1.5-3.6,3.5-3.7
			c2-0.1,3.6,1.5,3.7,3.5l0.3,10.8c0.1,2-1.5,3.6-3.5,3.7C2903,1412.5,2902.9,1412.5,2902.9,1412.5z M2901.8,1376.6
			c-1.9,0-3.5-1.5-3.6-3.5l-0.3-10.8c-0.1-2,1.5-3.6,3.5-3.7c2-0.1,3.6,1.5,3.7,3.5l0.3,10.8c0.1,2-1.5,3.6-3.5,3.7
			C2901.9,1376.6,2901.8,1376.6,2901.8,1376.6z"/>
	</g>
	<g>
		<path class="st7" d="M3038.9,1567.3c-2,0-3.6-1.6-3.6-3.6V1553c0-2,1.6-3.6,3.6-3.6s3.6,1.6,3.6,3.6v10.8
			C3042.5,1565.7,3040.9,1567.3,3038.9,1567.3z M3038.9,1531.4c-2,0-3.6-1.6-3.6-3.6v-10.8c0-2,1.6-3.6,3.6-3.6s3.6,1.6,3.6,3.6
			v10.8C3042.5,1529.8,3040.9,1531.4,3038.9,1531.4z M3038.9,1495.6c-2,0-3.6-1.6-3.6-3.6v-10.8c0-2,1.6-3.6,3.6-3.6
			s3.6,1.6,3.6,3.6v10.8C3042.5,1494,3040.9,1495.6,3038.9,1495.6z M3038.9,1459.7c-2,0-3.6-1.6-3.6-3.6v-10.8c0-2,1.6-3.6,3.6-3.6
			s3.6,1.6,3.6,3.6v10.8C3042.5,1458.1,3040.9,1459.7,3038.9,1459.7z M3038.9,1423.8c-2,0-3.6-1.6-3.6-3.6v-10.8
			c0-2,1.6-3.6,3.6-3.6s3.6,1.6,3.6,3.6v10.8C3042.5,1422.2,3040.9,1423.8,3038.9,1423.8z M3038.9,1388c-2,0-3.6-1.6-3.6-3.6v-10.8
			c0-2,1.6-3.6,3.6-3.6s3.6,1.6,3.6,3.6v10.8C3042.5,1386.4,3040.9,1388,3038.9,1388z M3038.9,1352.1c-2,0-3.6-1.6-3.6-3.6v-10.8
			c0-2,1.6-3.6,3.6-3.6s3.6,1.6,3.6,3.6v10.8C3042.5,1350.5,3040.9,1352.1,3038.9,1352.1z M3038.9,1316.2c-2,0-3.6-1.6-3.6-3.6
			v-10.8c0-2,1.6-3.6,3.6-3.6s3.6,1.6,3.6,3.6v10.8C3042.5,1314.6,3040.9,1316.2,3038.9,1316.2z M3038.9,1280.4
			c-2,0-3.6-1.6-3.6-3.6V1266c0-2,1.6-3.6,3.6-3.6s3.6,1.6,3.6,3.6v10.8C3042.5,1278.8,3040.9,1280.4,3038.9,1280.4z"/>
	</g>
	<g>
		<path class="st7" d="M2397.9,1609.7c-2.8,0-5.1-2.1-5.4-4.9l-36.8-434.3c-0.3-3,1.9-5.6,4.9-5.8c3-0.2,5.6,1.9,5.8,4.9l36.8,434.3
			c0.3,3-1.9,5.6-4.9,5.8C2398.2,1609.6,2398.1,1609.7,2397.9,1609.7z"/>
		<g>
			<polygon class="st7" points="2344.8,1192.9 2361.4,1173.2 2381.2,1189.8 2379.9,1174.4 2360.1,1157.8 2343.5,1177.5 			"/>
		</g>
	</g>
	<g>
		<path class="st7" d="M3126.7,1589.2H2370c-3,0-5.4-2.4-5.4-5.4s2.4-5.4,5.4-5.4h756.6c3,0,5.4,2.4,5.4,5.4
			S3129.6,1589.2,3126.7,1589.2z"/>
		<g>
			<polygon class="st7" points="3105.2,1602 3123.5,1583.8 3105.2,1565.6 3120.7,1565.6 3139,1583.8 3120.7,1602 			"/>
		</g>
	</g>
	<g>
		<path class="st7" d="M2429.4,1464.4c-2.7,0-5-2-5.3-4.7c-0.4-2.9,1.7-5.7,4.6-6c4-0.5,400.1-54.8,617-214.7
			c2.4-1.8,5.8-1.3,7.5,1.1c1.8,2.4,1.3,5.8-1.1,7.5c-219.1,161.6-617.9,216.2-622,216.7C2429.9,1464.4,2429.7,1464.4,2429.4,1464.4
			z"/>
	</g>
	<g>
		<path class="st7" d="M3050.6,1272c-0.1,0-0.3,0-0.4,0c-3-0.2-5.2-2.8-4.9-5.8l1.7-21.1l-29.8-1.8c-3-0.2-5.2-2.7-5.1-5.7
			c0.2-3,2.7-5.3,5.7-5.1l35.3,2.1c1.4,0.1,2.8,0.7,3.7,1.8c0.9,1.1,1.4,2.5,1.3,4l-2.1,26.6C3055.7,1269.8,3053.3,1272,3050.6,1272
			z"/>
	</g>
	
		<linearGradient id="SVGID_10_" gradientUnits="userSpaceOnUse" x1="617.1616" y1="1176.4337" x2="-40.9766" y2="2227.3308" gradientTransform="matrix(0.8862 -0.4632 0.4632 0.8862 -364.2154 481.2096)">
		<stop  offset="0" style="stop-color:#020039"/>
		<stop  offset="1" style="stop-color:#090056"/>
	</linearGradient>
	<path class="st16" d="M279.3,1395.1l429.5-229.5c23.7-12.7,53.2-4.5,67,18.5l364.4,605.8c10.8,18,4.6,41.4-13.8,51.7l-487.5,271.9
		c-17.3,9.6-39,3.2-48.4-14.2l-334.8-626.7C240.9,1444.7,251.4,1410,279.3,1395.1z"/>
	<path class="st17" d="M705.3,2064.7L705.3,2064.7l-55.5,28.7c-18.7,9.7-41.9,2.4-51.8-16.1l-44.4-83.2c-0.4-0.8-0.1-1.7,0.7-2.2
		c0.8-0.4,1.7-0.1,2.2,0.7l44.4,83.2c9.1,17,30.4,23.6,47.6,14.8l55.5-28.7c0.8-0.4,1.7-0.1,2.1,0.7
		C706.4,2063.4,706.1,2064.3,705.3,2064.7z"/>
	<path class="st17" d="M542,1969.1c-0.8,0.4-1.7,0.1-2.1-0.7l-7.2-13.5c-0.4-0.8-0.1-1.7,0.7-2.2c0,0,0,0,0,0
		c0.8-0.4,1.7-0.1,2.1,0.7l7.2,13.5C543.1,1967.7,542.8,1968.7,542,1969.1C542,1969.1,542,1969.1,542,1969.1z"/>
	<g>
		<path class="st5" d="M277.9,1389.3c62.9-23.4,277.7-106.5,437.7-208.4c7.3-4.6,17-2.4,21.4,5l367.4,607.7c5,8.3,2.4,19.2-5.9,24.3
			c-67.9,41.6-348.2,212-457,256.2c-6.6,2.7-14.2,0-17.6-6.3l-354.8-654.9C264.3,1404,268.4,1392.9,277.9,1389.3z"/>
		<path class="st2" d="M292.9,1402.2c60.5-22.5,267.3-102.5,421.2-200.6c7-4.5,16.3-2.3,20.6,4.8l353.6,584.9
			c4.8,8,2.3,18.4-5.7,23.3c-65.4,40.1-335.1,204-439.8,246.6c-6.4,2.6-13.7,0-16.9-6.1l-341.5-630.3
			C279.7,1416.3,283.8,1405.6,292.9,1402.2z"/>
		<linearGradient id="SVGID_11_" gradientUnits="userSpaceOnUse" x1="365.5875" y1="1348.0649" x2="739.8979" y2="1348.0649">
			<stop  offset="0" style="stop-color:#DAE3FE"/>
			<stop  offset="1" style="stop-color:#E9EFFD"/>
		</linearGradient>
		<path class="st18" d="M736.3,1257.8c3.1-1.7,4.5-4.9,3.1-7.2c-1.4-2.3-5.2-2.8-8.3-1.2l-363.2,190.3c-3.1,1.6-3,4.1,0.2,5.5
			l3.6,1.6c3.2,1.4,8.5,1.2,11.6-0.5L736.3,1257.8z"/>
		<linearGradient id="SVGID_12_" gradientUnits="userSpaceOnUse" x1="378.44" y1="1372.1232" x2="752.7503" y2="1372.1232">
			<stop  offset="0" style="stop-color:#DAE3FE"/>
			<stop  offset="1" style="stop-color:#E9EFFD"/>
		</linearGradient>
		<path class="st19" d="M380.7,1463.8c-3.1,1.6-3,4.1,0.2,5.5l3.6,1.6c3.2,1.4,8.5,1.2,11.6-0.5l353-188.6c3.1-1.7,4.5-4.9,3.1-7.2
			c-1.4-2.3-5.2-2.8-8.3-1.2L380.7,1463.8z"/>
		<path class="st17" d="M558.9,1649.6c0,0-0.1,0.1-0.1,0.1l-47.7,26.9c-6.9,3.9-15.2,2.4-19.5-3.4l-27.1-37.4
			c-1.6-2.2-2.2-5-1.7-7.8c0.6-3.1,2.5-6,5.3-7.9l0,0c3.8-2.6,9.1-6.2,14.9-10.2c12.6-8.7,26.8-18.7,35.5-23.8
			c0.1,0,0.1-0.1,0.2-0.1c6.3-3.6,13.9-2.9,18.6,1.8c7.8,7.7,17.5,25.2,27.7,43.9C568.2,1637.7,565.5,1645.8,558.9,1649.6z
			 M470.5,1623.8c-1.8,1.2-3,3-3.3,4.9c-0.3,1.6,0.1,3.1,0.9,4.4l27.1,37.4c2.9,4,8.7,4.9,13.6,2.1l47.7-26.9c0,0,0.1,0,0.1-0.1
			c4.5-2.6,6.5-8,4.3-12c-10-18.4-19.6-35.6-26.9-42.9c-3.2-3.2-9-3.7-13.4-1c-8.6,5.1-23.4,15.4-35.3,23.7
			C479.6,1617.6,474.3,1621.2,470.5,1623.8L470.5,1623.8z"/>
		<linearGradient id="SVGID_13_" gradientUnits="userSpaceOnUse" x1="474.3215" y1="1632.2579" x2="553.689" y2="1632.2579">
			<stop  offset="0" style="stop-color:#DAE3FE"/>
			<stop  offset="1" style="stop-color:#E9EFFD"/>
		</linearGradient>
		<path class="st20" d="M477.9,1624.9c9.6-6.4,30-21.1,40.2-27.2c4.3-2.6,9.7-2.1,12.9,1.1c6.2,6.2,14.4,21,21.8,34.7
			c2.2,4.1,0.4,9.5-4.2,12l-38.2,21.5c-4.7,2.6-10.4,1.7-13.2-2.2l-21.7-29.9C473.3,1631.8,474.3,1627.3,477.9,1624.9z"/>
		<linearGradient id="SVGID_14_" gradientUnits="userSpaceOnUse" x1="575.7509" y1="1526.6289" x2="837.1807" y2="1526.6289">
			<stop  offset="0" style="stop-color:#DAE3FE"/>
			<stop  offset="1" style="stop-color:#E9EFFD"/>
		</linearGradient>
		<path class="st21" d="M578.5,1583.3c-3.1,1.7-3.6,5.1-1.1,7.7l10.9,11c2.5,2.5,7,3.1,10.1,1.4L834,1467.4c3.1-1.8,4.1-5.7,2.2-8.7
			l-3.9-6.5c-1.8-3-5.9-4.1-9-2.4L578.5,1583.3z"/>
		
			<linearGradient id="SVGID_15_" gradientUnits="userSpaceOnUse" x1="-176.4974" y1="4258.3989" x2="-456.3271" y2="4736.0024" gradientTransform="matrix(0.8664 -0.4995 0.4995 0.8664 -1464.7568 -2424.9058)">
			<stop  offset="0" style="stop-color:#FE7062"/>
			<stop  offset="1" style="stop-color:#FF928E"/>
		</linearGradient>
		<path class="st22" d="M483.5,1630L483.5,1630c2.3-4.1,7.6-5.5,11.6-3.1l19,11.4c1.9,1.1,4.3-0.4,4.1-2.6l-6.6-65.1
			c-0.3-3.2,4-4.6,5.6-1.7c8.9,16,22,48.4,11.3,88.2c0,0-17,2.6-42.5-15.5C482.4,1638.9,481.3,1633.9,483.5,1630z"/>
		<path class="st17" d="M501.9,1540.5c0,0-0.1,0.1-0.1,0.1l-47.7,26.9c-6.9,3.9-15.2,2.4-19.5-3.4l-27.1-37.4
			c-1.6-2.2-2.2-5-1.7-7.8c0.6-3.1,2.5-6,5.3-7.9l0,0c3.8-2.6,9.1-6.2,14.9-10.2c12.6-8.7,26.8-18.7,35.5-23.8
			c0.1,0,0.1-0.1,0.2-0.1c6.3-3.6,13.9-2.9,18.6,1.8c7.8,7.7,17.5,25.2,27.7,43.9C511.2,1528.6,508.5,1536.7,501.9,1540.5z
			 M413.4,1514.8c-1.8,1.2-3,3-3.3,4.9c-0.3,1.6,0.1,3.1,0.9,4.4l27.1,37.4c2.9,4,8.7,4.9,13.6,2.1l47.7-26.9c0,0,0.1,0,0.1-0.1
			c4.5-2.6,6.5-8,4.3-12c-10-18.4-19.6-35.6-26.9-42.9c-3.2-3.2-9-3.7-13.4-1c-8.6,5.1-23.4,15.4-35.3,23.7
			C422.6,1508.5,417.3,1512.2,413.4,1514.8L413.4,1514.8z"/>
		<linearGradient id="SVGID_16_" gradientUnits="userSpaceOnUse" x1="417.3031" y1="1523.1709" x2="496.6707" y2="1523.1709">
			<stop  offset="0" style="stop-color:#DAE3FE"/>
			<stop  offset="1" style="stop-color:#E9EFFD"/>
		</linearGradient>
		<path class="st23" d="M420.8,1515.8c9.6-6.4,30-21.1,40.2-27.2c4.3-2.6,9.7-2.1,12.9,1.1c6.2,6.2,14.4,21,21.8,34.7
			c2.2,4.1,0.4,9.5-4.2,12l-38.2,21.5c-4.7,2.6-10.4,1.7-13.2-2.2l-21.7-29.9C416.2,1522.7,417.3,1518.2,420.8,1515.8z"/>
		<linearGradient id="SVGID_17_" gradientUnits="userSpaceOnUse" x1="518.7324" y1="1417.5419" x2="780.1623" y2="1417.5419">
			<stop  offset="0" style="stop-color:#DAE3FE"/>
			<stop  offset="1" style="stop-color:#E9EFFD"/>
		</linearGradient>
		<path class="st24" d="M521.4,1474.2c-3.1,1.7-3.6,5.1-1.1,7.7l10.9,11c2.5,2.5,7,3.1,10.1,1.4L777,1358.3c3.1-1.8,4.1-5.7,2.2-8.7
			l-3.9-6.5c-1.8-3-5.9-4.1-9-2.4L521.4,1474.2z"/>
		
			<linearGradient id="SVGID_18_" gradientUnits="userSpaceOnUse" x1="-171.41" y1="4135.4238" x2="-451.2394" y2="4613.0269" gradientTransform="matrix(0.8664 -0.4995 0.4995 0.8664 -1464.7568 -2424.9058)">
			<stop  offset="0" style="stop-color:#FE7062"/>
			<stop  offset="1" style="stop-color:#FF928E"/>
		</linearGradient>
		<path class="st25" d="M426.5,1520.9L426.5,1520.9c2.3-4.1,7.6-5.5,11.6-3.1l19,11.4c1.9,1.1,4.3-0.4,4.1-2.6l-6.6-65.1
			c-0.3-3.2,4-4.6,5.6-1.7c8.9,16,22,48.4,11.3,88.2c0,0-17,2.6-42.5-15.5C425.4,1529.8,424.2,1524.8,426.5,1520.9z"/>
		<path class="st17" d="M617.6,1751.4c0,0-0.1,0.1-0.1,0.1l-47.7,26.9c-6.9,3.9-15.2,2.4-19.5-3.4l-27.1-37.4
			c-1.6-2.2-2.2-5-1.7-7.8c0.6-3.1,2.5-6,5.3-7.9l0,0c3.8-2.6,9.1-6.2,14.9-10.2c12.6-8.7,26.8-18.7,35.5-23.8
			c0.1,0,0.1-0.1,0.2-0.1c6.3-3.6,13.9-2.9,18.6,1.8c7.8,7.7,17.5,25.2,27.7,43.9C626.9,1739.5,624.2,1747.5,617.6,1751.4z
			 M529.1,1725.6c-1.8,1.2-3,3-3.3,4.9c-0.3,1.6,0.1,3.1,0.9,4.4l27.1,37.4c2.9,4,8.7,4.9,13.6,2.1l47.7-26.9c0,0,0.1,0,0.1-0.1
			c4.5-2.6,6.5-8,4.3-12c-10-18.4-19.6-35.6-26.9-42.9c-3.3-3.2-9-3.7-13.4-1c-8.6,5.1-23.4,15.4-35.3,23.7
			C538.3,1719.3,533,1723,529.1,1725.6L529.1,1725.6z"/>
		<linearGradient id="SVGID_19_" gradientUnits="userSpaceOnUse" x1="532.9925" y1="1734.0159" x2="612.3599" y2="1734.0159">
			<stop  offset="0" style="stop-color:#DAE3FE"/>
			<stop  offset="1" style="stop-color:#E9EFFD"/>
		</linearGradient>
		<path class="st26" d="M536.5,1726.7c9.6-6.4,30-21.1,40.2-27.2c4.3-2.6,9.7-2.1,12.9,1.1c6.2,6.2,14.4,21,21.8,34.7
			c2.2,4.1,0.4,9.5-4.2,12l-38.2,21.5c-4.7,2.6-10.4,1.7-13.2-2.2l-21.7-29.9C531.9,1733.5,533,1729,536.5,1726.7z"/>
		<linearGradient id="SVGID_20_" gradientUnits="userSpaceOnUse" x1="634.4221" y1="1628.387" x2="895.8519" y2="1628.387">
			<stop  offset="0" style="stop-color:#DAE3FE"/>
			<stop  offset="1" style="stop-color:#E9EFFD"/>
		</linearGradient>
		<path class="st27" d="M637.1,1685.1c-3.1,1.7-3.6,5.1-1.1,7.7l10.9,11c2.5,2.5,7,3.1,10.1,1.4l235.7-135.9
			c3.1-1.8,4.1-5.7,2.2-8.7l-3.9-6.5c-1.8-3-5.9-4.1-9-2.4L637.1,1685.1z"/>
		
			<linearGradient id="SVGID_21_" gradientUnits="userSpaceOnUse" x1="-125.2641" y1="4288.4146" x2="-405.0941" y2="4766.0186" gradientTransform="matrix(0.8664 -0.4995 0.4995 0.8664 -1464.7568 -2424.9058)">
			<stop  offset="0" style="stop-color:#FE7062"/>
			<stop  offset="1" style="stop-color:#FF928E"/>
		</linearGradient>
		<path class="st28" d="M542.2,1731.7L542.2,1731.7c2.3-4.1,7.6-5.5,11.6-3.1l19,11.4c1.9,1.1,4.3-0.4,4.1-2.6l-6.6-65.1
			c-0.3-3.2,4-4.6,5.6-1.7c8.9,16,22,48.4,11.3,88.2c0,0-17,2.6-42.5-15.5C541,1740.6,539.9,1735.7,542.2,1731.7z"/>
		<linearGradient id="SVGID_22_" gradientUnits="userSpaceOnUse" x1="573.1104" y1="1833.2472" x2="676.8827" y2="1833.2472">
			<stop  offset="0" style="stop-color:#DAE3FE"/>
			<stop  offset="1" style="stop-color:#E9EFFD"/>
		</linearGradient>
		<path class="st29" d="M669.5,1851.6c0,0-0.1,0-0.1,0.1l-47.7,26.9c-6.9,3.9-15.2,2.4-19.5-3.4l-27.1-37.4c-1.6-2.2-2.2-5-1.7-7.8
			c0.6-3.1,2.5-6,5.3-7.9l0,0c3.8-2.6,9.1-6.2,14.8-10.2c11.9-8.3,26.8-18.7,35.6-23.8c6.2-3.6,14.1-3.1,18.8,1.7
			c7.8,7.7,17.5,25.2,27.7,43.9C678.8,1839.8,676.1,1847.8,669.5,1851.6z M581,1825.9c-1.8,1.2-3,3-3.3,4.9
			c-0.3,1.6,0.1,3.1,0.9,4.4l27.1,37.4c2.9,4,8.7,4.9,13.6,2.1l47.7-26.9c4.4-2.7,6.6-8,4.4-12.1c-10-18.4-19.6-35.6-26.9-42.9
			c-3.2-3.2-9-3.6-13.4-1c-8.6,5.1-23.4,15.4-35.3,23.7C590.1,1819.6,584.9,1823.3,581,1825.9L581,1825.9z"/>
		<path class="st30" d="M588.4,1826.9c9.6-6.4,30-21.1,40.2-27.2c4.3-2.6,9.7-2.1,12.9,1.1c6.2,6.2,14.4,21,21.8,34.7
			c2.2,4.1,0.4,9.5-4.2,12L621,1869c-4.7,2.6-10.4,1.7-13.2-2.2l-21.7-29.9C583.8,1833.8,584.9,1829.3,588.4,1826.9z"/>
		<linearGradient id="SVGID_23_" gradientUnits="userSpaceOnUse" x1="686.3178" y1="1728.6598" x2="947.7476" y2="1728.6598">
			<stop  offset="0" style="stop-color:#DAE3FE"/>
			<stop  offset="1" style="stop-color:#E9EFFD"/>
		</linearGradient>
		<path class="st31" d="M689,1785.3c-3.1,1.7-3.6,5.1-1.1,7.7l10.9,11c2.5,2.5,7,3.1,10.1,1.4l235.7-135.9c3.1-1.8,4.1-5.7,2.2-8.7
			l-3.9-6.5c-1.8-3-5.9-4.1-9-2.4L689,1785.3z"/>
		
			<linearGradient id="SVGID_24_" gradientUnits="userSpaceOnUse" x1="-87.3139" y1="4401.4819" x2="-455.509" y2="4914.8511" gradientTransform="matrix(0.8664 -0.4995 0.4995 0.8664 -1464.7568 -2424.9058)">
			<stop  offset="0" style="stop-color:#FE7062"/>
			<stop  offset="1" style="stop-color:#FF928E"/>
		</linearGradient>
		<path class="st32" d="M594.1,1832L594.1,1832c2.3-4.1,7.6-5.5,11.6-3.1l19,11.4c1.9,1.1,4.3-0.4,4.1-2.6l-6.6-65.1
			c-0.3-3.2,4-4.6,5.6-1.7c8.9,16,22,48.4,11.3,88.2c0,0-17,2.6-42.5-15.5C592.9,1840.9,591.8,1835.9,594.1,1832z"/>
		<path class="st17" d="M722.2,1955.5c0,0-0.1,0.1-0.1,0.1l-47.7,26.9c-6.9,3.9-15.2,2.4-19.5-3.4l-27.1-37.4
			c-1.6-2.2-2.2-5-1.7-7.8c0.6-3.1,2.5-6,5.3-7.9l0,0c3.8-2.6,9.1-6.2,14.9-10.2c12.6-8.7,26.8-18.7,35.5-23.8
			c6.5-3.6,14.1-3.1,18.8,1.7c7.8,7.7,17.5,25.2,27.7,43.9C731.5,1943.6,728.8,1951.7,722.2,1955.5z M633.7,1929.7
			c-1.8,1.2-3,3-3.3,4.9c-0.3,1.6,0.1,3.1,0.9,4.4l27.1,37.4c2.9,4,8.7,4.9,13.6,2.1l47.7-26.9c0,0,0.1,0,0.1-0.1
			c4.5-2.6,6.5-8,4.3-12c-10-18.4-19.6-35.6-26.9-42.9c-3.2-3.2-8.9-3.6-13.4-1c-8.6,5.1-23.4,15.4-35.3,23.7
			C642.9,1923.5,637.6,1927.2,633.7,1929.7L633.7,1929.7z"/>
		<linearGradient id="SVGID_25_" gradientUnits="userSpaceOnUse" x1="637.5939" y1="1938.1644" x2="716.9614" y2="1938.1644">
			<stop  offset="0" style="stop-color:#DAE3FE"/>
			<stop  offset="1" style="stop-color:#E9EFFD"/>
		</linearGradient>
		<path class="st33" d="M641.1,1930.8c9.6-6.4,30-21.1,40.2-27.2c4.3-2.6,9.7-2.1,12.9,1.1c6.2,6.2,14.4,21,21.8,34.7
			c2.2,4.1,0.4,9.5-4.2,12l-38.2,21.5c-4.7,2.6-10.4,1.7-13.2-2.2l-21.7-29.9C636.5,1937.7,637.6,1933.2,641.1,1930.8z"/>
		<linearGradient id="SVGID_26_" gradientUnits="userSpaceOnUse" x1="739.0234" y1="1832.5353" x2="1000.4532" y2="1832.5353">
			<stop  offset="0" style="stop-color:#DAE3FE"/>
			<stop  offset="1" style="stop-color:#E9EFFD"/>
		</linearGradient>
		<path class="st34" d="M741.7,1889.2c-3.1,1.7-3.6,5.1-1.1,7.7l10.9,11c2.5,2.5,7,3.1,10.1,1.4l235.7-135.9
			c3.1-1.8,4.1-5.7,2.2-8.7l-3.9-6.5c-1.8-3-5.9-4.1-9-2.4L741.7,1889.2z"/>
		
			<linearGradient id="SVGID_27_" gradientUnits="userSpaceOnUse" x1="-34.1495" y1="4342.6309" x2="-313.9792" y2="4820.2344" gradientTransform="matrix(0.8664 -0.4995 0.4995 0.8664 -1464.7568 -2424.9058)">
			<stop  offset="0" style="stop-color:#FE7062"/>
			<stop  offset="1" style="stop-color:#FF928E"/>
		</linearGradient>
		<path class="st35" d="M646.8,1935.9L646.8,1935.9c2.3-4.1,7.6-5.5,11.6-3.1l19,11.4c1.9,1.1,4.3-0.4,4.1-2.6l-6.6-65.1
			c-0.3-3.2,4-4.6,5.6-1.7c8.9,16,22,48.4,11.3,88.2c0,0-17,2.6-42.5-15.5C645.6,1944.8,644.5,1939.8,646.8,1935.9z"/>
	</g>
	
		<linearGradient id="SVGID_28_" gradientUnits="userSpaceOnUse" x1="474.5096" y1="936.8091" x2="250.3648" y2="1231.6664" gradientTransform="matrix(0.8862 -0.4632 0.4632 0.8862 -364.2154 481.2096)">
		<stop  offset="0" style="stop-color:#09005D"/>
		<stop  offset="1" style="stop-color:#1A0F91"/>
	</linearGradient>
	<path class="st36" d="M475.3,1181.2c-21.3-2.5-34.7,4.9-42.7,12.8c-7.3,7.2-8.4,18.5-2.8,27.1l28,42.5l51-21.7
		C508.9,1241.9,517.1,1186.1,475.3,1181.2z M473.2,1228.7c-6.7,3.6-15.1,1.1-18.6-5.7c-3.6-6.7-1.1-15.1,5.7-18.6
		c6.7-3.6,15.1-1.1,18.6,5.7C482.4,1216.8,479.9,1225.1,473.2,1228.7z"/>
	<linearGradient id="SVGID_29_" gradientUnits="userSpaceOnUse" x1="434.0438" y1="1214.8138" x2="462.0424" y2="1214.8138">
		<stop  offset="0" style="stop-color:#DAE3FE"/>
		<stop  offset="1" style="stop-color:#E9EFFD"/>
	</linearGradient>
	<path class="st37" d="M452.4,1243.8c-1,0.1-2.1-0.3-2.7-1.2l-4.5-6.8c-0.8-1.3-0.5-3,0.8-3.8c1.3-0.8,3-0.5,3.8,0.8l4.5,6.8
		c0.8,1.3,0.5,3-0.8,3.8C453.2,1243.6,452.8,1243.7,452.4,1243.8z M443.7,1230.5c-1,0.1-2.1-0.3-2.7-1.2l-3.4-5.1
		c-5.7-8.7-4.5-20.3,2.9-27.6c5.1-5,11.1-8.5,18-10.6c1.4-0.4,3,0.4,3.4,1.8c0.4,1.4-0.4,3-1.8,3.4c-6,1.8-11.3,4.9-15.7,9.2
		c-5.5,5.5-6.4,14.1-2.1,20.7l3.4,5.1c0.8,1.3,0.5,3-0.8,3.8C444.5,1230.3,444.1,1230.4,443.7,1230.5z"/>
	
		<linearGradient id="SVGID_30_" gradientUnits="userSpaceOnUse" x1="44.4047" y1="3942.7571" x2="-179.5776" y2="4237.4009" gradientTransform="matrix(0.8821 -0.4712 0.4712 0.8821 -1377.5002 -2360.5889)">
		<stop  offset="0" style="stop-color:#09005D"/>
		<stop  offset="1" style="stop-color:#1A0F91"/>
	</linearGradient>
	<path class="st38" d="M406.8,1328l-12-22.5c-4.1-7.8-1-17.4,6.9-21.3l157.8-77.5c7-3.4,15.5-1,19.6,5.7l12.8,20.9L406.8,1328z"/>
	<linearGradient id="SVGID_31_" gradientUnits="userSpaceOnUse" x1="440.8627" y1="1270.0677" x2="450.708" y2="1270.0677">
		<stop  offset="0" style="stop-color:#DAE3FE"/>
		<stop  offset="1" style="stop-color:#E9EFFD"/>
	</linearGradient>
	<path class="st39" d="M443.2,1273.3c-0.8,0.4-1.7,0.1-2.1-0.7c-0.4-0.8-0.1-1.7,0.7-2.2l6.7-3.6c0.8-0.4,1.7-0.1,2.2,0.7
		c0.4,0.8,0.1,1.7-0.7,2.2L443.2,1273.3C443.2,1273.3,443.2,1273.3,443.2,1273.3z"/>
	<linearGradient id="SVGID_32_" gradientUnits="userSpaceOnUse" x1="401.6115" y1="1295.3718" x2="438.5256" y2="1295.3718">
		<stop  offset="0" style="stop-color:#DAE3FE"/>
		<stop  offset="1" style="stop-color:#E9EFFD"/>
	</linearGradient>
	<path class="st40" d="M411.1,1318c-1.1,0.2-2.2-0.4-2.8-1.4l-4.9-9.1c-2-3.7-2.4-8-1.2-12.1c1.2-4.1,4-7.4,7.7-9.4l24.5-13.1
		c1.3-0.7,3-0.2,3.7,1.1c0.7,1.3,0.2,3-1.1,3.7l-24.5,13.1c-5,2.7-7,9-4.3,14l4.9,9.1c0.7,1.3,0.2,3-1.1,3.7
		C411.8,1317.9,411.5,1318,411.1,1318z"/>
	
		<linearGradient id="SVGID_33_" gradientUnits="userSpaceOnUse" x1="16.181" y1="3960.7781" x2="-138.4758" y2="4244.7593" gradientTransform="matrix(0.8821 -0.4712 0.4712 0.8821 -1377.5002 -2360.5889)">
		<stop  offset="0" style="stop-color:#09005D"/>
		<stop  offset="1" style="stop-color:#1A0F91"/>
	</linearGradient>
	<path class="st41" d="M353.8,1345.8l271-144.8c9.7-5.2,21.8-2.6,28.6,6.1l0.9,1.2c7.4,9.5,4.5,23.5-6.2,29.2l-278,148.5
		c-6.4,3.4-14.3,0.8-17.4-5.8l-6-12.8C342.9,1359.5,346,1349.9,353.8,1345.8z"/>
	<g>
		<g>
			<g>
				<path class="st7" d="M1515.2,933.1c0,0,0.7-1.2,2.1-3.4c0.8-1.3,2.5-1.6,3.7-0.8c0.6,0.4,0.9,0.9,1.1,1.4c1.2-0.3,2.5-0.7,3.9-1
					c1.4-0.3,2.9,0.5,3.2,2c0.4,1.4-0.5,2.9-2,3.2c-4.1,1-6.9,1.9-8.3,2.3c-0.4,0.1-0.7,0.2-0.8,0.2l-6.4,1.7L1515.2,933.1z
					 M1524.9,918.4c2.6-3.6,5.3-7.3,8-10.9c0.9-1.2,2.6-1.4,3.8-0.5c1.2,0.9,1.4,2.6,0.5,3.8c-2.7,3.6-5.4,7.2-7.9,10.7
					c-0.9,1.2-2.5,1.5-3.7,0.6c-0.2-0.1-0.4-0.3-0.5-0.5C1524.3,920.7,1524.2,919.4,1524.9,918.4z M1537.2,929.7
					c-0.2-1.5,0.8-2.8,2.3-3c4.6-0.7,9.2-1.1,13.7-1.3c1.5-0.1,2.7,1.1,2.8,2.6c0.1,1.5-1.1,2.7-2.6,2.8c-4.2,0.2-8.7,0.6-13.1,1.3
					c-1,0.1-1.9-0.3-2.5-1C1537.5,930.6,1537.3,930.2,1537.2,929.7z M1564,928c0.1-1.5,1.4-2.6,2.9-2.5c4.8,0.4,9.4,1.1,13.7,2.2
					c1.4,0.3,2.3,1.8,2,3.2c-0.3,1.4-1.8,2.3-3.2,2c-4-1-8.4-1.7-12.9-2c-0.8-0.1-1.4-0.4-1.9-1C1564.2,929.4,1564,928.8,1564,928z
					 M1541.4,896.9c2.9-3.5,5.9-7,8.8-10.3c1-1.1,2.7-1.2,3.8-0.2c1.1,1,1.2,2.7,0.2,3.8c-2.9,3.3-5.8,6.7-8.7,10.1
					c-0.9,1.1-2.6,1.3-3.8,0.4c-0.1-0.1-0.3-0.3-0.4-0.4C1540.6,899.3,1540.6,897.9,1541.4,896.9z M1590.2,933.6
					c0.6-1.4,2.2-1.9,3.6-1.3c3.1,1.4,6,3,8.7,4.8c1.1,0.7,2.1,1.4,3.2,2c1.3,0.8,1.7,2.4,0.9,3.7c-0.8,1.3-2.4,1.7-3.7,0.9
					c-1.1-0.7-2.2-1.4-3.4-2.1c-2.5-1.6-5.2-3.1-8-4.4c-0.4-0.2-0.7-0.4-1-0.8C1590,935.6,1589.8,934.5,1590.2,933.6z M1626.8,971.6
					c0.8-0.8,1.9-1,2.9-0.6c2.3-0.7,5-0.9,8.1-0.5c1.5,0.2,2.5,1.5,2.4,3c-0.2,1.5-1.5,2.5-3,2.4c-3.8-0.4-6.4,0.1-8.7,1.7l-3.4-4.1
					L1626.8,971.6z M1613.8,946.4c0.6-1.4,2.1-2,3.5-1.5c4.3,1.7,8.4,2.8,12.3,3.3c1.5,0.2,2.5,1.5,2.4,3c-0.2,1.5-1.5,2.5-3,2.4
					c-4.3-0.5-8.9-1.7-13.6-3.6c-0.4-0.2-0.8-0.5-1.1-0.8C1613.6,948.4,1613.4,947.4,1613.8,946.4z M1559.4,876.6
					c3.1-3.3,6.4-6.5,9.6-9.6c1.1-1,2.8-1,3.8,0.1c1,1.1,1,2.8-0.1,3.8c-3.2,3-6.3,6.2-9.4,9.4c-1,1.1-2.7,1.1-3.8,0.1
					c-0.1-0.1-0.2-0.2-0.2-0.3C1558.4,879.1,1558.4,877.6,1559.4,876.6z M1636.2,962c3.6-3.7,6.7-7,9.2-9.7c1-1.1,2.7-1.2,3.8-0.2
					c1.1,1,1.2,2.7,0.2,3.8c-2.5,2.8-5.7,6.1-9.3,9.9c-1,1.1-2.7,1.1-3.8,0.1c-0.1-0.1-0.2-0.2-0.2-0.3
					C1635.2,964.5,1635.3,963,1636.2,962z M1648,975.3c0.3-1.4,1.8-2.3,3.2-2c3.8,0.9,8,1.9,12.9,2.6c1.5,0.2,2.5,1.6,2.2,3.1
					c-0.2,1.5-1.6,2.5-3.1,2.2c-5.1-0.8-9.4-1.8-13.4-2.7c-0.6-0.1-1.1-0.5-1.5-0.9C1648,977,1647.7,976.1,1648,975.3z
					 M1639.9,950.7c-0.4-1.4,0.4-2.9,1.9-3.3c4.2-1.2,7.1-3,9.1-4.3c0.8-0.5,1.5-0.9,2-1.2c0.3-0.1,0.5-0.2,0.8-0.3
					c1.4-0.5,2.9,0.3,3.3,1.7c0.5,1.4-0.3,3-1.8,3.4c-0.4,0.2-0.9,0.5-1.5,0.9c-2.1,1.3-5.6,3.5-10.5,4.9c-1.1,0.3-2.2-0.1-2.8-0.9
					C1640.2,951.3,1640,951,1639.9,950.7z M1578.9,857.9c3-2.7,6.2-5.3,9.2-7.7l1.2-1c1.2-0.9,2.8-0.7,3.8,0.4l0,0
					c0.9,1.2,0.7,2.9-0.4,3.8l-1.2,0.9c-3,2.4-6.1,5-9,7.6c-1.1,1-2.8,0.9-3.8-0.3c0,0-0.1-0.1-0.1-0.1
					C1577.7,860.5,1577.9,858.8,1578.9,857.9z M1674.4,979.8c0.1-1.5,1.3-2.6,2.8-2.6c4.3,0.2,8.7,0.1,13.1-0.1
					c1.5-0.1,2.8,1,2.8,2.5c0.1,1.5-1,2.8-2.5,2.8c-4.6,0.3-9.3,0.3-13.7,0.1c-0.8,0-1.5-0.4-2-1
					C1674.6,981.1,1674.4,980.5,1674.4,979.8z M1701.2,978.8c-0.2-1.5,0.8-2.8,2.3-3.1c0.9-0.1,1.9-0.3,2.8-0.4
					c3.4-0.6,6.7-1.3,10-2.2c1.4-0.4,2.9,0.4,3.3,1.8c0.4,1.4-0.4,2.9-1.8,3.3c-3.4,1-7,1.8-10.6,2.4c-1,0.2-1.9,0.3-2.9,0.5
					c-1,0.1-1.9-0.3-2.5-1C1701.5,979.7,1701.3,979.3,1701.2,978.8z M1599.6,844.8c-0.9-1.2-0.6-2.9,0.7-3.7
					c3.8-2.6,7.6-5.2,11.4-7.5c1.3-0.8,3-0.4,3.7,0.9c0.8,1.3,0.4,2.9-0.9,3.7c-3.7,2.3-7.4,4.7-11.1,7.3c-1.2,0.8-2.8,0.6-3.6-0.5
					C1599.7,844.9,1599.6,844.9,1599.6,844.8z M1727.1,972.1c-0.6-1.3,0-2.9,1.3-3.6c3.9-1.8,7.8-3.9,11.4-6.3
					c1.2-0.8,2.9-0.5,3.7,0.8c0.8,1.2,0.5,2.9-0.8,3.7c-3.9,2.5-7.9,4.8-12.1,6.7c-1.1,0.5-2.5,0.2-3.2-0.8
					C1727.3,972.5,1727.2,972.3,1727.1,972.1z M1622.3,830.5c-0.7-1.3-0.2-2.9,1.1-3.6c4.1-2.1,8.2-4.1,12.3-5.9
					c1.4-0.6,2.9,0.1,3.5,1.4c0.6,1.4-0.1,2.9-1.4,3.5c-4,1.7-8,3.6-11.9,5.7c-1.2,0.6-2.6,0.3-3.3-0.7
					C1622.5,830.8,1622.4,830.6,1622.3,830.5z M1750.2,954.3c3.2-2.9,6.3-6,9.1-9.3c1-1.1,2.7-1.3,3.8-0.3c1.1,1,1.3,2.7,0.3,3.8
					c-3,3.5-6.2,6.8-9.7,9.9c-1.1,1-2.8,0.9-3.8-0.2c0,0-0.1-0.1-0.1-0.1C1749,956.9,1749.1,955.3,1750.2,954.3z M1646.9,819.6
					c-0.5-1.4,0.3-2.9,1.7-3.4c4.4-1.4,8.8-2.7,13.2-3.7c1.5-0.3,2.9,0.6,3.2,2c0.3,1.4-0.6,2.9-2,3.2c-4.2,1-8.5,2.1-12.7,3.5
					c-1.1,0.4-2.3,0-2.9-0.9C1647.1,820.2,1647,819.9,1646.9,819.6z M1767.1,934.5c3.5-5.5,5.3-9.7,5.6-10.8l0.9-5.9
					c0.2-1.5,1.6-2.5,3-2.3c1.5,0.2,2.5,1.6,2.3,3l-0.8,5.7l0,0c-0.6,3.8-6.3,12.9-6.4,13c-0.8,1.3-2.5,1.6-3.7,0.8
					c-0.3-0.2-0.5-0.4-0.7-0.6C1766.6,936.8,1766.5,935.5,1767.1,934.5z M1672.9,813.2c-0.2-1.5,0.9-2.8,2.3-3
					c4.6-0.5,9.2-0.8,13.7-0.9c1.5,0,2.7,1.2,2.7,2.7c0,1.5-1.2,2.7-2.7,2.7c-4.3,0-8.7,0.3-13.1,0.9c-1,0.1-1.9-0.3-2.4-1
					C1673.2,814.1,1673,813.7,1672.9,813.2z M1699.7,812.3c0.1-1.5,1.5-2.6,2.9-2.4c4.5,0.4,9.1,1.2,13.5,2.1
					c1.5,0.3,2.4,1.7,2.1,3.2c-0.3,1.5-1.7,2.4-3.2,2.1c-4.3-0.9-8.7-1.6-13-2c-0.8-0.1-1.4-0.5-1.8-1
					C1699.8,813.7,1699.6,813,1699.7,812.3z M1775.5,904.6l1.9-13.3c0.2-1.5,1.6-2.5,3-2.3c1.5,0.2,2.5,1.6,2.3,3l-1.9,13.3
					c-0.2,1.5-1.6,2.5-3,2.3c-0.7-0.1-1.3-0.5-1.7-1C1775.6,906.1,1775.4,905.3,1775.5,904.6z M1726,817.2c0.5-1.4,2-2.2,3.4-1.7
					c4.2,1.4,8.6,3,12.8,4.8c1.4,0.6,2,2.2,1.4,3.5c-0.6,1.4-2.2,2-3.5,1.4c-4.1-1.8-8.2-3.3-12.3-4.6c-0.5-0.2-1-0.5-1.3-0.9
					C1726,819.1,1725.7,818.1,1726,817.2z M1779.4,878l1.9-13.3c0.2-1.5,1.6-2.5,3-2.3c1.5,0.2,2.5,1.6,2.3,3l-1.9,13.3
					c-0.2,1.5-1.6,2.5-3,2.3c-0.7-0.1-1.3-0.5-1.7-1C1779.5,879.5,1779.3,878.7,1779.4,878z M1750.8,827.4c0.7-1.3,2.3-1.8,3.6-1.1
					c3.9,2.1,7.8,4.5,11.7,7c1.2,0.8,1.6,2.5,0.8,3.7c-0.8,1.2-2.5,1.6-3.7,0.8c-3.8-2.4-7.6-4.7-11.3-6.8c-0.3-0.2-0.6-0.4-0.8-0.7
					C1750.5,829.5,1750.3,828.4,1750.8,827.4z M1773.6,841.6c0.9-1.2,2.6-1.4,3.8-0.5c3.4,2.6,6.9,5.4,10.3,8.3l1.1,1l-0.3,1.8
					c-0.2,1.5-1.6,2.5-3,2.3c-1-0.1-1.7-0.8-2.1-1.6c-3.1-2.6-6.2-5.1-9.3-7.4c-0.2-0.1-0.3-0.3-0.5-0.5
					C1772.9,844,1772.8,842.6,1773.6,841.6z"/>
			</g>
			
				<linearGradient id="SVGID_34_" gradientUnits="userSpaceOnUse" x1="-2319.9958" y1="4406.9292" x2="-2427.3491" y2="4551.1357" gradientTransform="matrix(0.7384 -0.6743 -0.6743 -0.7384 6504.0557 2600.4636)">
				<stop  offset="0" style="stop-color:#FE7062"/>
				<stop  offset="1" style="stop-color:#FF928E"/>
			</linearGradient>
			<path class="st42" d="M1776.4,894.2c0,0-27.5,52.8-68.4,36.8c-41-16-78.3-42.3-97.3-34.1c0,0,72.4-91.2,166.4-23.7L1776.4,894.2z
				"/>
			<path class="st7" d="M1884.4,958c0,0-7.1,58-25.6,65.2c-17.6,6.9-149.4-5-162.2-6.2c-0.6-0.1-1-0.5-1-1.1l0,0
				c0.1-4.8,2.4-9.3,6.3-12c18.9-13.4,75.5-52.9,96.5-59.4C1823.7,936.7,1884.4,958,1884.4,958z"/>
			<path class="st5" d="M1744,1013.4c0.2,0.3,0.6,0.5,1,0.5c0.7,0.1,73,5.3,104.3,6.3c5.6,0.2,10.7-2.9,13.1-7.9
				c3.8-7.9,10.8-23.5,14.7-39.9c0.2-0.7-0.3-1.4-1-1.6c-0.7-0.2-1.4,0.3-1.6,1c-3.8,16.1-10.7,31.5-14.5,39.3
				c-1.9,4-6.1,6.5-10.6,6.4c-31.2-1-103.4-6.3-104.1-6.3c-0.7-0.1-1.4,0.5-1.4,1.2C1743.7,1012.8,1743.8,1013.1,1744,1013.4z"/>
			<path class="st7" d="M1886.1,822.2c0,0-5.6-58.2-23.9-65.9c-17.4-7.3-149.5,1.1-162.3,2c-0.6,0-1,0.5-1,1.1l0,0
				c-0.1,4.8,2.2,9.3,6,12.2c18.5,13.9,74.1,54.9,94.9,61.9C1824.9,841.9,1886.1,822.2,1886.1,822.2z"/>
			<path class="st5" d="M1747.2,764.9c0.3,0.3,0.7,0.5,1.1,0.5c0.7,0,73.1-3.4,104.3-3.6c4.5,0,8.6,2.6,10.4,6.7
				c3.6,7.9,10,23.5,13.4,39.7c0.1,0.7,0.9,1.2,1.6,1c0.7-0.2,1.2-0.9,1-1.6c-3.3-15.6-9.2-30.5-13.6-40.2
				c-2.3-5.1-7.3-8.3-12.9-8.3c-31.2,0.2-103.7,3.6-104.4,3.6c-0.7,0-1.3,0.7-1.3,1.4C1746.9,764.4,1747,764.7,1747.2,764.9z"/>
			
				<linearGradient id="SVGID_35_" gradientUnits="userSpaceOnUse" x1="2052.1064" y1="5296.2993" x2="2127.354" y2="6054.144" gradientTransform="matrix(-0.6714 -0.7411 -0.7411 0.6714 7305.6328 -1193.8624)">
				<stop  offset="0" style="stop-color:#4042E2"/>
				<stop  offset="1" style="stop-color:#4F52FF"/>
			</linearGradient>
			<path class="st43" d="M2080.7,959.8c-27.1,8.5-58.4,14.1-93.3,13.8c-108.1-1.1-187.4-20.6-209.8-26.7c-4.1-1.1-7.1-4.4-8.1-8.5
				c-7.6-32.2-7.4-64.4,0.5-96.4c1.5-6,6.3-10.7,12.3-12.2c26.2-6.3,103.7-22.2,207.2-20.5c34.6,0.5,65.5,6.9,92.3,16
				C2096.1,879.1,2087.4,930.8,2080.7,959.8z"/>
			
				<linearGradient id="SVGID_36_" gradientUnits="userSpaceOnUse" x1="-638.0413" y1="3458.4326" x2="-774.6545" y2="3656.0337" gradientTransform="matrix(1.300000e-02 -0.9999 -0.9999 -1.300000e-02 5632.7773 250.277)">
				<stop  offset="0" style="stop-color:#FE7062"/>
				<stop  offset="1" style="stop-color:#FF928E"/>
			</linearGradient>
			<path class="st44" d="M2081.8,825.3c59.1,20,97.9,53,110.3,64.6c2.4,2.3,2.4,6.1-0.1,8.3c-12.7,11.3-52.1,43.1-111.3,61.5
				C2087.4,930.8,2096.1,879.1,2081.8,825.3z"/>
			<g>
				<path class="st2" d="M1996.3,837.2c-28-0.4-51,23.7-51.4,53.8c-0.4,30.1,22,54.7,50,55.1s51-23.7,51.4-53.8
					C2046.7,862.2,2024.3,837.6,1996.3,837.2z"/>
				
					<linearGradient id="SVGID_37_" gradientUnits="userSpaceOnUse" x1="-730.4549" y1="3627.1548" x2="-643.7128" y2="3627.1548" gradientTransform="matrix(1.300000e-02 -0.9999 -0.9999 -1.300000e-02 5632.7773 250.277)">
					<stop  offset="0" style="stop-color:#09005D"/>
					<stop  offset="1" style="stop-color:#1A0F91"/>
				</linearGradient>
				<path class="st45" d="M1997.6,846.8c-22.3-0.3-40.7,18.9-41,42.8c-0.3,24,17.5,43.6,39.8,43.9c22.3,0.3,40.7-18.9,41-42.8
					C2037.8,866.7,2019.9,847.1,1997.6,846.8z"/>
				<path class="st5" d="M2004.2,920.6c0.3,0.4,0.9,0.6,1.4,0.5c13.8-4,23.5-17.3,23.7-32.2c0-3.8-0.5-7.5-1.6-11
					c-0.2-0.7-1-1.1-1.7-0.9c-0.7,0.2-1.1,1-0.9,1.7c1,3.3,1.5,6.7,1.5,10.2c-0.2,13.8-9.1,26-21.8,29.7c-0.7,0.2-1.1,1-0.9,1.7
					C2004,920.3,2004.1,920.5,2004.2,920.6z"/>
			</g>
			<g>
				<path class="st2" d="M1894.2,854.4c-18.5-0.2-33.7,15.7-34,35.5c-0.3,19.9,14.5,36.1,33,36.4c18.5,0.2,33.7-15.7,34-35.5
					C1927.5,870.9,1912.7,854.6,1894.2,854.4z"/>
				
					<linearGradient id="SVGID_38_" gradientUnits="userSpaceOnUse" x1="-716.259" y1="3729.5579" x2="-658.9545" y2="3729.5579" gradientTransform="matrix(1.300000e-02 -0.9999 -0.9999 -1.300000e-02 5632.7773 250.277)">
					<stop  offset="0" style="stop-color:#09005D"/>
					<stop  offset="1" style="stop-color:#1A0F91"/>
				</linearGradient>
				<path class="st46" d="M1895,860.7c-14.7-0.2-26.9,12.5-27.1,28.3c-0.2,15.8,11.6,28.8,26.3,29c14.7,0.2,26.9-12.5,27.1-28.3
					C1921.6,873.9,1909.8,860.9,1895,860.7z"/>
				<path class="st5" d="M1899,909.7c0.3,0.4,0.9,0.6,1.4,0.5c9.3-2.7,15.9-11.6,16-21.7c0-2.5-0.3-5-1.1-7.4
					c-0.2-0.7-1-1.1-1.7-0.9c-0.7,0.2-1.1,1-0.9,1.7c0.7,2.1,1,4.3,1,6.6c-0.1,8.9-5.9,16.8-14.1,19.2c-0.7,0.2-1.1,1-0.9,1.7
					C1898.8,909.5,1898.9,909.6,1899,909.7z"/>
			</g>
		</g>
		<g>
			<path class="st7" d="M1479,931l-17.6,4.3c-1.6,0.4-3.3-0.6-3.7-2.3c-0.4-1.6,0.6-3.3,2.3-3.7l0.2,0l17.2-4.3l0.2-0.1
				c1.7-0.4,3.4,0.6,3.8,2.3C1481.7,928.9,1480.7,930.6,1479,931L1479,931z"/>
			<path class="st7" d="M1443.6,938.5l-18,1.9c-1.7,0.2-3.1-1-3.3-2.7c-0.2-1.7,1-3.1,2.7-3.3l0.2,0l17.6-2l0.2,0
				c1.7-0.2,3.2,1,3.4,2.7C1446.4,936.8,1445.2,938.3,1443.6,938.5L1443.6,938.5z"/>
			<path class="st7" d="M1407.5,941.3l-18.1-0.1c-1.6,0-2.9-1.3-2.9-3c0-1.6,1.3-2.9,3-2.9l0.1,0l17.8,0.1l0.2,0c1.6,0,3,1.3,3,3
				C1410.4,939.9,1409.1,941.3,1407.5,941.3L1407.5,941.3z"/>
			<path class="st7" d="M1371.3,940.1l-18-1.9c-1.6-0.2-2.7-1.6-2.6-3.2c0.2-1.6,1.6-2.7,3.2-2.6l0.1,0l17.7,1.8l0.1,0
				c1.6,0.2,2.8,1.6,2.6,3.2C1374.4,939.1,1372.9,940.2,1371.3,940.1L1371.3,940.1z"/>
			<path class="st7" d="M1335.5,935.5l-17.7-3.4c-1.5-0.3-2.5-1.8-2.2-3.3c0.3-1.5,1.8-2.5,3.3-2.2l0.1,0l17.5,3.3l0.1,0
				c1.5,0.3,2.6,1.8,2.3,3.3C1338.6,934.8,1337.1,935.8,1335.5,935.5L1335.5,935.5z"/>
			<path class="st7" d="M1300.2,928.2l-17.4-4.6c-1.5-0.4-2.3-1.9-2-3.4c0.4-1.5,1.9-2.3,3.4-2l0.1,0l17.3,4.5l0.1,0
				c1.5,0.4,2.4,1.9,2,3.4C1303.2,927.7,1301.7,928.5,1300.2,928.2L1300.2,928.2z"/>
			<path class="st7" d="M1265.5,918.5l-17.1-5.6c-1.4-0.5-2.2-2-1.7-3.4c0.5-1.4,2-2.2,3.4-1.7l0.1,0l17,5.5l0.1,0
				c1.4,0.5,2.2,2,1.7,3.4C1268.5,918.1,1267,918.9,1265.5,918.5L1265.5,918.5z"/>
			<path class="st7" d="M1231.5,906.8l-16.8-6.5c-1.3-0.5-2-2-1.5-3.4c0.5-1.3,2-2,3.4-1.5l0,0l16.7,6.4l0.1,0
				c1.4,0.5,2.1,2,1.5,3.4C1234.4,906.6,1232.8,907.3,1231.5,906.8L1231.5,906.8z"/>
			<path class="st7" d="M1198,893.5l-16.5-7.2c-1.3-0.6-1.9-2.1-1.3-3.4c0.6-1.3,2.1-1.9,3.4-1.3l0,0l16.4,7.1l0,0
				c1.3,0.6,1.9,2.1,1.3,3.4C1200.9,893.5,1199.3,894.1,1198,893.5L1198,893.5z"/>
			<path class="st7" d="M1165.2,878.8L1149,871c-1.2-0.6-1.8-2.1-1.2-3.3c0.6-1.2,2.1-1.8,3.3-1.2l0,0l16.1,7.7l0,0
				c1.3,0.6,1.8,2.1,1.2,3.4C1168,878.9,1166.5,879.4,1165.2,878.8L1165.2,878.8z"/>
			<path class="st7" d="M1133,862.8l-15.9-8.4c-1.2-0.6-1.6-2.1-1-3.3c0.6-1.2,2.1-1.6,3.3-1l0,0l15.9,8.3l0,0
				c1.2,0.6,1.7,2.1,1,3.3C1135.7,863,1134.2,863.5,1133,862.8L1133,862.8z"/>
			<path class="st7" d="M1101.3,845.8l-15.6-8.9c-1.1-0.6-1.5-2.1-0.9-3.2c0.6-1.1,2.1-1.5,3.2-0.9l0,0l15.6,8.8l0,0
				c1.1,0.6,1.6,2.1,0.9,3.2C1103.9,846.1,1102.4,846.5,1101.3,845.8L1101.3,845.8z"/>
			<path class="st7" d="M1070.1,827.9l-15.4-9.3c-1.1-0.7-1.4-2.1-0.8-3.2c0.7-1.1,2.1-1.4,3.2-0.8l0,0l15.3,9.2l0,0
				c1.1,0.7,1.5,2.1,0.8,3.2S1071.2,828.5,1070.1,827.9L1070.1,827.9z"/>
			<path class="st7" d="M1039.5,809.1l-15.1-9.7c-1.1-0.7-1.4-2.1-0.7-3.2c0.7-1.1,2.1-1.4,3.2-0.7l0,0l15.1,9.6l0,0
				c1.1,0.7,1.4,2.1,0.7,3.2C1042,809.4,1040.6,809.8,1039.5,809.1L1039.5,809.1z"/>
			<path class="st7" d="M1009.3,789.5l-14.9-10.1c-1-0.7-1.3-2.1-0.6-3.2c0.7-1,2.1-1.3,3.2-0.6l0,0l14.9,10l0,0
				c1.1,0.7,1.3,2.1,0.6,3.2C1011.8,789.9,1010.4,790.2,1009.3,789.5L1009.3,789.5z"/>
			<path class="st7" d="M979.6,769.2L965,758.8c-1-0.7-1.3-2.1-0.5-3.2c0.7-1,2.1-1.3,3.2-0.5l0,0l14.6,10.3l0,0
				c1,0.7,1.3,2.1,0.5,3.2C982.1,769.7,980.7,770,979.6,769.2L979.6,769.2z"/>
			<path class="st7" d="M950.3,748.8l-15.3-9.1l-0.1-0.1c-1.1-0.6-1.4-2-0.8-3.1c0.6-1.1,2-1.4,3.1-0.8l15.6,9.2
				c1.1,0.6,1.4,2,0.8,3.1c-0.6,1.1-2,1.4-3.1,0.8l0,0L950.3,748.8z"/>
			<path class="st7" d="M919.1,731.6l-16.3-7.1l-0.1-0.1c-1.1-0.5-1.6-1.8-1.2-2.9c0.5-1.1,1.8-1.7,2.9-1.2l16.6,7.2
				c1.1,0.5,1.7,1.8,1.2,2.9c-0.5,1.1-1.8,1.7-2.9,1.2l0,0L919.1,731.6z"/>
			<path class="st7" d="M886,718.6l-17.1-4.9l-0.1,0c-1.2-0.3-1.8-1.6-1.5-2.7c0.3-1.2,1.6-1.9,2.7-1.5l17.4,5
				c1.2,0.3,1.9,1.6,1.5,2.7c-0.3,1.2-1.6,1.9-2.7,1.5l0,0L886,718.6z"/>
			<path class="st7" d="M851.6,709.8L834,707l-0.1,0c-1.2-0.2-2-1.3-1.8-2.5c0.2-1.2,1.3-2,2.5-1.8l17.9,2.8c1.2,0.2,2,1.3,1.8,2.5
				c-0.2,1.2-1.3,2-2.5,1.8l0,0L851.6,709.8z"/>
			<path class="st7" d="M816.3,705.4l-17.8-0.5l-0.1,0c-1.2,0-2.1-1-2.1-2.2c0-1.2,1-2.1,2.2-2.1l18.1,0.5c1.2,0,2.2,1,2.1,2.2
				c0,1.2-1,2.2-2.2,2.1l0,0L816.3,705.4z"/>
			<path class="st7" d="M780.7,705.6l-17.7,1.8l-0.1,0c-1.2,0.1-2.2-0.7-2.4-1.9c-0.1-1.2,0.7-2.2,1.9-2.4l18-1.8
				c1.2-0.1,2.3,0.7,2.4,1.9c0.1,1.2-0.7,2.3-1.9,2.4h0L780.7,705.6z"/>
			<path class="st7" d="M745.4,710.2l-17.3,4l-0.1,0c-1.2,0.3-2.3-0.5-2.6-1.6c-0.3-1.2,0.4-2.3,1.6-2.6l17.6-4.1
				c1.2-0.3,2.3,0.5,2.6,1.6c0.3,1.2-0.5,2.3-1.6,2.6l0,0L745.4,710.2z"/>
			<path class="st7" d="M711.1,719.4l-16.7,6.2l-0.1,0c-1.1,0.4-2.3-0.2-2.7-1.3c-0.4-1.1,0.2-2.3,1.3-2.7l16.9-6.3
				c1.1-0.4,2.3,0.2,2.7,1.3c0.4,1.1-0.2,2.3-1.3,2.7l0,0L711.1,719.4z"/>
			<path class="st7" d="M678.1,732.8l-15.7,8.4l-0.1,0.1c-1,0.5-2.3,0.2-2.8-0.9c-0.5-1-0.2-2.3,0.9-2.8l15.9-8.6
				c1-0.6,2.3-0.2,2.9,0.9c0.6,1,0.2,2.3-0.9,2.9l0,0L678.1,732.8z"/>
			<path class="st7" d="M647.4,750.6L633,761.1l-0.1,0.1c-0.9,0.7-2.2,0.5-2.9-0.5c-0.7-0.9-0.5-2.2,0.5-2.9l14.6-10.6
				c0.9-0.7,2.2-0.5,2.9,0.5c0.7,0.9,0.5,2.2-0.5,2.9l0,0L647.4,750.6z"/>
			<path class="st7" d="M619.3,772.4l-13,12.1l-0.1,0.1c-0.8,0.8-2.1,0.7-2.9-0.1c-0.8-0.8-0.7-2.1,0.1-2.9l13.2-12.3
				c0.8-0.8,2.2-0.7,2.9,0.1C620.2,770.2,620.2,771.6,619.3,772.4L619.3,772.4L619.3,772.4z"/>
			<path class="st7" d="M593.9,797.4L582.3,811l-0.1,0.1c-0.7,0.9-2,1-2.9,0.2c-0.9-0.7-1-2-0.2-2.9l11.7-13.7c0.7-0.9,2-1,2.9-0.2
				C594.6,795.2,594.7,796.5,593.9,797.4L593.9,797.4L593.9,797.4z"/>
			<path class="st7" d="M571.6,825.2l-9.9,14.8l-0.1,0.1c-0.6,0.9-1.9,1.2-2.8,0.6c-0.9-0.6-1.2-1.9-0.6-2.8l10-15
				c0.6-0.9,1.9-1.2,2.8-0.6c0.9,0.6,1.2,1.9,0.6,2.8L571.6,825.2L571.6,825.2z"/>
			<path class="st7" d="M552.6,855.3l-8.1,15.9l-0.1,0.1c-0.5,1-1.7,1.4-2.7,0.9c-1-0.5-1.4-1.7-0.9-2.7l8.2-16.1
				c0.5-1,1.7-1.4,2.7-0.9c1,0.5,1.4,1.7,0.9,2.7l0,0L552.6,855.3z"/>
			<path class="st7" d="M537.6,887.6l-5.8,16.8l0,0.1c-0.4,1-1.5,1.6-2.5,1.2c-1-0.4-1.6-1.5-1.2-2.5l5.9-17.1
				c0.4-1,1.5-1.6,2.6-1.2c1,0.4,1.6,1.5,1.2,2.6l0,0L537.6,887.6z"/>
			<path class="st7" d="M527.1,921.6l-3.2,17.5l0,0.2c-0.2,1.1-1.2,1.8-2.3,1.6s-1.8-1.2-1.6-2.3l3.2-17.8c0.2-1.1,1.2-1.8,2.3-1.6
				c1.1,0.2,1.8,1.2,1.6,2.3l0,0L527.1,921.6z"/>
			<path class="st7" d="M522.2,956.7l-0.1,17.7l0,0.2c0,1.1-0.9,2-2,1.9c-1.1,0-2-0.9-1.9-2l0.1-18.1c0-1.1,0.9-2,2-2
				c1.1,0,2,0.9,2,2v0L522.2,956.7z"/>
			<path class="st7" d="M523.7,992.1l3.3,17.4l0,0.2c0.2,1.1-0.5,2.1-1.5,2.3c-1.1,0.2-2.1-0.5-2.3-1.5l-3.4-17.8
				c-0.2-1.1,0.5-2.1,1.5-2.3c1.1-0.2,2.1,0.5,2.3,1.5l0,0L523.7,992.1z"/>
			<path class="st7" d="M532.1,1026.5l6.8,16.4l0.1,0.2c0.4,1-0.1,2.1-1,2.5c-1,0.4-2.1-0.1-2.5-1l-7-16.7c-0.4-1,0.1-2.1,1-2.5
				c1-0.4,2.1,0.1,2.5,1l0,0L532.1,1026.5z"/>
			<path class="st7" d="M547.5,1058.3c3.3,4.9,7,9.4,11.2,13.5c0.7,0.7,0.8,2,0,2.7c-0.7,0.7-1.9,0.8-2.7,0
				c-4.3-4.3-8.2-9-11.7-14.1c-0.6-0.9-0.4-2.1,0.5-2.7C545.7,1057.2,546.9,1057.4,547.5,1058.3L547.5,1058.3z"/>
			<path class="st7" d="M572.4,1082.7c4.9,3.1,10.2,5.6,15.8,7.5c1,0.3,1.5,1.4,1.2,2.4c-0.3,1-1.4,1.5-2.4,1.2
				c-5.8-2-11.4-4.6-16.6-7.9c-0.9-0.6-1.2-1.7-0.6-2.6C570.3,1082.4,571.5,1082.2,572.4,1082.7L572.4,1082.7z"/>
			<path class="st7" d="M605.2,1093.9c5.8,0.6,11.7,0.6,17.5-0.1c1-0.1,2,0.6,2.1,1.7c0.1,1-0.6,2-1.7,2.1
				c-6.1,0.7-12.2,0.7-18.3,0.1c-1-0.1-1.8-1-1.7-2.1C603.3,1094.6,604.2,1093.8,605.2,1093.9L605.2,1093.9z"/>
			<path class="st7" d="M639.9,1090.2c5.6-1.8,11-4,16.2-6.8c0.9-0.5,2-0.1,2.5,0.8c0.5,0.9,0.1,2-0.8,2.5c-5.4,2.8-11,5.2-16.8,7
				c-1,0.3-2-0.2-2.3-1.2C638.4,1091.6,638.9,1090.6,639.9,1090.2L639.9,1090.2z"/>
			<path class="st7" d="M670.9,1074c4.7-3.6,9-7.6,13-11.9c0.7-0.7,1.9-0.8,2.6-0.1c0.7,0.7,0.8,1.9,0.1,2.6
				c-4.1,4.5-8.6,8.6-13.4,12.3c-0.8,0.6-2,0.5-2.6-0.3C670,1075.8,670.1,1074.6,670.9,1074L670.9,1074z"/>
			<path class="st7" d="M694.8,1048.3l4.5-7.6c1.6-2.5,2.8-5.2,4.1-7.8l0.1-0.1c0.5-0.9,1.5-1.3,2.4-0.8c0.9,0.5,1.3,1.5,0.8,2.4
				c-1.4,2.7-2.6,5.5-4.2,8.1l-4.6,7.9c-0.5,0.9-1.6,1.2-2.5,0.7c-0.9-0.5-1.2-1.6-0.7-2.5l0,0L694.8,1048.3z"/>
			<path class="st7" d="M709.5,1016.3c1.6-5.7,2.7-11.5,3.3-17.3c0.1-1,1-1.7,2-1.6c1,0.1,1.7,1,1.6,2c-0.6,6.1-1.8,12.1-3.4,17.9
				c-0.3,1-1.3,1.5-2.2,1.2C709.8,1018.3,709.3,1017.3,709.5,1016.3L709.5,1016.3z"/>
			<path class="st7" d="M713,981.4c-0.5-5.8-1.6-11.6-3.3-17.3c-0.3-0.9,0.3-1.9,1.2-2.2c0.9-0.3,1.9,0.3,2.2,1.2
				c1.7,5.8,2.9,11.9,3.4,17.9c0.1,1-0.6,1.9-1.6,1.9C714,983.1,713.1,982.4,713,981.4L713,981.4z"/>
			<path class="st7" d="M703.2,947.8c-2.7-5.2-5.8-10.2-9.3-14.9c-0.6-0.8-0.4-1.9,0.4-2.5c0.8-0.6,1.9-0.4,2.5,0.4
				c3.6,4.9,6.9,10,9.6,15.5c0.4,0.9,0.1,1.9-0.8,2.4C704.8,949.1,703.7,948.7,703.2,947.8L703.2,947.8z"/>
			<path class="st7" d="M682.3,919.6c-4.2-4.1-8.7-7.9-13.5-11.4c-0.8-0.6-0.9-1.7-0.4-2.4c0.6-0.8,1.7-0.9,2.4-0.4
				c4.9,3.6,9.5,7.5,13.9,11.7c0.7,0.7,0.7,1.8,0,2.5C684.1,920.3,683,920.3,682.3,919.6L682.3,919.6z"/>
			<path class="st7" d="M653.9,898.6c-5.2-2.9-10.5-5.4-16-7.7c-0.9-0.4-1.3-1.4-0.9-2.3c0.4-0.9,1.4-1.3,2.3-0.9
				c5.6,2.3,11.1,4.9,16.3,7.8c0.8,0.5,1.1,1.5,0.7,2.4S654.8,899.1,653.9,898.6L653.9,898.6z"/>
			<path class="st7" d="M621.2,885.1c-5.7-1.7-11.5-2.7-17.3-4.1l-0.1,0c-0.9-0.2-1.5-1.2-1.3-2.1c0.2-0.9,1.2-1.5,2.1-1.3l0,0
				c5.9,1.4,11.7,2.6,17.6,4.2c0.9,0.3,1.4,1.2,1.2,2.1C623.1,884.9,622.1,885.4,621.2,885.1L621.2,885.1z"/>
			<path class="st7" d="M586.3,878.1l-17.7-1.7l-0.1,0c-1-0.1-1.8-1-1.7-2c0.1-1,1-1.8,2-1.7l0,0l18,1.8c1,0.1,1.7,1,1.6,2
				c-0.1,1-1,1.7-2,1.6L586.3,878.1z"/>
			<path class="st7" d="M550.8,875.8l-17.8,0.4l-0.1,0c-1.1,0-2-0.8-2-1.9c0-1.1,0.8-2,1.9-2l0,0l18-0.3c1.1,0,1.9,0.8,1.9,1.9
				c0,1-0.8,1.9-1.9,1.9L550.8,875.8z"/>
			<path class="st7" d="M515.2,877.7l-17.7,2.4l-0.1,0c-1.1,0.2-2.2-0.6-2.3-1.8c-0.2-1.1,0.6-2.2,1.8-2.3l0,0l17.9-2.3
				c1.1-0.1,2.1,0.6,2.2,1.7c0.1,1.1-0.6,2.1-1.7,2.2L515.2,877.7z"/>
			<path class="st7" d="M480,883.5l-17.3,4.3l-0.1,0c-1.2,0.3-2.3-0.4-2.6-1.6c-0.3-1.2,0.4-2.3,1.6-2.6l0,0l17.5-4.2
				c1.1-0.3,2.3,0.4,2.5,1.6c0.3,1.1-0.4,2.3-1.5,2.5L480,883.5z"/>
			<path class="st7" d="M445.7,892.9l-16.7,6.1l-0.1,0c-1.2,0.4-2.5-0.2-2.9-1.3c-0.4-1.2,0.2-2.5,1.3-2.9l0,0l17-6.1
				c1.1-0.4,2.4,0.2,2.8,1.3c0.4,1.1-0.2,2.4-1.3,2.8L445.7,892.9z"/>
			<path class="st7" d="M412.6,906l-15.9,7.9l-0.1,0.1c-1.2,0.6-2.6,0.1-3.2-1.1c-0.6-1.2-0.1-2.6,1.1-3.2l0,0l16.2-8
				c1.1-0.6,2.5-0.1,3.1,1.1c0.6,1.1,0.1,2.5-1,3.1L412.6,906z"/>
			<path class="st7" d="M381.2,922.8l-14.8,9.8l-0.1,0.1c-1.1,0.7-2.7,0.4-3.4-0.7c-0.7-1.1-0.4-2.7,0.7-3.4l0,0l15.1-9.9
				c1.1-0.7,2.6-0.4,3.3,0.7c0.7,1.1,0.4,2.6-0.7,3.3L381.2,922.8z"/>
			<path class="st7" d="M352.1,943.3l-13.7,11.3l-0.1,0.1c-1.1,0.9-2.7,0.7-3.6-0.3c-0.9-1.1-0.7-2.7,0.3-3.6l0,0l14-11.4
				c1.1-0.9,2.6-0.7,3.5,0.4C353.4,940.7,353.3,942.3,352.1,943.3L352.1,943.3z"/>
			<path class="st7" d="M325.2,966.5L312.4,979l-0.1,0.1c-1,1-2.7,1-3.7,0c-1-1-1-2.7,0-3.7l0,0l12.9-12.5c1-1,2.7-1,3.7,0.1
				C326.3,963.8,326.3,965.5,325.2,966.5L325.2,966.5z"/>
			<path class="st7" d="M300.2,992l-11.8,13.4l-0.1,0.1c-1,1.1-2.7,1.2-3.9,0.2c-1.1-1-1.2-2.7-0.2-3.9l0,0l12-13.4
				c1-1.1,2.7-1.2,3.8-0.2C301.1,989.1,301.2,990.8,300.2,992L300.2,992z"/>
			<path class="st7" d="M277,1019.1l-11,14.1l-0.1,0.1c-1,1.2-2.7,1.5-4,0.5c-1.2-1-1.5-2.8-0.5-4l0,0l11.2-14.1
				c1-1.2,2.7-1.4,3.9-0.5C277.7,1016,278,1017.8,277,1019.1L277,1019.1z"/>
			<path class="st7" d="M255.4,1047.5l-10.2,14.7l0,0.1c-0.9,1.3-2.8,1.7-4.1,0.7c-1.3-0.9-1.7-2.8-0.7-4.1l0,0l10.3-14.7
				c0.9-1.3,2.7-1.6,4-0.7C256,1044.4,256.4,1046.2,255.4,1047.5L255.4,1047.5z"/>
			<path class="st7" d="M235.4,1077.1l-9.4,15.2l0,0.1c-0.9,1.4-2.7,1.9-4.2,1c-1.4-0.9-1.9-2.7-1-4.2l0,0l9.6-15.3
				c0.9-1.4,2.7-1.8,4.1-0.9C235.9,1073.8,236.3,1075.7,235.4,1077.1L235.4,1077.1z"/>
			<path class="st7" d="M217,1107.7l-8.7,15.6l0,0.1c-0.8,1.5-2.7,2.1-4.2,1.2c-1.5-0.8-2.1-2.7-1.2-4.2l0,0l8.8-15.7
				c0.8-1.5,2.7-2,4.2-1.2C217.3,1104.3,217.8,1106.2,217,1107.7L217,1107.7z"/>
			<path class="st7" d="M200.1,1139.2l-7.9,16l0,0.1c-0.8,1.6-2.7,2.3-4.3,1.5c-1.6-0.8-2.3-2.7-1.5-4.3l0,0l8-16.1
				c0.8-1.6,2.7-2.2,4.2-1.4C200.2,1135.6,200.9,1137.5,200.1,1139.2L200.1,1139.2z"/>
			<path class="st7" d="M184.7,1171.4l-7,16.4l0,0.1c-0.7,1.7-2.7,2.5-4.3,1.7s-2.5-2.7-1.7-4.3l0,0l7.2-16.5
				c0.7-1.7,2.6-2.4,4.3-1.7C184.7,1167.8,185.5,1169.7,184.7,1171.4L184.7,1171.4z"/>
			<path class="st7" d="M171.2,1204.4l-6.1,16.8l0,0.1c-0.6,1.8-2.6,2.7-4.4,2c-1.8-0.6-2.7-2.6-2-4.4l0,0l6.2-16.9
				c0.6-1.7,2.6-2.6,4.3-2C170.9,1200.7,171.8,1202.6,171.2,1204.4L171.2,1204.4z"/>
			<path class="st7" d="M159.5,1238.2l-5,17.1l0,0.1c-0.5,1.9-2.5,2.9-4.3,2.4c-1.9-0.5-2.9-2.5-2.4-4.3l0,0l5.1-17.3
				c0.5-1.8,2.5-2.9,4.3-2.3c1.8,0.5,2.9,2.5,2.3,4.3L159.5,1238.2z"/>
			<path class="st7" d="M150.2,1272.5l-3.6,17.4l0,0.1c-0.4,1.9-2.3,3.2-4.2,2.8c-1.9-0.4-3.2-2.3-2.8-4.2
				c1.2-5.9,2.5-11.8,3.8-17.7c0.4-1.9,2.3-3.1,4.2-2.7c1.9,0.4,3.1,2.3,2.7,4.2L150.2,1272.5z"/>
			<path class="st7" d="M143.6,1307.5l-2.1,17.6l0,0.2c-0.2,1.9-2,3.3-3.9,3.1c-1.9-0.2-3.3-2-3.1-3.9l2.1-18c0.2-2,2-3.4,4-3.1
				c2,0.2,3.4,2,3.1,4l0,0L143.6,1307.5z"/>
			<path class="st7" d="M140.3,1342.8l-0.3,17.8l0,0.2c0,1.9-1.6,3.5-3.6,3.5c-1.9,0-3.5-1.6-3.5-3.6l0.3-18.1c0-2,1.6-3.5,3.6-3.5
				c2,0,3.5,1.6,3.5,3.6v0L140.3,1342.8z"/>
			<path class="st7" d="M140.7,1378.3l1.6,17.7l0,0.2c0.2,1.9-1.2,3.6-3.1,3.8c-1.9,0.2-3.6-1.2-3.8-3.1l-1.7-18.1
				c-0.2-1.9,1.2-3.6,3.2-3.8c1.9-0.2,3.6,1.2,3.8,3.2l0,0L140.7,1378.3z"/>
			<path class="st7" d="M144.9,1413.5l3.6,17.4l0,0.2c0.4,1.9-0.8,3.7-2.7,4.1c-1.9,0.4-3.7-0.8-4.1-2.7l-3.7-17.7
				c-0.4-1.9,0.8-3.7,2.7-4.1c1.9-0.4,3.7,0.8,4.1,2.7l0,0L144.9,1413.5z"/>
			<path class="st7" d="M153.2,1448l5.6,16.8l0.1,0.2c0.6,1.8-0.4,3.7-2.2,4.3c-1.8,0.6-3.7-0.4-4.3-2.2l-5.8-17.2
				c-0.6-1.8,0.4-3.7,2.2-4.3c1.8-0.6,3.7,0.4,4.3,2.2l0,0L153.2,1448z"/>
			<path class="st7" d="M165.3,1481.3l7.4,16.1l0.1,0.2c0.8,1.7,0,3.7-1.6,4.5c-1.7,0.8-3.7,0-4.5-1.6l-7.6-16.4
				c-0.8-1.7,0-3.7,1.6-4.5c1.7-0.8,3.7,0,4.5,1.7l0,0L165.3,1481.3z"/>
			<path class="st7" d="M181,1513.2l9.1,15.3l0.1,0.1c0.9,1.6,0.4,3.6-1.2,4.6c-1.6,0.9-3.6,0.4-4.6-1.2l-9.3-15.5
				c-0.9-1.6-0.4-3.6,1.2-4.6c1.6-0.9,3.6-0.4,4.6,1.2l0,0L181,1513.2z"/>
			<path class="st7" d="M199.9,1543.3l10.5,14.4l0.1,0.1c1.1,1.5,0.8,3.5-0.7,4.6s-3.5,0.8-4.6-0.7l-10.7-14.6
				c-1.1-1.5-0.8-3.6,0.7-4.6c1.5-1.1,3.6-0.8,4.6,0.7l0,0L199.9,1543.3z"/>
			<path class="st7" d="M221.5,1571.5l11.7,13.4l0.1,0.1c1.2,1.4,1,3.4-0.3,4.6c-1.4,1.2-3.4,1-4.6-0.3l-11.9-13.6
				c-1.2-1.4-1-3.4,0.3-4.6c1.4-1.2,3.4-1,4.6,0.3L221.5,1571.5L221.5,1571.5z"/>
			<path class="st7" d="M245.4,1598l12.6,12.5l0.1,0.1c1.3,1.3,1.3,3.3,0,4.6c-1.3,1.3-3.3,1.3-4.6,0l-12.8-12.7
				c-1.3-1.3-1.3-3.3,0-4.6C241.9,1596.6,244,1596.6,245.4,1598L245.4,1598L245.4,1598z"/>
			<path class="st7" d="M271,1622.6l13.4,11.7l0.1,0.1c1.3,1.2,1.5,3.2,0.3,4.5c-1.2,1.3-3.2,1.5-4.5,0.3l-13.6-11.8
				c-1.3-1.2-1.5-3.2-0.3-4.5S269.6,1621.4,271,1622.6L271,1622.6L271,1622.6z"/>
			<path class="st7" d="M298.3,1645.7l14.1,10.9l0.1,0.1c1.4,1.1,1.6,3.1,0.6,4.4c-1.1,1.4-3,1.6-4.4,0.6l-14.3-11
				c-1.4-1.1-1.6-3.1-0.6-4.5C294.8,1644.8,296.8,1644.6,298.3,1645.7L298.3,1645.7L298.3,1645.7z"/>
			<path class="st7" d="M326.8,1667.2l14.6,10.2l0.1,0c1.4,1,1.8,2.9,0.8,4.4c-1,1.4-2.9,1.8-4.3,0.8l-14.8-10.3
				c-1.4-1-1.8-2.9-0.8-4.4C323.3,1666.5,325.3,1666.2,326.8,1667.2L326.8,1667.2L326.8,1667.2z"/>
			<path class="st7" d="M356.3,1687.4l15,9.9c1.4,0.9,1.8,2.8,0.9,4.3c-0.9,1.4-2.9,1.8-4.3,0.9l-15-9.9c-1.4-0.9-1.8-2.9-0.9-4.3
				C352.9,1686.9,354.8,1686.5,356.3,1687.4L356.3,1687.4z"/>
			<path class="st7" d="M386.2,1707.1l15,9.8c1.4,0.9,1.8,2.8,0.9,4.2c-0.9,1.4-2.8,1.8-4.2,0.9l-15-9.8c-1.4-0.9-1.8-2.8-0.9-4.2
				C382.9,1706.6,384.8,1706.2,386.2,1707.1L386.2,1707.1z"/>
			<path class="st7" d="M416.3,1726.8l15,9.8c1.4,0.9,1.8,2.8,0.9,4.2c-0.9,1.4-2.8,1.8-4.2,0.9l-15-9.8c-1.4-0.9-1.8-2.8-0.9-4.2
				C413,1726.2,414.9,1725.8,416.3,1726.8L416.3,1726.8z"/>
			<path class="st7" d="M446.3,1746.4l15,9.9c1.4,0.9,1.7,2.8,0.8,4.1c-0.9,1.4-2.8,1.7-4.1,0.8l-15-9.9c-1.4-0.9-1.8-2.8-0.9-4.2
				C443,1745.9,444.9,1745.5,446.3,1746.4L446.3,1746.4z"/>
			<path class="st7" d="M476.1,1766.3l14.8,10.1c1.3,0.9,1.7,2.7,0.8,4.1c-0.9,1.3-2.7,1.7-4.1,0.8l0,0l-14.8-10l0,0
				c-1.4-0.9-1.7-2.8-0.8-4.1C472.9,1765.7,474.8,1765.4,476.1,1766.3L476.1,1766.3z"/>
			<path class="st7" d="M505.8,1786.6l14.7,10.3c1.3,0.9,1.6,2.7,0.7,4.1c-0.9,1.3-2.7,1.6-4.1,0.7l0,0l-14.7-10.3l0,0
				c-1.3-0.9-1.6-2.8-0.7-4.1C502.6,1786,504.4,1785.7,505.8,1786.6L505.8,1786.6z"/>
			<path class="st7" d="M535,1807.4l14.4,10.7c1.3,0.9,1.5,2.7,0.6,4c-0.9,1.3-2.7,1.5-4,0.6l0,0l-14.4-10.6l0,0
				c-1.3-0.9-1.6-2.8-0.6-4C531.9,1806.8,533.7,1806.5,535,1807.4L535,1807.4z"/>
			<path class="st7" d="M563.7,1829l14.2,11.1c1.2,1,1.5,2.8,0.5,4c-1,1.2-2.8,1.5-4,0.5l0,0l-14.1-11l0,0c-1.2-1-1.5-2.8-0.5-4
				C560.7,1828.2,562.5,1828,563.7,1829L563.7,1829z"/>
			<path class="st7" d="M591.9,1851.3l13.9,11.4c1.2,1,1.4,2.8,0.4,3.9c-1,1.2-2.8,1.4-3.9,0.4l0,0l-13.8-11.3l0,0
				c-1.2-1-1.4-2.8-0.4-4C588.9,1850.5,590.7,1850.3,591.9,1851.3L591.9,1851.3z"/>
			<path class="st7" d="M619.5,1874.3l13.6,11.8c1.2,1,1.3,2.8,0.3,3.9c-1,1.2-2.8,1.3-3.9,0.3l0,0l-13.5-11.7l0,0
				c-1.2-1-1.3-2.8-0.3-3.9C616.6,1873.4,618.3,1873.3,619.5,1874.3L619.5,1874.3z"/>
			<path class="st7" d="M646.4,1898.2l13.1,12.3c1.1,1,1.1,2.8,0.1,3.9c-1,1.1-2.8,1.1-3.9,0.1l0,0l-13-12.2l0,0
				c-1.1-1-1.2-2.8-0.1-3.9C643.5,1897.2,645.3,1897.1,646.4,1898.2L646.4,1898.2z"/>
			<path class="st7" d="M672.3,1923.2l12.5,13c1,1.1,1,2.8-0.1,3.8c-1.1,1-2.8,1-3.8-0.1l0-0.1l-12.4-12.9l-0.1-0.1
				c-1-1.1-1-2.8,0.1-3.8C669.5,1922.1,671.3,1922.1,672.3,1923.2L672.3,1923.2z"/>
			<path class="st7" d="M696.9,1949.5l11.7,13.7c1,1.1,0.8,2.8-0.3,3.8c-1.1,1-2.8,0.8-3.8-0.3l-0.1-0.1l-11.6-13.6l-0.1-0.1
				c-1-1.1-0.8-2.8,0.3-3.8C694.2,1948.3,695.9,1948.4,696.9,1949.5L696.9,1949.5z"/>
			<path class="st7" d="M719.7,1977.4l10.6,14.6c0.9,1.2,0.6,2.8-0.6,3.7c-1.2,0.9-2.8,0.6-3.7-0.6l-0.1-0.1l-10.5-14.4l-0.1-0.1
				c-0.9-1.2-0.6-2.8,0.6-3.7C717.2,1976,718.8,1976.2,719.7,1977.4L719.7,1977.4z"/>
			<path class="st7" d="M740.3,2007.1l9.3,15.5c0.7,1.2,0.3,2.8-0.9,3.6c-1.2,0.7-2.8,0.3-3.6-0.9l-0.1-0.1l-9.2-15.3l-0.1-0.1
				c-0.7-1.2-0.3-2.8,0.9-3.6C737.9,2005.4,739.5,2005.8,740.3,2007.1L740.3,2007.1z"/>
			<path class="st7" d="M758,2038.5l7.6,16.4c0.6,1.3,0,2.8-1.2,3.4c-1.3,0.6-2.8,0-3.3-1.2l-0.1-0.1l-7.5-16.1l-0.1-0.1
				c-0.6-1.3,0-2.8,1.2-3.4C755.9,2036.7,757.4,2037.2,758,2038.5L758,2038.5z"/>
			<path class="st7" d="M772.2,2071.7l5.6,17.2c0.4,1.3-0.3,2.6-1.6,3.1c-1.3,0.4-2.6-0.3-3.1-1.5l0-0.1l-5.6-16.9l0-0.1
				c-0.4-1.3,0.3-2.7,1.6-3.1C770.4,2069.7,771.8,2070.4,772.2,2071.7L772.2,2071.7z"/>
			<path class="st7" d="M782.4,2106.4l3.4,17.8c0.2,1.3-0.6,2.5-1.8,2.7c-1.3,0.2-2.5-0.6-2.7-1.8l0-0.1l-3.5-17.4l0-0.1
				c-0.3-1.3,0.6-2.5,1.9-2.8C780.9,2104.2,782.1,2105.1,782.4,2106.4L782.4,2106.4z"/>
			<path class="st7" d="M788.1,2142.1l1.1,18c0.1,1.2-0.9,2.3-2.1,2.4c-1.2,0.1-2.3-0.9-2.4-2.1l0-0.1l-1.2-17.8l0-0.1
				c-0.1-1.3,0.9-2.3,2.1-2.4C786.9,2139.9,788,2140.8,788.1,2142.1L788.1,2142.1z"/>
			<path class="st7" d="M789,2178.2l-1.3,18c-0.1,1.2-1.1,2.1-2.3,2c-1.2-0.1-2-1.1-2-2.3l0-0.1l1.2-17.8l0-0.1
				c0.1-1.2,1.1-2.1,2.3-2C788.2,2176,789.1,2177,789,2178.2L789,2178.2z"/>
			<path class="st7" d="M785.6,2214.1l-2.9,17.8c-0.2,1.1-1.2,1.9-2.3,1.7c-1.1-0.2-1.9-1.2-1.7-2.3l0-0.1l2.8-17.6l0-0.1
				c0.2-1.1,1.2-1.9,2.4-1.7C785,2211.9,785.7,2213,785.6,2214.1L785.6,2214.1z"/>
			<path class="st7" d="M778.9,2249.5l-4.6,17.4c-0.3,1-1.3,1.6-2.4,1.4c-1-0.3-1.6-1.3-1.4-2.3l0-0.1l4.4-17.3l0-0.1
				c0.3-1.1,1.4-1.7,2.4-1.4S779.2,2248.5,778.9,2249.5L778.9,2249.5z"/>
			<path class="st7" d="M768.8,2284.1l-6.8,16.8c-0.4,0.9-1.4,1.4-2.4,1c-0.9-0.4-1.4-1.4-1-2.4l0.1-0.1l6.6-16.5l0.1-0.1
				c0.4-1,1.5-1.4,2.4-1.1C768.7,2282.1,769.1,2283.2,768.8,2284.1L768.8,2284.1z"/>
			<path class="st7" d="M753.6,2317c-3.1,5.2-6.5,10.2-10.3,15c-0.6,0.7-1.7,0.9-2.4,0.2c-0.7-0.6-0.9-1.7-0.3-2.4
				c3.7-4.6,7-9.5,10-14.6c0.5-0.9,1.6-1.1,2.4-0.6C753.8,2315.1,754.1,2316.1,753.6,2317L753.6,2317z"/>
			<path class="st7" d="M730.3,2344.9c-4.8,3.8-10.2,6.9-16,9.1c-0.8,0.3-1.8-0.1-2.1-1c-0.3-0.8,0.1-1.8,1-2.1
				c5.4-2.1,10.5-5.1,15-8.7c0.7-0.6,1.8-0.5,2.4,0.3S731.1,2344.3,730.3,2344.9L730.3,2344.9z"/>
		</g>
	</g>
	<g>
		<linearGradient id="SVGID_39_" gradientUnits="userSpaceOnUse" x1="2042.5806" y1="2412.3918" x2="1516.5535" y2="2341.4666">
			<stop  offset="0" style="stop-color:#FF928E"/>
			<stop  offset="1" style="stop-color:#FEB3B1"/>
		</linearGradient>
		<path class="st47" d="M1773.8,2404.2c0,0-22.4-58.9-48.5-53.5c-26.1,5.4-54.7,25.5-54.7,25.5l-42,56.8c0,0,117.8,46.4,159.3,19.8
			c0,0,120.4,20.8,272.4-4.1c-22-46.5-35.1-93-42.8-129.1C1940.4,2363.1,1857.5,2395.7,1773.8,2404.2z"/>
		<linearGradient id="SVGID_40_" gradientUnits="userSpaceOnUse" x1="2210.5903" y1="2051.3176" x2="2235.9719" y2="2699.687">
			<stop  offset="0" style="stop-color:#FE7062"/>
			<stop  offset="1" style="stop-color:#FF928E"/>
		</linearGradient>
		<path class="st48" d="M2411.4,1977c0,0-172.3,217.1-394,342.5c7.7,36.1,20.8,82.6,42.8,129.1c115-18.9,248-63.9,360.8-163.9
			L2411.4,1977z"/>
	</g>
	<linearGradient id="SVGID_41_" gradientUnits="userSpaceOnUse" x1="106.3629" y1="2492.2639" x2="1458.0862" y2="2492.2639">
		<stop  offset="0" style="stop-color:#020039"/>
		<stop  offset="1" style="stop-color:#090056"/>
	</linearGradient>
	<path class="st49" d="M109.6,2077.1l342.1,860.4c17.4,43.8,62.6,69.9,109.2,63.2l897.2-66.2l-323.2-915
		c-8.6-22.6-30.5-37.4-54.8-36.8c-157.3,3.6-730.2,17.8-935.1,36C116.6,2021.3,98.7,2050.7,109.6,2077.1z"/>
	<path class="st1" d="M530.7,2961.7l-341.8-868.1c-6.9-17.5,5.8-36.6,24.6-37l844.9-32.1c21.8-0.8,41.7,12.2,49.6,32.5l309.4,846.3
		L530.7,2961.7z"/>
	<linearGradient id="SVGID_42_" gradientUnits="userSpaceOnUse" x1="2177.8232" y1="2492.2639" x2="3529.5466" y2="2492.2639">
		<stop  offset="0" style="stop-color:#020039"/>
		<stop  offset="1" style="stop-color:#090056"/>
	</linearGradient>
	<path class="st50" d="M3526.3,2077.1l-342.1,860.4c-17.4,43.8-62.6,69.9-109.2,63.2l-897.2-62.8l323.2-918.4
		c8.6-22.6,30.5-37.4,54.8-36.8c157.3,3.6,730.2,17.8,935.1,36C3519.3,2021.3,3537.2,2050.7,3526.3,2077.1z"/>
	<path class="st1" d="M3105.2,2961.7l341.8-868.1c6.9-17.5-5.8-36.6-24.6-37l-844.9-32.1c-21.8-0.8-41.7,12.2-49.6,32.5
		l-309.4,846.3L3105.2,2961.7z"/>
	<linearGradient id="SVGID_43_" gradientUnits="userSpaceOnUse" x1="1323.266" y1="2003.7891" x2="1097.1439" y2="2234.5256">
		<stop  offset="0" style="stop-color:#FE7062"/>
		<stop  offset="1" style="stop-color:#FF928E"/>
	</linearGradient>
	<path class="st51" d="M1119.7,2005.7l10.7,287.4c30.4,10.5,59.3,18.6,86.9,24.7c17.2-55.5,55.2-123.6,86.3-174.2
		C1189.4,2103.2,1119.7,2005.7,1119.7,2005.7z"/>
	<linearGradient id="SVGID_44_" gradientUnits="userSpaceOnUse" x1="1475.6156" y1="1290.3285" x2="1475.6156" y2="1931.6113">
		<stop  offset="0" style="stop-color:#FF928E"/>
		<stop  offset="1" style="stop-color:#FEB3B1"/>
	</linearGradient>
	<path class="st52" d="M1689.7,2000.8c-156.6,169.1-283.4,179-386.2,142.7c-31.1,50.6-69,118.7-86.3,174.2
		c418.2,92.2,516.7-292.3,516.7-292.3L1689.7,2000.8z"/>
	<linearGradient id="SVGID_45_" gradientUnits="userSpaceOnUse" x1="1828.1174" y1="1783.5956" x2="1771.968" y2="2223.9226">
		<stop  offset="0" style="stop-color:#FF928E"/>
		<stop  offset="1" style="stop-color:#FEB3B1"/>
	</linearGradient>
	<path class="st53" d="M1721.4,1982.9c0,0,18-19.4,51.4-13.3c33.4,6.1,63.1,17.7,83.9,0c20.8-17.7,28.1,6.1,28.1,6.1l-62.3,47.4
		L1721.4,1982.9z"/>
	<linearGradient id="SVGID_46_" gradientUnits="userSpaceOnUse" x1="1838.126" y1="1290.3286" x2="1838.126" y2="1931.6106">
		<stop  offset="0" style="stop-color:#FF928E"/>
		<stop  offset="1" style="stop-color:#FEB3B1"/>
	</linearGradient>
	<path class="st54" d="M1684.2,2016c0,0,12.4-51.7,49.6-44.6c37.3,7.1,121.8,53.1,143.6,44.6c21.8-8.5,49.7-28.8,64-21.6l-25.2,31.3
		c0,0,64.7-37.3,75.9-14.4l-107.7,60.6C1884.3,2071.9,1726.7,2056.2,1684.2,2016z"/>
	<linearGradient id="SVGID_47_" gradientUnits="userSpaceOnUse" x1="1368.0494" y1="1838.7955" x2="163.6719" y2="3427.3286">
		<stop  offset="0" style="stop-color:#FE7062"/>
		<stop  offset="1" style="stop-color:#FF928E"/>
	</linearGradient>
	<path class="st55" d="M577.5,2952.8c0,0-53.4-762.9,336.1-1000.1c0,0,108.9-71.9,244.6,67.3c135.7,139.2,92,283.9-21.9,419.5
		c-113.9,135.6-229.9,377.7-202.3,513.3H577.5z"/>
	<linearGradient id="SVGID_48_" gradientUnits="userSpaceOnUse" x1="1165.2489" y1="1788.6643" x2="946.5633" y2="2143.2891">
		<stop  offset="0" style="stop-color:#FF928E"/>
		<stop  offset="0.531" style="stop-color:#FEA6A3"/>
		<stop  offset="1" style="stop-color:#FEB3B1"/>
	</linearGradient>
	<path class="st56" d="M1110,1744.9c-0.1,9.1-129.8,193.3-129.8,193.3s23.3,45.9,134.4,83.1l96-197.3L1110,1744.9z"/>
	<linearGradient id="SVGID_49_" gradientUnits="userSpaceOnUse" x1="1802.2887" y1="1602.744" x2="1515.6331" y2="2241.0703">
		<stop  offset="0" style="stop-color:#FF928E"/>
		<stop  offset="1" style="stop-color:#FEB3B1"/>
	</linearGradient>
	<path class="st57" d="M1059,2377.5c0,0,246.1,206.1,511.9,116.2c16.5-5.6,34.5-4.4,49.9,3.8l76.4,40.4
		c32.1,16.9,71.8,5.8,90.4-25.3c10.6-17.8,19.7-38,21.5-57.5l-149.5-60.5l11-18.3c0,0-73-6.2-92.1,46.1c0,0-139,57.8-373.5-200.1
		C1204.9,2222.2,1098.5,2312.7,1059,2377.5z"/>
	<linearGradient id="SVGID_50_" gradientUnits="userSpaceOnUse" x1="888.9502" y1="2279.9895" x2="1051.181" y2="2279.9895">
		<stop  offset="0" style="stop-color:#E1473D"/>
		<stop  offset="1" style="stop-color:#E9605A"/>
	</linearGradient>
	<path class="st58" d="M1045.7,2376.6c-1,0-2.1-0.3-3-0.9c-103.9-70.2-152.8-183.6-153.3-184.7c-1.2-2.8,0.1-6,2.9-7.1
		c2.8-1.2,6,0.1,7.1,2.9c0.5,1.1,48.2,111.6,149.4,179.9c2.5,1.7,3.1,5.1,1.5,7.6C1049.2,2375.8,1047.5,2376.6,1045.7,2376.6z"/>
	<linearGradient id="SVGID_51_" gradientUnits="userSpaceOnUse" x1="927.8521" y1="2101.4316" x2="1205.5248" y2="2101.4316">
		<stop  offset="0" style="stop-color:#E1473D"/>
		<stop  offset="1" style="stop-color:#E9605A"/>
	</linearGradient>
	<path class="st59" d="M1200.1,2220c-1.8,0-3.5-0.9-4.6-2.5c-0.3-0.5-32-49.8-92.3-157.8c-18.4-32.9-42.5-53.7-71.7-61.9
		c-48.4-13.5-95.1,12.4-95.5,12.7c-2.6,1.5-5.9,0.6-7.4-2c-1.5-2.6-0.6-5.9,2-7.4c2.1-1.2,50.9-28.5,103.8-13.7
		c32.1,9,58.5,31.5,78.3,67.1c60.1,107.7,91.6,156.7,92,157.2c1.6,2.5,0.9,5.9-1.6,7.5C1202.1,2219.7,1201.1,2220,1200.1,2220z"/>
	<g>
		<linearGradient id="SVGID_52_" gradientUnits="userSpaceOnUse" x1="1366.2693" y1="1553.1542" x2="1047.1066" y2="1895.9585">
			<stop  offset="0" style="stop-color:#FF928E"/>
			<stop  offset="1" style="stop-color:#FEB3B1"/>
		</linearGradient>
		<path class="st60" d="M1212.1,1639.3c0,0,46.2,106,49.3,161.7c3.1,55.7,15.1,91.8-49.3,103c-64.3,11.2-118.6-20.8-147.9-76.3
			c0,0-46-85.4-35.7-120.4C1038.8,1672.3,1212.1,1639.3,1212.1,1639.3z"/>
		<linearGradient id="SVGID_53_" gradientUnits="userSpaceOnUse" x1="1036.0499" y1="1572.7942" x2="1281.7949" y2="1889.1903">
			<stop  offset="0" style="stop-color:#020039"/>
			<stop  offset="1" style="stop-color:#090056"/>
		</linearGradient>
		<path class="st61" d="M1086.2,1787.8l3.7-1.6c4.7-2.1,6.7-7.6,4.3-12.1c-9.1-17.5-26.8-57.7-3.9-67.1
			c29.4-12.1,146.1-35.9,171.3-77.3c24.2-39.8,2.8-91.1-29.5-105.7c-2.2-1-4.7-0.2-5.8,1.9l-2.7,5.1c-1.8,3.5-7,3-8.1-0.8l0,0
			c-1-3.6-5.9-4.3-7.9-1.1c-7.7,12.4-28.6,32.5-84.5,42.8c-79.4,14.7-131.9,46.8-133.2,101.6c-0.1,3.5-3.8,5.4-6.8,3.6
			c-5.9-3.6-15.2-5.2-27.8,5.3c-21.8,18.3-12.9,65.9,34.9,105c2.3,1.9,2.3,5.4-0.2,7c-8.7,5.6-21.6,19.1,11.9,37
			c34.6,18.5,60.5,17,70.4,15.3c2.5-0.4,4.1-2.8,3.5-5.3l-10.6-48.2c-0.6-2.7,1.5-5.3,4.3-5.3H1086.2z"/>
		<linearGradient id="SVGID_54_" gradientUnits="userSpaceOnUse" x1="1319.4316" y1="1509.5468" x2="1000.2686" y2="1852.3514">
			<stop  offset="0" style="stop-color:#FF928E"/>
			<stop  offset="1" style="stop-color:#FEB3B1"/>
		</linearGradient>
		<path class="st62" d="M1088.2,1798c0,0-17.6-67.7-48-48.7c-30.4,19,15.8,75.9,40.2,78.4L1088.2,1798z"/>
	</g>
	<linearGradient id="SVGID_55_" gradientUnits="userSpaceOnUse" x1="1600.2354" y1="2319.0161" x2="1742.0854" y2="2664.7756">
		<stop  offset="0" style="stop-color:#FF928E"/>
		<stop  offset="1" style="stop-color:#FEB3B1"/>
	</linearGradient>
	<path class="st63" d="M1620.7,2497.4c0,0,62.5,61.2,74.6,52.3c4.3-3.2,15.1-14.7,25.6-27.5c7.4-9,8.2-21.8,1.8-31.6l-14.8-22.8
		c-14.1-21.7-44.2-26.2-63.6-9.3C1634.6,2467.1,1625.7,2479.5,1620.7,2497.4z"/>
	<linearGradient id="SVGID_56_" gradientUnits="userSpaceOnUse" x1="2411.8506" y1="2283.0181" x2="3374.0186" y2="2795.252">
		<stop  offset="0" style="stop-color:#FE7062"/>
		<stop  offset="1" style="stop-color:#FF928E"/>
	</linearGradient>
	<path class="st64" d="M2606.3,2941.6c0,0-0.4-274.9-160.2-558.7c-50-88.8-67.8-192.1-52.2-292.8l17.5-113.1
		c0,0,219.3-74.2,462.4-3.1c0,0,337.1,278.2,111.8,989.8L2606.3,2941.6z"/>
	<linearGradient id="SVGID_57_" gradientUnits="userSpaceOnUse" x1="2572.4688" y1="1547.4333" x2="2572.4688" y2="2173.9397">
		<stop  offset="0" style="stop-color:#FF928E"/>
		<stop  offset="1" style="stop-color:#FEB3B1"/>
	</linearGradient>
	<path class="st65" d="M2448.7,1832.7l56.9,136.6c3.6,8.6,11.4,14.8,20.6,16.4c32.8,5.6,112.1,14.4,164.2-19.8
		c6.2-4.1,7.8-12.5,3.5-18.6l-105.1-150.8L2448.7,1832.7z"/>
	<g>
		<path class="st2" d="M2589,2474.8c-7.8,2.1-11.7,10.9-8,18l164.5,315.5c2.8,5.3,8.9,8,14.7,6.3l538.2-155.4
			c6.7-1.9,10.6-8.9,8.6-15.6l-92.7-320.9c-1.9-6.6-8.7-10.5-15.4-8.7L2589,2474.8z"/>
		<linearGradient id="SVGID_58_" gradientUnits="userSpaceOnUse" x1="2613.5217" y1="2558.6816" x2="3308.2026" y2="2558.6816">
			<stop  offset="0" style="stop-color:#DAE3FE"/>
			<stop  offset="1" style="stop-color:#E9EFFD"/>
		</linearGradient>
		<path class="st66" d="M2623.7,2437.7c-7.7,1.8-12.1,10-9.3,17.4l131.7,357.7c2.4,6.5,9.4,10.1,16.1,8.1l536.5-154.9
			c6.7-1.9,10.7-8.7,9.3-15.5l-74.4-344.3c-1.6-7.2-8.8-11.8-16-10.1L2623.7,2437.7z"/>
		<linearGradient id="SVGID_59_" gradientUnits="userSpaceOnUse" x1="2971.7896" y1="2489.6729" x2="3119.4602" y2="3151.8826">
			<stop  offset="0" style="stop-color:#09005D"/>
			<stop  offset="1" style="stop-color:#1A0F91"/>
		</linearGradient>
		<path class="st67" d="M2670.4,2401.6c-9.4,1.4-15.6,10.6-13.5,19.8l89.4,386.2c2.1,9.1,11.4,14.6,20.4,12l528.4-152.6
			c8.5-2.5,13.5-11.2,11.3-19.8l-81.3-315.2c-2.1-8.1-10-13.3-18.3-12.1L2670.4,2401.6z"/>
	</g>
	<linearGradient id="SVGID_60_" gradientUnits="userSpaceOnUse" x1="2533.4255" y1="2054.6531" x2="3495.593" y2="2566.8865">
		<stop  offset="0" style="stop-color:#FE7062"/>
		<stop  offset="1" style="stop-color:#FF928E"/>
	</linearGradient>
	<path class="st68" d="M3098.2,2548.9c41-309.8-197.7-548-197.7-548l-142,165.6c107.8,134.4,159.1,257.6,182.5,354.3
		C2972,2511.7,3046.7,2497.4,3098.2,2548.9z"/>
	<linearGradient id="SVGID_61_" gradientUnits="userSpaceOnUse" x1="2701.8298" y1="2264.9165" x2="2997.4458" y2="2422.2949">
		<stop  offset="0" style="stop-color:#E1473D"/>
		<stop  offset="1" style="stop-color:#E9605A"/>
	</linearGradient>
	<path class="st69" d="M2940.9,2524.4c-1.6,0-3.1-1.1-3.5-2.8c-29-120-90.2-238.7-181.8-352.9c-1.3-1.6-1-3.8,0.6-5.1
		c1.6-1.3,3.9-1,5.1,0.6c92.3,115,153.9,234.7,183.2,355.8c0.5,1.9-0.7,3.9-2.7,4.4C2941.5,2524.4,2941.2,2524.4,2940.9,2524.4z"/>
	<linearGradient id="SVGID_62_" gradientUnits="userSpaceOnUse" x1="3014.6797" y1="2563.3823" x2="2789.7129" y2="2996.0115">
		<stop  offset="0" style="stop-color:#FF928E"/>
		<stop  offset="1" style="stop-color:#FEB3B1"/>
	</linearGradient>
	<path class="st70" d="M2940.9,2520.8c21.8,89.9,19.5,157,16.2,189c-1.2,12.1-11,21.5-23.1,22.4c-13.8,1-32.5,2.2-49.2,3.2
		c-18.4,1.1-38.8-10.6-52.5-20.3c-7-5-16,2.8-12.1,10.4c10.2,19.9,36,37.7,53.9,48.1c6.5,3.8,5.3,13.5-2,15.5l-76.2,21.6
		c125.2,118,207.9-14,207.9-14c55.3-85.4,83.9-168.9,94.3-247.8C3046.7,2497.4,2972,2511.7,2940.9,2520.8z"/>
	<g>
		<linearGradient id="SVGID_63_" gradientUnits="userSpaceOnUse" x1="2742.0303" y1="1759.511" x2="2437.6431" y2="1738.8245">
			<stop  offset="0" style="stop-color:#FF928E"/>
			<stop  offset="1" style="stop-color:#FEB3B1"/>
		</linearGradient>
		<path class="st71" d="M2507.5,1623.7c-2.4,2.2-100.8,195.5-100.8,195.5l111.5,53.8l120.5-169.3
			C2638.7,1703.7,2547.5,1586,2507.5,1623.7z"/>
		<linearGradient id="SVGID_64_" gradientUnits="userSpaceOnUse" x1="2375.7356" y1="1730.1324" x2="2703.561" y2="1730.1324">
			<stop  offset="0" style="stop-color:#09005D"/>
			<stop  offset="1" style="stop-color:#1A0F91"/>
		</linearGradient>
		<path class="st72" d="M2588.1,1724l-55.6,92.7c-0.8,1.4-1.8,2.7-3.1,3.8c-6.6,6.2-29.3,24.1-46.8-0.3
			c-14.9-20.8-28.9-39.7-43.9-47.5c-8.8-4.6-19.6-0.9-24,7.9c-9.2,18.2-26.9,55.2-38.1,90.3c-2.8,8.8,1.7,18.3,10.3,21.7
			c22.6,9.2,67.2,25.7,106.8,31.2c6.5,0.9,12.9-1.8,16.8-7.2c17-23.3,65.1-88.6,81.5-104.9c15.2-15.2,43.3-9.5,56-5.8
			c4.8,1.4,9.9,0.7,14.2-1.9c12.9-7.7,35.3-27,14.8-59.6c-5.1-8.1-2.5-18.9,5.5-24.2c14.3-9.4,29.9-27.2,15.1-55.8
			c-15-29-41.8-31.7-60.1-29.4c-8.1,1-16.3-3.3-19.4-10.8c-1.4-3.3-4.1-6.2-9.2-7.2c-9.6-1.9-15.9-10.7-14-20.3
			c3.2-16.4,0.8-37.8-25.4-52.2c-48.1-26.5-90.3,16.7-101,53c-10.7,36.4,43.1,62.1,76.9,66.4c24.9,3.2,38.5,30.3,44,44.5
			C2591.4,1713.5,2590.9,1719.3,2588.1,1724z"/>
		
			<linearGradient id="SVGID_65_" gradientUnits="userSpaceOnUse" x1="3470.5425" y1="4832.6499" x2="3670.1052" y2="4627.9038" gradientTransform="matrix(-0.6854 -0.7281 -0.7281 0.6854 8497.2715 1318.7853)">
			<stop  offset="0" style="stop-color:#FF928E"/>
			<stop  offset="1" style="stop-color:#FEB3B1"/>
		</linearGradient>
		<path class="st73" d="M2571.1,1845.8c0,0,21.4-62.6,48.8-60.3c27.4,2.3,49,29.6,15,60.3
			C2592.7,1883.9,2571.1,1845.8,2571.1,1845.8z"/>
	</g>
	<linearGradient id="SVGID_66_" gradientUnits="userSpaceOnUse" x1="1123.3541" y1="2759.4119" x2="1132.5826" y2="3213.9204">
		<stop  offset="0" style="stop-color:#020039"/>
		<stop  offset="1" style="stop-color:#090056"/>
	</linearGradient>
	<path class="st74" d="M1763.1,2972.8c0,16-13,29-29,29H554.2c-24.4,0-44.1-19.8-44.1-44.1l-18.6-21.6l1225.2-10.5
		C1742.4,2926,1763.1,2947,1763.1,2972.8L1763.1,2972.8z"/>
	<linearGradient id="SVGID_67_" gradientUnits="userSpaceOnUse" x1="2504.0679" y1="2731.3777" x2="2513.2971" y2="3185.9265">
		<stop  offset="0" style="stop-color:#020039"/>
		<stop  offset="1" style="stop-color:#090056"/>
	</linearGradient>
	<path class="st75" d="M1872.8,2972.8c0,16,13,29,29,29h1179.9c24.4,0,44.1-19.8,44.1-44.1l18.6-21.6l-1225.2-10.5
		C1893.5,2926,1872.8,2947,1872.8,2972.8L1872.8,2972.8z"/>
	<g>
		<g>
			<linearGradient id="SVGID_68_" gradientUnits="userSpaceOnUse" x1="162.875" y1="2691.1484" x2="291.0031" y2="2542.4285">
				<stop  offset="0" style="stop-color:#E1473D"/>
				<stop  offset="1" style="stop-color:#E9605A"/>
			</linearGradient>
			<circle class="st76" cx="293.6" cy="2539.4" r="95.5"/>
			<linearGradient id="SVGID_69_" gradientUnits="userSpaceOnUse" x1="363.4036" y1="2433.9575" x2="-15.4744" y2="3006.3342">
				<stop  offset="0" style="stop-color:#FE7062"/>
				<stop  offset="1" style="stop-color:#FF928E"/>
			</linearGradient>
			<circle class="st77" cx="293.6" cy="2539.4" r="92.3"/>
			<path class="st30" d="M217.4,2504.7c-0.5,0-1.1-0.1-1.6-0.4c-1.8-0.9-2.5-3-1.6-4.8c15.2-30.1,45.6-48.9,79.3-48.9
				c5.4,0,10.8,0.5,16,1.4c1.9,0.4,3.2,2.2,2.9,4.2c-0.4,1.9-2.2,3.2-4.2,2.9c-4.8-0.9-9.8-1.3-14.7-1.3c-31,0-59,17.2-72.9,44.9
				C220,2503.9,218.8,2504.7,217.4,2504.7z"/>
			
				<ellipse transform="matrix(0.7071 -0.7071 0.7071 0.7071 -1710.4871 953.3925)" class="st30" cx="295.6" cy="2541.4" rx="78.2" ry="78.2"/>
			<g>
				<linearGradient id="SVGID_70_" gradientUnits="userSpaceOnUse" x1="352.1013" y1="2450.3582" x2="150.3569" y2="2789.0537">
					<stop  offset="0" style="stop-color:#FE7062"/>
					<stop  offset="1" style="stop-color:#FF928E"/>
				</linearGradient>
				<path class="st78" d="M287.9,2599.5v-8.5c-8.9-0.4-17.6-2.4-23.9-5.2c-2.2-1-3.4-3.5-2.7-5.8l2.2-7.9c0.8-2.9,4-4.4,6.7-3.2
					c6.2,2.6,13.8,4.6,22,4.6c8.5,0,14.9-2.9,14.9-8.8c0-5.4-4.9-8.5-16.8-11.7c-16.9-4.6-29.1-12-29.1-26.9
					c0-13.5,9.8-23.7,26.9-26.5v-8.5c0-2.7,2.2-5,5-5h5c2.7,0,5,2.2,5,5v7.6c8.2,0.3,14.2,1.7,18.9,3.4c2.4,0.9,3.8,3.5,3.1,6
					l-2,7.3c-0.8,2.8-3.8,4.4-6.5,3.3c-4.4-1.6-10.5-3.4-18.5-3.4c-10.1,0-13,4.2-13,8c0,4.6,6.1,7.8,19.2,11.9
					c18.8,5.6,26.6,13.5,26.6,27.5c0,12.9-9.6,24.5-28.1,27.4v9.5c0,2.7-2.2,5-5,5h-5C290.2,2604.5,287.9,2602.3,287.9,2599.5z"/>
			</g>
		</g>
		<g>
			<linearGradient id="SVGID_71_" gradientUnits="userSpaceOnUse" x1="337.9485" y1="2690.269" x2="560.9971" y2="2431.3735">
				<stop  offset="0" style="stop-color:#E1473D"/>
				<stop  offset="1" style="stop-color:#E9605A"/>
			</linearGradient>
			<circle class="st79" cx="565.5" cy="2426.1" r="166.3"/>
			<linearGradient id="SVGID_72_" gradientUnits="userSpaceOnUse" x1="687.0343" y1="2242.5444" x2="27.4733" y2="3238.9531">
				<stop  offset="0" style="stop-color:#FE7062"/>
				<stop  offset="1" style="stop-color:#FF928E"/>
			</linearGradient>
			<circle class="st80" cx="565.5" cy="2426.1" r="160.8"/>
			<path class="st30" d="M432.9,2363c-0.5,0-1.1-0.1-1.6-0.4c-1.8-0.9-2.5-3-1.6-4.8c26-51.6,78-83.6,135.8-83.6
				c9.2,0,18.4,0.8,27.4,2.5c1.9,0.4,3.2,2.2,2.9,4.2c-0.4,1.9-2.2,3.2-4.2,2.9c-8.6-1.6-17.4-2.4-26.1-2.4
				c-55,0-104.6,30.5-129.4,79.7C435.5,2362.2,434.2,2363,432.9,2363z"/>
			<circle class="st30" cx="569" cy="2429.6" r="136.1"/>
			<g>
				<linearGradient id="SVGID_73_" gradientUnits="userSpaceOnUse" x1="667.3588" y1="2271.0947" x2="316.1562" y2="2860.7058">
					<stop  offset="0" style="stop-color:#FE7062"/>
					<stop  offset="1" style="stop-color:#FF928E"/>
				</linearGradient>
				<path class="st81" d="M555.7,2530.8V2516c-15.4-0.6-30.7-4.3-41.5-9c-3.9-1.7-5.8-6-4.7-10.1l3.8-13.8c1.4-5.1,6.9-7.7,11.7-5.6
					c10.8,4.5,24,8.1,38.4,8.1c14.9,0,25.9-5,25.9-15.4c0-9.3-8.6-14.9-29.2-20.4c-29.5-8.1-50.6-20.9-50.6-46.9
					c0-23.4,17.1-41.3,46.9-46.1V2342c0-4.8,3.9-8.6,8.6-8.6h8.7c4.8,0,8.6,3.9,8.6,8.6v13.3c14.3,0.6,24.7,3,32.9,5.9
					c4.2,1.5,6.5,6,5.4,10.4l-3.5,12.8c-1.3,4.9-6.6,7.6-11.4,5.8c-7.6-2.9-18.3-5.9-32.3-5.9c-17.6,0-22.7,7.3-22.7,13.9
					c0,8.1,10.6,13.6,33.5,20.7c32.8,9.8,46.4,23.4,46.4,47.9c0,22.4-16.6,42.6-48.9,47.6v16.6c0,4.8-3.9,8.6-8.6,8.6h-8.7
					C559.5,2539.4,555.7,2535.6,555.7,2530.8z"/>
			</g>
		</g>
		<g>
			<linearGradient id="SVGID_74_" gradientUnits="userSpaceOnUse" x1="446.0368" y1="3069.3457" x2="675.5513" y2="2802.9451">
				<stop  offset="0" style="stop-color:#E1473D"/>
				<stop  offset="1" style="stop-color:#E9605A"/>
			</linearGradient>
			<circle class="st82" cx="680.2" cy="2797.6" r="171.1"/>
			<linearGradient id="SVGID_75_" gradientUnits="userSpaceOnUse" x1="805.2418" y1="2608.6423" x2="126.5617" y2="3633.9343">
				<stop  offset="0" style="stop-color:#FE7062"/>
				<stop  offset="1" style="stop-color:#FF928E"/>
			</linearGradient>
			<circle class="st83" cx="680.2" cy="2797.6" r="165.4"/>
			<path class="st30" d="M543.8,2732.4c-0.5,0-1.1-0.1-1.6-0.4c-1.8-0.9-2.5-3-1.6-4.8c26.8-53,80.3-86,139.6-86
				c9.5,0,19,0.9,28.2,2.5c1.9,0.4,3.2,2.2,2.9,4.2c-0.4,1.9-2.2,3.2-4.2,2.9c-8.8-1.6-17.9-2.4-26.9-2.4
				c-56.6,0-107.7,31.4-133.2,82C546.4,2731.7,545.1,2732.4,543.8,2732.4z"/>
			
				<ellipse transform="matrix(0.7071 -0.7071 0.7071 0.7071 -1780.4474 1303.9569)" class="st30" cx="683.8" cy="2801.2" rx="140" ry="140"/>
			<g>
				<linearGradient id="SVGID_76_" gradientUnits="userSpaceOnUse" x1="784.9962" y1="2638.02" x2="423.6124" y2="3244.7234">
					<stop  offset="0" style="stop-color:#FE7062"/>
					<stop  offset="1" style="stop-color:#FF928E"/>
				</linearGradient>
				<path class="st84" d="M670.1,2905.3V2890c-15.9-0.6-31.6-4.4-42.7-9.3c-4-1.7-6-6.2-4.9-10.4l3.9-14.2c1.4-5.2,7.1-7.9,12.1-5.8
					c11.1,4.6,24.7,8.3,39.5,8.3c15.3,0,26.7-5.2,26.7-15.8c0-9.6-8.8-15.3-30.1-21c-30.3-8.3-52.1-21.5-52.1-48.2
					c0-24.1,17.6-42.5,48.2-47.4V2711c0-4.9,4-8.9,8.9-8.9h8.9c4.9,0,8.9,4,8.9,8.9v13.7c14.7,0.6,25.4,3.1,33.9,6.1
					c4.3,1.5,6.7,6.2,5.5,10.7l-3.6,13.1c-1.4,5.1-6.8,7.8-11.7,6c-7.8-3-18.9-6-33.2-6c-18.1,0-23.3,7.5-23.3,14.3
					c0,8.3,10.9,14,34.5,21.3c33.7,10.1,47.7,24.1,47.7,49.3c0,23.1-17.1,43.8-50.3,49v17c0,4.9-4,8.9-8.9,8.9h-9
					C674,2914.1,670.1,2910.2,670.1,2905.3z"/>
			</g>
		</g>
		<g>
			<linearGradient id="SVGID_77_" gradientUnits="userSpaceOnUse" x1="728.1401" y1="2763.6089" x2="896.3037" y2="2568.4192">
				<stop  offset="0" style="stop-color:#E1473D"/>
				<stop  offset="1" style="stop-color:#E9605A"/>
			</linearGradient>
			<circle class="st85" cx="899.7" cy="2564.5" r="125.4"/>
			<linearGradient id="SVGID_78_" gradientUnits="userSpaceOnUse" x1="521.9589" y1="2621.0469" x2="1021.3623" y2="2546.2571">
				<stop  offset="0" style="stop-color:#FE7062"/>
				<stop  offset="1" style="stop-color:#FF928E"/>
			</linearGradient>
			<circle class="st86" cx="899.7" cy="2564.5" r="121.2"/>
			<path class="st30" d="M799.8,2517.7c-0.5,0-1.1-0.1-1.6-0.4c-1.8-0.9-2.5-3-1.6-4.8c19.8-39.2,59.3-63.5,103.1-63.5
				c7,0,14,0.6,20.8,1.9c1.9,0.4,3.2,2.2,2.9,4.2c-0.4,2-2.2,3.2-4.2,2.9c-6.4-1.2-13-1.8-19.5-1.8c-41.1,0-78.2,22.8-96.7,59.6
				C802.3,2517,801.1,2517.7,799.8,2517.7z"/>
			
				<ellipse transform="matrix(0.9436 -0.331 0.331 0.9436 -798.8683 443.3948)" class="st30" cx="902.3" cy="2567.1" rx="102.6" ry="102.6"/>
			<g>
				<linearGradient id="SVGID_79_" gradientUnits="userSpaceOnUse" x1="976.4931" y1="2447.5801" x2="711.7108" y2="2892.106">
					<stop  offset="0" style="stop-color:#FE7062"/>
					<stop  offset="1" style="stop-color:#FF928E"/>
				</linearGradient>
				<path class="st87" d="M892.3,2643.4v-11.2c-11.6-0.5-23.1-3.2-31.3-6.8c-2.9-1.3-4.4-4.6-3.6-7.6l2.8-10.4
					c1-3.8,5.2-5.8,8.8-4.3c8.1,3.4,18.1,6.1,28.9,6.1c11.2,0,19.6-3.8,19.6-11.6c0-7-6.5-11.2-22-15.4
					c-22.2-6.1-38.2-15.8-38.2-35.3c0-17.7,12.9-31.1,35.3-34.8V2501c0-3.6,2.9-6.5,6.5-6.5h6.6c3.6,0,6.5,2.9,6.5,6.5v10
					c10.8,0.4,18.6,2.3,24.8,4.5c3.2,1.1,4.9,4.6,4,7.8l-2.6,9.6c-1,3.7-5,5.7-8.6,4.4c-5.7-2.2-13.8-4.4-24.3-4.4
					c-13.3,0-17.1,5.5-17.1,10.4c0,6.1,8,10.3,25.3,15.6c24.7,7.4,34.9,17.7,34.9,36.1c0,16.9-12.5,32.1-36.8,35.9v12.5
					c0,3.6-2.9,6.5-6.5,6.5h-6.6C895.2,2649.9,892.3,2647,892.3,2643.4z"/>
			</g>
		</g>
	</g>
	<g>
		<path class="st5" d="M2868.2,2109.4c-8.3-2.8-7.1-14.9,1.6-16.1c39.5-5.1,97.5-20.6,116.5-67c29.8-72.8-31.9-353.4,251.4-403.6
			c261.4-46.3,407,36.4,403.6,277.9C3638.1,2134.8,3261.9,2244.5,2868.2,2109.4z"/>
		<g>
			<rect x="3069.9" y="1850.2" class="st2" width="25.4" height="198.4"/>
			<rect x="3112.2" y="1918.4" class="st2" width="25.4" height="130.2"/>
			<rect x="3154.6" y="1749.8" class="st2" width="25.4" height="298.7"/>
			<rect x="3197" y="1976.8" class="st2" width="25.4" height="71.8"/>
			<rect x="3239.3" y="1789.8" class="st2" width="25.4" height="258.8"/>
			<rect x="3281.7" y="1834.6" class="st2" width="25.4" height="214"/>
			<rect x="3324.1" y="1883.3" class="st2" width="25.4" height="165.3"/>
			<rect x="3366.4" y="1689.5" class="st2" width="25.4" height="359.1"/>
			<rect x="3408.8" y="1727.4" class="st2" width="25.4" height="321.1"/>
			<rect x="3451.1" y="1784.9" class="st2" width="25.4" height="263.6"/>
			<rect x="3493.5" y="1983.5" class="st2" width="25.4" height="65.1"/>
		</g>
	</g>
</g>
</svg>
