<?xml version="1.0" encoding="utf-8"?>
<!-- Generator: Adobe Illustrator 23.0.1, SVG Export Plug-In . SVG Version: 6.00 Build 0)  -->
<svg version="1.1" id="Capa_1" xmlns="http://www.w3.org/2000/svg" xmlns:xlink="http://www.w3.org/1999/xlink" x="0px" y="0px"
	 viewBox="0 0 948.2 849.4" style="enable-background:new 0 0 948.2 849.4;" xml:space="preserve">
<style type="text/css">
	.st0{fill:#DAE1FC;}
	.st1{fill:#1D49B6;}
	.st2{fill:#FEFBF2;}
	.st3{fill:#FBF7FB;}
	.st4{fill:#FEFD7E;}
	.st5{fill:#9BB0FE;}
	.st6{fill:#072C3F;}
	.st7{fill:#D7DFFB;}
	.st8{fill:#FEF26A;}
	.st9{fill:#FE5801;}
	.st10{fill:#51BDA2;}
	.st11{fill:#0A5C5C;}
	.st12{fill:#EA4C02;}
	.st13{fill:#51BDA3;}
	.st14{fill:#52BDA3;}
	.st15{fill:#0D5E5F;}
	.st16{fill:#0D605F;}
	.st17{fill:#FD5702;}
	.st18{fill:#F1F4FD;}
	.st19{fill:#FCFCFE;}
	.st20{fill:#F15002;}
	.st21{fill:#FEEC5F;}
	.st22{fill:#116764;}
	.st23{fill:#1A736C;}
	.st24{fill:#286E71;}
	.st25{fill:#FEEE64;}
	.st26{fill:#FDEC63;}
	.st27{fill:#528D94;}
	.st28{fill:#2A6E71;}
	.st29{fill:#C8D2ED;}
	.st30{fill:#D3DBF0;}
	.st31{fill:#DDE3F3;}
	.st32{fill:#A7B8E2;}
	.st33{fill:#C6D1EC;}
	.st34{fill:#E6EBF6;}
	.st35{fill:#B1C0E6;}
	.st36{fill:#D0D9EF;}
	.st37{fill:#F1F3FA;}
	.st38{fill:#A5B6E1;}
	.st39{fill:#96AADD;}
	.st40{fill:#B8C6E8;}
	.st41{fill:#DFE6F5;}
	.st42{fill:#B2C1E6;}
	.st43{fill:#F3F5FA;}
	.st44{fill:#E5EAF6;}
	.st45{fill:#E3E9F5;}
	.st46{fill:#A1B3E0;}
	.st47{fill:#F0F3FA;}
	.st48{fill:#8AA1D9;}
	.st49{fill:#B7C5E8;}
	.st50{fill:#9FB1E0;}
	.st51{fill:#ECF0F8;}
	.st52{fill:#EBEFF8;}
	.st53{fill:#7791D3;}
	.st54{fill:#F4F5FB;}
	.st55{fill:#F66B0B;}
	.st56{fill:#1E49B6;}
	.st57{fill:#DCDCDB;}
	.st58{fill:#E0E0DE;}
	.st59{fill:#133546;}
	.st60{fill:#E7E6E2;}
	.st61{fill:#E7ECFD;}
	.st62{fill:#FEF577;}
	.st63{fill:#FEF36E;}
	.st64{fill:#FEF16A;}
	.st65{fill:#FEF36D;}
	.st66{fill:#FEF169;}
	.st67{fill:#FEF26B;}
	.st68{fill:#FEEF65;}
	.st69{fill:#EF4F02;}
	.st70{fill:#ED4E02;}
	.st71{fill:#FEF26C;}
	.st72{fill:#FEEE63;}
	.st73{fill:#FEED60;}
	.st74{fill:#FEEC60;}
	.st75{fill:#FEFED6;}
	.st76{fill:#FEEB5E;}
	.st77{fill:#FEEC5E;}
	.st78{fill:#FEED62;}
	.st79{fill:#FEEE62;}
	.st80{fill:#FEED61;}
	.st81{fill:#FEFB7A;}
	.st82{fill:#FEEF64;}
	.st83{fill:#FEEB5D;}
	.st84{fill:#FEF066;}
	.st85{fill:#FEEF66;}
	.st86{fill:#FEF067;}
	.st87{fill:#FEFB7C;}
	.st88{fill:#EC4D02;}
	.st89{fill:#D8E0FA;}
	.st90{fill:#6996A1;}
	.st91{fill:#1A746D;}
	.st92{fill:#D3DDF6;}
	.st93{fill:#3D7D84;}
	.st94{fill:#3B7B82;}
	.st95{fill:#61939E;}
	.st96{fill:#ED4D02;}
	.st97{fill:#1C766F;}
	.st98{fill:#176F69;}
	.st99{fill:#166C68;}
	.st100{fill:#6D83F2;}
	.st101{fill:#FEFAFE;}
	.st102{fill:#6C83F1;}
	.st103{fill:#FDF9FD;}
	.st104{fill:#406A78;}
	.st105{fill:#080504;}
	.st106{fill:#FEF570;}
	.st107{fill:#5B73F7;}
	.st108{fill:#446E7B;}
	.st109{fill:#47717E;}
	.st110{fill:#396371;}
	.st111{fill:#0D0D0D;}
	.st112{fill:#FBF370;}
	.st113{fill:#47727E;}
	.st114{fill:#833601;}
	.st115{fill:#FEFD7F;}
	.st116{fill:#1B6769;}
	.st117{fill:#6C80FE;}
	.st118{fill:#5972F7;}
	.st119{fill:#EE4E02;}
	.st120{fill:#E94B02;}
	.st121{fill:#5871F7;}
</style>
<g>
	<path class="st0" d="M153.3,539.3c-15.8-19.7-28.9-41-36.9-65c-8-23.9-13.5-48.4-16.3-73.5c-2.3-20.3-3.4-40.7-2.7-61.1
		c0.8-23,3.9-45.8,8.2-68.4c3.8-20.5,9.7-40.3,17.7-59.4c2-2,4.6-1.6,7-1.6c10.4-0.1,20.9-0.2,31.3,0c7.7,0.2,15.2-1.5,22.8-1.1
		c2.1,0.1,4.3-0.1,6.4,0.5c3.3,1.5,1.8,4.3,1.6,6.6c-2.2,18.3-1,36.3,4.8,53.7c14.8,44.5,44.7,73.4,90,86.1
		c6.6,1.8,13.2,3.5,20.1,3.8c2.6,0.8,5.3,0.5,7.9,0.5c1.4,0.1,2.7-0.1,4.1,0c2.5,0.1,4.9,0.1,7.4,0c1.9-0.1,3.7-0.8,5.6-0.9
		c12.3-0.4,23.9-4.2,35.3-8.4c2.1-0.5,4-1.4,6-2.3c1.6-0.5,3-0.6,3.7,1.3c0.8,2.4,0.6,4.9,0.6,7.4c0,57.6,0,115.2,0,172.8
		c0,3.4,0.7,7.1-2.2,9.9c-2.1,1.3-4.5,1.2-6.8,1.2c-28.1,0-56.2,0-84.3-0.1c-11.1-0.1-22.3,0.1-33.4,0.1c-2.6,0-5.4,0.4-7.4-2
		c-1.3-2.8-1-5.7-0.9-8.6c0.1-9.5-0.3-19,0-28.5c0-2.7-0.1-5.4,0-8.2c-0.1-4.4,0-8.9,0-13.3c-0.1-6.1-0.3-6.2-6.5-6.5
		c-2.3,0.1-4.6,0-6.9-0.1c-3.7-0.2-7.5,0.6-11.1-0.5c-2.9-2.6,0.9-3.3,1.4-4.9c1.6-1.9,3-4,5.7-4.6c1.7,0,3.1,1,4.7,1.4
		c4.8,1.4,9.5-1.5,10.4-6.4c0.8-4.4-2.8-9.2-7.3-9.6c-4.8-0.4-8.6,3.1-8.7,8c-0.1,1.7,0.4,3.3,0.4,4.9c-0.9,2.6-3.7,3.6-5,5.8
		c-1.4,1.7-2.8,3.4-4.1,5.1c-1.3,0.5-2.6,0.4-3.8-0.5c-1.3-10.4-3.9-20.8,2.4-30.8c3.3-5.2,6-10.7,10-15.4c0.6-0.5,1.1-1.1,1.9-1.4
		c1.7-0.3,3.2,0.6,4.8,1c7.7,1.9,14.4-2.1,16.4-9.9c1.6-6.5-2.5-13-9.3-14.9c-6.9-1.9-13.8,2.1-16,9.2c-0.9,3.1-0.2,5.9,1.1,8.7
		c0.8,1.8,2.2,3.4,1.8,5.6c-0.1,0.5-0.4,1-0.7,1.4c-3.5,4.7-6.8,9.4-9.7,14.5c-0.7,1.2-1.4,3-3.2,2.5c-1.4-0.4-1.5-2.1-1.5-3.4
		c0-8-0.4-15.9,0.5-23.9c0.8-7.7,0.7-15.6,1.8-23.3c0.2-1.5,0-3,1.2-4.2c1.8-1.6,4-1.2,6.2-1.4c8.7-0.8,15.4-8.1,15.3-16.8
		c-0.1-8.9-7.1-16.2-16-16.5c-8.7-0.3-14.5,3.5-17.3,11.3c-2.5,7.1-0.1,14.3,6.5,19.3c1.4,1.1,3.2,1.9,3.9,3.7
		c0,8.9-1.2,17.7-2,26.5c-0.3,0.5-0.7,0.8-1.2,1c-1.3-0.5-1.6-1.7-1.7-2.8c-0.4-6-3.9-8.9-9.7-9.4c-0.5,0-0.9-0.3-1.4-0.5
		c-0.7-0.5-1.3-1.1-1.5-1.9c-1.8-10.8-5.8-20.9-9-31.3c0.2-2.5,2.4-3.5,3.9-4.9c14.3-13.3,9.9-36.1-8.4-42.6
		c-9.8-3.5-19.3-1.9-26.7,5.9c-7.4,7.9-9.9,17.2-5.4,27.6c4.2,9.8,11.6,15.2,22.4,15.5c2.8,0.1,5.7,0.1,8.4-0.7
		c1.8-0.5,3.6-0.8,5.1,0.8c5.1,10,7.9,20.7,9.4,31.8c-0.2,1-0.7,1.8-1.2,2.7c-3.7,6.5-3.3,8.9,2.2,14c0.7,0.7,1.4,1.3,1.8,2.3
		c1.7,9.7,1.8,19.4,1.5,29.1c0,1.6,0.2,3.8-1.8,4.2c-1.6,0.3-2.4-1.6-3-2.9c-3.1-6-7.3-11.4-10.6-17.3c-0.3-0.5-0.4-1-0.4-1.5
		c0.6-2.5,2.5-4.3,3.4-6.6c2.4-6.6-1.3-14.5-7.9-16.7c-7-2.4-14,1.1-16.4,8.2c-2.3,7,1,13.8,7.8,16c3.8,1.2,7.6,0.1,11.4,0
		c0.5,0.1,1,0.3,1.4,0.5c6.9,9,11.9,18.9,15.9,29.4c0.7,1.9,1.3,3.8,0.6,5.8c-1.4,2.6-2.6,0.8-3.8-0.3c-3.8-3.4-8.2-5.9-13.1-7.3
		c-2.1-1.1-1.9-3.3-2.4-5.2c-1-4-3.5-6.4-7.7-6.7c-3.7-0.2-6.5,1.6-7.9,5c-1.5,3.6-0.7,7,2.4,9.4c3.3,2.6,6.8,2.4,10.2,0.1
		c1.5-1,2.7-2.6,4.7-2.6c4.7,1.1,9,3.2,12.6,6.5c1.5,1.4,2.7,2.7,0.1,4.2c-3.6,1.1-7.3,0.6-10.9,0.6c-14.4,0.1-14.4,0-14.4,14.7
		c0,14.2,0,28.3,0,42.5c0,2.3,0.2,4.7-0.6,6.9C165.2,541.7,157.9,542.2,153.3,539.3z"/>
	<path class="st1" d="M835.1,763c-30.1-23.5-58.7-48.6-83.3-79.4c-1.3,33.7-2.6,66.5-3.9,99.2c-4.4,2.9-9.4,1.8-14.1,1.3
		c-7.6-0.7-15.2-0.7-22.9-0.8c-2.3,0-4.7,0.2-6.5-1.7c-0.1-0.3-0.1-0.6-0.2-0.9c-1.6-2.7-1.5-5.8-1.5-8.8c0-3.7-1.6-5.6-5.4-5.5
		c-2.2,0-4.3,0-6.5,0c-97.5,0-195,0-292.5,0c-12.5,0-12.6-0.1-12.6-12.4c0-203.7,0-407.3,0.1-611c0-3.5-1.7-7.7,2.5-10.4
		c1.6,1.4,1.6,3.2,1.7,5.1c0.1,2.5,0.1,5,0.1,7.5c0,202.3,0,404.6,0,606.9c0,10,0,10,10.1,10c97.2,0,194.3,0,291.5,0
		c11.5,0,10.2,0.2,8.8-10.2c-2.6-20.5-5.7-40.9-8.1-61.5c-1.4-12.1-1.8-24.2-2.6-36.4c-1-15.3-1.7-30.6-2.7-45.9
		c-0.5-7.5-0.7-15-1-22.4c-0.4-11.5-1.7-22.9-1.3-34.4c0.2-5.8-1.3-11.6-0.9-17.4c0.1-2.2-0.1-4.3,0.8-6.4c1.3-1.9,3-1,4.5-0.6
		c18.5,5.7,37.2,6.2,56.2,3.8c8.4-1,16.7-2.8,25.1-4.1c3.5-0.2,4.1,2.4,4.4,4.9c0.6,4.9,3.2,8.2,7.4,10.5c1.8,1,4,0.8,6,1.5
		c-1.7-0.6-3.6-0.5-5.3-1.2c-6.9-3.1-8.7-9-8.6-15.9c4.7-2.2,9.7-3.9,14.9-4.4c2.6,1,1.5,3.3,1.6,5.1c0.2,2.4,0,4.9,0,7.4
		c0.3,3.4-0.6,6.9,0.6,10.3c0.6,3.7-1.1,7.3-0.6,11.1c0,2.9,0,5.8,0,8.7c-0.6,4.3-1.3,8.5-1,12.9c-1.5,6.2-1,12.8-2.8,19
		c-0.2,2.4-0.3,4.8-1.1,7.1c-0.3,2.4,0.2,5-1.6,7c1.8-2,1.3-4.5,1.6-6.9c0.7-2.3,0.8-4.7,1-7.1c1.7-6.2,1.3-12.8,2.8-19
		c-0.3-4.3,0.3-8.6,1-12.9c0-2.9,0-5.8,0-8.7c-0.8-3.9,1.6-7.8,0.2-11.7c-0.4-3.2-0.1-6.4-0.2-9.6c0-4.1,0-8.3,0-12.4
		c3.2-3.3,6.8-5.1,11.5-3.5c0.7,28.6-2.6,56.9-7.5,84.9c-3.4,19.6,1.1,36.4,11.1,52.7c14.6,23.8,33.6,43.8,53.5,63c2,2,4,4,6,6
		c-1.4,6-6,10.2-9.3,15c-5.3,7.8-11.8,14.8-18.5,21.4C837,762.6,836.3,763.4,835.1,763z"/>
	<path class="st2" d="M771.3,527.6c-23.6,5.5-47.3,7.9-71.4,3.8c-5.1-0.9-9.9-2.5-14.6-4.4c-4.8-1.1-7.7-4.6-8.2-10.8
		c-0.5-6.1-0.6-12.2,0.5-18.3c0.8-4.3-0.9-9,2-13c1.6-1.2,2.9,0,4,0.7c15.8,9.7,32.8,14.2,51.3,12.9c9.6-0.7,18.5-3.8,27-8.2
		c0.6-0.3-0.4-0.8,0.1-0.3c0.1,0.1,0,0.2-0.3,0.4c-23.4,12-46.7,10.4-70-0.4c-3.8-1.7-7.2-4.1-11-5.9c-2,0.5-3.4-0.7-4.9-1.8
		c-3.7-2.8-7.1-5.9-10.2-9.3c-1.2-1.3-2.4-2.7-1.8-4.8c5.3-6.7,8.3-14.5,9.9-22.8c0.3-1.7,0.4-3.7,2.4-4.6c1.3-0.4,2.6,0.1,3.8,0.5
		c2.4,0.8,2.6-0.6,3-2.5c1.8-7.4,1.3-15.1,2.6-20.3c-0.7,3.1-1,8.4-1.4,13.7c-0.1,1.4-0.1,3.1-1.7,3.9c-4.3,1.2-8.1,0.1-11.9-1.9
		c-2.2-2.2-0.7-4.6-0.4-7c0.2-1.8,0.8-3.9-1.5-4.6c-2.1-0.7-2.7,1.4-3.5,2.7c-3.6,6.3-4,6.4-10.3,2.5c-2.8-1.7-5.6-3.5-8.4-5.2
		c-20.3-17.1-26.4-39.8-25.4-65.2c0.1-2.4,0.6-4.6,3-5.9c7.6-0.6,14.7-2.7,21.4-6.2c1.2-0.6,2.5-1,3.9-0.4c2.1,1.7,2.4,4.3,3.3,6.6
		c4.5,11.7,11.9,20.5,24.4,23.7c7,1.7,14.2,1.1,21.4,0.2c2.1-0.3,4.2-1.1,6.4-0.6c2.1,1.3,2,3.7,2.5,5.7c1.6,5.9,2.5,12,3.9,18.4
		c2.5-1.9,3.7-4.3,5.5-6.2c3.5-3.5,5-3.5,7.9,0.4c0.4,0.5-0.1-0.1,0.3,0.4c4.9,6.8,4.9,6.8,10.6,0.3c5.6-6.4,10.5-13.3,16.5-19.3
		c2.5-1.8,4.8-0.3,7,0.7c20.5,9.8,33.6,26.1,40.9,47.3c2.1,6.1,4.6,12.1,4.4,18.7c1.1,8.8,2.2,17.7,3.3,26.5
		c1.7,13.2,2,26.4,1.6,39.7c-0.1,4.9-3.5,8-6.9,10.9c-4-0.2-7.2,2.4-10.9,3c-0.8,1-2.2,0-3,0.9c-4.4,2.1-9.1,3.2-13.8,4.2
		C773.6,527.7,772.3,526.8,771.3,527.6z"/>
	<path class="st3" d="M388.1,133.2c-0.9,1.6-0.4,3.3-0.4,4.9c0,207,0,413.9-0.1,620.9c0,4.6,1.1,5.7,5.7,5.7
		c101.5-0.1,203-0.1,304.4-0.2c5.2,0,6.9,1.6,6.6,6.4c-0.2,3.3-0.1,6.7-0.1,10c-2.1-1.4-4.5-1-6.8-1c-104.7,0-209.5,0-314.2,0
		c-6.8,0-6.8,0-6.8-6.7c0-40.5,0-80.9,0-121.4c-1.4-1.4-1.6-3.3-1.6-5.1c0-26.2-0.2-52.4,0.1-78.5c0.6-9.5-0.9-19.1,0.5-28.7
		c1-1.3,1-2.8,1-4.3c0-62.2-0.1-124.3-0.1-186.5c-2.1-2.4-1.5-5.4-1.5-8.1c0.1-32.3-0.1-64.6,0.1-96.9c0.3-39.4-0.3-78.9-0.1-118.3
		c0-3.2-0.9-6.8,2.3-9.3c2-1,4.2-0.9,6.4-0.9c43.4,0,86.8,0,130.3,0c2.7,0,5.3,0.1,7.7,1.6c62.3,0,124.7,0,187,0
		c2.3,0,4.7,0.5,6.8-1c1.1-0.2,2.3-0.5,3.4-0.6c7.9-0.4,9.3,1,9.4,9c0.1,6,0,12,0,18c0.1,5.5,0.5,6,6,6c13.6,0.1,27.3,0,40.9,0.1
		c2.6,0,5.4-0.5,7.5,1.7c-1.6,1.4-3.5,0.8-5.3,0.8c-15.3,0-30.7,0.1-46,0c-3.7,0-4.8,1-4.8,4.8c0.1,37.7,0.1,75.3,0,113
		c0,2.1,0.3,3.9,2,5.3c-0.9,11.7-0.2,23.5-0.5,35.2c-0.1,2.7,0.5,5.7-2.4,7.7c-3.8,0.9-7.2,3.6-11.4,2c-2-2.8-1.4-6.1-1.4-9.2
		c0-54.3,0-108.6,0-162.9c0-1,0-2,0-3c0-9.1,0-9.1-9-9.1c-101.9,0-203.8,0-305.8,0C394.6,134.4,391.2,134.9,388.1,133.2z"/>
	<path class="st0" d="M521.3,116.8c-48,0-96.1,0-144.1,0c-7.6-1.3-14.2-5.5-21.6-7.5c-44.2-11.9-83.9-3.2-119.3,25.7
		c-17.1,14-28.5,31.8-36.6,52.1c-0.7,1.8-1.3,3.8-3.2,4.9c-4.3-1.3-6.4-5.1-8.9-8.2c-6.9-8.2-13.2-9.6-22.7-4.4
		c-3.9,2.2-7.3,5.2-11.1,7.6c-4.5,2.8-9.2,2.5-13.9,1.2c-1.6-0.4-3.7-1-3.5-3.5c7.5-12.7,14.9-25.5,24-37.1
		c17.5-22.4,37.2-42.4,60.6-58.7c18-12.5,36.8-23.2,57.6-30.2c15.5-5.3,31.4-9.2,47.8-11c31.2-3.5,61,3,90.7,10.9
		c25.9,6.9,50.6,16.4,72.6,31.9C500.9,98.4,512,106.5,521.3,116.8z"/>
	<path class="st0" d="M376.3,567.6c0,28,0,56.1,0.1,84.1c-22.4-1.6-44.8-3.8-66.7-9.3c-26-6.5-50.4-16.6-73.5-29.8
		c-1.2-1.8-0.4-3.5,0-5.3c3.6-16.8-4.2-30.7-20.5-36.6c-1.2-0.5-2.6-0.7-3.7-1.5c-1.1-0.8-1-1.6,0.2-2.3c5.9-1.6,11.9-0.2,17.9-0.7
		c1.5-0.2,3-0.1,4.6,0c5.2-0.3,10.4,0.1,15.5,0c2.1-0.1,4.3-0.1,6.4,0c4.9-0.3,9.7,0.1,14.6,0c2.4-0.2,4.8,0.2,7.3,0
		c3.3-0.1,6.7,0,10,0c3.3-0.1,6.7-0.1,10-0.1c5.5,0,11-0.2,16.5,0c1.2,0.1,2.4,0,3.6,0c4.5,0,8.9-0.2,13.4,0c2,0,4,0.1,6,0
		c1.4,0,2.8,0,4.2,0c0.6,0,1.1,0,1.7,0c1.4-0.1,2.8,0,4.3,0c5-0.3,10,0.1,14.9,0c3.1-0.1,6.3,0,9.4,0.1c0.9,0,1.7,0.1,2.5,0.3
		C375.4,567,375.8,567.3,376.3,567.6z"/>
	<path class="st4" d="M288.4,567.5c-3.4,0-6.7,0-10.1,0c-2.9-1.8-5.4-4.6-9.3-2.9c0.5,1,2.7,1,2.4,2.9c-5,0-10,0-14.9,0
		c-0.1-3-2-2.7-4.1-2.3c-1.5,0.3-3,0.5-3.4-1.6c-0.1-0.8,0.2-1.5,0.3-2.3c-0.3,0.7-0.8,2-0.6,2.2c0.7,0.8-2.3-0.1-0.4,1
		c1.1,0.6,2.3,1.4,2.2,3c-5.3,0-10.6,0-15.9,0c-0.8-0.8,1.1-3.1-1.8-2.9c-1.3,0.1-2.3-1.1-2.7-2.6c-0.1-0.6,0.6-1.7-1-0.6
		c-1.3,0.9-3.3,2.5-4.7-0.7c-0.2-0.4-0.7,2-1.5,2.9c2.8,1.7,4.3-2.9,6.5-0.9c1.1,1,1.2,3,1.1,4.7c-6.3,0.1-12.6,0.2-18.9,0.3
		c-2.9,2.1-6.2,1.1-9.4,1.3c-1.3-0.1-2.7-0.1-4-0.6c-0.4-0.2-1-0.5-1.1-0.9c-0.9-4.2-1.6-4.7-4.8-2.1c-3.8,3.2-4.8-2-7.5-1.8
		c1.1,1.4,3.8,2.7,0.7,4.8c-2.2,0.8-4.2,0.3-6.2-0.7c-0.7-0.1-1.3-0.2-2-0.4c-0.7-3.9-4-5-6.9-6.5c-1.2-0.7-1.5-1.9-0.9-4
		c-2.7,3.2,0.6,2.9,1,4.2c-1.3,3.2-4.3,2.4-7.9,2.9c0.4,0,1.2,0.8,1.1,0.2c2.9-0.6,4.6,0.8,5.6,3.3c-39.3,0-78.6,0.1-118,0.1
		c-3.7,0-7.3-0.2-11,0.1c-3.4,0.2-4.3-1.2-4.2-4.4c0.2-6,0.3-12,0-18c-0.3-4.5,1-5.9,5.7-5.9c35,0.2,70,0.1,105,0.1
		c2.2,0,4.3-0.2,6.5-0.3c4.8-0.1,9.6,1.2,14.3-0.6c4.1-2.4,8.6-1.2,12.9-1.3c4.7-0.1,9.5,0.1,14.2-0.1c0.8,0,1.6,0,2.5,0.1
		c1.1,0,2.2,0,3.3,0c4.8,0.3,9.7-0.2,14.5,0c0.8,0,1.6,0,2.4,0c4.5-0.1,9,0.3,13.6,0.2c3.7,0.2,7.4-0.5,11.1,0
		c0.8,0.2,1.5,0.6,2.1,1.2c1.1,1,2.5,0.8,3.8,0.8c41.8,0,83.5,0,125.3,0c0.7,0,1.3-0.1,2-0.2c1.9,5.5,0.6,11.2,0.9,16.7
		c0.2,3.8,0,7.6,0.1,11.5c0,0-0.5,0-0.5,0l-0.5-0.1c-2.2-3.7-1.1-8.1-3.2-11.6c-1.6,1.5-1,6.2-5.9,5.6c3.5,1.1,6.7,2,7.1,6
		c-3.3,0-6.6,0-10,0c-0.5-0.3-0.7-1.4-0.7-1.4c-3.8,2.1-6.4-0.4-8.6-2.7c-1.9-2-3.4-2.4-5.5-0.9c-0.5,0-0.9-0.1-1.3-0.2
		c-1.8-0.7-2.8,0.5-3.6,1.8c-0.2,0.4-0.4,0.7-0.5,1.1c-0.3,0.8-0.3,1.6-0.7,2.3c-1.3,0-2.6,0-3.9,0c-0.7-0.5,0-2.2-0.5-2
		c-3.8,1.9-2.5-1.6-3.3-3.1c0.6,2.4-0.8,3.7-2.2,5c-4.7,0-9.3,0-14,0.1c0.1-2,1-4.5-2.6-4.3c-2,0.1-3.3-1.3-4.5-2.7
		c-0.8-1-0.9-2-0.2-3c-1.5,1.2-0.9,2.2,0.3,3.2c0.9,1.2,2,2.4,3.5,2.6c5.2,0.8,3.2,2.4,0.5,4.1c-5.7,0-11.4,0-17,0
		c0-3.1-2.3-4.2-4.7-4.6C290.3,562.3,289.5,565.2,288.4,567.5z"/>
	<path class="st0" d="M724.2,315.9c2.9-0.6,2.2-2.9,2.2-4.8c0-11,0-22,0.1-33c0-1.7-0.8-3.9,2-4.4c16.3,8.9,31.6,19,44.2,32.8
		c8.3,9.1,15.9,18.7,20.5,30.4c0.8,2.1,1.2,5,4.1,5.8c-0.5,9-6,16.1-14.2,18.2c-2.4,0.6-4.9,1-7.4,1.4c-2,0.3-3.9,0.9-5.6,2
		c-1.8,1.3-3.7,3-3.2,5.2c0.5,2.6,3.2,1.7,5,1.7c9.2,0.1,18.3,0,27.5,0.1c2.1,0,4.4-0.4,6.1,1.5c1.6,13.8,3.9,27.6,2.9,41.5
		c-0.6,9.2-1.6,18.4-3.9,27.4c-3.3-11.2-6.4-22.5-11.9-32.9c-8.2-15.3-20.6-26-36.2-33.3c-1.4-0.7-2.5-0.6-3.7,0.1
		c-3.1-1.7-6.6-2.2-9.6-4c-3.2-6.1-3.7-12.9-5-19.6c-0.6-2.9,1.3-4.6,3.4-6.1c6-5.8,4.2-16.2-2.5-21
		C734.1,321.7,728.1,320.4,724.2,315.9z"/>
	<path class="st5" d="M136.4,184.7c6.1,4.2,12,4.4,17.9,0.4c4.3-2.9,8.2-6.2,12.9-8.4c8.1-3.6,15-2.1,20.3,4.9c2.7,3.6,6,6.6,8.9,10
		c2.8,0.8,4.8,2.9,7.1,4.5c5.1,3.7,10.3,4.7,16.4,2.4c10-3.9,18.9-0.8,27,5.4c1.3,1,2.5,2.2,3.3,3.7c1.1,2.1,0.5,3.5-1.8,4.1
		c-1.5,0.4-3,0.4-4.5,0.4c-15.3,0-30.6,0-45.8,0c-2,0-4,0.2-5.7-1.2c-23,0.3-46.1,0.5-69.1,0.8c-20,0-40-0.1-59.9,0.1
		c-4.4,0-5.6-1-4.1-5.3c1.9-5.4,5.3-8.7,10.9-9.8c3.6-0.7,7.2-1.4,10.8-1.9c10.1-1.5,15.1-8,17.5-17.3c2.2-8.8,12.4-14.7,20-11.7
		c3.5,1.4,5.3,4.4,7.2,7.3C128.5,177.7,131.8,181.8,136.4,184.7z"/>
	<path class="st6" d="M206.1,632.8c2.9,2.8,4.4,6.6,6.4,10c13.1,22.6,26.1,45.2,39.2,67.8c0.8,1.4,1.6,2.9,2.5,4.7
		c-32.1,0-63.8,0-96.3,0c16.1-27.8,31.9-55.2,47.8-82.6C205.7,632.7,206.1,632.8,206.1,632.8z"/>
	<path class="st5" d="M782.3,149.9c-17,0-33.9-0.1-50.9,0c-3.9,0-5.3-0.9-5.1-5c0.3-7.8-0.1-15.6,0.2-23.4c0.1-3.7-1-5.1-4.8-4.8
		c-2.2,0.2-4.7,1-6.6-1c1.1-2.8,2.9-5.2,5-7.4c7.4-7.4,15.9-6.5,21.7,2.1c4.1,6.1,8.1,12.1,15.5,14.9c5,1.9,9.4,1.2,13.6-1.7
		c4.1-2.8,7.9-6.1,12.6-8.1c9.1-4,15.3-2.4,21.6,5.1c4.8,5.7,9.3,11.7,15.6,16c5.3,3.6,10.7,4,16.6,1.8c9.7-3.6,20.3-1.1,27.2,6.6
		c0.9,1,2.8,2,2.2,3.6c-0.7,1.7-2.7,0.8-4.1,0.8c-24.6,0.1-49.3,0.1-73.9,0.2C786.7,149.8,784.5,149.9,782.3,149.9z"/>
	<path class="st1" d="M206.1,632.8c0,0-0.3,0-0.3,0c-2-1.5-4.5-0.8-6.7-1.4c-11.8-3.2-20-10.4-23.5-22.1
		c-3.5-11.8-0.9-22.6,7.6-31.7c0.8-0.8,1.6-1.7,2.4-2.5c3.7-5.7,9.5-6.7,15.5-7.2c3.4,0,6.9,0,10.3,0c13.8,3.6,23.3,11.7,26.4,26.1
		c1.4,6.4,0.1,12.6-1.7,18.7C230,625.2,219.5,631.1,206.1,632.8z"/>
	<path class="st5" d="M805.4,372.8c-12.1,0-24.3,0-36.4-0.1c-5.1,0-5.5-0.9-3.4-5.5c2.2-4.8,6.3-6,10.9-6.5
		c8.6-1,15.9-3.6,18.2-13.3c0.4-1.7,1.6-3.2,2.5-4.8c7-8.2,13.3-8,19.2,0.6c1.6,2.3,3.3,4.6,5.4,6.5c6.3,5.9,11.1,6.4,18.3,1.5
		c1.5-1,2.9-2.2,4.5-3.2c8.7-5.4,13.9-4.6,20.9,3c3.4,3.7,6.1,7.9,10.3,10.8c4.4,3.1,9,4.1,14.1,1.7c6.2-2.9,18.2-0.2,22.4,7.8
		C876.4,372.8,840.9,372.6,805.4,372.8z"/>
	<path class="st6" d="M835.1,763c11.6-11.3,21-24.4,30.4-37.5c6.7,0.9,11.3,5.3,15.8,9.8c1.8,1.8,1.5,3.4,0,5.2
		c-16.1,19.3-32.1,38.7-48.2,58c-1.2,1.5-2.5,2.8-4.7,2c-2.3-0.9-3.1-3-3-5.3c0.1-4.9,2.6-8.9,5.1-12.8
		C834.3,776.4,836.5,770.1,835.1,763z"/>
	<path class="st6" d="M704.4,781.7c14.5,0.4,29,0.7,43.5,1.1c4.4,6.3,5,12.9,1.8,19.8c-2.5,0-5,0-7.5,0.1c-3-0.9-6.1-0.2-9.1-0.4
		c-2.6,0-5.2,0-7.8,0c-2.3-0.2-4.7,0.3-7-0.3c-13.1-0.4-26.3-0.8-39.4-1.3c-2.7-0.1-5.8,0.2-6.4-3.2c-0.6-3.2,2.1-4.6,4.5-5.8
		c3.9-2,8.3-2.2,12.6-2.8C695.3,788.1,700.6,786.5,704.4,781.7z"/>
	<path class="st7" d="M201.1,567.9c-5.6,1.6-10.9,3.6-15.5,7.2c-2.1-2.4-4.1-4.8-6.2-7.2c2.3-0.1,4.7-0.2,7-0.3
		c3.7-0.5,7.3-2.4,11,0.1C198.6,567.7,199.8,567.8,201.1,567.9z"/>
	<path class="st8" d="M170.3,560.8c3.7-1,5.3,2.8,8.3,3.7c1,0.3-1.5,1.7-1.3,3.1c-1.3,0-2.6,0.1-4,0.1c-1-2.5-2-0.1-3-0.1
		c-0.3,0-0.7,0-1,0c-2.1-1.2-4.1-2.4-6.4-3.7C165,561.9,168.7,563.5,170.3,560.8L170.3,560.8z"/>
	<path class="st4" d="M170.4,567.6c1-1.7,1.8-3.6,4.3-3.4c0.7,1.6-1.7,2-1.3,3.4C172.4,567.6,171.4,567.6,170.4,567.6z"/>
	<path class="st4" d="M192.4,211c19.1,0,38.2,0,58,0c-3.9-7.4-10.1-10.1-16.7-12.2c-3.9-1.2-7.8-0.8-11.7,0.5
		c-11.2,3.8-18.1,1.7-25.6-7.7c6-16,13.7-30.9,25.1-43.9c19.1-21.9,42.8-35.9,71.2-42.1c29-6.3,56.7-2.4,83.4,10.1
		c0.4,0.2,0.7,0.6,1.1,1c-1.8,1.8-0.9,4.1-0.9,6.2c-0.1,75.2,0,150.5,0,225.7c-1,0.4-1.9,0.8-2.9,1.2c-2.4-1.3-4-0.5-5,1.9
		c-11.4,5.3-23.4,8.5-36,9c-2.1-2.5-3.9-3.5-5.1,0.7c-2.6,0-5.3,0.1-7.9,0.1c2.5-2.9,4-6.9,8.7-7.6c2.3-0.3,2.9-2,0.9-3.7
		c-0.5-0.3,0.4-0.6-0.2-0.3c-0.4,0.1-0.3,0.2,0,0.5c0.4,0.5-0.2-0.2,0.1,0.5c-1.7,2.7-4.1,3.1-6.9,2.4c-1.8-4.3,0.2-8.1,2.2-11.3
		c2.1-3.3,5.2-1.3,7.7,0.5c0.4,3.6,3.5,5.7,4.7,9c0.9,2.5,4.1,0.9,5-0.1c1.7-1.9,1.8-4.4-0.8-6.2c-0.3-0.2-0.6-0.2-0.9-0.3
		c-1.3-2.4-0.7-5.5-2.8-7.7c-1.1-1-1-2.3-0.7-3.6c-0.7,1.7-2.9,3.9,1.2,4.1c0.7,2.3,1.6,4.5,1.9,6.8c0.5,0.5,1.3,0.4,1.8,0.8
		c1.7,1.4,1.3,3.2,1,5c-0.2,1.2-1.1,1.4-2.3,1.2c-2-0.3-3.7-1.2-3.7-3.3c0-3-1.3-4.9-3.8-6.2c-0.7-3.3-4.5-2-6.2-4.1
		c-0.7-0.9-0.4,0.5-0.6,0.8c-1,2.1-2.4,1.2-3.6,0.4c-1.2-0.8-2.8-1.8-1.4-3.5c0.7-0.9,1.1-1.4,0.8-2.5c-0.8-3.3,4.8-0.2,4.1-4.2
		c-0.5-2.9,2.3-4,4.5-5.6c-4.9,2.3-9.6,6.2-14.9,1.4c-2.2-2.5,0.3-4.2,1.3-5.9c0.8-1.3,2.1-2.1,0.8-3.7c1.8-3.7,5.9-4.2,8.2-6.3
		c-1,0.4-2.7,0.3-3-1.5c-0.4-2,2.1-1.7,3-2.8c-1.8-0.2-2.9,0.9-4.2,2c-1.7,1.4-4,1.5-5.3-0.4c-1.8-2.4,0.9-3.5,2.2-4
		c5.9-2.2,11.6-6.2,18.5-2.6c3.5,1.9,6,0.6,6.6-3.8c-1.5,1.1-1.5,4.7-4,3.2c-2-1.2-4.1-1.3-6-2.1c-1.9-0.8-0.4-7,2.5-10.4
		c-0.6-0.7-1.6-0.4-2.3-0.7c-1.1-0.4-2.3-0.9-2.4-2.3c-0.1-1.5,1.1-1.9,2.2-2.3c1.1-0.4,2-1.1,3-1.8c1.2-1.4,2.9-1.5,5.1-1.6
		c-2.6-1.6-3.6,0.2-4.8,1.4c-3.3,0.5-6,5.6-9.9,1.3c-0.8,1.9-3.1,3.1-2.8,5.5c0.2,1.6,0.5,3.3,0.7,4.9c0.2,1.2,1.2,2.8-0.6,3.3
		c-1.4,0.4-2.6-0.8-3.1-2c-1.4-3.1-3.6-5.5-5.9-7.9c-2.7,3.7,0.9,2.6,2.3,3.4c1.8,1.1,3,8.2,1.7,10c-2.1,2.7-4.5,5-8.3,2.6
		c-3.1-2-0.8-3.4,0.7-5.1c-3,2.8-6.1,4.5-10.2,3.9c-1.9-0.3-2.9,1.9-4.3,3c-2.1,2.9-3.9,6.4-8.5,4.6c-1.2-0.4-1.4,0.5-1.6,1.2
		c-0.4,1.2-0.5,2.6-1.9,3.2c-0.6,0.7-1.3,1.3-2.7,1.6c2.7,1,1.9-1.3,2.8-1.7c3.6-1.6,6.6-4.1,11-4.3c4.1-0.2-0.4-2.9,0.6-4.2
		c2.9-1.8,5.7-3.1,9.3-1.9c1.5,0.5,3.2-2.9,5.1-0.3c0.8,0.8,1,1.8,0.8,2.7c-0.6,3.3-1.3,6.3,4.1,5.4c1.8-0.3,4.2,1.6,2.1,4.4
		c-0.7,0.9-0.7,1.8,0,2.7c0.5,1.9-0.9,2.9-2,2.2c-2.3-1.4-5.4-1.4-7.4-4c0.6,2.6,2.1,3.8,4.4,4.3c0.9,0.2,1.9,0.7,1.8,2
		c-0.1,0.9-0.9,1.8-1.6,1.7c-4.3-0.4-2,2.7-2.4,4.3c-1.2,1-2.3,0.4-3-0.5c-2.6-3.3-5.9-5.7-9-8.5c-2.9-2.5-6.5-1.6-7.8,2.3
		c3.5,6,3,8.3-2.4,10.2c-2.1,0.2-3.5-0.6-2.6-2.8c0.9-2.3,0-4.6,0.6-6.6c-1.8,9-1.8,9,1.5,12.4c0.6-0.9-1.5-2.6,0.8-2.9
		c6.1-1.5,6.5-3.6,2-10.4c0.6-3.3,3.6-3.3,5.7-3.1c2.3,0.2,1.3,2.6,1.1,4.1c-0.2,1.6,0.5,3.3-0.2,5.1c1.5-3.4,4-2.6,6.5-1.7
		c2.5,1,3.1,2.9,2,5.3c-0.9,2-0.7,4.3-1.2,6.4c-0.3,1.2,0.7,0.5,1.2,0.7c4.3,0.9,8.4,2.2,9.3,7.4c-3.1,3-6,6.1-10,7.9
		c-2.8,1.3-2.8,1.4-1.7,4.7c1.7-0.5,2.3-2.3,3.5-3.3c0.8-0.7,1.6-1.3,2.7-0.6c1,0.7,0.9,1.7,0.5,2.7c-0.6,1.7-1.7,3.3-1.9,5.1
		c-0.2,0.2-0.3,0.3-0.5,0.5c-26.7-2.3-50.2-12.4-70.6-29.5c-24.9-20.8-39.7-47.5-44.9-79.4C189.5,238.4,189,224.7,192.4,211z"/>
	<path class="st9" d="M195.3,538.8c-9.2,0.6-18.5,0.3-27.7,0c0-20.4,0.2-40.9,0-61.3c0-3.6,0.7-5,4.6-4.8c7.8,0.3,15.6,0,23.4-0.1
		c1.1-0.9,2.4-0.1,3.5-0.8c1-0.3,2-0.3,3-0.3c0.5,0,1,0,1.5,0c1.5,0,3,0,4.4,0c0.8,0,1.5,0,2.2,0.1c0.8,0.1,1.4,0.5,2,0.9
		c1.2,0,2.4,0,3.5,0c0.6-0.4,1.1-0.4,1.7,0c3.9,0.1,7.8,0.2,11.8,0.4c2,1.3,2.3,2.5-0.4,3.2c-1,0.2-2.5-1-1.4,1.6
		c0.7,1.8-1.7,2-3.1,2.3c0.9,0.9,2.8,0.7,2.8,2.5c0,0.5-0.4,0.9-0.9,1c-2,0.7-3,1.6-1.8,4c0.8,1.6-0.9,2.4-2.3,2.9
		c3.2-1.5,6.3-2.4,8.6,1.3c0.7,1.2,1.6,2.3,0.7,3.6c-0.8,1.3-2.1,0.7-3.1,0.3c-1.9-0.8-1.2-0.7-1,1c0.4,3.1-3.4,0.6-4.4,2.4
		c3.9,2.2,8.1,2.5,12.4,1.9c1.7-0.2,3.3,0.2,4.2,2c0.1,0.5,0,0.9-0.2,1.4c-3.4,2.9-7.7,2-11.4,1.6c-5.3-0.4-10-0.9-12.2,5.3
		c-0.3,0.8-1.2,1-2.2,1.1c0.9,1.4,1.9,1.1,3.3,0.8c3.5-0.8,6.5,0.8,6.3,4.2c-0.2,3.6,1.1,5.9,3.5,8c0.9,0.8,1.2,2,0.4,3.2
		c-0.3,0.4-0.7,0.6-1.1,0.9c-0.9,0.4-2.6,0.3-2.7,1c-0.2,4.3-4.4,5.5-6.1,8.5c-0.7,0-1.3,0-2,0c-2.9-2.4-5.9-4.4-9.9-3.3
		c-1.8,0.5-3.3-2.2-5.8,0.2c-1.6,1.5-1.5-1.9-1.6-3.5C194.6,533.4,198.7,537.7,195.3,538.8z"/>
	<path class="st10" d="M184.3,371.7c-1.7-1.1-3.2,0-4.7,0.4c-14.2,3.7-28.4-4.2-32.7-18.2c-4.2-13.9,3.4-28.6,17.2-33.2
		c12-4,25.8,1.2,31.9,12.2c6.4,11.5,3.8,25.6-6.1,33.9c-1.1,0.9-2.3,1.9-3.4,2.9c-1.4,0.5-1.7-0.6-2.1-1.4
		c-3.3-7.2-7.7-13.8-11.8-20.6c0.5-6.1,3-11.6,5.4-17.1c-1.7,3.5-3.1,7.1-4.2,10.8c-0.4,1.3-0.2,3.1-2.1,3.7c-2-0.4-2.8-2.2-4.3-3.5
		c3.2,3.1,5.2,6.8,7.6,10.2c1.8,2.5,0.8,3.7-1.9,3.9c-3.6,0.2-7.2-0.9-10.3-0.8c3.2,0.7,7,0.9,10.8,0.9c1.3,0,3-0.4,3.8,0.7
		C180.5,361.1,184.1,365.6,184.3,371.7z"/>
	<path class="st10" d="M211.3,387.8c-9.5-4.4-13.9-13.1-11.1-22.2c2.9-9.5,11.1-14.5,21.3-12.9c8.5,1.3,15.1,9.6,14.9,18.6
		c-0.3,8.5-7.7,19.6-22,17.4c-2.5-5.9,0.3-11.7,0.9-17.4c0.2-1.6,1.2-3.1,1.3-4.4c-0.6,1.2-0.2,3.8-2.3,3.8c-2.3,0-1.4-2.5-2.2-3.8
		c2.5,5.3,2.7,10.7,1.4,16.3C213,384.9,213.2,386.8,211.3,387.8z"/>
	<path class="st10" d="M181.3,435.7c-10.2,2.9-18.2-0.2-20.8-8c-2.3-6.7,0.7-14.2,6.9-17.5c6.3-3.3,14.1-1.5,18.2,4.3
		c4.4,6.1,3.5,13.4-2.5,19.2c-5.7-2.9-7.2-5.8-8.2-15.4c-0.3,1.1,0.5,2.3-0.6,3.2c-0.4,0.3-2.8-0.5-0.6,1.2c0.5,0.4,0-0.2,0.4,0.3
		c1.1,1.7,3,3.7,2.1,5.3c-1.3,2.4-3.2-1-4.7-0.5c3,1.7,7.3,1.4,9.6,5.2C181.6,434,182.3,434.7,181.3,435.7z"/>
	<path class="st10" d="M224.5,424.8c-3.1-5.3-5.8-10.5-2.6-16.8c3.5-7,11.4-10,18.6-7c6.9,2.9,10.3,10.7,7.8,17.8
		c-2.6,7.3-10.2,11.2-17.7,9c-1.4-0.4-2.8-1.2-4.1-1.8c0.1-3.2,1.5-5.1,4.8-5.4c2.5-0.2,5-0.8,7.5-1.2c-2.5,0.1-4.9,1.5-7.6,0.5
		c0.4-2.3,1.8-3.7,3.4-4.8c1.5-1,2.8-2.4,3.5-2.8c1.3-1,1.3-0.1,1-0.7c0-0.1-0.2,0-0.4,0.2c-0.5,0.5-1,0.8-1.6,1.2
		c-0.8,0.6-1.7,1.4-2.7,0.8c-1.2-0.6-0.5-1.7-0.4-2.7c0.1-0.6,0.2-1.3,0-2.7C234.8,416.7,229.8,420.8,224.5,424.8z"/>
	<path class="st11" d="M211.3,387.8c3.4-8.6,1.4-17.1-0.7-25.6c3.2,1.9,2.2,5.1,3.3,8c2.4-2.4,1.7-6.3,5.5-9
		c-3.3,9.6-5.6,18.3-5,27.5c-2.3,11.7-2.1,23.5-2.8,35.3c-0.4,6.2-0.1,12.5-0.1,20c4.4-7,7.6-13.4,12.7-18.4
		c1.1-0.2,1.7,0.1,1.3,1.3c-1.3,1.9-2.5,3.9-4,5.7c-10,11.7-10.6,25.5-9.1,39.9c-0.7,0-1.3,0-2,0c-1.6-2-1.4-4.4-1.6-6.7
		c-0.1-1.4,0.1-2.9-0.1-4.3c-0.1-0.7-0.6-0.1-0.5,0.1c1.1,1.4,0.3,3.1,0.6,4.7c-0.4,2.1,1.4,4.4-0.6,6.3c-1.6,0-3.2,0-4.7,0
		c-1.9-1.7-1.6-3.9-1-6c1.8-7.1,2.8-14.2,2.5-21.5c0.3-1.4,0.3-2.9,2-3.5c1.3,0.6,0.7,1.8,0.9,2.8c0,1.1,0.1,2.3,0,2.5
		c0-0.5,0-1.9,0-3.3c-1.2-6.7-1.3-13.5-0.6-20.3c1.1-2.4,0.2-5.3,1.9-7.6C209.8,406.4,210.6,397.1,211.3,387.8z"/>
	<path class="st12" d="M239.3,503.8c-2.7-4-6.2-0.6-9.3-1c-0.7-0.1-1.9,1.4-2.5,0.1c-1.9-4-4.1-1.6-6.6-0.5c1.7-2-1.2-8.4,5.5-4.7
		c1-2-1.9-2.4-1.2-4.2c1.9,0.6,3.8,1.2,7.1,2.2c-2.8-3.2-3.2-7.1-8-4.6c-1.5,0.8-4.7,0.9-5.7-2.3c1.4-1.5,2.4,0.2,3.5,0.4
		c1.3,0.2,2.1-0.4,1.7-1.6c-1.5-4.3-1.6-4.3,2.6-5c-0.1-1.1-1-1.1-1.8-1.3c-0.8-0.2-1.6-0.3-2.9-0.5c1.1-1.4,2.2-1.7,3.4-2
		c1.7-0.3,2.6-0.5,0.6-2.2c-0.9-0.8,0.1-2.2,2.2-1.4c2,0.8,2.8-0.3,1.4-2.2c2.3,0,4.7,0,7,0c1.6,0.7,2.5,2.2,3.6,3.3
		c3.2,3.3,2.3,7.3-2.1,8.8c-1.4,0.5-2.1,1.5-2.7,2.7c-0.9,1.8-2.2,1.6-3.6,0.7c0.5,2.3,7-1.9,4.4,4c0.9,0.2,1.8-0.5,2.6,0.2
		c1.7,1.4,3.9,0,5.7,1.1c0,2.7,0,5.3,0,8C241.8,500.6,241.6,504.7,239.3,503.8z"/>
	<path class="st9" d="M239.3,503.8c1.7-0.5,2.2-3.7,4.8-2c0,9.7,0,19.3,0,29c-6.7-0.3-7-0.6-7.2-6.4c1.7-2.3,2.7-0.3,4,0.7
		c-1.1-2.1-3.8-1.7-5-3.8c-1.4-2.4-2.2,0.2-3.1,1.1c-1,1-1.9,2-0.1,3c1.3,0.7,2.8,1,3.8,2.2c0.1,0.1,0.2,0.4,0.2,0.4
		c-3.1,5.6-0.3,8,4.9,9.3c0.6,0.1,0.9,0.8,0.6,1.6c-3.6,0-7.3,0-10.9,0c-1.3-1.2-2.6-2.3-4.1-3.3c-2.4-1.6-4.4-4-0.9-6.8l0,0
		c1.2-1,2.3-0.7,3.5,0c-2.2-1.8-3.2-4.5-6.1-6.1c-2.4-1.3,0.9-4.6,0.6-7.1c0-0.4,1.2-0.6,0.3-1.3c-0.3,0.5-0.7,0.7-1.2,0.5
		c-2-0.8-2.8-2.4-1.9-4.4c0.8-1.9-0.8-5.3,3-5.3c2.5,0,5.9,0.9,5.9,3.4c0,2.9,1.1,2.1,2.5,2C236.9,510.1,238.3,507.1,239.3,503.8
		L239.3,503.8z"/>
	<path class="st13" d="M181.3,463.6c-2.9,2.4-5.3,5.5-9.7,5.2c-5.1-0.3-9.1-4.2-9.3-9.3c-0.1-5.1,3.7-9.4,8.7-9.8
		c5.1-0.4,9.6,3.1,10.3,8.1c0.2,1.6-0.4,3.4,1,4.8C182.2,463.1,181.8,463.5,181.3,463.6z"/>
	<path class="st13" d="M224.3,462.8c-2.4-6.9-0.6-11.9,5-14c5.2-1.9,10.4,0.8,12.3,6.1c1.3,3.7,0.3,6.9-2.3,9.6
		c-2.6,2.7-5.8,3.8-9.5,2.3c-1.5-0.6-2.9-1.5-4.4-2.3c-0.3-1.2,0.8-1.5,1.4-2.1c0.3-0.1,0.7-0.4,0.9-0.3c3.4,1.5,3-3.3,5.4-3.2
		c-0.1-0.3-0.3-0.1-0.4-0.1c-0.8,0.9-1.5-1.3-2-0.2c-0.9,2.2-2.8,3.1-4.6,4.2C225.5,463.3,224.9,463.4,224.3,462.8z"/>
	<path class="st14" d="M196.3,402.8c9.4,0,12.6,3.5,12,13c0,0.2,0,0.5,0,0.7c-1,2.4-1.9,4.9-5.4,4.1c-1.8-3.3-3.5-6.5-1.3-10.3
		c0.3-0.5-0.9-0.5-0.3-0.2c0.2,0.1,0.1,0.2-0.1,0.5c-0.9,1-1.8,1.8-1,3.6c0.6,1.3,1.1,3.6-1.7,2.8c3.1,1.4,3.1,1.4,3.4,4.7
		c-0.7,1.2-1.4,2.4-2.5,3.3c-2.3,0.2-1.7-2.5-3.1-3.2c-8.4-4.9-9.1-9.9-2.7-18.1C194.3,402.9,195.1,402.1,196.3,402.8z"/>
	<path class="st15" d="M196.3,421.8c2.4-0.4,1.9,2,2.9,3c2.6,2.5,1.9,5.9,2.2,8.9c1,12.9,2.5,25.9,0.9,38.9c-0.9,0-1.9,0-2.8,0
		c-0.6-0.4-0.6-1.2-0.9-1.8c-1.9-10.8-7.4-20-13-29.2c-1.1-1.8-2.3-3.6-3.4-5.5c-0.5-1.3,0.2-1.5,1.2-1.4
		c5.6,6.1,9.5,13.4,13.9,21.9C198.3,444.1,196.8,433,196.3,421.8z"/>
	<path class="st16" d="M196.3,402.8c-0.9,0.3-1.9,0.6-2.8,0.9c-2.1-11-5.2-21.6-9.3-32c-1.1-4.6-3.9-8.4-5.8-12.6
		c-1.1-2.3-3-2.2-5-2.2c-5.3,0.1-10.5-0.2-16.9-2c6.9-2.3,12.7,0,19.4-0.1c-4.2-5.8-7.9-10.9-11.5-15.9c3.8,0.4,4.9,3.7,6.9,6
		c1.5,0.4,1.2,2,2,3c5.1,6.9,8.5,14.8,13,21.9C191.4,380.2,193.8,391.5,196.3,402.8z"/>
	<path class="st17" d="M244.2,493.8c-3.8,2.7-7.3-1.3-10.9,0c-0.4-2.5,2.7-1.4,2.6-3.5c-2.1-1.1-5.4,1-6.7-2.2
		c-0.1-0.2,0.8-0.9,1.3-1.3c1.9-1.4,1.8,1.2,3.3,1.7c0.9-2.8,1.8-5.8,5.8-4.5c0.4,0.1,1.6-0.5,1.1-1.2c-1.5-1.9,1.5-5.1-1.4-5.9
		c-2.6-0.7-1.9-2.8-2.9-4.1c0.3-0.1,0.7-0.1,1-0.1c7-0.2,7-0.2,7,6.6C244.3,484.1,244.2,488.9,244.2,493.8z"/>
	<path class="st18" d="M324.7,490.8c-5.4,0-10.3-5.2-10.3-10.6c0.1-5.1,5.5-10.4,10.8-10.5c5.7-0.1,11.3,5.5,11.1,11.2
		C336.1,486.4,330.9,490.8,324.7,490.8z"/>
	<path class="st19" d="M330.6,386.7c-0.2-0.4-0.5-1-0.9-1.5c-0.8-1.2-0.9-7.8-0.4-9.3c0.4-1.5,0.8-3.3,2.4-3.4
		c2.2-0.1,1.5,2.1,1.7,3.4c0.3,1.9,1.7,1.7,3,1.8c1,0.1,2.6,0.9,2.2,1.4C336.3,381.7,333.6,383.9,330.6,386.7z"/>
	<path class="st20" d="M242.3,538.8c-1.7-2.2-5-0.8-6.9-3.2c-1.5-1.9-4.1-3.1-0.3-5.2c0.9-0.5,1.1-1.6,1.2-2.6c-0.7-1.4-1.3-2.7,1-3
		c-0.1,4.7,4.2,4.3,6.8,6c0,2.7,0.1,5.4,0.1,8.1C243.6,538.8,243,538.8,242.3,538.8z"/>
	<path class="st21" d="M321.3,352.8c2.7-0.2,5.7,0.4,7-3l0,0c1.4,0.2,3.4-0.7,3.7,1.4c0.3,1.8-1.5,4-2.4,4c-4.1-0.2-5.8,2.5-7.8,5.2
		c-0.5,0.7-1.7,0.9-2.6,1.3c-1.3,0-2.6,0-3.9-0.1c-0.7-1.6,1.7-2.9,0-4.8c-1-1.1,0.5-2.2,1.7-2.8C318.5,353.6,320,353.3,321.3,352.8
		z"/>
	<path class="st22" d="M225.5,427c-0.4-0.4-0.9-0.9-1.3-1.3c0-0.3,0.1-0.6,0.3-0.9c5.5-5.3,10.3-11,10-19.5c1.6,2.7,0.3,5.1,0.1,8.1
		c2.5-1.7,4.7-3.1,6.9-4.5c-2.1,4.6-6.8,6.6-9.8,10.6c3.9,0.2,7.2-2.2,10.9,0c-3.4,0.6-6.9,1.4-10.3,1.9c-2.9,0.4-4.9,1.7-5.7,4.6
		C226.2,426.3,225.8,426.6,225.5,427z"/>
	<path class="st4" d="M317.3,354.8c-1.4,2.1-1.4,2.1,1.5,2.7c-1.1,1.4-2.2,2.7-3.3,4.1c-2.8-0.1-5.6,0.9-8.3-0.6
		c0,0,0.2-0.3,0.2-0.3c0.6-2.8,4-3.1,5-6c0.5-1.7,1.7-3.1,1.8-5.2c0.1-3.6,3.4-4.7,7-2.4C321.5,350.4,320.4,353.1,317.3,354.8z"/>
	<path class="st23" d="M183.4,434.8c-0.4,0.5-0.8,0.9-1.2,1.4c-0.3-0.1-0.6-0.2-0.8-0.5c-1-5-5.6-5.1-9-6.7
		c-1.4-0.6-3.3-0.4-4.5-1.8c2.9-1.4,5.1,0.8,8.1,1.3c-1.5-3.6-3.8-6.3-6.3-9c2.1-1,2.5,1.3,4.1,1.5c1.3-1.5-0.4-3.8,1.5-5.8
		c0.4,7.4,1.8,14.1,7.9,18.6C183.2,434.1,183.3,434.4,183.4,434.8z"/>
	<path class="st24" d="M198.5,470.8c0.3,0.6,0.6,1.2,0.9,1.8c-1.2,0-2.5,0-3.7,0c-3.7-4.7-8.6-7.4-14.3-8.9c0.3-0.3,0.7-0.7,1-1
		c5.4,1.1,10,3.5,14,7.3C196.8,470.4,197.2,472,198.5,470.8z"/>
	<path class="st25" d="M327.3,361.5c-1.3-1.4-4.7-3.2,0.7-3.3c1.4,0,2.8-1.2,4.2-1.9c1.3,1.7-1.6,3.2,0.1,4.6
		C330.7,361,329,361.3,327.3,361.5z"/>
	<path class="st26" d="M368.4,351.8c0.4-1.3-1.9-3.1,0.3-3.8c1.6-0.5,4.1-1.2,4.7,1.8C372,351.2,370.3,351.9,368.4,351.8z"/>
	<path class="st27" d="M224.3,462.8c0.6,0,1.2,0,1.7,0l0.3,0.3c-0.3,0.5-0.6,1-1,1.5c-1.7,1.4-3.3,2.8-5,4.2
		c-0.4-0.2-0.7-0.5-0.9-0.9C220.5,465.6,222.7,464.5,224.3,462.8z"/>
	<path class="st28" d="M219.4,467.8c0.3,0.3,0.6,0.6,0.9,0.9c-0.9,1.3-1.8,2.5-2.7,3.8c-0.6,0-1.1,0-1.7,0
		C216.6,470.6,218,469.2,219.4,467.8z"/>
	<path class="st14" d="M209.1,415.7c0.3,2.4,0.6,4.8-0.6,7.1c-2.5-2.3-0.9-4.7-0.2-7.1c0,0-0.1,0.1-0.1,0.1
		C208.6,415.7,208.8,415.7,209.1,415.7z"/>
	<path class="st6" d="M388.1,133.2c1.8-0.1,3.6-0.4,5.4-0.4c105.1,0,210.2,0,315.3-0.1c4.7,0,6,1,6,5.9
		c-0.2,58.3-0.1,116.6-0.1,174.9c0,1.8-0.6,3.7,0.5,5.3c0.1,2.5-1.9,3.3-3.6,4c-4.3,2-7.3,4.9-8.3,9.7c-0.7,3.2-2.8,6-2.8,9.4
		c-0.1,6.1,1.4,8.2,7.3,9.8c0.8,0.2,1.6,0.5,2.2,1c4.6,4.9,6.5,10.6,5.6,17.3c-0.3,2.2-0.7,4.3-3,5.3c-2.4,0.7-4.9,1.3-7.4,0.5
		c-8.8,1.7-17.7,3.4-26.6,1.5c-15.1-3.3-23.7-13.6-28.2-27.9c-0.4-1.3-0.7-2.6-1.1-3.8c-1-2,0-3.9,0.5-5.8c3-10.9,3.5-22,3-33.2
		c-0.3-5.8-1.6-7-6.7-6.6c-2.5-0.2-2.9-2.4-3.6-4.1c-2-4.5-4.5-8.7-7.7-12.4c-3.5-3.7-7.6-6.4-12.3-8.4c-0.6-0.2-1.2-0.4-1.8-0.7
		c-0.7-0.3-1.4-0.7-2.2-1c-0.4-0.1-0.7-0.3-1.1-0.4c-1-0.3-2-0.3-3-0.3c-0.9,0-1.8-0.1-2.7-0.4c-21.3-2.7-40.7,14.4-41.2,35.7
		c-0.3,10.3,2.8,18.9,9.2,26.6c4,4.7,9,8,14.9,9.9c8.4,2.9,16.8,3.1,25.3,0.2c1.9-0.6,3.7-1.5,5.7-0.3c1.3,2.8,1.9,5.5-0.8,7.8
		c-2.9,1.6-2.3,4.5-2.4,7c-1,25,5.9,46.8,25.5,63.6c-0.7,5.1-3.8,9.1-6,13.4c-1.8,3.4-1.3,7.1-2.8,10.4c-0.8,1.7,0.9,3,2.2,4
		c4.8,3.5,9.6,7.1,15,9.6c4,1.8,6.6,4.8,7.9,8.9c3.7,6.6,9.9,10.5,15.8,14.8c0.8,0,0.9,0.3,0.3,0.8c-1.3,9.7-2,19.3-2,29.1
		c0,5.7,2,10.3,7,13.3c1.1,26.8,2,53.5,3.2,80.3c0.8,16.6,1.9,33.2,2.9,49.8c1.4,24.2,4,48.3,7.6,72.3c1.6,10.3,2.8,20.7,4.2,31.1
		c0.3,2.3-0.4,3.5-2.9,3.3c-1-0.1-2,0-3,0c-101,0-201.9,0-302.9,0.1c-5.3,0-6.1-1.7-6.1-6.4c0.1-205.9,0.1-411.9,0.1-617.8
		C388.4,137.5,388.2,135.4,388.1,133.2z"/>
	<path class="st29" d="M788.5,646.7c8.6,19.2,21.7,35.2,35.8,50.6c-4.1-2.4-7.2-6-10.2-9.4c-9.7-10.9-18.2-22.5-24.7-35.6
		c-0.9-1.8-1.4-3.7-2-5.6C787.8,646.2,788.1,646.2,788.5,646.7z"/>
	<path class="st30" d="M786.2,642.8c-4.3-9.7-4.4-19.6-1.5-29.8c-1.3,10.1-0.1,20,2.5,29.8C786.9,643.2,786.5,643.3,786.2,642.8z"/>
	<path class="st31" d="M721.5,580.7c-0.4-9-0.4-18,0.9-26.9c0.2-0.4,0.5-0.5,0.7,0c-0.2,6.3-0.4,12.5-0.6,18.8
		C722.4,575.3,724.2,578.3,721.5,580.7z"/>
	<path class="st31" d="M771.3,527.6c0.9-1.1,2-1,3.2-0.8c0.5,6.4,2.2,12.1,8.7,14.9c0.2,0.9,0,1.4-1.1,1.1
		c-5.1-1.7-7.3-5.5-8.1-10.6C773.8,530.5,774.8,527.7,771.3,527.6z"/>
	<path class="st32" d="M721.5,580.7c1.6-2.5,0.1-5.5,1-8.1c1.2,5.4,0.8,10.9,0.6,16.3c-1,1.6,0.5,3.7-1,5.2
		C720.9,589.6,721.3,585.1,721.5,580.7z"/>
	<path class="st33" d="M786.6,596.8c1.2-6.3,1.1-12.8,2.8-19c0.3-0.4,0.5-0.4,0.8,0c-0.9,6.3-0.6,12.9-2.8,19
		C787.1,597.2,786.9,597.2,786.6,596.8z"/>
	<path class="st34" d="M725.3,623.8c-1.6-5.5-2.1-11.1-2.1-16.8c-0.2-1-0.9-2.2,1-2.1c0.7,6.3,1.3,12.6,2,18.9
		C725.9,624.2,725.6,624.2,725.3,623.8z"/>
	<path class="st35" d="M736,661c-2.3-4.2-5-8.3-5.7-13.2c0.3-0.3,0.6-0.4,1-0.1c1.8,4.2,3.6,8.5,5.4,12.7
		C736.7,660.9,736.5,661.2,736,661z"/>
	<path class="st36" d="M790.1,577.8l-0.4,0c0,0-0.4,0-0.4,0c-0.2-4.4-0.3-8.8,1.1-13c0.2-0.4,0.5-0.4,0.7,0
		C790.8,569.1,790.5,573.4,790.1,577.8z"/>
	<path class="st37" d="M788.4,522.7c0.8-1.1,1.9-0.9,3-0.9c0,4.3-0.1,8.6-0.1,12.9c-0.3,0.5-0.5,0.5-0.7,0c-0.1-3.2-0.2-6.4-0.1-9.7
		C790.4,523.5,790.1,522.5,788.4,522.7z"/>
	<path class="st38" d="M790.5,555.8c-0.3-3.7-0.2-7.4,0.9-11.1l-0.1,0.1c2.2,3.7-0.4,7.3,0,11C791,556.2,790.8,556.2,790.5,555.8z"
		/>
	<path class="st39" d="M839.3,712.9c-2.1-1.9-4.1-3.8-6.2-5.7C836.4,707.7,838,710.2,839.3,712.9z"/>
	<path class="st36" d="M722.1,594c0.6-1.7-0.4-3.7,1-5.2c0.1,3.2,0.2,6.4,0.3,9.5c0.1,1,0.9,2.3-1,2.3
		C722.4,598.5,722.2,596.3,722.1,594z"/>
	<path class="st40" d="M722.5,600.7c0.3-0.8,0.7-1.5,1-2.3c0.9,2.1,0.9,4.3,0.7,6.4c-0.3,0.7-0.7,1.4-1,2.1
		C722.2,605,722.4,602.8,722.5,600.7z"/>
	<path class="st41" d="M786.6,596.8c0.3,0,0.5,0,0.8,0c0,2.4,0.3,4.8-1,7c-0.3,0.5-0.6,0.5-0.8,0
		C785.9,601.5,786.2,599.1,786.6,596.8z"/>
	<path class="st42" d="M790.5,534.7c0.2,0,0.5,0,0.7,0c0,3.4,0,6.7,0.1,10.1c0,0,0.1-0.1,0.1-0.1
		C789.3,541.6,790.6,538.1,790.5,534.7z"/>
	<path class="st43" d="M785.5,603.8c0.3,0,0.6,0,0.8,0c0.1,2.6-0.1,5.2-1.7,8.5C784.1,608.7,785.4,606.3,785.5,603.8z"/>
	<path class="st44" d="M729.4,643.8c-0.6-2.3-1.2-4.7-1.9-7c0.3-0.5,0.6-0.5,0.9,0c0.6,2.3,1.2,4.7,1.8,7
		C729.9,644.2,729.6,644.2,729.4,643.8z"/>
	<path class="st45" d="M790.5,555.8c0.3,0,0.5-0.1,0.8,0c0,3-0.1,6-0.1,8.9c-0.2,0-0.5,0-0.7,0C790.4,561.8,790.5,558.8,790.5,555.8
		z"/>
	<path class="st46" d="M782.2,542.9c0.4-0.4,0.7-0.7,1.1-1.1c1.7,0.4,3.4,0.8,6.3,1.5C786.3,544,784.2,544.3,782.2,542.9z"/>
	<path class="st47" d="M725.3,623.8c0.3,0,0.6,0,0.9,0c0.4,1.9,0.8,3.7,1.4,6.8C725,627.9,725.4,625.8,725.3,623.8z"/>
	<path class="st48" d="M852,723.2c-3.1-1.1-4.2-2.4-5.6-4.5C849.2,719.2,849.9,720.9,852,723.2z"/>
	<path class="st49" d="M739.1,666.1c-1.5-1.4-2.4-3.2-3.1-5.1c0.2-0.2,0.4-0.3,0.6-0.6c1.4,1.5,2.4,3.2,3,5.2
		C739.7,666,739.5,666.2,739.1,666.1z"/>
	<path class="st50" d="M739.6,665.6c0.9,1.4,1.9,2.8,2.8,4.3c-2-0.6-3-1.9-3.3-3.8C739.2,665.9,739.4,665.7,739.6,665.6z"/>
	<path class="st44" d="M723.2,553.8l-0.4,0l-0.4,0c0-1.8,0-3.5,0-6.6C723.7,550.1,723.3,552,723.2,553.8z"/>
	<path class="st51" d="M729.4,643.8c0.3,0,0.6,0,0.8,0c0.4,1.3,0.7,2.6,1.1,4c-0.3,0-0.6,0-1,0.1
		C729.3,646.6,729.2,645.2,729.4,643.8z"/>
	<path class="st52" d="M728.4,636.7c-0.3,0-0.6,0-0.9,0c-0.1-1.5-1.3-3-0.6-4.9C728.7,633.3,728.4,635.1,728.4,636.7z"/>
	<path class="st53" d="M857.1,727.4c-2.1,0-2.7-1.1-3.9-2.4C855.4,725,856.1,726.1,857.1,727.4z"/>
	<path class="st54" d="M786.2,642.8c0.3,0,0.7,0,1,0c0.4,1.3,0.9,2.6,1.3,3.9c-0.4,0-0.8,0-1.1,0C787,645.4,786.6,644.1,786.2,642.8
		z"/>
	<path class="st55" d="M664.2,469.2c-4.1-7.6-12.7-9-18.7-13.9c-2.1-1.7-4.3-3.1-6.4-4.8c-1.2-0.9-2.4-2.2-1.9-3.8
		c1.9-5.6,2.7-11.7,6.3-16.5c1.8-2.4,1.3-6,4.4-7.4c3.9,1.2,6.8,4,10.2,6c2.5,1.5,4.3,2.3,5.2-1.6c0.4-1.6,1.3-3,2.2-4.4
		c0.8-1.4,1.9-2.2,3.7-1.7c1.9,0.6,2.9,1.9,2.7,3.6c-0.4,2.9-1.2,5.8-1.8,8.7c0.9,3.5,5.5,4,6.2,7.7c-1.7,5.6-2.2,11.6-4.6,17
		C669.7,462.3,667.8,466.3,664.2,469.2z"/>
	<path class="st55" d="M645.3,299.3c5.4-3,8.3-1.5,8.9,5.4c1.2,14-0.2,27.7-4.8,41c-5.6,2.1-10.8,5.3-16.9,6.5
		c-2.6,0.5-5.2,0.9-7.7,0.1c0.3-2.7,0.6-5.5,0.9-8.2c0.5-2,2.2-2.8,3.6-3.9c11.7-9.5,17.6-21.3,15.2-36.7
		C644.2,302,644,300.5,645.3,299.3z"/>
	<path class="st56" d="M705.3,375.9c2.1-1.5,4.7-1,7-1.4c2.2-0.1,2.5,1.9,3.3,3.2c1.2,2.2,2.3,4.4,3.4,6.7c1.4,3,2.8,3.6,5.5,1.2
		c4.6-4,9.6-7.8,14.4-11.6c1.4-1.1,2.8-2.5,4.8-2.3c3.2,0.9,7.2-0.1,8.8,4.1c-6.7,8-13.6,15.9-20.1,24.1c-2.5,3.1-3.7,2.5-5.4-0.5
		c-1.7-3-3.8-5.8-6.1-9.1c-3.4,4-6.6,7.7-10.3,12C708.7,393,707,384.5,705.3,375.9z"/>
	<path class="st57" d="M680.3,484.7c-0.3-0.2-0.4-0.5-0.3-0.8c5.8,1.2,10.3,5.1,15.7,7.2c23.2,9.2,45.9,9.7,68.2-2.6
		c0.4-0.2,0.9-0.4,1.4-0.6c-1.4,2.5-1.4,2.5-3.7,3.7c-22.3,11.1-44.8,10.9-67.2,0.6C689.5,490,685,487.2,680.3,484.7z"/>
	<path class="st58" d="M737.3,425.8c-8.1,12.3-19,20.3-34,21.7c-3.7,0.3-7.5-0.2-11-1.7l0,0c7.1-0.3,14.2,0.8,21.1-2
		c9.8-3.9,17-10.6,22.9-19C737.3,424.5,737.7,424.7,737.3,425.8z"/>
	<path class="st59" d="M676.1,441.2c-1.8-1.4-3.5-2.8-5.3-4.1c-1.3-1-2.2-2-0.9-3.5c4,1.1,8,2.5,12.3,2.3c2.9,1.7,1.1,4.1,0.7,6.1
		c-0.4,1.7-2.1,1.7-3.6,0.8C678.3,442.2,677.2,441.7,676.1,441.2z"/>
	<path class="st58" d="M679.3,442.7c5.8-0.3,3.1-4.1,2.9-6.9c2.2-6.4,1.8-13.2,3.1-19.8c0.2-0.8-0.2-1.6,1.1-2.6
		c-0.5,6.8-0.6,13.2-1.4,19.5c-0.3,2.5-0.6,4.9-0.6,7.4C684.3,444.5,682.4,444.8,679.3,442.7z"/>
	<path class="st60" d="M737.3,425.8c-0.3-0.3-0.7-0.7-1-1c4.2-5.6,6.9-12.1,10.7-18.1C744.7,413.5,741.6,420,737.3,425.8z"/>
	<path class="st58" d="M692.3,445.8c-1.3,0-2.6,0-5.1,0C689.8,444.6,691.1,444.4,692.3,445.8C692.3,445.8,692.3,445.8,692.3,445.8z"
		/>
	<path d="M709.2,352.6c-7.3,0.3-10.6-2.5-9.7-10.1c0.9-7.3,1.9-15.1,9.3-19.6c2.2-1.3,4.8-2.1,6.5-4.2c2.7-1.8,5.8-2.3,8.9-2.9
		c3,1,6.9,1.8,8.7,3.6c3.5,3.3,9.1,4,11.1,8.9c1.9,4.7,3.2,9.5,1.3,14.4c-0.6,1.5-0.8,3.7-3.2,3.7c-1.3-2.4-1.6-6.2-6-3
		c-1.2,0.9-2.1-1.3-2.4-2.5c-1.1-4.1-3.6-4.6-7.2-3.5c-2.9,0.9-5.9,0.4-8.9,0c-4.7-0.7-6.2,0.8-6.9,5.6
		C710.3,346.3,711.7,349.8,709.2,352.6z"/>
	<path class="st61" d="M241,100.6c-0.1,1.7-1.4,2.3-2.7,2.1c-4.3-0.5-6.7,0.8-5.9,5.6c0.2,1.2-0.1,2.7-1.4,2.8
		c-2.2,0.2-1.4-1.8-1.5-2.9c-0.3-4-1.9-6.1-6.2-5.5c-1.4,0.2-3.4,0-3.3-2c0.1-2,2-2,3.5-1.9c4.7,0.6,6.4-1.7,6.1-6.1
		c-0.1-0.9-0.3-2.2,1.1-2.4c1.2-0.2,1.9,1,1.8,1.9c-0.6,5.1,1.2,7.4,6.5,6.6C239.7,98.7,240.6,99.4,241,100.6z"/>
	<path class="st62" d="M373.3,567.6c-2.2-1.3-2.6-4.9-6.9-3.5c-2.5,0.8-0.2-2.7-1.1-4.1c-0.9-1.4,0.7-1.4,1.2-0.9
		c2.4,2.5,2.7,0.3,3.4-1.4c0.9-2.2,2.3-4,4.9-4.3c-1.1,4.8,0.9,9.4,0.5,14.2C374.7,567.6,374,567.6,373.3,567.6z"/>
	<path class="st63" d="M347.3,561.8c3.2,1.1,3.1-4.5,5.7-3.1c0.8,0.4,0.4,3.7,2.7,4.8c2.2,1,3.8,4.7,7.1,1.4
		c0.4-0.4,0.3,1.8,0.6,2.7c-5.3,0-10.6,0-16,0C345.8,565.6,345.7,563.7,347.3,561.8z"/>
	<path class="st64" d="M230.3,567.5c-1.5-1-2.6-2.3-2.2-4.5c-0.5,0.6-1.1,1.2-1.4,1.9c-1.4,2.6-3.3,0.5-4.7,0.3
		c-2.4-0.3-0.1-1.7-0.1-2.5c0.1-1.7,0-3.8,2.9-3.2c0.5,0.1,0.5,0,0.7,1.5c0.1,0.7,1,0.9,2,0.6c1.8-0.5,2.5-3.3,5.1-2.5
		c1.4,1.9-3.8,1.7-1.3,3.9c1.3,1.2,2.7,1.5,4.6,0.5c-0.5,1.4-1,2.7-1.5,4.1C233,567.6,231.7,567.6,230.3,567.5z"/>
	<path class="st65" d="M288.4,567.5c-0.6-2-0.9-4.1,1.5-4.9c2-0.7,3.9-2.8,6.5-0.2c1.7,1.6,5.7,1.6,2,5.1
		C295,567.5,291.7,567.5,288.4,567.5z"/>
	<path class="st66" d="M250.3,567.5c-1.5-1.7-3.1-3.2-6.2-1.9c4.1-1.3,4.1-5.8,6.9-8.4c1.5,2.6-0.7,2.9-0.9,4.1
		c-0.2,0.9-1,1.8-0.3,2.8c0.8,1,1.8,0.6,2.6,0c1.9-1.6,3.4,1.9,5.4,0.4c-0.5,1-1,2.1-1.5,3.1C254.3,567.5,252.3,567.5,250.3,567.5z"
		/>
	<path class="st64" d="M271.3,567.6c-1.8-1-3.7-2-5.7-3c7.2-2.9,8.5-2.6,12.7,3C276,567.6,273.6,567.6,271.3,567.6z"/>
	<path class="st67" d="M332.4,567.6c-0.9-1.5,3.2-3.6-0.5-4.9c-0.2-0.1,1.2-0.8,1.9-1.1c1.4-0.6,2.3-0.2,2.4,1.4
		c0.1,0.8-0.8,1.5,0,2.3c1.9,0.1,1.5-2.3,3.2-2.9c1.1,2-0.1,3.6-0.9,5.2C336.4,567.6,334.4,567.6,332.4,567.6z"/>
	<path class="st68" d="M311.3,560.8c2.2,0.3,4,1.6,6.2,2c3.1,0.6,5,2.5,0.8,4.9c-1,0-2,0-3-0.1c0.5-1.3,3.8-3.2-0.9-3.3
		C312.8,564.2,310.9,563.3,311.3,560.8L311.3,560.8z"/>
	<path class="st4" d="M347.3,561.8c0,1.9,0,3.9,0,5.8c-1.3,0-2.7,0-4,0c-0.2-1-1.7-1.5-1-2.8v0C344,563.8,345,561.6,347.3,561.8
		L347.3,561.8z"/>
	<path class="st63" d="M342.3,564.8c0.4,0.9,2.2,1.4,1,2.8c-0.4,0-0.7,0-1.1,0C341.9,566.7,340.8,565.7,342.3,564.8z"/>
	<path class="st69" d="M195.3,538.8c0.2-0.8,0.9-1.9,0.7-2.3c-3-4.2-0.3-5.1,3.1-5.8c0.5,1.5-1,3.1,0.3,4.7c1.9-1.2,1-4.6,3.8-5.1
		c1.7,1.5-0.9,2.3-0.2,3.9c4.4,0.3,10.2-2.1,12.5,4.6c-5,0.2-10,0.6-15.1,0c-1-1.2-2-0.9-3,0.1C196.7,538.8,196,538.8,195.3,538.8z"
		/>
	<path class="st70" d="M226.3,528.8c-1.5,3.6-1.1,6.1,3.6,6.1c4.3,0-0.4,3.2,1.5,4c-4.7,0.7-9.4,0.1-14,0c-1-2.7-0.9-4.6,2.8-4.1
		c0.6,0.1,1.5,0.5,1-1.2C219.9,529,222.6,528.1,226.3,528.8z"/>
	<path class="st71" d="M197.3,567.6c-3.7,0-7.3,0-11-0.1c-0.2-1.5-0.8-2.2-2.5-2.4c-1.5-0.1-1.5-1.4-0.9-2.7c1-1.9,1.5-0.7,2.4,0.1
		c1.2,0.9,3.1,0.6,3.7,2.6c0.4,1.3,1.3,0.6,1.7,0c2.8-4.3,5.9-1.5,9.5-0.8C199.2,565.8,196.6,565.3,197.3,567.6z"/>
	<path class="st8" d="M170.3,560.8c-1.2-0.7-3.4,1.5-3.7-0.5c-0.4-2.1,1.2-4,3.2-5.1c0.3-0.2,1,0,1.4,0.2c0.7,0.4,0.8,1,0.3,1.6
		C170.5,558.1,169.2,559.1,170.3,560.8C170.3,560.8,170.3,560.8,170.3,560.8z"/>
	<path class="st25" d="M190.9,554.2c1.9,4.5-0.3,6.2-3.5,7.3C186.2,558,189.9,557,190.9,554.2z"/>
	<path class="st72" d="M311.3,560.8c-0.8,0.1-1.9,0.6-2.4,0.2c-1-0.7-0.4-1.7,0.3-2.5c1.2-1.5,2.1-3.4,4.9-3.3
		C313.2,557.3,310.6,558.3,311.3,560.8C311.3,560.8,311.3,560.8,311.3,560.8z"/>
	<path class="st63" d="M347.3,561.8c-1.4,1.4-2.4,3.6-5,3C343.3,562.5,343.5,559.1,347.3,561.8z"/>
	<path class="st9" d="M197.4,538.8c1-1.6,1.9-3.3,3-0.1C199.3,538.8,198.3,538.8,197.4,538.8z"/>
	<path class="st55" d="M709.2,352.6c0.1-3.6,0-7.3,0.2-10.9c0.2-4.2,2.3-6.4,6.8-5.8c4.9,0.6,9.9,0.9,14.7-0.9
		c1.8-0.7,2.3,0.4,2.7,1.9c0.6,2.1,1.3,4.1,2.1,6.3c1.3-2.2,2.7-4.2,5.2-2.9c2.5,1.4,1.9,3.9,1.3,6.2c-3.7,2.4-3.4,5.8-2.4,9.4
		c1.4,5.2,2.7,10.5,4,15.7c-7.5,6-15,12.1-22.8,18.3c-3-5.4-5.8-10.4-8.7-15.5c2.8-3.5,3.1-12.7,0.3-15.9
		C711,356.9,710.2,354.7,709.2,352.6z"/>
	<path class="st73" d="M336.3,279.8c0.6,3.7-2.9,2.7-4.8,3.5c1.2,2.1,2.4,2.5,4.3,1.8c2.2-0.9,2.3,1.9,1.9,2
		c-4.2,1.8-2.3,6.6-4.7,9.2c1.8,1.7,5.4-2.3,6.6,2.2c0.2,0.9,1.9-1.4,1.9-1.6c-0.8-2.6,1-2.2,2.3-1.9c2,0.4,0.9,1.4,0.5,2.5
		c-2,5.8-4.7,6.7-11,3.2c-2.6-1.4-4.8-2.7-7.1,0.6c-1.3,1.8-3.7,0.6-5.5,1.2c-1.7,0.5-3.1,2-5.3,3.5c2.6,0.6,4.1,2.4,5.8-0.9
		c1-2,5.1-2.8,6.1-1.7c2.6,2.8-1.1,2.6-2.5,3.4c-0.5,0.3-1.3-0.1-1.7,0.8c1.2,2.1,2.5,0.4,3.7,0c1.1-0.4,2.4-1.1,2.8,0.6
		c0.3,1.3-1,1.5-2,1.6c-4.3,0.6-6.7,4.3-10.3,6v0c-1.1-0.7-2.6-1.3-1-2.9c0.5-0.6,2.3-1,0.6-1.9c-0.7-0.4-1.6-2.7-3-0.5
		c-0.7,1.2-1.9,1.5-2.6,0c-0.7-1.4-3.5-2.1-1.7-4.4c1.2-1.6,0.6-3.5,0.8-5.3l0,0c3.6-0.4,8-0.7,7.9-5.2c0-1.9-0.4-4.9-1.8-7.2
		c-1.8,0.4-1.2,3.8-3.4,2.7c-1.3-0.7-0.4-2.4-0.2-3.7c0.2-1.7,0-3.5,0-5.4c5.3,2.8,7.9,7.5,10.9,12.2c-3.2-5.6-0.7-10.5,1.2-15.4
		c0.4-1.1,1.9-1.4,2.1-0.1c1,5,3.4,2.3,5.5,1.2C333.8,279.5,335,278.9,336.3,279.8L336.3,279.8z"/>
	<path class="st21" d="M317.3,354.8c1.8-2.4,2.9-5,3-8c0.6-0.8,0.1-1.4-0.3-2c-0.5-0.7-1.3-0.7-2.1-0.8c-1.2,0-2.5,0.1-3.7-0.2
		c-1.8-3.8-5.8-4.9-9-7c0.1-0.2,0.3-0.4,0.4-0.5c0.6-0.5,1.7-0.8,1.9-1.6c1.1-4.4,3.5-5.2,7.5-2.3c-0.6-3.2-4.1-4.9-1.7-7.9
		c0.7-0.3,1.4-0.2,2,0.3c1-0.5,1.6-0.1,2.6,0.5c2.8,1.9,5.6,1.4,7.8-1.1c2.4-2.8,4.5-2.8,7.2,0.7c-2.8,0.6-5.9,0.7-6.8,3.9
		c-0.5,1.7,2.1,1.2,2.4,2.6c-1.2,1.6-2.8,0.2-4.1,0.7c-0.3,0.1-4-0.5-1,2.3c1.9,1.8-1.6,1.6-2.9,2.6c1.2,0.9,2.3,1.8,3.5,2.7
		c1.4-1.5-0.1-5.5,3.7-4.2c1.2,0.4-1,1.8-0.4,3.3c2.5-0.5,5.9-2,5,3.1c-0.2,0.5-0.5,0.8-1,1c-1-1.4-3.8,2.5-4-1.4
		c-1.3,1-3.8,1-3.6,3.1c0.3,3.2-1.9,5.5-2.5,8.3C321,355.4,318.9,354.6,317.3,354.8z"/>
	<path class="st21" d="M305.4,249.8c-1.7,0.4-3.6-1.3-5.1,0.5c-2.4-2.8-5.4-1.9-8.4-1.6c-0.6,0-1.3-1.3-2.5-2c4,4.6-1.3,9.5,1,14.2
		l0,0c-3.3-0.8-5.8-3-9-5c3-1.3,7.7-0.8,6.3-6c-0.2-0.7,0-1.5-0.6-2.3c-1.1-1.4-3.5-2.3-2.1-5c1.1-2.1,3.4-4,7.2-5
		c-1.1,2.6-4.1,3.6-4.5,6.3c4.8,1.2,9.2-0.4,13.5-2.7c-0.2-0.7-2.5-0.8-1.6-2.4c0.2-0.4,1.1-0.6,1.7-0.7c0.9,0,1.8,2.4,2.5,0.1
		c0.5-1.5-1.3-1.6-2.2-2.1c-0.8-0.5-2,0.1-2.9-1.2c1-1.2,2.8-0.8,4.1-1.5c2-1.2,4.4-1.5,1.4-4.2c-0.6-0.6-1.1-1.4-0.7-2.2
		c0.6-1.4,1.7-0.6,2.5-0.3c4.7,1.5,5.5-1.1,5.2-4.8l0,0c2.2,0,3.1,0.3,2.4,3.2c-0.8,3.5-5.7,4.7-4.5,9.2c0.2,0.9-2.7,0-4,0.8
		c0.2,1.1,1.3,1,1.9,1c2,0.1,4.4-0.9,5.4,2c-2.5,0.4-2.3,6-6.5,3.4c-1-0.6-2.4,0.2-2.6,1.6c-0.1,1.5,0.2,2.6,2.3,1.5
		c1-0.5,2.2,1,2.5,1.9c0.7,2.1-1.6,0.8-2.1,1.6C305.8,248.6,305.6,249.2,305.4,249.8L305.4,249.8z"/>
	<path class="st74" d="M350.3,249.7c-2.1,4.9-6.2,7.2-10.8,7c-4.3-0.2-0.5,2.8-1.2,4.1c-0.1,0.7-0.5,1.2-1.2,1.6
		c-0.6,0.3-1.3,0.4-2,0.3c-0.6-0.2-1.3-0.4-1.8-0.8c-2.4-1.1-4-2.8-2.2-5.4c1.5-2.1,3-3.8,0.6-6.5c-1.1-1.2-0.5-3.1,1.7-3
		c1.9,0.1,2.4-0.6,1.3-2c-0.6-0.8-0.7-3.9-3-1.3c-0.9,1.1-1.2,0.4-1.5-0.6c-0.6-1.9-0.5-3.6,1-5c2.2-2.1,2,0.5,2.9,1.4
		c1.4,1.3,2.2-0.8,3.1-1.5c2.1-1.4,7.3,0.2,7.9,2.5c0.2,0.9,0.1,1.8-1.3,2.1c-3.5,0.7-5.1,3.7-6.9,6.3c-1,1.5-0.6,3.2,0.3,4.7
		c0.7,1.2,1.8,1.4,3,1.1c1.4-0.3,1.5-1.3,1.3-2.7c-0.2-1.6-0.1-3.3-0.1-4.9c1.8,0.3,3.4,5.4,5.6,0.3c0.1-0.1,1.5,0.3,2.3,0.5
		C350.2,248.1,350.8,248.7,350.3,249.7z"/>
	<path class="st75" d="M239.6,309.7c-6.1-0.1-11.2-5.1-11.3-11c0-5.9,5.5-11.7,11.3-11.8c5.6-0.1,11.7,6.1,11.6,11.6
		C251.1,304.9,246,309.8,239.6,309.7z"/>
	<path class="st68" d="M341.3,220.8c-2.8-2.6-7.8-1.2-9.6-6.3c-1.3,5.8-3.5,4.1-6.3,1.1c3.3,0.1,4.3-5.6,8.7-2.3
		c1,0.7,3.1-1,3.3-2.2c0.2-1.3-1.1-2.8-2.5-3.4c-2.2-1-2.1,0.5-2,1.9c0,0.2-0.3,0.6-0.5,0.8c-1,0.6-2.6,0-2.6-0.5
		c-0.2-2.7-0.7-5-2.7-7c-0.3-0.3,1.8-1.2,2.9-1c2.5,0.4,4.7,1.7,7.5,0.2c1.2-0.7,2.8,0.6,2.4,2.7c-0.5,2.6,0.5,3.1,3.2,3.5
		c3,0.4,4.2,3.8,6,6.1c0.7,0.9-5.5,3.1-7.2,2.3c-1.5-0.7-2.2-3.4-4.8-1.6C338,217.3,342.1,217.4,341.3,220.8L341.3,220.8z"/>
	<path class="st76" d="M357.3,231.8c-0.2-1.7,4.4-3.2-0.2-5.2c-1.6-0.7,0.4-3,2-3.3c4.2-1,4.3-1,2.5-5.1c-0.5-1.1-0.2-2,0.7-2.6
		c1-0.7,3-2.1,3.4-1.1c1.5,3.1,4.6,3.1,6.9,4.6c0.4,0.3,0.4,1.2,0.6,1.8c-0.1,0.2-0.1,0.4-0.2,0.6c-2.1,2.2,0.7,5.1-0.9,7.4
		c-1.3,0-2.7,0-4,0c-0.7-1.2-0.7-2.7-0.9-2.9c0.5,0.6,0.1,2.5,0.9,4c0,0.3,0,0.6,0,1c-1.4,2.8-3.2,4.4-6.5,2.2
		C360.6,232,358.6,233.3,357.3,231.8z"/>
	<path class="st68" d="M337.3,226.8c4-0.2,4.3-2.9,4-6c0,0,0,0,0,0c3.5-1.5,7-2.9,11-2.1c0.9,0.2,2.3-1.5,2.8,0.5
		c0.3,1.3-0.9,1.5-1.9,1.8c-2.7,0.8-3.3,2.8-3.5,5.6c2.8-1.2,3.4-4.7,6.6-4.6c0.3,4.1-3.6,5.8-5,8.9l0,0c-3.3,0.1-6.5,0.1-9.3-2.1
		c-1.4,1,0.1,2,0,3c0,1.3-0.9,2.3-2,2.5c-1.6,0.2-1.9-1.2-1.6-2.3C339.2,229.7,336.6,228.7,337.3,226.8L337.3,226.8z"/>
	<path class="st74" d="M321.3,344.8c0,0.8-0.2,1.6-1,2c-3.3,1-4,2-4.3,5.8c-0.1,1.2-0.8,1.7-1.8,2.1c-0.7,0.3-1.4,0.7-2.1,1.1
		c4.4,6.7-3.7,1.9-4,4.3c0,0.2-0.5,0.4-0.7,0.6c-2.6-3,2.6-4.7,1.3-7.4c-1.4-0.1-1.7,1.1-2.1,1.9c-1,1.6-2.6,2.3-4,3.2
		c-0.2-2-1.6-3.2-2.9-4.6c-0.4-0.5-0.1-1.5,0.6-1.6c6.1-0.6,8.9-6.5,14.1-8.4c1-1.5,2.6-0.9,4-1
		C319.2,343.6,320.6,343.8,321.3,344.8z"/>
	<path class="st21" d="M290.3,319.8c-0.8-0.1-1.8-0.1-1-1.4c2.8-4.4,6.7-4.5,10.3-0.2c0.6,0.7,1,1.4,2,0.8c2.5-1.6,2.8,0.8,3.3,2.1
		c1.1,2.6,2.8,4.6,5.5,5.8c0.2,0.2,0.3,0.4,0.5,0.5c-0.3,4.1-4.1,6-5.5,9.5c0,0,0,0,0,0c-0.6,0.9-1.2,1.8-1.8,2.7
		c0.6-3.6-1.8-7.4,1.1-10.8c1.1-1.3,0.4-3.1-1.5-3.1c-1.8,0-3.9-2.8-5.4,0.5c-0.5,1.1,1.1,2.2-1.2,3.8c0.3-4.5-2.4-8.2,0.9-13.1
		C294.3,318.1,292.3,318.9,290.3,319.8C290.3,319.8,290.3,319.8,290.3,319.8z"/>
	<path class="st77" d="M350.3,249.7c-0.3-0.7-0.7-1.3-1-2c0.3-3.6-1.5-6.9-2-10.4c-0.2-1.8-1.2-3.3,0.6-4.6c2.6-1.9,1.3,2.4,3.2,2.2
		c1.4-0.2,0.9,2.5,2.6,2.3c1.5-3.1-2.3-4.1-2.4-6.5c0,0,0,0,0,0c1.8-0.1,3.9-2,5,1c1.5,1.6,5.1,1.4,4,5c-4,1.5-4.3,7.1-8.8,8.2
		c-0.1,0-0.3,2.7,0.8,1.9c3.3-2.5,4.1,1.1,6,1.9l0,0c-0.1,0.8-0.7,2.2-1.2,1.8C354.9,248.9,352.5,250.8,350.3,249.7z"/>
	<path class="st21" d="M321.3,240.8c-1,0.6-0.9,1.7-1.2,2.6c-0.4,1.5-1.7,1.6-2.8,1.1c-1.1-0.5-0.8-1.4-0.5-2.5
		c0.7-2.1,3-4.4-0.8-6.6c-0.8-0.4,0.2-4.3-1.3-6.5c-0.3-0.4,0.6-1.9,1.8-2c1.3-0.2,1.9,0.8,2.1,1.7c0.6,2.8,1.7,5.3,4.4,7.3
		c0.2-3.6,5-4.1,5-8.1c0-0.7,1.4-1.3,1.9-0.4c1,1.8,2.8,4.1,2.3,5.6c-0.7,1.9-2,4.5-5.2,4.5C324.7,237.6,321.6,236.8,321.3,240.8
		L321.3,240.8z"/>
	<path class="st21" d="M305.3,249.8c2.4,1.1,4.8-0.5,8.4-0.4c-2.5,1.8-1,5.7-5.1,4.7c-0.3,1.8-0.9,3.6-0.7,5.4
		c0.4,4.8-0.8,7.9-6.5,7.4c-2.1-0.2-5.4,2.6-6.1-0.4c-0.6-2.8,3.9-2,5.6-3.8c1-1,2.7,0,3.7-1.4c0.2-2.4-2.9,0.3-3-1.8
		c0-1.9,3.1-0.6,2.7-2.8l0,0c1.1-0.6,2.2-1.2,0.9-2.5C303.9,252.7,304.6,251.2,305.3,249.8C305.4,249.8,305.3,249.8,305.3,249.8z"/>
	<path class="st78" d="M317.2,277.3c-0.7-3.5,0.6-7.7-3.6-10.1c-0.6-0.4-1.8-2-0.5-3c1-0.7,2.4-1.1,3.7-1.2c1.3-0.1,1.4,1.1,1.5,2.1
		c0.2,1,0.6,1.9,0.6,2.9c0,1-0.3,2.1,1,2.4c1.1,0.2,1.2-0.8,1.5-1.6c0.3-0.8,0.8-1.8,1.6-1.6c1.9,0.6,0,1.4,0,2.1
		c1.1-0.3,1,4.3,3.2,0.7c0.6-0.9,2.4-1.9,3.3-0.2c0.7,1.3-0.1,2.8-1.4,3.3c-2.8,1.2-4.6,6.1-8.8,2.5
		C318.9,275.2,318.5,277.4,317.2,277.3z"/>
	<path class="st72" d="M308.3,206.8c-0.3,1.4-0.4,2.9-0.9,4.3c-0.7,1.7-1.2,2.6,1.3,1.4c1.8-0.8,1,0.8,1.2,1.6
		c0.7,2.5-0.1,5.3,1.4,7.7c0,0,0,0,0,0c-3.2,0.3-4.8-2.6-7.2-3.9c-1-0.5-0.6-3.3-3.4-2.7c-1,0.2-1.1-1.5,0-2.1
		c2.8-1.6,2.3-3.9,1.4-7.2C304.5,207.1,306.4,207.6,308.3,206.8L308.3,206.8z"/>
	<path class="st73" d="M315.3,324.8c-0.7,0-1.3,0-2,0c-0.9,0.8-1,2.8-3,2c0,0,0,0,0,0c-0.7-1.7-1.6-3.2-3.2-4.5
		c2.1-1.2,4.7,0.4,6.8-1.9c-2.5-0.8-5.2-0.8-6.5-3.7c-0.7-1.6-0.1-2.8-0.1-4.2c0-0.7,0.4-1.3,1.2-1.2c0.4,0.1,0.8,0.5,1.2,0.8
		l5.7,5.6c1.4,0.2,1.6-0.8,1.8-1.8v0c1.7,1.4,0.3,2.5-0.1,3.8C316.7,321.3,314.4,322.5,315.3,324.8z"/>
	<path class="st73" d="M362,212.5c1.4-1.4-0.3-4.9,3.8-4.5c2.2,0.2,1.6-2.2,0.6-3.7c-0.8-1.1-0.7-3,0.6-2.1c2.3,1.5,5.1,0.8,7.1,2.3
		c2.9,2.2,0.4,3.9-1.1,5.2c-1.3,1.1-4.5-0.3-4.1,3.2C366.6,213,364.4,211.9,362,212.5z"/>
	<path class="st79" d="M331.4,342.7c0.3-0.3,0.6-0.6,1-1c3.3,0.6,6,1.3,4.7,5.9c-0.9,3.3,2.7,2.1,3.9,3.8c0.8-3,0.5-5.1-1.6-6.7l0,0
		c4.4-0.4,4.8,3.2,4.2,5.6c-0.7,2.6-3.9,3.6-6.7,4.2c-0.2,0.1-0.8-0.2-0.8-0.4C335.9,349.8,330.3,347.6,331.4,342.7z"/>
	<path class="st73" d="M296.3,302.8c0.2-4.4,3.5-5.1,6.6-4.5c2.7,0.5,4.4-0.1,5.1-2.3c0.7-2.2,2.1-1.7,3.4-1.5
		c0.9,0.2,2.2,0.1,2.4,1.3c0.2,1.2-0.8,1.8-1.8,1.9c-2.3,0.2-2.9,1.1-1.7,3.1c0,0,0,0,0,0c-0.8-0.1-2.1-0.4-2.3-0.1
		c-1.3,2.2-1.3,2.5-3.8,1.4C301.4,300.8,299.1,304.1,296.3,302.8L296.3,302.8z"/>
	<path class="st79" d="M367.3,184.8c0.3-3.9-1.5-5.4-5.4-4c-1.2,0.4-2.1,1-3-0.2c-0.3-0.5-0.5-1.3-0.4-1.9c0.3-1.5,1.4-1.3,2.7-1.3
		c1.8,0.1,3.4,0,4.5-2.2c0.7-1.4,2.6-3.1,5.3-2.8c-1,2.6-2.1,5-0.4,7.9C372.5,183.5,369.8,184.3,367.3,184.8L367.3,184.8z"/>
	<path class="st74" d="M352.3,192.8c0.3,1.3-0.6,2.9,0.6,4c1.1-2.4,3.6,2.1,4.7-1.1c0.6-1.5,2.4-1.4,3.2-0.1c0.9,1.4-0.3,3-1.4,3.2
		c-3.7,0.5-5.7,2.7-7.6,5.7c-1.1,1.8-2.6,0.2-2.4-1.2c0.4-3.1,0.9-6,0.2-9.2C349.3,192.7,351.3,192.9,352.3,192.8L352.3,192.8z"/>
	<path class="st74" d="M288.3,330.7c-0.4,2.1,2.5,1.2,2.4,3.3c-3.8,2.5-6.1-0.5-6.9-3.3c-0.6-2-3.8-5.3,0.6-7.3
		c0.4-0.2,0.1-1.8,0.3-2.8c0.3-1.1-1.4-3.1,0.6-3.3c2-0.2,2.3,2.1,1.8,3.3c-1.2,2.5,2.6,5.7-1.1,7.9c-0.4,0.2,1.2,1.1,2.2,1.2
		c0.2,0.2,0.3,0.4,0.3,0.7C288.5,330.6,288.4,330.7,288.3,330.7z"/>
	<path class="st74" d="M292.3,278.8c0-0.6,0.4-1.5,0.1-1.8c-1.1-1-2.8-1.8-1.6-3.5c1-1.4,2.4-0.1,3.6,0.4c1.2,0.4,2.4,1,2.3-1.1
		c-0.1-1.1-0.9-2.6,1-2.6c1,0,2.6,0.9,2.8,1.7c0.5,2.1,2.5,3,3.5,5.3C300,277.7,296.2,278.2,292.3,278.8L292.3,278.8z"/>
	<path class="st80" d="M358.9,262.2c0,1,0.7,2.7-1.4,3.3c-2.6,0.8-2.2-2.8-4.4-3.2c-1.2-0.2-0.5-1.5,0.4-2.5
		c1.4-1.6-0.9-2.1-1.8-2.4c-0.9-0.3-2.4-0.4-2-1.4c0.6-1.4,1.8-2.8,3.1-3.6c1-0.6,1.9,0.8,1.9,1.7
		C355.2,257.1,360.2,257.9,358.9,262.2z"/>
	<path class="st77" d="M352.4,192.8c-1-2.7-2.6-5.7,2.5-5.6c0.3,0,0.6-0.3,0.8-0.5c4.4-3.7,5.4-3.3,7,2.7c0.3,0.9,0.9,1.9,0.1,2.8
		c-0.3,0.3-0.9,0.5-1.3,0.4c-1.5-0.5-1.1-1.8-1-2.9c0-0.5,0.1-0.9,0.1-1.6C356.7,187.8,356.7,194.2,352.4,192.8
		C352.3,192.8,352.4,192.8,352.4,192.8z"/>
	<path class="st74" d="M335,311.9c-1.2,1.3-3,1.2-4.4,2c-1.1,0.7-3.1,1.4-2.2,3.2c1.5,3-0.7,2.7-2.2,2.6c-1.7-0.1-3.1,3-4.7,0.5
		c-1.2-1.8,1.2-2.8,1.6-4.5C323.7,312.3,332.2,309.9,335,311.9z"/>
	<path class="st73" d="M296.3,302.8c0.7,1.6,2.8,2.8,1.4,5.1c-0.3,0.4-0.5,0.9-0.7,1.3c-5-3-8.1,3.7-12.7,2.6l0,0
		c0.3-0.9,1.1-1.7,0.6-2.8c-0.8-1.9,0.2-2.9,1.9-3.1c0.6-0.1,3.4-2.9,2.3,1.1c-0.1,0.5,0.9,0.5,1,0.2
		C291.5,304.6,294.8,305,296.3,302.8L296.3,302.8z"/>
	<path class="st74" d="M321.3,260.8c-1.1,0.3-2.2,0.9-3.3,1c-6.8,0.7-7.6-0.5-5.2-7.6c3.7,9.8,7.6-2.3,11.7,0.4
		C324.2,257,321.3,258.2,321.3,260.8L321.3,260.8z"/>
	<path class="st80" d="M280.3,303.8c-1,0-2,0-3,0c-1.1,0-2.5,0.2-2.8-1.3c-0.2-1.3,1.1-1.4,1.9-1.8c1.1-0.6,3.1-1.7,2.1-2.8
		c-3.9-4.1,1.6-4.9,2.4-7.3c0.3-0.9,1.8-0.9,2.6-0.2c1,0.8,0.9,2.1,0,2.5c-3.6,1.9-3.4,4.1-1.5,7.2
		C283,301.3,280.8,302.4,280.3,303.8L280.3,303.8z"/>
	<path class="st78" d="M283.3,277.8c2.8,0.3,3.3,3.6,5.9,4.5c1,0.4-0.2,2.3-1.3,2.3c-3.7,0.1-8,1.6-10.6-2.8l0,0
		c0.1-0.6,0.1-1.3,0.2-1.9C280.8,283,281,277.3,283.3,277.8L283.3,277.8z"/>
	<path class="st81" d="M360.3,236.8c-0.2-2.5-3.9-2.4-4-5c0.3,0,0.7,0,1,0c1.9,0.5,3.9-1,5.9,1c1.8,1.6,3.3-1.3,5-2
		c2.4,0.2,3.2,2.2,4,4c-1.9,1.4-3.2,3.6-5.6,4.3c-0.4-0.1-0.7-0.4-0.9-0.8c-0.3-0.5-0.5-1-1.2-1c-0.4,0-0.8,0-1.2,0.1
		C362.4,237.3,361.3,237.4,360.3,236.8L360.3,236.8z"/>
	<path class="st73" d="M337.3,261.7c0.3-0.3,0.7-0.6,1-1c2.2-1.9,4.4-3.3,6,0.5c1.1,2.6,3-0.3,4.5,1.2c-3.6,1.3-0.7,4.1-1.5,6.3l0,0
		c-1.8-1.7-6.1,0.5-6-4c-0.5-0.6-1.2-0.9-1.9-1.1C338.5,263.3,337.6,262.8,337.3,261.7z"/>
	<path class="st82" d="M295.3,293.8c1.2,1.5,2.4,1.9,4.1,0.6c0.9-0.7,2-0.3,2.3,0.8c0.5,1.5-1.1,1.1-1.7,1.7
		c-3.4,3.2-7.4-1.3-10.8,0.9l0,0c-0.9-0.6-1.8-1.2-3.3-2.3C289.6,294.8,292.5,294.3,295.3,293.8L295.3,293.8z"/>
	<path class="st80" d="M329.8,222.3c-1.5,3-4.3,2.6-6.6,3c-1.4,0.2-3.1-1.4-2.5-2.9c0.6-1.5,1.3-4.2,4-3.3
		C326.6,219.8,328.9,220.2,329.8,222.3z"/>
	<path class="st73" d="M367.3,196.7c0,1.3-0.4,2.3-1.4,2.7c-2.5,0.9-3.3,2.9-3.5,5.2c-0.1,1.4-0.8,2.2-2.2,2.1c-0.7,0-1.9,0.4-2-0.7
		c-0.1-0.9,0.3-2,0.8-2.7c1.7-2.4,3.5-4.8,5.2-7.1c0.5-0.7,1-1.3,2-1.1C367.2,195.3,367.2,196.2,367.3,196.7z"/>
	<path class="st74" d="M305.4,286.8c-1.5,0-3.5,0.1-3.6-1.7c-0.1-1.6-0.1-4.5,1.6-4.7c3.2-0.3,1.2-3,2.6-3.9
		c3.9,0.5,2.7,3.5,2.9,5.9c0.1,1.5-0.6,1.2-1.4,1C303.1,282.4,304.5,284.7,305.4,286.8L305.4,286.8z"/>
	<path class="st74" d="M373.3,237.8c3.8-0.3,1.7,2.7,1.9,4c0.3,2,0,5-2.1,5.5c-3,0.7-2.8-2.7-3.8-4.5c-0.1-0.2-0.2-0.4-0.2-0.6
		c0.2-1.6,1.5-2.6,2.5-3.6C372.1,238.1,372.7,237.8,373.3,237.8z"/>
	<path class="st78" d="M277.3,281.8c-0.8,2.8,2.3,6-1.2,9c-1.3-3.7-2.1-7.8-7.7-5.6C271.3,283,274.1,281.7,277.3,281.8
		C277.3,281.8,277.3,281.8,277.3,281.8z"/>
	<path class="st21" d="M292.3,278.8c1.4,1.7,3.3,2.1,5.3,2c1.8,0,2.9,0.7,2.5,2.7c-0.3,1.6-1.5,2.6-2.8,2.1c-3-1-5.5-2.9-6.6-6
		C290.7,279.5,291.8,279.1,292.3,278.8C292.3,278.8,292.3,278.8,292.3,278.8z"/>
	<path class="st77" d="M360.3,236.8c1.3-0.9,2.7-0.9,4,0c1.3,1.3,2,2.9,1.8,4.8c-0.2,0.5-0.4,0.9-0.8,1.3c-0.7,1.2-1.7,2.5-3,1.6
		c-1.4-0.9-2.8-2.3-2.6-4.3C359.9,239,360.1,237.9,360.3,236.8z"/>
	<path class="st21" d="M365.3,168.6c-1.7-1.4-4.1-2.1-4.7-4.5c-0.3-1.2,1.4-1.6,2.2-1c2.2,1.6,6.4-1.2,7,2.8
		C370.1,168,367,167.7,365.3,168.6z"/>
	<path class="st80" d="M340.3,262.8c0.8,0.4,1,1.2,1,2c-3.5,1.1-0.5,4.9-3.1,6.6c-1.4-3.3-5.8-5-5-9.6c0.7,0,1.4,0,2.1,0
		C336.9,262.8,338.4,263.7,340.3,262.8z"/>
	<path class="st68" d="M328.6,191.2c1.8-1.8,3.9-1.9,5.7-2.6c1.4-0.5,2.9-0.9,2.2,1.5c-0.5,1.6,0.3,1.8,1.6,2.3
		c1.5,0.5,1,1.8,0.4,2.9c-0.5,0.9-0.9,2-2,1.9c-1.7-0.2-1.3-1.9-1.3-2.8C335.4,189.2,331.3,192.3,328.6,191.2z"/>
	<path class="st80" d="M362.9,274.5c-0.5-0.2-1.4-0.6-2.5-0.2c-1.1,0.4-2.4,1-2.8-0.7c-0.4-1.7,1.1-1.7,2.2-1.7
		c1.2,0,2.2-0.5,3.2-1.1c1.1-0.7,2.3-2.3,3.8-1c0.8,0.6,0.4,1.8,0.1,2.8C366.3,274.1,365.3,275.1,362.9,274.5z"/>
	<path class="st74" d="M288.3,330.7c0-0.3,0-0.7,0-1c3.3-1.9,5-4.2,1.8-7.7c-0.7-0.8-0.1-1.5,0.2-2.3c0,0,0,0,0,0
		c4.1,1.6,4.3,5.2,3.9,8.7C293.8,332.5,290.4,330.1,288.3,330.7z"/>
	<path class="st78" d="M318.3,214.8c-0.4,5-1.6,6.9-3.9,5.7c-1.4-0.7-3.1-1.7-2.9-3.6c0.2-1.9,2-2.1,3.4-2.3
		C316.1,214.4,317.2,214.7,318.3,214.8L318.3,214.8z"/>
	<path class="st66" d="M369,279.5c-2.4,1.9-3.4,4.1-5.8,4c-0.6,0-2.3-0.2-1.7-1.5c0.9-2.1,0-5.6,3.3-5.9
		C366.9,275.8,365.6,279.7,369,279.5z"/>
	<path class="st78" d="M342.3,319.3c-1-1.8-5-1.7-3-4.8c1.1-1.8,4.1-3,5-2.1C347.6,315.2,342,316.5,342.3,319.3z"/>
	<path class="st82" d="M366.5,258.3c1.6,0.6,2.7,1,3.8,1.3c1.5,0.4,2.4,1.2,1.5,2.8c-0.7,1.3-1.6,1-2.8,0.2c-1.4-1-3-2.2-4.9-1
		c-0.9,0.5-1.8,1.1-2.4-0.2c-0.5-1.5,0.9-1.4,1.7-1.7C364.7,259.2,365.5,257.6,366.5,258.3z"/>
	<path class="st21" d="M321.3,240.8c2.4-1.4,4.1-1.4,3.6,2.1c-0.1,0.5,0.2,1.1,0,1.4c-1.2,1.6,0.5,5-1.9,5c-3.5,0-0.1-3.1-1.1-4.7
		C321.2,243.6,321.5,242.1,321.3,240.8C321.3,240.8,321.3,240.8,321.3,240.8z"/>
	<path class="st83" d="M372.3,194.8c0.7,0.9,1.4,1.7,2.1,2.7c0.9,1.3,1.5,2.8,0,3.9c-1.2,0.9-2.9,0.8-4.2,0.1
		c-1.6-0.9-0.5-2.3-0.1-3.4c0.4-1.1,0.7-2.1,1.1-3.2C371.7,194.4,372,194.3,372.3,194.8z"/>
	<path class="st84" d="M337.3,337.8c-2-0.3-1.6,2.3-3.2,2.5c-3-3.2,2.1-5.8,0.6-8.8c0.6-0.2,1.2-0.6,1.8-0.5c1,0.3,2.1,1.1,1.4,2.1
		C336.9,334.7,337,336.2,337.3,337.8L337.3,337.8z"/>
	<path class="st74" d="M337.3,183.3c-0.2,1.5-0.3,3.4-2.4,2.9c-1.7-0.3-2.7-1.9-2.5-3.8c0.2-1.8,1.7-2.5,3.1-2.5
		C337.9,180,337.1,182,337.3,183.3z"/>
	<path class="st74" d="M356.2,207.7c1.5,2.3,3.1,3.9,3.7,6.1c0.3,1,0.6,2.1-0.5,2.6c-1.3,0.6-2.4-0.2-2.7-1.4
		C356,212.9,354.6,210.8,356.2,207.7z"/>
	<path class="st76" d="M305.3,286.8c0.4,2,4,0,3.6,2.8c-0.4,2.4-3.4,2.3-4.4,4.3c-0.3,0.6-1.2,0.4-1.6-0.2c-0.5-0.7-0.4-1.5-0.3-2.3
		C303,289.4,305.3,288.7,305.3,286.8C305.4,286.8,305.3,286.8,305.3,286.8z"/>
	<path class="st78" d="M281.1,235.9c-0.7,1.4-1.3,3.3-2.9,3.6c-2.6,0.4-1.5-2.3-2.2-3.6c-0.8-1.5,0.3-2,1.7-2
		C279.2,233.8,280.6,233.9,281.1,235.9z"/>
	<path class="st80" d="M269.4,331.8c-0.2,0.9,0.4,2.8-1.4,2.3c-1.3-0.4-3.4-0.9-3.1-3.1c0.2-1.2,0.8-2.9,2.3-2.9
		C269.4,328.2,269.2,330.2,269.4,331.8z"/>
	<path class="st72" d="M346.5,337.6c2.7,2.5,3.8,4.1,1.7,6.3c-1.1,1.1-1.9,2.4-3.5,0.7c-1.5-1.6-1.2-2.5,0.9-3
		C347.2,341.2,346.7,339.6,346.5,337.6z"/>
	<path class="st72" d="M293.3,226.8c3-1.7,4.7,0.9,6.9,2c0.6,0.3,0.9,1.4,0.2,2.2c-1,1-2.1,0.9-3.1,0
		C295.9,229.7,294.7,228.2,293.3,226.8L293.3,226.8z"/>
	<path class="st73" d="M347.3,268.8c2.2,0.7,4.6,1.3,4.7,4c0.1,1.5-1.6,2.3-2.9,1.8C345.9,273.6,347.9,270.7,347.3,268.8
		C347.3,268.8,347.3,268.8,347.3,268.8z"/>
	<path class="st21" d="M320.3,249c0,1.7-0.8,2.8-1.3,2.3c-1.5-2-4.6-2.1-5.5-4.6c-0.3-0.9,0.5-1.9,1.3-1.4
		C316.9,246.4,318.8,247.9,320.3,249z"/>
	<path class="st73" d="M301.6,307.8c1.2,0.1,2.6,0.9,2.2,1.5c-1,1.6-2.5,3.2-4.1,4.1c-0.8,0.5-1.4-1.1-1.3-2.1
		C298.8,309.6,299.3,307.8,301.6,307.8z"/>
	<path class="st21" d="M336.3,279.8c0-3.1,1.1-4.9,4.5-3.2c1.2,0.6,2.7,1.3,2.3,2.8c-0.7,2.4-1.9,0.2-2.9,0.2
		C338.9,279.4,337.6,279.6,336.3,279.8C336.3,279.8,336.3,279.8,336.3,279.8z"/>
	<path class="st21" d="M373.3,220.8c2.2-2.6,0.4-5.5,0.6-8.3c0.5,0,0.9-0.1,1.4-0.1c0,4.8,0,9.6,0,14.4
		C371.4,225.8,370.7,223.8,373.3,220.8L373.3,220.8z"/>
	<path class="st85" d="M290.3,260.8c4,1.2,0.9,3.3,0.5,5c-0.5,1.8-1.1,4.1-4.4,2.1C289.3,266.2,289.2,263.2,290.3,260.8
		C290.3,260.8,290.3,260.8,290.3,260.8z"/>
	<path class="st72" d="M343.9,289.5c-1.4,3-4.1,4.7-6.1,3.9c-2.6-1-1.2-2.9,1-3.2c1.2-0.1,2.2-0.3,3.3-0.7
		C342.4,289.4,342.9,289.5,343.9,289.5z"/>
	<path class="st84" d="M276.4,305.9c1.2,0.5,2.1,1.3,1.6,1.9c-1.1,1.6-2.5,3.1-4.5,3.6c-0.9,0.2-2-0.7-1.8-1.9
		C272.1,306.8,276.1,308.8,276.4,305.9z"/>
	<path class="st73" d="M373.3,237.8c-0.3,0.3-0.7,0.7-1,1c-2,0.6-4,3.7-6,0c2.2-1,2.5-4.9,6-4C372.7,235.8,373,236.8,373.3,237.8z"
		/>
	<path class="st81" d="M373.3,220.8c-1.5,2.7-0.2,4.5,2,6c0,1.3,0,2.6,0,4.3c-1.2-0.9-2.1-1.6-3-2.3
		C372.3,226,368.4,222.8,373.3,220.8z"/>
	<path class="st80" d="M332.7,307.7c1.6-1.9,3.4-3.2,5.6-2.2c1.1,0.4,0.9,1.5,0.2,2.5C336.4,311.1,334.7,307.5,332.7,307.7z"/>
	<path class="st73" d="M367.3,184.8c0.1,0.3,0.3,0.6,0.4,0.9c0.8,1.8,1.2,3.6-0.9,4.6c-1.3,0.6-2.1-0.6-2.3-1.8
		C364,186.2,364.5,184.5,367.3,184.8C367.3,184.8,367.3,184.8,367.3,184.8z"/>
	<path class="st21" d="M337.3,226.8c-0.9,0.3-1.9,1-2.7,0.8c-1.6-0.4-2-2-2.2-3.5c-0.1-0.6,0.2-1.5,0.6-1.7c1.6-0.6,2.2,1,3.1,1.8
		C337,224.8,337.3,225.7,337.3,226.8C337.3,226.8,337.3,226.8,337.3,226.8z"/>
	<path class="st84" d="M295.3,293.8c0.7-2,0.5-4.1,0-6.7c2.4,0.7,4.4,1.8,4.5,3.6C299.9,293.3,296.7,292.5,295.3,293.8
		C295.3,293.8,295.3,293.8,295.3,293.8z"/>
	<path class="st78" d="M283.3,277.8c-0.4-0.5-0.7-1.1-1.1-1.6c-1.1-1.6-1.6-3.3-0.1-4.8c0.6-0.6,1.8,0.3,1.8,1
		C283.9,274.1,287.4,276.4,283.3,277.8C283.3,277.8,283.3,277.8,283.3,277.8z"/>
	<path class="st72" d="M294.8,336.3c3.4,0.3,5.7,0.7,6.2,3.6c0.1,0.8-0.7,1.5-1.6,1.5C296,341.4,297.2,338,294.8,336.3z"/>
	<path class="st72" d="M348.9,321.1c1.5,0.4,1.7,1.6,1.3,2c-1.3,1.5-2.8,2.8-4.4,4c-0.4,0.3-1.3-0.8-1-1.2
		C346.1,324.1,347.6,322.6,348.9,321.1z"/>
	<path class="st78" d="M337.5,318.9c-1.7-0.9-4.3-0.3-4.6-2.7c-0.1-0.9,1.2-1.4,2.3-1.4C338.1,314.8,337.1,317.2,337.5,318.9z"/>
	<path class="st82" d="M294.9,345.2c-0.2,0.8,1,2.3-0.8,2.2c-1.3-0.1-2.6-0.8-2.6-2.5c0-1.6,1-2.6,2.4-2.5
		C295.5,342.6,295.1,344,294.9,345.2z"/>
	<path class="st72" d="M284.3,311.8c0.1,1.2,2.9,2.3,0.6,3.5c-2.5,1.4-3.6-1.3-5.3-2.8C281.4,312.2,282.9,312,284.3,311.8
		C284.3,311.8,284.3,311.8,284.3,311.8z"/>
	<path class="st86" d="M355.3,305.8c1.5,0.7,2.3-2.8,3.7-0.9c1,1.3,0.1,3-1.3,3.8c-0.8,0.5-2.7,1.9-2.4-0.8
		C355.4,307.2,355.6,306.5,355.3,305.8L355.3,305.8z"/>
	<path class="st72" d="M347.1,305.9c-0.5,1.2-1.3,2.5-3,2.5c-0.8,0-1.5-0.7-1.5-1.6c0.2-1.8,1.8-2.2,3.2-2.6
		C346.9,303.9,347.3,304.7,347.1,305.9z"/>
	<path class="st78" d="M310.7,275c1.4,1.9,4.5,0.8,4.3,3.9c0,0.4-1,1.3-1.3,1.2C311.9,279.3,309.9,278.4,310.7,275z"/>
	<path class="st76" d="M357.2,168.7c0,1.7-0.8,2-1.9,2c-1.2,0-2.4-0.4-2.5-1.8c-0.2-1.4,1-2,2.2-2
		C356.2,166.9,356.9,167.8,357.2,168.7z"/>
	<path class="st77" d="M358.3,248.8c1.5-2.4,2.6-1.8,2.9,0.6c0.2,2-0.3,4-0.5,6.4C358.1,253.6,360.6,250.5,358.3,248.8
		C358.3,248.8,358.3,248.8,358.3,248.8z"/>
	<path class="st25" d="M273.2,256.6c-1.5-1.6-3-3.2-5-5.3C272.1,251.3,273.4,253.2,273.2,256.6z"/>
	<path class="st87" d="M368.3,229.8c-1.2-2.7-4.1-4.9-2.3-9c1.9,2.6,2.3,5.2,2.3,7.9C368.3,229.1,368.3,229.4,368.3,229.8z"/>
	<path class="st72" d="M322.2,203.2c0.1,1.9,4.1,1.9,2.4,4.6c-0.3,0.4-1.3,0.8-1.7,0.6C320.7,207.1,321.2,205.2,322.2,203.2z"/>
	<path class="st21" d="M331.4,330.3c0.6,1.6,2.9,3,0.5,4.6c-0.4,0.3-1.5,0.3-1.7,0C328.8,333,330.5,331.7,331.4,330.3z"/>
	<path class="st78" d="M264.6,295.6c2.7-0.6,3.5-2.7,5.2-2c0.9,0.3,0.7,1.9,0.1,2.7C268.5,298.2,267.2,296.7,264.6,295.6z"/>
	<path class="st82" d="M289.3,297.8c-0.1,1.8-1.4,2.1-2.8,2c-1.2-0.1-3.1,0.4-2.9-1.6c0.2-2,1.8-0.5,2.7-0.5
		C287.4,297.7,288.4,297.7,289.3,297.8C289.3,297.8,289.3,297.8,289.3,297.8z"/>
	<path class="st82" d="M280.3,303.8c1.2,0.6,2.9-2.1,3.5,0.3c0.3,1.2-0.7,3.3-2.2,3.2C279.5,307.2,280.7,305,280.3,303.8
		C280.3,303.8,280.3,303.8,280.3,303.8z"/>
	<path class="st74" d="M372.3,194.8c-0.3,0-0.7,0-1,0c-0.3-1.4-3.5-0.5-2.4-2.9c0.4-0.8,1.2-2,2.2-1.4
		C372.7,191.4,373.3,193,372.3,194.8z"/>
	<path class="st73" d="M368.3,170.4c-1.8,2.2-3.4,2.9-5.7,1.7C363.9,169.9,365.6,169.5,368.3,170.4z"/>
	<path class="st73" d="M329.8,264.1c1-0.3,2,0.1,1.9,1.3c-0.1,1.3-1.5,1.5-2.5,1.9c-1.3,0.5-1.7-0.3-1.8-1.4
		C327.2,264,328.7,264.5,329.8,264.1z"/>
	<path class="st80" d="M260.9,287.4c1.7,0.2,3.6-0.3,4.2,1.9c0.1,0.3-0.4,1-0.7,1.1C262.1,290.8,261.9,288.7,260.9,287.4z"/>
	<path class="st25" d="M301.3,220.1c1.1,0.1,1.7,0.8,1.8,1.8c0.2,0.9-0.3,1.6-1.2,1.7c-1.3,0.1-2.2-0.5-2.2-1.9
		C299.7,220.8,300.4,220.2,301.3,220.1z"/>
	<path class="st21" d="M304.3,256.8c-0.3,0-0.8,0.1-0.9-0.1c-1-1.2-3.3,0.5-3.6-1.6c-0.1-0.5,0.9-1.8,1.4-1.8
		C303.3,253.3,304.1,254.8,304.3,256.8C304.3,256.8,304.3,256.8,304.3,256.8z"/>
	<path class="st79" d="M337.3,337.8c2.3,1.9,3.3,4.1,2,7c0,0,0,0,0,0C337.7,342.7,337.3,340.3,337.3,337.8
		C337.3,337.8,337.3,337.8,337.3,337.8z"/>
	<path class="st78" d="M318.3,214.8c0.2-1.7,0.7-3.3,2.8-3.2c0.3,0,0.9,0.9,1,1.5c0.2,1.3-0.7,1.7-1.8,1.7
		C319.6,214.8,319,214.7,318.3,214.8C318.3,214.8,318.3,214.8,318.3,214.8z"/>
	<path class="st25" d="M346.3,183.4c1.2-0.2,1.8,0.6,1.9,1.7c0.1,1-0.5,1.6-1.4,1.6c-1.1,0-1.9-0.5-2-1.6
		C344.6,183.9,345.6,183.8,346.3,183.4z"/>
	<path class="st85" d="M278.4,259.3c1.3,0.2,1.7,0.8,1.8,1.7c0.1,1-0.4,1.6-1.4,1.6c-1,0-2.1-0.4-1.7-1.7
		C277.2,260.3,278,259.8,278.4,259.3z"/>
	<path class="st76" d="M326.7,259.2c0.8,0.3,1.4,0.9,1.5,1.8c0.1,1-0.4,1.6-1.4,1.6c-1,0-1.4-0.8-1.4-1.7
		C325.4,260,325.6,259.2,326.7,259.2z"/>
	<path class="st21" d="M327.6,247.2c1.4-0.1,1.7,0.6,1.7,1.5c0,0.9-0.2,1.8-1.2,1.7c-1-0.1-2-0.9-1.9-1.9
		C326.2,247.9,327.2,247.5,327.6,247.2z"/>
	<path class="st79" d="M375.2,180.6c-0.2,0.9-0.5,1.7-1.5,1.5c-0.9-0.2-1.2-1.1-1.2-1.9c0.1-0.7,0.6-1.2,1.3-1.2
		C374.8,179,375.2,179.6,375.2,180.6z"/>
	<path class="st82" d="M288.7,350.3c1.3-1.5,2.3-2.3,3.7-1.7c0.3,0.1,0.7,1,0.5,1.2C291.9,351.4,290.5,350.8,288.7,350.3z"/>
	<path class="st72" d="M308.3,206.8c0.2-1.1,0.2-2.8,1.7-2.3c1.4,0.5,1.2,2.8,0.7,3.4C309.5,209.4,309.4,206.8,308.3,206.8
		C308.3,206.8,308.3,206.8,308.3,206.8z"/>
	<path class="st68" d="M340.3,186.9c0.6,0.1,1.4,0,1.4,0.9c0,0.9-0.8,0.9-1.4,0.9c-0.6,0-1.4,0-1.4-0.9
		C338.9,186.9,339.7,186.9,340.3,186.9z"/>
	<path class="st86" d="M355.3,305.8c-0.9,0.2-2,1.6-2.8-0.1c-0.4-0.8,0-1.8,0.8-2C354.9,303.3,354.7,305,355.3,305.8
		C355.3,305.8,355.3,305.8,355.3,305.8z"/>
	<path class="st72" d="M293.3,226.8c-0.9,0.4-1.9,0.9-2.6-0.3c-0.4-0.7,0-1.3,0.8-1.5C292.9,224.7,293.2,225.7,293.3,226.8
		C293.3,226.8,293.3,226.8,293.3,226.8z"/>
	<path class="st74" d="M365.4,242.8c0-0.3,0-0.7,0-1c1.7-1.3,3-0.8,4,1c0,0,0,0,0,0C368,244.7,366.7,244.3,365.4,242.8z"/>
	<path class="st21" d="M328.3,349.8c-1.2-0.1-2.3-0.3-2.6-1.7c-0.1-0.6,0.3-1,0.9-0.9C328,347.5,328.2,348.6,328.3,349.8
		C328.3,349.8,328.3,349.8,328.3,349.8z"/>
	<path class="st74" d="M321.3,260.8c1-0.4,2.1-1,2.6,0.6c0.1,0.3-0.3,1-0.5,1.1C321.9,262.9,321.5,262,321.3,260.8
		C321.3,260.8,321.3,260.8,321.3,260.8z"/>
	<path class="st85" d="M276.2,258.4c-1.1-0.6-1.2-2.1-0.7-2.5c1.6-1,1.2,0.4,1.2,1.3C276.7,257.7,277,258.3,276.2,258.4z"/>
	<path class="st78" d="M310.3,273.1c1.7-0.5,2.4-0.8,3.2-0.9c0.1,0,0.4,0.6,0.4,0.7C313.2,274,312.3,273.8,310.3,273.1z"/>
	<path class="st74" d="M305.3,346.5c0.8-0.1,1,0.3,0.9,0.8c-0.1,0.4-0.4,0.9-0.7,1c-0.5,0.2-0.9-0.2-0.8-0.8
		C304.8,347.1,305.1,346.8,305.3,346.5z"/>
	<path class="st88" d="M239.3,503.8c0.5,7.3-2.8,9.3-11.6,7.2c-0.2-1.7,1.2-1.6,2.3-2c-0.1-1.7-2-1.6-2.9-2.2
		c-2.1-1.6-4.5-2.3-3.8,2c0.1,0.5,0,1.1-0.3,1.4c-0.9,1.3-1.9,2.9,0.1,3.6c2.2,0.7-0.6-3.1,2-2.7c1,2.8,0.6,6.3-1.3,10.9
		c1.1,0.8,3.7-2.5,3.7,1.3c0,0.6,0.6,1.2,0.8,1.8c0.5,1.9,4.3,2.7,2.1,5.2c-0.8,0.9-2.1-2.3-4-1.5c0.1-0.3,0.4-0.8,0.3-0.9
		c-3-3.7-5.4-7.6-5.4-12.6c0-2.1-2.8-1.6-3.5-1.5c-4.6,0.9-4.6,1-6.1-3.7c2,1.5,3.4,1.1,4.1-1c1.9-5.4,6.1-5,10.6-4.5
		C230.7,505.1,235.1,505.3,239.3,503.8z"/>
	<path class="st89" d="M202.2,472.5c-1.8-8.9-0.4-17.9-1.5-26.9c-0.9-6.9-1-13.9-1.5-20.9c0.4-1.2-0.2-3.2,2.2-3
		c1.5,0.4,1.9,1.7,2.2,3c0.1,1.8,0.5,3.5,1.2,5.2c1.7,4.9,1.6,9.9,1.5,15c1.2,7.6-0.7,14.8-2.2,22.1c-0.4,1.8-0.3,3.6-0.4,5.4
		C203.1,472.5,202.6,472.5,202.2,472.5z"/>
	<path class="st90" d="M208.2,472.5c0.1-2.2,0.1-4.5,0.2-6.7c0.3-0.5,0.5-0.5,0.8,0c0.4,2.2,0.8,4.5,1.2,6.7
		C209.7,472.5,209,472.5,208.2,472.5z"/>
	<path class="st91" d="M173.3,347.8c-0.7-1-1.3-2-2-3c3-4.7,2.9-10.8,6.7-15.2C177.3,335.9,173.2,341.3,173.3,347.8z"/>
	<path class="st92" d="M208.4,415.7c0.1,2.4,0.1,4.7,0.2,7.1c-0.1,7.3-0.3,14.6-0.4,21.8c-0.2,0.6-0.4,0.6-0.7,0
		c-0.1-0.9-0.2-1.8-0.4-2.7c-2.4-3.6-1.4-8.2-3.1-12c-0.6-1.7-0.9-3.6-1.2-5.4c0.1-1.2-0.7-2.7,0.6-3.7
		C205.7,419.7,206.8,417.4,208.4,415.7z"/>
	<path class="st93" d="M204.5,429.7c1.8,3.8,2.1,8,2.7,12.1c-1,0.8-0.6,2.1-1,3.1c-0.9-5.1-1.7-10.2-2.6-15.3
		C203.9,429.3,204.2,429.3,204.5,429.7z"/>
	<path class="st94" d="M209.3,465.8l-0.4,0c0,0-0.4,0-0.4,0c0-1.6,0-3.3,0-4.9c0.3,0,0.5,0,0.8,0
		C209.3,462.5,209.3,464.2,209.3,465.8z"/>
	<path class="st95" d="M207.5,444.6c0.2,0,0.4,0,0.7,0c0.3,1.4,0.4,2.8-0.3,4.3C207.1,447.5,207.2,446,207.5,444.6z"/>
	<path class="st96" d="M237.4,524.8c-1.2,0.7-1,1.9-1,3c-0.8-0.2-1.6-0.4-2.3-0.7c-1.9-0.7-4.8-1.2-4-3.7c0.5-1.5,2.2-3.4,4.5-4
		c1.2-0.3,2.1-1.2,2.4,0.6c0.6,3.2,3.6,3.3,5.7,4.6c-1.5,2.3-1.5,2.3-3.2,0C238.7,523.7,237.9,523.9,237.4,524.8z"/>
	<path class="st97" d="M171.5,456.3c2.1,3.4,5.2,4.5,8,6.5c-3.4-0.7-6.8-1.3-11.2-2.2C170.8,459.7,172.9,459.1,171.5,456.3z"/>
	<path class="st98" d="M226,462.8c1.2-2.1,4.1-3,4.4-5.8c2,1.9,4.2,0.3,6.6,0c-1.4,2.8-4.4,2.2-6,4c0.3,1.4,2.5,0.6,2.7,2.5
		c-2.5-0.3-4.9-1-7.4-0.4C226.3,463.1,226,462.8,226,462.8z"/>
	<path class="st99" d="M203.5,420.8c-0.1,1.3-0.2,2.6-0.2,3.9c-0.2,0.5-0.5,0.5-0.7,0c-0.4-1-0.8-2-1.2-3c0.4-4.7-5-3.5-6.5-6.4
		c1.9-0.8,3,1.2,4.7,1.1c0.6-2.6-2-4.3-2.4-7.3c3,2.6,4.1,1.1,4.9-2C201.7,412.2,201.3,416.6,203.5,420.8z"/>
	<path class="st0" d="M316.3,480.4c0.1-5.7,3.2-8.7,9.1-8.7c5.8,0,9.1,3.2,8.9,8.8c-0.1,5.1-4.2,9.2-9.1,9.2
		C320.3,489.7,316.3,485.4,316.3,480.4z"/>
	<path class="st100" d="M441.4,285.5c-0.1-25.8-0.1-51.6-0.3-77.4c0-2.6,0.9-3.4,3.5-3.4c36.1,0.1,72.2,0.1,108.3,0
		c3.6,0,3.5,1.8,3.5,4.3c-0.1,25.5,0,50.9-0.1,76.4c-0.9,1.5-2.4,0.8-3.6,0.8c-35.9,0-71.8,0-107.6,0
		C443.8,286.2,442.4,286.8,441.4,285.5z"/>
	<path class="st101" d="M480.9,475.1c-1.7-1.2-1-3-1-4.6c0-24.3,0-48.6-0.1-72.9c0-3.4,0.7-4.5,4.3-4.5c35.6,0.1,71.2,0.1,106.8,0
		c3.4,0,4.5,0.8,4.4,4.4c-0.2,24.5-0.1,48.9-0.1,73.4c0,1.5,1,3.5-1.5,4.2c-5.6,1.3-11.2,0.4-16.8,0.5c-1.4,0-2.5-0.9-3.2-2
		c-3.4-6.5-6.7-13.1-10.9-19.2c-0.7-1-1.3-2-1.8-3.2c-7.2-14.1-15.8-27.3-23.9-42c-3.8,6-7,11.6-10.1,17.1
		c-8.3,14.6-16.9,29.1-25.2,43.7c-1.2,2.1-1.9,4.7-4.7,5.6C491.7,475.5,486.3,476.4,480.9,475.1z"/>
	<path class="st101" d="M544.3,646.9c-1.5-1.3-0.8-3.1-0.8-4.7c-0.1-23.8,0-47.6-0.1-71.4c0-3.6,0.7-4.7,4.6-4.7
		c35.6,0.2,71.2,0.1,106.9,0.1c2.1,0,4.2-0.6,4.2,3c-0.1,25.5-0.1,50.9-0.1,76.4c0,0.4-0.3,0.9-0.5,1.3c-2.4,1.8-5.1,1.3-7.7,1.2
		c-5.8-0.1-11.6,0.6-17.4-0.4c-2.5-1.4-1.9-3.9-2.2-6.1c-0.4-3.1,0.4-6.2,0-9.3c-0.1-2.8-0.3-5.7-0.2-8.5c0.2-3.7-0.1-7.4,0-11.1
		c0-0.5,0-1.1,0.1-1.6c0-3.4,0.5-6.8,0.1-10.2c-0.1-1-0.1-2.1-0.1-3.1c0-1.3,0.3-2.6,0.8-3.9c-2.7,0.1-5.3-0.2-7.9,0.2
		c-14.9,0.5-29.9,0.1-44.8,0.2c-7.1,0.1-7.1,0.2-7.2,7.3c-0.3,13.6,0.5,27.2-0.4,40.8c-0.1,1.6,0.1,3.4-1.1,4.7
		C561.7,648.7,553,649,544.3,646.9z"/>
	<path class="st4" d="M645.3,299.3c0.6,5.4,1.6,10.8,0.6,16.3c-2.2,12.8-9.3,22-20.3,28.5c-10.6,4.9-21.3,6-32.3,1.4
		c0.3-3.3,2.7-7.3-3-8.5c-0.7-0.2,0.6-2.5-1.4-1.5c-1.7,0.2-2.1-2.4-4-1.6c-3.3-2.4-1.5-4,1.3-5.5c0.2-0.3-1-0.9-0.6-0.4
		c0.1,0.1-0.1,0.1-0.3,0.4c-0.2,0.2-0.3,0.7-0.6,0.7c-3.8-0.6-3.4-4.1-3.9-6.6c-0.6-2.8,2-2.3,3.7-2.2c3.4-0.9,4.3-2.7,2.2-4.7
		c-3.1-2.9-2.4-6.1,0.2-8c2.6-1.9,2-3.6,1.4-5.7c0-0.8,0.1-1.6,0-2.4c-0.3-6.7,2.1-8.2,8.5-5.3c1-2.6,2.1-5.2,4.9-6.3
		c2.5-6,4.5-0.6,6.7,0.3c0.4,0.1,0.8,0.3,1.2,0.5c2.6,1.1,5.7-2.6,8.3,0.6c-1.1-1.8-2.9-2.8-3.5-4.9c-1.1-3.8-0.7-4.4,3.7-3.9
		c0.5,2.1,2.5,2.8,3.8,4c0.3,0.4,0.4,0.8,0.2,1.2c0.4-0.6-0.2-1-0.3-1.5c0.7-1.1,1.9-1.3,2.5-0.4c3.4,5.3,6.1,2.3,8.9-0.5
		c0.5-0.5,1-0.8,1.7-0.5C640.4,287.2,642.7,293.4,645.3,299.3z"/>
	<path class="st101" d="M658.4,648.7c1.3,5.2,0.4,10.6,0.5,15.8c0.1,3.5-2.8,2.1-4.4,2.2c-21,0.1-41.9,0.1-62.9,0.1
		c-14.5,0-29-0.2-43.4,0.1c-4.1,0.1-5.2-1.2-4.7-5c0.6-4.4-0.9-8.9,0.8-13.2c1.3-0.9,2.8-0.9,4.3-0.9c26.5-0.3,53-0.7,79.5-0.3
		c8.5,0.1,17,0.2,25.5,0.3C655.2,647.8,656.9,647.6,658.4,648.7z"/>
	<path class="st102" d="M499.4,287.6c17.5,0,34.9,0.1,52.4-0.1c3.8,0,4.7,1.1,4.6,4.8c-0.1,12.8,0,12.8-12.6,12.8
		c-32.4,0-64.9-0.1-97.3,0.1c-4.5,0-5.6-1.3-5.5-5.6c0.3-12,0.1-12,11.9-12C468.4,287.6,483.9,287.6,499.4,287.6z"/>
	<path class="st103" d="M537.3,493.7c-17.8,0-35.7-0.1-53.5,0.1c-3.4,0-4.1-1-4.1-4.2c0-12.3-0.1-12.3,12.1-12.3
		c32.8,0,65.6,0.1,98.5-0.1c3.7,0,5.2,0.7,5.1,4.8c-0.3,11.7,0,11.7-11.5,11.7C568.3,493.7,552.8,493.7,537.3,493.7z"/>
	<path class="st72" d="M584.3,320.8c-1.3,0.6-3.9,0.2-2,3.1c0.9,1.3,1.1,3,1.6,4.6c1.4-0.7-0.1-1.9,0.9-2.7c1,0.9,2,1.8,3.2,3
		c-1,1.6-6,1.4-2.8,5.1c-0.7,4.5-3.8,2-6,2c-10.9-10.5-13.5-30-6-44.1c7.6-14.3,24.6-23,39.3-20.1c-3.1,2.2-0.7,5.2-1,7.8
		c0.1,0.5,0,0.9-0.1,1.3c-3,3.3-5.2,0.5-7.7-0.8c0.2-0.7-1,0.1-0.4-0.2c0.3-0.1,0.3,0,0.2,0.4c-1.7,5.3-1.7,5.3-0.3,8.5
		c-0.6,0.3-1.4,0.4-1.8,0.9c-2.6,3.4-4.9,6.7-10.3,4.4c-1.5-0.6-1.7,2.8-1.4,4c0.5,1.6-0.1,2.5-0.6,3.7c-3.7-0.1-7.2,2.3-11.1,1
		c3.7,4,5.6,8.8,7.6,13.6C586.4,318.1,585.8,319.6,584.3,320.8z"/>
	<path class="st104" d="M551.8,732.7c-40,0-80-0.1-119.9,0.1c-4.3,0-5.8-1-5.6-5.5c0.4-8.8,0.4-17.7,0-26.5c-0.2-5,2.1-5.2,5.9-5.2
		c78,0.1,155.9,0.1,233.9,0.1c12.2,0,12.2,0,12.2,12.2c0,6.5-0.3,13,0.1,19.5c0.3,4.6-1.4,5.5-5.7,5.4
		C632.5,732.6,592.2,732.7,551.8,732.7z"/>
	<path class="st105" d="M658.4,648.7c-38,0-76,0-114.1,0c0-0.6,0-1.1,0-1.7c8.5-0.1,17.1-0.2,25.6-0.3c1.6-1,3.3-1.4,5.2-1.4
		c15.1,0.1,30.1-0.3,45.2,0c4.1,0.6,8.5-1.2,12.3,1.4c8.6,0.1,17.2,0.2,25.7,0.3C658.4,647.5,658.4,648.1,658.4,648.7z"/>
	<path class="st106" d="M603.3,288.8c-1.8-2.4-7.3-4.3-0.6-7.6c1.7-0.9,2.2-2.3,3.7-1c2,1.8,3.4,1.4,4.9-0.4
		c0.3-0.1,0.4-0.2,0.4-0.2c0.1-0.2,0-0.1-0.4,0.2c-2.3-1.4-1.6-4.2-2.5-6.3c-0.6-1.4,2.2-1.6,3.8-1.9c0.9,0.1,1.9,0.2,2.8,0.4
		c0.7,1.6,1.9,0.8,3,0.7l0,0c0.7,0.2,0.9,1.9,2.1,0.8c0.6,0.2,1.3,0.4,1.9,0.5c0.4,3.3,1.2,6.8-4,6.8c-1.1,0.3-3.2-0.8-3.1,1.1
		c0,1.7,0.8,3.7,2,4.9c1.9,1.9,2.2,1.6,1,5.1c-1.3-2.9-2.9-3.9-5.7-2c-0.8,0.6-2.9,1.6-3.3-1.1c0.5-1,2.7-1.5,1.1-3.9
		c-0.1,1.8-0.9,2.7-1.1,3.9c-3.9,2.1-3.6-1.4-4.2-3.4C602.6,285.7,605.2,288.3,603.3,288.8z"/>
	<path class="st107" d="M480.9,475.1c5.7-0.2,11.5-0.3,17.2-0.5c1.9-1.4,4.1-1.2,6.2-1.2c11.1,0,22.3-0.1,33.4-0.4
		c0.2,0,0.4,0.1,0.5,0c5.3-3.8,11.6,1,16.9-2.1c0.5,0,1,0.1,1.5,0.3c3.9,2.9,7.9,2.9,11.8,0.1c2.2-1.6,4-0.8,5.8,0.4
		c0.6,2.6,2.4,3.1,4.8,3.1c4.9,0,9.8,0.2,14.7,0.3c0.3,0,0.4,0.2,0.4,0.5c-1.1,1.1-2.5,0.6-3.8,0.6c-35.4,0-70.7,0-106.1,0
		c-1.3,0-2.7,0.5-3.8-0.7C480.5,475.3,480.7,475.2,480.9,475.1z"/>
	<path class="st108" d="M608,247.2c23.5,0,47.1,0,70.6,0c0,0.3,0,0.6,0,1c-23.5,0-47.1,0-70.6,0C608,247.8,608,247.5,608,247.2z"/>
	<path class="st109" d="M608,224.2c23.5,0,47,0,70.6,0c0,0.3,0,0.6,0,0.9c-23.5,0-47.1,0-70.6,0C608,224.8,608,224.5,608,224.2z"/>
	<ellipse class="st110" cx="468.8" cy="612.7" rx="49.4" ry="0.7"/>
	<path class="st72" d="M618.3,280.8c3.9-0.7,2.4-4.6,4-6.8c5,1.9,9.5,4.6,13,8.8c-2,4.6-6.7,4.6-10.2,6.3c-2.2-0.8,2.7-5.6-2.8-4.3
		l0,0C620.5,284,616.1,285.7,618.3,280.8z"/>
	<path d="M441.4,285.5c38.3,0,76.6-0.1,115-0.1c-1,2-2.9,1.3-4.4,1.3c-35.3,0-70.7,0-106,0C444.3,286.7,442.5,287.4,441.4,285.5z"/>
	<path class="st111" d="M480.5,475.5c37.9,0,75.8,0,113.7,0c-1.2,1.9-3,1-4.5,1c-34.9,0.1-69.8,0.1-104.6,0
		C483.5,476.6,481.6,477.4,480.5,475.5z"/>
	<path class="st112" d="M579.3,335.8c1.4-2.5,5,1.6,6-2c1.8-1.3,2.5,1.3,4,1c0.1,0.8,0.1,1.6,1,2c2.6-1.2,4.4,0.9,4.9,2.4
		c0.7,2,0.7,4.8-1.9,6.3C587.9,343.5,583,340.5,579.3,335.8z"/>
	<path class="st109" d="M608.4,235.9c23.2,0,46.5,0,69.7,0c0,0.2,0,0.4,0,0.5c-23.2,0-46.4,0-69.7,0
		C608.5,236.3,608.5,236.1,608.4,235.9z"/>
	<path class="st113" d="M503.4,624.5c-23.1,0-46.1,0-69.2,0c0-0.2,0-0.4,0-0.6c23,0,46,0,69,0C503.3,624.2,503.4,624.3,503.4,624.5z
		"/>
	<path class="st113" d="M434.3,600.9c23.1,0,46.1,0,69.2,0c0,0.2,0,0.4,0,0.6c-23,0-46,0-69,0C434.4,601.3,434.3,601.1,434.3,600.9z
		"/>
	<path class="st72" d="M618.4,272.7c-1,0.5-1.3,2.3-2.6,1.9c-1.3-0.4,0.9-1.9-0.4-2.6C616.5,271.9,617.6,271.5,618.4,272.7z"/>
	<path class="st72" d="M620.4,273.5c-0.3,1,0.5,2.6-1.2,2.6c-0.3,0-0.6-2.2-0.9-3.4C619,273,619.7,273.2,620.4,273.5z"/>
	<path class="st114" d="M733.2,361.9c-6.7,6.7-12.4,6.5-16.5-0.2C722.1,363.2,727.3,363.4,733.2,361.9z"/>
	<path class="st4" d="M310.3,326.8c1-0.7,2-1.3,3-2c-0.5,2.7,2,4,3,6c0.5,1,1.4,2.1,0.2,3.1c-1.1,0.9-1.7-0.3-2.5-0.7
		c-2.4-1.3-5-3.8-4.7,2c0.1,1.6-2.4,1.6-4,1.7c-0.1-2.7,1-4.9,3.1-6.4C309.8,329.4,310.5,328.4,310.3,326.8z"/>
	<path class="st4" d="M321.3,344.8c-1.4,0-2.5-0.7-3-2C319.8,342.7,321.2,342.7,321.3,344.8z"/>
	<path class="st4" d="M340.3,262.8c-2,1.3-3.9,2.1-5-1c0.7,0,1.3,0,2,0C338.3,262.1,339.3,262.4,340.3,262.8z"/>
	<path class="st115" d="M240.1,305.7c-3.9,0.1-7.4-3.2-7.5-7.1c-0.2-3.4,3.3-6.8,7-6.9c4.1-0.1,7.4,3,7.5,6.9
		C247.1,302.3,243.8,305.6,240.1,305.7z"/>
	<path class="st4" d="M369.3,242.8c-1.3-0.7-2.5-1.2-4-1c-0.3-1.7-0.7-3.3-1-5c0,0,0,0,0,0c1.1-0.5,1.6,0.2,2,1c0,0.3,0,0.7,0,1
		c2,2.2,4-0.7,6,0C371.3,240.1,370.3,241.4,369.3,242.8z"/>
	<path class="st77" d="M366.3,237.8c-0.7-0.3-1.3-0.7-2-1c0.5-0.8,0.9-2,2.1-1.2C367.4,236.2,366.5,237,366.3,237.8z"/>
	<path class="st116" d="M202.5,424.8c0.2,0,0.5,0,0.7,0c1,1.5,1.3,3.2,1.3,5c0,0-0.5,0-0.5,0l-0.5,0
		C202,428.3,202.7,426.4,202.5,424.8z"/>
	<path class="st117" d="M556.3,471.8c-0.7,0.1-1.7-0.1-1.9,0.2c-3.7,5-6.6,1.4-10.1-1.2c-0.2,2.1,0,4.1-3.1,4.1
		c-14.4-0.3-28.7-0.2-43.1-0.2c8.4-14.7,16.8-29.5,25.2-44.2c4.4-7.7,8.9-15.5,13.7-23.8c8.6,15.1,16.9,29.6,25.2,44.2
		c-1.4,2.1-3.2,3.8-5.2,5.3c-1.9,1.5-1.3,3-0.2,4.6c0.9,1.4,0.9,1.4,2.8-0.7c-1-0.1-1.8,2.1-2.8,0.2c-0.1-4.6,2.5-7.1,6.8-6.5
		c4.4,5.6,7.2,12,10.6,18.1c-2.1,0.2-3.9-0.3-6,1.5C564.8,476.3,559.2,475,556.3,471.8c3.6-5.9,5-6.3,8.9-1.9c1-2.9-1.7-3.4-2.9-4.5
		c-1.3-1.2-1.8,1.2-2.8,1.8c-1.5,1-2.5,2.3-4.6,0.6c-1.9-1.6-3.5,0.6-5.1,1.6c1.8,0,3.3-2.2,5.3-0.9
		C556.2,469.2,557,470.2,556.3,471.8z"/>
	<path class="st118" d="M563.6,453.7c-4.3,0.4-6.1,3-6.2,7.1c-0.3,0.4-0.7,0.4-1,0c-3.9-0.7-4.2-1.8-0.9-4.3
		c2.3-1.8,4.1-4.2,6.8-5.6C562.7,451.8,563.1,452.7,563.6,453.7z"/>
	<path class="st9" d="M620.3,646.7c-16.8,0-33.6-0.1-50.5-0.1c0-16.6,0-33.2,0-49.9c0-2.2-0.4-4.2,3.1-4.2
		c17.5,0.2,34.9,0.2,52.4,0.3c1.1,0.8,3.3-0.2,3.4,2c0,1.7-1.2,2.4-2.7,2.3c1.9,1.6,4.7-4.4,6.4,0.6c0,1,0,2,0,3
		c-0.9,2.8-4.4,3.2-6.7,6.8c5-2.3,5.7,0.7,6.7,3.2c0,0.3,0,0.7,0,1c-3.8,1.4-8,1.2-11.9,2.3c-3.1,0.8-2.3,2.9-2.6,4.2
		c-0.4,2,1.5,3.1,3.2,2.5c3.3-1.2,6.2,2.9,9.8,0.1c1.1-0.9,0.4,2.2,1.5,2.9c0,3,0,6,0,9c-1.9,0.8-1.8-2-3.3-2.1
		c2.1,2.3,4.4,4.5-0.5,6.1c-1.4,0.5-2.2,1.4-2.2,2.9c0,0.3,0.1,0.7,0,1C626.2,641.7,621.4,646.3,620.3,646.7z"/>
	<path class="st69" d="M632.3,623.8c-0.4-0.5-0.7-1.1-1.1-1.6c-3.2,3.4-6.1-0.5-9.1-0.3c-2,0.2-3.8,0.8-5.3-1.2
		c-1.3-1.8-1.6-3.4,0.3-5.1c1.2-1-0.6-2-0.4-3.3c5.3,2,10.2-3.1,15.5-0.6C632.3,615.8,632.3,619.8,632.3,623.8z"/>
	<path class="st119" d="M620.3,646.7c1-0.8,2.1-1.6,3.3-2.4c-1.2-0.6-2.3-1.1-4.5-2.3c2.7-0.2,4.3-0.3,6.4-0.4
		c-2.2-2.7-0.6-5.3,1.5-5.7c8.2-1.8,0.8-3.7,0.6-6c3.3-3,3.2,1.7,4.8,2.9c0.1,4.6,0.2,9.3,0.3,13.9
		C628.5,646.7,624.4,646.7,620.3,646.7z"/>
	<path class="st88" d="M632.3,610.8c-1.7-1.9-3-5.3-6.2-1.6c-0.2,0.2-1,0.1-1.3-0.1c-0.6-0.5-0.2-1.1-0.1-1.8c0.8-4.2,5-4.5,7.6-6.5
		C633,604.1,632.7,607.4,632.3,610.8z"/>
	<path class="st120" d="M632.4,597.8c-0.8-0.1-0.8-1.8-2.5-0.5c-2.3,1.9-5.3,1.5-7.3-1.5c1.9-1.9,4.1,2.8,5.4-0.6
		c0.8-2.1-3.1-0.1-2.5-2.4c0.8-0.1,1.6-0.3,2.4-0.4C631.9,591.9,633.8,593.4,632.4,597.8z"/>
	<path class="st106" d="M584.3,320.8c0.6-2.1,0.7-4-0.5-6.1c-2-3.8-3.5-7.9-7.1-10.7c-0.3-0.2-0.2-0.9-0.2-1.3
		c1.8,0.2,1.8-2.5,3.4-2.3c1.8,0.2-0.2,2.2,1.4,2.9c1.4-6.8,5.2-1,7.9-1.6c1.3,2.6,3.4,5-1.6,6.5c-1.3,0.4-4.3,4.2,0.2,6.4
		c0.8,0.4,1.5,1.9,2.6,2.6c-2.5,0.8-1.9,3.6-3.1,5C586.1,323.7,585.5,321.2,584.3,320.8z"/>
	<path class="st72" d="M590.3,336.8c-1.8,0-1.5-0.9-1-2c1.1-0.2,1.6-1.8,3.2-1.2C593,335.4,590.3,335.2,590.3,336.8z"/>
	<path class="st72" d="M622.3,284.8c1.2,1,1.3,2.2,0.4,3.6C621.1,287.3,621.9,286,622.3,284.8C622.4,284.8,622.3,284.8,622.3,284.8z
		"/>
	<path class="st4" d="M578,321.5c-0.4-0.5-0.7-0.8-1-1.1c0.4-0.2,0.7-0.5,1.1-0.6c0.4,0,0.9,0.2,1.3,0.4
		C579.1,320.6,578.6,321,578,321.5z"/>
	<path class="st6" d="M551.8,730.7c-39.3,0-78.6-0.1-118,0.1c-4.3,0-5.9-0.9-5.6-5.5c0.4-7.6,0.4-15.3,0-23
		c-0.2-4.3,0.9-5.7,5.5-5.6c19,0.3,38,0.1,57,0.1c60,0,120,0,179.9-0.1c4.5,0,6.2,1,5.9,5.7c-0.4,7.5-0.4,15,0,22.5
		c0.2,4.5-1,5.9-5.7,5.9c-34.2-0.2-68.3-0.1-102.5-0.1C562.8,730.7,557.3,730.7,551.8,730.7z"/>
	<path class="st4" d="M609.3,288.8c-1.6-1.1,0.4-2.7-0.5-4c1.6,0.1,4.1-0.7,4.6,0.9C614.3,289,610.8,287.9,609.3,288.8L609.3,288.8z
		"/>
	<path class="st72" d="M611.3,279.8c0.7-1.1,1.2-2.4,2.7-2.4c0.3,0,0.8,0.8,0.7,1C614.1,280,613,280.7,611.3,279.8L611.3,279.8z"/>
	<path class="st117" d="M572.9,474.1c-0.3,0.2-0.6,0.5-1,0.5c-0.5,0.1-1-0.2-0.8-0.7c0.1-0.3,0.6-0.7,1-0.8
		C572.7,473,573,473.4,572.9,474.1z"/>
	<path class="st107" d="M556.3,471.8c-1.3-2.6-2.8-4.9-4.9-0.7c-1.1,2.2-1.8,0.3-2.6,0c-1.7-0.7-0.9-2.7-0.5-2.8
		c2.1-0.6,3.9-3.6,6-2.1c4.3,3.1,5,0,6.2-2.9c0.2-0.4,0.7-0.6,1.6-1.5c-0.3,4,5.2,3.7,4.5,7.8c-0.2,0.9,0.5,2.3-1.1,1.7
		c-1-0.4-2.2,0.7-2.9-0.8c-1.6-3.3-1.8-3.4-3.8-0.7C558.2,470.6,557.8,471.8,556.3,471.8C556.3,471.8,556.3,471.8,556.3,471.8z"/>
	<path class="st121" d="M556.3,460.8c0.3,0,0.7,0,1,0c1.3-0.4,0.8-4.1,3.3-2.2c1.9,1.5-0.7,2.6-1.4,3.6c-0.8,1.3-1.9,2.8-4.1,2.3
		C554,462.8,556.8,462.2,556.3,460.8z"/>
</g>
</svg>
