<?xml version="1.0" encoding="utf-8"?>
<!-- Generator: Adobe Illustrator 21.1.0, SVG Export Plug-In . SVG Version: 6.00 Build 0)  -->
<svg version="1.1" id="Layer_1" xmlns="http://www.w3.org/2000/svg" xmlns:xlink="http://www.w3.org/1999/xlink" x="0px" y="0px"
	 viewBox="0 0 54 54" enable-background="new 0 0 54 54" xml:space="preserve">
<path fill="#FFFFFF" d="M27.8,14.7L27.8,14.7c-0.6,0-1,0.5-1,1c0,0.3,0.1,0.5,0.3,0.7l0.1,0.1c0.5,0.5,1,1,1.4,1.4
	c0.1,0.1,0.1,0.2,0.1,0.3c0,0.9,0,1.7,0,2.6v0.7c-1.1,0.1-2,1-2,2.2c0,1.1,0.6,1.9,2,2.3V26c0.1,1.6,0.8,3,2.1,4
	c0.4,0.3,0.7,0.7,0.7,1.2c0,1.2,0.8,2.2,1.9,2.5c0,0,0.1,0,0,0.1V35c-0.1,0.5,0.3,1,0.8,1c0.5,0.1,1-0.3,1-0.8c0-0.1,0-0.1,0-0.2
	v-1.1l0.4-0.2c0.3-0.2,0.6-0.4,0.9-0.7c0.6-0.6,0.9-1.5,0.8-2.4c0-0.1,0-0.2,0.1-0.2c1.5-0.9,2.5-2.5,2.6-4.3c0,0,0-0.1,0.1-0.1
	c0.9-0.1,1.7-0.7,1.9-1.6c0.3-0.9,0-1.8-0.8-2.3l0,0c-0.3-0.2-0.6-0.3-0.9-0.5L40,21.3v-3c0.1-2-1.5-3.7-3.5-3.7c-0.1,0-0.2,0-0.2,0
	L27.8,14.7L27.8,14.7z M35.5,31.2c0,0.3-0.2,0.6-0.5,0.8c-0.3,0.2-0.8,0.2-1.2,0c-0.3-0.2-0.5-0.4-0.5-0.8h0.1c0.3,0,0.6,0.1,1,0.1
	S35.1,31.2,35.5,31.2L35.5,31.2z M29,24.5c-0.4-0.1-0.7-0.4-0.7-0.8c0-0.5,0.3-0.9,0.7-1V24.5z M30.6,24.7c0,0,0-0.1,0-0.1v-1.1
	c0-0.6,0-1.3,0-1.6l0,0c0.8-0.2,1.5-0.7,2.1-1.4c1.6,1,3.5,1.5,5.5,1.5v2.6c0,0.2,0,0.4,0,0.5c0.1,1.1-0.2,2.2-0.9,3
	c-0.7,0.8-1.7,1.3-2.7,1.3c-1,0.1-2-0.3-2.7-1C30.8,27.4,30.5,26.5,30.6,24.7L30.6,24.7z M38.1,19.7V20h-0.4
	c-1.2-0.1-2.4-0.3-3.5-0.9c-0.5-0.2-0.8-0.6-0.9-1.1c-0.1-0.4-0.4-0.7-0.9-0.7h-0.1c-0.4,0-0.8,0.4-0.8,0.8c0,0.5-0.1,0.9-0.5,1.3
	c-0.1,0.1-0.3,0.2-0.4,0.4v-0.4c0-0.5,0-1,0-1.6c0-0.4-0.1-0.8-0.5-1l0,0l-0.3-0.3h6.4c1-0.1,1.9,0.6,1.9,1.6c0,0.1,0,0.2,0,0.3
	L38.1,19.7z M39.7,24.4v-1.6c0.8,0.2,0.8,0.7,0.8,0.8C40.5,24,40.2,24.3,39.7,24.4L39.7,24.4z"/>
<path fill="#FFFFFF" d="M27.9,29.4c0.1-0.4,0-0.8-0.3-1.1l-0.1-0.1v0l-0.6-0.6c-0.7-0.7-1.4-1.4-2.1-2.1c-0.1-0.1-0.1-0.2-0.1-0.3
	c0-0.4,0-0.7,0-1.1s0-0.7,0-1c0-1.2-1-2.3-2.2-2.3c0,0-0.1,0-0.1,0c-3.7,0-6.6,0-9.2,0c-0.4,0-0.8,0.1-1.1,0.3
	c-0.4,0.2-0.7,0.5-0.9,0.9c-0.2,0.4-0.3,0.8-0.3,1.2v10.7c0,0.1,0,0.3,0.1,0.4l0,0C11,35.3,12,36,13.1,36h9c1.2,0.1,2.3-0.8,2.4-2.1
	c0-0.1,0-0.3,0-0.4c0-0.8,0-1.6,0-2.4v-1.2h2.3C27.3,30,27.7,29.7,27.9,29.4z M23.1,26.5c0.5,0.4,0.9,0.9,1.3,1.3l0.3,0.3h-0.9
	c-0.8,0-1.2,0.3-1.2,1.1v4.2c0,0.5-0.1,0.6-0.6,0.6h-9c-0.5,0-0.6-0.1-0.6-0.6V23.2c0-0.5,0.1-0.6,0.6-0.6H22c0.5,0,0.7,0.1,0.7,0.6
	v0.6c0,0.6,0,1.1,0,1.7C22.7,25.8,22.8,26.2,23.1,26.5z"/>
<path fill="#FFFFFF" d="M43.3,35c-0.2-1.4-0.9-2.6-2.1-3.3c-0.8-0.6-1.8-0.9-2.8-0.9h-0.2v1.8h0.2h0.2l0.4,0.1
	c1.5,0.3,2.5,1.6,2.5,3.1c0,1.4,0,2.8,0,4.1c0,0.5,0,1,0,1.5H40v-3.7c0-0.5-0.4-0.9-0.9-0.9s-0.9,0.4-0.9,0.9v3.7h-7.5v-3.7
	c-0.1-0.5-0.5-0.9-1-0.8c-0.4,0-0.8,0.4-0.8,0.8v3.7h-1.5v-1.6c0-1.4,0-2.9,0-4.3c0.1-1.2,0.8-2.3,2-2.7c0.2-0.1,0.5-0.1,0.8-0.2
	l0.4-0.1l0.2,0v-1.7h-0.2c-1.3,0-2.5,0.5-3.4,1.4c-0.9,0.8-1.4,2-1.5,3.2c0,1.5,0,3,0,4.5v2.4c0,0.3,0.1,0.5,0.2,0.7
	c0.2,0.2,0.5,0.3,0.8,0.3h16c0.5,0,0.9-0.4,0.9-0.9C43.3,37.5,43.3,35,43.3,35z"/>
<path fill="#FFFFFF" d="M11.6,19.9c0.5,0,0.9-0.4,0.9-0.9v-1.1h2.9c1.3,0.1,2.4-0.9,2.5-2.1c0-0.1,0-0.2,0-0.3v-3h15
	c0.5,0,0.6,0.1,0.6,0.6l0,0c0,0.4,0.3,0.7,0.7,0.7c0,0,0,0,0,0h0.4c0.4,0,0.7-0.3,0.7-0.7c0,0,0,0,0,0c0-0.4-0.1-0.8-0.2-1.2
	c-0.2-0.4-0.4-0.7-0.8-0.9c-0.4-0.2-0.9-0.4-1.3-0.4H16.7l-0.1,0.1c0,0-5.7,5.7-5.9,6v0.1V19C10.7,19.5,11.1,19.9,11.6,19.9z M14,16
	l2-2l0,0c0,0.5,0,1.1,0,1.6c0,0.2-0.1,0.4-0.3,0.4c0,0-0.1,0-0.1,0L14,16L14,16z"/>
<path fill="#FFFFFF" d="M13.2,41.5c-0.6,0-0.7-0.1-0.7-0.7s0-2.2,0-3.1c-0.1-0.5-0.5-0.9-1-0.8c-0.4,0-0.8,0.4-0.8,0.8v3.7
	c0.2,0.7,0.7,1.3,1.3,1.7c0.1,0.1,0.3,0.1,0.4,0.2l0.2,0.1l0,0h12v-1.8L13.2,41.5L13.2,41.5z"/>
<path fill="#FFFFFF" d="M14.9,27.9h5.4c0.5,0,0.9-0.4,0.9-0.9s-0.4-0.9-0.9-0.9h-5.4c-0.5,0-0.9,0.4-0.9,0.9c0,0.2,0.1,0.5,0.3,0.7
	C14.4,27.8,14.7,27.9,14.9,27.9z"/>
<path fill="#FFFFFF" d="M20.3,31.5h-5.4c-0.5,0-0.9,0.4-0.9,0.9c0,0.5,0.4,0.9,0.9,0.9l0,0h5.4c0.5,0,0.9-0.4,0.9-0.9
	C21.2,31.9,20.8,31.5,20.3,31.5z"/>
<path fill="#FFFFFF" d="M20.3,28.8h-5.4c-0.5,0-0.9,0.4-0.9,0.9c0,0.5,0.4,0.9,0.9,0.9h5.4c0.5,0,0.9-0.4,0.9-0.9
	C21.2,29.2,20.8,28.8,20.3,28.8C20.3,28.8,20.3,28.8,20.3,28.8z"/>
<path fill="#FFFFFF" d="M16.3,25.2h4c0.5,0,0.9-0.4,0.9-0.9c0-0.5-0.4-0.9-0.9-0.9h-4c-0.5,0-0.9,0.4-0.9,0.9
	C15.4,24.8,15.8,25.2,16.3,25.2z"/>
</svg>
