<?xml version="1.0" encoding="utf-8"?>
<!-- Generator: Adobe Illustrator 21.1.0, SVG Export Plug-In . SVG Version: 6.00 Build 0)  -->
<svg version="1.1" id="Layer_1" xmlns="http://www.w3.org/2000/svg" xmlns:xlink="http://www.w3.org/1999/xlink" x="0px" y="0px"
	 viewBox="0 0 54 54" enable-background="new 0 0 54 54" xml:space="preserve">
<path fill="#FFFFFF" d="M41.5,29.4c-0.5-0.6-1.1-1-1.9-1.1c-0.7-0.1-1.5,0.1-2.1,0.6l-6.7,5.2c-0.7,0.5-1.5,0.8-2.3,0.8h-1.6
	c1.3-1.2,2-2.9,2-4.7c0-0.5-0.4-0.9-0.9-0.9h0H17.6v-1c0-0.5-0.4-0.9-0.9-0.9h-3.8c-0.5,0-0.9,0.4-0.9,0.9v13.2
	c0,0.5,0.4,0.9,0.9,0.9h3.8c0.5,0,0.9-0.4,0.9-0.9v-0.9h12.5c1,0,2-0.4,2.9-1l8-6.2C42.2,32.4,42.5,30.7,41.5,29.4
	C41.5,29.4,41.5,29.4,41.5,29.4L41.5,29.4z M15.7,40.6h-1.9V29.3h1.9V40.6z M40.2,31.2c0,0.3-0.2,0.5-0.4,0.6l-8,6.2
	c-0.5,0.4-1.1,0.6-1.7,0.6H17.6v-7.5h9.3c-0.5,2.2-2.4,3.8-4.6,3.8c-0.5,0-0.9,0.4-0.9,0.9c0,0.5,0.4,0.9,0.9,0.9l0,0h6.2
	c1.3,0,2.5-0.4,3.5-1.2l6.7-5.2c0.2-0.1,0.4-0.2,0.7-0.2c0.3,0,0.5,0.2,0.6,0.4C40.2,30.8,40.2,31,40.2,31.2z"/>
<path fill="#FFFFFF" d="M37.4,16.1H16.6c-0.5,0-0.9,0.4-0.9,0.9l0,0v7.5c0,0.5,0.4,0.9,0.9,0.9s0.9-0.4,0.9-0.9V18h5.6v4.7
	c0,0.3,0.2,0.7,0.5,0.8c0.3,0.2,0.7,0.2,1,0l2.3-1.6l2.3,1.5c0.2,0.1,0.3,0.2,0.5,0.2c0.2,0,0.3,0,0.5-0.1c0.3-0.2,0.5-0.5,0.5-0.8
	V18h5.7v8.5c0,0.5,0.4,0.9,0.9,0.9c0.5,0,0.9-0.4,0.9-0.9V17C38.3,16.5,37.9,16.1,37.4,16.1z M28.9,20.9L27.5,20
	c-0.3-0.2-0.7-0.2-1,0l-1.4,0.9V18h3.8L28.9,20.9z"/>
</svg>
