<?xml version="1.0" encoding="utf-8"?>
<!-- Generator: Adobe Illustrator 21.1.0, SVG Export Plug-In . SVG Version: 6.00 Build 0)  -->
<svg version="1.1" id="Layer_1" xmlns="http://www.w3.org/2000/svg" xmlns:xlink="http://www.w3.org/1999/xlink" x="0px" y="0px"
	 viewBox="0 0 54 54" enable-background="new 0 0 54 54" xml:space="preserve">
<path fill="#FFFFFF" d="M28.1,12.6c0.6,0,1-0.4,1-1v-0.7c0-0.6-0.4-1-1-1s-1,0.4-1,1v0.7C27.1,12.2,27.6,12.6,28.1,12.6z"/>
<path fill="#FFFFFF" d="M18.9,15.3c0.2,0.2,0.4,0.3,0.7,0.3c0.3,0,0.5-0.1,0.7-0.3c0.4-0.4,0.4-1,0-1.4c0,0,0,0,0,0l-0.6-0.6
	c-0.4-0.4-1-0.4-1.4,0s-0.4,1,0,1.4L18.9,15.3z"/>
<path fill="#FFFFFF" d="M36.8,15.6c0.3,0,0.5-0.1,0.7-0.3l0.6-0.6c0.4-0.4,0.4-1,0-1.4c-0.4-0.4-1-0.4-1.4,0l-0.6,0.6
	c-0.4,0.4-0.4,1,0,1.4c0,0,0,0,0,0C36.2,15.5,36.5,15.6,36.8,15.6z"/>
<path fill="#FFFFFF" d="M15.9,22h0.8c0.6,0,1-0.4,1-1s-0.4-1-1-1h-0.8c-0.6,0-1,0.4-1,1S15.3,22,15.9,22z"/>
<path fill="#FFFFFF" d="M40.4,20h-0.8c-0.6,0-1,0.4-1,1s0.4,1,1,1h0.8c0.6,0,1-0.4,1-1S41,20,40.4,20z"/>
<path fill="#FFFFFF" d="M39.4,24.9H37c0.1-0.5,0.1-1,0.1-1.5c0-5-4-9-9-9s-9,4-9,9c0,0.5,0,1,0.1,1.5h-2.7c-0.3,0-0.6,0.2-0.8,0.4
	l-2.8,4.2c0,0,0,0,0,0.1c-0.5,0.9-0.2,2.1,0.7,2.6c0.3,0.2,0.6,0.3,1,0.3h2.1l0.2,5c0,1.4,1.1,2.5,2.5,2.6c0.1,0,0.3,0,0.4,0
	l2.2-0.3v3.5c0,0.6,0.4,1,1,1h12.3c0.6,0,1-0.4,1-1v-7.7c2.9-3.1,4-4.7,4.2-9.5c0-0.3-0.1-0.5-0.3-0.7C40,25,39.7,24.9,39.4,24.9z
	 M21.1,23.4c0-3.9,3.1-7,7-7s7,3.1,7,7c0,0.5-0.1,1-0.2,1.5h-3.6l1-3.7c0.1-0.5-0.2-1.1-0.7-1.2c-0.3-0.1-0.6,0-0.8,0.1
	c-1.6,1.1-3.6,1.1-5.2,0c-0.4-0.3-1.1-0.2-1.4,0.2c-0.2,0.2-0.3,0.6-0.2,0.9l1,3.7h-3.8C21.2,24.4,21.2,23.9,21.1,23.4z M27.1,24.9
	l-0.6-2.2l0.2,0c1,0.3,2.1,0.3,3.1,0l-0.6,2.1L27.1,24.9z M34.5,34.4c-0.2,0.2-0.3,0.4-0.3,0.7v7H23.9v-2.8l1.9-0.4
	c1.2-0.3,2.3-1.1,2.9-2.2c0.6-1.2,1.4-2.8,1.4-2.8c0.2-0.5,0-1.1-0.5-1.3c-0.5-0.2-1.1,0-1.3,0.5c0,0-0.8,1.6-1.4,2.8
	c-0.3,0.6-0.8,1-1.5,1.2l-2.6,0.6l-3.2,0.4h0c-0.2,0-0.3,0-0.4-0.1c-0.1-0.1-0.2-0.3-0.2-0.4v-0.1l-0.3-6c0-0.6-0.4-1-1-1h-2.9
	l2.3-3.5h21.4C38.1,30.5,37.1,31.7,34.5,34.4L34.5,34.4z"/>
</svg>
