<?xml version="1.0" encoding="utf-8"?>
<!-- Generator: Adobe Illustrator 21.1.0, SVG Export Plug-In . SVG Version: 6.00 Build 0)  -->
<svg version="1.1" id="Layer_1" xmlns="http://www.w3.org/2000/svg" xmlns:xlink="http://www.w3.org/1999/xlink" x="0px" y="0px"
	 viewBox="0 0 54 54" enable-background="new 0 0 54 54" xml:space="preserve">
<path fill="#FFFFFF" d="M37.6,24.5l-4.2,4.1l-1.3-1.4c-0.4-0.4-1.1-0.4-1.5,0s-0.4,1.1,0,1.5l2.1,2.1c0.2,0.2,0.5,0.3,0.7,0.3
	c0.3,0,0.5-0.1,0.7-0.3l4.9-4.9c0.4-0.4,0.4-1.1,0-1.5S38,24.1,37.6,24.5L37.6,24.5L37.6,24.5z"/>
<path fill="#FFFFFF" d="M14.7,17.5H21c0.6,0,1-0.5,1-1c0-0.6-0.5-1.1-1-1.1h-6.3c-0.6,0-1.1,0.5-1.1,1.1
	C13.6,17.1,14.1,17.5,14.7,17.5z"/>
<path fill="#FFFFFF" d="M23.7,19.6H21c-0.6,0-1.1,0.5-1.1,1.1c0,0.6,0.5,1,1.1,1l0,0h2.8c0.6,0,1-0.5,1-1
	C24.8,20.1,24.4,19.6,23.7,19.6L23.7,19.6z"/>
<path fill="#FFFFFF" d="M18.9,23.8h-4.2c-0.6,0-1.1,0.5-1.1,1c0,0.6,0.5,1.1,1.1,1.1h4.2c0.6,0,1.1-0.5,1.1-1.1
	C19.9,24.3,19.4,23.8,18.9,23.8z"/>
<path fill="#FFFFFF" d="M28.3,16.5c0-0.6-0.4-1-1-1h-2.1c-0.6,0-1.1,0.5-1.1,1.1c0,0.6,0.5,1,1.1,1h2.1c0.6,0,1-0.4,1.1-0.9
	C28.3,16.6,28.3,16.5,28.3,16.5z"/>
<path fill="#FFFFFF" d="M14.7,21.7h2.1c0.6,0,1.1-0.5,1.1-1c0-0.6-0.5-1.1-1.1-1.1h-2.1c-0.6,0-1.1,0.5-1.1,1.1
	C13.6,21.3,14.1,21.7,14.7,21.7z"/>
<path fill="#FFFFFF" d="M44.7,38.1l-2.9-5c2.6-3,3-7.4,1-10.8c-0.5-0.9-1.1-1.6-1.9-2.3v-4.9c0-2.1-1.7-3.8-3.8-3.8H13.2
	c-2.1,0-3.8,1.7-3.8,3.8v16.8c0,2.1,1.7,3.8,3.9,3.8h7.3l-0.7,2.1h-0.3c-1.7,0-3.1,1.4-3.1,3.1V43c0,0.6,0.4,1,1,1h15.4
	c0.6,0,1-0.4,1-1v-2.1c0-1.7-1.4-3.1-3.1-3.1h-0.3l-0.7-2.1H31c1.1,0.5,2.3,0.7,3.6,0.7c0.6,0,1.1-0.1,1.7-0.2l2.9,5
	c0.6,1,1.6,1.6,2.8,1.6c0.5,0,1.1-0.1,1.6-0.4c0.7-0.4,1.2-1.1,1.4-1.9C45.2,39.7,45.1,38.8,44.7,38.1z M11.5,15.1
	c0-1,0.8-1.7,1.7-1.7c0,0,0,0,0,0h23.9c1,0,1.7,0.8,1.7,1.7c0,0,0,0,0,0v3.4c-4.7-2.3-10.3-0.4-12.6,4.2c-1,2.1-1.3,4.4-0.7,6.7
	H11.4L11.5,15.1z M13.2,33.6c-1,0-1.8-0.8-1.8-1.8v-0.3h14.9c0,0.1,0.1,0.1,0.1,0.2c0.4,0.7,0.9,1.3,1.5,1.9H13.2z M28.2,37.8H22
	l0.7-2.1h4.8L28.2,37.8z M30.7,39.9c0.6,0,1,0.4,1,0.9c0,0,0,0,0,0.1v1H18.5v-1c0-0.6,0.4-1,1-1c0,0,0,0,0.1,0H30.7z M34.6,34.3
	c-4.1,0-7.3-3.3-7.3-7.4s3.3-7.3,7.4-7.3c4,0,7.3,3.3,7.3,7.4C42,31,38.7,34.3,34.6,34.3L34.6,34.3z M43,39.9
	c-0.1,0.3-0.2,0.5-0.5,0.6c-0.2,0.1-0.5,0.2-0.8,0.1c-0.3-0.1-0.5-0.2-0.6-0.5l-2.7-4.6c0.3-0.1,0.6-0.3,0.9-0.5
	c0.3-0.2,0.6-0.4,0.9-0.6l2.7,4.6C43,39.4,43.1,39.7,43,39.9z"/>
</svg>
