<?xml version="1.0" encoding="utf-8"?>
<!-- Generator: Adobe Illustrator 21.1.0, SVG Export Plug-In . SVG Version: 6.00 Build 0)  -->
<svg version="1.1" id="Layer_1" xmlns="http://www.w3.org/2000/svg" xmlns:xlink="http://www.w3.org/1999/xlink" x="0px" y="0px"
	 viewBox="0 0 60 60" enable-background="new 0 0 60 60" xml:space="preserve">
<circle fill="#E8A010" stroke="#252B33" stroke-width="2" stroke-miterlimit="10" cx="30" cy="30" r="28.5"/>
<g>
	<g id="ic-clocl-minute">
		<path id="Combined-Shape_1_" fill="#252B33" d="M30.1,14.9c0.8,0,1.5,0.7,1.5,1.5v7c0,0.4-0.2,0.8-0.5,1.1l0,2.4
			c0,0.1,0,0.1,0,0.2c1.2,0.4,2,1.5,2,2.8c0,1.7-1.3,3-3,3s-3-1.3-3-3c0-1.3,0.8-2.4,2-2.8c0-0.1,0-0.1,0-0.2l0-2.4
			c-0.3-0.3-0.5-0.7-0.5-1.1v-7C28.6,15.6,29.3,14.9,30.1,14.9z"/>
	</g>
	<g id="ic-clocl-minute_1_">
		<path id="Combined-Shape_2_" fill="#252B33" d="M8.4,33.1c-0.1-0.8,0.4-1.6,1.3-1.7l13.8-2.1c0.4-0.1,0.9,0.1,1.2,0.3l2.4-0.4
			c0.1,0,0.1,0,0.2,0c0.2-1.2,1.2-2.2,2.5-2.4c1.6-0.2,3.2,0.9,3.4,2.5s-0.9,3.2-2.5,3.4c-1.3,0.2-2.5-0.5-3.1-1.6
			c-0.1,0-0.1,0-0.2,0l-2.4,0.4c-0.2,0.3-0.6,0.6-1,0.7l-13.8,2.1C9.2,34.4,8.5,33.9,8.4,33.1z"/>
	</g>
	<g>
		<path id="Combined-Shape" fill="#FFFFFF" d="M47.7,13.7L32,29.4c0.2,0.7,0,1.4-0.5,1.9c-0.5,0.5-1.3,0.7-1.9,0.5l-4.4,4.4
			l-1.4-1.4l4.4-4.4c-0.2-0.7,0-1.4,0.5-1.9c0.5-0.5,1.3-0.7,1.9-0.5l15.7-15.7L47.7,13.7z"/>
		
			<ellipse id="Top-Oval" transform="matrix(0.7071 -0.7071 0.7071 0.7071 -12.367 29.9971)" fill="#E8A010" cx="30" cy="29.9" rx="1" ry="1"/>
	</g>
</g>
</svg>
