<?xml version="1.0" encoding="utf-8"?>
<!-- Generator: Adobe Illustrator 21.1.0, SVG Export Plug-In . SVG Version: 6.00 Build 0)  -->
<svg version="1.1" id="_x2014_ÎÓÈ_x5F_2" xmlns="http://www.w3.org/2000/svg" xmlns:xlink="http://www.w3.org/1999/xlink"
	 x="0px" y="0px" viewBox="0 0 2081.1 1508.9" enable-background="new 0 0 2081.1 1508.9" xml:space="preserve">
<g>
	<path opacity="8.000000e-02" fill="#8778F3" enable-background="new    " d="M785.9,1434.5c0,0,272.9,104.7,535.7-47.4
		c262.7-152.1,390.6-462.3,500.7-710.7C1932.5,428,1860.9,171.6,1655.6,51c-205.4-120.5-339.9,48-624.6,50.4
		c-284.6,2.4-362.1-41.1-595,119.4C203,381.3,168.2,771.1,360.5,1064S785.9,1434.5,785.9,1434.5z"/>
	<g>
		<g>
			<g>
				<g>
					<g>
						<rect x="1721.5" y="407.6" fill="#1B2251" width="359.6" height="604.2"/>
						<rect x="1710.2" y="407.6" fill="#242E6C" width="359.6" height="604.2"/>
						<rect x="1734.7" y="441.4" fill="#EFECEA" width="311.5" height="210.4"/>
						<rect x="1873.6" y="849.3" fill="#EFECEA" width="167.2" height="112.4"/>
						
							<linearGradient id="SVGID_1_" gradientUnits="userSpaceOnUse" x1="1747.6" y1="912.7595" x2="2036.2" y2="912.7595" gradientTransform="matrix(1 0 0 -1 0 1508)">
							<stop  offset="0" style="stop-color:#F9795A"/>
							<stop  offset="1" style="stop-color:#EB3668"/>
						</linearGradient>
						<path fill="url(#SVGID_1_)" d="M1747.6,548.8c0,0,53.2-6.6,85.7,23.3c32.5,29.9,93,2.7,117.4,0c42.4-4.6,75.6,9.3,85.5,24.5
							v45.7h-288.6V548.8z"/>
						<rect x="1788.8" y="475.2" fill="#1B2251" width="2.2" height="71.4"/>
						<rect x="1876.2" y="505.8" fill="#1B2251" width="2.2" height="71.4"/>
						<rect x="1966.5" y="489.7" fill="#1B2251" width="2.2" height="71.4"/>
						<path fill="#1B2251" d="M1815.9,486.2h-17.1c-1,0-1.9-0.8-1.9-1.9l0,0c0-1,0.8-1.9,1.9-1.9h17.1c1,0,1.9,0.8,1.9,1.9l0,0
							C1817.7,485.3,1816.9,486.2,1815.9,486.2z"/>
						<path fill="#1B2251" d="M1815.9,492.8h-17.1c-1,0-1.9-0.8-1.9-1.9l0,0c0-1,0.8-1.9,1.9-1.9h17.1c1,0,1.9,0.8,1.9,1.9l0,0
							C1817.7,492,1816.9,492.8,1815.9,492.8z"/>
						<path fill="#1B2251" d="M1902,522.5h-17c-1,0-1.9-0.8-1.9-1.9l0,0c0-1,0.8-1.9,1.9-1.9h17.1c1,0,1.9,0.8,1.9,1.9l0,0
							C1903.9,521.7,1903.1,522.5,1902,522.5z"/>
						<path fill="#1B2251" d="M1902,529.1h-17c-1,0-1.9-0.8-1.9-1.9l0,0c0-1,0.8-1.9,1.9-1.9h17.1c1,0,1.9,0.8,1.9,1.9l0,0
							C1903.9,528.3,1903.1,529.1,1902,529.1z"/>
						<path fill="#1B2251" d="M1993.8,495.6h-17.1c-1,0-1.9-0.8-1.9-1.9l0,0c0-1,0.8-1.9,1.9-1.9h17.1c1,0,1.9,0.8,1.9,1.9l0,0
							C1995.6,494.8,1994.8,495.6,1993.8,495.6z"/>
						<path fill="#1B2251" d="M1993.8,502.2h-17.1c-1,0-1.9-0.8-1.9-1.9l0,0c0-1,0.8-1.9,1.9-1.9h17.1c1,0,1.9,0.8,1.9,1.9l0,0
							C1995.6,501.3,1994.8,502.2,1993.8,502.2z"/>
						<g>
							<circle fill="#EFECEA" cx="2015.4" cy="705.7" r="30.8"/>
							<path fill="#C643DB" d="M2043.6,705.7c0,15.5-12.6,28.1-28.1,28.1c-7.3,0-14-2.8-19-7.4l19-20.7v-28.1
								C2031,677.5,2043.6,690.1,2043.6,705.7z"/>
							<path fill="#C0D3F8" d="M2004.7,700.7h-10.1c-0.5,0-0.8-0.4-0.8-0.8l0,0c0-0.5,0.4-0.8,0.8-0.8h10.1c0.5,0,0.8,0.4,0.8,0.8
								l0,0C2005.6,700.3,2005.2,700.7,2004.7,700.7z"/>
						</g>
						<g>
							<circle fill="#EFECEA" cx="1939.1" cy="705.7" r="30.8"/>
							<path fill="#FD8857" d="M1939.1,705.7l17.3,22.2c-4.8,3.7-10.8,5.9-17.3,5.9c-15.5,0-28.2-12.6-28.2-28.1
								s12.6-28.1,28.2-28.1c14.7,0,26.7,11.2,28,25.6L1939.1,705.7z"/>
							<path fill="#C0D3F8" d="M1960.7,712.6h-7c-0.5,0-0.8-0.4-0.8-0.8l0,0c0-0.5,0.4-0.8,0.8-0.8h7c0.5,0,0.8,0.4,0.8,0.8l0,0
								C1961.6,712.2,1961.2,712.6,1960.7,712.6z"/>
						</g>
						<g>
							<circle fill="#EFECEA" cx="2015.4" cy="790.4" r="30.8"/>
							<path fill="#FD8857" d="M2043.6,790.4c0,15.5-12.6,28.1-28.1,28.1c-7.3,0-14-2.8-19-7.4l19-20.7v-28.1
								C2031,762.2,2043.6,774.8,2043.6,790.4z"/>
							<path fill="#C0D3F8" d="M2004.7,785.4h-10.1c-0.5,0-0.8-0.4-0.8-0.8l0,0c0-0.5,0.4-0.8,0.8-0.8h10.1c0.5,0,0.8,0.4,0.8,0.8
								l0,0C2005.6,785,2005.2,785.4,2004.7,785.4z"/>
						</g>
						<g>
							<circle fill="#EFECEA" cx="1939.1" cy="790.4" r="30.8"/>
							<path fill="#C643DB" d="M1967.1,787.8c-1.3-14.3-13.4-25.6-28-25.6c-15.5,0-28.2,12.6-28.2,28.1s12.6,28.1,28.2,28.1
								c6.5,0,12.5-2.2,17.3-5.9l-17.3-22.2L1967.1,787.8z"/>
							<path fill="#C0D3F8" d="M1960.7,797.3h-7c-0.5,0-0.8-0.4-0.8-0.8l0,0c0-0.5,0.4-0.8,0.8-0.8h7c0.5,0,0.8,0.4,0.8,0.8l0,0
								C1961.6,796.9,1961.2,797.3,1960.7,797.3z"/>
						</g>
						<g>
							<polygon fill="#1B2251" points="2033.6,953.8 1880.2,953.8 1880.2,863.2 1882.1,863.2 1882.1,951.9 2033.6,951.9 							"/>
						</g>
						<g>
							
								<linearGradient id="SVGID_2_" gradientUnits="userSpaceOnUse" x1="1889.2999" y1="594.45" x2="2029.7" y2="594.45" gradientTransform="matrix(1 0 0 -1 0 1508)">
								<stop  offset="0" style="stop-color:#C643DB"/>
								<stop  offset="1" style="stop-color:#6615B2"/>
							</linearGradient>
							<path fill="url(#SVGID_2_)" d="M1928.1,921c-18.8-15-38.8,0-38.8,0v25.6h140.4v-66.1C1991.6,881.5,1946.9,936,1928.1,921z"/>
							<path fill="#1B2251" d="M1891,870.1h65.4c0.9,0,1.6-0.7,1.6-1.6c0-0.9-0.7-1.6-1.6-1.6H1891c-0.9,0-1.6,0.7-1.6,1.6
								C1889.4,869.3,1890.1,870.1,1891,870.1z"/>
							<path fill="#1B2251" d="M1891,877.9h65.4c0.9,0,1.6-0.7,1.6-1.6c0-0.9-0.7-1.6-1.6-1.6H1891c-0.9,0-1.6,0.7-1.6,1.6
								S1890.1,877.9,1891,877.9z"/>
							<path fill="#1B2251" d="M1890.7,885.3h43.3c0.7,0,1.3-0.6,1.3-1.3v-0.6c0-0.7-0.6-1.3-1.3-1.3h-43.3c-0.7,0-1.3,0.6-1.3,1.3
								v0.6C1889.4,884.8,1890,885.3,1890.7,885.3z"/>
						</g>
					</g>
					<g>
						<rect x="890.9" y="244.3" fill="#242E6C" width="725.9" height="1094.8"/>
						<rect x="961" y="305.6" fill="#EFECEA" width="584.5" height="651.4"/>
						<circle fill="#EFECEA" cx="1078.5" cy="1165.1" r="105.1"/>
						<path fill="#EB3668" d="M1167.4,1165.1c0-49.1-39.8-88.9-88.8-88.9c-49.1,0-88.9,39.8-88.9,88.9s39.8,88.9,88.9,88.9
							c20.3,0,38.9-6.8,53.9-18.2l-53.9-70.6l83,31.7C1165.3,1187,1167.4,1176.3,1167.4,1165.1z"/>
						<circle fill="#EFECEA" cx="1436.7" cy="1165.1" r="105.1"/>
						<path fill="#EB3668" d="M1436.7,1076.3c-49.1,0-88.9,39.8-88.9,88.9c0,24.3,9.7,46.3,25.5,62.3l63.3-62.3l83,31.7
							c3.8-9.8,5.8-20.5,5.8-31.7C1525.5,1116.1,1485.7,1076.3,1436.7,1076.3z"/>
						<g>
							<path fill="#FFFFFF" d="M1423.7,1120h-37.8c-1.5,0-2.7,1.2-2.7,2.7l0,0c0,1.5,1.2,2.7,2.7,2.7h37.8c1.5,0,2.7-1.2,2.7-2.7
								l0,0C1426.4,1121.2,1425.2,1120,1423.7,1120z"/>
							<path fill="#EFECEA" d="M1423.7,1128.6h-37.8c-1.5,0-2.7,1.2-2.7,2.7s1.2,2.7,2.7,2.7h37.8c1.5,0,2.7-1.2,2.7-2.7
								C1426.4,1129.8,1425.2,1128.6,1423.7,1128.6z"/>
							<path fill="#FFFFFF" d="M1401.5,1137.1h-15.6c-1.5,0-2.7,1.2-2.7,2.7s1.2,2.7,2.7,2.7h15.6c1.5,0,2.7-1.2,2.7-2.7
								S1403,1137.1,1401.5,1137.1z"/>
						</g>
						<g>
							<path fill="#EFECEA" d="M1064.8,1120H1027c-1.5,0-2.7,1.2-2.7,2.7l0,0c0,1.5,1.2,2.7,2.7,2.7h37.8c1.5,0,2.7-1.2,2.7-2.7l0,0
								C1067.5,1121.2,1066.3,1120,1064.8,1120z"/>
							<path fill="#EFECEA" d="M1064.8,1128.6H1027c-1.5,0-2.7,1.2-2.7,2.7s1.2,2.7,2.7,2.7h37.8c1.5,0,2.7-1.2,2.7-2.7
								C1067.5,1129.8,1066.3,1128.6,1064.8,1128.6z"/>
							<path fill="#EFECEA" d="M1042.6,1137.1H1027c-1.5,0-2.7,1.2-2.7,2.7s1.2,2.7,2.7,2.7h15.6c1.5,0,2.7-1.2,2.7-2.7
								S1044.1,1137.1,1042.6,1137.1z"/>
						</g>
						<g>
							
								<linearGradient id="SVGID_3_" gradientUnits="userSpaceOnUse" x1="1013.1" y1="777.5" x2="1074.7999" y2="777.5" gradientTransform="matrix(1 0 0 -1 0 1508)">
								<stop  offset="0" style="stop-color:#F9795A"/>
								<stop  offset="1" style="stop-color:#EB3668"/>
							</linearGradient>
							<rect x="1013.1" y="538.4" fill="url(#SVGID_3_)" width="61.7" height="384.2"/>
							
								<linearGradient id="SVGID_4_" gradientUnits="userSpaceOnUse" x1="1114.1" y1="831.05" x2="1175.7999" y2="831.05" gradientTransform="matrix(1 0 0 -1 0 1508)">
								<stop  offset="0" style="stop-color:#F9795A"/>
								<stop  offset="1" style="stop-color:#EB3668"/>
							</linearGradient>
							<rect x="1114.1" y="431.3" fill="url(#SVGID_4_)" width="61.7" height="491.3"/>
							
								<linearGradient id="SVGID_5_" gradientUnits="userSpaceOnUse" x1="1224.3" y1="731.05" x2="1286" y2="731.05" gradientTransform="matrix(1 0 0 -1 0 1508)">
								<stop  offset="0" style="stop-color:#F9795A"/>
								<stop  offset="1" style="stop-color:#EB3668"/>
							</linearGradient>
							<rect x="1224.3" y="631.3" fill="url(#SVGID_5_)" width="61.7" height="291.3"/>
							
								<linearGradient id="SVGID_6_" gradientUnits="userSpaceOnUse" x1="1331.6" y1="798.25" x2="1393.2999" y2="798.25" gradientTransform="matrix(1 0 0 -1 0 1508)">
								<stop  offset="0" style="stop-color:#F9795A"/>
								<stop  offset="1" style="stop-color:#EB3668"/>
							</linearGradient>
							<rect x="1331.6" y="496.9" fill="url(#SVGID_6_)" width="61.7" height="425.7"/>
							
								<linearGradient id="SVGID_7_" gradientUnits="userSpaceOnUse" x1="1439.5" y1="702.55" x2="1501.2" y2="702.55" gradientTransform="matrix(1 0 0 -1 0 1508)">
								<stop  offset="0" style="stop-color:#F9795A"/>
								<stop  offset="1" style="stop-color:#EB3668"/>
							</linearGradient>
							<rect x="1439.5" y="688.3" fill="url(#SVGID_7_)" width="61.7" height="234.3"/>
						</g>
						<g>
							<path fill="#1B2251" d="M1390.4,441.5h-52.2c-3,0-5.4,2.4-5.4,5.4s2.4,5.4,5.4,5.4h52.2c3,0,5.4-2.4,5.4-5.4
								S1393.3,441.5,1390.4,441.5z"/>
							<path fill="#1B2251" d="M1350,461.1h-11.9c-3,0-5.4,2.4-5.4,5.4s2.4,5.4,5.4,5.4h11.9c3,0,5.4-2.4,5.4-5.4
								C1355.4,463.6,1353,461.1,1350,461.1z"/>
							<path fill="#1B2251" d="M1175.1,357.8h-52.2c-3,0-5.4,2.4-5.4,5.4s2.4,5.4,5.4,5.4h52.2c3,0,5.4-2.4,5.4-5.4
								C1180.6,360.2,1178.1,357.8,1175.1,357.8z"/>
							<path fill="#1B2251" d="M1134.8,377.5h-11.9c-3,0-5.4,2.4-5.4,5.4l0,0c0,3,2.4,5.4,5.4,5.4h11.9c3,0,5.4-2.4,5.4-5.4l0,0
								C1140.2,379.9,1137.8,377.5,1134.8,377.5z"/>
							<path fill="#1B2251" d="M1281.3,573.9h-52.2c-3,0-5.4,2.4-5.4,5.4s2.4,5.4,5.4,5.4h52.2c3,0,5.4-2.4,5.4-5.4
								C1286.7,576.4,1284.3,573.9,1281.3,573.9z"/>
							<path fill="#1B2251" d="M1241,593.6h-11.9c-3,0-5.4,2.4-5.4,5.4l0,0c0,3,2.4,5.4,5.4,5.4h11.9c3,0,5.4-2.4,5.4-5.4l0,0
								C1246.4,596,1243.9,593.6,1241,593.6z"/>
							<path fill="#1B2251" d="M1496.4,631.3h-52.2c-3,0-5.4,2.4-5.4,5.4s2.4,5.4,5.4,5.4h52.2c3,0,5.4-2.4,5.4-5.4
								S1499.4,631.3,1496.4,631.3z"/>
							<path fill="#1B2251" d="M1456.1,650.9h-11.9c-3,0-5.4,2.4-5.4,5.4s2.4,5.4,5.4,5.4h11.9c3,0,5.4-2.4,5.4-5.4
								C1461.5,653.4,1459.1,650.9,1456.1,650.9z"/>
						</g>
					</g>
					<g>
						<rect x="269.1" y="766.2" fill="#F24B46" width="415.7" height="234"/>
						<rect x="282.6" y="766.2" fill="#FD8857" width="415.7" height="234"/>
						<circle fill="#EFECEA" cx="396.3" cy="877.9" r="75.2"/>
						<g>
							<path fill="#EFECEA" d="M651.6,835.9H527.1c-4.5,0-8.2,3.7-8.2,8.2l0,0c0,4.5,3.7,8.2,8.2,8.2h124.5c4.5,0,8.2-3.7,8.2-8.2
								l0,0C659.8,839.6,656.1,835.9,651.6,835.9z"/>
							<path fill="#EFECEA" d="M651.6,869.7H527.1c-4.5,0-8.2,3.7-8.2,8.2l0,0c0,4.5,3.7,8.2,8.2,8.2h124.5c4.5,0,8.2-3.7,8.2-8.2
								l0,0C659.8,873.4,656.1,869.7,651.6,869.7z"/>
							<path fill="#EFECEA" d="M651.6,903.5H527.1c-4.5,0-8.2,3.7-8.2,8.2s3.7,8.2,8.2,8.2h124.5c4.5,0,8.2-3.7,8.2-8.2
								S656.1,903.5,651.6,903.5z"/>
						</g>
						<path fill="#F24B46" d="M327.5,876.8h68.8V808C358.3,808,327.5,838.8,327.5,876.8z"/>
						<path fill="#6615B2" d="M465.1,879h-68.8l0,0h-68.8c0,38,30.8,68.8,68.8,68.8l0,0l0,0l0,0l0,0
							C434.3,947.8,465.1,917,465.1,879z"/>
						<g>
							<path fill="#1B2251" d="M384.4,841.4h-37.3c-2.1,0-3.9,1.7-3.9,3.9c0,2.1,1.7,3.9,3.9,3.9h37.3c2.1,0,3.9-1.7,3.9-3.9
								C388.3,843.2,386.6,841.4,384.4,841.4z"/>
							<path fill="#1B2251" d="M355.6,855.5h-8.5c-2.1,0-3.9,1.7-3.9,3.9c0,2.1,1.7,3.9,3.9,3.9h8.5c2.1,0,3.9-1.7,3.9-3.9
								S357.7,855.5,355.6,855.5z"/>
						</g>
						<g>
							<path fill="#1B2251" d="M439.9,895.9h-37.3c-2.1,0-3.9,1.7-3.9,3.9c0,2.1,1.7,3.9,3.9,3.9h37.3c2.1,0,3.9-1.7,3.9-3.9
								C443.7,897.6,442,895.9,439.9,895.9z"/>
							<path fill="#1B2251" d="M411,909.9h-8.5c-2.1,0-3.9,1.7-3.9,3.9l0,0c0,2.1,1.7,3.9,3.9,3.9h8.5c2.1,0,3.9-1.7,3.9-3.9l0,0
								C414.9,911.7,413.2,909.9,411,909.9z"/>
						</g>
					</g>
					<g>
						<path fill="#F24B46" d="M225,1069.5v247.4h429.7v-247.4H225z"/>
						<path fill="#FD8857" d="M239,1069.5v247.4h429.7v-247.4H239z"/>
						<circle fill="#EFECEA" cx="356.5" cy="1185.6" r="77.7"/>
						<g>
							<path fill="#EFECEA" d="M491.7,1159.1h128.7c4.7,0,8.5-3.8,8.5-8.5s-3.8-8.5-8.5-8.5H491.7c-4.7,0-8.5,3.8-8.5,8.5
								C483.2,1155.3,487,1159.1,491.7,1159.1z"/>
							<path fill="#EFECEA" d="M620.4,1177.1H491.7c-4.7,0-8.5,3.8-8.5,8.5s3.8,8.5,8.5,8.5h128.7c4.7,0,8.5-3.8,8.5-8.5
								S625.1,1177.1,620.4,1177.1z"/>
							<path fill="#EFECEA" d="M620.4,1212H491.7c-4.7,0-8.5,3.8-8.5,8.5l0,0c0,4.7,3.8,8.5,8.5,8.5h128.7c4.7,0,8.5-3.8,8.5-8.5
								l0,0C628.9,1215.8,625.1,1212,620.4,1212z"/>
						</g>
						<path fill="#6615B2" d="M356.5,1186.8l-71.1-0.9c0,0.3,0,0.6,0,0.9c0,39.3,31.9,71.1,71.1,71.1c14,0,27.1-4.1,38.2-11.1
							L356.5,1186.8z"/>
						<g>
							<path fill="#1B2251" d="M359.1,1209.2h-38.6c-2.2,0-4,1.8-4,4l0,0c0,2.2,1.8,4,4,4h38.6c2.2,0,4-1.8,4-4l0,0
								C363.1,1211,361.3,1209.2,359.1,1209.2z"/>
							<path fill="#1B2251" d="M329.3,1223.8h-8.8c-2.2,0-4,1.8-4,4s1.8,4,4,4h8.8c2.2,0,4-1.8,4-4
								C333.3,1225.6,331.5,1223.8,329.3,1223.8z"/>
						</g>
					</g>
					<g>
						<rect x="187" y="482.5" fill="#F24B46" width="425.8" height="222.2"/>
						<rect x="200.8" y="482.5" fill="#FD8857" width="425.8" height="222.2"/>
						<circle fill="#EFECEA" cx="317.3" cy="596.9" r="77"/>
						<path fill="#F24B46" d="M317.3,526.4c-38.9,0-70.5,31.6-70.5,70.5c0,26.7,14.8,49.9,36.7,61.9c11.3-20.9,33.8-61.9,33.8-61.9
							l33.4,62.1c22.1-11.9,37.1-35.2,37.1-62.1C387.7,557.9,356.2,526.4,317.3,526.4z"/>
						<g>
							<path fill="#EFECEA" d="M578.7,553.9H451.2c-4.6,0-8.4,3.8-8.4,8.4l0,0c0,4.6,3.8,8.4,8.4,8.4h127.5c4.6,0,8.4-3.8,8.4-8.4
								l0,0C587.1,557.6,583.4,553.9,578.7,553.9z"/>
							<path fill="#EFECEA" d="M578.7,588.5H451.2c-4.6,0-8.4,3.8-8.4,8.4c0,4.6,3.8,8.4,8.4,8.4h127.5c4.6,0,8.4-3.8,8.4-8.4
								C587.1,592.2,583.4,588.5,578.7,588.5z"/>
							<path fill="#EFECEA" d="M578.7,623.1H451.2c-4.6,0-8.4,3.8-8.4,8.4c0,4.6,3.8,8.4,8.4,8.4h127.5c4.6,0,8.4-3.8,8.4-8.4
								C587.1,626.8,583.4,623.1,578.7,623.1z"/>
						</g>
						<g>
							<path fill="#1B2251" d="M319.8,563.2h-38.3c-2.2,0-4,1.8-4,4s1.8,4,4,4h38.3c2.2,0,4-1.8,4-4S322,563.2,319.8,563.2z"/>
							<path fill="#1B2251" d="M290.3,577.6h-8.7c-2.2,0-4,1.8-4,4l0,0c0,2.2,1.8,4,4,4h8.7c2.2,0,4-1.8,4-4l0,0
								C294.3,579.4,292.5,577.6,290.3,577.6z"/>
						</g>
					</g>
				</g>
				<g>
					<path fill="#7F22BA" d="M895.9,811.6c0,0,61.9,63.9,64.9,88s-29.4,61.8-29.4,61.8L895.9,811.6z"/>
					<path fill="#1B2251" d="M869.4,1474.4c0,0-2.1,34-8.7,34.5c-0.9,0.1-33.3,0.1-33.3,0.1l-41.4-0.2c0,0,0.3-10,12.4-12.1
						c12.1-2.1,32.4-10.6,39.7-26.6C845.8,1453.1,869.4,1474.4,869.4,1474.4z"/>
					<path fill="#1B2251" d="M961.7,1474.4c0,0-2.1,34-8.7,34.5c-0.9,0.1-33.3,0.1-33.3,0.1l-41.6-0.1c0,0,0.4-10.1,12.5-12.2
						s32.4-10.6,39.7-26.6C938,1453.1,961.7,1474.4,961.7,1474.4z"/>
					<path fill="#F24B46" d="M823.5,1110.1c0,0,10.8,69.3,51.3,192.3c40.4,123,45.9,176.3,45.9,176.3s10.9,1.6,22.5,1.6
						c7.3,0,20.9-2.8,20.9-2.8s0.4-134.4-18.3-196.3c-18.6-61.9-4-223-4-223L823.5,1110.1z"/>
					<path fill="#F9795A" d="M802.4,1062c0,0-1.5,104.4,16.5,232.6c18.1,128.2,11.9,182.6,11.9,182.6s14.9,2.7,20.1,2.8
						c5.6,0.2,23.2-1.4,23.2-1.4s25.9-128.3,18.4-192.4c-7.4-64.2,35.4-220.2,35.4-220.2L802.4,1062z"/>
					<path fill="#FFA39F" d="M886.2,817.6l-20.4,15.1l-29.5-6.2c0.4-2.7,2.4-13.8,4.1-23.9c0.1-0.6,0.2-1.2,0.3-1.8
						c1.5-8.6,2.8-16,2.8-16l27.6-13.7l10.3-5.1c0,0.2-0.8,9.5-0.9,10.9C878.5,801.1,886.2,817.6,886.2,817.6z"/>
					<path fill="#7F22BA" d="M838.3,810c0.6-0.3,40.1-11.9,44.4-10.5c4.3,1.4,6.8,9.7,6.8,9.7L825,823.8
						C825,823.8,830.1,813.5,838.3,810z"/>
					<path fill="#9E30CA" d="M944.7,1074.9c-6.7,30.5-118.1,34.1-146.8,6.4c-3.3-3.2-3.4-17.9-2.2-37.7
						c2.4-38.7,10.1-96.9,10.4-126.7c0.1-14.4,2.1-29.1,4.8-42.4c5.6-28.4,14.1-50.8,14.1-50.8s54.4-17.6,64.6-14.6
						C938.6,823.6,951.3,1044.4,944.7,1074.9z"/>
					<path fill="#7F22BA" d="M795.7,1043.7c2.4-38.7,10.1-96.9,10.4-126.7c0.1-14.4,2.1-29.1,4.8-42.4l32.7-5.8
						C843.6,868.8,875.6,999.5,795.7,1043.7z"/>
					<path fill="#FFA39F" d="M813.4,989.7c0,0,2.2,5.3-2.5,8.9c-4.7,3.6-7.7,9.4-6.6,13.6c1.1,4.2,11.3,11.2,14.9,10
						c3.6-1.1,10.8-6.7,10-8.9s4.9-19.6-3.8-26.3C816.7,980.3,813.4,989.7,813.4,989.7z"/>
					<path fill="#9E30CA" d="M850,816c0,0-31.9,6-57.3,43.4c-25.4,37.5-42.2,65.3-37.5,78.8s47.4,60.3,54.7,60.3
						c7.4,0,19.2-5.4,19.9-17.4c0,0-30.1-45.1-24.1-51.8c2.5-2.9,39-32.5,44.2-19.1C858.6,932.4,850,816,850,816z"/>
					<path fill="#FF938F" d="M878.4,777.3c-6,11.6-28.6,21.6-38,25.3c0.1-0.6,0.2-1.2,0.3-1.8c1.5-8.6,2.8-16,2.8-16l27.6-13.7
						C877.2,771,880.9,772.6,878.4,777.3z"/>
					<path fill="#FFA39F" d="M834.7,785.5c0,0,40.8,12.7,48.3-12.8s17.9-41.1-7.9-50.3c-25.7-9.2-33.7-1-38.3,6.9
						C832.3,737.3,824.3,781.5,834.7,785.5z"/>
					<path fill="#F24B46" d="M838.5,726.9c0,0,2.6,29.7,8.7,28.4c6.1-1.3,11.7-2.2,10.8,6.7c-0.9,9-9.4,19.3,9.5,20.9
						c18.9,1.6,46.1-47.2,40.9-56.5C893.5,699.7,816.8,694.4,838.5,726.9z"/>
				</g>
				<g>
					<polygon fill="#FFA39F" points="104.2,1417 116.6,1469.3 135.2,1469.2 135.9,1417 					"/>
					<polygon fill="#FFA39F" points="260.6,1419.2 296,1469.3 309.7,1451.6 288.5,1412.3 					"/>
					<path fill="#1B2251" d="M168.8,729.8c-6.4-3.6-14.1-4-19.5-3.7c1.4-1.4,4.1-2,4.1-2c-3.3-0.5-10.8,2.8-10.8,2.8
						c-46.4-17.9-53.7,50.5-52.7,66.3c1,15.9-15.6,21.1-39.8,33.6C4,850.7,0,882.7,0,882.7c0.4,0.2,0.7,0.5,1.1,0.7
						c2.3-3.9,7-11.1,11-12.2c-0.2,0.4-4.7,10-6.4,15.6c13.6,10.3,39,33.3,56.7,49.5c-0.1-3.2,0-7.7,1.2-10.1l2.2,13.2
						c9.5,8.7,16,14.9,16,14.9c-1.2-12.8,58-80.5,88.9-100.8c7.5-11.1,10.2-30.6,10.4-32.2c-1.3,15.5-4,24.2-6.3,29.1
						C201,826.2,185.8,739.5,168.8,729.8z"/>
					<path fill="#FFA39F" d="M169,854.4c0.2,0.1-14.9,7.9-26.2,4.8c-10.7-2.9-17.6-16.7-17.5-16.8c4.5-0.9,5.8-7.1,5.7-33.8l2,0.4
						l34.3,6.8c0,0-0.8,10.8-0.8,21C166.5,845.4,167,853.5,169,854.4z"/>
					<path fill="#F24B46" d="M130.2,741c0,0,16.9-18,38.2-0.9C168.4,740.1,156,737.9,130.2,741z"/>
					<path fill="#FF7D78" d="M167.3,815.8c0,0-0.8,10.8-0.8,21c-19.2-0.5-29.4-18.1-33.5-27.8L167.3,815.8z"/>
					<path fill="#1B2251" d="M129.5,805.3c0,0-10.1-15.9-12.5-29.5c-1.7-9.7,3.2-45.7,39.4-40.5c0,0,10.5,1,20.4,7.7
						c7.9,5.3,19.2,16.8,6.5,48.2l-3.3,10.6L129.5,805.3z"/>
					<path fill="#242E6C" d="M304.1,1437.9l-18.2,0.6l-19.7,0.6c0,0-45.5-50.6-71-131.8c-0.6-1.9-1.2-3.8-1.9-5.7
						c-14-40.7-42.9-91.8-58.2-138.1c-2.4-7.4-4.6-14.3-6.6-20.9c-0.6-2.1-1.2-4.2-1.8-6.2c-11.2-39.1-14.5-64.7-17.5-92.1
						l110.2,0.9C219.5,1045.1,237.2,1232.2,304.1,1437.9z"/>
					<path fill="#FD8857" d="M204,981.8c-0.3,52.4,7.7,74.9,7.7,74.9s-47.2,24-103.2,6.3c-0.7-0.2-46.4-10.7-46.4-10.7
						c0.9-2.1,9.3-37.4,10.2-39.4c11.8-25.4,20.8-36.6,22.2-44.4c2.6-14.6,2.7-29.7,1.4-43.9c-3.4-37.7-13.6-69-13.6-69
						c15.3-3.5,30-9.4,45.9-15.4c3.7,4.6,14.4,9.2,24.1,8.9c11.2-0.2,14.7-5,14.2-10.3c11.9,6.6,21.4,12.9,21.4,12.9
						c10.1,17.6,30.6,34.6,32.1,61.6C220.4,920.1,204.1,980.3,204,981.8z"/>
					<path fill="#7831BB" d="M109.3,987.6c-4.8,6.8-14,48.2-37,53.4c11.8-29.5,20.8-42.5,22.2-51.5c2.6-16.9,2.7-34.5,1.4-51
						c7.7-13.5,13.4-22.7,13.4-22.7c0.6-2.2,12.2-38.1,15.9-6C129,941.9,114.7,980,109.3,987.6z"/>
					<path fill="#FFA39F" d="M173.7,825.5c0,0-45.4,0.7-45.5-27.6c0-28.3-5.9-47.3,23.1-48.9c29-1.7,34.7,9.1,37,18.6
						C190.6,777,185.6,824.6,173.7,825.5z"/>
					<path fill="#1B2251" d="M187,751.8c-7-8.5-12.3-6.7-15.3-4.1c-9.8-14.7-40.9,6.5-40.9,6.5c-3,20.3-17.7,31.9-17.7,31.9
						s8.3,5.1,27.4,0.2c15-3.9,25.9-25.3,29.9-34.2c2.7,2.4,8.4,8,10.1,13.4c2.3,7.2,3.3,22,7.6,21.5
						C188.1,787.1,197.5,764.6,187,751.8z"/>
					<path fill="#FFA39F" d="M116,1466.4c0,0,1.5,10.4-2.4,21.4c0,0-3,13.9,10.6,14.1c13.7,0.3,17-1,15.5-9.5s-4.5-23.2-4.5-23.2
						L116,1466.4z"/>
					<path fill="#6615B2" d="M141,1508.7L141,1508.7h-28.3l0,0c-1.5-7.3,1-20.9,1-20.9c15.5,14.8,25.1-0.4,25.1-0.4
						C141.3,1493.8,141,1508.7,141,1508.7z"/>
					<path fill="#FFA39F" d="M342.6,1494.4c0,0-25.2-28.6-32.9-42.8l-18.7,9.6l41.9,39.3l9.8-1.3L342.6,1494.4z"/>
					<path fill="#6615B2" d="M358.1,1508.7h-34.9c-3.1-2.8-6-8.4-9.6-15.7c-2.1-4.2-6.7-6.5-11.4-7.8v23.5H295l-6.7-24.9
						c-4.5-8.4-1.1-16,2-22.6c3.6,0,14.2,2.6,32.8,24c6.1,7,12.9,9.5,19.6,9.3c0.1,0.1,0.2,0.1,0.3,0.1
						C353.5,1499.4,357,1505.4,358.1,1508.7z"/>
					<path fill="#C0D3F8" d="M356.4,872.5c0,0-29.8,16.7-40.5,21.5c-3.8,1.7-10.7,4.9-17.7,8.2c-4.2,2-8.5,4-12.2,5.7
						c-6.3,2.9-13.7,1.3-18.2-3.9c-16.2-18.9-58-59.7-101.1-64.9l-0.1-0.1l0,0c0,0,0,0-0.1,0l0.2,0.5c2.4,6,26.1,65.2,26.8,77.6
						c0.8,13.1,3.1,214.9,3.1,214.9s-1.5,9.3,16.2,5.4c17.8-3.9,22.4-7.7,22.4-7.7s-17-124.5-12.4-167.8c0.9-8.5,0.1-18-1.8-27.9
						c26.3,15.9,57.3,23,57.3,23s11.6-5,29.5-16.2c7.5-4.7,16.3-12.1,24.9-20c10.4-9.5,28.3-32.6,28.3-32.6L356.4,872.5z"/>
					<path fill="#1B2251" d="M285.9,1438.4l-19.7,0.6c0,0-45.5-50.6-71-131.8c-0.6-1.9-1.2-3.8-1.9-5.7
						c-14-40.7-42.9-91.8-58.2-138.1c-2.4-7.4-4.6-14.3-6.6-20.9c-0.6-2.1-1.2-4.2-1.8-6.2L143,1124c0,0,48.7,78.9,63.8,153.1
						C219.9,1341.6,272.4,1419.1,285.9,1438.4z"/>
					<path fill="#242E6C" d="M144.7,1284c0.3,36.1-1.5,119.1-6.2,153.4H121c-9.6,0-14.5-0.1-14.5-0.1
						c-11.8-59.7-20.2-109.1-26.3-151.7c-5-34.9-9.5-64.9-12.9-90.7c-3.4-26-5.8-47.7-6.7-66.1c-0.1-2.9-0.2-5.7-0.3-8.4
						c-0.1-2.7-0.1-5.4,0-8l95.2-9.3C154.3,1166.3,144.6,1263,144.7,1284z"/>
					<path fill="#1B2251" d="M121,1437.4c-9.6,0-14.5-0.1-14.5-0.1c-11.8-59.7-20.2-109.1-26.3-151.7c-5-34.9-9.5-64.9-12.9-90.7
						c-3.4-26-5.8-47.7-6.7-66.1l34.9,20.5c0,0-22.3,7.9-13.8,67.4C90.3,1276.3,109.2,1429,121,1437.4z"/>
					<path fill="#C0D3F8" d="M125.5,1128.2c0,0-6.7,24.2-29.9,21.1s-56.2-17-56.2-17s9.9-31.3,22.2-72.5
						c14.9-49.8,33.4-114,42.1-154.5c2.4-11.4,4.1-20.8,4.7-27.6l19.6-37.4c0,0,28.3,64.4,29.8,80.7
						C159.5,937.2,125.5,1128.2,125.5,1128.2z"/>
					<path fill="#FFA39F" d="M208.4,939.1c-11.2,1.5-15.4,7.4-16.8,15.4c-0.7,4.3-3,8.6-4.9,11.6c-11.1,0.6-37.6,2-59.9,3.4
						l-1.8,29.2c18.3-2.3,40.7-6.9,66.6-15.8c2-0.3,4.5-1.6,7.6-4.1c16-13.1,25.1-35.1,25.1-38.2S219.5,937.7,208.4,939.1z"/>
					<path fill="#B1C9F6" d="M124.5,955c-1,26.3-7.2,77.3-62.4,104.6c-0.1,0.1-0.3,0.1-0.4,0.2c14.9-49.8,33.4-114,42.1-154.5
						C113.9,920.5,125.1,940.5,124.5,955z"/>
					<path fill="#C0D3F8" d="M128.2,840.4c0,0-47.2,3.3-58.5,28.6s-14.9,109.3-0.5,134c0,0,19.9,5.7,55-0.9c0.4-0.1,0.9-0.2,1.3-0.2
						c0,0,11.2-27.4,1.2-32.9c0,0-29.6,1.5-26.5-8.2C103.1,950.9,128.2,840.4,128.2,840.4z"/>
					<g>
						<path fill="#FFA39F" d="M388.4,852.6c-25.4-3.3-31.8,19.8-31.8,19.8l4.7,15.9c7.8,1.1,14.7-1,21-10s8-5.6,12.1-12.3
							C399.8,856.9,391.3,853.5,388.4,852.6z"/>
						<path fill="#FFA39F" d="M315.9,893.9c-3.8,1.7-10.7,4.9-17.7,8.2c3.8,6.7,8.4,18.8,9.7,38.8c7.5-4.7,17.3-12.5,25.6-20.7
							c13.4-13.1,27.6-31.9,27.6-31.9l-4.7-15.9C356.4,872.5,326.6,889.1,315.9,893.9z"/>
					</g>
				</g>
				<g>
					<g>
						<path fill="#FF938F" d="M1662.3,1077.8c0,0-18,4.6-29.5,1.2c-11.5-3.5-31.2,2.2-34.4,6.4c-3.2,4.2-2,5.8,3.7,7.3
							c5.7,1.4,25.8,10,39,5.1c13.2-5,30.4-5.1,30.4-5.1L1662.3,1077.8z"/>
						<path fill="#B1C9F6" d="M1818.3,921.1c0,0-20.3,144.1-53.8,157c-16.6,6.4-89.8,20.8-111.4,22.3c0,0-5.3-4.3-4-21.8
							c0,0,76.7-28.2,87.6-43.5c16.2-22.8-10.1-93.1,10.3-114.5C1767.2,899.1,1801.5,889.9,1818.3,921.1z"/>
					</g>
					<path fill="#F24B46" d="M1815.7,1476.3v-31.4h49.5c1.3,0,2.4-1.1,2.4-2.4v-5c0-1.3-1.1-2.4-2.4-2.4h-49.5v-178.8
						c0-5-4.1-9.1-9.1-9.1h-9.8c-5,0-9.1,4.1-9.1,9.1V1435h-49.5c-1.3,0-2.4,1.1-2.4,2.4v5c0,1.3,1.1,2.4,2.4,2.4h49.5v31.4
						c-35.8,2.7-64.5,15.6-72.5,32.2h173C1880.2,1491.9,1851.5,1479,1815.7,1476.3z"/>
					<path fill="#9E30CA" d="M1811.5,1224.7c-5.9,10-12.8,19.4-19.8,28.3c-21.8,27.5-45.5,50.2-49.6,71.6c-0.8,4.3-2.1,8.9-3.8,13.7
						c-1.7,4.9-3.9,10.1-6.3,15.4c-9.2,20.1-23.1,42.6-36.9,63.1c-23.9,35.4-46.3,64.9-46.3,64.9l-41.2-1.8
						c1.6-4.1,19.6-53,43.6-112.6c9.8-24.2,20.1-50,30.1-74.8c1.3-3.3,2.7-6.6,4-9.9c3.1-7.6,6.1-15.1,9-22.4
						c22.5-56,40.5-100.7,40.5-100.7s90.1-34.1,99.5-12C1842,1165.7,1835.7,1183.6,1811.5,1224.7z"/>
					<path fill="#1B2251" d="M1647.4,1474.2c0,0-2.1,34-8.7,34.5c-0.9,0.1-33.3,0.1-33.3,0.1l-41.4-0.2c0,0,0.3-10,12.4-12.1
						s32.4-10.6,39.7-26.6C1623.8,1452.9,1647.4,1474.2,1647.4,1474.2z"/>
					<path fill="#1B2251" d="M1742.7,1377.2c0,0,28.6,18.4,25.9,24.4c-0.4,0.8-16.2,29.1-16.2,29.1l-20.4,36.1c0,0-8.6-5.1-4.5-16.7
						s6.5-33.4-3.9-47.7C1712.6,1387.4,1742.7,1377.2,1742.7,1377.2z"/>
					<path fill="#C643DB" d="M1704,1143.3c0,0-113.1,70.5-125.8,117.8c-12.6,47.4,150.5,148.4,150.5,148.4s17.9-15.8,21-27.4
						c0,0-73.7-88.3-89.7-108.1c-9.8-12.2,145.2-42.1,164.2-71.6c18.9-29.5,12.2-54.3,12.2-54.3L1704,1143.3z"/>
					<path fill="#FD8857" d="M1917.5,1233.8H1686c-4.6,0-8.4,3.8-8.4,8.4v46.3c0,4.6,3.8,8.4,8.4,8.4h231.5c4.6,0,8.4-3.8,8.4-8.4
						v-46.3C1925.9,1237.6,1922.1,1233.8,1917.5,1233.8z"/>
					<path fill="#FF938F" d="M1756.3,896.4c-11.1,6.9-17.2,15.6-17.2,15.6c27.1,7,72-18.1,72-18.1s-17.4-11.7-23.9-37.5
						c-0.3-1.3-0.6-2.6-0.9-4c-0.8-4.3-1.4-9-1.5-14.1l-12.4,11.2l-20.7,18.5c0,0,0.5,7.7,3.1,20.9
						C1755.2,891.2,1755.7,893.7,1756.3,896.4z"/>
					<path fill="#C0D3F8" d="M1839.6,1024.2c-3.9,52.2,2.6,131.6-1.8,145.3c-3.8,11.9-48.5,4.8-65.8,0.9c-6.4-1.5-14.1-3.6-22.2-6
						c-22.3-6.9-46.6-16.8-49.3-24.1c-0.1-0.3-0.2-0.6-0.2-0.8c-0.2-1.1-0.2-2.1,0-3.1c0.9-3.7,4.2-7.8,4.6-17
						c0.4-10.3,0.4-22.5,0.8-35.6c0-1.5,0-3.1,0.2-4.5v-0.5c0-0.3,0-0.6,0-0.8c0.4-14.6,1.1-29.9,2-45.1c0.6-9.5,1.2-19,2-28.1
						c1.9-23.4,4.6-44.2,8-57.3c5.7-21.4,18.2-35.4,29.6-45.7l8.2-7.1c9.2,2,20.1,0.7,29.9-4c10.6-5.1,14.3-8.7,16.2-7.3
						C1826.5,902.3,1844.2,960.4,1839.6,1024.2z"/>
					<path fill="#B1C9F6" d="M1750,1164.5c-22.3-6.9-46.6-16.8-49.3-24.1c-0.1-0.3-0.2-0.6-0.2-0.8c0-1,0-2,0-3.1
						c0.9-3.7,4.2-7.8,4.6-17c0.4-10.3,0.4-22.5,0.8-35.6c0-1.5,0-3.1,0.2-4.5v-0.5c0-0.3,0-0.6,0-0.8l84.3-38.2
						C1790.5,1039.7,1795.4,1107.7,1750,1164.5z"/>
					<path fill="#FF7D78" d="M1751.7,868c0,0,0.5,7.7,3.1,20.9c20.2-6.5,29.4-24.8,32.4-32.5c0.9-2.2,1.2-3.5,1.2-3.5
						s-0.8-0.2-2.1-0.5c-2.8-0.6-8.2-1.7-13.9-2.9L1751.7,868z"/>
					<path fill="#FF938F" d="M1743.5,867.8c0,0,44.4,5,47.1-22.7s10.2-45.7-18-50.1c-28.2-4.4-34.8,5.7-37.9,14.7
						C1731.5,818.7,1732,865.8,1743.5,867.8z"/>
					<path fill="#F24B46" d="M1790.4,847c0,0-2.8-36.8-43.2-40.6c-27.7-2.6-12.3-26.4-9.3-30.2c0,0,21.2,2.9,43,6.5
						C1826.4,790.2,1794.9,841.3,1790.4,847z"/>
					<g>
						
							<rect x="1554.8" y="1010.2" transform="matrix(0.9511 -0.309 0.309 0.9511 -252.507 533.1516)" fill="#B1C9F6" width="4.1" height="107"/>
						
							<rect x="1571.4" y="1107.3" transform="matrix(0.9998 -2.135537e-02 2.135537e-02 0.9998 -23.3479 35.0112)" fill="#B1C9F6" width="112.3" height="6.7"/>
					</g>
					<g>
						<path fill="#FF938F" d="M1671.6,1100c0,0-17.4,6.6-29.2,4.4c-11.8-2.2-30.8,5.6-33.5,10.2c-2.7,4.5-1.4,6,4.4,6.8
							s26.7,7.1,39.3,0.7c12.6-6.4,29.7-8.5,29.7-8.5L1671.6,1100z"/>
						<path fill="#C0D3F8" d="M1809.4,927c0,0-4.3,145.5-36.2,162c-15.8,8.2-86.9,30.6-108.3,34.4c0,0-5.7-3.7-6.4-21.2
							c0,0,73.1-36.4,82.3-52.9c13.6-24.4-20.3-91.4-2.4-115C1756.2,910.8,1789.2,897.9,1809.4,927z"/>
					</g>
				</g>
			</g>
		</g>
	</g>
</g>
</svg>
