<?xml version="1.0" encoding="utf-8"?>
<!-- Generator: Adobe Illustrator 21.1.0, SVG Export Plug-In . SVG Version: 6.00 Build 0)  -->
<svg version="1.1" id="Layer_1" xmlns="http://www.w3.org/2000/svg" xmlns:xlink="http://www.w3.org/1999/xlink" x="0px" y="0px"
	 viewBox="0 0 39 48" enable-background="new 0 0 39 48" xml:space="preserve">
<g id="Page-1">
	<g id="ic-technology-ios">
		<path fill="#FFFFFF" d="M32.6,25.5c0.1,7.3,6.4,9.7,6.4,9.7c-0.1,0.2-1,3.4-3.3,6.8c-2,2.9-4.1,5.8-7.3,5.9
			C25.1,48,24.1,46,20.4,46c-3.7,0-4.8,1.8-7.8,2c-3.2,0.1-5.5-3.2-7.6-6.1c-4.1-6-7.3-16.8-3-24.2c2.1-3.6,5.8-6,9.9-6
			c3.1-0.1,6,2.1,7.9,2.1c1.9,0,5.4-2.6,9.2-2.2c1.6,0.1,5.9,0.6,8.8,4.8C37.5,16.5,32.5,19.4,32.6,25.5 M26.5,7.7
			c1.7-2,2.8-4.9,2.5-7.7c-2.4,0.1-5.3,1.6-7.1,3.6c-1.5,1.8-2.9,4.7-2.5,7.4C22.1,11.3,24.9,9.7,26.5,7.7"/>
	</g>
</g>
</svg>
