<?xml version="1.0" encoding="utf-8"?>
<!-- Generator: Adobe Illustrator 21.1.0, SVG Export Plug-In . SVG Version: 6.00 Build 0)  -->
<svg version="1.1" id="Layer_1" xmlns="http://www.w3.org/2000/svg" xmlns:xlink="http://www.w3.org/1999/xlink" x="0px" y="0px"
	 viewBox="0 0 50 50" enable-background="new 0 0 50 50" xml:space="preserve">
<g>
	<path fill="#FFFFFF" d="M48.5,48.5V6.3L33.9,1.5L20.1,7.6v6.2l4.6-2.1l14,4.9v31.9H48.5z M42.1,8.7h2.1v4.2h-2.1V8.7z M42.1,16.2
		h2.1v4.2h-2.1V16.2z M42.1,23.7h2.1v4.2h-2.1V23.7z M42.1,31.2h2.1v4.2h-2.1V31.2z M42.1,38.8h2.1V43h-2.1V38.8z"/>
	<path fill="#FFFFFF" d="M1.5,48.5h22.1v-34L1.5,24.6V48.5z M4.5,27l14.1-4.4v2.2L4.5,29.2V27z M4.5,32.7l14.1-3v2.2l-14.1,3V32.7z
		 M4.5,38.3l14.1-1.5V39L4.5,40.5V38.3z M4.5,44h14.1v2.1H4.5V44z"/>
	<polygon fill="#FFFFFF" points="25.8,48.5 33.3,48.5 36.6,48.5 36.6,18.1 25.8,14.3 	"/>
</g>
</svg>
