<?xml version="1.0" encoding="utf-8"?>
<!-- Generator: Adobe Illustrator 21.1.0, SVG Export Plug-In . SVG Version: 6.00 Build 0)  -->
<svg version="1.1" id="Layer_1" xmlns="http://www.w3.org/2000/svg" xmlns:xlink="http://www.w3.org/1999/xlink" x="0px" y="0px"
	 viewBox="0 0 48 48" enable-background="new 0 0 48 48" xml:space="preserve">
<g id="Page-1">
	<g id="ic-technology-objectivec">
		<path id="Combined-Shape-Copy-26" fill="#FFFFFF" d="M24,0c6.3,0,12.4,2.5,16.8,7c4.5,4.4,7.1,10.5,7.2,16.8
			C48.1,37,37.4,47.9,24.1,48h-0.2C11,48,0.1,37.1,0,24.1c0-6.3,2.4-12.4,6.9-16.9C11.3,2.8,17.3,0.2,23.5,0L24,0z M24,1.3
			c-6.1,0-11.9,2.5-16.2,6.9c-4.2,4.2-6.6,10-6.6,16c0.1,12.3,10.5,22.6,22.7,22.6h0.2c12.6-0.1,22.7-10.4,22.7-22.9
			c-0.1-6-2.5-11.7-6.8-15.9C35.7,3.6,30,1.2,24,1.3z M8.8,17v1.3H7v11.5h1.8V31l-3.4,0V17H8.8z M42.6,17V31h-3.4v-1.3H41V18.2h-1.8
			V17H42.6z M27.6,20.2v5c0,2.1-1,2.8-2.5,2.8c-0.4,0-0.8-0.1-1.2-0.2l0.2-1.1c0.3,0.1,0.6,0.1,0.9,0.1c0.8,0,1.3-0.4,1.3-1.7l0-4.9
			H27.6z M36.5,20c0.6,0,1.3,0.1,1.9,0.3l-0.3,1.1c-0.5-0.2-1-0.3-1.5-0.3c-1.6,0-2.7,1-2.7,2.8c0,1.7,1,2.8,2.7,2.8
			c0.5,0,1-0.1,1.5-0.3l0.2,1.1c-0.6,0.2-1.3,0.4-2,0.3c-2.4,0-3.9-1.5-3.9-3.8c-0.1-1.1,0.4-2.2,1.1-2.9C34.3,20.4,35.4,20,36.5,20
			z M13.4,20c2.1,0,3.5,1.7,3.5,3.9c0,2.6-1.6,4-3.7,4S9.8,26.2,9.8,24C9.8,21.7,11.3,20,13.4,20z M22.4,20.6
			c0.5,0.3,0.8,0.8,0.8,1.4c0,0.7-0.5,1.3-1.1,1.6l-0.1,0.1c0.9,0.2,1.5,1,1.5,1.9c0,0.6-0.3,1.2-0.7,1.6c-0.5,0.5-1.4,0.7-2.8,0.7
			c-0.6,0-1.1,0-1.7-0.1l0-7.5c0.7-0.1,1.3-0.2,2-0.2C20.9,20,21.7,20.2,22.4,20.6z M20.2,24.3h-0.7v2.5c0.2,0,0.5,0,0.7,0
			c0.9,0,1.7-0.3,1.7-1.3S21.2,24.3,20.2,24.3z M13.4,21.1c-1.4,0-2.1,1.3-2.1,2.9l0,0c0,1.6,0.8,2.8,2.1,2.8s2.1-1.3,2.1-2.8
			C15.5,22.5,14.8,21.1,13.4,21.1z M31.5,24.3v1h-2.9v-1H31.5z M20.3,21.1c-0.3,0-0.5,0-0.8,0.1l0,2.1h0.7c1,0,1.5-0.5,1.5-1.1
			S21.2,21.1,20.3,21.1z"/>
	</g>
</g>
</svg>
