<?xml version="1.0" encoding="utf-8"?>
<!-- Generator: Adobe Illustrator 21.1.0, SVG Export Plug-In . SVG Version: 6.00 Build 0)  -->
<svg version="1.1" id="_x2014_ÎÓÈ_x5F_1" xmlns="http://www.w3.org/2000/svg" xmlns:xlink="http://www.w3.org/1999/xlink"
	 x="0px" y="0px" viewBox="0 0 1527.1 1327.7" enable-background="new 0 0 1527.1 1327.7" xml:space="preserve">
<g>
	<path opacity="0.24" fill="#FFCA10" enable-background="new    " d="M490.9,1134.6c0,0,219.1,77.9,434.2-46.1
		s323.6-370.3,416.8-567.5s39.5-397.8-124.6-489.3c-164.2-91.5-275.8,43.4-506.1,49.9c-230.3,6.6-292.3-26.4-483.4,103.7
		C36.7,315.5,2.1,622.8,152.9,850.1C303.6,1077.5,490.9,1134.6,490.9,1134.6z"/>
	<path opacity="8.000000e-02" fill="#FFCA10" enable-background="new    " d="M490.9,1134.6c0,0,219.1,77.9,434.2-46.1
		s323.6-370.3,416.8-567.5s39.5-397.8-124.6-489.3c-164.2-91.5-275.8,43.4-506.1,49.9c-230.3,6.6-292.3-26.4-483.4,103.7
		C36.7,315.5,2.1,622.8,152.9,850.1C303.6,1077.5,490.9,1134.6,490.9,1134.6z"/>
	<path fill="#242E6C" d="M262.4,1010.8c0,0,89.1,18.7,84.6,35.1s-97.8-28-97.8-28s-68.8,61.5-78.4,92.9c0,0,100.5-14.2,92.1,0.5
		c-8.4,14.8-112.3,34.4-112.3,34.4s-47.2,72.7-5.8,104.7c41.5,32,73.3,21.2,81,10.8c7.8-10.5,37.8-85.8,46.7-79.8
		c8.9,6,3.5,63-16.9,87.6c0,0,89.7,0.7,102.8-41.8c13-42.5-7-65.6,1.5-91.7s23-41.8,24.6-26.3s-20.7,56.4-11.8,84
		c8.9,27.6,12.8,48.6,36.3,13.9s46.8-104.8,23.3-130.5c-1-1.1-2-2.2-2.9-3.2c2.1,1.8,2.9,3.2,2.9,3.2c7-5.3,30.8-7.7,48.8-8.8
		c3,0,7.2-0.2,13-0.6l0,0c2.6-0.1,4.7-0.2,6.1-0.2c39,0.5,93.8,31.5,93.8,31.5l5.5-7.2c-50.8-42.1-111.7-30.4-111.7-30.4
		c-46.4,4.7-79.1-10-79.1-10s-10.6-89.9-80.2-78.8C328.6,972.2,283.2,985.3,262.4,1010.8z"/>
	<path fill="#242E6C" d="M1437.6,253.5c-23.7-87.7-171.7-60.3-171.7-60.3s-100.5,153.4-129.7,157.1s60.3-147.9,60.3-147.9
		c-56.6-5.5-200.9,63.9-200.9,63.9s9.1,179-20.1,175.3c-29.2-3.7,0-158.9,0-158.9c-54.8,16.4-105.9,80.4-105.9,80.4
		c-63.9,104.1,73.1,180.8,73.1,180.8s1.8,62.1-36.5,133.3l0,0c0,0-8.7,13.2-17.5,35.5h14.9c1.2-4,2.6-7.9,4.1-11.6c0,0,0,0,0-0.1
		s0-0.1,0.1-0.2c1-2.3,2.5-5.6,4.3-9.6l0,0l0,0c4.6-8.9,7.6-15.5,9.6-20.3l0,0c13.7-28,33.4-64.6,46.5-72.3c0,0-1.7-2.3-3.2-6.9
		c1,2.2,2.1,4.5,3.2,6.9c25.6,54.8,153.4,63.9,224.7,49.3c71.2-14.6,40.2-34.7,1.8-67.3c-38.4-32.6-118.7-24-142.5-36.8
		c-23.7-12.8,11-25.6,58.4-21.9c47.5,3.7,71.2,51.1,147.9,58.4c76.7,7.3,135.2-137,135.2-137c-53,16.4-147.9-12.8-151.6-31.1
		c-3.7-18.3,137-16.4,158.9-21.9C1423,385,1461.3,341.2,1437.6,253.5z"/>
	<path fill="#242E6C" d="M19.1,260c32.7-52.3,123.5-5.4,123.5-5.4s35.1,119.6,53.4,127.7c18.3,8.1-10.1-108.1-10.1-108.1
		c37.9,7.6,118.1,81.1,118.1,81.1s-41.2,114.6-21.5,118s31.3-103.4,31.3-103.4c32.4,21.5,53.1,73.1,53.1,73.1
		c21.1,80.3-83.1,103.2-83.1,103.2s-13.4,40-2.5,93.9l0,0c0,0,3,10.3,4.4,26.5l-9.7-2.9c0-2.8-0.1-5.6-0.4-8.3l0,0v-0.1
		c-0.2-1.7-0.5-4.1-0.9-7.1l0,0l0,0c-1.2-6.7-1.9-11.6-2.2-15.1l0,0c-3.4-20.9-9-48.6-16-56.2c0,0,1.5-1.2,3.4-3.8
		c-1.1,1.2-2.2,2.5-3.4,3.8c-27.4,30.6-112.4,11.4-155.8-12.2c-43.5-23.5-19.3-30.5,12.1-44.1c31.4-13.7,81.9,7.8,99.9,4.1
		c18-3.6-2.1-18.8-33.7-25.8s-56.4,19.2-107.7,8.9C20,497.4,10.4,392.1,10.4,392.1c31.2,21.1,98.7,20.8,104.7,9.7
		c6-11.2-85.9-37.7-99-45.5C2.8,348.4-13.6,312.3,19.1,260z"/>
	<path fill="#242E6C" d="M787.3,253.7c-22.9-38.1-88.9-5.5-88.9-5.5s-26.8,85.7-40.1,91.3s8.6-77.7,8.6-77.7
		c-27.4,5-86.1,56.9-86.1,56.9s28.2,83.1,13.9,85.3s-21.2-74.8-21.2-74.8c-23.6,15.1-39.2,52-39.2,52
		c-16.2,57.6,58.6,75.4,58.6,75.4s9.2,29,0.6,67.7l0,0c0,0-2.3,7.4-3.5,19.1l7-2c0-2,0.2-4.1,0.4-6l0,0v-0.1c0.2-1.2,0.4-3,0.8-5.1
		l0,0l0,0c1-4.8,1.5-8.3,1.8-10.8l0,0c2.7-15,7.1-34.9,12.3-40.2c0,0-1.1-0.9-2.4-2.8c0.8,0.9,1.6,1.8,2.4,2.8
		c19.4,22.4,80.8,9.6,112.4-6.8c31.6-16.4,14.3-21.7-8.1-31.9c-22.4-10.2-59.1,4.5-72,1.7c-12.9-2.9,1.7-13.5,24.6-18.1
		c22.9-4.6,40.4,14.6,77.5,7.8c37-7.1,45.3-82.9,45.3-82.9c-22.8,14.8-71.4,13.7-75.6,5.6c-4.2-8.1,62.3-26,71.9-31.5
		C797.9,317.6,810.1,291.8,787.3,253.7z"/>
	<g>
		<g>
			<path fill="#F24B46" d="M605.8,732.8L560.9,1267c0,0-4.7,32.4,19.4,32.4c39.6,0.1,197.1,0,197.1,0s-29.8-6.7-29.4-21.9
				c0.4-17.9,52.5-549.7,52.5-549.7L605.8,732.8z"/>
			<path fill="#F9795A" d="M790.2,1289.7c-7.8,0-158.2,0.5-196.8,0c-16.8-0.2-19.8-14.9-19.9-24.5c-0.1-4.6,0.5-8,0.5-8l1.2-13.9
				l3-35.4l2.6-31.3l3.4-40.2l2.8-33.9l31.9-379.6l194.6-5.1c0,0-21.9,222.6-37.5,384.6c-1.7,18.1-3.4,35.4-4.9,51.5
				c-0.5,5.2-1,10.2-1.4,15.1c-1.4,15.3-2.8,29.4-3.9,41.8c-0.6,6.6-1.2,12.6-1.7,18.2c-2,21.8-3.1,35.8-3.2,38.5
				c0,1.5,0.1,3,0.4,4.3C764.6,1289.2,787.2,1289.7,790.2,1289.7z"/>
			<polygon fill="#F9795A" points="133.2,442.2 242.6,881.7 257.6,941.9 308.6,1146.6 1255.4,1146.6 1067.6,442.2 			"/>
			<polygon fill="#F9795A" points="133.2,442.2 118,447.2 288.4,1161.9 308.6,1146.6 			"/>
			<polygon fill="#F24B46" points="288.4,1161.9 1229.4,1161.9 1255.4,1146.6 308.6,1146.6 			"/>
			<rect x="618.9" y="1290" fill="#F9795A" width="203.7" height="9.7"/>
			<polygon fill="#EB3668" points="1209.5,1016.8 1055.9,451.5 135.5,451.5 133.2,442.2 1067.6,442.2 1220.7,1015.6 			"/>
			<polygon fill="#F24B46" points="770.8,1161.9 769.8,1169.3 578.1,1208 580.8,1176.8 582,1161.9 			"/>
			<path opacity="0.4" fill="#F24B46" enable-background="new    " d="M790.2,1289.7c-7.8,0-158.2,0.5-196.8,0
				c-16.8-0.2-19.8-14.9-19.9-24.5l190.7-35.9c-2,21.8-3.1,35.8-3.2,38.5c0,1.5,0.1,3,0.4,4.3
				C764.6,1289.2,787.2,1289.7,790.2,1289.7z"/>
			<polygon fill="#F24B46" points="724.5,1004 308.6,1146.6 257.6,941.9 			"/>
			
				<linearGradient id="SVGID_1_" gradientUnits="userSpaceOnUse" x1="133.2" y1="602.75" x2="1219.2" y2="602.75" gradientTransform="matrix(1 0 0 -1 0 1328)">
				<stop  offset="0" style="stop-color:#F9795A"/>
				<stop  offset="1" style="stop-color:#EB3668"/>
			</linearGradient>
			<polygon fill="url(#SVGID_1_)" points="133.2,442.2 1067.6,442.2 1219.2,1008.3 274.1,1008.3 			"/>
		</g>
		<path fill="#F24B46" d="M807.1,1079.9c-2.7-13.9-16.1-25.1-30-25.1s-23,11.3-20.3,25.1c2.7,13.9,16.1,25.1,30,25.1
			S809.8,1093.8,807.1,1079.9z"/>
		<polygon fill="#FD8857" points="1175.1,983.8 300.2,983.8 201.2,589.1 193.6,558.8 187.1,533 171.9,472.5 1034.1,472.5 
			1050.8,533 1057.9,558.8 1066.3,589.1 		"/>
		<polygon fill="#1B2251" points="1050.8,533 187.1,533 171.9,472.5 1034.1,472.5 		"/>
		<g>
			<path fill="#DCE7FB" d="M207.6,499.8c-1-4.2,1.5-7.6,5.7-7.6s8.4,3.4,9.5,7.6c1,4.2-1.5,7.6-5.7,7.6
				C212.8,507.4,208.6,504,207.6,499.8z"/>
			<path fill="#DCE7FB" d="M232.7,499.8c-1-4.2,1.5-7.6,5.7-7.6s8.4,3.4,9.5,7.6c1,4.2-1.5,7.6-5.7,7.6S233.7,504,232.7,499.8z"/>
			<path fill="#DCE7FB" d="M259.8,499.8c-1-4.2,1.5-7.6,5.7-7.6s8.4,3.4,9.5,7.6c1,4.2-1.5,7.6-5.7,7.6
				C265.1,507.4,260.8,504,259.8,499.8z"/>
		</g>
		<polygon fill="#242E6C" points="982.4,948.8 334.3,948.8 235.7,561.8 874.6,561.8 		"/>
		<polygon fill="#6615B2" points="1066.2,651.8 919.3,651.8 892.4,561.8 1041.1,561.8 		"/>
		<polygon fill="#F24B46" points="669.9,599.5 585.9,599.5 582.4,586.5 666.5,586.5 		"/>
		<polygon fill="#F9795A" points="818.9,599.5 681.4,599.5 678,586.5 815.5,586.5 		"/>
		<polygon fill="#F9795A" points="684.1,634.4 535,634.4 531.6,621.4 680.6,621.4 		"/>
		<polygon fill="#EB3668" points="774.7,634.4 697.5,634.4 694,621.4 771.3,621.4 		"/>
		<polygon fill="#C643DB" points="695.3,694.5 611.3,694.5 607.8,681.5 691.8,681.5 		"/>
		<polygon fill="#F9795A" points="844.3,694.5 706.8,694.5 703.4,681.5 840.8,681.5 		"/>
		<polygon fill="#EFECEA" points="709.4,729.4 560.4,729.4 556.9,716.4 706,716.4 		"/>
		<polygon fill="#EFECEA" points="800.1,729.4 722.8,729.4 719.4,716.4 796.6,716.4 		"/>
		<polygon fill="#F24B46" points="619.2,783.4 334.9,783.4 331.4,770.5 615.7,770.5 		"/>
		<polygon fill="#C643DB" points="721.4,783.4 637.4,783.4 633.9,770.5 717.9,770.5 		"/>
		<polygon fill="#F9795A" points="870.4,783.4 732.9,783.4 729.4,770.5 866.9,770.5 		"/>
		<polygon fill="#EFECEA" points="428.2,818.3 344.2,818.3 340.7,805.4 424.8,805.4 		"/>
		<polygon fill="#EB3668" points="735.5,818.3 586.5,818.3 583,805.4 732.1,805.4 		"/>
		<polygon fill="#F9795A" points="577.2,818.3 439.7,818.3 436.3,805.4 573.8,805.4 		"/>
		<polygon fill="#F9795A" points="826.2,818.3 748.9,818.3 745.5,805.4 822.7,805.4 		"/>
		<polygon fill="#F24B46" points="651.5,879.8 367.1,879.8 363.7,866.8 648,866.8 		"/>
		<polygon fill="#C643DB" points="753.7,879.8 669.6,879.8 666.2,866.8 750.2,866.8 		"/>
		<polygon fill="#EFECEA" points="460.5,914.7 376.5,914.7 373,901.7 457,901.7 		"/>
		<polygon fill="#EB3668" points="767.8,914.7 618.8,914.7 615.3,901.7 764.3,901.7 		"/>
		<polygon fill="#F9795A" points="609.5,914.7 472,914.7 468.5,901.7 606,901.7 		"/>
		<polygon fill="#F9795A" points="858.4,914.7 781.2,914.7 777.7,901.7 855,901.7 		"/>
		<g>
			<polygon fill="#EFECEA" points="993.1,679.7 928.4,679.9 927,674 991.6,673.8 			"/>
			<polygon fill="#EFECEA" points="1027.1,679.6 1002.8,679.7 1001.4,673.8 1025.7,673.7 			"/>
			<polygon fill="#EFECEA" points="1076.4,679.4 1033.5,679.6 1032,673.7 1075,673.6 			"/>
			<polygon fill="#EFECEA" points="967.5,694.6 932,694.7 930.6,688.9 966,688.7 			"/>
			<polygon fill="#EFECEA" points="1019.1,694.5 973.4,694.6 972,688.7 1017.7,688.6 			"/>
			<polygon fill="#EFECEA" points="1080,694.3 1027.6,694.4 1026.2,688.6 1078.6,688.4 			"/>
		</g>
		<g>
			<polygon fill="#EFECEA" points="1000.8,711.4 936.2,711.6 934.7,705.7 999.4,705.5 			"/>
			<polygon fill="#EFECEA" points="1034.9,711.3 1010.6,711.4 1009.1,705.5 1033.4,705.4 			"/>
			<polygon fill="#EFECEA" points="1084.1,711.1 1041.2,711.3 1039.8,705.4 1082.7,705.3 			"/>
			<polygon fill="#EFECEA" points="975.2,726.3 939.8,726.4 938.3,720.6 973.8,720.5 			"/>
			<polygon fill="#EFECEA" points="1026.9,726.2 981.1,726.3 979.7,720.4 1025.4,720.3 			"/>
			<polygon fill="#EFECEA" points="1087.8,726 1035.3,726.1 1033.9,720.3 1086.3,720.1 			"/>
		</g>
		<g>
			<polygon fill="#EFECEA" points="950.1,574.3 911.2,574.4 910.3,570.9 949.2,570.7 			"/>
			<polygon fill="#EFECEA" points="970.6,574.2 956,574.3 955.1,570.7 969.8,570.7 			"/>
			<polygon fill="#EFECEA" points="1000.3,574.1 974.4,574.2 973.6,570.7 999.4,570.6 			"/>
			<polygon fill="#EFECEA" points="934.7,583.3 913.4,583.3 912.5,579.8 933.8,579.7 			"/>
			<polygon fill="#EFECEA" points="965.8,583.2 938.3,583.3 937.4,579.7 964.9,579.6 			"/>
			<polygon fill="#EFECEA" points="1002.5,583.1 970.9,583.2 970,579.6 1001.6,579.5 			"/>
		</g>
		<g>
			<polygon fill="#EFECEA" points="954.8,593.4 915.8,593.5 915,590 953.9,589.8 			"/>
			<polygon fill="#EFECEA" points="975.3,593.3 960.6,593.4 959.8,589.8 974.4,589.8 			"/>
			<polygon fill="#EFECEA" points="1004.9,593.2 979.1,593.3 978.2,589.8 1004.1,589.7 			"/>
			<polygon fill="#EFECEA" points="939.3,602.4 918,602.4 917.1,598.9 938.5,598.8 			"/>
			<polygon fill="#EFECEA" points="970.5,602.3 942.9,602.4 942,598.8 969.6,598.7 			"/>
			<polygon fill="#EFECEA" points="1007.1,602.2 975.5,602.3 974.7,598.7 1006.3,598.6 			"/>
		</g>
		<g>
			<polygon fill="#EFECEA" points="1014,765.6 949.4,765.8 947.9,759.9 1012.6,759.7 			"/>
			<polygon fill="#EFECEA" points="1048.1,765.5 1023.8,765.6 1022.3,759.7 1046.7,759.6 			"/>
			<polygon fill="#EFECEA" points="1097.3,765.3 1054.4,765.5 1053,759.6 1095.9,759.5 			"/>
			<polygon fill="#EFECEA" points="988.4,780.5 953,780.6 951.5,774.8 987,774.6 			"/>
			<polygon fill="#EFECEA" points="1040.1,780.4 994.3,780.5 992.9,774.6 1038.7,774.5 			"/>
			<polygon fill="#EFECEA" points="1101,780.2 1048.5,780.3 1047.1,774.5 1099.5,774.3 			"/>
		</g>
		<g>
			<polygon fill="#EFECEA" points="1026.9,818.7 962.3,818.9 960.9,813 1025.5,812.8 			"/>
			<polygon fill="#EFECEA" points="1061,818.6 1036.7,818.7 1035.3,812.8 1059.6,812.7 			"/>
			<polygon fill="#EFECEA" points="1110.3,818.4 1067.3,818.6 1065.9,812.7 1108.9,812.6 			"/>
			<polygon fill="#EFECEA" points="1001.4,833.6 965.9,833.7 964.5,827.9 999.9,827.8 			"/>
			<polygon fill="#EFECEA" points="1053,833.5 1007.3,833.6 1005.8,827.7 1051.6,827.6 			"/>
			<polygon fill="#EFECEA" points="1113.9,833.3 1061.5,833.4 1060,827.6 1112.5,827.4 			"/>
		</g>
		<g>
			<polygon fill="#EFECEA" points="1038.6,866.5 974,866.7 972.5,860.9 1037.2,860.7 			"/>
			<polygon fill="#EFECEA" points="1072.7,866.4 1048.4,866.5 1047,860.6 1071.3,860.6 			"/>
			<polygon fill="#EFECEA" points="1122,866.3 1079,866.4 1077.6,860.5 1120.5,860.4 			"/>
			<polygon fill="#EFECEA" points="1013,881.5 977.6,881.6 976.2,875.7 1011.6,875.6 			"/>
			<polygon fill="#EFECEA" points="1064.7,881.3 1018.9,881.5 1017.5,875.6 1063.3,875.4 			"/>
			<polygon fill="#EFECEA" points="1125.6,881.1 1073.1,881.3 1071.7,875.4 1124.1,875.3 			"/>
		</g>
		<g>
			<g>
				<g>
					<path fill="#242E6C" d="M1069.1,937.7c-10.4,0-21.3-8.5-24.3-18.8c-3-10.4,3-18.8,13.3-18.8c10.4,0,21.3,8.4,24.3,18.8
						S1079.4,937.7,1069.1,937.7z M1059.1,903.5c-8.5,0-13.4,6.9-10.9,15.4s11.4,15.4,19.9,15.4s13.4-6.9,10.9-15.4
						S1067.6,903.5,1059.1,903.5z"/>
				</g>
				<g>
					<path fill="#242E6C" d="M1066,928.4c-0.7-0.1-1.5-0.4-2.1-0.9l-10.6-8.5c-1.4-1.1-1.9-3-1.1-4.1s2.6-1.1,4.1,0.1l7.5,6l3.8-8.9
						c0.6-1.3,2.3-1.6,3.8-0.6c1.6,0.9,2.4,2.7,1.8,4l-5,11.6c-0.3,0.7-1,1.1-1.8,1.2C1066.2,928.5,1066.1,928.5,1066,928.4z"/>
				</g>
			</g>
			<g>
				<g>
					<path fill="#EB3668" d="M1121.1,937.7c-10.4,0-21.3-8.5-24.3-18.8c-3-10.4,3-18.8,13.3-18.8c10.4,0,21.3,8.4,24.3,18.8
						S1131.4,937.7,1121.1,937.7z M1111.1,903.5c-8.5,0-13.4,6.9-10.9,15.4s11.4,15.4,19.9,15.4s13.4-6.9,10.9-15.4
						S1119.6,903.5,1111.1,903.5z"/>
				</g>
				<g>
					<path fill="#EB3668" d="M1116.5,921.9L1116.5,921.9c-1.5,0-3-1.2-3.4-2.7l-2.3-8c-0.4-1.5,0.4-2.7,1.9-2.7l0,0
						c1.5,0,3,1.2,3.4,2.7l2.3,8C1118.8,920.7,1117.9,921.9,1116.5,921.9z"/>
					<path fill="#EB3668" d="M1118.6,928.2h-0.6c-1.3,0-2.7-1.1-3.1-2.4l0,0c-0.4-1.3,0.4-2.4,1.7-2.4h0.6c1.3,0,2.7,1.1,3.1,2.4
						l0,0C1120.6,927.2,1119.9,928.2,1118.6,928.2z"/>
				</g>
			</g>
		</g>
		<g>
			<g>
				<g>
					<path fill="#CDDCF9" d="M1011.1,643.1c-5.7,0-11.7-4.6-13.3-10.3c-1.7-5.7,1.6-10.3,7.3-10.3s11.7,4.6,13.3,10.3
						C1020.1,638.5,1016.8,643.1,1011.1,643.1z M1005.6,624.4c-4.7,0-7.3,3.8-6,8.4c1.4,4.7,6.3,8.4,10.9,8.4c4.7,0,7.3-3.8,6-8.4
						S1010.3,624.4,1005.6,624.4z"/>
				</g>
				<g>
					<path fill="#CDDCF9" d="M1009.4,638.1c-0.4,0-0.8-0.2-1.2-0.5l-5.8-4.6c-0.8-0.6-1.1-1.6-0.6-2.2c0.5-0.6,1.5-0.6,2.2,0
						l4.1,3.3l2.1-4.9c0.3-0.7,1.2-0.9,2.1-0.4c0.9,0.5,1.3,1.5,1,2.2l-2.8,6.4c-0.2,0.4-0.5,0.6-1,0.6
						C1009.6,638.1,1009.5,638.1,1009.4,638.1z"/>
				</g>
			</g>
			<g>
				<g>
					<path fill="#CDDCF9" d="M981.6,643.1c-5.7,0-11.7-4.6-13.3-10.3c-1.7-5.7,1.6-10.3,7.3-10.3s11.7,4.6,13.3,10.3
						C990.5,638.5,987.3,643.1,981.6,643.1z M976.1,624.4c-4.7,0-7.3,3.8-6,8.4c1.4,4.7,6.3,8.4,10.9,8.4c4.7,0,7.3-3.8,6-8.4
						C985.6,628.2,980.7,624.4,976.1,624.4z"/>
				</g>
				<g>
					<path fill="#CDDCF9" d="M979.9,638.1c-0.4,0-0.8-0.2-1.2-0.5l-5.8-4.6c-0.8-0.6-1.1-1.6-0.6-2.2c0.5-0.6,1.5-0.6,2.2,0l4.1,3.3
						l2.1-4.9c0.3-0.7,1.2-0.9,2.1-0.4c0.9,0.5,1.3,1.5,1,2.2l-2.8,6.4c-0.2,0.4-0.5,0.6-1,0.6C980,638.1,979.9,638.1,979.9,638.1z"
						/>
				</g>
			</g>
			<g>
				<g>
					<path fill="#CDDCF9" d="M950.9,643.1c-5.7,0-11.7-4.6-13.3-10.3c-1.7-5.7,1.6-10.3,7.3-10.3s11.7,4.6,13.3,10.3
						C959.9,638.5,956.6,643.1,950.9,643.1z M945.5,624.4c-4.7,0-7.3,3.8-6,8.4c1.4,4.7,6.3,8.4,10.9,8.4c4.7,0,7.3-3.8,6-8.4
						C955,628.2,950.1,624.4,945.5,624.4z"/>
				</g>
				<g>
					<path fill="#CDDCF9" d="M949.3,638.1c-0.4,0-0.8-0.2-1.2-0.5l-5.8-4.6c-0.8-0.6-1.1-1.6-0.6-2.2c0.5-0.6,1.5-0.6,2.2,0l4.1,3.3
						l2.1-4.9c0.3-0.7,1.2-0.9,2.1-0.4c0.9,0.5,1.3,1.5,1,2.2l-2.8,6.4c-0.2,0.4-0.5,0.6-1,0.6C949.4,638.1,949.3,638.1,949.3,638.1
						z"/>
				</g>
			</g>
			<g>
				<g>
					<path fill="#EB3668" d="M1039.6,643.1c-5.7,0-11.7-4.6-13.3-10.3c-1.7-5.7,1.6-10.3,7.3-10.3c5.7,0,11.7,4.6,13.3,10.3
						C1048.6,638.5,1045.3,643.1,1039.6,643.1z M1034.1,624.4c-4.7,0-7.3,3.8-6,8.4c1.4,4.7,6.3,8.4,10.9,8.4c4.7,0,7.3-3.8,6-8.4
						S1038.8,624.4,1034.1,624.4z"/>
				</g>
				<g>
					<path fill="#EB3668" d="M1037.1,634.5L1037.1,634.5c-0.8,0-1.7-0.7-1.9-1.5l-1.3-4.4c-0.2-0.8,0.2-1.5,1-1.5l0,0
						c0.8,0,1.7,0.7,1.9,1.5l1.3,4.4C1038.4,633.9,1037.9,634.5,1037.1,634.5z"/>
					<path fill="#EB3668" d="M1038.3,638h-0.3c-0.7,0-1.5-0.6-1.7-1.3l0,0c-0.2-0.7,0.2-1.3,0.9-1.3h0.3c0.7,0,1.5,0.6,1.7,1.3l0,0
						C1039.4,637.4,1039,638,1038.3,638z"/>
				</g>
			</g>
		</g>
	</g>
	<g>
		<g>
			<path fill="#FF9E9A" d="M1299.8,886.2c0,0-15.6,4-25.5,1s-26.9,1.9-29.7,5.5c-2.7,3.6-1.7,5,3.2,6.3c4.9,1.2,22.2,8.6,33.6,4.4
				c11.4-4.3,26.3-4.4,26.3-4.4L1299.8,886.2z"/>
			<path fill="#7F22BA" d="M1434.3,750.9c0,0-17.5,124.3-46.5,135.4c-14.3,5.5-77.4,17.9-96.1,19.2c0,0-4.6-3.7-3.5-18.8
				c0,0,66.2-24.3,75.6-37.5c14-19.7-8.7-80.3,8.9-98.8C1390.3,732,1419.8,724,1434.3,750.9z"/>
		</g>
		<path fill="#FD8857" d="M1423.7,1243.8h-7.3c-4.6,0-8.4-3.8-8.4-8.4v-194.8c0-4.6,3.8-8.4,8.4-8.4h7.3c4.6,0,8.4,3.8,8.4,8.4
			v194.8C1432.1,1240,1428.3,1243.8,1423.7,1243.8z"/>
		<path fill="#FD8857" d="M1494.6,1257.7c-7.8-16.2-38.3-28.3-74.6-28.3s-66.8,12.1-74.6,28.3H1494.6z"/>
		<path fill="#FD8857" d="M1474.6,1202.8h-109.2c-1.2,0-2.2-1-2.2-2.2v-4c0-1.2,1-2.2,2.2-2.2h109.2c1.2,0,2.2,1,2.2,2.2v4
			C1476.9,1201.8,1475.8,1202.8,1474.6,1202.8z"/>
		<path fill="#1D2453" d="M1428.4,1012.8c-5.1,8.7-11,16.8-17.1,24.4c-18.8,23.7-39.3,43.3-42.8,61.8c-0.7,3.7-1.8,7.7-3.3,11.8
			c-1.5,4.2-3.3,8.7-5.5,13.3c-8,17.3-19.9,36.7-31.8,54.4c-20.6,30.5-40,56-40,56l-35.5-1.5c1.4-3.6,16.9-45.7,37.6-97.2
			c8.4-20.9,17.4-43.1,26-64.6c1.1-2.9,2.3-5.7,3.4-8.5c2.6-6.6,5.2-13,7.8-19.3c19.5-48.3,34.9-86.8,34.9-86.8s77.7-29.5,85.8-10.4
			C1454.7,962,1449.3,977.4,1428.4,1012.8z"/>
		<path fill="#1D2453" d="M1286.9,1228.1c0,0-1.8,29.3-7.5,29.7c-0.8,0.1-28.8,0.1-28.8,0.1l-35.7-0.2c0,0,0.2-8.6,10.7-10.4
			c10.4-1.8,27.9-9.2,34.3-23C1266.5,1209.7,1286.9,1228.1,1286.9,1228.1z"/>
		<path fill="#1D2453" d="M1369.1,1144.4c0,0,24.7,15.9,22.3,21c-0.3,0.7-14,25.1-14,25.1l-17.6,31.1c0,0-7.4-4.4-3.9-14.4
			s5.6-28.9-3.4-41.1C1343.1,1153.2,1369.1,1144.4,1369.1,1144.4z"/>
		<path fill="#363F78" d="M1334.3,943.5c0,0-96.2,59.9-107.1,100.8s129.8,128,129.8,128s15.4-13.6,18.2-23.6
			c0,0-63.6-76.2-77.4-93.3c-8.5-10.5,125.3-36.3,141.6-61.7c16.3-25.4,10.5-46.8,10.5-46.8L1334.3,943.5z"/>
		<path fill="#F24B46" d="M1519.3,1075.2h-198.7c-4.3,0-7.8-3.5-7.8-7.8v-38.9c0-4.3,3.5-7.8,7.8-7.8h198.7c4.3,0,7.8,3.5,7.8,7.8
			v38.9C1527.1,1071.7,1523.6,1075.2,1519.3,1075.2z"/>
		<path fill="#FF9E9A" d="M1380.8,729.6c-9.6,5.9-14.9,13.5-14.9,13.5c23.4,6,62.1-15.6,62.1-15.6s-15-10.1-20.6-32.3
			c-0.3-1.1-0.5-2.3-0.8-3.4c-0.7-3.7-1.2-7.8-1.3-12.2l-10.7,9.6l-17.9,16c0,0,0.4,6.6,2.6,18.1
			C1379.9,725.2,1380.3,727.3,1380.8,729.6z"/>
		<path fill="#9E30CA" d="M1452.8,840c-3.3,45,1.1,113.5-2.7,125.4c-3.3,10.2-40.6,4.2-55.5,0.7c-5.5-1.3-12.2-3.1-19.1-5.2
			c-19.3-6-40.2-14.5-42.5-20.8c-0.1-0.2-0.2-0.5-0.2-0.7c-0.2-0.9-0.2-1.8,0-2.6c0.8-3.2,3.6-6.7,4-14.7c0.4-8.9,0.3-19.4,0.7-30.7
			c0-1.3,0-2.7,0.2-3.9V887c0-0.2,0-0.5,0-0.7c0.3-12.6,1-25.8,1.7-38.9c0.5-8.2,1-16.4,1.7-24.2c1.7-20.2,3.9-38.1,6.9-49.5
			c4.9-18.5,15.7-30.6,25.5-39.4l7.1-6.1c7.9,1.7,17.3,0.6,25.8-3.4c9.2-4.4,12.3-7.5,13.9-6.3
			C1441.5,734.8,1456.8,784.9,1452.8,840z"/>
		<path fill="#7F22BA" d="M1375.4,960.9c-19.3-6-40.2-14.5-42.5-20.8c-0.1-0.2-0.2-0.5-0.2-0.7c0-0.9,0-1.8,0-2.6
			c0.8-3.2,3.6-6.7,4-14.7c0.4-8.9,0.3-19.4,0.7-30.7c0-1.3,0-2.7,0.2-3.9V887c0-0.2,0-0.5,0-0.7l72.7-33
			C1410.4,853.3,1414.6,911.9,1375.4,960.9z"/>
		<path fill="#FF7D78" d="M1376.8,705.1c0,0,0.4,6.6,2.6,18.1c17.4-5.6,25.3-21.4,28-28.1c0.8-1.9,1.1-3.1,1.1-3.1s-0.7-0.1-1.8-0.4
			c-2.5-0.5-7.1-1.5-12-2.5L1376.8,705.1z"/>
		<path fill="#FF9E9A" d="M1369.8,705c0,0,38.3,4.3,40.6-19.6c2.3-23.9,8.8-39.4-15.5-43.2c-24.4-3.8-30,4.9-32.7,12.7
			C1359.4,662.6,1359.9,703.2,1369.8,705z"/>
		<path fill="#1D2453" d="M1410.2,687c0,0-2.4-31.7-37.3-35c-23.9-2.3-10.6-22.8-8-26.1c0,0,18.3,2.5,37.1,5.6
			C1441.3,638.1,1414.1,682.1,1410.2,687z"/>
		<g>
			
				<rect x="1207.1" y="827.8" transform="matrix(0.9511 -0.3089 0.3089 0.9511 -210.8406 416.1545)" fill="#242E6C" width="3.5" height="92.3"/>
			
				<rect x="1221.4" y="911.6" transform="matrix(0.9998 -2.134926e-02 2.134926e-02 0.9998 -19.235 27.3196)" fill="#242E6C" width="96.9" height="5.8"/>
		</g>
		<g>
			<path fill="#FF9E9A" d="M1307.8,905.3c0,0-15,5.7-25.2,3.8s-26.6,4.9-28.9,8.8c-2.3,3.9-1.2,5.2,3.8,5.9s23.1,6.1,33.9,0.6
				c10.9-5.5,25.6-7.3,25.6-7.3L1307.8,905.3z"/>
			<path fill="#9E30CA" d="M1426.6,756c0,0-3.7,125.5-31.2,139.7c-13.6,7-75,26.4-93.4,29.7c0,0-5-3.2-5.5-18.3
				c0,0,63.1-31.4,71-45.6c11.7-21.1-17.5-78.9-2.1-99.2C1380.7,742,1409.2,730.9,1426.6,756z"/>
		</g>
	</g>
	<g>
		<path fill="#222956" d="M965,1296.9c0,0,1.4-11,4.7-17.5s24-2.4,24-2.4s4.1,3.6,5,20.1L965,1296.9z"/>
		<path fill="#222956" d="M894.3,1296.8c4.9-3,2.1-25.2,2.1-25.2s-22.7-18.2-25.8-4.3c-3.1,13.9-21.6,20.1-32.1,21.9
			c-7.2,1.2-9.5,5.2-10.2,7.6H894.3z"/>
		<path fill="#242E6C" d="M941.4,1135.4c-0.9,5.1-1.5,9.3-1.7,12.3c-2.1,41.2-34.7,135.3-40.5,137.5c-9,3.4-23.2-3.8-30.6-6.2
			c-3.1-1-5.1-4.1-4.5-7.2c16.1-74.1,22-180.8,24.2-243.9c1.1-31.8,6.5-53.8,6.5-53.8s79.4-21.2,79.8,5.6
			C975.1,1003.4,948.4,1096.3,941.4,1135.4z"/>
		<path fill="#1B2251" d="M941.4,1135.4l-53-107.6c1.1-31.8,6.5-53.8,6.5-53.8s79.4-21.2,79.8,5.6
			C975.1,1003.4,948.4,1096.3,941.4,1135.4z"/>
		<path fill="#242E6C" d="M923.7,979.7l42,304.1c0,0,18.4,4.4,32.8,0.9c0,0,12.3-161.7,11.3-200.8c-1-39.1,8.8-104.6-2.2-111.8
			C996.4,964.8,923.7,979.7,923.7,979.7z"/>
		<path fill="#C643DB" d="M1010.4,901.7l5.2,73c0.2,2.7-1.6,5.2-4.2,6c-5.9,1.7-12.6,2.9-25.6,5.6c-12.2,2.5-28.7,4.8-48.9,4.9
			c-32.1,0.2-44.3-10.9-44.3-10.9c-1.4,0,0.7-6.7,2.6-38.7c0.6-10.8,1.3-24.6,1.7-41.9c0.4-15.6,0.7-34.2,0.7-56.2
			c0-26.5,41-55,41.8-55l0,0c0,3.8,6,10.8,15.3,11.5c11,0.7,24.5-4.7,24.5-11.1c0-0.1,19.9,31.8,26.9,65.7c0.9,4.3,1.6,8.8,2.1,13.6
			c0,0.1,0,0.1,0,0.2c0.1,0.9,0.2,1.7,0.3,2.6c0,0.2,0,0.3,0,0.5c0.1,0.8,0.2,1.6,0.2,2.4c0,0.2,0,0.5,0.1,0.7
			c0.1,0.7,0.1,1.5,0.2,2.2c0,0.1,0,0.1,0,0.2c0,0.6,0.1,1.1,0.1,1.7c0,0.4,0.1,0.8,0.1,1.2c0,0.7,0.1,1.3,0.1,2c0,0.3,0,0.7,0.1,1
			c0,0.6,0.1,1.3,0.1,1.9c0,0.3,0,0.6,0.1,0.9c0.1,0.9,0.1,1.9,0.1,2.8c0,0.1,0,0.1,0,0.2c0,0.9,0.1,1.8,0.1,2.7c0,0.2,0,0.4,0,0.7
			c0,0.9,0.1,1.7,0.1,2.6c0,0.1,0,0.3,0,0.4C1010.2,897.3,1010.3,899.5,1010.4,901.7c0,0.1,0,0.1,0,0.2V901.7z"/>
		<path fill="#C643DB" d="M939.4,788.6c0,0-38.1-0.3-47.3,12.5c-9.2,12.9-29.3,82.1-18.8,105.1s30.1-9.5,41-23.6
			C925.3,868.5,939.4,788.6,939.4,788.6z"/>
		<path fill="#FFB9B6" d="M939.1,782.8v3.9c0,0-1.1,12.3,14.1,14.1c15.2,1.8,26.7-4.8,26.3-14.3c-1.4-7.4-2.9-12.4-3-18.5
			c0-2.3,0.1-4.7,0.5-7.4l-29.4-0.6l-8.7,1.4L939.1,782.8z"/>
		<path fill="#FF9792" d="M938.9,761.5l0.1,21.3c3.1,1.5,6.6,2.3,10.6,2.3c13.5,0,22.2-9.9,26.8-17.1c0-2.3,0.1-4.7,0.5-7.4
			l-29.4-0.6L938.9,761.5z"/>
		<path fill="#FFB9B6" d="M979.2,755.9c-3.4,18.4-27.1,17.8-37.3,16.6c-2.9-0.3-4.7-0.7-4.7-0.7c-3.2-0.9-5.1-6-5.9-12.7
			c-1.7-13.3,0.4-32.7,2.7-37.7c3.4-7.5,9.7-15.6,33.6-9.7C991.4,717.5,983.6,732.4,979.2,755.9z"/>
		<path fill="#7F22BA" d="M900.5,840.1c0,0-14.7,32.5-14.3,42.3c0,0,7.3-0.3,14.3,1.8C912,887.7,900.5,840.1,900.5,840.1z"/>
		<path fill="#222956" d="M926.7,703.9c0,0,10.5-0.8,22.9-6.2c10.1-4.4,22.7,0.4,26.8,2.6c-0.1-0.7-0.4-1.6-1-2.5
			c0,0,1.8,1.3,2.1,3.1c0.2,0.1,0.3,0.2,0.2,0.3c0,0,2.1-0.4,3.4,0.2c0,0-0.9-0.1-1.3,0.5c0,0.1-0.1,0.1-0.2,0.2
			c15.7,7.6,17.1,32.4,12.1,38.1c-6.1,6.9-13.3,22.4-13.3,22.4s-2.7-3.7-1.6-9.7c1.1-6.1-4.1-6.1-10.8-8.8
			c-6.6-2.8-1.1-10.5-6.9-15.2c-5.8-4.7-27-1.9-26.8-5.5C924.6,720.5,926.7,704.8,926.7,703.9z"/>
		<path fill="#7F22BA" d="M984.1,901.1c-6.2,25-73.5,37.9-88.8,40.5c0.6-10.8,1.3-24.6,1.7-41.9L984.1,901.1z"/>
		<path fill="#FFB9B6" d="M969.3,909.2c0.6,0,15-2.1,17.5-3.4c2.6-1.3,14.3-17.9,6.6-22.2s-28.3,12.8-28.3,12.8L969.3,909.2z"/>
		<path fill="#C643DB" d="M882.2,914.2c0,0,55.4,3,92.5-5c0,0,0.9-10.7-10.7-15.5c0,0-57.9-12.3-71.8-8.9
			C878.3,888.3,882.2,914.2,882.2,914.2z"/>
		<path fill="#C643DB" d="M1009.4,870.7c-11.5,13.9-26.5,25.2-43.1,27.8l0,0c-0.1-0.2-5-7.6-4.1-18.5c0.4-5,2.1-10.8,6-17
			c1.2-1.9,2.3-4.1,3.3-6.6c9-23.1,7.7-67.5,7.7-67.5s38.4,4,50.4,21.1C1036.9,820.6,1027.5,848.8,1009.4,870.7z"/>
		<path fill="#FF9792" d="M941.9,772.5c-2.9-0.3-4.7-0.7-4.7-0.7c-3.2-0.9-5.1-6-5.9-12.7c6.1,1.5,8.9,6.2,10,8.2
			C941.9,768.2,942,770.3,941.9,772.5z"/>
		<path fill="#FFB9B6" d="M926.4,782.9c0,0-13.3-21.9-2.9-22.8c10.3-1,14.5,6,15.9,8.6c1.5,2.6-0.4,14.1-0.4,14.1L926.4,782.9z"/>
		<path fill="#C643DB" d="M977,879.3c-0.4,2.8-1.2,5.3-2.3,7.6c-3.2,7.2-8.4,11.6-8.4,11.6l0,0c-34.4-15.5-41.4-68.9-42.6-98.3
			c-0.5-11.8,0-19.7,0-19.7c15.5-5.1,19.9,3.8,19.9,3.8s18.3,43.6,27.9,72.1C975.1,867.4,977.5,876.1,977,879.3z"/>
		<path fill="#7F22BA" d="M1009.4,870.7c-11.5,13.9-26.5,25.2-43.1,27.8l0,0c-34.4-15.5-41.4-68.9-42.6-98.3
			c0,0,16.3,59.1,38.5,79.8c4,3.7,8.2,6.2,12.5,6.9c0,0,28-7.9,33.8-15.4C1009,871,1009.3,870.8,1009.4,870.7z"/>
	</g>
	<g>
		<polygon fill="#B1C9F6" points="1320,507.7 719.4,507.7 673.4,357 1274,357 		"/>
		<g>
			<path fill="#EFECEA" d="M1251.2,408l5.5,18c2.4,7.9-2.1,14.4-10,14.4H749.1c-7.9,0-16.4-6.5-18.8-14.4l-5.5-18
				c-2.4-7.9,2.1-14.4,10-14.4h497.6C1240.3,393.6,1248.7,400,1251.2,408z"/>
			<g>
				<path fill="#313B75" d="M1151.5,411.7h-7.6l-0.7-2.3h10.7l0.6,2l-2.8,13.2h-3L1151.5,411.7z"/>
				<path fill="#313B75" d="M1158,417c-1.3-4.3,0.2-7.9,4.2-7.9s7.7,3.5,9,7.9c1.3,4.3-0.2,7.9-4.2,7.9
					C1163,424.8,1159.4,421.4,1158,417z M1168.5,417c-0.9-3-3.2-5.4-5.5-5.4s-3.1,2.4-2.2,5.4s3.2,5.4,5.5,5.4
					C1168.7,422.4,1169.4,420,1168.5,417z"/>
				<path fill="#313B75" d="M1172.4,413.1c-0.6-2.1,0.3-3.9,2.4-3.9s4.1,1.8,4.7,3.9s-0.3,3.9-2.4,3.9S1173,415.2,1172.4,413.1z
					 M1183.9,409.4h2.1l-6.5,15.2h-2.1L1183.9,409.4z M1177.6,413.1c-0.4-1.2-1.4-2.2-2.3-2.2c-1,0-1.3,1-1,2.2
					c0.4,1.2,1.4,2.2,2.3,2.2C1177.7,415.3,1178,414.3,1177.6,413.1z M1183.9,420.9c-0.6-2.1,0.3-3.9,2.4-3.9s4.1,1.8,4.7,3.9
					s-0.3,3.9-2.4,3.9S1184.6,423,1183.9,420.9z M1189.1,420.9c-0.4-1.2-1.4-2.2-2.3-2.2c-1,0-1.3,1-1,2.2c0.4,1.2,1.4,2.2,2.3,2.2
					C1189.2,423.1,1189.5,422.1,1189.1,420.9z"/>
			</g>
			<g>
				<path fill="#7F22BA" d="M1071.2,393.6l14.3,46.9H749.1c-6.6,0-13.6-4.5-17.1-10.6c-0.7-1.2-1.3-2.5-1.7-3.8l-5.5-18
					c-2.4-7.9,2.1-14.4,10-14.4h336.4V393.6z"/>
				<path fill="#242E6C" d="M794.3,393.6l-14.2,46.9H749c-6.6,0-13.6-4.5-17.1-10.6l11-36.3H794.3z"/>
				<polygon fill="#242E6C" points="882.4,393.6 868.2,440.4 816.8,440.4 831,393.6 				"/>
				<polygon fill="#242E6C" points="970.4,393.6 956.2,440.4 904.8,440.4 919,393.6 				"/>
				<polygon fill="#242E6C" points="1058.5,393.6 1044.3,440.4 992.9,440.4 1007.1,393.6 				"/>
			</g>
		</g>
		<g>
			<polygon fill="#313B75" points="840.3,468.2 750.5,468.2 748.6,462 838.4,462 			"/>
			<polygon fill="#313B75" points="821,485.5 755.8,485.5 753.9,479.3 819.2,479.3 			"/>
			<polygon fill="#313B75" points="864.1,485.5 825.1,485.5 823.2,479.3 862.2,479.3 			"/>
			<polygon fill="#313B75" points="930.5,485.5 870.9,485.5 869,479.3 928.6,479.3 			"/>
			<polygon fill="#313B75" points="874.3,468.2 847.1,468.2 845.2,462 872.4,462 			"/>
			<polygon fill="#313B75" points="982.5,468.2 883.6,468.2 881.7,462 980.6,462 			"/>
		</g>
	</g>
	<g>
		<polygon fill="#B1C9F6" points="509.4,735.2 86.9,735.2 21.2,520.2 443.7,520.2 		"/>
		<polygon fill="#EFECEA" points="449.7,627.7 80.8,627.7 52.9,536.3 421.8,536.3 		"/>
		<g>
			<polygon fill="#1B2251" points="141.5,554.9 79,554.9 77.5,550 140,550 			"/>
			<polygon fill="#1B2251" points="208.3,554.9 156.4,554.9 154.9,550 206.8,550 			"/>
			<polygon fill="#1B2251" points="329.3,554.9 221.9,554.9 220.4,550 327.8,550 			"/>
			<polygon fill="#1B2251" points="146.8,572.4 84.3,572.4 82.8,567.5 145.3,567.5 			"/>
			<polygon fill="#1B2251" points="213.7,572.4 161.7,572.4 160.2,567.5 212.2,567.5 			"/>
			<polygon fill="#1B2251" points="275,572.4 223.1,572.4 221.6,567.5 273.6,567.5 			"/>
			<polygon fill="#1B2251" points="398.2,574.4 290.8,574.4 289.3,569.5 396.7,569.5 			"/>
		</g>
		<g>
			<polygon fill="#1B2251" points="153.6,594.5 91.1,594.5 89.6,589.6 152.1,589.6 			"/>
			<polygon fill="#1B2251" points="220.4,594.5 168.5,594.5 167,589.6 218.9,589.6 			"/>
			<polygon fill="#1B2251" points="341.4,594.5 234,594.5 232.5,589.6 339.9,589.6 			"/>
			<polygon fill="#1B2251" points="158.9,612 96.4,612 94.9,607.1 157.4,607.1 			"/>
			<polygon fill="#1B2251" points="225.8,612 173.8,612 172.3,607.1 224.3,607.1 			"/>
			<polygon fill="#1B2251" points="287.1,612 235.2,612 233.7,607.1 285.7,607.1 			"/>
			<polygon fill="#1B2251" points="410.3,614 302.9,614 301.4,609.1 408.8,609.1 			"/>
		</g>
		<g>
			<g>
				<g>
					<path fill="#242E6C" d="M328.2,703.4c-14.3,0-29.5-11.6-33.9-26c-4.4-14.3,3.7-26,18-26s29.5,11.6,33.9,26
						C350.6,691.8,342.5,703.4,328.2,703.4z M313.8,656.2c-11.7,0-18.3,9.5-14.7,21.2c3.6,11.7,16,21.2,27.7,21.2
						s18.3-9.5,14.7-21.2C337.9,665.8,325.5,656.2,313.8,656.2z"/>
				</g>
				<g>
					<path fill="#242E6C" d="M323.8,690.7c-1-0.1-2-0.5-2.9-1.2l-14.7-11.7c-2-1.6-2.7-4.1-1.6-5.6s3.6-1.5,5.6,0.1l10.4,8.2
						l5.1-12.2c0.7-1.8,3.1-2.2,5.3-0.9c2.2,1.3,3.3,3.8,2.6,5.5l-6.7,16c-0.4,0.9-1.3,1.5-2.4,1.6
						C324.2,690.7,324,690.7,323.8,690.7z"/>
				</g>
			</g>
			<g>
				<g>
					<path fill="#242E6C" d="M253.9,703.4c-14.3,0-29.5-11.6-33.9-26c-4.4-14.3,3.7-26,18-26s29.5,11.6,33.9,26
						C276.3,691.8,268.2,703.4,253.9,703.4z M239.5,656.2c-11.7,0-18.3,9.5-14.7,21.2s16,21.2,27.7,21.2c11.7,0,18.3-9.5,14.7-21.2
						C263.6,665.8,251.2,656.2,239.5,656.2z"/>
				</g>
				<g>
					<path fill="#242E6C" d="M249.5,690.7c-1-0.1-2-0.5-2.9-1.2l-14.7-11.7c-2-1.6-2.7-4.1-1.6-5.6c1.1-1.5,3.6-1.5,5.6,0.1
						l10.4,8.2l5.1-12.2c0.7-1.8,3.1-2.2,5.3-0.9c2.2,1.3,3.3,3.8,2.6,5.5l-6.7,16c-0.4,0.9-1.3,1.5-2.4,1.6
						C249.8,690.7,249.7,690.7,249.5,690.7z"/>
				</g>
			</g>
			<g>
				<g>
					<path fill="#242E6C" d="M176.9,703.4c-14.3,0-29.5-11.6-33.9-26c-4.4-14.3,3.7-26,18-26s29.5,11.6,33.9,26
						C199.3,691.8,191.2,703.4,176.9,703.4z M162.5,656.2c-11.7,0-18.3,9.5-14.7,21.2s16,21.2,27.7,21.2s18.3-9.5,14.7-21.2
						C186.6,665.8,174.2,656.2,162.5,656.2z"/>
				</g>
				<g>
					<path fill="#242E6C" d="M172.5,690.7c-1-0.1-2-0.5-2.9-1.2l-14.7-11.7c-2-1.6-2.7-4.1-1.6-5.6c1.1-1.5,3.6-1.5,5.6,0.1
						l10.4,8.2l5.1-12.2c0.7-1.8,3.1-2.2,5.2-0.9c2.2,1.3,3.3,3.8,2.6,5.5l-6.7,16c-0.4,0.9-1.3,1.5-2.4,1.6
						C172.9,690.7,172.7,690.7,172.5,690.7z"/>
				</g>
			</g>
			<g>
				<g>
					<path fill="#EB3668" d="M399.9,703.4c-14.3,0-29.5-11.6-33.9-26c-4.4-14.3,3.7-26,18-26s29.5,11.6,33.9,26
						C422.3,691.8,414.2,703.4,399.9,703.4z M385.5,656.2c-11.7,0-18.3,9.5-14.7,21.2c3.6,11.7,16,21.2,27.7,21.2
						s18.3-9.5,14.7-21.2C409.6,665.8,397.2,656.2,385.5,656.2z"/>
				</g>
				<g>
					<path fill="#EB3668" d="M393.3,681.7L393.3,681.7c-2,0-4.2-1.7-4.8-3.7l-3.4-11c-0.6-2,0.5-3.7,2.6-3.7l0,0
						c2,0,4.2,1.7,4.8,3.7l3.4,11C396.4,680.1,395.3,681.7,393.3,681.7z"/>
					<path fill="#EB3668" d="M396.3,690.4h-0.8c-1.8,0-3.7-1.5-4.3-3.3l0,0c-0.6-1.8,0.5-3.3,2.3-3.3h0.8c1.8,0,3.7,1.5,4.3,3.3l0,0
						C399.1,688.9,398.1,690.4,396.3,690.4z"/>
				</g>
			</g>
		</g>
	</g>
	<g>
		<path fill="#F24B46" d="M120.3,723.5c0,0-53.4,55.4-56,76.3c-2.5,20.9,25.6,53.4,25.6,53.4L120.3,723.5z"/>
		<path fill="#1D2453" d="M144.4,1297.7c0,0,1.9,29.4,7.6,29.8c0.8,0.1,28.8,0,28.8,0l35.9-0.3c0,0-0.3-8.6-10.7-10.4
			c-10.5-1.8-28-9.1-34.4-23C164.8,1279.3,144.4,1297.7,144.4,1297.7z"/>
		<path fill="#1D2453" d="M64.6,1297.9c0,0,1.9,29.4,7.6,29.8c0.8,0.1,28.8,0,28.8,0l35.9-0.3c0,0-0.3-8.6-10.7-10.4
			c-10.5-1.8-28-9.1-34.4-23C85,1279.4,64.6,1297.9,64.6,1297.9z"/>
		<path fill="#1D2453" d="M183.5,981.7c0,0-9.2,60-44,166.5c-34.7,106.5-39.4,152.6-39.4,152.6l-37.5-1c0,0-0.6-116.4,15.4-169.9
			c16-53.6,3.1-193,3.1-193L183.5,981.7z"/>
		<path fill="#363F78" d="M201.6,940.1c0,0,1.5,90.4-13.9,201.4s-10,158.1-10,158.1l-37.4,1.3c0,0-22.6-111-16.3-166.5
			c6.3-55.6-31.1-190.5-31.1-190.5L201.6,940.1z"/>
		<path fill="#FFB9B6" d="M128.7,728.7l20,13l28.8-5.4c-0.4-2.3-2.3-12-4.1-20.7c-0.1-0.5-0.2-1-0.3-1.5c-1.5-7.4-2.8-13.8-2.8-13.8
			l-27-11.8l-10.1-4.4c0,0.2,0.8,8.3,0.9,9.4C136.1,714.4,128.7,728.7,128.7,728.7z"/>
		<path fill="#F24B46" d="M170.1,722c-0.6-0.2-34.7-10.2-38.5-9c-3.7,1.2-5.9,8.4-5.9,8.4l55.9,12.5
			C181.6,733.9,177.2,725,170.1,722z"/>
		<path fill="#F9795A" d="M78.6,951.5c5.8,26.4,102.2,29.3,127,5.3c2.8-2.7,2.9-15.5,1.8-32.6c-2.2-33.5-9-83.9-9.3-109.6
			c-0.2-12.4-1.9-25.1-4.2-36.7c-4.9-24.6-12.3-43.9-12.3-43.9s-47.1-15.1-55.9-12.5C83.3,734,72.7,925.1,78.6,951.5z"/>
		<path fill="#F24B46" d="M207.4,924.2c-2.2-33.5-9-83.9-9.3-109.6c-0.2-12.4-1.9-25.1-4.2-36.7l-28.3-4.9
			C165.6,772.9,138.2,886.1,207.4,924.2z"/>
		<path fill="#FFB9B6" d="M192,877.5c0,0-1.9,4.6,2.1,7.7c4.1,3.1,6.7,8.1,5.8,11.8s-9.8,9.7-12.9,8.7c-3.1-1-9.4-5.8-8.7-7.7
			s-4.3-17,3.2-22.8C189.1,869.4,192,877.5,192,877.5z"/>
		<path fill="#F9795A" d="M160,727.2c0,0,27.6,5.1,49.7,37.5s36.6,56.5,32.6,68.2s-40.9,52.3-47.3,52.3c-6.4,0-16.7-4.6-17.3-15
			c0,0,25.9-39,20.8-44.9c-2.2-2.5-33.8-28.1-38.3-16.5C152.8,828,160,727.2,160,727.2z"/>
		<path fill="#FFAEAA" d="M136.2,693.8c5.9,10,28,18.6,37.2,21.8c-0.1-0.5-0.2-1-0.3-1.5c-1.5-7.4-2.8-13.8-2.8-13.8l-27-11.8
			C137.4,688.4,133.8,689.7,136.2,693.8z"/>
		<path fill="#FFB9B6" d="M180.4,698.6c0,0-43.4,13.6-51.4-13.5c-8.1-27.1-19.1-43.6,8.2-53.5c27.3-9.8,35.8-1.1,40.7,7.3
			C182.9,647.3,191.5,694.4,180.4,698.6z"/>
		<path fill="#1D2453" d="M176.3,636.3c0,0-2.7,31.6-9.2,30.2c-6.5-1.4-12.5-2.4-11.5,7.2c1,9.5,10.1,20.5-10.1,22.2
			c-20.1,1.7-49.2-50.1-43.7-60C117.7,607.5,199.3,601.6,176.3,636.3z"/>
	</g>
</g>
</svg>
