<?xml version="1.0" encoding="utf-8"?>
<!-- Generator: Adobe Illustrator 21.1.0, SVG Export Plug-In . SVG Version: 6.00 Build 0)  -->
<svg version="1.1" id="Layer_1" xmlns="http://www.w3.org/2000/svg" xmlns:xlink="http://www.w3.org/1999/xlink" x="0px" y="0px"
	 viewBox="0 0 50 50" enable-background="new 0 0 50 50" xml:space="preserve">
<g>
	<path fill="#FFFFFF" d="M23.7,36V46c0,0.1,0,0.2,0,0.3c-0.1,0.5-0.6,0.8-1.1,0.8H11.2c-0.5,0-1-0.4-1.1-0.8c0-0.1,0-0.2,0-0.3V36
		c0-0.6,0.5-1.1,1.1-1.1h4.2v3.1l1.4-0.6l1.4,0.6v-3.1h4.2C23.1,34.8,23.7,35.3,23.7,36z"/>
	<path fill="#FFFFFF" d="M39.5,36V46c0,0.1,0,0.2,0,0.3c-0.1,0.5-0.6,0.8-1.1,0.8H27.1c-0.5,0-1-0.4-1.1-0.8c0-0.1,0-0.2,0-0.3V36
		c0-0.6,0.5-1.1,1.1-1.1h4.2v3.1l1.4-0.6l1.4,0.6v-3.1h4.2C39,34.8,39.5,35.3,39.5,36z"/>
	<path fill="#FFFFFF" d="M31.6,21.3v10.1c0,0.6-0.5,1.1-1.1,1.1H19.2c-0.6,0-1.1-0.5-1.1-1.1V21.3c0-0.6,0.5-1.2,1.2-1.2h4.4v3.1
		l1.4-0.6l1.4,0.6v-3.1h4.1C31.1,20.2,31.6,20.7,31.6,21.3z"/>
	<path fill="#FFFFFF" d="M49.1,20.8l-1.3,1.8l-1.5-1.1v25.6h-4.6c0.1-0.3,0.2-0.6,0.2-0.8c0-0.1,0-0.2,0-0.3V36
		c0-1.9-1.5-3.4-3.4-3.4h-4.7c0.1-0.4,0.2-0.7,0.2-1.1V21.3c0-1.9-1.5-3.4-3.4-3.4H19.2c-1.9,0-3.4,1.5-3.4,3.4v10.1
		c0,0.4,0.1,0.8,0.2,1.1h-4.7c-1.9,0-3.4,1.5-3.4,3.4V46c0,0.1,0,0.2,0,0.3c0,0.3,0.1,0.6,0.2,0.8H3.8V21.5l-1.5,1.1l-1.4-1.8l3-2.3
		L24.1,3.5l0.6-0.6L46,18.6L49.1,20.8z"/>
</g>
</svg>
