<?xml version="1.0" encoding="utf-8"?>
<!-- Generator: Adobe Illustrator 21.1.0, SVG Export Plug-In . SVG Version: 6.00 Build 0)  -->
<svg version="1.1" id="Layer_1" xmlns="http://www.w3.org/2000/svg" xmlns:xlink="http://www.w3.org/1999/xlink" x="0px" y="0px"
	 viewBox="0 0 48 47" enable-background="new 0 0 48 47" xml:space="preserve">
<g id="Page-1">
	<g id="ic-technology-titanium">
		<path id="Combined-Shape" fill="#FFFFFF" d="M9.5,35.7c3.3,2.3,8.8,5.5,12.1,6.9c-5.8,3.5-10.7,4.7-12.9,2.8l-0.1-0.1L8.4,45
			c-1.5-1.7-1.1-5.1,0.8-9.2L9.5,35.7L9.5,35.7z M38.4,35.6l0.4,0.2c1.9,4.2,2.3,7.5,0.8,9.3l-0.1,0.1c-2.1,2.1-7.2,0.9-13.1-2.7
			c3.2-1.4,8.6-4.5,11.9-6.7L38.4,35.6z M24,17c0.9,0.8,1.8,1.7,2.7,2.6c4.9,4.9,8.8,10.1,11.2,14.5c-3.8,2.7-12.6,7.6-14,7.6
			c-1.3,0-10-4.9-13.9-7.5c2.4-4.4,6.3-9.6,11.2-14.6C22.2,18.7,23.1,17.8,24,17z M25.8,4.4c6.1-4,11-5.2,12.5-3.7l0,0l3.8,3.7
			l-0.3,0.1c-2.9,0.6-6.4,2.2-10.3,4.7l0,0l-1.7,1.1l1.5,1.4l0.9,0.9l0.9,0.9l0.5,0.5c9.7,9.8,14.8,20.3,12.3,22.9l0,0L42,40.5
			L41.9,40c-1.1-5.8-6.4-13.9-14-21.6c-0.9-0.9-1.8-1.8-2.8-2.6l0,0l-1.1-1l-1.1,1L22,16.7c-0.6,0.6-1.2,1.2-1.8,1.8l0,0l-0.5,0.5
			C12.1,26.6,7,34.7,6.1,40.4l0,0l0,0l-3.9-3.8l-0.1-0.1c-2.3-2.8,3-13.4,12.9-23.2c0.6-0.6,1.2-1.2,1.8-1.7l0,0l1.5-1.4L16,8.8
			c-3.7-2.3-7-3.9-9.8-4.4l0,0L5.9,4.3l3.8-3.7l0.1-0.1c0.4-0.3,1-0.5,1.8-0.5c2.6,0,6.8,1.8,11.5,5l0,0L24,5.6L24.9,5L25.8,4.4z
			 M46.9,6.8c2.4,2.4,0.6,8.5-4.2,15.5c-0.3-0.5-0.6-0.9-1-1.4c-0.1-3.4-0.4-6.4-0.8-7.1c-0.4-0.7-2.4-2.1-4.8-3.7
			c0.5-0.9,1-1.8,1.3-2.6C41.8,5.5,45.2,5.1,46.9,6.8z M10.5,7.6c0.4,0.8,0.8,1.7,1.3,2.5c-2.5,1.6-4.5,3-4.9,3.7
			c-0.5,0.8-0.7,3.8-0.8,7.3c-0.3,0.4-0.6,0.8-0.8,1.2C0.6,15.5-1.3,9.5,0.9,7l0.1-0.1l0.2-0.2C3,5.2,6.4,5.6,10.5,7.6z M15,10
			c0.2,0.1,0.4,0.3,0.6,0.4c-0.6,0.6-1.2,1.2-1.8,1.8c-2.2,2.2-4.3,4.5-6,6.7c0.1-2.2,0.3-3.9,0.5-4.3c0.4-0.7,3.3-2.6,6.5-4.5
			L15,10z M32.9,10.1c3.3,1.9,6.3,3.9,6.6,4.6c0.2,0.4,0.4,2,0.5,4.1c-1.7-2.2-3.7-4.4-5.9-6.5c-0.6-0.6-1.2-1.2-1.8-1.8
			C32.6,10.3,32.7,10.2,32.9,10.1z"/>
	</g>
</g>
</svg>
