<svg id="Layer_1" data-name="Layer 1" xmlns="http://www.w3.org/2000/svg" viewBox="0 0 40.54 60"><g id="logo-brand-black-mumayizv2"><path id="Combined-Shape" d="M13,57v1.84a.86.86,0,0,0,0,.23.4.4,0,0,0,.09.21.37.37,0,0,0,.18.14.73.73,0,0,0,.32.06.6.6,0,0,0,.49-.16.71.71,0,0,0,.13-.48V57h.66v1.84a1.14,1.14,0,0,1-.34.89,1.43,1.43,0,0,1-.94.29,1.41,1.41,0,0,1-.94-.29,1.12,1.12,0,0,1-.33-.89V57Zm28.63,0v.51L40,59.39h1.64v.54H39.13v-.51l1.61-1.89H39.26V57ZM36,57v3h-.65V57ZM6.76,57l.7,2h0l.66-2h.92v3H8.44V57.84h0L7.7,59.93H7.19l-.73-2.07h0v2.07H5.84V57Zm12.3,0,.7,2h0l.66-2h.92v3h-.61V57.84h0L20,59.93h-.51l-.73-2.07h0v2.07h-.61V57Zm7.06,0,1.12,3h-.68l-.23-.65H25.21l-.23.65h-.66l1.13-3Zm4.19,0L31,58.15,31.7,57h.73L31.32,58.8v1.13h-.65V58.78L29.57,57Zm-4.53.73h0l-.38,1.08h.77ZM42,53.83v.22H5v-.22ZM8.19,45.56v3.61a1.74,1.74,0,0,1-.34,1.23,1.85,1.85,0,0,1-1.27.33,2.15,2.15,0,0,1-1.3-.28,1.28,1.28,0,0,1-.35-1c0-.17,0-.33,0-.47v-.13h.58v.48a1.14,1.14,0,0,0,.18.79,1.49,1.49,0,0,0,.85.15,1.25,1.25,0,0,0,.86-.2,1.44,1.44,0,0,0,.18-.83V45.56Zm10.83,0,1.4,3.31.22.54.11.26.11.27h0l.11-.27.09-.23v0l.23-.53,1.4-3.32h1v5.12h-.59V46h0l-.05.12a.34.34,0,0,1,0,.1v0l-.1.24-1.8,4.23h-.59l-1.8-4.18-.1-.24-.05-.12,0-.12h0v4.66H18V45.56Zm16.83,0v.49H33.07v1.74h2.67v.49H33.07v1.91h2.78v.49H32.47V45.56Zm-5.93,0v.49H27.14v1.74h2.67v.49H27.14v1.91h2.78v.49H26.54V45.56Zm9.29,0v4.58h2.7v.54h-3.3V45.56Zm-25.73,0,2,5.12h-.62l-.41-1.09H11.76l-.41,1.09h-.63l1.93-5.12Zm-.4.48-1.15,3.12h2.32Zm26.7-13.46a2.73,2.73,0,0,1,1.74.38,2.43,2.43,0,0,1,.39,1.6v6.76A3,3,0,0,1,41.6,43a1.51,1.51,0,0,1-1.05.42h-.14l.08,0,.52.07.39,0,.27,0h.14l-.73,1.15a3.1,3.1,0,0,1-1.07-.4,4.75,4.75,0,0,1-1-.86A1.56,1.56,0,0,1,37.9,43a2.77,2.77,0,0,1-.29-1.5V34.73c0-.94.13-1.54.4-1.78A2.81,2.81,0,0,1,39.78,32.58Zm-26,.07,1.1,10.77H13.1L13,41.13h-.77l-.14,2.29H10.26l1.07-10.77Zm22.66,0V34.1l-1.56,7.81h1.56v1.51H33V41.91l1.57-7.81H33.2V32.65Zm-9.68,0a2.35,2.35,0,0,1,1.62.4,2.44,2.44,0,0,1,.4,1.62v1.57a3.2,3.2,0,0,1-.18,1.28,1.31,1.31,0,0,1-.66.58,1.22,1.22,0,0,1,.65.54,2.32,2.32,0,0,1,.19,1v3.82H27v-4a.56.56,0,0,0-.1-.38.42.42,0,0,0-.26-.11h-.23v4.47H24.51V32.65Zm-8.49,0a2.42,2.42,0,0,1,1.59.38,2,2,0,0,1,.42,1.37V36a2.38,2.38,0,0,1-.19,1.07,1.19,1.19,0,0,1-.63.55,1.26,1.26,0,0,1,.64.55,2.3,2.3,0,0,1,.18,1v2.13a2.58,2.58,0,0,1-.42,1.8,2.61,2.61,0,0,1-1.59.38H16V32.65Zm-11.07,0A2.46,2.46,0,0,1,8.82,33a1.91,1.91,0,0,1,.41,1.37V36a2.53,2.53,0,0,1-.19,1.07,1.23,1.23,0,0,1-.63.55,1.24,1.24,0,0,1,.63.55,2.3,2.3,0,0,1,.18,1v2.13A2.57,2.57,0,0,1,8.81,43a2.57,2.57,0,0,1-1.59.38H4.93V32.65Zm24.72,0V43.42H30.09V32.65ZM39.75,34a.25.25,0,0,0-.23.1.67.67,0,0,0-.06.27v7.21a.66.66,0,0,0,.07.35.25.25,0,0,0,.22.1.24.24,0,0,0,.23-.1.55.55,0,0,0,.07-.27v-7.2a.75.75,0,0,0-.07-.36A.28.28,0,0,0,39.75,34ZM18,38.41h-.16V42h.17a.41.41,0,0,0,.32-.11.52.52,0,0,0,.09-.29V38.87a.5.5,0,0,0-.1-.36A.42.42,0,0,0,18,38.41ZM7,38.41H6.79V42H7a.41.41,0,0,0,.32-.11.52.52,0,0,0,.09-.29V38.87a.56.56,0,0,0-.09-.36A.44.44,0,0,0,7,38.41Zm5.64-3.63h0l-.29,4.92h.62Zm13.9-.73h-.13v3.29h.16a.4.4,0,0,0,.34-.12.65.65,0,0,0,.09-.35V34.73a1.06,1.06,0,0,0-.09-.58A.5.5,0,0,0,26.5,34.05Zm-8.43,0h-.2v2.79H18a.39.39,0,0,0,.33-.11.42.42,0,0,0,.1-.28v-2a.51.51,0,0,0-.09-.35A.35.35,0,0,0,18.07,34.05ZM7,34.05H6.79v2.79H7a.4.4,0,0,0,.33-.11.49.49,0,0,0,.09-.28v-2a.58.58,0,0,0-.08-.35A.38.38,0,0,0,7,34.05Zm37.28-5.86a1.14,1.14,0,0,1,.46.09,1.36,1.36,0,0,1,.38.24,1.34,1.34,0,0,1,.25.37,1.11,1.11,0,0,1,0,.92,1.25,1.25,0,0,1-.25.38,1.36,1.36,0,0,1-.38.24,1.14,1.14,0,0,1-.46.09,1.13,1.13,0,0,1-.45-.09,1.23,1.23,0,0,1-.38-.24,1.12,1.12,0,0,1-.26-.38,1.22,1.22,0,0,1,0-.92,1.18,1.18,0,0,1,.26-.37,1.23,1.23,0,0,1,.38-.24A1.13,1.13,0,0,1,44.28,28.19ZM23.42,0C39.06,3,41.86,15,41.91,19.48v11H37.6v-12C37.6,4.65,23.42.17,23.42.17S9.52,4.56,9.24,18V30.5H4.93V19.62C4.93,15.22,7.62,3,23.42,0ZM44.28,28.36a1,1,0,0,0-.38.08,1,1,0,0,0-.31.21.85.85,0,0,0-.21.31,1.23,1.23,0,0,0-.07.39,1.34,1.34,0,0,0,.07.4,1,1,0,0,0,.52.52,1,1,0,0,0,.38.08,1,1,0,0,0,.39-.08.9.9,0,0,0,.3-.21,1,1,0,0,0,.21-.31,1.09,1.09,0,0,0,.07-.4,1,1,0,0,0-.07-.39.85.85,0,0,0-.21-.31.9.9,0,0,0-.3-.21A1,1,0,0,0,44.28,28.36Zm.08.31a.53.53,0,0,1,.36.1.34.34,0,0,1,.12.29.34.34,0,0,1-.11.27.4.4,0,0,1-.25.1l.39.6h-.23l-.37-.58H44V30h-.22V28.67Zm0,.17H44v.44h.36l.11,0a.19.19,0,0,0,.08-.07.23.23,0,0,0,0-.13.2.2,0,0,0,0-.11l-.07-.06-.1,0ZM21.8,7.25l0,0,1.6,3,1.61-3a.08.08,0,0,1,.14,0v0l.59,3.35,2.46-2.37a.09.09,0,0,1,.1,0,.07.07,0,0,1,0,.06v0l-.48,3.36L31,10.21a.08.08,0,0,1,.09,0,.09.09,0,0,1,0,.07v0l-1.51,3,3.4-.48a.07.07,0,0,1,.08,0,.09.09,0,0,1,0,.07v0l-2.4,2.44,3.39.58a.1.1,0,0,1,.07.07.14.14,0,0,1,0,.07l0,0-3,1.58,3,1.59a.09.09,0,0,1,.05.09s0,.05-.05.06h0l-3.39.58L33,22.55a.09.09,0,0,1,0,.1.07.07,0,0,1-.06,0h0l-3.4-.48,1.51,3.05a.08.08,0,0,1,0,.1.06.06,0,0,1-.07,0h0l-3.08-1.5.48,3.37a.08.08,0,0,1,0,.09.11.11,0,0,1-.08,0l0,0-2.46-2.37-.59,3.35s0,.06-.07.07h0l-.06,0v0l-1.61-3-1.6,3a.08.08,0,0,1-.09,0,.07.07,0,0,1-.06,0v0l-.59-3.35-2.46,2.37a.09.09,0,0,1-.1,0s0,0,0-.06v0L19,23.87l-3.09,1.5a.07.07,0,0,1-.09,0,.11.11,0,0,1,0-.07v0l1.52-3.05-3.4.48a.08.08,0,0,1-.09,0,.09.09,0,0,1,0-.07v0l2.4-2.43-3.39-.58a.12.12,0,0,1-.07-.07.08.08,0,0,1,0-.07l0,0,3-1.59-3-1.58a.12.12,0,0,1,0-.09.1.1,0,0,1,0-.06h0l3.39-.58L13.8,13a.07.07,0,0,1,0-.09s0,0,.06,0h0l3.4.48-1.52-3a.08.08,0,0,1,0-.09.09.09,0,0,1,.07,0h0L19,11.71l-.49-3.36a.08.08,0,0,1,0-.09h.1l2.46,2.37.59-3.35a.07.07,0,0,1,.07-.06A.06.06,0,0,1,21.8,7.25Zm1.62,4.44a6.11,6.11,0,1,0,6.17,6.1A6.13,6.13,0,0,0,23.42,11.69Z" transform="translate(-4.93 0)"/></g></svg>