<svg id="Layer_1" data-name="Layer 1" xmlns="http://www.w3.org/2000/svg" viewBox="0 0 134 60"><g id="logo-brand-black-jackson_coker" data-name="logo-brand-black-jackson coker"><path id="Combined-Shape" d="M26.61,0A90.43,90.43,0,0,1,40.27,1l1,.15,0,1a9.68,9.68,0,0,0,7.9,9.27l.9.16.07.91a118.1,118.1,0,0,1-5.2,44l-.18.58-.58.19A55.79,55.79,0,0,1,26.61,60,59.43,59.43,0,0,1,8.8,57.27l-.59-.18L8,56.5a118,118,0,0,1-5.23-44l.07-.91.9-.16a9.66,9.66,0,0,0,7.9-9.27l0-1,1-.14A98.22,98.22,0,0,1,26.61,0Zm0,1.18a97.34,97.34,0,0,0-13.76,1A10.85,10.85,0,0,1,4,12.58,116.7,116.7,0,0,0,9.16,56.15a58.37,58.37,0,0,0,17.46,2.67,54.31,54.31,0,0,0,17.2-2.7A116.94,116.94,0,0,0,49,12.58a10.87,10.87,0,0,1-8.88-10.4A88,88,0,0,0,26.62,1.18Zm0,2h1.29A91.14,91.14,0,0,1,38.24,4a12.67,12.67,0,0,0,8.83,10.21,51.28,51.28,0,0,1,.19,6.08,119.4,119.4,0,0,1-5.13,34.3,55,55,0,0,1-14.64,2.35H25.72a58.21,58.21,0,0,1-14.93-2.35,119.34,119.34,0,0,1-5.07-34.3c0-2.75.09-4.87.19-6.1A12.71,12.71,0,0,0,14.78,4,100.05,100.05,0,0,1,26.64,3.19ZM18.55,18.13l-8,5.51.31.21a9.69,9.69,0,0,0,5.73,3.72l.32.07.35.06a9,9,0,0,0,4.94-.54,10.11,10.11,0,0,0,1.78-.87l.73-.46.36-.25.12,8.25H25l-.38-.21-.26-.14-.55-.38a2.87,2.87,0,0,1-1.11-2.17v-.2H21.11v.12l0,.32c0,.21.06.42.1.63a4.48,4.48,0,0,0,1.59,2.36c.16.12.32.24.48.34l.26.16.5.26.3.14-.3.19-.17.12h-.17l-.23.18a5.66,5.66,0,0,0-1,1.09,2.61,2.61,0,0,0,0,3.17,4.13,4.13,0,0,0,1.65,1.42l.22.09.64.26-.2.11a3.71,3.71,0,0,0-1.2,1.1,2.11,2.11,0,0,0-.23,1.68,3.08,3.08,0,0,0,.84,1.32l.18.14.45.33.47.26h.14l-.21.15-.21.16h-.14l-.21.18a3.92,3.92,0,0,0-.55.6,2.38,2.38,0,0,0-.24,2.18,1.62,1.62,0,0,0,.37.63l.1.1-.1-.13a1.54,1.54,0,0,1-.23-.63,2.08,2.08,0,0,1,.45-1.82,4,4,0,0,1,1-.74l.23-.11L26,47l.19,3.88v.05a.21.21,0,0,0,.2.16.23.23,0,0,0,.21-.16v-.05l.21-3.57v-.4l.31.14.26.12.05-.12.31.19.21.14a3.23,3.23,0,0,1,.45.38,2,2,0,0,1,.45,1.82,1.34,1.34,0,0,1-.23.64l-.1.14.12-.15a2.36,2.36,0,0,0,.12-2.76,4,4,0,0,0-.26-.32l-.15-.15-.14-.15-.36-.3h-.14l-.45-.31.3-.13a6.06,6.06,0,0,0,1.08-.67,3.07,3.07,0,0,0,1-1.47,2.12,2.12,0,0,0-.24-1.68,3.42,3.42,0,0,0-1.19-1.11L28.06,41l.62-.26a4.15,4.15,0,0,0,1.88-1.53,2.65,2.65,0,0,0-.12-2.68c-.09-.12-.18-.25-.28-.36L30,36l-.14-.16-.31-.31-.19-.14L29,35.13,28.85,35l-.36-.21.32-.15A6.72,6.72,0,0,0,30,33.9a4.46,4.46,0,0,0,1.61-2.36,5.6,5.6,0,0,0,.13-.82l0-.27H30.2a2.8,2.8,0,0,1-1.12,2.36,6.25,6.25,0,0,1-1.38.83l-.3.12.45-8.13a10.33,10.33,0,0,0,3.49,1.75,9,9,0,0,0,4.39.3,10,10,0,0,0,6.54-3.78l.19-.26H42.3l-.21-.14.23.14-8-5.48L26.5,23.38h-.14Zm53.93,28-.3.45v0l-.79.66c-.65.56-.91.59-2.14.59H69l-8.21.08a7.68,7.68,0,0,0-1.66,0,3.52,3.52,0,0,0-1.09.37s-.35.29-.45.12.29-.47.37-.53h0l.78-.66a2.26,2.26,0,0,1,1.94-.59h8.57a9.2,9.2,0,0,0,1.66,0A3.36,3.36,0,0,0,72,46.22Zm11.31-13a19.59,19.59,0,0,1,2.17.12l.54.07.94.17.91.14a.32.32,0,0,1,.33.27h0v3c0,.21,0,.49-.29.49s-.26-.3-.26-.47a2.53,2.53,0,0,0-.71-1.65,5.55,5.55,0,0,0-3.72-1.14,4.73,4.73,0,0,0-3.47,1.14A6,6,0,0,0,78.55,40a6.2,6.2,0,0,0,5.79,6.55,4,4,0,0,0,3.27-1,3.12,3.12,0,0,0,.62-1.18c0-.26.21-.43.31-.43s.23,0,.23.36a17.54,17.54,0,0,1-.4,2.48.73.73,0,0,1-.52.59,11,11,0,0,1-3.37.43A9.34,9.34,0,0,1,78.31,46l-.26-.21-.21-.19a7.37,7.37,0,0,1,0-10.47A8.32,8.32,0,0,1,83.79,33.12ZM100,37.51a5.38,5.38,0,0,1,1.72,4.14,5.86,5.86,0,0,1-6.14,6.08,5.86,5.86,0,0,1-4.2-10.06,5.74,5.74,0,0,1,4.34-1.55A5.43,5.43,0,0,1,100,37.51ZM130.08,37a2.63,2.63,0,0,1,1,2.06,4.17,4.17,0,0,1-1.77,3.17l-.2.14.47.59c1.07,1.35,1.92,2.41,2.66,3.19a2.92,2.92,0,0,0,1.4.92l.21,0h.53c.11,0,.11,0,.11.19s-.35.21-.35.21h-1.33a3.16,3.16,0,0,1-1.61-.28,7.19,7.19,0,0,1-1.87-1.9l-.18-.28L128.42,44l-.69-1a.23.23,0,0,0-.16,0l-.06,0h-1.28v.46c0,1.26,0,2.47,0,2.87s.13.68.43.73h.81c.23,0,.23.19.23.19s-.08.19-.26.21h-4c-.24,0-.36,0-.36-.22s.24-.18.3-.19h.53c.22,0,.36-.12.38-.59V37.54c0-.43-.1-.73-.46-.77h-.68c-.1,0-.28,0-.28-.21s.26-.21.4-.21h3.11l1,0A4.74,4.74,0,0,1,130.08,37Zm-17-.52c0,.21-.28.21-.28.21a2.86,2.86,0,0,0-.81.22,4.62,4.62,0,0,0-1.37.89l-.2.19L107.35,41c.57.72,3.15,3.5,3.86,4.18l.08.07.21.23a6.66,6.66,0,0,0,1.76,1.24,2.36,2.36,0,0,0,.87.21h.62c.2,0,.33-.12.35-.59V37.45c0-.44-.11-.73-.47-.78H114c-.09,0-.33,0-.33-.22s.2-.21.34-.21h6.34a.25.25,0,0,1,0,.09v2c0,.22,0,.22-.21.22s-.21-.22-.22-.27v-.51c-.09-.2-.19-.44-.78-.47h-2.23V41h2.37a1.08,1.08,0,0,0,.59-.14l.1-.08.26-.19a.16.16,0,0,1,.13.06.25.25,0,0,1,0,.09v2.13c0,.12,0,.3-.22.3a.17.17,0,0,1-.15,0,.22.22,0,0,1,0-.08v-.58a.63.63,0,0,0-.63-.51h-2.22V45.3c0,.94.19,1.15,1.69,1.15a3.66,3.66,0,0,0,1.35-.16,1,1,0,0,0,.62-1c0-.14,0-.29.23-.29s.19.19.19.34a10.06,10.06,0,0,1-.19,1.63c-.11.39-.28.42-.73.42H111.6a2.88,2.88,0,0,1-1.85-1c-.62-.54-3.34-3.71-3.81-4.31l0-.06v4.18c0,.41.16.68.4.73h.79c.26,0,.26.11.26.19s0,.18-.26.2H103c-.24,0-.35,0-.35-.21s.23-.19.29-.19h.54c.21,0,.35-.13.37-.6V37.42c0-.43-.09-.73-.47-.77h-.1l-.55.1c-.07,0-.31,0-.31-.22s.2-.2.35-.21h3.9c.12,0,.38.12.38.21s0,.19-.21.21h-.48c-.32.06-.47.22-.49.64v3.73L107,39.93l1.89-2,.13-.14c.31-.35.54-.64.54-.83s0-.19-.11-.2h0c-.1,0-.24,0-.24-.21s.31-.21.31-.21h2.37l.9-.12C113.09,36.22,113.09,36.22,113.09,36.43ZM95.32,37c-1.3,0-3.43.56-3.53,4.25v.43c.09,3,1.79,5.09,4.2,5.26h.21c1,0,3.34-.52,3.34-4.73a5.84,5.84,0,0,0-1.23-3.83A3.9,3.9,0,0,0,95.32,37ZM27,41.87l.78.33c2.11,1,.71,2.36.48,2.53a5.84,5.84,0,0,1-1,.75l-.29.15ZM25.74,42l.17,3.17h-.19L25.43,45h-.14l-.36-.31a1.32,1.32,0,0,1,.28-2.41l.17-.09Zm39-8.75H65a5.12,5.12,0,0,1,1.78.3A.38.38,0,0,1,67,34a16.66,16.66,0,0,1-.17,1.87c0,.19-.07.31-.23.31s-.17-.17-.17-.36a1.81,1.81,0,0,0-.4-1.18A2,2,0,0,0,64.48,34a1.5,1.5,0,0,0-1.09.47,1.52,1.52,0,0,0-.41,1v.16l0,.26a5.54,5.54,0,0,0,1.75,2.94L65,39l.5.49c.45.52,2,1.92,2.49,2.37a4.24,4.24,0,0,0,.64-2.13.75.75,0,0,0-.26-.61,1.05,1.05,0,0,0-.66-.22c-.24,0-.24-.12-.24-.19s0-.18.21-.2h1.85c.57.05.57.21.57.36a5.8,5.8,0,0,1-1.49,3.45,15.75,15.75,0,0,0,2,1.37,4.05,4.05,0,0,0,1.52.49c.09,0,.28,0,.28.19s-.19.21-.41.22h-1.2a4.41,4.41,0,0,1-3.44-1.12,4.74,4.74,0,0,1-3.47,1.31c-3.25,0-4.12-2.06-4.12-3.29A4.3,4.3,0,0,1,62.11,38a3.26,3.26,0,0,1-.71-1.81v-.41a2.38,2.38,0,0,1,.73-1.51,3.86,3.86,0,0,1,2.38-1Zm-2.15,5.44a2.52,2.52,0,0,0-.92,2.11,2.72,2.72,0,0,0,2.63,2.81,3.75,3.75,0,0,0,2.37-.8,31.75,31.75,0,0,1-2.56-2.37C63.77,40.12,62.89,39.13,62.58,38.72Zm64.48-1.53h-.76V42a3.89,3.89,0,0,0,1.12.16,1.37,1.37,0,0,0,1-.24,2.38,2.38,0,0,0,.83-2.12A2.27,2.27,0,0,0,127.06,37.19ZM27.4,36.38h.78l.19.12h.19l.19.14.33.36.19.19.27.33a1.31,1.31,0,0,1,.14,1.32,2.87,2.87,0,0,1-1.09.93l-.19.09-.86.35h-.31l.17-3.43Zm-2-.49v1l.19,2.93-.83-.36a3,3,0,0,1-1.28-1,1.32,1.32,0,0,1,.14-1.3A4.15,4.15,0,0,1,25,36l.24-.11Zm37.13-23.1c0,.21-.14.21-.4.21a3.75,3.75,0,0,0-.67,0c-.61,0-.78.5-.83,1.28s0,1.27,0,4.12v7.94a12.17,12.17,0,0,1-.54,4,8.57,8.57,0,0,1-3.85,4.25,9.32,9.32,0,0,1-1.13.59,1.09,1.09,0,0,1-.46.15.19.19,0,0,1-.18-.19s0-.22.49-.41A4.27,4.27,0,0,0,56,33.85c1.71-1.72,1.69-4,1.69-8.39L57.77,19V14.28c0-.69-.29-1.28-1-1.28a6.46,6.46,0,0,0-.88,0c-.24,0-.38,0-.38-.21s.13-.21.39-.21H62C62.35,12.58,62.51,12.58,62.51,12.79Zm61.73,3.71c.21,0,.33.21.62.52s2.8,2.91,5.29,5.44c1.1,1.09,3.27,3.4,3.68,3.81l0,0-.16-7.56c0-1-.17-1.35-.57-1.52a3.39,3.39,0,0,0-.9,0c-.22,0-.27,0-.27-.14s.15-.14.36-.14h3.8c.21,0,.38,0,.38.14s0,.14-.31.14a2.09,2.09,0,0,0-.5,0c-.48.15-.62.5-.62,1.45l-.19,10.63c0,.38,0,.52-.21.52s-.33-.28-.52-.52c-1.07-1-3.23-3.21-5-5s-3.59-3.77-4-4.21l0-.05.14,7.1c0,1.32.26,1.75.59,1.86a2.64,2.64,0,0,0,.88.12c.19,0,.29,0,.29.14s-.15.17-.38.17h-3.92c-.21,0-.38,0-.38-.17s0-.14.26-.14a3.22,3.22,0,0,0,.76,0c.45-.14.5-.61.52-2.1l.15-10C124,16.74,124,16.5,124.24,16.5Zm-43.06-.14a15.56,15.56,0,0,1,2.37.17,13.52,13.52,0,0,1,1.69.28c.5.05.26,0,.26.21v2.74c0,.33,0,.38-.21.38s-.17-.14-.17-.38a2.38,2.38,0,0,0-.78-1.39,5,5,0,0,0-3.44-1,4.42,4.42,0,0,0-3.18,1,5.64,5.64,0,0,0-1.57,4.37,5.68,5.68,0,0,0,5.34,6,3.69,3.69,0,0,0,3.11-.95,2.86,2.86,0,0,0,.57-1.11c0-.26,0-.33.21-.33s.14.12.14.26a15.55,15.55,0,0,1-.38,2.25.57.57,0,0,1-.45.49,9.56,9.56,0,0,1-3.06.38,8.44,8.44,0,0,1-5.69-1.87,6.35,6.35,0,0,1-2.09-5,6.33,6.33,0,0,1,2-4.72A7.41,7.41,0,0,1,81.18,16.36Zm38.87,1.71a6.11,6.11,0,0,1,2,4.72,6.63,6.63,0,0,1-2,5,6.72,6.72,0,0,1-5.11,1.89,6.46,6.46,0,0,1-6.69-6.62,6.53,6.53,0,0,1,7-6.62A6.18,6.18,0,0,1,120.05,18.07Zm-16-1.59a8.24,8.24,0,0,1,2.26.28c.14,0,.24,0,.24.21v2c0,.38,0,.49-.19.49s-.17,0-.17-.3a2,2,0,0,0-.45-1.11,2.14,2.14,0,0,0-1.85-.83,1.78,1.78,0,0,0-2,1.75c0,.78.38,1.37,1.8,2.36l.48.36c2,1.53,2.77,2.69,2.77,4.3A3.4,3.4,0,0,1,105.29,29a5,5,0,0,1-2.71.69,6,6,0,0,1-2.47-.38c-.26,0-.33-.22-.33-.57V26.5c0-.26,0-.45.21-.45s.17.14.17.29a3.59,3.59,0,0,0,.14.85,2.39,2.39,0,0,0,2.38,1.7A2.07,2.07,0,0,0,105.05,27c0-.82-.26-1.6-1.66-2.69l-.79-.62a5,5,0,0,1-2.51-4C100.09,17.8,101.66,16.48,104,16.48Zm-12.55.45c0,.12,0,.14-.15.14h-.56c-.45,0-.59.38-.61,1s0,1,0,3.57l-.1.85c.57-.62,3-3.15,3.54-3.71s.85-1,.85-1.28,0-.31-.24-.33S94,17.14,94,17s0-.14.26-.14H98c.17,0,.29,0,.29.14s0,.15-.26.15a2.93,2.93,0,0,0-1,.19,5.2,5.2,0,0,0-1.83,1.27c-.52.5-3.09,3-3.65,3.64.61.81,3.93,4.35,4.57,5A8,8,0,0,0,98.48,29a2.9,2.9,0,0,0,1,.26c.12,0,.21,0,.21.14s0,.16-.29.17h-2.6a3.37,3.37,0,0,1-2.09-1.09c-.73-.66-4.08-4.56-4.43-5l-.19-.26v5c0,.74.19.85.61.93h.83c.15,0,.22,0,.22.14s-.19.28-.34.28H87c-.22,0-.34,0-.34-.16s0-.15.27-.15a2.08,2.08,0,0,0,.61,0c.33,0,.43-.45.5-.92s0-1.86,0-3.33V18c0-.55-.17-.85-.73-1a3.75,3.75,0,0,0-.67,0c-.19,0-.28,0-.28-.14s0-.14.27-.14H91.1C91.34,16.79,91.45,16.79,91.45,16.93ZM68.2,16.34c.17,0,.27.14.43.54.41.92,3.11,7.8,4.2,10.38.64,1.51,1.14,1.75,1.5,1.84a4.21,4.21,0,0,0,.71,0c.14,0,.21,0,.21.14s-.12.16-.64.17H71.19c-.3,0-.49,0-.49-.14s0-.14.23-.14a.29.29,0,0,0,.15-.16.28.28,0,0,0,0-.22l-1.36-3.57a.16.16,0,0,0-.16-.12l-3.77,0-.15.14-.92,2.37a3.19,3.19,0,0,0-.26,1c0,.3.14.52.68.52h.22c.21,0,.26,0,.26.14s0,.16-.29.16H61.54c-.21,0-.33,0-.33-.16s0-.14.21-.14h.52c.78,0,1.09-.69,1.45-1.52L67.73,17C67.94,16.53,68,16.34,68.2,16.34Zm46.5,1c-1.89,0-4.27,1.06-4.27,5.27,0,3.5,1.95,6.29,5.2,6.29,1.3,0,4-.57,4-5.44C119.66,19.65,117.48,17.31,114.7,17.31ZM67.73,20l-1.68,4.16v.12h3.2ZM23.25,15.51A3.34,3.34,0,0,0,23,16.83a3.4,3.4,0,1,0,.26-1.32Z" transform="translate(-2.51 0)"/></g></svg>