<svg id="Layer_1" data-name="Layer 1" xmlns="http://www.w3.org/2000/svg" viewBox="0 0 237.49 60"><g id="logo-brand-black-kotak"><path id="Combined-Shape" d="M40.22,0C59,0,74.3,13.43,74.3,30S59,60,40.22,60,6.12,46.57,6.12,30,21.39,0,40.22,0ZM94.45,44.21c2.93,0,4.23,2.28,4.23,4.75s-1.3,4.75-4.23,4.75S90.21,51.43,90.21,49,91.51,44.21,94.45,44.21Zm54.16,0c2.15,0,3.1.94,3.18,3.1v4.28a14.85,14.85,0,0,0,.05,1.54l0,.37h-1.1V52h0a3.19,3.19,0,0,1-2.88,1.67c-2.58,0-3-1.74-3-2.56,0-2.95,3-3.17,5.36-3.18h.43V47.5c0-1.54-.55-2.33-2.06-2.33a4.75,4.75,0,0,0-2.38.59l-.28.16V44.84A6.83,6.83,0,0,1,148.61,44.21Zm48.41,0c2.14,0,3.1.94,3.17,3.1v4.28a14.85,14.85,0,0,0,.05,1.54l0,.37h-1.09V52h0a3.2,3.2,0,0,1-2.88,1.67c-2.58,0-3-1.74-3-2.56,0-2.95,3-3.17,5.37-3.18h.42V47.5c0-1.54-.55-2.33-2-2.33a4.79,4.79,0,0,0-2.39.59l-.28.16V44.84A6.88,6.88,0,0,1,197,44.21Zm-94.3-2.36v2.58h2.06v1h-2.06v5.88c0,.81.31,1.49,1.21,1.49a2.33,2.33,0,0,0,.84-.15l.19-.07.08.93a4.1,4.1,0,0,1-1.38.25c-1.91,0-2-1.27-2.06-2.82V45.38H99.82v-1h1.78V42.24Zm118,2.36c2.15,0,3.11.94,3.18,3.1v4.28a14.85,14.85,0,0,0,.05,1.54l0,.37h-1.1V52h0A3.2,3.2,0,0,1,220,53.71c-2.59,0-3-1.74-3-2.56,0-2.95,3.05-3.17,5.37-3.18h.43V47.5c0-1.54-.56-2.33-2.07-2.33a4.77,4.77,0,0,0-2.38.59l-.29.16V44.84A7,7,0,0,1,220.73,44.21Zm-35.37-4.05V53.5h-1.12V52.06h0a2.94,2.94,0,0,1-2.84,1.65c-2.49,0-3.73-2.06-3.73-4.75s1.06-4.75,3.73-4.75a3.08,3.08,0,0,1,2.8,1.67l0,.08h0v-5.8Zm-75.11,4.05c2.15,0,3.1.94,3.18,3.1v4.28a14.85,14.85,0,0,0,0,1.54l0,.37h-1.11V52h0a3.19,3.19,0,0,1-2.88,1.67c-2.58,0-3-1.74-3-2.56,0-2.95,3-3.17,5.36-3.18h.43V47.5c0-1.54-.55-2.33-2.06-2.33a4.79,4.79,0,0,0-2.39.59l-.28.16V44.84A6.92,6.92,0,0,1,110.25,44.21Zm45.33-4.05V46h0a3.07,3.07,0,0,1,2.82-1.75c2.34,0,3.05,1.5,3.1,3.61V53.5h-1.13V48.1c0-1.57-.29-2.93-2.14-2.93s-2.63,1.74-2.69,3.27V53.5h-1.12V40.16Zm-38.28,0v8l4-3.71h1.45l-4.43,4,5,5.06h-1.55l-4.48-4.66V53.5h-1.12V40.16Zm55,4.05c2.15,0,3,1.38,3.09,3.25v6h-1.12V48c0-1.71-.6-2.81-2.14-2.81-2,0-2.63,1.66-2.68,3.12V53.5h-1.13V46c0-.35,0-.71,0-1.07l0-.54h1.09V46h0A2.9,2.9,0,0,1,172.27,44.21Zm38.51-3.12c2,0,3.92.67,3.92,3a2.53,2.53,0,0,1-2,2.77l-.26.06v0a2.91,2.91,0,0,1,2.63,3c0,2.61-2.05,3.49-4.51,3.55h-2.74V41.09Zm26.81-.93v8l4.06-3.71h1.44l-4.43,4,5,5.06h-1.54l-4.48-4.66V53.5h-1.12V40.16Zm-7,4.05c2.15,0,3,1.38,3.08,3.25v6h-1.12V48c0-1.71-.6-2.81-2.15-2.81-2,0-2.63,1.66-2.68,3.12V53.5h-1.13V46c0-.35,0-.71,0-1.07l0-.54h1.09V46h0A2.9,2.9,0,0,1,230.57,44.21ZM81.88,41.09v5.56l5.59-5.56h1.6l-6,5.84,6.53,6.57h-1.7l-6-6.21V53.5H80.66V41.09Zm83.59,3.34V53.5h-1.12V44.43Zm26-.22a3.21,3.21,0,0,1,.65.08l.13,0V45.5a2.6,2.6,0,0,0-.81-.12c-1.71,0-2.22,1.83-2.26,3.42v4.7h-1.12V46.14c0-.65,0-1-.05-1.47l0-.24h1.12v1.74h0A2.67,2.67,0,0,1,191.47,44.21Zm-59.68-3.12L136.33,52l4.54-10.91h1.77V53.5h-1.23V42.31h0L136.86,53.5h-1.05l-4.66-11.19h0V53.5h-1.24V41.09ZM94.45,45.17c-2,0-3,1.7-3,3.79s1,3.79,3,3.79,3-1.69,3-3.79S96.4,45.17,94.45,45.17Zm104.62,3.75h-.53c-1.89,0-4,.27-4,2.19,0,1.2.85,1.64,1.88,1.64,2.54,0,2.68-2.13,2.68-3.16Zm-17.52-3.75c-2.13,0-2.68,2-2.68,3.79s.55,3.79,2.68,3.79,2.69-2.13,2.69-3.79S183.55,45.17,181.55,45.17Zm-69.24,3.75h-.54c-1.89,0-4,.27-4,2.19,0,1.2.85,1.64,1.88,1.64,2.54,0,2.68-2.13,2.69-3.16Zm38.36,0h-.54c-1.88,0-4,.27-4,2.19,0,1.2.85,1.64,1.88,1.64,2.54,0,2.67-2.13,2.68-3.16Zm72.13,0h-.54c-1.89,0-4,.27-4,2.19,0,1.2.86,1.64,1.89,1.64,2.54,0,2.68-2.13,2.69-3.16Zm-13.75-1.35v4.85h1.28c1.65,0,3.52-.44,3.52-2.41s-1.63-2.39-3.31-2.44h-1.49ZM44.65,5.71,36.16,8.34l0,43.05,8.57-2.69V38.88c2.35,3.31,5.6,5.9,9.68,5.89,7.39,0,10.85-6,11.68-12l0-.34H62.75c-1.55,3-5.32,4.6-9.47,4.53-3,0-5.51-1.28-8.11-2.6l-.49-.24ZM210.78,42.15h-1.69v4.36h1.37c1.3,0,3-.34,3-2.31C213.48,42.4,211.82,42.15,210.78,42.15ZM26.72,14c-8.61,0-11.88,8.12-11.88,15,0,7.15,4.19,15.69,13,15.69a12,12,0,0,0,8-3l.31-.26V27.92C33.42,31.64,30.13,36,25,36c-3.65,0-7.33-2.51-7.38-6.23C17.5,24.38,22.31,22,27.76,22.1a19.93,19.93,0,0,1,8.07,2.22l.29.17V18.64C34,16.25,30.41,14,26.72,14ZM165.47,40.52V42h-1.12V40.52ZM150.38,12.63c5.14,0,9.59,2.16,9.77,8.13v8a27.6,27.6,0,0,0,.27,4.16l.12.7H154c0-.83-.1-1.64-.13-2.44l0-.8h-.07a7.07,7.07,0,0,1-6.51,3.71c-4.06,0-7.69-2-7.69-6.47,0-6.27,6.82-7,10.6-7a20.35,20.35,0,0,1,3.31.28c0-2.8-2.12-3.55-4.68-3.55a13.73,13.73,0,0,0-6.12,1.31l-.43.23-.12-4.81A21.33,21.33,0,0,1,150.38,12.63Zm-39,.15c6.71,0,11.81,3.9,11.81,10.63S118.12,34,111.41,34s-11.8-3.89-11.8-10.6S104.72,12.78,111.41,12.78ZM133.6,6.23v7h4.9v4.91h-4.9v7.48c0,2.45.58,3.7,2.8,3.7a10.08,10.08,0,0,0,1.72-.2l.43-.08.23,4.56a33,33,0,0,1-4.4.39c-6.14,0-7.73-2.64-7.79-7.28V18.16h-4V13.25h4.14V8.7Zm36.45,0V21.78h.07L176,13.25h7.68l-7.05,9.32,7.63,11h-8.49l-5.62-10h-.07v10h-7V8.69ZM88,6.26V21.78H88l5.84-8.53h7.67l-7,9.32,7.63,11H93.64L88,23.5H88v10H81v-25ZM53.22,14.11A12.53,12.53,0,0,0,45,17.06l-.33.27v13.9C47.45,27.46,50.8,23,56.12,23a8,8,0,0,1,6.26,2.93l.19.26h3.32C64.72,20,60.58,14.11,53.22,14.11Zm97.32,10.31c-2.41,0-4.3.75-4.3,2.72,0,1.42,1.26,2.25,2.91,2.25,2.69,0,4.38-2.45,4.38-4.86C152.63,24.5,151.61,24.42,150.54,24.42Zm-39.13-6.73c-3.22,0-4.55,2.7-4.55,5.72s1.33,5.7,4.55,5.7,4.57-2.69,4.57-5.7S114.65,17.69,111.41,17.69ZM188.14,6.25a3.63,3.63,0,1,1-3.63,3.63A3.64,3.64,0,0,1,188.14,6.25Zm0,.83A2.81,2.81,0,1,0,191,9.88,2.8,2.8,0,0,0,188.14,7.08Zm1.24,2a.77.77,0,0,1-.56.76l-.14,0h0a.42.42,0,0,1,.32.26l0,.1.55,1.33h-.76l-.42-1.07c-.08-.21-.16-.32-.36-.34h-.33V11.6H187V8.18h.87C188.61,8.18,189.38,8.22,189.38,9.11Zm-1.66-.39v.92h.22c.34,0,.73-.05.73-.47s-.31-.44-.62-.45Z" transform="translate(-6.12)"/></g></svg>