<svg id="Layer_1" data-name="Layer 1" xmlns="http://www.w3.org/2000/svg" viewBox="0 0 130.8 59.94"><g id="logo-brand-black-lifetechnologies"><path id="Combined-Shape" d="M25.3,1.34c1.17-1.26,3-1.74,4-.87A6.21,6.21,0,0,1,30.4,3.2a7,7,0,0,0,.47,2.13,6.51,6.51,0,0,1-.27,3.25,40.85,40.85,0,0,1-1.84,4.83,69,69,0,0,1-3.48,7.52c-.78,1.44-2.52,3.95-3.54,5.65-.54.9-1.48,2.25-2.39,3.44.36,4,2.12,5.77,2.91,6,1.36.33,3.26-.46,5.17-2.14s7.44-8,8.06-8.88,2.32-1.23,2.78-.8.65.29,1,1.16-.56,2.82-.6,3.26a36.32,36.32,0,0,0-1,3.95c0,1-.55,3.78.64,4.32,1.41.65,5.11-2.55,7.69-5a15.78,15.78,0,0,0-1.67.07l-.42,0c-.88,0-1-1.17-1-1.8-.1-1.49.47-1.43.95-1.61a6.28,6.28,0,0,1,1.88.27l.95.19c.3-1.55.76-3.71,1.36-6.16a105.49,105.49,0,0,1,3-10.14,50.74,50.74,0,0,1,2.16-5.18c1.43-2.91,2.83-5.06,4-5.94A2.22,2.22,0,0,1,58.54.88c.26,0,.51.06.75.09a3,3,0,0,1,1.61.92,2.26,2.26,0,0,1,.44.53,2.56,2.56,0,0,1,.38.92.91.91,0,0,0,.49.71c.37.21.83.24.92,1.16.15,1.43.06,2.17-.74,4.78a35.25,35.25,0,0,1-2.74,6c-.5.91-1,1.79-1.48,2.6-.61,1-.77,1.55-1.2,2.32-.28.51-1,1.45-1.33,2s-.85,1.28-1.32,1.93c-1.13,1.57-2.39,3.12-3.57,4.48,0,.12,0,.23-.07.34l1.49.22c1.49.19,3.54.37,5.24.45a22.3,22.3,0,0,1,5.91-7.2c1.43-1.27,4.64-2.49,5.74-2s2.7,1.26,2.8,2.7c0,.59.49,1,.5,1.56a3.31,3.31,0,0,1-.81,2.44A14.73,14.73,0,0,1,68,30.27c-1,.52-1.71.57-3.11,1.12-.43.17-2.54.5-3.15.67a7.07,7.07,0,0,1-1.54.21c-.36,1.71-.13,3.83.72,4.48a5.2,5.2,0,0,0,4.4.84,16.84,16.84,0,0,0,4.46-2c.3-.14,1.18-.37,1,.69a10.56,10.56,0,0,1-1.11,2.1,4.22,4.22,0,0,1-2.07,2.21,15.28,15.28,0,0,1-2,.89,12,12,0,0,1-3,.4,6.82,6.82,0,0,1-4.88-2.12c-1.42-1.47-2.19-4.23-1.17-7.48a23.16,23.16,0,0,0-2.93,0,18.54,18.54,0,0,1-3.52-.15l-.09.47C49.45,36,49.14,40,49,41.12c-.33,2.15-.56,5.68-.7,8.88,0,.89,0,1.72-.06,2.47,0,1.13,0,2.39.09,3.16.08,1.15.25,2.21.31,3.21.06,1.29-2.09,1.43-2.65.67l-.07-.09c-.27-.3-.93-.78-1-1.2A5.69,5.69,0,0,0,43.8,56.7,5,5,0,0,1,42.68,54a26.85,26.85,0,0,1,.2-3.45c.19-4.11,1.47-10.5,2.53-15.59a32.16,32.16,0,0,1-4.47,4.23,12.29,12.29,0,0,1-3.88,1.87,3.55,3.55,0,0,1-3.89-1.45,7.8,7.8,0,0,1-.55-3.69c.17-1,.08-1.2.23-2s-.26-1-.9-.16a24.4,24.4,0,0,1-3.61,3.69c-1,.75-5,5-9.14,3.54-2.31-.81-3.53-3.28-4-6.34C14,36,12.76,37.6,12.4,37.94c-.61.6-4,3.84-4.84,4.37s-.16.41-1.33.81a2.41,2.41,0,0,1-2-.39c-.43-.5.47-1.38.85-1.72,1-.87,4.25-3.87,4.87-4.49A59.38,59.38,0,0,0,15,31c0-.61,0-1.24.07-1.87a44.72,44.72,0,0,1,.91-6.95A87.88,87.88,0,0,1,20.05,9.61c.57-1.22,1.83-3.57,2-4A20.11,20.11,0,0,1,25.3,1.34ZM108.82,48.7a2.05,2.05,0,0,1,1.83.85v-.77h.95v6.71a2.59,2.59,0,0,1-2.72,2.79,2.9,2.9,0,0,1-2.22-.87l.63-.61a2,2,0,0,0,1.56.65c1.26,0,1.79-.89,1.79-2v-1a2.1,2.1,0,0,1-1.83.85,2.27,2.27,0,0,1-1.58-.58,3.75,3.75,0,0,1-.79-2.72,3.72,3.72,0,0,1,.79-2.71A2.24,2.24,0,0,1,108.82,48.7Zm-6.88,0a2.58,2.58,0,0,1,1.87.74,3.5,3.5,0,0,1,.8,2.59,3.52,3.52,0,0,1-.8,2.6,2.73,2.73,0,0,1-3.74,0,3.52,3.52,0,0,1-.8-2.6,3.5,3.5,0,0,1,.8-2.59A2.56,2.56,0,0,1,101.94,48.7Zm-11,0a2.56,2.56,0,0,1,1.87.74,3.5,3.5,0,0,1,.8,2.59,3.52,3.52,0,0,1-.8,2.6,2.73,2.73,0,0,1-3.74,0,3.52,3.52,0,0,1-.79-2.6,3.49,3.49,0,0,1,.79-2.59A2.58,2.58,0,0,1,91,48.7Zm-29,0c1.69,0,2.68,1.22,2.68,3.15v.44h-4.4c0,1.43.67,2.25,1.92,2.25a2.15,2.15,0,0,0,1.71-.74l.65.56a3,3,0,0,1-2.39,1c-1.72,0-2.85-1-2.85-3.33C59.32,49.93,60.34,48.7,62,48.7Zm64.83,0a3.67,3.67,0,0,1,2.35.7l-.62.62a2.78,2.78,0,0,0-1.74-.51c-.95,0-1.46.41-1.46,1.07s.32.89,1.14,1l1,.09c1.14.11,1.92.55,1.92,1.77s-1.07,2-2.65,2a3.6,3.6,0,0,1-2.68-.94l.64-.64a2.65,2.65,0,0,0,2,.76c1.07,0,1.73-.38,1.73-1.15,0-.57-.33-.89-1.08-.95l-1.08-.1c-1.27-.1-1.95-.67-1.95-1.74S125.44,48.7,126.83,48.7Zm-57.45,0a2.58,2.58,0,0,1,2.14,1l-.64.61a1.8,1.8,0,0,0-1.5-.72,1.75,1.75,0,0,0-1.51.74,3.76,3.76,0,0,0,0,3.49,1.75,1.75,0,0,0,1.51.74,1.82,1.82,0,0,0,1.5-.74l.64.62a2.56,2.56,0,0,1-2.14,1c-1.65,0-2.89-1.11-2.89-3.34S67.73,48.7,69.38,48.7Zm50.54,0c1.69,0,2.68,1.22,2.68,3.15v.44h-4.4c0,1.43.68,2.25,1.92,2.25a2.15,2.15,0,0,0,1.71-.74l.66.56a3,3,0,0,1-2.39,1c-1.73,0-2.85-1-2.85-3.33C117.25,49.93,118.27,48.7,119.92,48.7ZM56.37,46.78v2h1.39v.73H56.37v4c0,.59.28.95.88.95h.51v.82h-.68a1.6,1.6,0,0,1-1.67-1.75v-4h-.82v-.73h.82v-2ZM83.85,48.7a2.28,2.28,0,0,1,1.67.61,2.42,2.42,0,0,1,.68,1.81v4.17h-1v-4a1.61,1.61,0,1,0-3.22,0v4h-1V48.78h1v.71A2.34,2.34,0,0,1,83.85,48.7Zm12.89-2.83v7.65c0,.63.21.95.88.95h.51v.82h-.69a1.55,1.55,0,0,1-1.66-1.73V45.87Zm-22.31,0v3.62a2.34,2.34,0,0,1,1.83-.79,2.21,2.21,0,0,1,2.35,2.41v4.18h-1v-4a1.5,1.5,0,0,0-1.59-1.72,1.53,1.53,0,0,0-1.63,1.72v4h-1V45.87Zm40.75,2.91v6.51h-1.06V48.78Zm-13.24.77a1.64,1.64,0,0,0-1.18.47,2.84,2.84,0,0,0-.53,2,2.85,2.85,0,0,0,.53,2,1.64,1.64,0,0,0,1.18.47,1.68,1.68,0,0,0,1.19-.47,2.84,2.84,0,0,0,.52-2,2.83,2.83,0,0,0-.52-2A1.68,1.68,0,0,0,101.94,49.55Zm-11,0a1.65,1.65,0,0,0-1.18.47,2.84,2.84,0,0,0-.53,2,2.85,2.85,0,0,0,.53,2,1.65,1.65,0,0,0,1.18.47,1.68,1.68,0,0,0,1.19-.47,2.84,2.84,0,0,0,.52-2,2.83,2.83,0,0,0-.52-2A1.68,1.68,0,0,0,91,49.55Zm18,0c-1.42,0-1.63,1.21-1.63,2.43s.21,2.44,1.63,2.44,1.62-1.22,1.62-2.44S110.44,49.55,109,49.55Zm-47,0a1.61,1.61,0,0,0-1.52,1,2.51,2.51,0,0,0-.2,1.08h3.45a2.85,2.85,0,0,0-.2-1.08A1.63,1.63,0,0,0,62,49.51Zm57.92,0a1.62,1.62,0,0,0-1.52,1,2.67,2.67,0,0,0-.2,1.08h3.45a2.67,2.67,0,0,0-.2-1.08A1.62,1.62,0,0,0,119.92,49.51Zm13-3.23.85,1.85.83-1.85h.28v2.61h-.28v-2l-.72,1.57h-.24L133,46.91v2h-.28V46.28Zm-.77,0v.25h-.75v2.36h-.28V46.53h-.76v-.25Zm-16.92-.43v1.07h-1.2V45.85Zm-47-19.35c.43-.89-1-1.26-1.46-1.19a11.17,11.17,0,0,0-2.75,1.4,11.42,11.42,0,0,0-3,3.47,24.17,24.17,0,0,0,4.77-1.45C68,27.71,68,27.11,68.29,26.5ZM59.75,7.92c0-.82-.44-1-1-.88-.36,0-1,1-1.67,2.48a79.31,79.31,0,0,0-5,14.17l-.33,1.37c.84-1.27,1.62-2.57,2.29-3.75.9-1.59,1.6-2.93,1.94-3.65s1-1.95,1.55-3.1a30.13,30.13,0,0,0,1.85-4.37A8.54,8.54,0,0,0,59.75,7.92Zm-33.27,0C25,7.55,20.74,17.27,19.57,25A37.28,37.28,0,0,0,22,21.28a49,49,0,0,0,3.21-7.16C26.53,10.92,27.34,8.14,26.48,7.93ZM43.2,13.7c1.73,0,1.09,2.16.9,2.75a7.08,7.08,0,0,1-2.74,3c-.68.34-2.43,1.56-3.64,1.05s.1-3.18.53-3.9C39.37,14.67,42.33,13.71,43.2,13.7Z" transform="translate(-4.11 -0.03)"/></g></svg>