<svg id="Layer_1" data-name="Layer 1" xmlns="http://www.w3.org/2000/svg" viewBox="0 0 213.43 60"><g id="logo-brand-black-macys"><path id="Combined-Shape" d="M174,18.89,183.61,43l10.21-24.14h4.12l-1.07,2.63L180.28,60h-4.1l5.31-12.1L176.4,35.08,171,21.52v0l-1-2.61Zm33.8,0a8.44,8.44,0,0,1,5.93,2.23A7.9,7.9,0,0,1,216,26.46v.43l0,1.31h-3.68l0-1.27A5.47,5.47,0,0,0,212,25a3.74,3.74,0,0,0-.87-1.36,3.92,3.92,0,0,0-1.43-.88,4.94,4.94,0,0,0-1.91-.3,5.9,5.9,0,0,0-2.16.38,4.31,4.31,0,0,0-1.58,1,4.09,4.09,0,0,0-.85,1.38A4.56,4.56,0,0,0,203,27a3.69,3.69,0,0,0,1.21,2.83,9.58,9.58,0,0,0,3.49,1.6l.41.11.21.06a15.32,15.32,0,0,1,5.46,2.26,8,8,0,0,1,3.06,6.43,8.74,8.74,0,0,1-5.37,8.59,9.34,9.34,0,0,1-3.66.73,10.62,10.62,0,0,1-4-.77,9.32,9.32,0,0,1-3.23-2.22,8.48,8.48,0,0,1-1.7-2.67,8.61,8.61,0,0,1-.57-2.67v-.46l.07-1.63,3.61,0,0,1.27a5.66,5.66,0,0,0,1.61,4.07A6.32,6.32,0,0,0,210,45.59a5,5,0,0,0,1.72-1.14,5.12,5.12,0,0,0,1.07-1.68,5.48,5.48,0,0,0,.37-1.68v-.54a4.74,4.74,0,0,0-1.25-3.45,8.73,8.73,0,0,0-4.39-2,16.46,16.46,0,0,1-5.6-2.44,7,7,0,0,1-2.59-5.63A7.79,7.79,0,0,1,202,20.83,9,9,0,0,1,207.78,18.89Zm-52.31,0a16.22,16.22,0,0,1,8.13,2.22,14.43,14.43,0,0,1,6.14,7.29l.19.49.6,1.71h-4l-.3-.85a10.76,10.76,0,0,0-4.53-5.56,11.84,11.84,0,0,0-6.07-1.72,12.4,12.4,0,0,0-4.62.79,13.05,13.05,0,0,0-3.92,2.56,10,10,0,0,0-2.42,3.63,12.91,12.91,0,0,0-.93,4.78,12.44,12.44,0,0,0,.89,4.7,11.27,11.27,0,0,0,2.58,3.82A11.55,11.55,0,0,0,151,45.16a12.33,12.33,0,0,0,4.48.84,12.15,12.15,0,0,0,7.13-2.29,10.44,10.44,0,0,0,3.47-4.35l.14-.37.29-.87h4l-.62,1.72a14.57,14.57,0,0,1-5.45,7.1,16.15,16.15,0,0,1-20.35-2.17,15.69,15.69,0,0,1-4-10.49,15.08,15.08,0,0,1,15.38-15.39Zm-19,0V49.58h-3.68V44.51a14.07,14.07,0,0,1-3.43,2.92,15.35,15.35,0,0,1-8.1,2.15,14.79,14.79,0,0,1-11.44-4.91,15.79,15.79,0,0,1,0-20.88,14.75,14.75,0,0,1,11.43-4.9A15.67,15.67,0,0,1,130,21.53a14.25,14.25,0,0,1,2.34,1.95l.4.44v-5ZM29.55,0,35.7,18.89H55.64L39.51,30.6l6.17,19L29.53,37.83,13.47,49.52l6.14-18.89L3.4,18.89h20ZM63,18.89v3.3a10.6,10.6,0,0,1,3.22-2.28,11.42,11.42,0,0,1,4.74-1,12.91,12.91,0,0,1,5,.94,10,10,0,0,1,3.84,2.79,7.85,7.85,0,0,1,1,1.41,10.48,10.48,0,0,1,1.12-1.46,11,11,0,0,1,3.89-2.72,13.45,13.45,0,0,1,9.38-.22,9.79,9.79,0,0,1,3.62,2.3,10.55,10.55,0,0,1,2.62,4.47,20.22,20.22,0,0,1,.82,5.5V49.58H98.55v-17a17.39,17.39,0,0,0-.64-5,7.54,7.54,0,0,0-1.79-3.13A5.92,5.92,0,0,0,93.84,23a9.81,9.81,0,0,0-6.52.11,6.47,6.47,0,0,0-2.84,2.06,7.75,7.75,0,0,0-1.52,3,17.55,17.55,0,0,0-.34,3.93V49.58H78.94V31.79a14.35,14.35,0,0,0-.47-4.12,7.35,7.35,0,0,0-1.26-2.43,6.72,6.72,0,0,0-2.53-2,9.83,9.83,0,0,0-3.75-.78,7,7,0,0,0-3.21.64A6.31,6.31,0,0,0,65.29,25a8.27,8.27,0,0,0-1.72,3.07A13.65,13.65,0,0,0,63,31.79V49.58H59.33V18.89Zm58.23,3.58a11.67,11.67,0,0,0-8.36,3.35,11.83,11.83,0,0,0-3.34,8.41,12.38,12.38,0,0,0,3,8.11,11.64,11.64,0,0,0,19.63-4,10.71,10.71,0,0,0,.57-2.11,12,12,0,0,0,.14-2.23,12.62,12.62,0,0,0-.21-2.28,10.4,10.4,0,0,0-.62-2,11,11,0,0,0-4.23-5.23A11.88,11.88,0,0,0,121.24,22.47ZM199.47,0l1.47,4.53h4.78l-3.87,2.81,1.47,4.54-3.86-2.81-3.83,2.8,1.45-4.53L193.2,4.53H198Z" transform="translate(-3.4)"/></g></svg>