<svg id="Layer_1" data-name="Layer 1" xmlns="http://www.w3.org/2000/svg" viewBox="0 0 141.92 60"><g id="logo-brand-black-unsw"><path id="Combined-Shape" d="M43.09,0V38.34a4.27,4.27,0,0,1-2.25,3.71l-.21.11-9.51,4.5v1.68l5.43-2.56a4.19,4.19,0,0,1,1.7-.45h.25a4.58,4.58,0,0,1,1.68.35l.26.11L43,47s.11.09.13.15v6.9a1,1,0,0,1-1,1,.81.81,0,0,1-.37-.09l-.08,0-1.23-.58a4.3,4.3,0,0,0-1.94-.45,4.89,4.89,0,0,0-1.68.34l-.26.11L25.23,59.74a2.19,2.19,0,0,1-1.09.26,2.62,2.62,0,0,1-.9-.18l-.2-.08L11.65,54.31A4.46,4.46,0,0,0,8,54.2l-.22.11-1.23.58a.68.68,0,0,1-.45.13,1,1,0,0,1-1-.85v-7A.23.23,0,0,1,5.2,47l0-.05,2.52-1.16a4.18,4.18,0,0,1,1.94-.46,4.85,4.85,0,0,1,1.68.35l.26.11,5.5,2.6V46.64L7.64,42.09a4.28,4.28,0,0,1-2.45-3.58V0ZM38.5,45.71A4.2,4.2,0,0,0,37,46l-.25.1-5.63,2.65v.68L37,46.62a3.85,3.85,0,0,1,1.23-.32h.26a4.19,4.19,0,0,1,1.35.25l.2.08,2.07,1v6.47l-1.23-.59A6.18,6.18,0,0,0,38.5,53a5.89,5.89,0,0,0-2.06.4l-.27.11L24.85,58.9a2.21,2.21,0,0,1-.65.13,2.18,2.18,0,0,1-.49-.08l-.16-.05L12.17,53.47A5.64,5.64,0,0,0,9.84,53a6,6,0,0,0-2.12.4l-.27.12-1.23.58V47.59l2.07-1a3.73,3.73,0,0,1,1.49-.33,3.52,3.52,0,0,1,1.25.24l.23.09,5.89,2.8v-.67L11.52,46.1A4,4,0,0,0,10,45.72H9.78A4.19,4.19,0,0,0,8.26,46L8,46.1,5.57,47.26v6.86a.55.55,0,0,0,.58.58.49.49,0,0,0,.2,0l.06,0,1.36-.58a5.66,5.66,0,0,1,2.07-.45,4.71,4.71,0,0,1,1.82.34l.25.11,11.38,5.43a2.09,2.09,0,0,0,.91.2,2,2,0,0,0,.74-.13l.17-.07,11.38-5.43a5.66,5.66,0,0,1,2.07-.45,4.71,4.71,0,0,1,1.82.34l.25.11,1.23.58c.06.07.19.07.26.07a.58.58,0,0,0,.57-.47v-7L40.24,46.1A4,4,0,0,0,38.5,45.71Zm0,.71a3.74,3.74,0,0,0-1.2.23l-.23.1-5.95,2.84V50H30.3l-6.1,2.91-.06.06-.07-.06L17.94,50h-.79V49.6l-6-2.85A3.56,3.56,0,0,0,10,46.43H9.71a3.41,3.41,0,0,0-1.2.23l-.22.1-2,1v6.14l1-.45a5.5,5.5,0,0,1,2.46-.59,5.72,5.72,0,0,1,2.2.4l.26.12,11.38,5.43a1.79,1.79,0,0,0,.59.13,1.63,1.63,0,0,0,.43-.08l.15,0L36.1,53.34a6.54,6.54,0,0,1,2.46-.52,5.4,5.4,0,0,1,2.16.45l.3.14,1,.45V47.72l-2.07-1A3.44,3.44,0,0,0,38.5,46.42ZM25.69,54.63c.19,0,.06.2.13.26s.06.26-.07.33-.13-.13-.19-.2-.26-.13-.39-.13-.06.07-.06.07a4.37,4.37,0,0,0,0,1.35c0,.13.12.13.19.26a.75.75,0,0,0-.39-.13.89.89,0,0,1-.39-.06c0-.07.07-.07.13-.13.2-.32.07-1,.07-1.55a.31.31,0,0,0-.39.13c-.07.06-.07.19-.19.26s0-.2-.07-.26,0-.13,0-.2A14.12,14.12,0,0,1,25.69,54.63Zm-2.2-.06c.13,0,.19,0,.26.06s.06.26.06.39c-.19.07-.19-.13-.26-.19a1.26,1.26,0,0,0-.71-.13c-.05,0-.06,0-.06,0v.47c.19,0,.45.06.58-.13h.13c.06.13,0,.13,0,.19s0,.19-.07.26-.13-.26-.32-.2h-.32a2,2,0,0,0,0,.65.81.81,0,0,0,.77,0c.07-.06.13-.26.2-.26s.06.09.06.12h0c0,.33,0,.58-.26.58a7.49,7.49,0,0,0-1.16,0,.06.06,0,0,1-.07-.06.57.57,0,0,0,.2-.39V55c0-.13-.13-.2-.26-.33a.06.06,0,0,1,.06-.06A7.61,7.61,0,0,0,23.49,54.57Zm10.8-4.72c.13.06-.06.19,0,.32a8.83,8.83,0,0,0,.58,1.36c.2.19.26.45.39.58s-.32.26-.39.2l-2.13-1.17a3.34,3.34,0,0,0,1,1.49c0,.13.19.06.13.19s-.26.07-.33.2-.32.26-.38.06c.13-.52-.26-1-.46-1.49a3,3,0,0,0-.26-.51c-.25.06-.32.39-.38.58s-.2-.07-.26-.07a.37.37,0,0,0-.45-.12c-.2.06-.39.19-.59.25a2.76,2.76,0,0,0,.39.72c0,.06.07,0,.07,0a.69.69,0,0,0,.51-.39h.07a1.57,1.57,0,0,1,.32.39c-.13,0-.19-.07-.26,0a2.08,2.08,0,0,0-.58.25,5.21,5.21,0,0,0,.45.78c.07.13.26,0,.46,0a.88.88,0,0,0,.45-1c.06,0,.13-.06.13,0A4.16,4.16,0,0,1,33,53c0,.13.13.19-.07.19l-1.42.71c-.13,0-.19.07-.32.2-.07-.07-.07,0-.07-.07s0-.06,0-.13c.07-.45-.19-.77-.45-1.36-.07-.12-.39-.64-.58-.64S30,52,30,52v.17c-.06-.07-.19-.07-.32.06v.07a2,2,0,0,0,.32.77,3.68,3.68,0,0,0,.84,1.17c.07.06,0,.06-.06.13s-.46.12-.65.25c-.13-.13-.06-.25-.06-.38a1.79,1.79,0,0,0-.33-.72,2.79,2.79,0,0,0-.39-.77.74.74,0,0,0-.06.34v.11a11.73,11.73,0,0,0,.06,1.42.06.06,0,0,0-.06.07.15.15,0,0,1-.13-.13c-.45-.26-1.1-.91-1.55-1.16,0,0,0,.19.06.19A9.71,9.71,0,0,0,28.4,55a.47.47,0,0,0,.39.19c-.06,0,0,.07-.06.07a.8.8,0,0,0-.33.19c-.12,0-.32.26-.38.13.13-.32-.13-.78-.2-1a7.65,7.65,0,0,1-.52-1h-.06c-.13.06-.06.26-.13.45S27.05,54,27,54s-.06-.33,0-.46a.59.59,0,0,1,.26-.51c.19-.07.52-.2.65,0a15.35,15.35,0,0,0,1.23,1l.06-.07a7.65,7.65,0,0,1-.06-1.05v-.24a.62.62,0,0,1,.25-.58c.07-.07.26-.07.39-.07l.26-.26c.52-.25,1-.51,1.49-.71h.06c.07.13.13.26.26.26s0-.26.13-.39a.82.82,0,0,1,.84-.19,15.57,15.57,0,0,1,1.75.9c-.19-.38-.39-.71-.52-1-.06-.07-.26-.33-.45-.33a.06.06,0,0,1-.07-.06A4.73,4.73,0,0,0,34.29,49.85Zm-15.2,2.46.52.25c.06.07.26.07.19.2a2.9,2.9,0,0,0-.45.19,7.11,7.11,0,0,0-.71,1.36c-.07.19.06.39.19.58a1.48,1.48,0,0,0,.58.2c.52,0,.84-.84,1-1.23a.91.91,0,0,0,.06-.71c-.06-.07,0-.07,0-.07.26.07.46.2.71.26s.13.13.07.13a.41.41,0,0,0-.32.32c-.2.26-.26.46-.46.71s-.32.72-.64.84-.26.13-.46,0c-.45-.06-1.23-.45-1.23-.9a2.09,2.09,0,0,1,.39-1c.2-.32.52-.65.39-1-.06-.07-.13-.07-.06-.13S19,52.24,19.09,52.31ZM16.5,51.14c.2.07.39.2.39.33a5.66,5.66,0,0,1,.19,1.81c.07.13,0,.19,0,.32a3.54,3.54,0,0,0,.52-1c0-.26.2-.58,0-.84a.07.07,0,0,1,.07-.07,3.94,3.94,0,0,1,.68.35l.16.11a2.73,2.73,0,0,0-.84,1.1,4.63,4.63,0,0,0-.46.84c-.06.06-.06.13-.19.19a.43.43,0,0,1-.26-.06.26.26,0,0,1-.06-.13A4.91,4.91,0,0,1,16.63,53c-.06-.26-.06-.64-.13-1-.06-.06-.06-.26-.13-.19a4,4,0,0,0-.51.9,2.22,2.22,0,0,0-.26.78c.06.06.13.13.06.19s-.19,0-.26-.06a1.24,1.24,0,0,0-.45-.19c0-.13.06-.13.13-.2.26-.06.39-.52.58-.71.2-.39.26-.52.45-.84a.46.46,0,0,0,.13-.26.67.67,0,0,0-.51.07c-.07,0-.13,0-.07-.07s.07-.13.26-.19S16.31,51,16.5,51.14ZM14.69,50c.32.2.32.59.32.91a16.08,16.08,0,0,1-.19,1.61c0,.13.07.26.07.46-.13,0-.2.06-.26.06a7.05,7.05,0,0,1-.78-.39c-.06,0-.13-.06-.06-.13a.1.1,0,0,1,.13,0c.32-.19.25-.45.32-.71a9,9,0,0,1-.78-.45,1,1,0,0,0-.39.84c-.06.13-.19,0-.25,0a1.26,1.26,0,0,1-.39-.26.26.26,0,0,1-.2-.06c.07-.13.2,0,.39-.07a12.18,12.18,0,0,0,1.62-1.48c.06-.07-.2-.07-.32-.13s-.26.13-.26.06v-.06A1.15,1.15,0,0,1,14.69,50ZM19.75,50H18.31l5.83,2.78L30,50H28.52l-4.26,2-.12.07L24,52Zm-9.52-2a1.16,1.16,0,0,1,.58.52c0,.58-.06,1.1-.06,1.62v.06a8.11,8.11,0,0,1,1.68-1c.39,0,.51.06.51.13s.2.13.2.19a.46.46,0,0,1,0,.32c-.13-.06-.2-.19-.32-.12s-.33.51-.46.71c-.19.38-.39.77-.58,1.1,0,.06.13.19.07.32h-.13a2.45,2.45,0,0,0-.59-.32c-.06-.07-.13-.07-.06-.13s.45-.13.52-.46.45-.71.64-1.1h-.06a9.71,9.71,0,0,0-1.68,1.1.08.08,0,0,1-.13,0,9.4,9.4,0,0,1,.06-1.16c-.06-.06,0-.78-.06-.84a2,2,0,0,0-.52,1c-.13.19-.32.52-.19.78a.06.06,0,0,1-.07.06c-.26-.19-.52-.26-.78-.45v-.07c.33,0,.65-.45.85-.71a5.71,5.71,0,0,0,.58-1c0-.07-.2-.2-.26-.2s-.26.07-.45.07-.07-.13,0-.13A.58.58,0,0,1,10.23,48Zm26.32,1c.07.13.26.26.13.39s-.19-.13-.38-.13-.39,0-.52.06-.07.13-.07.13a8.31,8.31,0,0,0,.91,1.62c.06.13.26.06.39.19s-.2.2-.39.32a1.27,1.27,0,0,1-.45.2c-.07-.07,0-.13.06-.2a5.88,5.88,0,0,0-1-1.93c-.13,0-.39.25-.45.38s.06.26-.07.39-.19-.26-.26-.32a.34.34,0,0,0-.12-.26,10.64,10.64,0,0,1,1.87-1C36.43,48.69,36.49,49,36.55,49Zm-8.92,1H20.52l3.55,1.68Zm-13.33.65a3.32,3.32,0,0,0-.71.64,1.15,1.15,0,0,0,.58.26C14.17,51.47,14.37,50.69,14.3,50.63Zm24.13-2.72c.13.19.32.26.32.45-.19.13-.25,0-.38-.06a1.57,1.57,0,0,0-.91.32c-.06,0-.06.07,0,.13s.19.39.26.58c.26-.13.58-.19.58-.45.07-.07.07-.07.13-.07s.07.2.19.26.2.26.13.39-.32-.19-.51-.06-.26.06-.39.26c.13.25.19.58.45.77a1,1,0,0,0,.91-.52c.06-.13-.07-.38.06-.45s.13.13.13.13a.7.7,0,0,1-.06.71,15.82,15.82,0,0,0-1.43.71.26.26,0,0,1-.13-.06.83.83,0,0,0,0-.58c-.26-.46-.45-.84-.71-1.3-.06-.13-.32-.19-.52-.26,0-.06.07-.06.07-.06.45-.26,1-.45,1.42-.71C38.17,48,38.3,47.84,38.43,47.91Zm3.82-37.44H6v11.9h6.33a.85.85,0,0,0,.4,1h.13c.19,0,.06.19.19.26l.13.06h.46c.06,0,.13,0,.13.07a.12.12,0,0,1,0,.19.24.24,0,0,1-.13.07c-.13.06-.33,0-.46,0s-.06.32.13.45a.77.77,0,0,0,.65.26c.19,0,.19.26.06.32-.51.32-.9.39-1.16,1,.26-.06.52-.06.52.07s-.2.32-.33.51a.06.06,0,0,0-.06.07c.19.06.39-.07.52.06s-.59.58-.52.91c.32-.07.78-.13.84.26a1,1,0,0,1-.39.64c.33,0,.65-.13.78,0s-.52.39-.52.71a1.12,1.12,0,0,1,.65-.06c.19.32-.58.58-.65.58.26.39,1.36.32,1.81.07.2.71,1.1.71,1.1.77-.26.26-.52.71-.39,1a1.14,1.14,0,0,1-1.16,1.36c-.52,0-1-.07-1.16-.58a.53.53,0,0,0-.85-.26,1.1,1.1,0,0,0-1.35.65c.32-.07,1.35.25.77.77a.93.93,0,0,0-.9,1c.9-.22,1.31-.06,1.32.19H6v3.63a3.31,3.31,0,0,0,1.74,2.93l.2.1,9.19,4.37v-11H15.78a.49.49,0,0,0,0-.12c0-.07.07-.13.07-.2a.42.42,0,0,1,.32-.26c.32-.06.65.59,2,.2,0-.07-.19-.26-.06-.33a2.38,2.38,0,0,0,.71-.25c.26-.26.65-.13.91-.39-.07,0-.26-.07-.26-.13s.58-.07.52-.26a.48.48,0,0,1-.2-.07c-.19-.06,1.17-.64,1.17-.77s-.52-.45-.33-.58a1.91,1.91,0,0,0,.78-.39L24,30.32c0,.59.06.84.32,1a1.73,1.73,0,0,0,.71.32c.52.07,1-.06,1.62,0s.52.71-.07.91a5.55,5.55,0,0,1-1,.06,1.05,1.05,0,0,1-.91-.52,1.16,1.16,0,0,0-.26-.19c-.25-.13-.38-.13-.64-.26s-.26-.52-.59-.52a.54.54,0,0,0-.38.13c-.52-.32-1.36.26-1.23.78a.53.53,0,0,1,.77.26v.13c0,.06-.06.19-.13.13-.77-.39-1.35.64-1.09.9a.68.68,0,0,1,.9,0c.19.07.19.26.19.39-.51.13-.77.32-.9,1.16,0,.13.06.07.06.07a1.75,1.75,0,0,1,1.23-.33.61.61,0,0,0,.84.13c.33-.25.65-.71.84-.77s.13-.07.2,0,0,.26,0,.26a1.41,1.41,0,0,1-.39.45c0,.06.13.19.39.19a1.08,1.08,0,0,0,.77-.19c.07-.07.07,0,.07,0s.06,0,0,.06-.19.33-.13.33c.39.06.78,0,.91-.33.19.2.25.39.51.52a.76.76,0,0,1,.33-.71c0,.13.26.78.38.65a.72.72,0,0,1,.2-.39c0-.07.06-.07.13-.07s.26.59.45.52a2.23,2.23,0,0,1,.39-.71c.32.06.84.26,1.16.13a1.26,1.26,0,0,1-.38-1c0-.32.38-.39.58-.65s.26-.32.26-.58-.52-.52-.78-.71-.06-.84-.06-.91a.06.06,0,0,1,.06-.06,10.52,10.52,0,0,0,1.1.78,2,2,0,0,0,1.49.32c.58-.07,1.74,0,1.74.65a.77.77,0,0,1-.77.71c-.26-.2-.26-.65-.58-.71s-.39.06-.59.25a1.18,1.18,0,0,0-1.61.65c0,.13.19.07.25.07a1.06,1.06,0,0,1,1,.25c0,.07-.07,0-.33.39a1.41,1.41,0,0,0-.84,1.29c0,.07,0,.07.07.07a2.2,2.2,0,0,1,.9-.35v.47a1.41,1.41,0,0,1-.45.07c-.07,0-.07.13,0,.13a1.26,1.26,0,0,0,.45.26v9.44l9.19-4.33a3.35,3.35,0,0,0,1.93-2.82V34.65h-6.1l.08-.07a1.1,1.1,0,0,1-.45-.13c-.07-.06-.13-.06-.07-.13s.52-.32.72-.45c0-.07-.2-.19-.2-.26s.52-.26.52-.45c0,0-.32,0-.32-.07s.58-.58.77-.9c-.19,0-.52.06-.65-.07.2-.32.39-.25.39-.38s-.26-.07-.32-.13.26-.46.19-.78c-.06-.06-.13,0-.26,0s.33-.45.07-.65c-.41.14-.72.37-1.12.47l-.08,0h0a2.77,2.77,0,0,0,.9-.29,2.23,2.23,0,0,1-1.49,1,3,3,0,0,0,1.62-.26,1.48,1.48,0,0,1-1.49.71h-.06s0,.07.19.13a8.89,8.89,0,0,0,1.17.13c0,.19-1.23.19-1.23.39,1-.13,1.1.19,1.48,0a1,1,0,0,1-.45.45,1.34,1.34,0,0,1-.58.13,2.81,2.81,0,0,0-.78,0c.07.32.91.26,1.43.26a1.67,1.67,0,0,1-1.49.32s0,.07.13.13a7.91,7.91,0,0,0,1,.26,2,2,0,0,1-1.36.06c.06.26.78.46,1.1.59H31.2c0-.21.05-.47.18-.51a.26.26,0,0,1,.13.06c.19.2.65,0,.52-.32a.21.21,0,0,0-.07-.13c-.13-.13-.52-.06-.39-.39s.26-.52.52-.52.26.26.32.39.26.39.52.39c.65,0,1.17-1,.91-1.62-.33-.9-1.43-.58-2.27-.71-2.13-.32-2.71-1.55-4-3.17l-.13-.06c-.13-.06-.19-.06-.32.06-1,.46-1.75.91-2.85,1.36a5.11,5.11,0,0,0-.58.26,8.07,8.07,0,0,0,.65-.9c-.65.32-1.17.77-2.07,1.22-.07,0-.19,0-.19-.06.06-.26.25-.32.38-.78-.06-.06-.13,0-.26.07-.9.65-1.42,1.23-2.26,1,0,.13.32.46.84.65-.26.26-1.1.13-1.49-.06-.06.38.65.64.84.71-.38.32-1.22,0-1.68-.13-.06,0,0,.06,0,.06.26.45,1.23.58,1.68.58a2,2,0,0,1-2.07.07c-.19.26.65.71.85.77,0,.13-.91.07-1.49-.38-.07.25.64.71.77.77-.32.33-1,0-1.22-.06a.21.21,0,0,1-.13-.07v.07c.06.32.51.51.84.64a1.19,1.19,0,0,1-1.43-.32,2.49,2.49,0,0,0-.77.65,1,1,0,0,0,0,.38H13.66v-.06c0-.26-.07-.39-.39-.32-.07.06-.07.13-.2.19h-.13c-.25-.26-.25-.77-.06-.9s.32.25.58.13.2-.59,0-.65-.39.19-.52.06V33c.13-.32.33-.64.46-.64s.26.39.52.64a1,1,0,0,0,.38.2,1.88,1.88,0,0,0,1.56,0c1.48-.65.84-1.68,1.35-1.94,1.1-.45.59-1,1-1.23.06.06.06.45.32.58.07-.52.2-.77.65-.64a1.84,1.84,0,0,0,.58.64c.07,0,.07-.58.07-.77.38.32,1.1.32,1,.13s-.39-.46-.39-.65c.39.26,1.1.06,1-.07s-.2-.13-.2-.25.39-.2.59-.2c0-.32-.33-.71,0-1.16.26.19.32.32.64.32,0-.26-.06-.58.07-.77a13.07,13.07,0,0,0,1.81-.07c1.1-.26,1.94-.65,3.1-.9.33-.07.59-.2.91-.26a1.71,1.71,0,0,1,1.23.77,4.31,4.31,0,0,0,.32.58,4.73,4.73,0,0,0,1,1,3.27,3.27,0,0,1,.84,1,4.16,4.16,0,0,1,.39.91.89.89,0,0,0,.45.52c.84.45,1.62-.65,2-.26,0,.06.07.06.07.13a.21.21,0,0,1,.06.13.22.22,0,0,0,.13.06h.07l0,0a.78.78,0,0,0-.69-.56.26.26,0,0,0-.2.06c-.39.26-1,.59-1.29.33a1.41,1.41,0,0,1-.39-.84c-.06-.2-.13-.65-.19-.78-.33-.52-1.23-.71-1.49-1.49,1.49.33,4.4.33,4.33-2.39,0-.06,0-.06.07-.13a1.33,1.33,0,0,0,.9-1.48v-.2a1,1,0,0,1,.13-.58l.08-.07,0-.06c-.36-.3-1,1.33-1.47-.13h7.49Zm75.1,27.35-.07.26v.39l.07.26h-.26a1.9,1.9,0,0,0-.44-.07h-.08l-.45-.06h-1v1.81h2.07l-.06.26v.45l.06.26-.26-.07a1.31,1.31,0,0,0-.38-.06h-1.43v2.07h1a1.68,1.68,0,0,1,.58-.07,1.64,1.64,0,0,0,.36,0h.1l.32-.06-.06.32a.16.16,0,0,1,0,.09l0,0v.32l.07.26h-3.43V44a4.73,4.73,0,0,0,.06-.82v-4a4.59,4.59,0,0,1-.06-.82v-.47h2.46ZM87,37.69l.13.07a5,5,0,0,0,.74.11l.16,0,.46-.13-.26.39c-.26.38-.52.77-.71,1.1a5.07,5.07,0,0,0-.59.9c-.19.26-.32.52-.45.71s-.19.26-.26.38l-.06.14v2.71h-1.3v-.25a3.21,3.21,0,0,0,.07-.81V41.51a.64.64,0,0,0-.15-.31l-.05-.08-1.55-2.65a3.46,3.46,0,0,0-.22-.34l0-.05-.19-.39.65.07h.38l.39-.07.26.52c.2.39.39.76.58,1.1a12.17,12.17,0,0,0,.65,1.23l.19-.39.39-.77.39-.78a2.8,2.8,0,0,1,.23-.58l.09-.2Zm38.87,0,.13.07a.85.85,0,0,0,.47,0l.12,0h.77l-.26.39c-.26.38-.51.77-.71,1.1a5,5,0,0,0-.58.9c-.19.26-.32.52-.45.71s-.2.26-.27.38l-.06.14v2.71h-1.29v-.25a3.82,3.82,0,0,0,.06-.81V41.51a.71.71,0,0,0-.14-.31l0-.08-1.55-2.65c-.11-.16-.17-.27-.22-.34l0-.05-.2-.39.65.07h.39l.39-.07.26.52c.19.39.38.76.58,1.1a10.43,10.43,0,0,0,.65,1.23l.19-.39.39-.77.39-.78a2.75,2.75,0,0,1,.22-.58l.1-.2ZM96.71,38a5.63,5.63,0,0,1,.74.5l.17.15.1.11a1.7,1.7,0,0,1,.41.92,3.52,3.52,0,0,1,.2,1.23A3.34,3.34,0,0,1,98,42.41a2.53,2.53,0,0,1-.77,1,3.08,3.08,0,0,1-1,.52,7.6,7.6,0,0,1-1.61.12H92.7V43.9a4.59,4.59,0,0,0,.06-.82v-4l-.07-1.36h2.07A4.6,4.6,0,0,1,96.71,38Zm7.12-.32L105,38.92c.26.3.52.58.78.86l.39.44,1.09,1.16c.13.13.23.26.35.39l.17.19V39.57c0-.44,0-.84,0-1.23v-.65l.26.07a.52.52,0,0,0,.26.06.08.08,0,0,0,0,0v0l.26-.07V38a1.35,1.35,0,0,0-.07.58,3.17,3.17,0,0,0-.06.78,2.63,2.63,0,0,0-.06.64v4.14H108L107.9,44c-.65-.78-1.36-1.55-2.07-2.33l-1.21-1.34-.6-.66v2.84l.07,1v.26l.06.25-.26-.06h-.52l-.25.06.06-.25a.54.54,0,0,0,.06-.33.82.82,0,0,0,.07-.4V43l.06-.72a2.79,2.79,0,0,0,.07-.58V37.63Zm-26.27.26a1.69,1.69,0,0,1,.44.23l.15.09.13.13-.07.13a.49.49,0,0,0-.13.26A1.32,1.32,0,0,1,78,39v.26h-.39l-.07-.13c-.06-.07-.06-.2-.12-.26s-.07-.13-.13-.2-.2-.13-.26-.19a1.19,1.19,0,0,0-.65,0c-.06.06-.19.13-.26.19a1,1,0,0,0-.19.26.44.44,0,0,0-.07.25v.08c0,.25,0,.38.13.51a1.21,1.21,0,0,0,.46.33c.19.06.38.19.58.25a3.25,3.25,0,0,1,.64.33,3.44,3.44,0,0,1,.52.45,1.16,1.16,0,0,1,.26.84,1.77,1.77,0,0,1-.13.84,2.69,2.69,0,0,1-.45.71,2.63,2.63,0,0,1-.71.46,4.18,4.18,0,0,1-.91.12,2,2,0,0,1-.9-.12,1.37,1.37,0,0,1-.5-.25l-.09-.08-.13-.06.07-.13a2.67,2.67,0,0,1,.06-.32,1.09,1.09,0,0,1,0-.26l0-.13v-.2h.39l.06.13a.49.49,0,0,0,.13.26.8.8,0,0,0,.26.26,1.28,1.28,0,0,0,.32.19,1,1,0,0,0,.84,0c.13,0,.26-.13.33-.19a1.28,1.28,0,0,0,.19-.32.77.77,0,0,0,.07-.39c0-.26,0-.39-.13-.52a1.09,1.09,0,0,0-.46-.32,3.56,3.56,0,0,0-.58-.26,3.55,3.55,0,0,1-.65-.32,4.47,4.47,0,0,1-.51-.59,1.21,1.21,0,0,1-.26-.9,2.14,2.14,0,0,1,.13-.71,1.08,1.08,0,0,1,.39-.58,1.23,1.23,0,0,1,.64-.39A3.13,3.13,0,0,1,77.56,37.89Zm16.63.58a.63.63,0,0,1-.29.06h-.1v3.11c0,.43,0,.87.06,1.28v.4h.32a4,4,0,0,0,1.49-.07,1.54,1.54,0,0,0,.71-.38,2.53,2.53,0,0,0,.52-.78,4,4,0,0,0,.19-1.36,3.31,3.31,0,0,0-.19-1.16,1.86,1.86,0,0,0-.46-.71,2.15,2.15,0,0,0-.64-.33A4.9,4.9,0,0,0,94.19,38.47Zm-70,.26-.46,1.1-1.16-.45L23,40.47l-1.17.46,1.17.45-.52,1.1L23.68,42l.46,1.1.38-1.1,1.17.45-.52-1.1L26.33,41l-1.16-.45.58-1.16-1.16.45ZM31,34.59a.69.69,0,0,0,.13.41v.11a1.29,1.29,0,0,0-.65.13C30.47,35.11,30.73,34.59,31,34.59Zm-5.3-5.3a6.16,6.16,0,0,0-.39.9.09.09,0,0,0,0,.13.19.19,0,0,0,.13.07c.52-.45.52-.65,1.16-1,.26.59.91.59,1.1,0,.39.39,1,.91.91,1a5.4,5.4,0,0,0-.26,1.23c.13.45.52.58.78.71a.7.7,0,0,1,.38.39c.07.12.07.32-.06.38a1,1,0,0,0-.32,1.56c-.91-.2-.65-.78-.39-1.36.06-.07,0-.13-.07-.07-.58.58-.38,1.1-.64,1.62a1.15,1.15,0,0,1,.06-1.36s0-.06-.06,0a3.62,3.62,0,0,0-.84,1.36c-.33-.32-.07-1.1,0-1.16s0-.07-.07,0A2.89,2.89,0,0,0,26.33,35c-.32-.26-.25-.65-.25-1-.26.13,0,.9-.59,1.1h-.13c-.13-.07,0-.13.07-.2s.19-.38.06-.51-.19-.2-.26-.2a1.28,1.28,0,0,0-.9-.32,1.77,1.77,0,0,0-1,.71c-.06.13-.25.13-.45.07s-.65-.65-.32-.91c.19-.06.26.19.52.06s.12-.51-.13-.58h-.26c-.13.07-.26.2-.33.13a.21.21,0,0,1-.06-.13c-.07-.26,0-.77.32-.77a.21.21,0,0,1,.13.06c.07.13.13.2.2.2.38,0,.32-.26.25-.46a.14.14,0,0,0-.12-.13c-.2,0-.39.07-.52-.06s.13-.65.39-.65.25.39.58.46a2.63,2.63,0,0,1,.65.25c.06.07.12.07.19.13.19.71,1.23.65,1.81.58,1.16-.12,1.81-1,1-1.55-.52-.32-1.23-.06-1.82-.19-.9-.13-1.1-.58-.84-1.23.07-.19.46-.26.59-.32S25.69,29.16,25.69,29.29Zm-.71,5c.32.19-.46.71-.72.58a1.14,1.14,0,0,0,.39-.65C24.72,34.07,24.85,34.2,25,34.27Zm82.79-23.93a11.65,11.65,0,0,1,6.41,1.88c-.72.58-.84.58-1.23,1.29a14.06,14.06,0,0,0-.78,1.62,4.72,4.72,0,0,0-4.72-3c-2.72,0-4.59,1.68-4.59,3.75,0,5.69,13,3.43,12.93,10.8-.06,5.62-4.2,8.08-10.41,8.08a14.39,14.39,0,0,1-7.5-2.46,5.26,5.26,0,0,0,1.48-1.48,7.19,7.19,0,0,0,.78-1.69c.58,1.82,2.46,3.56,5.76,3.56s5.62-2.46,5.62-4.78c0-5.69-12.48-3.11-12.48-10.93C99,12.67,102.79,10.34,107.77,10.34ZM22.13,34.2c.06,0,.06,0,.06.07a.37.37,0,0,0,.07.26h-.13a1,1,0,0,0-.71.19A1,1,0,0,1,22.13,34.2ZM75,10.47c-.13,2.59-.39,8.22-.45,13.65-.07,7-3.49,10.47-9.83,10.47s-10-2.84-10-9.31V18.69c0-3.69-.39-6.66-.52-8.22a18.83,18.83,0,0,0,2.65.2,11.24,11.24,0,0,0,2.13-.2c-.32,3.24-.45,7.57-.45,12,0,6.47,1.17,10.09,7.18,10.09,6.27,0,6.59-6,6.6-11.21v-.5c0-4.78-.06-8.21-.26-10.41a6.4,6.4,0,0,0,1.55.2A4.87,4.87,0,0,0,75,10.47Zm3.82.07C84,16.23,90.24,23,94.84,27.74V24.66c0-5.22,0-11.14-.25-13.93a4.87,4.87,0,0,0,1.36.2,4.45,4.45,0,0,0,1.29-.2C97,14,96.78,19.07,96.78,22c-.07,3.62-.07,9.18,0,12.42a3.57,3.57,0,0,0-.84-.13,2.59,2.59,0,0,0-.78.13c-4.92-5.82-10.48-11.84-16-17.65-.07,1.87-.13,4.33-.13,7.37,0,4.2.13,8.72.26,10a4.93,4.93,0,0,0-2.78,0c.25-1.27.69-9.69.71-15.38v-.33c0-3.69-.07-6.34-.13-7.89a4.54,4.54,0,0,0,.9.06C78.21,10.6,78.6,10.54,78.86,10.54ZM12.43,33.88v.26a.78.78,0,0,0-.65.13C11.85,33.94,12.36,33.75,12.43,33.88ZM147,10.73c-.91,2.91-5.89,17.91-7.44,23.41a10,10,0,0,0-1.43-.2,9.9,9.9,0,0,0-1.42.2c-1.62-5.95-3.49-11.9-5.56-18h-.07c-1.23,3.88-4.27,12.48-6,18a8.67,8.67,0,0,0-1.42-.2,9.9,9.9,0,0,0-1.42.2c-1-3.69-2.33-9-4.14-14.81-.52-1.81-2.53-7.37-3.11-8.6a18.12,18.12,0,0,0,2.59.2,11.81,11.81,0,0,0,2.13-.2c1.49,6.34,3,12,5,18.62h.07c1.55-4.72,5-15.32,5.89-18.62a4.69,4.69,0,0,0,2.71,0c.78,3.36,4.53,14.61,5.69,18.62h.07c1.36-4.39,4.72-15.84,5.3-18.62a4.06,4.06,0,0,0,1.23.2A4.56,4.56,0,0,0,147,10.73ZM31.51,33.1a1.9,1.9,0,0,0-.19.39,1.27,1.27,0,0,0-.85-.06A.83.83,0,0,1,31.51,33.1Zm-9.57-.32c.06.13-.07.06,0,.39,0,.06-.07.06-.13,0l-.13-.07a.77.77,0,0,0-.52,0C21.22,32.84,21.68,32.72,21.94,32.78Zm-9.19-.45c0,.06-.06.13-.13.26l-.06.06a1.47,1.47,0,0,0-.52,0,.63.63,0,0,1,.62-.32Zm9.7-.71c-.06.06-.06.19-.13.32s-.06.06-.06,0a2.7,2.7,0,0,0-.58-.13C21.87,31.55,22.26,31.42,22.45,31.62ZM10,26.31l-.45,1.1L8.35,27l.52,1.1-1.16.45L8.87,29l-.52,1.09,1.17-.45.45,1.1.45-1.1,1.17.45L11.07,29l1.16-.46-1.16-.45.52-1.1-1.17.45Zm28.46,0L38,27.41,36.81,27l.52,1.1-1.16.45,1.16.46-.52,1.09L38,29.61l.45,1.1.45-1.1,1.17.45L39.53,29l1.16-.46-1.16-.45.52-1.1-1.17.45Zm-18.56-.38c0,1.55-.91,1.29-.52,4.13-.52-.45-.58-1.61-.58-2.26a5.68,5.68,0,0,1,.51-1.68.07.07,0,0,0,.07.07C19.61,26.19,19.61,26.12,19.87,25.93Zm-5.74-3.56h1.23a7.66,7.66,0,0,0,0,2.52l.07.13c.13.13.39.13.51.26a5.22,5.22,0,0,1,.85,1.42c-.13.26-.39.39-.59.58,0,.13.26.13.39.26a2.5,2.5,0,0,1-.84.71v.07c.26.26.58.06.84.26-.13.39-.26.39-.52.77.07.13.91-.06,1.1,0,0,.78-1.35.84-1.55.13v0a.24.24,0,0,0-.06-.11c-.07,0-.07-.06-.13,0a2,2,0,0,1-1.36.33c.84-.46.65-.59,1.1-1.23-.2-.26-.65.32-1,.26a1,1,0,0,0,.39-.46.7.7,0,0,0,.06-.19.8.8,0,0,1,.45-.45c-.19-.13-1.1.45-1.1.45.26-.78.65-1,.78-1.36v-.06h0a.28.28,0,0,0-.1.06,1.84,1.84,0,0,1-1.36.71c.07-.38,1.36-.64,1.49-1.35V26c-.06,0-.26.26-.58.32a2.76,2.76,0,0,1-.65.07c.33-.39.52-.45.84-.78-.32,0-.77.2-1.1.2-.06,0-.06-.07,0-.07l.07-.06c.52-.39,1-.33,1-.78a.55.55,0,0,0-.19-.39.26.26,0,0,0-.13-.06c-.26,0-.78,0-.65-.32.52.13.91-.07.71-.59-.13-.32-.45-.25-.71-.19h-.13a.37.37,0,0,1,.13-.58c.07,0,.07-.07.13-.07s.33.2.52,0l.06-.13A.36.36,0,0,0,14.13,22.37Zm4.44,6.08a1.77,1.77,0,0,0,.13.84,1.08,1.08,0,0,0-.39.52s-.26-.65-.06-1A2.23,2.23,0,0,0,18.57,28.45Zm1.68-3c.59,1.23-.58,2.71.39,3.68-.58.13-.77-.58-.77-.38a2.17,2.17,0,0,0,.32,1c-.58-.06-.78-.9-.58-1.87.06-.71.51-1.23.39-2.07A.61.61,0,0,0,20.25,25.41ZM19,25.34c0,.33.25.46.12.65a12,12,0,0,0-.64,2,2.17,2.17,0,0,1-2,1.22c2.4-1.42,1.43-2.65,2-3.55C18.7,25.6,18.77,25.34,19,25.34ZM21,24.83c.32.32.32,1.36.32,1.68a3.29,3.29,0,0,0,0,1.94,1.5,1.5,0,0,1-.65-.91c-.06-.71.26-1.42-.06-2.2,0-.06-.2-.25,0-.25A.64.64,0,0,0,21,24.83Zm-2.92,1.55a2.35,2.35,0,0,1-.32,1.36c-.32.45-1.16.51-1.49.64A9.85,9.85,0,0,0,18.05,26.38Zm3.5-1.81A2.76,2.76,0,0,1,21.94,26a2.9,2.9,0,0,1-.07,1.49c-.58-.45-.32-1.29-.52-1.94a1.28,1.28,0,0,0-.19-.71C21.1,24.83,21.48,24.7,21.55,24.57Zm5.3-4.79h0a.49.49,0,0,1,.17.06,1.13,1.13,0,0,1,.38,1.55c0,.07.13.19.2.07.32-.65,1.1-.59,1.68-.78h.06a.06.06,0,0,1,.07.06.78.78,0,0,0-.32.33v.06c0,.07.06.07.19.07a5.67,5.67,0,0,0,1.75-.39c0,.06-.2.45-1.75.9-.32.52.26.91.19,1a.53.53,0,0,1-.64-.58c0-.06,0-.06-.07-.06a.06.06,0,0,0-.06.06c-.37.55.3,1.27.87,1.46l.1,0v.06h-.26c-1.68-.32-1.36-1.61-2.78-1.55a.45.45,0,0,0-.26.07,1.94,1.94,0,0,0-1.17,1.1,1.32,1.32,0,0,0,.65,1.22c1.17.33,2.07-.25,3.11-.64a1.28,1.28,0,0,0,1.23-.2s-.33-.06-.39-.25H30c.51-.07.77-.26.71-.91.39,0,.84.52.9.65.22,0,0-.5-.18-.78h.36a1.25,1.25,0,0,1,.73.65c.15,0,.06-.37,0-.65h.41c.36.38.34.81.39.71a1,1,0,0,0,.14-.71h.4c.32.21.51.45.36.84v.07c0,.06.07.06.07.06.19,0,.38-.52.38-.58a1.06,1.06,0,0,1,.26,1c0,.07-.06.07-.06.13V24c.06.06.13,0,.19,0,.39-.26.33-.71.58-.91.26.84.07,1.36-.71,1.55a.88.88,0,0,0-.19.13,1.88,1.88,0,0,1-.2,1.17A1.94,1.94,0,0,1,33.13,27,4.15,4.15,0,0,1,30,26.77c-.13-.07-.13-.13-.26-.26,1.1.32,3.94.45,4.4-1,.38-1-.59-1.74-1.43-1.87-1.74-.13-3.23.58-5.37,1.23-1,.26-2.78.19-2.78-1.23a1.72,1.72,0,0,1,.65-1.36c.52-.45,1.42-.71,1.42-1.23A.64.64,0,0,0,26,20.3a.87.87,0,0,1,1,.39C27,20.75,27,20.11,26.85,19.78Zm-8.28,4.4a.85.85,0,0,1,.39.58v.33c0,.06-.19.06-.26.06-.91.37-.68,1.3-1.73,2l-.21.12C17.6,26.51,17.54,25,18.57,24.18Zm3.56-.13a2.45,2.45,0,0,1,.58,1.62c.13.71.52,1,.39,1a1.63,1.63,0,0,1-.65-.39c-.19-.32-.19-.91-.64-1.88.06,0,.06,0,.19-.06S22.13,24,22.13,24.05Zm10.09.07c.52,0,1.68.25,1.68,1a1.34,1.34,0,0,1-.51,1,5.66,5.66,0,0,1-2.27.39,3.75,3.75,0,0,1-1.81-.32c-.06-.07-.26-.2-.32-.26a2.65,2.65,0,0,0-.78-.13c-1.16,0-2.52.64-3.49.64-.2,0-.39-1.48-.26-1.94l.06-.06c.39.9,1.43,1,2.33.78C28.53,25,30.8,24.12,32.22,24.12Zm-9.64-.65c.84.71.39,2.07,1.23,2.84.07.13-.52,0-.65-.25-.45-.72-.25-1.23-.9-2.33-.07,0,.06-.32.06-.32S22.52,23.41,22.58,23.47Zm.46-.32a.76.76,0,0,1,.71.45c.26.9.06,1.36.39,2.65-.46-.06-.59-1.42-.85-2a2.74,2.74,0,0,0-.77-1C23,23.21,23,23.15,23,23.15Zm-3.3,1.1a4.65,4.65,0,0,0-.2,1h.13c.13-.26.33-1,.39-.91.32.65-.39,1.49-.58,1.36s-.33-1,.19-1.42C19.67,24.18,19.74,24.25,19.74,24.25Zm-2.59-2.07c.08,0,.13.07.13.13-.2.32-.58.58-.58,1,.06,0,.19-.07.32,0a2.83,2.83,0,0,0-.52,1.09c-.06.07,0,.13.07.13h.06a1.51,1.51,0,0,1-.13.59c-.19.13-.84-1-.84-1.75a5.57,5.57,0,0,1,.06-1h1.43Zm1.16,1.29a4.78,4.78,0,0,0,.2.52c-.78.45-.78,1.23-1.62,1,0,0-.06,0,0-.06C17.8,24.18,17.73,23.73,18.31,23.47Zm3.76-.78a.52.52,0,0,0,.06.26c0,.07.26.2.06.26a4.41,4.41,0,0,0-.32.91,7.84,7.84,0,0,1-1.36.77c-.06-.06,0-.26-.06-.45a1.36,1.36,0,0,0,.52-.07c.06,0,.32.07.38-.06-.06-.32-.19-.45-.32-.39s-.06,0-.19.07c0,.26-.65.06-.72,0v-.33c.07-.06.2.26.33.26s.19,0,.32-.13,0-.06,0-.06a1,1,0,0,1-.06-1h.19c.2.13,0,.45.2.58s.19.19.25.19c.26-.06.07-.32.2-.58A.79.79,0,0,1,22.07,22.69Zm-2.66-.77c.07,0,.2.13.26.26s-.32.38-.26.64a.29.29,0,0,0,.2.07A.5.5,0,0,0,20,22.5h.06a.06.06,0,0,1,.06.06c0,.07-.06.26-.06.33s-.32.26-.39.32-.26.07-.26.2a2.37,2.37,0,0,0,.26.32c.07.06.13,0,.26,0a2.67,2.67,0,0,0-.06.32c-.07,0-.26-.06-.33-.06s-.19-.13-.19-.26,0-.26-.07-.32H19c-.07.06-.07.06-.07.12s0,.13.07.13.12.2.25.26.33.13.13.33c-.06,0-.06.06-.13.12s-.06-.06-.06-.12c-.13-.26-.32-.46-.52-.78.07-.39.26-.71.33-1,0-.07-.07-.33.12-.39A.49.49,0,0,0,19.41,21.92Zm-.9.71a1.9,1.9,0,0,1-.26.65c-.65.19-.52.9-1.36,1H16.7A2.46,2.46,0,0,1,18.51,22.63Zm8.54-.13c.45.26.84.84,1.42,1.16a5,5,0,0,1-1.75.52c-.9,0-1.1-.39-1.1-.77A1.1,1.1,0,0,1,27.05,22.5Zm-3.24,0c.26.19.07.58.39,1.23.06,0,.13,0,.13.13s0,.06-.07.06-.25-.06-.32-.39a.9.9,0,0,0-.78-.64c.07-.13,0-.33,0-.45A.7.7,0,0,1,23.81,22.5Zm-3.36.13c.13.06-.2.45.06.78.07.12.2.25,0,.32,0,0-.06.06-.06,0l-.26-.26c-.19-.13-.32,0-.52,0v-.13c.39-.06.58-.39.71-.71ZM31.12,21v.84l-.39-.16c0,.07.07.13.07.26v.07c-.11.11-.32,0-.42,0h0c0,.13.33.26.2.64s-.2.33-.2.33c-.19.19-.84.39-1-.07-.06-.19.52-.19.58-.26s-.32-.25-.19-.64S30.66,21.51,31.12,21ZM12.49,22.5c.07,0,.07.26.52.32L13,23v0C12.69,23.15,12.43,22.56,12.49,22.5ZM22,22.24h0a.67.67,0,0,0,.16-.06.77.77,0,0,1,.52.13c.07.06.07.19,0,.32s-.39.39-.58.06v0s0-.14-.14-.23-1,.25-1.36,0c.07-.26.33-.65.65-.65S21.94,22.05,22,22.24Zm-3.56-.19c.13,0,.13.06.2.19s.06.13,0,.13a.21.21,0,0,1-.07.13,9.86,9.86,0,0,1-1.23.19c-.06.07-.13,0-.06,0a2.17,2.17,0,0,1,1-.58A.21.21,0,0,0,18.44,22.05Zm.59-.91a.34.34,0,0,1,.32.26,1.6,1.6,0,0,1,1,.26c.19,0,.26.19.26.32s0,.33-.07.39a9.84,9.84,0,0,1-1.1-.78.48.48,0,0,1-.38.33h-.2a.5.5,0,0,1-.06-.71C18.77,21.14,19,21.14,19,21.14ZM31.12,10.47v10c-.44.12-1.15.43-1.1-.35-.06,0-.13,0-.13.06a2.15,2.15,0,0,1-1.55.52c-.52-.13-.91-1-1.81-1.23V20c-.58,0-1.1,0-1.17.33.52,0,.85,0,1,.45s-1,.71-1.68,1.49c-.2-.13-.52-.59-.58-.59a1,1,0,0,0,.32-.64,2,2,0,0,0-.13-.58c-.07-.13-.07-.2-.19-.26-.39.26-1.36.13-.91-.26a.69.69,0,0,0-.39,0,2.34,2.34,0,0,0-1.49.32A2.19,2.19,0,0,0,20,19.53a.49.49,0,0,0-.26-.13c-.07.38-.33.45-.78.38,0,.13.07.33.07.39h0a1.22,1.22,0,0,0-.87,0,5.15,5.15,0,0,1-.58-.06c0,.06.26.26.26.32-.06.32-.42.47-.65.58V10.47ZM24.2,22.05a.06.06,0,0,1-.06.06c-.33.13-.59-.06-.91.07-.07.06-.07-.07-.19-.2a1.46,1.46,0,0,1-.26-.06A1.26,1.26,0,0,1,24.2,22.05Zm-5.95-.52v.32a5.68,5.68,0,0,0-.91.13c-.13,0,0-.13.07-.13A1.91,1.91,0,0,1,18.25,21.53ZM24.2,21c-.06.2-.19.52-.45.58h-.13c-.39.07-.71,0-1.1.33-.07,0-.07-.07-.2,0s-.32-.13-.25-.13a2.72,2.72,0,0,1,2-.78C24.14,21,24.14,21,24.2,21Zm-1-.38a4.06,4.06,0,0,0,.85.06h.06c-.13.26-.39.13-.84.26a1.52,1.52,0,0,0-1.23.71c-.19,0-.19-.07-.26-.07a1.24,1.24,0,0,1,.71-.77A3.62,3.62,0,0,1,23.16,20.63Zm-.58-.39a.26.26,0,0,1-.06.13,4.67,4.67,0,0,0-1.1,1.16H21a1.3,1.3,0,0,1,1.16-1.29Zm-2.52-.46a4.8,4.8,0,0,1,1,.91c-.06.26-.19.39-.26.65,0,.06-.06-.07-.32-.2A2.93,2.93,0,0,1,20.06,19.78ZM18.51,21c-.07.06-.2.26-.26.32a1.22,1.22,0,0,1-.78-.26C18.18,20.56,18.57,20.82,18.51,21Zm.64-.91a1.27,1.27,0,0,1,1,1h-.52A5.61,5.61,0,0,1,19.15,20Zm.2.78c-.07.06-.2-.13-.58,0a.42.42,0,0,1-.33-.13c-.13-.13-.19-.06-.32-.32A1.31,1.31,0,0,1,19.35,20.82Zm4.79-7.76-.46,1.1-1.16-.45.52,1.1-1.17.45,1.17.45-.52,1.1,1.16-.45.46,1.1.45-1.1,1.16.45-.52-1.1,1.17-.45-1.17-.45.52-1.1-1.16.45ZM17.32,2.47h-.58V3.89l-.95.57.95.57V6.22l-.95.5.95.57V8.62h0v.54H31.36V8.62h0V7.29l1-.57-1-.5V5l1-.57-1-.57V2.47h-.58V8.62H17.32Zm9.08-.72a3.48,3.48,0,0,0-2.26.9,3.52,3.52,0,0,0-2.27-.9c-1.29,0-2,1-3.49.9-.2,0-.39-.06-.58-.06v5a1.88,1.88,0,0,0,.58.06c1.49.07,2.2-.9,3.49-.9a3.39,3.39,0,0,1,2.07.76l.2.14a3.54,3.54,0,0,1,2.26-.9c1.29,0,2,1,3.49.9.2,0,.39-.06.58-.06v-5c-.19,0-.38.06-.58.06C28.4,2.72,27.69,1.75,26.4,1.75Zm-7,2.06a.6.6,0,0,1,.46.2v.06l-.13.13h-.07c-.13-.06-.19-.13-.26-.13s-.19.07-.19.13c0,.33.71.2.71.71a.51.51,0,0,1-.52.46.79.79,0,0,1-.51-.26V5L19,4.91h.06c.13.07.19.13.32.13s.26-.06.26-.19S19,4.66,19,4.2C19,3.94,19.15,3.81,19.41,3.81Zm1.69,0a.73.73,0,0,1,.51.2v.06l-.13.13h-.06a.55.55,0,0,0-.32-.13.46.46,0,1,0,0,.91.55.55,0,0,0,.32-.13h.06l.13.26a.59.59,0,0,1-.51.26.75.75,0,0,1-.78-.78A.79.79,0,0,1,21.1,3.81Zm1.29.07V5.3h-.26V3.88Zm1.36,0v.19h-.52V4.4h.58v.19h-.58V5l.52.13V5.3H23V3.88Zm5.11-.07.51,1.49h-.32L29,5H28.4l-.06.26H28s-.07,0,0-.06l.51-1.43Zm-1.23.07V5.3h-.26V3.88Zm-3.11,0,.59,1v-1h.38V5.3h-.38l-.59-1v1H24.2V3.88Zm2.4,0v.19h-.33V5.24h-.26V4.07H26V3.88ZM22,1.16h-.29a4,4,0,0,0-1.52.51,3,3,0,0,1-1.68.39,1.46,1.46,0,0,1-.35,0l-.11,0h-.12v.26H18l.14,0a1.5,1.5,0,0,0,.38,0,3.46,3.46,0,0,0,1.81-.46,6.22,6.22,0,0,1,1.44-.44h.54A3.59,3.59,0,0,1,24,2l.24.16.06.06.07-.06L24.57,2a3.59,3.59,0,0,1,1.66-.61h.54a6.37,6.37,0,0,1,1.44.44,3.51,3.51,0,0,0,1.38.45H30l.18,0,.22,0h.18V2h-.26l-.1,0a1.46,1.46,0,0,1-.35,0,3.71,3.71,0,0,1-1.68-.39,4.75,4.75,0,0,0-1.49-.49l-.26,0h-.3a3.9,3.9,0,0,0-2,.77A3.79,3.79,0,0,0,22,1.16Z" transform="translate(-5.12)"/></g></svg>