<svg id="Layer_1" data-name="Layer 1" xmlns="http://www.w3.org/2000/svg" viewBox="0 0 186.55 60"><g id="logo-brand-black-vfsglobal"><path id="logo-color-vfs" d="M49.66,27.14c0-1.6-1.61-3.52-4.9-3.18a21.79,21.79,0,0,0-6.68,2.38l.36-1.46.78-4c.46-2.32.89-3.28,1.48-3.28.32,0,.56.22.74.63a1.32,1.32,0,0,0,1.25.94c.72,0,1.17-.62,1.17-1.45a2,2,0,0,0-2-2c-2.71,0-4.8,3.11-6,9l-.62,3a5.81,5.81,0,0,1-2.5.75,4.2,4.2,0,0,1-1.27-.19,7.44,7.44,0,0,0,.23-1.4c.05-1.68-1-2-1.6-2-.86,0-2,.37-2,2.24a2.87,2.87,0,0,0,1.62,2.29,3.34,3.34,0,0,1-.14.38c-.87,2.05-4.68,9.63-5.26,8.81-2.58-3.69.19-12.68.19-12.68a11.5,11.5,0,0,0-4.88-1.25,4.32,4.32,0,0,0-4.06,4.23c-.12,1.28.28,2,1.15,2.09s1.37-.51,1.44-1.41a1.38,1.38,0,0,0-.62-1.34c-.24-.19-.35-.3-.34-.52a.85.85,0,0,1,.9-.76l.47.11c.73.2,2.49.91,3.16.23-2.42,5-1.6,13.68,2.32,13.14,2.33-.31,4.78-5.81,7-10.66a9.29,9.29,0,0,0,3.52.25l.19,0-2,9.78c-.36,1.71-.94,4-1.82,4-.32,0-.48-.27-.72-.7s-.57-1-1.29-1a1.38,1.38,0,0,0-1,.47,1.37,1.37,0,0,0-.32,1A2.11,2.11,0,0,0,28.29,45a2.07,2.07,0,0,0,1.54.53c2.86,0,4.9-3.11,6.23-9.59l1.37-6.55a27.6,27.6,0,0,0,4.32-2.15A6.52,6.52,0,0,0,41.4,29c0,1.62,1,3.11,1.87,4.57a7.2,7.2,0,0,1,1.48,3.31,1.73,1.73,0,0,1-1.64,1.58c-.74,0-1-.63-1.28-1.25s-.59-1.34-1.42-1.34a1.46,1.46,0,0,0-1.25,1.62c0,1.46,1.39,2.57,3.22,2.57a4.28,4.28,0,0,0,4.36-4.46c0-1.94-1.12-3.7-2.11-5.24a6.91,6.91,0,0,1-1.31-2.71c0-1.37,1.93-2.28,3.12-2.21a3.08,3.08,0,0,1,1.16.23,1.59,1.59,0,0,0-.89,1.63,1.39,1.39,0,0,0,.42,1,1.43,1.43,0,0,0,1,.42,1.51,1.51,0,0,0,1.44-1.63Zm1.65,9.44a1.62,1.62,0,0,0-1.5-1.8,1.59,1.59,0,0,0-1.51,1.8,1.56,1.56,0,0,0,.4,1.16,1.6,1.6,0,0,0,1.11.52,1.53,1.53,0,0,0,1.12-.51,1.5,1.5,0,0,0,.38-1.18ZM34.39,60A30,30,0,1,1,64.44,30a30,30,0,0,1-30,30Zm0-58.57A28.57,28.57,0,1,0,63,30,28.58,28.58,0,0,0,34.39,1.43Zm79.34,37A1.3,1.3,0,0,0,115,37.41a1.29,1.29,0,1,0-2.18.67A1.34,1.34,0,0,0,113.73,38.46Zm-31.51-.22h.26l5.77-13.65h-2l-3,7.25a18.39,18.39,0,0,0-.8,2.41,22.73,22.73,0,0,0-.81-2.41l-3-7.25H76.3Zm8.7-.14H93v-5h5.73V31.26H93V26.44h6.3V24.59H90.93Zm14.74.18c2.55,0,4.39-1.37,4.39-3.73,0-2.16-1.24-3.23-3.54-4.25l-.87-.39c-1.37-.63-2-1.06-2-2.07a1.58,1.58,0,0,1,1.75-1.57,2.24,2.24,0,0,1,2.17,1.31l1.66-1a4,4,0,0,0-3.83-2.12,3.48,3.48,0,0,0-3.8,3.44c0,2,1.19,3.08,3.17,3.95l.89.4c1.47.65,2.27,1.16,2.27,2.34s-1,1.87-2.35,1.87a3.36,3.36,0,0,1-3.12-1.87l-1.69.91a5.08,5.08,0,0,0,4.87,2.8Zm17.82,0a8.12,8.12,0,0,0,5.27-1.73V31.27h-5.57v1.87h3.64v2.38a6.13,6.13,0,0,1-3.34.88,4.83,4.83,0,0,1-5.06-5,4.74,4.74,0,0,1,4.8-5,4.29,4.29,0,0,1,3.38,1.33L128,26.25a6.05,6.05,0,0,0-4.79-1.8,6.67,6.67,0,0,0-6.94,6.91c0,4,3,6.93,7.2,6.93Zm8.09-.18h8.36V36.25h-6.24V24.58h-2.1Zm20.67-6.76a4.82,4.82,0,1,1-9.64,0,4.83,4.83,0,1,1,9.64,0Zm2.16,0a7,7,0,1,0-7,6.93,6.8,6.8,0,0,0,7-6.93Zm9.16-3.2a1.64,1.64,0,0,1-1.86,1.71H159V26.43h2.67c1.31,0,1.87.69,1.87,1.7ZM159,31.63h2.94a2.2,2.2,0,0,1,2.5,2.3,2.16,2.16,0,0,1-2.41,2.3h-3.06ZM165.6,28c0-1.87-1.29-3.4-3.82-3.4h-4.92V38.09h5.27c2.85,0,4.39-1.74,4.39-4.07a3.31,3.31,0,0,0-2.76-3.44,2.56,2.56,0,0,0,1.83-2.6Zm10.45,5.16h-3.74l1.21-2.93q.38-1,.66-2a20.59,20.59,0,0,0,.67,2Zm4.2,5-5.92-13.64h-.25l-5.79,13.64h2L171.57,35h5.2L178,38.11Zm2.28,0h8.36V36.25h-6.24V24.58h-2.12Z" transform="translate(-4.35)"/></g></svg>