<?xml version="1.0" encoding="utf-8"?>
<!-- Generator: Adobe Illustrator 23.0.1, SVG Export Plug-In . SVG Version: 6.00 Build 0)  -->
<svg version="1.1" id="Layer_1" xmlns="http://www.w3.org/2000/svg" xmlns:xlink="http://www.w3.org/1999/xlink" x="0px" y="0px"
	 viewBox="0 0 240 240" style="enable-background:new 0 0 240 240;" xml:space="preserve">
<style type="text/css">
	.st0{fill:#FFFFFF;}
</style>
<g>
	<path class="st0" d="M167.3,107.6c-3.3,0-6.6,0.7-9.5,2.2c-2.9,1.4-5.3,3.5-7.2,6.2c-1.9,2.7-2.8,6.3-2.8,10.7
		c-0.1,2.9,0.4,5.9,1.4,8.7c0.8,2.3,2.1,4.3,3.8,6c1.6,1.5,3.5,2.7,5.7,3.4c2.3,0.8,4.6,1.1,7,1.1c1.3,0,2.4-0.1,3.5-0.2
		c1.1,0.1,2-0.1,3-0.4v-37c-0.8-0.2-1.5-0.3-2.3-0.4C169.2,107.7,168.2,107.6,167.3,107.6z"/>
	<path class="st0" d="M185.2,21.5H54.8C35,21.5,19,37.5,19,57.3v125.4c0,19.8,16,35.8,35.8,35.8h130.5c19.8,0,35.8-16,35.8-35.8
		V57.3C221,37.5,205,21.5,185.2,21.5z M127.1,160.1c-0.1,0.3-0.4,0.1-0.9,0.2h-19.3c-1.3,0-2.3-0.1-2.9-0.9c-1.8-3.5-3.6-7-5.4-10.5
		c-1.8-3.5-3.7-7-5.7-10.6c-2-3.6-4-7.2-6.1-10.9h-0.2c-1.8,3.6-3.7,7.2-5.6,10.9s-3.9,7.2-5.7,10.8c-1.9,3.5-3.9,7.2-5.8,10.6
		c-0.3,0.8-1,0.9-1.9,0.9H49c-0.3,0-0.6,0.2-0.6-0.3c-0.1-0.3,0-0.7,0.2-0.9l26.2-42.9L49.3,73.2c-0.3-0.3-0.3-0.7-0.2-0.8
		c0.2-0.3,0.5-0.3,0.8-0.3h19.1c0.4,0,0.8,0.1,1.2,0.2c0.3,0.2,0.6,0.4,0.8,0.8c1.6,3.6,3.5,7.2,5.4,10.9c2,3.6,4,7.2,6.1,10.7
		c2,3.5,3.9,7.1,5.6,10.7h0.2c1.8-3.7,3.6-7.3,5.5-10.9c1.9-3.5,3.8-7.1,5.7-10.6c1.9-3.5,3.8-7.2,5.6-10.6c0.1-0.3,0.3-0.7,0.5-0.8
		c0.3-0.2,0.7-0.3,1.1-0.2h17.8c0.4-0.1,0.8,0.2,0.9,0.6c0.1,0.1-0.1,0.4-0.3,0.6L100,114.9l26.9,44.2
		C127.1,159.5,127.2,159.8,127.1,160.1z M190.8,156.9c-4.4,1.9-9,3.2-13.7,4c-4.3,0.8-8.6,1.2-13,1.2c-6.2,0.1-12.5-1.2-18.1-3.8
		c-5.3-2.4-9.7-6.5-12.7-11.4c-3.1-5.1-4.6-11.5-4.6-19.2c-0.1-6.2,1.5-12.4,4.6-17.8c3.2-5.5,7.8-10,13.4-13
		c5.9-3.3,13-4.9,21.3-4.9c0.4,0,1,0,1.8,0.1c0.8,0.1,1.6,0.1,2.6,0.2V65.6c0-0.6,0.3-0.9,0.8-0.9h17.1c0.4-0.1,0.8,0.3,0.8,0.6
		c0,0.1,0,0.2,0,0.2v80.1c0,1.5,0.1,3.2,0.2,5.1c0.2,1.8,0.3,3.5,0.3,4.9C191.6,156.1,191.4,156.6,190.8,156.9z"/>
</g>
</svg>
