<?xml version="1.0" encoding="utf-8"?>
<!-- Generator: Adobe Illustrator 23.0.1, SVG Export Plug-In . SVG Version: 6.00 Build 0)  -->
<svg version="1.1" id="Layer_1" xmlns="http://www.w3.org/2000/svg" xmlns:xlink="http://www.w3.org/1999/xlink" x="0px" y="0px"
	 viewBox="0 0 240 240" style="enable-background:new 0 0 240 240;" xml:space="preserve">
<style type="text/css">
	.st0{fill:#FFFFFF;}
</style>
<g>
	<path class="st0" d="M90.9,109.3c-0.8-2.6-1.6-5.1-2.4-7.7c-0.8-2.6-1.6-5-2.3-7.5c-0.7-2.4-1.3-4.5-1.9-6.6h-0.2
		c-0.8,3.6-1.7,7.2-2.9,10.9c-1.3,4-2.5,8.2-3.9,12.5c-1.1,4.3-2.4,8.2-3.7,11.8h21.4c-0.5-1.8-1.2-3.9-1.9-6.1
		C92.4,114.3,91.6,111.8,90.9,109.3z"/>
	<path class="st0" d="M163.1,106.9c-4.6-0.3-9,2.2-11.2,6.4c-1,1.9-1.6,4-1.9,6.1h17.8c2.2,0,3.8,0,4.8-0.1c0.7-0.1,1.3-0.3,1.9-0.7
		v-0.8c0-1.1-0.2-2.1-0.5-3.1C172.5,109.9,168.1,106.7,163.1,106.9z"/>
	<path class="st0" d="M185.2,21.5H54.8C35,21.5,19,37.5,19,57.3v125.4c0,19.8,16,35.8,35.8,35.8h130.5c19.8,0,35.8-16,35.8-35.8
		V57.3C221,37.5,205,21.5,185.2,21.5z M126,160.5h-17.6c-0.6,0.1-1.2-0.3-1.3-0.9l-6.9-20.2H68.8l-6.4,19.9
		c-0.2,0.8-0.8,1.3-1.6,1.2H45c-0.9,0-1.2-0.5-0.9-1.5l27.1-77.7c0.3-0.8,0.5-1.6,0.8-2.6c0.3-1.8,0.5-3.6,0.5-5.5
		c-0.1-0.4,0.3-0.8,0.7-0.9c0.1,0,0.2,0,0.3,0H95c0.6,0,1,0.3,1.1,0.7l30.7,86.3C127.1,160.1,126.8,160.5,126,160.5z M192,126.9
		c-0.2,1.6-0.3,2.8-0.3,3.5c-0.1,0.6-0.6,1.1-1.2,1.1c-0.5,0-1.4,0.1-2.8,0.2c-1.3,0.2-2.9,0.3-4.9,0.3s-4-0.3-6.1-0.3H150
		c0.3,2.6,1.2,5.2,2.6,7.5c1.5,2.3,3.6,4,6.1,5c3.4,1.4,7.1,2.2,10.8,2.1c2.9-0.1,5.9-0.3,8.8-0.9c2.6-0.3,5.1-1,7.5-1.9
		c0.4-0.3,0.7-0.2,0.7,0.7v12.9c0,0.3-0.1,0.7-0.2,1c-0.2,0.3-0.3,0.4-0.6,0.6c-2.7,1.2-5.5,2-8.4,2.5c-4,0.8-7.9,1.1-12,1
		c-6.4,0-11.8-1-16.2-2.9c-4.1-1.8-7.7-4.5-10.6-8c-2.7-3.3-4.6-7-5.8-11c-1.2-4-1.8-8.1-1.8-12.3c0-4.5,0.7-9,2.1-13.4
		c1.3-4.2,3.5-8.1,6.3-11.5c2.8-3.4,6.2-6.1,10.2-8s8.7-2.6,14.1-2.6c4.5-0.1,8.9,0.8,13,2.6c3.5,1.5,6.5,3.8,8.8,6.7
		c2.2,2.9,4,6.1,5.1,9.6c1.1,3.4,1.6,6.8,1.6,10.3C192.2,123.5,192.1,125.3,192,126.9z"/>
</g>
</svg>
