<?xml version="1.0" encoding="utf-8"?>
<!-- Generator: Adobe Illustrator 23.0.1, SVG Export Plug-In . SVG Version: 6.00 Build 0)  -->
<svg version="1.1" id="Layer_1" xmlns="http://www.w3.org/2000/svg" xmlns:xlink="http://www.w3.org/1999/xlink" x="0px" y="0px"
	 viewBox="0 0 240 240" style="enable-background:new 0 0 240 240;" xml:space="preserve">
<style type="text/css">
	.st0{fill:#FFFFFF;}
</style>
<g>
	<path class="st0" d="M107.6,109.3c-0.8-2.6-1.6-5.1-2.4-7.7c-0.8-2.6-1.6-5.1-2.3-7.5c-0.7-2.4-1.3-4.5-1.9-6.6h-0.2
		c-0.8,3.6-1.7,7.2-2.9,10.9c-1.3,4-2.5,8.2-3.9,12.5c-1.2,4.3-2.4,8.2-3.7,11.8h21.4c-0.5-1.8-1.2-3.9-1.9-6.1
		C109.1,114.3,108.4,111.8,107.6,109.3z"/>
	<path class="st0" d="M185.2,21.5H54.8C35,21.5,19,37.5,19,57.3v125.4c0,19.8,16,35.8,35.8,35.8h130.5c19.8,0,35.8-16,35.8-35.8
		V57.3C221,37.5,205,21.5,185.2,21.5z M142.7,160.7h-17.6c-0.6,0.1-1.2-0.3-1.3-0.9l-6.9-20H85.6l-6.4,19.8
		c-0.2,0.8-0.8,1.3-1.6,1.2H61.8c-0.9,0-1.2-0.5-0.9-1.5l27.1-78c0.3-0.8,0.5-1.8,0.8-2.8c0.3-1.8,0.5-3.6,0.5-5.5
		c-0.1-0.4,0.3-0.8,0.7-0.9c0.1,0,0.2,0,0.3,0h21.5c0.7,0,1,0.3,1.1,0.7l30.7,86.7C143.8,160.2,143.6,160.7,142.7,160.7z
		 M171.3,159.4c0,0.9-0.3,1.3-1.1,1.3h-16.5c-0.8,0-1.3-0.5-1.3-1.3V94.6c0-0.8,0.3-1.2,1.1-1.2h16.7c0.8,0,1.1,0.4,1.1,1.2V159.4z
		 M169.6,83.4c-1.9,2-4.8,3.1-7.7,2.9c-2.8,0.1-5.5-1-7.5-2.9c-1.9-2.1-2.9-4.9-2.9-7.7c-0.1-2.9,1-5.6,3-7.5c2-1.9,4.7-2.9,7.5-2.9
		c3.3,0,5.8,1,7.7,2.9c1.9,2,2.9,4.7,2.8,7.5C172.6,78.5,171.6,81.3,169.6,83.4z"/>
</g>
</svg>
