<?xml version="1.0" encoding="utf-8"?>
<!-- Generator: Adobe Illustrator 23.0.1, SVG Export Plug-In . SVG Version: 6.00 Build 0)  -->
<svg version="1.1" id="Layer_1" xmlns="http://www.w3.org/2000/svg" xmlns:xlink="http://www.w3.org/1999/xlink" x="0px" y="0px"
	 viewBox="0 0 240 240" style="enable-background:new 0 0 240 240;" xml:space="preserve">
<style type="text/css">
	.st0{fill:#FFFFFF;}
</style>
<path class="st0" d="M185.2,21.5H54.8C35,21.5,19,37.5,19,57.3v125.4c0,19.8,16,35.8,35.8,35.8h130.5c19.8,0,35.8-16,35.8-35.8V57.3
	C221,37.5,205,21.5,185.2,21.5z M128.8,144.8l-2.4,14.6c0,0.4-0.3,0.8-0.5,1c-0.3,0.2-0.5,0.3-0.8,0.3H71.7c-0.9,0-1.3-0.5-1.3-1.5
	v-86c-0.1-0.6,0.3-1.1,0.9-1.2c0.1,0,0.2,0,0.3,0h16.5c0.4-0.1,0.9,0.3,0.9,0.7c0,0.1,0,0.2,0,0.3v70.7h38.9
	C128.8,143.7,129,144.1,128.8,144.8z M179,93.3v16.4c0,0.7-0.4,0.9-1.3,0.9c-5.5-0.3-10.9,0.7-15.9,2.9c-1.7,0.8-3.3,1.8-4.5,3.1
	v42.9c0,0.8-0.3,1.2-1.1,1.2h-16.4c-0.7,0.1-1.3-0.3-1.3-1c0-0.1,0-0.3,0-0.3v-46.6c0-2,0-4.1-0.1-6.3c-0.1-2.2-0.1-4.4-0.2-6.6
	c-0.1-1.9-0.3-3.7-0.5-5.6c-0.1-0.4,0.2-0.8,0.6-0.9c0.1-0.1,0.2-0.1,0.3,0h14.7c0.8,0,1.5,0.6,1.8,1.3c0.3,0.6,0.6,1.3,0.7,1.9
	c0.2,0.8,0.3,1.8,0.4,2.6c0.1,0.9,0.2,1.9,0.2,3c2.5-2.9,5.6-5.4,9-7.2c3.9-2.1,8.2-3.1,12.5-3c0.6-0.1,1.1,0.3,1.2,0.9
	C179,93.1,179,93.2,179,93.3z"/>
</svg>
