<?xml version="1.0" encoding="utf-8"?>
<!-- Generator: Adobe Illustrator 23.0.1, SVG Export Plug-In . SVG Version: 6.00 Build 0)  -->
<svg version="1.1" id="Layer_1" xmlns="http://www.w3.org/2000/svg" xmlns:xlink="http://www.w3.org/1999/xlink" x="0px" y="0px"
	 viewBox="0 0 240 240" style="enable-background:new 0 0 240 240;" xml:space="preserve">
<style type="text/css">
	.st0{fill:#FFFFFF;}
</style>
<g>
	<path class="st0" d="M101.9,89.9c-3.1-1.3-6.5-1.8-9.9-1.7c-2.2,0-4.1,0-5.7,0.1c-1.7-0.1-2.9,0-3.5,0.1v28.3
		c1.2,0.1,2.3,0.2,3.3,0.2h4.5c3.3,0,6.6-0.5,9.7-1.5c2.7-0.8,5.1-2.4,6.9-4.5c1.8-2.1,2.6-5,2.6-8.7c0.1-2.6-0.6-5.2-1.9-7.5
		C106.4,92.5,104.3,90.8,101.9,89.9z"/>
	<path class="st0" d="M185.2,21.5H54.8C35,21.5,19,37.5,19,57.3v125.4c0,19.8,16,35.8,35.8,35.8h130.5c19.8,0,35.8-16,35.8-35.8
		V57.3C221,37.5,205,21.5,185.2,21.5z M123,119.6c-3.4,4.7-8.1,8.2-13.6,10.3c-5.7,2.1-12,2.9-18.9,2.9c-2,0-3.4,0-4.2-0.1
		c-0.8-0.1-2-0.1-3.6-0.1v27c0.1,0.6-0.3,1.1-0.9,1.2c-0.1,0-0.2,0-0.3,0h-16c-0.7,0-1-0.3-1-1.1V73c0-0.6,0.3-0.9,0.8-0.9
		c1.4,0,2.8,0,4.7-0.1c2-0.1,4.1-0.1,6.4-0.2c2.3-0.1,4.7-0.1,7.3-0.2c2.6-0.1,5.1-0.1,7.7-0.1c6.9,0,12.6,0.8,17.3,2.6
		c4.2,1.4,8.1,3.8,11.3,6.9c2.7,2.7,4.8,6,6.1,9.6c1.3,3.5,1.9,7.2,1.9,10.9C128.1,108.9,126.4,114.9,123,119.6z M182.7,152.3
		c-2.4,3.4-5.6,6-9.4,7.5c-4.1,1.8-9.2,2.7-15.2,2.7c-3.9,0-7.7-0.3-11.4-1.1c-2.9-0.5-5.9-1.4-8.6-2.7c-0.6-0.3-1-0.9-0.9-1.6
		v-14.6c0-0.3,0.1-0.6,0.3-0.8c0.3-0.2,0.5-0.1,0.8,0.1c3.3,1.9,6.7,3.3,10.4,4.1c3.2,0.8,6.6,1.3,9.9,1.3c3.2,0,5.5-0.4,7-1.2
		c1.3-0.6,2.3-2,2.3-3.5c0-1.2-0.7-2.3-2-3.4c-1.3-1.1-4.1-2.4-8.2-4c-4.3-1.5-8.2-3.5-12-6.1c-2.6-1.9-4.8-4.3-6.4-7.2
		c-1.3-2.7-2-5.6-1.9-8.6c0-3.6,1-7.1,2.9-10.2c2.1-3.4,5.2-6.1,8.8-7.7c4-2,8.9-2.9,14.9-2.9c3.5,0,7,0.3,10.4,0.8
		c2.5,0.3,5,1,7.2,1.9c0.3,0.1,0.7,0.4,0.8,0.8c0.1,0.3,0.2,0.7,0.2,1v13.7c0,0.3-0.2,0.7-0.4,0.8c-0.8,0.2-1.2,0.2-1.5,0
		c-2.5-1.3-5.2-2.3-8.1-2.9c-3.1-0.7-6.2-1.1-9.4-1.1c-1.7-0.1-3.5,0.2-5,0.6c-1.1,0.3-2,0.8-2.6,1.7c-0.4,0.7-0.7,1.5-0.7,2.3
		c0,0.8,0.3,1.5,0.8,2.2c0.8,0.9,1.8,1.7,2.9,2.3c1.9,1,4,1.9,6,2.8c4.5,1.5,8.9,3.6,13,6.1c2.8,1.8,5.1,4.1,6.6,7
		c1.3,2.7,2,5.6,1.9,8.7C186.1,145.1,184.9,149,182.7,152.3z"/>
</g>
</svg>
