<?xml version="1.0" encoding="utf-8"?>
<!-- Generator: Adobe Illustrator 23.0.1, SVG Export Plug-In . SVG Version: 6.00 Build 0)  -->
<svg version="1.1" id="Layer_1" xmlns="http://www.w3.org/2000/svg" xmlns:xlink="http://www.w3.org/1999/xlink" x="0px" y="0px"
	 viewBox="0 0 240 240" style="enable-background:new 0 0 240 240;" xml:space="preserve">
<style type="text/css">
	.st0{fill:#FFFFFF;}
</style>
<g id="Page-1">
	<g id="ic-technology-microsoft-dot-net">
		<path id="Combined-Shape" class="st0" d="M220.1,80.7c-27.2,47.8-43.6,76.5-59.9,76.5c-0.9,0-1.7-0.1-2.4-0.4l0,0l0.3-0.1l0.1,0
			l-0.1,0l-0.1,0h0l-0.2,0c-2.2-0.8-4.1-2.7-5.7-5.4c0,0,0,0,0,0v0c1.6,2.7,3.4,4.6,5.7,5.4h0h0.1c0.8,0.3,1.6,0.4,2.4,0.4l-6.2,0v0
			h-16.8c0.7,0,1.4,0,2.1,0l-1,0l0,0h-1.1c-1.2,0-2.3-0.1-3.4-0.3c-0.3-0.1-0.6-0.1-0.8-0.2l-0.8-0.2c0.5,0.2,1.1,0.3,1.6,0.4
			c1.1,0.2,2.2,0.3,3.4,0.3h-16.7l0,0c1.2,0,2.4-0.1,3.7-0.3l-1.2,0.1c-0.8,0.1-1.6,0.1-2.4,0.1c-21.1,0-23.8-38.8-31-60.5
			c-5.1,5-10.2,11.1-15.3,18.2c2.6-7.9,4.7-14,6.8-18.7l0,0.1l0,0c-2.1,4.6-4.2,10.7-6.7,18.6c-2.1,6.5-4.5,14.2-7.4,23.3
			c-3.9,12.1-11.6,20.4-28.5,20.9l1.1,0h-0.2h-0.1l-0.2,0.1h0l-0.6,0.1h-2.8l-6.1,0h-0.9c0.8-6.4,2-12.4,3.5-18.1
			c16.7-31.7,24.7-51.8,38.7-57.2l0,0l0.1,0l0.3-0.1l0.1,0l0.3-0.1l0.6-0.2l0.1,0l0.3-0.1l0.1,0l0.3-0.1l0.1,0l0.9-0.2l0.1,0l0.3,0
			l0.1,0l0.3-0.1h0.1l0.5-0.1l0.1,0l0.3,0l0.1,0l0.2,0h-0.1h-0.1l-0.2,0l-0.3,0h-0.1l-0.6,0.1h-0.1l-0.3,0l-0.1,0.1l-0.3,0l-0.1,0
			l-0.9,0.2l-0.1,0l-0.3,0.1l-0.1,0l-0.3,0.1l-0.1,0l-0.6,0.2l0,0l-0.3,0.1L71,83.8h0l-0.3,0.1h0l0,0l0,0l0,0l-0.7,0.3
			C56.3,90.1,48.4,110,32,141.1c1.3-4.9,2.7-9.4,4.4-13.8l-0.5,1.4c-1.4,3.9-2.7,8-3.8,12.3c-3,5.7-6.3,11.7-9.9,18.1l0,0h-2.2
			c11.4-43.3,36.6-76.8,55-76.8c0.6,0,1.2,0,1.7,0.1l0,0l-0.3,0h0.3l0,0h0.1h0.4h0.3l0,0l0.7,0c0.4,0,0.7,0,1.1,0H100l0,0l0,0h6.7
			c0.8-0.1,1.6-0.1,2.4-0.1c0.3,0,0.6,0,0.9,0l-1,0l0,0l8.3,0c-1.3,0-2.6,0.1-4,0.3c1.3-0.2,2.6-0.3,4-0.3
			c21.2,0,23.9,39.3,31.2,60.9c-1.8,1.7-3.5,3.2-5.3,4.6l0.8-0.6c1.5-1.2,3-2.5,4.5-4l0,0l0,0c0,0,0,0,0,0c3.8-8.4,7.7-21.6,14.2-42
			c3.7-11.7,11.1-19.6,26.8-20.5h0v0l1.6-0.1h10l0,0h6.3c-22.5,39.6-29.8,66.1-44.1,74h0h0l0.6-0.4c13.7-8.2,21.1-33.8,42.4-71.8
			l1-1.8h2c-0.1,0.5-0.3,1.1-0.4,1.6l0.4-1.6l0,0H220.1z M32,141.1c-1.5,5.7-2.7,11.8-3.5,18.1l0,0h-6.4
			C25.7,152.8,29,146.8,32,141.1L32,141.1z"/>
	</g>
</g>
</svg>
