<?xml version="1.0" encoding="utf-8"?>
<!-- Generator: Adobe Illustrator 23.0.1, SVG Export Plug-In . SVG Version: 6.00 Build 0)  -->
<svg version="1.1" id="Layer_1" xmlns="http://www.w3.org/2000/svg" xmlns:xlink="http://www.w3.org/1999/xlink" x="0px" y="0px"
	 viewBox="0 0 240 240" style="enable-background:new 0 0 240 240;" xml:space="preserve">
<style type="text/css">
	.st0{fill:#FFFFFF;}
</style>
<g>
	<path class="st0" d="M119.9,224.1c-0.1-0.4-0.5-0.6-0.7-0.8c-20.8-20.8-41.6-41.6-62.4-62.4c-0.8-0.8-0.8-0.8,0-1.7
		c7.3-7.3,14.6-14.6,21.9-21.9c0.9-0.9,0.7-0.9,1.6,0c13,13,25.9,25.9,38.9,38.9c0.8,0.8,0.8,0.8,1.6,0c13-13,26-26,39-39
		c0.7-0.7,0.7-0.7,1.5,0c7.3,7.3,14.7,14.7,22,22c0.2,0.2,0.5,0.4,0.7,0.6c-0.2,0.4-0.5,0.6-0.7,0.8c-6.8,6.8-13.5,13.5-20.3,20.3
		c-14.1,14.1-28.1,28.1-42.2,42.2c-0.3,0.3-0.6,0.4-0.6,0.9C120,224.1,120,224.1,119.9,224.1z"/>
	<path class="st0" d="M224.1,120c-0.3,0.1-0.5,0.4-0.7,0.6c-7.4,7.4-14.8,14.8-22.2,22.2c-0.2,0.2-0.4,0.4-0.6,0.5
		c-7.8-7.8-15.6-15.6-23.4-23.4c7.7-7.7,15.6-15.6,23.4-23.4c0.2,0.1,0.4,0.4,0.6,0.6c7.5,7.5,15.1,15.1,22.6,22.6
		c0,0,0.1,0,0.1,0.1C224.1,119.9,224.1,119.9,224.1,120z"/>
	<path class="st0" d="M184,79.6c-8,8-15.8,15.8-23.6,23.6c-13.4-13.4-26.9-26.9-40.3-40.3c-0.4,0.1-0.6,0.5-0.9,0.7
		c-13,12.9-25.9,25.9-38.9,38.8c-1,1-0.7,1-1.7,0c-7.3-7.3-14.7-14.7-22-22c-0.7-0.7-0.8-0.6,0-1.3c20.9-20.9,41.8-41.8,62.7-62.7
		c0.8-0.8,0.6-0.8,1.4,0c20.9,20.9,41.8,41.8,62.7,62.7C183.5,79.3,183.8,79.4,184,79.6z"/>
	<path class="st0" d="M143.7,119.9c-7.9,7.9-15.8,15.8-23.8,23.8c-0.2-0.1-0.4-0.3-0.6-0.5c-7.5-7.5-15.1-15.1-22.6-22.6
		c-0.1-0.1-0.2-0.3-0.4-0.4c-0.2-0.2-0.2-0.3,0-0.5c0.1-0.1,0.2-0.2,0.4-0.4c7.5-7.5,15.1-15.1,22.6-22.6c0.2-0.2,0.4-0.5,0.6-0.5
		C127.9,104.1,135.8,112,143.7,119.9z"/>
	<path class="st0" d="M39.1,143.4c-0.1-0.2-0.3-0.4-0.5-0.6c-7.4-7.4-14.8-14.8-22.1-22.2c-0.1-0.1-0.1-0.1-0.2-0.2
		c-0.5-0.5-0.5-0.5,0-1.1c7.5-7.5,15.1-15.1,22.6-22.6c0.1-0.1,0.3-0.2,0.4-0.3c0.3,0.1,0.5,0.4,0.7,0.6
		c7.4,7.4,14.9,14.8,22.3,22.3c0.1,0.1,0.2,0.3,0.4,0.4c0.2,0.2,0.2,0.3,0,0.5c-0.1,0.1-0.3,0.3-0.4,0.4
		c-7.4,7.4-14.8,14.8-22.2,22.2C39.8,143,39.6,143.2,39.1,143.4z"/>
</g>
</svg>
