<?xml version="1.0" encoding="utf-8"?>
<!-- Generator: Adobe Illustrator 23.0.1, SVG Export Plug-In . SVG Version: 6.00 Build 0)  -->
<svg version="1.1" id="Layer_1" xmlns="http://www.w3.org/2000/svg" xmlns:xlink="http://www.w3.org/1999/xlink" x="0px" y="0px"
	 viewBox="0 0 240 240" style="enable-background:new 0 0 240 240;" xml:space="preserve">
<style type="text/css">
	.st0{fill:#F2F2F2;}
	.st1{fill:#FFFFFF;}
	.st2{fill:#E0E0E0;}
</style>
<g>
	<path class="st0" d="M120.2,22.4c9.6,15.9,19.2,31.9,28.8,47.8c10.2,16.9,20.4,33.9,30.6,50.8c0.1,0.2,0.6,0.5,0.2,0.9
		c-1.9-0.6-3.7-1.6-5.5-2.4c-5.1-2.3-10.1-4.6-15.2-6.9c-4.9-2.2-9.8-4.4-14.7-6.7c-5.5-2.5-11.1-5-16.6-7.5c-2.5-1.1-5-2.2-7.5-3.4
		c-0.2-0.1-0.4-0.2-0.6-0.4c0-0.1-0.1-0.2-0.1-0.3c0-0.3,0-0.7,0-1c0-23.1,0-46.2,0-69.3C119.8,23.4,119.5,22.8,120.2,22.4z"/>
	<path class="st1" d="M60.2,121.9c-0.4-0.4,0.1-0.6,0.2-0.9c3.2-5.3,6.4-10.6,9.6-15.9c9-14.9,18-29.9,27-44.8
		c7.5-12.4,15-24.9,22.5-37.3c0.1-0.1,0.1-0.2,0.2-0.3c0.2,0,0.2,0.1,0.3,0.3c0,0.3,0,0.5,0,0.8c0,23.5,0,46.9,0,70.4
		c0,0.1,0,0.2,0,0.3c-0.1,0.5-0.5,0.6-0.9,0.8c-3.5,1.6-7,3.2-10.5,4.8c-4.3,1.9-8.5,3.9-12.8,5.8c-4.9,2.2-9.9,4.5-14.8,6.7
		c-4.1,1.9-8.2,3.7-12.3,5.6C65.7,119.4,63,120.8,60.2,121.9z"/>
	<path class="st2" d="M120,94.7c1,0.1,1.8,0.7,2.6,1.1c5.6,2.5,11.2,5.1,16.8,7.7c6.5,3,13.1,6,19.6,8.9c5.9,2.7,11.7,5.3,17.6,8
		c1.1,0.5,2.2,0.8,3.2,1.6c-6.3,3.8-12.7,7.5-19,11.3c-13.3,7.9-26.6,15.7-39.9,23.6c-0.3,0.2-0.5,0.4-0.9,0.4
		c-0.4-0.5-0.2-1-0.2-1.5c0-15.2,0-30.3,0-45.5c0-4.7,0-9.5,0-14.2C119.8,95.5,119.7,95.1,120,94.7z"/>
	<path class="st0" d="M60.2,121.9c0.9-0.9,2.2-1.2,3.3-1.7c3.4-1.6,6.9-3.1,10.4-4.7c5.7-2.6,11.4-5.2,17.1-7.8
		c4.2-1.9,8.4-3.8,12.6-5.8c5.3-2.4,10.7-4.9,16-7.3c0.1,0,0.2,0,0.3,0c0.2,0.3,0.1,0.6,0.1,1c0,20.1,0,40.3,0,60.4
		c0,0.3,0.3,0.8-0.3,1c-3.9-2.3-7.7-4.5-11.6-6.8c-15.7-9.3-31.4-18.6-47.1-27.9C60.7,122.2,60.4,122.1,60.2,121.9z"/>
	<path class="st0" d="M120,168.7c10-5.9,20-11.8,30-17.7c9.7-5.7,19.3-11.4,29-17.1c0.2-0.1,0.4-0.3,0.7-0.3
		c0.1,0.3-0.2,0.5-0.3,0.7c-19.7,27.7-39.3,55.4-59,83.1c-0.1,0.1-0.1,0.1-0.2,0.2c-0.4,0-0.3-0.4-0.4-0.6c-0.1-0.3,0-0.7,0-1
		c0-15.3,0-30.6,0-45.8C119.8,169.7,119.6,169.1,120,168.7z"/>
	<path class="st1" d="M119.7,217.4c-2.9-4.1-5.9-8.3-8.8-12.4c-11.7-16.5-23.4-32.9-35.1-49.4c-5.1-7.1-10.1-14.3-15.2-21.4
		c-0.1-0.2-0.3-0.4-0.5-0.7c0.9,0.2,1.6,0.7,2.3,1.2c18.8,11.1,37.6,22.2,56.4,33.3c0.4,0.2,0.7,0.4,1.1,0.7
		c0.2,0.3,0.1,0.6,0.1,0.9c0,15.7,0,31.4,0,47.1C119.9,216.8,120.1,217.2,119.7,217.4z"/>
	<path class="st1" d="M119.8,94.5c0-23.6,0-47.1,0-70.7c0-0.4,0.1-0.8-0.2-1.1c0.2-0.1,0-0.7,0.5-0.3c-0.3,0.3-0.1,0.7-0.1,1.1
		c0,23.7,0,47.3,0,71C120,94.6,119.9,94.6,119.8,94.5z"/>
	<path class="st0" d="M119.8,94.5c0.1,0,0.1,0,0.2,0c0,0.1,0,0.1,0,0.2c0,20.8,0,41.7,0,62.5c-0.2,0-0.3,0-0.4-0.2
		c0.4-0.3,0.2-0.8,0.2-1.2c0-20.4,0-40.8,0-61.2C119.8,94.6,119.8,94.6,119.8,94.5z"/>
	<path class="st1" d="M119.7,217.4c0.2-0.3,0.1-0.6,0.1-0.9c0-16,0-31.9,0-47.9c0.1,0,0.1,0,0.2,0c0,2,0,4,0,6.1c0,14,0,27.9,0,41.9
		c0,0.3-0.1,0.7,0.2,1C119.9,217.8,119.9,217.8,119.7,217.4z"/>
</g>
</svg>
