<?xml version="1.0" encoding="utf-8"?>
<!-- Generator: Adobe Illustrator 23.0.1, SVG Export Plug-In . SVG Version: 6.00 Build 0)  -->
<svg version="1.1" id="Layer_1" xmlns="http://www.w3.org/2000/svg" xmlns:xlink="http://www.w3.org/1999/xlink" x="0px" y="0px"
	 viewBox="0 0 240 240" style="enable-background:new 0 0 240 240;" xml:space="preserve">
<style type="text/css">
	.st0{fill:#FFFFFF;}
</style>
<g>
	<path class="st0" d="M121.6,221c-0.1,0-0.3,0-0.4,0C121.3,221,121.4,221,121.6,221z"/>
	<path class="st0" d="M117.5,221c-0.1,0-0.2,0-0.2,0C117.4,221,117.5,221,117.5,221z"/>
	<path class="st0" d="M118.8,221c-0.1,0-0.2,0-0.3,0C118.6,221,118.7,221,118.8,221z"/>
	<path class="st0" d="M125.9,220.8c-0.8,0-1.7,0.1-2.5,0.1C124.3,220.9,125.1,220.9,125.9,220.8z"/>
	<path class="st0" d="M122.8,221c-0.2,0-0.3,0-0.5,0C122.5,221,122.7,221,122.8,221z"/>
	<path class="st0" d="M133.1,220.2c-0.4,0-0.7,0.1-1.1,0.1C132.4,220.3,132.7,220.2,133.1,220.2z"/>
	<path class="st0" d="M120,19C64.2,19,19,64.2,19,120c0,50.4,36.9,92.2,85.2,99.8v-70.6H78.6V120h25.7V97.7
		c0-25.3,15.1-39.3,38.2-39.3c11.1,0,22.6,2,22.6,2v24.9h-12.7c-12.6,0-16.5,7.8-16.5,15.8V120h28l-4.5,29.2h-23.5v70.6
		c48.3-7.6,85.2-49.4,85.2-99.8C221,64.2,175.8,19,120,19z"/>
	<path class="st0" d="M131.9,220.3c-0.3,0-0.6,0.1-0.9,0.1C131.3,220.4,131.6,220.4,131.9,220.3z"/>
	<path class="st0" d="M130.9,220.4c-1.6,0.2-3.2,0.3-4.9,0.4C127.7,220.7,129.3,220.6,130.9,220.4z"/>
</g>
</svg>
