<?xml version="1.0" encoding="utf-8"?>
<!-- Generator: Adobe Illustrator 23.0.1, SVG Export Plug-In . SVG Version: 6.00 Build 0)  -->
<svg version="1.1" id="Layer_1" xmlns="http://www.w3.org/2000/svg" xmlns:xlink="http://www.w3.org/1999/xlink" x="0px" y="0px"
	 viewBox="0 0 240 240" style="enable-background:new 0 0 240 240;" xml:space="preserve">
<style type="text/css">
	.st0{fill:#FFFFFF;}
</style>
<g>
	<path class="st0" d="M120,85.3c19.9,20,39.7,39.9,59.6,59.8c2.9,2.9,6.1,5.6,9.2,8.4c-0.2,0.5-0.5,0.9-0.7,1.4c-22.5,0-45,0-68,0
		c0,23.4,0,46.1,0,70.2c-2.3-2-3.6-3.1-4.8-4.3c-20.8-20.8-41.7-41.7-62.5-62.6c-1.4-1.4-2.7-3.6-2.7-5.4c-0.2-21.5-0.1-43-0.1-64.5
		c0-0.7,0.2-1.3,0.4-2.9c23.2,0,46.4,0,69.7,0L120,85.3z"/>
	<path class="st0" d="M120.1,85.4c-11.7-11.9-23.3-23.7-35-35.5C75,39.6,64.8,29.6,54.7,19.4c-1-1-1.9-2.1-3.6-4
		c2.6-0.2,4.3-0.4,6-0.4c42.3,0,84.6,0,126.9-0.1c4.4,0,6.1,1,6,5.8c-0.3,19.5-0.1,39-0.1,58.4c0,1.8-0.2,3.6-0.3,6.1
		c-23.5,0-46.6,0-69.7,0C120,85.3,120.1,85.4,120.1,85.4z"/>
</g>
</svg>
