<?xml version="1.0" encoding="utf-8"?>
<!-- Generator: Adobe Illustrator 23.0.1, SVG Export Plug-In . SVG Version: 6.00 Build 0)  -->
<svg version="1.1" id="Layer_1" xmlns="http://www.w3.org/2000/svg" xmlns:xlink="http://www.w3.org/1999/xlink" x="0px" y="0px"
	 viewBox="0 0 240 240" style="enable-background:new 0 0 240 240;" xml:space="preserve">
<style type="text/css">
	.st0{fill:#E5E5E5;}
	.st1{fill:#D1D1D1;}
	.st2{fill:#FFFFFF;}
</style>
<g>
	<path class="st0" d="M12.8,98.6c-0.1,0-0.2,0-0.3-0.1c0-0.8,0-1.7,0-2.5c1.4-3.5,2.2-7.1,3.2-10.7c4.4-15.5,8.7-31.1,13.1-46.6
		c2.2-7.5,8.1-12.4,16-12.5c9.9-0.2,19.8,0,29.7,0c0.6,2.2-0.1,4.3-0.3,6.4c-2.1,18-4.1,36.1-6.3,54.1c-0.3,2.5-0.5,5.1-0.9,7.7
		c-0.1,0.9-0.2,1.9-0.9,2.6c-1,0.5-2.1,0.4-3.2,0.4c-15.6,0-31.2,0-46.7,0C14.9,97.3,13.7,97.4,12.8,98.6z"/>
	<path class="st1" d="M120.1,99.6c-0.6,3.2-1.3,6.4-2.9,9.3c-4.3,8-10.9,12.8-19.9,14.4c-14.7,2.5-29.1-8.5-30.7-23.3
		c0-0.2-0.2-0.3-0.3-0.5c-0.8-0.9-0.7-1.9-0.1-2.9c1-8.3,1.9-16.7,2.9-25c0.8-6.8,1.7-13.6,2.5-20.5c0.8-6.8,1.4-13.6,2.2-20.3
		c0.2-1.6,0-3.2,0.7-4.7c15.2,0,30.3,0,45.5,0c0.7,0.6,0.6,1.4,0.6,2.2c0,22.6,0,45.2,0,67.9c0,0.1,0,0.2,0,0.4
		C120.5,97.6,120.9,98.7,120.1,99.6z"/>
	<path class="st1" d="M211.5,121.5c-3.9,1.4-7.8,2.4-12,2.1c-6.2-0.4-11.6-2.4-16.3-6.6c-5.1-4.5-8.2-10.1-9.1-16.8
		c0-0.1-0.1-0.2-0.2-0.3c-0.7-0.8-0.5-1.8-0.5-2.7c0-0.7,0-1.4-0.2-2.1c-2.1-17.6-3.8-35.3-5.9-52.9c-0.5-4.5-1-9-1.5-13.5
		c-0.3-2.3-0.1-2.5,2.2-2.5c9.1,0,18.3,0,27.4,0c0.5,0,1.1-0.1,1.6,0.1c6.4,0.5,12.5,5.4,14.3,11.8c4.2,14.8,8.4,29.7,12.6,44.6
		c0.9,3.3,1.6,6.6,2.8,9.8c2,5.4,0.9,10.5-1.3,15.4C222.4,114.2,217.6,118.5,211.5,121.5z"/>
	<path class="st0" d="M196.8,26.3c-9.6,0-19.1,0-28.7,0c-2.4,0-2.3,0-1.9,2.4c0.6,4.6,1.1,9.2,1.6,13.8c0.6,4.8,1.1,9.7,1.7,14.5
		c0.5,5,1,10.1,1.6,15.1c0.5,4.7,1.1,9.3,1.6,14c0.3,3,0.6,6,0.9,9c0.5,1.3-0.1,1.9-1.4,2c-0.6,0.1-1.2,0-1.8,0
		c-15.7,0-31.4,0-47.1,0c-1.1,0-2.2,0.2-3.1-0.6c0-11.5,0-23-0.1-34.5c0-12,0-24-0.1-36c0.6,0,1.2-0.1,1.8-0.1c24,0,48,0,72-0.1
		C194.8,26,195.9,25.8,196.8,26.3z"/>
	<path class="st0" d="M66.2,96.7c0,1,0,1.9,0.1,2.9c-0.7,4.1-1.8,8.1-4.2,11.7c-5.9,8.6-14,12.8-24.4,12.4
		c-4.3-0.2-8.4-1.6-12.1-3.9c-0.7-0.4-1.4-0.9-2.2-1.1c-1.7-2.1-4-3.7-5.5-6c-2.9-4.2-4.9-8.8-5-14c-0.2-1.6,0.6-1.9,2.1-1.9
		C32,96.7,49.1,96.7,66.2,96.7z"/>
	<path class="st2" d="M211.5,121.5c-0.9-0.6-1.6,0-2.4,0.3c-7.6,2.5-14.9,1.8-21.8-2.3c-6.7-4-11-9.9-12.6-17.7
		c-0.1-0.7,0.1-1.6-0.9-2c-1,0.3-0.8,1.2-1,1.9c-3.8,18.2-23.9,27.1-39.6,17.5c-6.5-4-10.6-9.8-12.2-17.4c-0.2-0.8,0.2-2-1.1-2.4
		c-0.6,0.4-0.7,1.1-0.8,1.7c-1.3,7-4.8,12.6-10.6,16.9c-8.9,6.6-21.7,6.7-30.7,0.2c-5.8-4.2-9.4-9.9-10.8-16.9
		c-0.1-0.7,0.2-1.7-1-1.8c-0.7,0.5-0.7,1.4-0.8,2.1c-1.9,9.2-7.2,15.8-15.8,19.4c-8.2,3.5-16.2,2.7-23.8-1.8
		c-0.7-0.4-1.4-1.2-2.4-0.6c0,0.6-0.1,1.2-0.1,1.8c0,28.3,0,56.7,0,85c0,5.6,3,8.6,8.6,8.6c56.8,0,113.7,0,170.5,0
		c0.7,0,1.4,0,2.1,0c4.1-0.4,7-3.4,7-7.5C211.5,178.1,211.5,149.8,211.5,121.5z M192.7,194.3c-6.5,6.8-14.8,9.3-24,8.5
		c-13.4-1.2-22.7-8.3-27.2-21.1c-6.3-17.7,4.9-36.9,23.3-40.5c9.2-1.8,17.7,0.1,25.1,5.9c1.9,1.5,1.9,1.5,0.2,3.1
		c-2.1,2.1-4.2,4.2-6.3,6.4c-0.6,0.6-1,0.7-1.7,0.1c-6.6-4.9-14.6-5.3-21-1c-6.8,4.5-10,12.4-8.3,20.2c1.7,7.7,8.2,13.7,16,14.7
		c8.2,1.1,15.9-3,18.5-9.8c0.1-0.3,0.2-0.7,0.3-1c0.5-1.2,0.2-1.6-1.1-1.5c-4.6,0.1-9.2,0-13.8,0.1c-1.4,0-1.7-0.4-1.7-1.7
		c0.1-3.2,0.1-6.3,0-9.5c0-1.2,0.3-1.5,1.5-1.5c4.4,0.1,8.8,0,13.3,0c4.2,0,8.4,0.1,12.5,0c1.5,0,2.1,0.3,2.3,2
		C201.6,177.5,199.8,186.8,192.7,194.3z"/>
	<path class="st0" d="M120.1,96.7c17.2,0,34.4,0,51.7,0c1.1,0,1.9-0.1,1.8-1.5c0.7,1.5,0.2,3.1,0.4,4.7c-0.8,2.3-1,4.7-2,7
		c-3.1,7.1-8.1,12.1-15.3,14.9c-15.1,5.8-31.6-2.8-35.7-18.4c-0.3-1.2-0.3-2.6-0.8-3.8C120.1,98.6,120.1,97.7,120.1,96.7z"/>
</g>
</svg>
