<?xml version="1.0" encoding="utf-8"?>
<!-- Generator: Adobe Illustrator 23.0.1, SVG Export Plug-In . SVG Version: 6.00 Build 0)  -->
<svg version="1.1" id="Layer_1" xmlns="http://www.w3.org/2000/svg" xmlns:xlink="http://www.w3.org/1999/xlink" x="0px" y="0px"
	 viewBox="0 0 240 240" style="enable-background:new 0 0 240 240;" xml:space="preserve">
<style type="text/css">
	.st0{fill:#FFFFFF;}
</style>
<path class="st0" d="M78.2,26C49.4,26,26,49.4,26,78.2v83.6c0,28.8,23.4,52.2,52.2,52.2h83.6c28.8,0,52.2-23.4,52.2-52.2V78.2
	c0-28.8-23.4-52.2-52.2-52.2H78.2z M182.7,46.9c5.7,0,10.4,4.7,10.4,10.4s-4.7,10.4-10.4,10.4c-5.7,0-10.4-4.7-10.4-10.4
	S176.9,46.9,182.7,46.9z M120,67.8c28.8,0,52.2,23.4,52.2,52.2s-23.4,52.2-52.2,52.2S67.8,148.8,67.8,120S91.2,67.8,120,67.8z
	 M120,88.7c-17.3,0-31.3,14-31.3,31.4s14,31.3,31.4,31.3l0,0c17.3,0,31.3-14,31.3-31.4S137.3,88.7,120,88.7z"/>
</svg>
