<?xml version="1.0" encoding="utf-8"?>
<!-- Generator: Adobe Illustrator 23.0.1, SVG Export Plug-In . SVG Version: 6.00 Build 0)  -->
<svg version="1.1" id="Layer_1" xmlns="http://www.w3.org/2000/svg" xmlns:xlink="http://www.w3.org/1999/xlink" x="0px" y="0px"
	 viewBox="0 0 240 240" style="enable-background:new 0 0 240 240;" xml:space="preserve">
<style type="text/css">
	.st0{fill:#FFFFFF;}
</style>
<g>
	<path class="st0" d="M10.9,106c1.1-5.2,3.3-10,6.2-14.4C26.5,76.8,40,68.3,57.3,66.1c10.3-1.3,19.7,1.6,28.5,6.8
		c9.1,5.3,16.9,12.2,24.2,19.7c3.4,3.5,6.6,7.1,9.9,10.6c1.9,1,3,3,4.4,4.5c2.8,3,5.5,6.2,8.4,9.2c0.7,0.7,1.2,1.6,1.9,2.2
		c4.9,5.3,9.7,10.7,14.9,15.8c7.7,7.7,16.7,13.4,26.8,17.4c5.3,2,10.8,3.1,16.5,2.9c9.8-0.4,18.8-2.8,26.5-9.2
		c3.1-2.6,5.7-5.8,7.8-9.3c0.4-0.7,0.6-1.6,1.6-1.8c0.1,0.1,0.2,0.3,0.1,0.5c-2,7.4-5.7,13.9-10.6,19.7
		c-8.9,10.5-20.3,16.6-33.9,18.7c-10.5,1.6-20.1-0.8-29.1-6c-7.7-4.4-14.5-10-20.9-16c-5-4.7-9.5-9.8-14.1-14.8
		c-0.5,0-0.8-0.5-1.1-0.8c-3.6-3.8-7-7.8-10.6-11.7c-1.1-1.2-2.2-2.5-3.4-3.7c-1.1-1.6-2.6-3-3.9-4.5c-4.4-4.9-9.1-9.7-13.9-14.2
		C83,98,78,94.8,72.9,91.9c-2.8-1.5-5.6-3-8.6-4c-0.4-0.2-0.8-0.4-1.3-0.5c-2.9-0.8-5.7-2.1-8.7-2.3c-0.7-0.2-1.4-0.2-2-0.3
		c-1.7-0.4-3.4,0-5.1-0.1c-1.4-0.2-2.8,0.4-4.3,0.3c-1.2,0-2.3,0.3-3.4,0.5c-11.9,2.1-21,8.1-27,18.7C12,104.8,12,105.8,10.9,106z"
		/>
	<path class="st0" d="M134.5,119.4c-4.9-5.4-9.9-10.7-14.6-16.3c9.8-11.7,20.4-22.6,33.8-30.4c7.5-4.3,15.4-7.1,24.2-7
		c3.9,0,7.9,0.5,11.7,1.5c0.5,0.9-0.4,1.3-0.8,1.8c-2.8,2.8-5.7,5.5-8.5,8.2c-4,3.9-8.1,7.8-12,11.8c-0.5,0.5-1,1-1.5,1.6
		c-2.4,1.6-5,3-7.3,4.7c-6.1,4.6-11.6,9.8-16.7,15.4c-2.3,2.5-4.5,5.1-6.8,7.8C135.5,119,135.1,119.4,134.5,119.4z"/>
	<path class="st0" d="M105.4,120.5c5,5.3,9.9,10.7,14.7,16.3c-9.7,11.6-20.3,22.4-33.5,30.2c-8.4,4.9-17.3,7.8-27.2,7.1
		c-2.8-0.2-5.6-0.5-8.3-1.3c-0.5-0.9,0.4-1.3,0.8-1.8c3.7-4,7.9-7.5,11.7-11.4c2.8-2.9,5.9-5.5,8.8-8.4c0.5-0.6,1.1-1.1,1.3-1.9
		c0.6-1,1.7-1.2,2.6-1.7c4.8-3.1,9.2-6.6,13.4-10.5c5.3-4.8,9.9-10.3,14.6-15.6C104.6,121.1,104.8,120.6,105.4,120.5z"/>
	<path class="st0" d="M228.7,134.8c-3.4,6.5-8.2,11.9-14.7,15.3c-12.2,6.4-24.8,7.4-37.8,2.4c0.4-0.5,1-0.4,1.6-0.5
		c8.7-0.3,16.2-3.5,22.2-9.8c5.8-6.1,8.9-13.4,9-21.9c0-1.8-0.1-3.5-0.2-5.3c2.2-2.3,4.4-4.6,6.7-6.7c3.1-2.8,6-5.9,9.1-8.8
		c0.6-0.5,1.1-1.3,2.1-1.1c2.1,4.4,3.3,9.1,4,13.9c0.8,6.1,0.7,12.2-0.6,18.3c-0.2,1-0.5,2-0.9,3C229.1,134.1,229,134.5,228.7,134.8
		z"/>
	<path class="st0" d="M10.9,106c1.7-3,3.4-6,5.7-8.6c6.1-6.8,13.6-10.9,22.6-12.3c0.5,0.7-0.1,1.1-0.5,1.5
		c-4.1,3.5-7.7,7.7-11.7,11.2c-0.4,0.3-0.7,0.6-1,0.9c-4.7,4.9-9.9,9.4-14.6,14.3c-0.5,0.5-0.9,1.4-1.9,0.9
		C9.4,111.2,10.1,108.6,10.9,106z"/>
	<path class="st0" d="M47,84.3c1.8-0.1,3.6-0.3,5.4,0.2c-2.4,0.3-3.6,2.2-5.2,3.7c-7.3,7.1-14.6,14.1-21.9,21.2
		c-4.8,4.6-9.4,9.3-14.3,13.8c-0.5,0.4-0.8,1.3-1.8,0.9c-0.2-2.1-0.4-4.2-0.1-6.3c0.4,0.3,0.2,0.9,0.6,1.4c0.9-0.6,1.8-1.3,2.6-2.1
		c5.1-5.3,10.6-10.3,15.9-15.5c5.7-5.6,11.5-11,17.1-16.6C45.8,84.3,46.4,84.5,47,84.3z"/>
	<path class="st0" d="M9.2,124c0.5,0,0.7-0.3,1-0.6c3.1-3,6.3-6.1,9.4-9.1c4.3-4.2,8.5-8.4,12.9-12.5c5.8-5.5,11.7-10.9,17.2-16.7
		c0.8-0.8,1.8-0.3,2.6-0.5c0.6,0,1.3-0.1,1.9,0.2c0.2,0.8-0.5,1.2-0.9,1.6c-1.2,1.2-2.5,2.3-3.3,3.9c-0.2,0.3-0.5,0.5-0.8,0.7
		c-3.9,1.9-7.2,4.5-10.1,7.7c-0.3,0.3-0.7,0.6-1.1,0.9c-0.5,0.3-1,0.5-1.4,1c-2.6,2.8-5.6,5.2-8.2,7.9c-4.5,4.6-9.3,8.8-13.8,13.4
		c-1.2,1.2-2.6,2.3-3.8,3.5c-0.4,0.4-0.8,0.8-1.4,0.6c-0.5-0.2-0.1-0.9-0.4-1.3C9.2,124.4,9.2,124.2,9.2,124z"/>
	<path class="st0" d="M47,84.3c-0.7,0.3-1.2,0.6-1.7,1.2c-4.9,4.9-9.8,9.8-14.9,14.5c-1.7,1.6-3.4,3.2-5.1,4.9
		c-4.4,4.2-8.7,8.5-13.1,12.8c-0.4,0.4-0.8,0.7-1.2,1c-0.5,0.4-0.9,1.4-1.5,1.1c-0.7-0.3-0.2-1.3-0.3-2c0-0.2,0-0.4,0-0.6
		c1.7-1.9,3.5-3.7,5.4-5.4c1.4-1.2,2.8-2.5,4.1-3.9c4.5-4.5,9.1-8.9,13.7-13.3c3.5-3.3,6.7-6.8,10.3-10C44.1,84.5,45.5,84.1,47,84.3
		z"/>
	<path class="st0" d="M42.6,84.6c0,0.7-0.6,1.1-1.1,1.5c-4.2,4.2-8.5,8.3-12.7,12.4c-4.2,4.1-8.3,8.3-12.7,12.3
		c-1.9,1.8-3.8,3.6-5.6,5.4c-0.4,0.4-0.9,0.7-1.4,0.9c0-0.5,0-1.1,0-1.6c0.2-0.5-0.1-1.1,0.2-1.6c0,0,0,0,0,0c0.8,0.1,1.1-0.6,1.5-1
		c5.1-4.9,10-10,15.2-14.8c4.1-3.8,7.8-7.9,12.1-11.5c0.5-0.4,1-0.8,1-1.5C40.3,84.7,41.5,84.6,42.6,84.6z"/>
	<path class="st0" d="M10.7,133.4c-0.6-1.3-0.7-2.7-0.9-4.1c0.7,0,1.2-0.4,1.7-0.9c4-4.1,8.2-7.9,12.3-11.9c2.2-2.2,4.6-4.4,6.9-6.6
		c0.5-0.4,0.9-1.3,1.8-0.5c0,1.8-0.6,3.4-1.1,5.1c-6.5,5.8-12.7,12-18.9,18.1C12,133.1,11.5,133.6,10.7,133.4z"/>
	<path class="st0" d="M166.4,90.5c3.5-3.6,6.9-7.3,10.7-10.5c0.7-0.6,1.3-1.2,1.9-1.9c3.1-3.2,6.3-6.3,9.7-9.4
		c0.4-0.4,0.9-0.7,1-1.4c0.9-0.1,1.6,0.8,2.5,0.7c1,0.6,0.3,1.2-0.1,1.6c-1.3,1.4-2.5,2.8-4,4c-1.6,1.4-3.2,2.9-4.6,4.4
		c-2.6,2.7-5.4,5.1-8,7.7c-0.8,0.8-1.5,1.6-2.1,2.5c-2,0.8-4.1,1.5-6,2.4C167,90.7,166.6,90.7,166.4,90.5z"/>
	<path class="st0" d="M199,70.5c1.1,0.4,2.1,0.9,3.1,1.5c0.5,0.9-0.4,1.3-0.8,1.8c-4,4.2-8.4,8.1-12.5,12.2c-0.9,1-1.8,2-2.9,2.8
		c-1.6,0.1-3-0.2-4.5-0.9c0.6-1.7,2-2.8,3.3-3.9c2.3-2,4.4-4.2,6.6-6.4C193.8,75.2,196.5,72.9,199,70.5z"/>
	<path class="st0" d="M199,70.5c-0.8,1.6-2.2,2.7-3.5,3.8c-1.6,1.4-3.1,2.8-4.5,4.3c-2.8,3.1-6.4,5.5-9,8.8
		c-0.1,0.1-0.4,0.1-0.6,0.2c-1.9,0.9-3.8,0.4-5.7,0.3c-0.8-0.3-0.7-0.9,0-0.9c1.9,0,2.8-1.3,4-2.5c4.9-4.9,10.1-9.7,15.1-14.6
		c0.3-0.3,0.7-0.7,1.1-0.8C197,69.3,197.8,70.3,199,70.5z"/>
	<path class="st0" d="M195.8,69.2c-0.5,1.1-1.6,1.6-2.3,2.5c-5,5.2-10.5,9.9-15.4,15.2c-0.9,0.9-2,0-2.9,0.7
		c-0.5,0.6-1.1,0.8-1.9,0.3c-0.1-0.7,0.4-1.1,0.9-1.6c4.1-4,8.1-8,12.2-11.9c1.8-1.7,3.5-3.4,5.3-5.1c0.4-0.4,0.9-0.8,0.4-1.4
		C193.4,68.1,194.5,69.1,195.8,69.2z"/>
	<path class="st0" d="M44.8,171c-0.9-0.1-1.7-0.5-2.5-1c-0.2-0.7,0.4-1,0.8-1.4c5.2-5.4,10.8-10.3,15.9-15.6
		c0.3-0.3,0.7-0.7,1.2-0.8c1.2-0.2,2.3-0.2,3.5,0c1,0.7,0.2,1.3-0.2,1.8c-1.3,1.4-2.6,2.8-4,4c-2.9,2.4-5.4,5.2-8.1,7.8
		c-1.6,1.6-3.5,3-5,4.7C45.9,170.9,45.5,171.3,44.8,171z"/>
	<path class="st0" d="M10.7,133.4c0.6-0.3,1.1-0.6,1.5-1.1c5.3-5.2,10.5-10.3,15.8-15.5c0.9-0.9,1.9-1.6,3-2.2c0.8,1,0.1,2,0.1,2.9
		c-0.1,0.5-0.2,0.9-0.4,1.4c-4.4,4.3-9,8.5-13.4,12.9c-1.4,1.4-2.8,2.6-4.2,3.9c-0.5,0.4-1,1.1-1.6,0.1
		C11.1,135.1,10.7,134.3,10.7,133.4z"/>
	<path class="st0" d="M214.1,80.6c1.1,0.6,1.7,1.7,2.6,2.6c-1.3,2-3.1,3.5-4.8,5.1c-3.1,2.7-5.9,5.8-8.8,8.6
		c-0.6,0.6-1.1,1.3-2.1,1.2c-1-0.8-2.1-1.4-2.6-2.6c4.6-4.7,9.6-9,14.1-13.7C212.8,81.2,213.3,80.8,214.1,80.6z"/>
	<path class="st0" d="M74,149.4c0.1,0.7-0.4,1.1-0.8,1.6c-4.2,4.1-8.3,8.3-12.6,12.2c-2.9,2.7-5.6,5.6-8.5,8.3
		c-0.4,0.4-0.9,0.7-1,1.4c-1-0.1-1.9-0.3-2.8-0.7c-0.4-0.7,0.2-1.1,0.6-1.4c4.7-4.5,9.3-9.1,14.1-13.6c2-1.8,4-3.7,5.7-5.8
		c1.4-0.8,3-1.2,4.4-2C73.3,149.1,73.7,149.1,74,149.4z"/>
	<path class="st0" d="M186.1,88.7c0-0.8,0.6-1.2,1.1-1.6c4.6-4.5,9.2-9,13.8-13.5c0.4-0.4,1-0.8,1.1-1.5c1,0.4,1.9,0.9,2.8,1.6
		c0.6,1-0.2,1.4-0.7,2c-2.8,3.1-6.1,5.6-9,8.7c-1.6,1.7-3.3,3.4-5.2,5c-0.5,0.4-0.9,0.7-1.5,0.7C187.7,89.6,186.6,89.7,186.1,88.7z"
		/>
	<path class="st0" d="M188.6,89.5c1.3-0.1,1.9-1.2,2.7-1.9c4.3-4,8.4-8.2,12.7-12.3c0.5-0.5,1.1-0.9,1-1.7c1.2,0.5,2.2,1.3,3.2,2.1
		c0.2,0.8-0.4,1.1-0.8,1.5c-4.8,4.3-9.2,9.1-14.1,13.4c-0.4,0.3-0.7,0.6-1.2,0.7C190.7,91,189.4,90.8,188.6,89.5z"/>
	<path class="st0" d="M68.6,151.6c-1.6,2.4-3.8,4.2-5.9,6.2c-0.3,0.3-0.7,0.6-1.1,0.9c-4.1,4-8.3,8.1-12.4,12.1
		c-0.4,0.4-0.9,0.7-1,1.4c-1.2-0.3-2.4-0.6-3.5-1.2c0.5,0,0.8-0.3,1.1-0.6c2.4-2.3,4.8-4.6,7.2-6.9c3.3-3.2,6.6-6.4,9.9-9.6
		c0.4-0.4,0.9-0.7,1-1.4C65.4,151.7,66.9,151.2,68.6,151.6z"/>
	<path class="st0" d="M30,162.9c-1-0.6-1.9-1.4-2.7-2.2c3-3.1,6-6.3,9.3-9.2c1.7-1.5,3.2-3.1,4.8-4.7c0.5-0.5,0.9-1,1.5-1.3
		c1.3,0.2,2.1,1.1,2.9,2c0,0.7-0.4,1-0.8,1.4c-4.5,4.5-9.3,8.8-13.7,13.4C31,162.6,30.7,163.1,30,162.9z"/>
	<path class="st0" d="M59.9,152.5c-2.9,3.1-5.9,6.1-9.1,9c-3,2.7-5.7,5.7-8.5,8.5c-1.2-0.3-2.4-0.9-3.4-1.6
		c3.9-3.6,7.5-7.5,11.4-11.1c1.6-1.5,3.1-3.1,4.7-4.6c0.5-0.5,0.9-1,1.6-1.2C57.8,151.7,59,151.5,59.9,152.5z"/>
	<path class="st0" d="M32.4,109.3c-0.6-0.1-0.9,0.4-1.3,0.8c-4.5,4.4-8.9,8.9-13.5,13.2c-2.2,2-4.3,4-6.4,6.2
		c-0.5,0.5-0.9,0.6-1.3,0c-0.1-0.6-0.2-1.3-0.3-1.9c5.8-5.7,11.7-11.3,17.5-17c1.9-1.9,3.9-3.7,5.8-5.5c0.6-0.5,1.1-1.3,2.1-0.9
		C34.3,105.9,33.8,107.8,32.4,109.3z"/>
	<path class="st0" d="M30,162.9c2.5-2.1,4.7-4.5,7-6.8c2.9-2.8,6-5.4,8.7-8.4c1.2-0.2,2,0.5,2.7,1.4c0.2,0.8-0.3,1.3-0.8,1.7
		c-4.8,4.2-9.1,9.1-13.9,13.3c-0.4,0.4-0.9,0.7-1.5,0.4C31.4,164.1,30.7,163.5,30,162.9z"/>
	<path class="st0" d="M16,146.6c-0.6-0.9-1.2-1.8-1.5-2.8c3.7-3.4,7.4-6.7,10.8-10.3c2-2.1,4.2-4,6.2-6c0.9,0.9,0.9,2.2,1.1,3.3
		c0,0.6-0.4,1-0.8,1.4c-4.5,4.6-9.3,8.9-13.9,13.5C17.4,146.1,17,147,16,146.6z"/>
	<path class="st0" d="M25.4,158.8c-0.8-0.6-1.6-1.3-2.1-2.2c4.6-4.9,9.8-9.3,14.5-14.2c0.3-0.3,0.7-0.6,1.2-0.7c1.1,0.2,1.5,1.2,2,2
		c0.1,0.7-0.3,1.1-0.7,1.5c-4.4,4.4-9.1,8.6-13.4,13.1C26.5,158.7,26,159.2,25.4,158.8z"/>
	<path class="st0" d="M220.9,88.5c0.8,0.8,1.4,1.8,1.9,2.8c0.2,0.5-0.2,0.6-0.4,0.9c-4.6,4.7-9.6,9.1-14.2,13.8
		c-0.4,0.4-0.8,0.9-1.4,0.9c-1.1-0.7-1.4-1.8-1.6-2.9c3.1-3.1,6.1-6.3,9.3-9.2C216.7,92.9,218.7,90.6,220.9,88.5z"/>
	<path class="st0" d="M226.6,98.6c-0.6,0.3-1.1,0.6-1.5,1c-4.7,4.6-9.4,9.2-14.2,13.9c-0.6,0.5-1.1,1.1-1.8,1.4
		c-0.9-0.8-0.8-1.9-0.9-2.9c2-2.2,4.1-4.3,6.3-6.3c3-2.7,5.8-5.7,8.7-8.5c0.6-0.6,1.2-1.3,2.1-1.5C225.9,96.6,226.3,97.6,226.6,98.6
		z"/>
	<path class="st0" d="M16,146.6c0.3-0.1,0.6-0.2,0.8-0.4c5.2-5,10.3-10,15.4-15c0.1-0.1,0.1-0.3,0.1-0.4c1.1,0.6,1.2,1.8,1.5,2.8
		c-0.7,1.8-2.2,2.9-3.6,4c-2.7,2.3-5.1,4.9-7.6,7.4c-1.3,1.3-2.8,2.4-4.1,3.7c-0.3,0.3-0.6,0.6-1.1,0.4
		C16.8,148.4,16.3,147.5,16,146.6z"/>
	<path class="st0" d="M206.7,106.8c0.6-0.2,1-0.8,1.4-1.2c4.5-4.4,9-8.8,13.5-13.2c0.4-0.4,0.8-0.7,1.2-1c0.6,0.6,1,1.3,1.3,2.1
		c0.4,0.9-0.3,1.4-0.8,1.8c-1.7,1.3-3.1,2.8-4.5,4.3c-2.9,3.1-6.2,5.7-9.1,8.8c-0.5,0.6-1.1,1.1-2,1
		C206.9,108.7,206.4,107.9,206.7,106.8z"/>
	<path class="st0" d="M31.4,127.4c0.1,0.9-0.5,1.4-1,1.8c-1.5,1-2.7,2.5-4,3.7c-3.5,3.4-6.9,6.7-10.4,10.1c-0.4,0.4-0.8,0.8-1.5,0.7
		c-0.6-0.9-1-1.8-1.3-2.8c1.4-0.6,2.4-1.6,3.4-2.6c4-4.1,8.3-8,12.5-12c0.7-0.7,0.8-1.9,1.9-2.2C31.6,125.1,31.9,126.2,31.4,127.4z"
		/>
	<path class="st0" d="M56.4,151.9c-4.9,5-10,9.9-15.1,14.6c-0.7,0.7-1.3,1.7-2.4,1.9c-0.8-0.3-1.6-0.7-2.3-1.2c3-3.1,6-6.2,9.2-9.1
		c2.1-1.9,4-3.9,6.1-5.9c0.5-0.5,0.9-1,1.6-1.3C54.6,150.9,55.7,151,56.4,151.9z"/>
	<path class="st0" d="M214.1,80.6c-1.4,1.4-2.8,2.8-4.2,4.1c-3.4,3.3-6.9,6.7-10.3,10c-0.3,0.3-0.6,0.7-1.2,0.7
		c-1.1-0.2-1.9-0.8-2.3-1.9c5.3-4.9,10.3-10.2,15.7-15C212.7,79.1,213.4,79.9,214.1,80.6z"/>
	<path class="st0" d="M192.1,91.1c1.7-1.6,3.5-3.1,5.2-4.7c3.3-3.1,6.5-6.3,9.7-9.4c0.4-0.4,0.7-0.9,1.1-1.3c0.8,0.4,1.5,1,2.2,1.6
		c0.2,0.8-0.4,1.1-0.9,1.5c-4.3,3.7-8,8.1-12.3,11.7c-0.8,0.7-1.4,1.5-2.2,2.2C193.6,92.7,192.6,92.3,192.1,91.1z"/>
	<path class="st0" d="M25.4,158.8c0.5,0,0.8-0.3,1.2-0.7c4.5-4.4,8.9-8.7,13.4-13.1c0.4-0.4,0.8-0.7,0.9-1.3c1.3,0,1.7,0.9,2.2,1.9
		c-4.6,5-9.8,9.3-14.5,14.2c-0.3,0.3-0.8,0.5-1.2,0.7C26.6,160.1,25.9,159.5,25.4,158.8z"/>
	<path class="st0" d="M38.9,141.9c-0.6,0.5-1.2,1-1.7,1.5c-4.3,4.1-8.5,8.3-12.7,12.4c-0.3,0.3-0.6,0.7-1.2,0.7
		c-0.7-0.5-1.2-1.1-1.6-1.9c0.5-1.2,1.5-2,2.5-2.8c2.3-1.9,4.3-4,6.4-6.2c2.1-2.2,4.5-4,6.5-6.2C38.3,139.8,38.7,140.8,38.9,141.9z"
		/>
	<path class="st0" d="M200.9,98c0.7-0.3,1.2-0.8,1.7-1.3c4.4-4.3,8.7-8.5,13.1-12.8c0.3-0.3,0.6-0.4,0.9-0.7c0.6,0.4,1.1,1,1.5,1.6
		c0.4,0.7-0.1,1.1-0.5,1.5c-4.1,3.5-7.6,7.7-11.7,11.2c-0.6,0.5-1.2,1.2-1.8,1.7c-0.5,0.4-0.9,0.9-1.6,0.8
		C201.8,99.5,200.8,99.1,200.9,98z"/>
	<path class="st0" d="M220.9,88.5c0,0.7-0.6,1.1-1,1.5c-4.4,4.3-8.8,8.6-13.3,12.9c-0.4,0.4-0.9,0.7-1.4,1c-1-0.4-1.4-1.1-1.5-2.1
		c0.7-1.2,1.7-2.1,2.7-2.9c3.1-2.6,5.8-5.7,8.7-8.4c1.4-1.3,2.7-2.7,4.4-3.7C220.2,87.3,220.7,87.8,220.9,88.5z"/>
	<path class="st0" d="M17.5,149.1c1.4-1.2,2.9-2.3,4.2-3.7c3.8-4,8.2-7.5,11.9-11.7c1.1,0.4,1,1.6,1.4,2.4c-0.4,1.1-1.5,1.5-2.3,2.3
		c-3.8,4.1-8,7.8-12,11.7c-0.5,0.5-0.9,1.4-1.9,0.9C18.2,150.4,17.8,149.8,17.5,149.1z"/>
	<path class="st0" d="M18.7,151c0.6,0,0.9-0.4,1.3-0.8c3.8-3.7,7.7-7.4,11.5-11.2c1-1,2.1-2,3.3-2.8c0.9,0.1,1.1,0.8,1.2,1.5
		c0,0.8-0.6,1.3-1.1,1.8c-4.1,3.9-8.3,7.9-12.3,11.9c-0.7,0.7-1.3,1.7-2.6,1.3C19.5,152.3,19.1,151.7,18.7,151z"/>
	<path class="st0" d="M207.6,109.3c0.6-0.2,1.2-0.6,1.7-1.1c4.1-4,8.1-7.9,12.2-11.9c0.9-0.9,2.3-1.3,2.6-2.8c0.6,0.7,1,1.4,1.2,2.3
		c-5.2,5-10.4,10.1-15.6,15.1c-0.4,0.4-0.8,0.6-1.3,0.9C207.6,111.1,207.3,110.3,207.6,109.3z"/>
	<path class="st0" d="M219.6,86.8c-4.1,3.8-7.9,8-12.2,11.7c-1.2,1.1-2.2,2.4-3.5,3.3c-0.9-0.3-1.5-0.8-1.4-1.9
		c1.7-0.8,2.8-2.3,4.1-3.5c3.6-3.2,6.8-6.8,10.4-10c0.5-0.4,1-0.8,1-1.5C218.7,85.4,219.2,86,219.6,86.8z"/>
	<path class="st0" d="M194.9,92.7c0.2-1.2,1.1-1.8,1.9-2.4c2-1.6,3.8-3.5,5.5-5.3c2.5-2.7,5.6-4.9,7.9-7.7c0.6,0.3,1.1,0.8,1.6,1.3
		c-0.4,1.3-1.5,2.1-2.5,2.9c-2.6,2.1-4.7,4.6-7.2,6.9c-1.7,1.6-3.4,3.2-5.1,4.8c-0.3,0.3-0.6,0.4-1,0.5
		C195.4,93.7,195,93.5,194.9,92.7z"/>
	<path class="st0" d="M32.2,164.4c1.8-0.6,2.9-2.3,4.3-3.5c3.7-3.4,7.1-7.1,10.9-10.5c0.4-0.4,0.9-0.7,0.9-1.4
		c1-0.5,1.6,0.3,2.2,0.8c0.2,0.8-0.4,1.1-0.8,1.6c-4.5,4.7-9.4,9-14,13.7c-0.4,0.5-0.9,0.9-1.6,0.6C33.4,165.4,32.7,165,32.2,164.4z
		"/>
	<path class="st0" d="M34.8,103.9c-3.6,2.9-6.9,6.2-10.2,9.4c-4.4,4.4-8.9,8.7-13.4,13.1c-0.5,0.5-1,0.9-1.7,1
		c-0.1-0.9-0.2-1.9-0.3-2.8c0.2,1.2,0.8,1.2,1.6,0.4c2.2-2.1,4.4-4.1,6.5-6.2c4.5-4.4,8.9-8.9,13.5-13.2c1.9-1.8,3.8-3.7,5.7-5.5
		c0.4-0.4,0.9-0.7,1.5-0.9C37.5,101.2,36.2,102.7,34.8,103.9z"/>
	<path class="st0" d="M20.1,152.8c1-0.3,1.7-1,2.4-1.6c4.1-4,8.2-8,12.3-12c0.4-0.4,1-0.8,1-1.5c1,0.2,1.4,0.8,1.3,1.8
		c-0.2,1.1-1.1,1.7-1.9,2.4c-2.4,1.9-4.4,4.1-6.5,6.3c-2.3,2.3-4.7,4.4-7.1,6.5C20.9,154.2,20.5,153.5,20.1,152.8z"/>
	<path class="st0" d="M11.4,135.9c0.7,0.5,1,0,1.4-0.4c3.8-3.4,7.3-7.1,11-10.6c1.9-1.8,3.8-3.6,5.6-5.4c0.3-0.3,0.5-0.5,0.9-0.5
		c0.5,0.5,0.4,1,0.3,1.6c-0.2,0.6-0.6,1-1.1,1.3c-0.8,0.6-1.5,1.3-2.2,2c-4.3,4.6-9.1,8.6-13.5,13.2c-0.5,0.5-1,1.3-2,0.7
		C11.5,137.2,11.6,136.5,11.4,135.9z"/>
	<path class="st0" d="M53.3,151.2c-2.2,2.5-4.6,4.9-7.1,7.1c-2.7,2.4-5.1,5-7.6,7.6c-0.6,0.6-1.1,1.1-1.9,1.4
		c-0.5-0.1-0.8-0.3-1.2-0.7c1.1-1.9,2.8-3.2,4.3-4.6c2-1.8,3.9-3.6,5.7-5.5c2-2,4.2-3.9,6.2-5.9C52.4,150.5,53,150.6,53.3,151.2z"/>
	<path class="st0" d="M30.8,123.9c0.1,0.8-0.2,1.4-0.8,1.9c-1.4,1.3-2.6,2.8-4.1,4.1c-2.9,2.4-5.3,5.2-8,7.7
		c-1.1,1.1-2.3,2.1-3.4,3.2c-0.4,0.4-0.8,0.5-1.2,0.1c-0.1-0.2-0.2-0.4-0.3-0.6c0.7-1.5,1.9-2.4,3.1-3.4c1.7-1.5,3.4-3.1,5-4.8
		c2.6-2.7,5.4-5,8-7.7c0.4-0.4,0.9-0.9,1.6-0.8C30.8,123.7,30.8,123.8,30.8,123.9z"/>
	<path class="st0" d="M51.7,150.6c-0.3,0.7-0.7,1.3-1.3,1.7c-1.8,1.3-3.2,3-4.8,4.5c-3.4,3.2-6.8,6.5-10.2,9.8
		c-0.6-0.2-1-0.4-1.4-0.9c0.4,0,0.8-0.2,1.1-0.5c5-5.1,10.5-9.8,15.3-15.1C51.1,149.8,51.6,149.8,51.7,150.6z"/>
	<path class="st0" d="M12,137.8c0.7,0.1,1.1-0.4,1.6-0.8c4.9-4.8,9.7-9.6,14.6-14.3c0.7-0.6,1.5-1.2,2.2-1.8
		c0.7,0.8,0.3,1.5-0.4,2.2c-5.1,5.1-10.4,10-15.5,15.1c-0.5,0.5-1,1.4-2.1,1C12.3,138.6,12.1,138.2,12,137.8z"/>
	<path class="st0" d="M12.4,139.1c0.8,0,1.2-0.6,1.6-1.1c4.9-4.8,9.9-9.7,14.8-14.5c0.7-0.7,1.9-1.2,1.5-2.6c0-0.6,0-1.3,0-1.9
		c0.1-0.4-0.1-0.9,0.3-1.3c0.9,2,0.8,4,0.1,6c-0.5,0.2-1,0.5-1.4,0.9c-3.2,3.2-6.5,6.3-9.8,9.5c-2.2,2.1-4.4,4.1-6.6,6.2
		C12.6,140,12.6,139.5,12.4,139.1z"/>
	<path class="st0" d="M228.7,134.8c0.1-0.4,0.3-0.7,0.4-1.1c0.4,0.6-0.1,1.1-0.3,1.6C228.8,135.2,228.7,135,228.7,134.8z"/>
	<path class="st0" d="M9.4,113.9c0,0.5,0.2,1.1-0.2,1.6C9.2,115,9.1,114.4,9.4,113.9z"/>
	<path class="st0" d="M60.2,87.6c-3.6,0.3-7,1.4-10.3,2.7c0.2-1.3,1.2-2,2-2.9c0.8-0.9,1.8-1.6,2.4-2.6c2.8,0.1,5.4,1.2,8,2
		c0.3,0.1,0.7,0.2,1,0.3c-0.2,0.8-0.8,0.3-1.3,0.4C61.4,87.6,60.8,87.4,60.2,87.6z"/>
	<path class="st0" d="M60.2,87.6c1-0.7,2.1,0.1,3.1-0.5c0.3,0.2,0.7,0.3,1,0.5C63,87.6,61.6,87.6,60.2,87.6z"/>
</g>
</svg>
