<?xml version="1.0" encoding="utf-8"?>
<!-- Generator: Adobe Illustrator 23.0.1, SVG Export Plug-In . SVG Version: 6.00 Build 0)  -->
<svg version="1.1" id="Layer_1" xmlns="http://www.w3.org/2000/svg" xmlns:xlink="http://www.w3.org/1999/xlink" x="0px" y="0px"
	 viewBox="0 0 240 240" style="enable-background:new 0 0 240 240;" xml:space="preserve">
<style type="text/css">
	.st0{fill:#FFFFFF;}
</style>
<g>
	<path class="st0" d="M142.6,175.6c1.4,2,2.2,1.9,3.3,1.4s56.7-19.2,58.4-19.9c1.7-0.6,1.2-1.2,0.6-2c-0.5-0.8-19.1-26-20-27.5
		c-0.9-1.5-1.4-1.2-2.9-0.7l-59,15.3C123.1,142.3,141.2,173.6,142.6,175.6z M209,150v-29.5c-6.6,1.8-15,4-18.3,4.9
		C195.7,132.1,203.5,142.5,209,150z M190.6,89.1c-0.9,0.2-21,3.8-22.3,4c-1.2,0.2-0.8,0.9-0.3,1.6l17.7,24.3c0,0,21.7-5.4,23-5.7
		c0.1,0,0.2,0,0.3-0.1V110c-3.9-5-14.7-18.6-15.6-19.8C192.3,88.6,191.5,88.9,190.6,89.1L190.6,89.1z"/>
	<path class="st0" d="M64,50.9c4.4-0.2,4.8,0.8,6.7,3.6l48.1,80.4l60.5-14.5c-3.4-4.7-18.6-26.3-20-28.4c-1.7-2.3,0-3.4,2.7-3.8
		c2.7-0.5,25.8-4.3,27.8-4.6c2-0.3,3.6-1,6.8,2.9c1.6,2,7.2,8.9,12.5,15.5V64.4c0-9.2-3.3-17.1-9.8-23.6c-6.5-6.5-14.4-9.8-23.6-9.8
		H64.4c-9.2,0-17.1,3.3-23.6,9.8c-3.7,3.7-6.4,7.9-8,12.6C43.7,52.4,60.9,51,64,50.9L64,50.9z"/>
	<path class="st0" d="M148,186.4c-5.1,1.5-7.4,2.3-10.7-2.3c-2.5-3.5-15.9-27.7-22.5-39.6c-12.5,3.3-35.3,9.2-41.9,10.8
		c-6.4,1.5-9.2-2.3-10.2-4.7C61.9,148.9,43,108.3,31,82.2v93.4c0,9.2,3.3,17.1,9.8,23.6c6.5,6.5,14.4,9.8,23.6,9.8h111.3
		c9.2,0,17.1-3.3,23.6-9.8c6.5-6.5,9.8-14.4,9.8-23.6v-11C195.3,169.6,151.4,185.4,148,186.4z"/>
	<path class="st0" d="M73,145.9c1.8-0.4,35.7-8.5,36.4-8.7c0.7-0.2,1.2-0.6,0.4-1.9S64.7,57.4,64.7,57.4c-0.4-0.7-0.3-0.9-1.4-0.9
		c-1,0.1-26.1,2.3-31.9,2.8c-0.2,1.2-0.3,2.5-0.3,3.7c5.9,12.1,39.8,81.9,40,82.5C71.2,146.1,71.2,146.3,73,145.9L73,145.9z"/>
</g>
</svg>
