<?xml version="1.0" encoding="utf-8"?>
<!-- Generator: Adobe Illustrator 23.0.1, SVG Export Plug-In . SVG Version: 6.00 Build 0)  -->
<svg version="1.1" id="Layer_1" xmlns="http://www.w3.org/2000/svg" xmlns:xlink="http://www.w3.org/1999/xlink" x="0px" y="0px"
	 viewBox="0 0 240 240" style="enable-background:new 0 0 240 240;" xml:space="preserve">
<style type="text/css">
	.st0{fill:#FFFFFF;}
</style>
<path class="st0" d="M31,105.2c0-11.9,0-23.7,0-35.6c1.2-0.8,2.3-1.6,3.5-2.3c25.4-14.8,50.8-29.6,76.2-44.4c2.6-1.5,5.1-3.3,7.6-5
	c0.8,0,1.7,0,2.5,0c1,0.7,1.9,1.6,2.9,2.2c26.5,15.2,52.9,30.4,79.6,45.4c3.9,2.2,5,4.6,5,8.9c0,23.2,0.4,46.5,0.6,69.7
	c0,8.8,0,17.5,0,26.3c-1.5,1-3,2-4.6,2.9c-27.8,16.3-55.7,32.5-83.6,48.8c-0.6,0-1.1,0-1.7,0c-0.9-0.7-1.6-1.4-2.6-2
	c-26.9-15.4-53.7-30.9-80.6-46.1c-3.4-1.9-4.3-4-4.3-7.6C31.6,146,31.2,125.6,31,105.2z M94,179.4c7.3,3.5,14.7,6.8,21.9,10.7
	c4.1,2.2,7.4,2,11.4-0.5c16.8-10.4,33.7-20.6,50.6-30.7c3.8-2.3,5.5-5.3,5.5-9.7c0-19.5,0-39,0-58.5c0-4.2-1.6-7.2-5.3-9.4
	c-17-10-34-20-51-30.1c-4-2.4-7.4-2.4-11.4,0c-17.3,10.1-34.6,20.1-52,30.1c-3.7,2.1-5.5,5-5.5,9.2c0,19.8,0,39.6,0.1,59.3
	c0,2.1,0.4,5,1.7,6.3c4.9,4.6,9.7,9.7,15.5,12.8c9.9,5.2,22.1,1.3,28.3-7.9c1-1.4,1.6-3.4,1.6-5.1c0.1-20.6,0.1-41.2,0.1-61.9
	c0-0.9-0.3-2.7-0.5-2.7c-3.2-0.4-6.4-0.7-9.5-0.4c-0.6,0.1-1.4,2.8-1.4,4.3c-0.1,18.4-0.1,36.7-0.1,55.1c0,7.6-6.8,11.7-13.5,8
	c-2.7-1.5-5-3.6-7.7-5.3c-2.3-1.4-3-3.3-3-6c0.1-17.5,0.1-35,0-52.5c0-2.5,0.7-4,3.1-5.4c15.2-8.6,30.3-17.4,45.4-26.2
	c2.3-1.3,4-1.3,6.2,0c14.6,8.7,29.3,17.5,44.1,26c2.4,1.4,3.3,3,3.2,5.7c-0.1,16.9-0.1,33.9,0,50.8c0,2.8-0.9,4.3-3.2,5.7
	c-11.4,6.8-22.7,13.7-34,20.6c-4.5,2.7-8.9,7.1-13.5,7.3c-4.6,0.2-9.4-3.8-14.1-6.1c-9.2-4.4-9.2-4.4-13,5.2
	C93.9,178.3,94,178.5,94,179.4z M159.5,109.1c-1-8.4-5.2-13.8-12.8-15.4c-5.7-1.2-11.8-1.5-17.5-0.8c-3.8,0.4-7.9,2.6-10.8,5.2
	c-8.7,7.8-6.5,21.2,4.3,25.7c7.4,3,15.3,4.7,22.9,7.2c6.2,2,7.5,7.7,3.1,12.2c-6.4,6.7-21.6,4.5-24.9-4c-1.7-4.5-4.2-4.8-8-4
	c-1.3,0.3-2.6,0.7-4.2,1.2c2.7,9.2,6.7,16.8,17,18.5c2.6,0.5,5.3,0.9,8,0.8c8.3-0.1,16.1-1.7,21.6-8.6c7.2-9.1,4.2-21-6.4-25.4
	c-2.8-1.2-5.8-2-8.8-2.9c-5-1.5-10.1-2.7-15-4.4c-4.8-1.7-6-6.2-3.1-9.8c4.8-6,19.7-4.7,22.8,2.2c1.6,3.6,3.7,4.1,6.9,3.4
	C156.2,109.8,157.7,109.5,159.5,109.1z"/>
</svg>
