<?xml version="1.0" encoding="utf-8"?>
<!-- Generator: Adobe Illustrator 23.0.1, SVG Export Plug-In . SVG Version: 6.00 Build 0)  -->
<svg version="1.1" id="Layer_1" xmlns="http://www.w3.org/2000/svg" xmlns:xlink="http://www.w3.org/1999/xlink" x="0px" y="0px"
	 viewBox="0 0 240 240" style="enable-background:new 0 0 240 240;" xml:space="preserve">
<style type="text/css">
	.st0{fill:#FFFFFF;}
</style>
<g>
	<path class="st0" d="M125.6,17c3.7,0.7,7.4,1.2,11.1,2.1c32.5,7.3,56.9,35.3,59.8,68.5c3.7,41.5-23.8,77.3-64.9,84.4
		c-5.2,0.9-10.5,1-15.7,1.6c-11.7,1.2-21.2,9.4-24,20.9c-1.3,5.6-2.4,11.2-3.5,16.8c-1.3,6.6-6.2,10.1-12.7,8.9
		c-6-1.1-9.5-6.4-8.1-12.9c8.1-37.8,16.2-75.6,24.3-113.4c1.2-5.4,4.7-8.6,9.5-8.9c7.3-0.6,12.9,5.5,11.3,12.7
		c-3.2,15.3-6.7,30.6-10.1,45.9c-0.7,3.4-1.3,6.9-1.9,10.5c11.1-1.2,22-1.7,32.6-3.8c26.5-5.4,45.1-30.2,43.9-57.5
		c-1.2-27.2-22.2-49.9-49.1-53.2c-41.1-5-73.3,33.7-60.8,73.2c2.1,6.5-0.7,12.8-6.4,14.6c-5.7,1.9-12-1.6-13.8-8.1
		c-1.6-5.8-2.6-11.8-3.8-17.7c0-4.1,0-8.2,0-12.4c0.2-0.9,0.5-1.7,0.6-2.6c3.5-31.9,26.4-58.6,57.5-66.8c4.6-1.2,9.4-1.9,14.1-2.8
		C118.8,17,122.2,17,125.6,17z"/>
	<path class="st0" d="M136,210.5c-0.1,7.1-5.4,12.5-12.3,12.5c-7.6,0-13.3-5.7-13.2-13.2c0.1-7.3,5.6-12.7,12.9-12.7
		C130.6,197.2,136.1,203.1,136,210.5z"/>
</g>
</svg>
