<?xml version="1.0" encoding="utf-8"?>
<!-- Generator: Adobe Illustrator 23.0.1, SVG Export Plug-In . SVG Version: 6.00 Build 0)  -->
<svg version="1.1" id="Layer_1" xmlns="http://www.w3.org/2000/svg" xmlns:xlink="http://www.w3.org/1999/xlink" x="0px" y="0px"
	 viewBox="0 0 240 240" style="enable-background:new 0 0 240 240;" xml:space="preserve">
<style type="text/css">
	.st0{fill:#FFFFFF;}
</style>
<path class="st0" d="M129.4,141.6c0,5.8,0.1,10.8,0,15.8c-0.1,4.9,2,8.6,6.1,11c7.4,4.4,14.8,8.6,22.3,12.7c4.3,2.4,8.5,2,12.6-0.4
	c7-4.1,14-8.3,21-12.4c4.4-2.5,6.5-6.3,6.5-11.2c0.1-8,0.1-16,0-24c0-5.3-2.5-9.2-7.1-11.8c-6.4-3.5-12.8-7-18.9-10.8
	c-5.8-3.6-11-3.3-16.8,0.1c-23.2,13.5-46.5,26.7-69.6,40.4c-6.7,3.9-12.4,4.1-19.1,0c-12.1-7.5-24.7-14.3-37.1-21.3
	c-4.9-2.7-7.1-6.6-7-12.2c0.1-15.1,0.1-30.3,0-45.4c0-5.4,2.1-9.3,6.8-11.9c13.4-7.6,26.8-15.3,40.2-22.9c4.6-2.6,9.2-2.6,13.8,0.1
	c13.2,7.7,26.4,15.3,39.6,23c4.2,2.4,6.4,5.9,6.3,10.9c-0.1,4.4-0.1,8.9,0,13.3c0.1,2.1-0.5,3.4-2.4,4.5c-4.5,2.5-9,5-13.3,7.8
	c-3.2,2-3.4,0.6-3.3-2.2c0.1-3.9-0.1-7.7,0.1-11.6c0.1-5.3-2.3-9.1-6.6-11.6c-6.9-4-13.9-7.9-20.8-11.9c-4.6-2.6-9.2-2.6-13.8,0.1
	c-6.9,4-13.8,8-20.8,11.9c-4.4,2.5-6.5,6.3-6.5,11.3c-0.1,8,0,16,0,24c0,5,2.2,8.8,6.5,11.3c7.1,4.2,14.3,8.3,21.5,12.4
	c5.2,3,10,2.1,14.9-0.8c23.5-13.8,47.2-27.3,70.7-41.2c6.1-3.6,11.5-3.7,17.6-0.1c12.5,7.5,25.2,14.6,37.8,21.7
	c5.3,3,7.7,7.2,7.6,13.3c-0.2,14.6-0.2,29.2,0,43.7c0.1,6.1-2.4,10.3-7.6,13.3c-12.9,7.3-25.8,14.6-38.7,22.1c-5.2,3-10,3-15.3-0.1
	c-12.9-7.6-26-14.9-39-22.3c-4.4-2.4-6.6-5.9-6.9-11c-0.9-16-1-16,12.9-24C125,144.1,126.8,143.1,129.4,141.6z"/>
</svg>
