<?xml version="1.0" encoding="utf-8"?>
<!-- Generator: Adobe Illustrator 23.0.1, SVG Export Plug-In . SVG Version: 6.00 Build 0)  -->
<svg version="1.1" id="Layer_1" xmlns="http://www.w3.org/2000/svg" xmlns:xlink="http://www.w3.org/1999/xlink" x="0px" y="0px"
	 viewBox="0 0 240 240" style="enable-background:new 0 0 240 240;" xml:space="preserve">
<style type="text/css">
	.st0{fill:#FFFFFF;}
</style>
<g>
	<path class="st0" d="M23,99.4c0-46.1,34.2-83.8,79.3-88c47.5-4.4,89.6,29.8,95,77.3c1.9,16.6-0.9,32.5-8.1,47.6
		c-0.7,1.5-1.2,2.1-3,1.2c-3.6-2-7.4-3.8-11.1-5.5c-1.8-0.8-1.9-1.4-1.1-3.2c10.7-23.8,9.4-47-4.7-69.1
		c-15.5-24.2-44.9-36.2-73.1-30.4c-28.4,5.9-50.6,28.8-55.3,57.3c-6.5,38.9,20.2,75.7,59.1,81.4c8.5,1.3,16.9,1,25.3-0.9
		c1.9-0.4,2.9-0.4,3.3,2c0.5,3.9,1.5,7.8,2.4,11.6c0.4,1.8,0.1,2.5-1.9,3c-45.8,10.4-93.1-19.2-103.7-65
		C23.8,112.1,22.9,105.4,23,99.4z"/>
	<path class="st0" d="M110.7,151.4c-26.2,0.4-49.5-19.8-52.8-45.8c-3.5-27.8,13.8-52.6,41.2-59c29-6.8,59,13.7,63.5,43.3
		c1.6,10.8,0.2,21.1-4.3,31c-0.8,1.7-1.4,2.2-3.2,1.2c-3.6-2-7.4-3.8-11.1-5.5c-1.7-0.8-1.8-1.5-1.1-3.1
		c9.5-21.1-1.9-44.7-24.3-50.2C99.2,58.7,79,71.5,75.1,91.1c-4,20.5,9.7,40,30,42.9c4.7,0.7,9.4,0.5,14-0.7c1.7-0.5,2,0.2,2.3,1.6
		c0.8,4.3,1.7,8.7,2.7,13c0.3,1.3,0,1.8-1.3,2.1C118.8,150.9,114.8,151.3,110.7,151.4z"/>
	<path class="st0" d="M169.2,194.2c-5.6,7.7-11.1,15.5-16.8,23.4c-1.1-2.8-18.5-87.4-18.8-91.4c27.8,13.8,55.5,27.4,83.5,41.3
		c-1.9,1.5-3.9,1.9-5.7,2.6c-6.9,2.7-13.8,5.4-20.8,8c-2.1,0.8-2.5,1.4-1,3.4c8.5,10.8,16.9,21.7,25.4,32.5c1.2,1.6,1.3,2.4-0.4,3.7
		c-4.4,3.3-8.7,6.8-12.9,10.4c-1.7,1.4-2.5,1.2-3.8-0.5c-8.4-11-16.8-21.9-25.3-32.9c-0.3-0.4-0.6-0.7-0.9-1
		C170.3,192.2,169.8,193.5,169.2,194.2z"/>
	<path class="st0" d="M110.3,116.3c-11.1,0.4-18.7-9.6-18.6-18.5c0.1-10.4,8.4-18.8,18.9-18.7c10.2,0,18.6,8.5,18.5,18.8
		C129,108.3,120.8,116.3,110.3,116.3z"/>
	<path class="st0" d="M169.2,194.2c0.1-0.9,0.6-1.6,1.4-1.6c0.6-0.1,0.9,0.5,0.9,1.1C170.5,193,169.9,193.9,169.2,194.2z"/>
</g>
</svg>
