<?xml version="1.0" encoding="utf-8"?>
<!-- Generator: Adobe Illustrator 23.0.1, SVG Export Plug-In . SVG Version: 6.00 Build 0)  -->
<svg version="1.1" id="Layer_1" xmlns="http://www.w3.org/2000/svg" xmlns:xlink="http://www.w3.org/1999/xlink" x="0px" y="0px"
	 viewBox="0 0 240 240" style="enable-background:new 0 0 240 240;" xml:space="preserve">
<style type="text/css">
	.st0{fill:#FFFFFF;}
</style>
<g>
	<path class="st0" d="M148.6,166.3c-1.5-1.5-3.1-3-4.6-4.5c-3.1-3.1-6.2-6.2-9.3-9.3c-1.2-1.2-1.2-1.2-2.4-0.2
		c-9.4,7.3-19.9,12-31.6,13.5c-21.3,2.7-40.2-3-56-17.9c-10.6-10-17.1-22.2-19.7-36.5c-0.6-3.1-1-6.2-0.9-9.3c0.1-3-0.2-6.1,0.1-9.1
		c1.6-16.6,8.5-30.8,20.6-42.3C54.9,40.9,67.1,35.1,81,32.9c3.6-0.6,7.3-0.5,11-0.5c14.1,0,26.8,4.3,38.3,12.4
		c0.7,0.5,1.8,0.9,2,1.7c0.2,0.8-0.7,1.6-1.1,2.3c-2.9,5.1-5.9,10.1-8.8,15.2c-0.2,0.3-0.4,0.6-0.6,0.9c-0.2,0.3-0.4,0.3-0.7,0.1
		c-0.3-0.2-0.5-0.4-0.7-0.6c-8.4-7-18.1-10.5-29-10.5c-21.4-0.1-40,15-44.2,36c-5,24.9,11.2,48.6,35.4,53.3
		c24.2,4.8,47.7-10.6,52.9-34.7c1.4-6.5,1.4-13-0.1-19.4c-0.2-0.8-0.2-1.5,0.3-2.2c4.1-7,8.1-14,12.2-21c0.2-0.3,0.3-0.7,0.7-0.9
		c0.4,0.3,0.6,0.9,0.9,1.4c4.4,7.7,7.2,15.9,8.1,24.7c1.8,17.8-2.2,34-13,48.5c-0.1,0.2-0.2,0.3-0.4,0.5c-0.5,0.6-0.5,1.1,0.1,1.6
		c0.3,0.2,0.5,0.5,0.8,0.8c3.9,3.9,7.8,7.8,11.8,11.8c0.4,0.4,0.7,0.8,1,1.2c-0.2,1.3-1.3,2-2.1,2.9c-2.1,2.5-4.2,4.9-6.3,7.4
		C149.3,166,149,166.3,148.6,166.3z"/>
	<path class="st0" d="M146.3,33c-2.3-1.6-4.6-3.2-6.9-4.8c1.1-0.8,25-12.2,26.7-12.7c0.1,1.3-2.1,27.9-2.5,29.5
		c-2.3-1.6-4.5-3.1-6.7-4.6c-0.6,0.3-0.7,0.8-1,1.2c-13,22.5-26.1,45-39.1,67.6c-1,1.7-0.6,1.6-2.4,0.7c-9.2-4.6-18.3-9.2-27.5-13.8
		c-0.2-0.1-0.4-0.2-0.6-0.3c-0.5-0.4-1-0.3-1.3,0.3c-0.3,0.4-0.6,0.9-0.9,1.3C77,107.6,69.9,117.8,62.7,128
		c-0.4,0.5-0.7,1.2-1.3,1.7c-1-1.1-2.1-2.2-3.1-3.3c-0.4-0.5-0.2-0.8,0-1.3c1.1-2.3,2.3-4.7,3.4-7.1c6.1-12.6,12.2-25.2,18.3-37.8
		c0.9-1.8,0.6-1.6,2.3-0.8c9.1,4.5,18.1,9.1,27.2,13.6c0,0,0.1,0.1,0.1,0.1c1.6,0.8,1.3,0.9,2.2-0.6c5.6-9.7,11.3-19.4,16.9-29.2
		c5.6-9.7,11.2-19.4,16.8-29C145.8,34,146,33.5,146.3,33z"/>
	<path class="st0" d="M148.6,166.3c3.1-3.6,6.2-7.2,9.3-10.8c0.7,0.3,0.9,1.3,1.7,1.3c0.7,0,1.1-0.7,1.7-1c2.6-1.3,5.1-1,7.4,0.5
		c0.9,0.5,1.6,1.3,2.4,2c13.4,13.4,26.8,26.9,40.2,40.3c1.3,1.3,2.6,2.6,3.9,3.8c0.5,0.5,0.7,1,0.7,1.6c0.1,3.1,0.1,3.1-2.2,5.3
		c-4.7,4.7-9.4,9.4-14.1,14.1c-1.4,1.4-2.8,1.4-4.2,0c-15.1-15-30.1-30.1-45.2-45.1c-0.3-0.3-0.6-0.6-0.9-0.9c-2.6-2.7-3-6-0.9-9.2
		C149.1,167.5,149.3,166.9,148.6,166.3z"/>
</g>
</svg>
