<?xml version="1.0" encoding="utf-8"?>
<!-- Generator: Adobe Illustrator 23.0.1, SVG Export Plug-In . SVG Version: 6.00 Build 0)  -->
<svg version="1.1" id="Layer_1" xmlns="http://www.w3.org/2000/svg" xmlns:xlink="http://www.w3.org/1999/xlink" x="0px" y="0px"
	 viewBox="0 0 240 240" style="enable-background:new 0 0 240 240;" xml:space="preserve">
<style type="text/css">
	.st0{fill:#FFFFFF;}
	.st1{fill:#E2E2E2;}
</style>
<g>
	<path class="st0" d="M51.5,42c0.4,2.4,0.7,4.7,1.1,7c1.9,11.1,5.1,21.8,9.6,32c4.5,10.3,10.2,19.8,17.3,28.6
		c10.2,12.7,22.5,23,36.7,31.1c10.8,6.1,22.2,10.6,34.2,13.4c8.6,2,17.4,3,26.2,3.1c5.9,0.1,11.7-0.1,17.5-0.8
		c5.5-0.7,10.9-1.7,16.2-2.7c2.9-0.6,5.8-1.1,8.7-1.7c-0.7,2.8-1.6,5.3-2.6,7.9c-7.1,18.1-18.8,32.6-34.5,44
		c-12.4,9.1-26.2,15.2-41.2,18.4c-8.5,1.8-17.1,2.5-25.8,2c-22.7-1.4-42.9-9.1-60.5-23.5c-12.9-10.5-22.8-23.5-29.5-38.7
		c-3.9-8.8-6.5-18-7.8-27.5c-1.1-7.6-1.4-15.2-0.8-22.8c0.9-11.8,3.7-23.1,8.6-33.9c4.3-9.6,9.8-18.4,16.7-26.3
		C44.7,48.2,47.9,45,51.5,42z"/>
	<path class="st0" d="M171.5,79.5c-15.9-5.7-32-10.4-47.9-16c-9.7-3.4-19.4-7.1-28.7-11.6c-5-2.4-9.9-5.1-14.4-8.4
		c-2.5-1.8-4.5-4.1-5.7-6.9c-1.3-2.9-0.8-5.6,1-8c1.2-1.7,2.9-2.9,4.6-4.1c4.1-2.8,8.8-4.2,13.5-5.5c9.5-2.5,19.2-3.6,29-3.2
		c13.3,0.4,26.1,3.1,38.3,8.4c13.6,5.9,25.3,14.5,35.3,25.4c10.2,11.1,17.6,23.8,22.4,38.1c1.3,3.7,2.1,7.5,2.3,11.5
		c0,0.2,0,0.4,0,0.5c-0.5,0.3-0.9,0-1.3-0.2c-2.7-1.6-5.5-3-8.3-4.4c-5.8-2.8-11.7-5.3-17.8-7.6c-4.4-1.6-8.9-3.2-13.4-4.7
		c-2.5-0.8-5-1.6-7.6-2.4C172.3,80.2,171.8,79.9,171.5,79.5z"/>
	<path class="st1" d="M171.5,79.5c8.8,2.7,17.5,5.6,26.1,9c8.1,3.2,16,6.8,23.6,11.2c0.9,0.4,1.2,1,1.3,2c0.9,7.3,1.6,14.5,1.4,21.9
		c-0.1,2.9-0.4,5.8-0.8,8.7c-0.1,0.8-0.3,0.9-1,0.6c-3.9-1.8-7.5-4.2-10.9-6.8c-7.9-6.1-15.7-12.4-22.7-19.5
		c-5.6-5.8-10.6-12-14.1-19.4C173.2,84.6,172.1,82.1,171.5,79.5z"/>
</g>
</svg>
