<?xml version="1.0" encoding="utf-8"?>
<!-- Generator: Adobe Illustrator 23.0.1, SVG Export Plug-In . SVG Version: 6.00 Build 0)  -->
<svg version="1.1" id="Layer_1" xmlns="http://www.w3.org/2000/svg" xmlns:xlink="http://www.w3.org/1999/xlink" x="0px" y="0px"
	 viewBox="0 0 240 240" style="enable-background:new 0 0 240 240;" xml:space="preserve">
<style type="text/css">
	.st0{fill:#FFFFFF;}
</style>
<g>
	<g>
		<path class="st0" d="M198.8,111.6c-1.2,0-2,0.5-2.5,1.5c-0.6,1.2-0.8,3-0.7,5.2l0,0.5c0,0.4,0,0.7,0,1.1h6.4v-1.6
			c0-2.1-0.1-3.7-0.4-4.6C201.2,112.3,200.2,111.6,198.8,111.6z"/>
		<path class="st0" d="M174.9,112.2c-1.8,0-2.9,1.9-3.3,5.7c-0.1,0.8-0.1,3.5-0.1,8.2c0,3.6,0.1,5.9,0.2,6.8
			c0.4,2.8,1.5,4.2,3.2,4.2c1.6,0,2.6-1.7,2.9-5.1c0.1-0.7,0.1-3.1,0.1-7.3c0-4.3,0-6.8-0.1-7.4
			C177.5,113.9,176.6,112.2,174.9,112.2z"/>
		<path class="st0" d="M220.3,139.2v-38.3c0-11-8.9-19.8-19.8-19.8h-78.5c-11,0-19.8,8.9-19.8,19.8v38.3c0,11,8.9,19.8,19.8,19.8
			h78.5C211.4,159,220.3,150.1,220.3,139.2L220.3,139.2z M137.1,101.8h-8.2v41.4h-7.1v-41.4h-8.2v-8.2h23.5V101.8z M159.3,143.2
			h-6.5v-3.7c-1.4,3.1-3.4,4.7-6,4.7c-4.3,0-6.4-3-6.4-9V106h6.4v24.3c0,2,0.1,3.4,0.3,4.3c0.4,1.5,1.2,2.2,2.5,2.2
			c1.3,0,2.2-0.8,2.7-2.4c0.2-0.9,0.4-2.5,0.4-4.6V106h6.7V143.2z M183.8,137.2c-1.1,4.7-3.3,7-6.7,7c-2.8,0-4.7-1.6-5.8-4.9v3.9
			l-6.3,0l0,0h0h0V93.6h6.6v15.5c1.1-2.8,3-4.1,5.6-4.1c3.4,0,5.6,2.4,6.6,7.2c0.5,2.4,0.8,6.6,0.8,12.6
			C184.7,130.6,184.4,134.7,183.8,137.2z M208.7,125.8h-13c0,0.4-0.1,1.2-0.1,2.4c0,2.8,0.1,4.7,0.3,5.9c0.5,2.4,1.5,3.6,3,3.6
			c2.2,0,3.3-2.4,3.3-7.3h0h6.2c0,0.2,0,0.4,0,0.7c0,0.3,0,0.6,0,0.7c0,4.3-0.8,7.4-2.4,9.4c-1.6,2-4,2.9-7.4,2.9
			c-3.5,0-5.9-1.2-7.5-3.6c-1.2-1.9-2-4.6-2.3-8.3c-0.1-1.6-0.2-4.6-0.2-9c0-3.5,0.1-6.1,0.2-7.6c0.3-3,0.9-5.4,2-7
			c1.7-2.6,4.3-3.9,8-3.9c3.5,0,6.1,1.4,7.7,4.2c1.3,2.3,2,6.9,2,13.8V125.8z"/>
	</g>
	<path class="st0" d="M29.8,143.5v-21.2L19.7,93.6h7.9l5.8,18.8l5.7-18.8h7.7L37,122.3v21.2H29.8L29.8,143.5z M49.3,124.8
		c0-6.5,0.5-11,1.5-13.7c1.5-4,4.3-6,8.7-6c4.3,0,7.2,2,8.7,6c1,2.7,1.5,7.3,1.5,13.7c0,6.5-0.5,11-1.5,13.7c-1.5,4-4.4,6-8.7,6
		c-4.3,0-7.2-2-8.7-6C49.8,135.8,49.3,131.2,49.3,124.8L49.3,124.8z M56.2,125.3c0,4.6,0,7.2,0.1,7.6c0.3,3.3,1.4,5,3.2,5
		c1.8,0,2.8-1.4,3.2-4.3c0.1-0.6,0.1-3,0.1-7v-3.7c0-3.8,0-6.1-0.1-6.9c-0.4-2.8-1.5-4.3-3.2-4.3c-1.7,0-2.7,1.3-3.1,3.8
		c-0.1,0.8-0.2,2.9-0.2,6.3L56.2,125.3L56.2,125.3z M93.6,106v37.5H87v-3.7c-1.4,3.1-3.4,4.7-6.1,4.7c-4.3,0-6.4-3-6.4-9V106H81
		v24.5c0,2,0.1,3.4,0.3,4.3c0.4,1.5,1.2,2.2,2.5,2.2c1.3,0,2.2-0.8,2.7-2.4c0.2-0.9,0.4-2.5,0.4-4.7V106H93.6L93.6,106z"/>
</g>
</svg>
