<?xml version="1.0" encoding="utf-8"?>
<!-- Generator: Adobe Illustrator 23.0.1, SVG Export Plug-In . SVG Version: 6.00 Build 0)  -->
<svg version="1.1" id="Layer_1" xmlns="http://www.w3.org/2000/svg" xmlns:xlink="http://www.w3.org/1999/xlink" x="0px" y="0px"
	 viewBox="0 0 54 54" style="enable-background:new 0 0 54 54;" xml:space="preserve">
<style type="text/css">
	.st0{fill:#FFFFFF;}
</style>
<path class="st0" d="M41.47,29.41c-0.46-0.6-1.14-0.98-1.89-1.07c-0.74-0.1-1.48,0.11-2.06,0.57l-6.72,5.2
	c-0.65,0.51-1.46,0.8-2.29,0.8h-1.62c1.28-1.23,2-2.93,2-4.71c0-0.52-0.42-0.94-0.94-0.94h0H17.58v-1
	c-0.03-0.51-0.43-0.91-0.94-0.94h-3.77c-0.51,0.03-0.91,0.43-0.94,0.94V41.5c0,0.52,0.42,0.94,0.94,0.94h3.77
	c0.52,0,0.94-0.42,0.94-0.94v-0.94h12.55c1.04-0.01,2.05-0.36,2.87-1l8-6.2c1.24-0.93,1.49-2.68,0.56-3.92
	c-0.02-0.03-0.04-0.05-0.06-0.08L41.47,29.41z M15.7,40.56h-1.89v-11.3h1.89V40.56z M40.18,31.25c-0.03,0.25-0.16,0.49-0.37,0.64
	l-8,6.19c-0.49,0.38-1.1,0.59-1.72,0.59H17.58v-7.53h9.33c-0.45,2.19-2.38,3.76-4.62,3.77c-0.52,0-0.94,0.42-0.94,0.94
	c0,0.52,0.42,0.94,0.94,0.94l0,0h6.22c1.27,0,2.49-0.42,3.49-1.2l6.71-5.2c0.19-0.14,0.43-0.21,0.67-0.19
	c0.25,0.04,0.48,0.17,0.64,0.37C40.16,30.77,40.22,31.01,40.18,31.25z"/>
<path class="st0" d="M37.36,16.07H16.64c-0.52,0-0.94,0.42-0.94,0.94l0,0v7.54c0,0.52,0.42,0.94,0.94,0.94s0.94-0.42,0.94-0.94V18
	h5.65v4.7c0,0.35,0.19,0.67,0.5,0.83c0.31,0.19,0.69,0.19,1,0L27,21.91l2.3,1.54c0.16,0.1,0.34,0.16,0.52,0.16
	c0.16,0,0.31-0.04,0.45-0.12c0.3-0.17,0.49-0.49,0.5-0.83V18h5.65v8.47c0,0.52,0.42,0.94,0.94,0.94c0.52,0,0.94-0.42,0.94-0.94V17
	C38.29,16.48,37.88,16.07,37.36,16.07z M28.88,20.9L27.52,20c-0.31-0.19-0.69-0.19-1,0l-1.36,0.9V18h3.76L28.88,20.9z"/>
</svg>
