<?xml version="1.0" encoding="utf-8"?>
<!-- Generator: Adobe Illustrator 23.0.1, SVG Export Plug-In . SVG Version: 6.00 Build 0)  -->
<svg version="1.1" id="Layer_1" xmlns="http://www.w3.org/2000/svg" xmlns:xlink="http://www.w3.org/1999/xlink" x="0px" y="0px"
	 viewBox="0 0 54 54" style="enable-background:new 0 0 54 54;" xml:space="preserve">
<style type="text/css">
	.st0{fill:#FFFFFF;}
</style>
<path class="st0" d="M27.84,14.67L27.84,14.67c-0.55,0.01-0.99,0.46-0.99,1.01c0,0.26,0.11,0.51,0.3,0.7l0.07,0.07
	c0.48,0.47,1,0.95,1.43,1.44c0.06,0.07,0.1,0.16,0.11,0.26c0,0.86,0,1.73,0,2.57v0.69c-1.11,0.12-1.96,1.04-2,2.16
	c-0.05,1.14,0.61,1.9,2,2.31V26c0.06,1.57,0.81,3.04,2.06,4c0.42,0.27,0.67,0.75,0.66,1.25c0.03,1.17,0.8,2.2,1.92,2.55
	c0.03,0.01,0.05,0.05,0.05,0.08V35c-0.05,0.51,0.31,0.96,0.82,1.01c0.51,0.05,0.96-0.31,1.01-0.82c0.01-0.06,0.01-0.13,0-0.19v-1.11
	l0.36-0.24c0.32-0.2,0.61-0.43,0.89-0.68c0.62-0.65,0.9-1.54,0.77-2.43c0-0.14,0-0.17,0.09-0.22c1.5-0.95,2.47-2.55,2.61-4.32
	c0-0.04,0.03-0.07,0.07-0.08c0.91-0.08,1.67-0.74,1.87-1.64c0.3-0.85-0.01-1.8-0.75-2.31l0,0c-0.27-0.19-0.57-0.35-0.88-0.46
	L40,21.34v-2.95c0.06-1.99-1.51-3.65-3.51-3.71c-0.08,0-0.16,0-0.23,0L27.84,14.67L27.84,14.67z M35.45,31.16
	c-0.03,0.31-0.2,0.59-0.46,0.76c-0.34,0.24-0.81,0.24-1.15,0c-0.3-0.15-0.5-0.45-0.54-0.78h0.14c0.33,0,0.63,0.07,1,0.07
	s0.63-0.05,0.94-0.09L35.45,31.16z M29,24.55c-0.42-0.06-0.72-0.42-0.72-0.84c-0.03-0.45,0.27-0.86,0.72-0.95V24.55z M30.56,24.69
	c0-0.04,0-0.07,0-0.11v-1.14c0-0.61,0-1.29,0-1.62l0,0c0.82-0.22,1.54-0.7,2.05-1.38c1.64,0.99,3.53,1.5,5.45,1.47v2.65
	c0,0.18,0,0.36,0,0.53c0.1,1.08-0.23,2.16-0.93,3c-0.68,0.79-1.66,1.27-2.7,1.33c-0.99,0.07-1.97-0.29-2.67-1
	c-1-1-1.3-1.87-1.22-3.74L30.56,24.69z M38.1,19.69V20h-0.43c-1.22-0.06-2.42-0.35-3.54-0.85c-0.48-0.2-0.82-0.64-0.9-1.15
	c-0.09-0.4-0.45-0.68-0.86-0.67h-0.1c-0.44,0.03-0.79,0.39-0.81,0.83c0.02,0.48-0.15,0.94-0.46,1.3c-0.14,0.13-0.28,0.24-0.43,0.35
	v-0.4c0-0.52,0-1.05,0-1.57c0.02-0.4-0.14-0.79-0.45-1.05l0,0l-0.28-0.27h6.36c0.98-0.09,1.85,0.64,1.94,1.63
	c0.01,0.1,0.01,0.21,0,0.31L38.1,19.69z M39.66,24.38v-1.64c0.78,0.2,0.77,0.68,0.77,0.84c0.03,0.42-0.23,0.7-0.73,0.81L39.66,24.38
	z"/>
<path class="st0" d="M27.85,29.35c0.13-0.38,0.03-0.8-0.27-1.07l-0.11-0.1v-0.05l-0.64-0.64c-0.69-0.69-1.4-1.39-2.08-2.1
	c-0.07-0.09-0.12-0.2-0.13-0.32c0-0.35,0-0.72,0-1.07s0-0.67,0-1c0.02-1.25-0.98-2.27-2.23-2.29c-0.03,0-0.07,0-0.1,0
	c-3.73,0-6.58,0-9.24,0c-0.38,0.02-0.75,0.1-1.1,0.26c-0.4,0.17-0.72,0.48-0.92,0.86c-0.21,0.37-0.32,0.8-0.32,1.23v10.75
	c0.01,0.13,0.03,0.26,0.06,0.38l0,0c0.24,1.09,1.22,1.85,2.33,1.81h9c1.24,0.1,2.34-0.82,2.44-2.06c0.01-0.12,0.01-0.25,0-0.38
	c0-0.8,0-1.62,0-2.41v-1.21h2.34C27.3,29.98,27.7,29.74,27.85,29.35z M23.13,26.45c0.45,0.44,0.9,0.89,1.33,1.33l0.31,0.3h-0.88
	c-0.82,0-1.17,0.34-1.17,1.15v4.24c0,0.53-0.11,0.64-0.63,0.64h-9c-0.49,0-0.62-0.13-0.62-0.63V23.19c0-0.51,0.14-0.64,0.65-0.64
	h8.92c0.54,0,0.66,0.12,0.66,0.65v0.56c0,0.56,0,1.13,0,1.7C22.69,25.84,22.85,26.2,23.13,26.45z"/>
<path class="st0" d="M43.34,35c-0.15-1.37-0.92-2.6-2.09-3.33c-0.83-0.59-1.82-0.91-2.84-0.9h-0.25v1.79h0.22h0.22l0.42,0.06
	c1.47,0.31,2.51,1.63,2.48,3.13c0,1.38,0,2.79,0,4.14c0,0.51,0,1,0,1.52H40v-3.66c0-0.51-0.42-0.93-0.93-0.93s-0.93,0.42-0.93,0.93
	v3.73H30.6v-3.73c-0.05-0.51-0.51-0.88-1.02-0.83c-0.44,0.05-0.78,0.39-0.83,0.83v3.74h-1.5v-1.62c0-1.42,0-2.88,0-4.32
	c0.06-1.23,0.85-2.3,2-2.72c0.25-0.08,0.5-0.14,0.76-0.19l0.38-0.08l0.19-0.05v-1.72h-0.24c-1.27-0.01-2.49,0.48-3.4,1.37
	c-0.91,0.83-1.44,1.98-1.49,3.21c0,1.52,0,3.05,0,4.54v2.41c-0.01,0.25,0.07,0.5,0.23,0.69c0.19,0.22,0.46,0.34,0.75,0.34h16
	c0.52,0,0.94-0.42,0.94-0.94C43.35,37.54,43.35,35.05,43.34,35z"/>
<path class="st0" d="M11.57,19.9c0.5,0,0.91-0.4,0.93-0.9v-1.1h2.91c1.27,0.09,2.37-0.86,2.46-2.13c0.01-0.11,0.01-0.21,0-0.32
	v-2.96h15c0.47,0,0.6,0.14,0.61,0.61l0,0c0,0.39,0.32,0.71,0.71,0.71c0,0,0.01,0,0.01,0h0.4c0.4,0,0.72-0.32,0.72-0.72
	c0,0,0-0.01,0-0.01c0.01-0.41-0.07-0.82-0.25-1.19c-0.18-0.35-0.45-0.65-0.78-0.87c-0.4-0.25-0.86-0.38-1.33-0.38h-16.3l-0.07,0.06
	c-0.05,0-5.74,5.73-5.89,6v0.07V19C10.71,19.48,11.09,19.87,11.57,19.9z M14,16l2-2l0,0c0,0.53,0,1.07,0,1.62
	c0.02,0.19-0.11,0.37-0.3,0.39c-0.03,0-0.06,0-0.09,0H14V16z"/>
<path class="st0" d="M13.19,41.51c-0.55,0-0.7-0.09-0.7-0.71s0-2.21,0-3.08c-0.05-0.51-0.51-0.87-1.01-0.82
	c-0.43,0.05-0.77,0.39-0.82,0.82v3.74c0.16,0.73,0.66,1.35,1.34,1.66c0.13,0.06,0.26,0.11,0.4,0.15l0.17,0.06l0,0h12V41.5
	L13.19,41.51L13.19,41.51z"/>
<path class="st0" d="M14.92,27.93h5.36c0.51,0,0.92-0.41,0.92-0.92s-0.41-0.92-0.92-0.92h-5.36c-0.5,0-0.91,0.41-0.92,0.91
	c0.01,0.25,0.1,0.48,0.27,0.66C14.44,27.83,14.68,27.93,14.92,27.93z"/>
<path class="st0" d="M20.3,31.47h-5.38c-0.5,0-0.9,0.4-0.9,0.9c0,0.5,0.4,0.9,0.9,0.9l0,0h5.38c0.5,0,0.9-0.4,0.9-0.9
	C21.2,31.87,20.8,31.47,20.3,31.47z"/>
<path class="st0" d="M20.3,28.78h-5.38c-0.5,0-0.9,0.4-0.9,0.9c0,0.5,0.4,0.9,0.9,0.9h5.38c0.5,0,0.9-0.4,0.9-0.9
	C21.2,29.18,20.8,28.78,20.3,28.78C20.3,28.78,20.3,28.78,20.3,28.78z"/>
<path class="st0" d="M16.27,25.22h4c0.5,0,0.9-0.4,0.9-0.9c0-0.5-0.4-0.9-0.9-0.9h-4c-0.5,0-0.9,0.4-0.9,0.9
	C15.37,24.82,15.77,25.22,16.27,25.22z"/>
</svg>
