<?xml version="1.0" encoding="utf-8"?>
<!-- Generator: Adobe Illustrator 23.0.1, SVG Export Plug-In . SVG Version: 6.00 Build 0)  -->
<svg version="1.1" xmlns="http://www.w3.org/2000/svg" xmlns:xlink="http://www.w3.org/1999/xlink" x="0px" y="0px"
	 viewBox="0 0 3710 3710" style="enable-background:new 0 0 3710 3710;" xml:space="preserve">
<style type="text/css">
	.st0{fill:#E8EEEC;}
	.st1{clip-path:url(#SVGID_2_);fill:url(#SVGID_3_);}
	.st2{opacity:0.5;clip-path:url(#SVGID_2_);}
	.st3{fill:#BEB8F2;}
	.st4{fill:url(#SVGID_4_);}
	.st5{opacity:0.5;clip-path:url(#SVGID_6_);}
	.st6{fill:#FCFDFE;}
	.st7{clip-path:url(#SVGID_8_);fill:url(#SVGID_9_);}
	.st8{opacity:0.5;clip-path:url(#SVGID_8_);}
	.st9{fill:url(#SVGID_10_);}
	.st10{fill:#FFFFFF;}
	.st11{opacity:0.4;fill:url(#SVGID_11_);}
	.st12{fill:#26264F;}
	.st13{fill:#C13616;}
	.st14{fill:#E24D20;}
	.st15{fill:#A8240E;}
	.st16{fill:url(#SVGID_12_);}
	.st17{fill:url(#SVGID_13_);}
	.st18{fill:url(#SVGID_14_);}
	.st19{fill:url(#SVGID_15_);}
	.st20{fill:url(#SVGID_16_);}
	.st21{fill:url(#SVGID_17_);}
	.st22{fill:url(#SVGID_18_);}
	.st23{fill:url(#SVGID_19_);}
	.st24{fill:url(#SVGID_20_);}
	.st25{fill:url(#SVGID_21_);}
	.st26{fill:url(#SVGID_22_);}
	.st27{fill:url(#SVGID_23_);}
	.st28{fill:url(#SVGID_24_);}
	.st29{fill:#9B305E;}
</style>
<g id="Background">
</g>
<g id="Illustration">
	<g>
		<path class="st0" d="M2361.42,514.72c-211.6-47.21-431.6-69.83-646.7-55.41c-190.65,12.78-406.76,47.67-560.18,172.65
			c-73.11,59.56-160.31,166.58-184.22,260.99c0,0.01-125.89,496.95-377.65,603.44c-251.77,106.49-426.6,1923.91,1482.62,1746.43
			c0,0,1121.37-46.51,1188.89-1386.11c16.31-323.61,7.2-679.36-188.2-949.95c-149.73-207.35-359.53-299.55-600.6-364.06
			C2437.72,532.61,2399.71,523.26,2361.42,514.72z"/>
		<g>
			<g>
				<defs>
					<path id="SVGID_1_" d="M2133.3,2689.37l219.72-11.06c0,0,35.69-114.79-22.16-191.63c-118.03-156.76,27.51-249.2,82.67-297.03
						c83.19-72.14,125.05-171.99-4.43-208.03c-129.48-36.04-11.44-239.83,139.7-336.96c147.91-95.06,64.28-412.83-274.74-236.49
						c-202.46,105.31-158.94,323.4-163.15,438.76c-4.21,115.36-174.55,133.46-109.02,270.82
						c55.97,117.33,155.25,199.95,86.99,285.99C2020.63,2489.78,2017.79,2582.54,2133.3,2689.37z"/>
				</defs>
				<clipPath id="SVGID_2_">
					<use xlink:href="#SVGID_1_"  style="overflow:visible;"/>
				</clipPath>
				
					<linearGradient id="SVGID_3_" gradientUnits="userSpaceOnUse" x1="4756.3535" y1="2697.2864" x2="4318.3657" y2="3942.095" gradientTransform="matrix(0.9987 -0.0503 0.0503 0.9987 -2428.0967 -1063.5695)">
					<stop  offset="0" style="stop-color:#FF9085"/>
					<stop  offset="1" style="stop-color:#FB6FBB"/>
				</linearGradient>
				<path class="st1" d="M2133.3,2689.37l219.72-11.06c0,0,35.69-114.79-22.16-191.63c-118.03-156.76,27.51-249.2,82.67-297.03
					c83.19-72.14,116.95-161.63,9.94-213.2c-121.07-58.34-25.82-234.66,125.33-331.79c147.91-95.06,64.28-412.83-274.74-236.49
					c-202.46,105.31-158.94,323.4-163.15,438.76c-4.21,115.36-174.55,133.46-109.02,270.82c55.97,117.33,155.25,199.95,86.99,285.99
					C2020.63,2489.78,2017.79,2582.54,2133.3,2689.37z"/>
				<g class="st2">
					<path class="st3" d="M2229.43,2704.98l4.52-1.07c-0.66-2.8-65.75-283.35-46.42-580.93
						c17.81-274.15,113.01-619.27,465.38-706.56l-1.12-4.51c-156.86,38.86-276.67,131.15-356.12,274.3
						c-63.46,114.36-101.41,261.24-112.79,436.56C2163.53,2421.03,2228.77,2702.17,2229.43,2704.98z"/>
					<path class="st3" d="M2265.07,1747.47l4.57-0.81c-26.78-152.24,20.63-372.8,21.11-375.01l-4.54-0.99
						C2285.73,1372.88,2238.12,1594.33,2265.07,1747.47z"/>
					<path class="st3" d="M2320.61,1653.53c151.25-105.15,299.49-65.81,300.97-65.4l1.24-4.47c-1.5-0.42-151.75-40.37-304.86,66.06
						L2320.61,1653.53z"/>
					<path class="st3" d="M2185.49,2318.21c40.86-221.3,335.6-289.91,338.52-290.34l-0.37-4.63
						c-2.91,0.15-301.5,70.85-342.72,294.12L2185.49,2318.21z"/>
					<path class="st3" d="M2179.39,2225.62l4.5-1.17c-36.27-138.95-193.45-227.9-195.04-228.78l-2.26,4.06
						C1988.16,2000.59,2143.63,2088.61,2179.39,2225.62z"/>
					<path class="st3" d="M2224.68,2659.54c2.4-85.46,120.54-158.97,121.73-159.71l-2.43-3.96
						c-4.96,3.04-121.47,75.56-123.94,163.53L2224.68,2659.54z"/>
					<path class="st3" d="M2208.37,2593.31l4.53-1.01c-14.71-65.98-119.03-135.04-153.31-157.74c-4.84-3.21-9.03-5.98-9.67-6.62
						l-3.31,3.26c0.9,0.92,3.68,2.76,10.42,7.23C2090.92,2460.87,2194.07,2529.16,2208.37,2593.31z"/>
				</g>
			</g>
			<g>
				
					<linearGradient id="SVGID_4_" gradientUnits="userSpaceOnUse" x1="-332.6978" y1="1591.0323" x2="436.3207" y2="3639.1326" gradientTransform="matrix(0.7023 -0.7119 0.7119 0.7023 933.8446 490.9901)">
					<stop  offset="3.597120e-03" style="stop-color:#E38DDD"/>
					<stop  offset="1" style="stop-color:#9571F6"/>
				</linearGradient>
				<path class="st4" d="M2191.98,2787.18c-12.6,4.88-31.6-63.49-108.02-122.84c-19.09-14.83-117.62-102.93-206.65-58.8
					c-17.28,8.57-34.57,17.13-51.85,25.7c-35.19-30.21-62.76-65.19-19.19-107.6c67.66-65.86-4.38-199.27-52.55-234.21
					c-59.62-43.24-196.16-146.75-93.18-250.09c85.74-86.03,158.72-125.43,96.55-253.43c-62.18-128-33.23-244.46,90.91-301.93
					c130.64-60.47,146.07-274.1,279.02-277.27c231.66-5.52,221.2,356.25,46.22,553.96c-174.98,197.71-7.78,203.85,54.91,302.22
					c5.3,9.46,12.79,24.54,18.25,44.01c33.63,119.9-67.96,198.61-100.43,329.22C2101.69,2614.25,2213.21,2778.96,2191.98,2787.18z"
					/>
				<g>
					<defs>
						<path id="SVGID_5_" d="M2127.8,2509.3l-276.33,146.66c-36.21-28.16-93.88-84.95-45.21-132.33
							c67.66-65.86-4.38-199.27-52.55-234.21c-59.62-43.24-196.16-146.75-93.18-250.09c85.74-86.03,158.72-125.43,96.54-253.43
							c-62.18-128-33.23-244.46,90.92-301.93c130.64-60.47,146.07-274.1,279.02-277.27c231.66-5.52,221.2,356.25,46.22,553.96
							c-174.98,197.71-7.78,203.85,54.91,302.23c85.58,134.3-130.86,212.67-153.21,295.68
							C2057.43,2423.63,2098.05,2478.41,2127.8,2509.3z"/>
					</defs>
					<clipPath id="SVGID_6_">
						<use xlink:href="#SVGID_5_"  style="overflow:visible;"/>
					</clipPath>
					<g class="st5">
						<path class="st6" d="M1975.34,2537.58l-6.47,2.03c-136.33-447.88-42.42-965.7,245.07-1351.39l5.42,3.61
							C1933.08,1575.89,1839.58,2091.56,1975.34,2537.58z"/>
						<path class="st6" d="M1923.1,2286.45l-5.97,3.2c-89.23-161.01-305.73-207.74-307.91-208.2l1.68-6.31
							C1613.1,2075.6,1832.47,2122.9,1923.1,2286.45z"/>
						<path class="st6" d="M1952.63,2454.44l-6.73,0.16c3.02-187.96,307.94-377.81,311.02-379.71l3.48,5.39
							C2257.35,2082.16,1955.59,2270.05,1952.63,2454.44z"/>
						<path class="st6" d="M1942,1823.91l-6.72,0.71c-10.9-148.26-194.87-286.75-196.72-288.13l4.26-5.16
							C1744.69,1532.73,1930.9,1672.92,1942,1823.91z"/>
						<path class="st6" d="M2027.78,1532.67l-5.78-3.1c91.2-149.11,322.42-217.7,324.75-218.38l1.72,6.17
							C2346.17,1318.03,2117.55,1385.88,2027.78,1532.67z"/>
					</g>
				</g>
			</g>
			<g>
				<defs>
					<path id="SVGID_7_" d="M2138.27,2870.42l162.82-147.95c0,0-45.24-111.37-138.71-134.06
						c-190.69-46.29-136.84-210.07-124.55-282.05c18.54-108.54-12.46-212.28-135.4-157.99s-161-178.12-105.8-349.1
						c54.02-167.31-212.23-359.89-362.4-8.49c-89.68,209.85,82.32,350.82,152.26,442.66s-50.25,213.9,87.55,278.51
						c117.7,55.19,246.86,56.06,248.68,165.87C1924.54,2787.63,1981.2,2861.13,2138.27,2870.42z"/>
				</defs>
				<clipPath id="SVGID_8_">
					<use xlink:href="#SVGID_7_"  style="overflow:visible;"/>
				</clipPath>
				
					<linearGradient id="SVGID_9_" gradientUnits="userSpaceOnUse" x1="167.6641" y1="1999.4391" x2="-270.3077" y2="3244.2021" gradientTransform="matrix(0.7401 -0.6725 0.6725 0.7401 96.6031 293.9064)">
					<stop  offset="0" style="stop-color:#FFC444"/>
					<stop  offset="0.9964" style="stop-color:#F36F56"/>
				</linearGradient>
				<path class="st7" d="M2138.27,2870.42l162.82-147.95c0,0-45.24-111.37-138.71-134.06c-190.69-46.29-136.84-210.07-124.55-282.05
					c18.54-108.54-12.15-199.13-127.58-171.1c-130.6,31.72-168.83-165-113.63-335.98c54.02-167.31-212.23-359.89-362.4-8.49
					c-89.68,209.85,82.32,350.82,152.26,442.66s-50.25,213.9,87.55,278.51c117.7,55.19,246.86,56.06,248.68,165.87
					C1924.54,2787.63,1981.2,2861.13,2138.27,2870.42z"/>
				<g class="st8">
					<path class="st3" d="M2222.47,2821.5l2.82-3.69c-2.29-1.75-230.6-177.31-404.45-419.6
						c-160.17-223.21-305.54-550.38-88.55-841.41l-3.72-2.78c-96.6,129.55-130.66,276.91-101.24,437.96
						c23.5,128.66,87.35,266.27,189.79,409.01C1991.38,2643.82,2220.18,2819.75,2222.47,2821.5z"/>
					<path class="st3" d="M1642.53,2058.76l3.02-3.53c-117.29-100.69-220.58-301.25-221.61-303.27l-4.14,2.11
						C1420.85,1756.1,1524.55,1957.48,1642.53,2058.76z"/>
					<path class="st3" d="M1625.87,1950.91c50.2-177.23,189.74-240.88,191.15-241.5l-1.88-4.25
						c-1.43,0.63-142.92,65.07-193.74,244.48L1625.87,1950.91z"/>
					<path class="st3" d="M1943.13,2550.42c-108.82-196.98,75.47-437.01,77.46-439.2l-3.22-3.34
						c-2.16,1.96-188.1,246.05-78.31,444.78L1943.13,2550.42z"/>
					<path class="st3" d="M1879.67,2482.71l2.73-3.76c-116.19-84.39-294.12-53.43-295.91-53.1l0.83,4.57
						C1589.08,2430.1,1765.1,2399.5,1879.67,2482.71z"/>
					<path class="st3" d="M2189.97,2789.39c-52.36-67.58-7.69-199.36-7.23-200.68l-4.39-1.52c-1.9,5.5-45.96,135.47,7.95,205.04
						L2189.97,2789.39z"/>
					<path class="st3" d="M2135.34,2748.54l2.86-3.66c-53.23-41.66-177.69-28.87-218.59-24.66c-5.78,0.59-10.77,1.11-11.68,1.02
						l-0.49,4.62c1.28,0.14,4.6-0.2,12.64-1.02C1960.53,2720.68,2083.59,2708.03,2135.34,2748.54z"/>
				</g>
			</g>
		</g>
		<g>
			<g>
				<linearGradient id="SVGID_10_" gradientUnits="userSpaceOnUse" x1="3202.4541" y1="786.3914" x2="2550.2266" y2="754.3141">
					<stop  offset="0" style="stop-color:#FFC444"/>
					<stop  offset="0.9964" style="stop-color:#F36F56"/>
				</linearGradient>
				<path class="st9" d="M3128.99,991.14c-0.11,0.61-0.22,1.15-0.36,1.66c-16.59,65.59-148.09,53.17-240.6,24.87
					c-127.61-38.99-168.68-104.43-252.45-74.66c-38.66,13.71-68.04,41.18-86.79,62.24c8.5-154.1-8.89-310.22-0.86-464.36
					c0.04-1.48,0.14-2.99,0.22-4.46c109.58-54.32,214.07-39.67,266.24-16.6c61.7,27.32,82.15,47.8,136.75,58.1
					c48.52,9.14,98.89-50.36,136.72-8.32c2.56,2.84,5.69,6.37,9.22,12.45c27.11,46.83-4.93,103.42,3.93,202.27
					c4.53,50.54,15.51,64.58,25.67,161.77C3130.04,978.61,3129.82,986.74,3128.99,991.14z"/>
				<path class="st10" d="M2831.96,621.76l34.3,69.5c1.27,2.58,3.73,4.36,6.57,4.77l76.7,11.14c7.16,1.04,10.01,9.83,4.84,14.88
					l-55.5,54.1c-2.06,2-2.99,4.89-2.51,7.72l13.1,76.39c1.22,7.13-6.26,12.56-12.66,9.2l-68.6-36.07c-2.54-1.34-5.58-1.34-8.12,0
					l-68.6,36.07c-6.4,3.36-13.88-2.07-12.66-9.2l13.1-76.39c0.49-2.83-0.45-5.72-2.51-7.72l-55.5-54.1
					c-5.18-5.05-2.32-13.84,4.84-14.88l76.7-11.14c2.84-0.41,5.3-2.2,6.57-4.77l34.3-69.5
					C2819.51,615.27,2828.76,615.27,2831.96,621.76z"/>
				<linearGradient id="SVGID_11_" gradientUnits="userSpaceOnUse" x1="2545.7502" y1="781.524" x2="3128.9939" y2="781.524">
					<stop  offset="0" style="stop-color:#FFC444"/>
					<stop  offset="0.9964" style="stop-color:#F36F56"/>
				</linearGradient>
				<path class="st11" d="M3128.99,991.14c-0.11,0.61-0.22,1.15-0.36,1.66c-16.59,65.59-148.09,53.17-240.6,24.87
					c-127.61-38.99-168.68-104.43-252.45-74.66c-38.66,13.71-68.04,41.18-86.79,62.24c8.5-154.1-8.89-310.22-0.86-464.36
					c24.12-18.93,77.32-42.51,143.34,38.7c90.75,111.66,27.43,206.41,169.01,211.2C2997.79,795.42,2972.33,1010.57,3128.99,991.14z"
					/>
			</g>
			<g>
				<path class="st12" d="M2549.52,1774.42c-3.98,0-7.2-3.22-7.2-7.2V491.52c0-3.98,3.22-7.2,7.2-7.2s7.2,3.22,7.2,7.2v1275.71
					C2556.72,1771.2,2553.5,1774.42,2549.52,1774.42z"/>
			</g>
		</g>
		<polygon class="st13" points="2691.27,3058.44 2127.71,3033.08 2127.71,1671.57 2691.27,1655.64 		"/>
		<polygon class="st14" points="3100.21,3028.08 2691.27,3058.44 2691.27,1655.64 3100.21,1678.99 		"/>
		<polygon class="st13" points="1824.88,3127.08 1280.79,3092.35 1280.79,2264.26 1824.88,2279.91 		"/>
		<polygon class="st14" points="2300.8,3086.57 1824.88,3127.08 1824.88,2279.91 2300.8,2269.97 		"/>
		<polygon class="st15" points="1280.79,2264.26 1798.28,2241.83 2300.8,2269.97 1819.21,2287.8 		"/>
		<polygon class="st13" points="1054.99,3210.32 533.81,3170.19 533.81,2627.33 1054.99,2661.94 		"/>
		<polygon class="st14" points="1615.8,3163.29 1054.99,3210.32 1054.99,2661.94 1615.8,2631.17 		"/>
		<polygon class="st15" points="533.81,2627.33 1056.58,2603.55 1615.8,2631.17 1054.99,2661.94 		"/>
		<g>
			
				<linearGradient id="SVGID_12_" gradientUnits="userSpaceOnUse" x1="-471.0794" y1="1327.0852" x2="-417.3436" y2="1450.7629" gradientTransform="matrix(-1 0 0 1 1015.0479 0)">
				<stop  offset="0" style="stop-color:#FFC444"/>
				<stop  offset="0.9964" style="stop-color:#F36F56"/>
			</linearGradient>
			<path class="st16" d="M1443.28,1413.1c0,0,10.52-54.95,21.04-71.31c10.52-16.37,30.15-26.89,30.15-26.89s4.09,6.73-8.94,20.9
				c-13.03,14.17-2.17,15.57,0,20.13c2.17,4.56-2.51,20.93-11.86,26.77c-9.35,5.85-12.86,37.71-12.86,37.71L1443.28,1413.1z"/>
			
				<linearGradient id="SVGID_13_" gradientUnits="userSpaceOnUse" x1="-333.6577" y1="1415.936" x2="-115.6712" y2="1917.6512" gradientTransform="matrix(-1 0 0 1 1015.0479 0)">
				<stop  offset="0" style="stop-color:#FF9085"/>
				<stop  offset="1" style="stop-color:#FB6FBB"/>
			</linearGradient>
			<path class="st17" d="M1473.67,1406.09c-11.3-1.95-22.6-3.9-33.9-5.85c-40.45,74.99-87.84,123.19-120.1,151.17
				c-38.13,33.06-62.74,54.41-103.19,65.11c-59.76,15.81-111.37-2.75-118.08,14.03c-3.28,8.2,8.1,17.09,26.3,38.87
				c53.02,63.44,48.01,97.55,77.16,106.97c24.08,7.78,48.32-8.96,89.44-38.29c37.4-26.68,84.3-60.14,123.92-123.92
				C1468.37,1528.63,1473.7,1444.46,1473.67,1406.09z"/>
			
				<linearGradient id="SVGID_14_" gradientUnits="userSpaceOnUse" x1="2602.3499" y1="1925.64" x2="2674.7485" y2="1636.0443" gradientTransform="matrix(-1 0 0 1 3624.1272 0)">
				<stop  offset="0" style="stop-color:#FF9085"/>
				<stop  offset="1" style="stop-color:#FB6FBB"/>
			</linearGradient>
			<path class="st18" d="M975.64,1637.37c-5.49,2.08-89.29,35.4-106.51,122.86c-1.39,7.06-14.85,82.2,36.1,135.28
				c57.14,59.52,167.16,58.05,210.84,8.29c10.18-11.6,15.56-24.47,18.57-35.27l0,0l-11.51-30.57
				c-14.04-16.95-33.16-20.97-43.37-23.48c-25.17-6.2-44.17,5.01-58.59-7.13c-7.98-6.72-9.56-16.38-10.98-25.01
				c-4.82-29.41,11.78-47.51,12.99-65.64c0.9-13.56,5.65-43.26-12.05-62.63C999.94,1641.78,984.41,1638.44,975.64,1637.37z"/>
			
				<linearGradient id="SVGID_15_" gradientUnits="userSpaceOnUse" x1="2412.3604" y1="2754.2813" x2="2446.7039" y2="2784.8298" gradientTransform="matrix(-0.9902 -0.14 -0.14 0.9902 3726.9702 206.9384)">
				<stop  offset="0" style="stop-color:#444B8C"/>
				<stop  offset="0.9964" style="stop-color:#26264F"/>
			</linearGradient>
			<path class="st19" d="M942.99,2612.04c-0.98-5.38-18.36-10.26-26.97-3.05c-4.28,3.58-7.22,10.84-4.75,14.12
				c0.9,1.19-2.79,3.29,0.75,3.33C923.73,2626.57,943.97,2617.39,942.99,2612.04z"/>
			
				<linearGradient id="SVGID_16_" gradientUnits="userSpaceOnUse" x1="1520.1766" y1="2784.8699" x2="1520.1766" y2="2725.0403" gradientTransform="matrix(-0.9902 -0.14 -0.14 0.9902 2810.769 77.4224)">
				<stop  offset="0" style="stop-color:#FFC444"/>
				<stop  offset="0.9964" style="stop-color:#F36F56"/>
			</linearGradient>
			<path class="st20" d="M924.77,2613.99l-17.88-2.53c8.28-9.97,6.75-41.74,6.75-41.74l19.02,4.24c0,0-2.17,8.72-5.85,21.58
				C925.54,2599.96,924.98,2606.85,924.77,2613.99z"/>
			
				<linearGradient id="SVGID_17_" gradientUnits="userSpaceOnUse" x1="2415.8132" y1="2750.4004" x2="2450.1565" y2="2780.9487" gradientTransform="matrix(-0.9902 -0.14 -0.14 0.9902 3726.9702 206.9384)">
				<stop  offset="0" style="stop-color:#444B8C"/>
				<stop  offset="0.9964" style="stop-color:#26264F"/>
			</linearGradient>
			<path class="st21" d="M926.36,2611.79c0,0-21.53-4.96-23.86-0.69c-2.33,4.27-4.14,15.7,9.52,15.34
				C925.68,2626.07,927.57,2615.41,926.36,2611.79z"/>
			
				<linearGradient id="SVGID_18_" gradientUnits="userSpaceOnUse" x1="2428.3923" y1="2615.4863" x2="2462.7373" y2="2646.0364" gradientTransform="matrix(-1 0 0 1 3624.1272 0)">
				<stop  offset="0" style="stop-color:#444B8C"/>
				<stop  offset="0.9964" style="stop-color:#26264F"/>
			</linearGradient>
			<path class="st22" d="M1188.35,2632.22c-1.72-5.19-19.62-7.59-27.14,0.76c-3.73,4.14-5.63,11.74-2.72,14.64
				c1.06,1.06-2.3,3.65,1.2,3.19C1171.31,2649.32,1190.06,2637.39,1188.35,2632.22z"/>
			
				<linearGradient id="SVGID_19_" gradientUnits="userSpaceOnUse" x1="1536.1646" y1="2646.0974" x2="1536.1646" y2="2586.2654" gradientTransform="matrix(-1 0 0 1 2698.8171 0)">
				<stop  offset="0" style="stop-color:#FFC444"/>
				<stop  offset="0.9964" style="stop-color:#F36F56"/>
			</linearGradient>
			<path class="st23" d="M1170.58,2636.72h-18.06c6.81-11.04,0.84-42.27,0.84-42.27l19.42,1.54c0,0-0.93,8.94-2.78,22.19
				C1169.38,2622.71,1169.78,2629.61,1170.58,2636.72z"/>
			
				<linearGradient id="SVGID_20_" gradientUnits="userSpaceOnUse" x1="-182.9095" y1="2673.5339" x2="-406.8636" y2="1769.3217" gradientTransform="matrix(1 0 0 1 1348.3801 0)">
				<stop  offset="0" style="stop-color:#444B8C"/>
				<stop  offset="0.9964" style="stop-color:#26264F"/>
			</linearGradient>
			<path class="st24" d="M1217.38,1953.79c8.37,27.63,20.31,72.21,28,128.16c21.94,159.56-24.69,164.65-15.98,341.47
				c2.78,56.44-48.9,186.59-53.45,189.46c-2.2,0.21-4.6,0.36-7.15,0.28c-4.5-0.14-10.83-0.82-18.2-3.03
				c-8.19-1.41-37.7-81.35-30.86-128.88c4.84-33.64,3.44-69.74,0.63-141.94c-0.46-11.7-30.39-227.62-30.39-227.62l0,0
				c-9.11,79.92-19.58,147.83-28.65,200.48c-29.17,169.15-124,271.53-128.94,273.18c-0.98,0.39-9.88,3.62-17.15-1.17
				c-3.24-2.13-4.34-4.89-4.34-4.89c-2.54-1.99,0.75-168.88,29.67-294.48c41.98-182.31,23.7-224.97,37-306.4
				C989.09,1907.94,1217.38,1953.79,1217.38,1953.79z"/>
			
				<linearGradient id="SVGID_21_" gradientUnits="userSpaceOnUse" x1="-270.9318" y1="1363.5065" x2="-30.8158" y2="1916.1548" gradientTransform="matrix(-1 0 0 1 1015.0479 0)">
				<stop  offset="0" style="stop-color:#FF9085"/>
				<stop  offset="1" style="stop-color:#FB6FBB"/>
			</linearGradient>
			<path class="st25" d="M1047.8,1623.14c27.87-0.82,91.94-10.66,127.23,21.09c0.61,0.55-6.62,4.41-3.06,8.59
				c3.31,3.87,14.64,17.43,24.92,35.75c7.44,13.27,14.16,28.74,20.94,51.8c11.95,40.66,15.38,75.29,16.53,90.37
				c6.45,84.84,0.05,123.98-5.75,150.59c-25.2,12.95-90.14,36.11-167.52,24.6c-35.34-5.26-63.62-17.02-83.52-27.51
				c20.08-60.79,4.33-93.32-3.11-123.31c-10.6-42.75-10.77-39.52-19.49-73.48c-14.4-56.04-16.76-113.3-6.87-125.02
				C974.78,1625.02,1022.84,1623.88,1047.8,1623.14z"/>
			
				<linearGradient id="SVGID_22_" gradientUnits="userSpaceOnUse" x1="2431.8447" y1="2611.6055" x2="2466.1895" y2="2642.1553" gradientTransform="matrix(-1 0 0 1 3624.1272 0)">
				<stop  offset="0" style="stop-color:#444B8C"/>
				<stop  offset="0.9964" style="stop-color:#26264F"/>
			</linearGradient>
			<path class="st26" d="M1171.84,2634.31c0,0-22.01-1.9-23.72,2.66c-1.71,4.55-1.9,16.13,11.57,13.85
				C1173.17,2648.54,1173.55,2637.73,1171.84,2634.31z"/>
			<g>
				
					<linearGradient id="SVGID_23_" gradientUnits="userSpaceOnUse" x1="3166.0642" y1="1666.7852" x2="3343.9629" y2="1890.6042" gradientTransform="matrix(-0.9663 0.2576 0.2576 0.9663 3759.3887 -923.8408)">
					<stop  offset="0" style="stop-color:#FFC444"/>
					<stop  offset="0.9964" style="stop-color:#F36F56"/>
				</linearGradient>
				<path class="st27" d="M1106.36,1570.91c4.58-16.33-3.43-31.45-5.2-34.71c-7.4-13.64-9.29-15.51-12.82-17.87l-4.91-3.03
					c0,0-0.28-0.11-0.58-0.22c-3.15-1.12-13.88-1.45-16.05-0.98c-6.94,1.48-14.33,29.76-12.22,69.75c-0.29,1.52-0.57,3.06-0.83,4.61
					c-1.09,6.31-1.96,12.5-2.63,18.56c-0.64,5.79-4.49,10.72-9.94,12.78c-36.89,13.93-36.82,2.8-40.64,14.79
					c-2.08,6.53,39.82,17.07,60.43,14.69c46.37,0.34,84.09-4.59,80.04-11.89c-1.8-3.24-37.73-12.63-47.83-21.94
					c-9.25-8.52-8.5-17.32-9.26-23.61C1086.72,1590.36,1102.99,1582.94,1106.36,1570.91z"/>
				<path class="st12" d="M1097.83,1503.94c-0.04,12.39-5.88,25.62-8.85,27.74c-0.38,0.28-2.55,1.98-4.49,4.9
					c-0.26,0.4-0.5,0.86-0.71,1.46c-2.71,7.81,9.7,16.99,7.3,20.49c-1.74,2.54-10.17-0.86-11.18,1.33c-0.94,2.06,6.07,6.33,4.99,8.8
					c-0.81,1.86-5.12,0.16-7.85,3.01c-1.36,1.42-0.96,2.55-2.39,6.89c-0.81,2.46-1.95,5.15-2.83,6.64
					c-4.28,7.27-16.41,9.93-18.74,7.02c-0.65-0.81-0.09-1.49-0.76-4.21c0,0-0.61-2.52-2.37-5.44c-2.51-4.17-8.56-7.15-14.67-11.55
					c-11.31-8.15-14.39-15.09-15.31-17.44c-0.33-0.84-0.53-1.47-0.68-1.92c-2.94-9.13-2.96-22.54,1.15-30.79
					c6.88-13.82,22.39-7.26,35.09-20.95c14.65-15.79,5.92-37.38,13.87-39.77C1078.18,1457.55,1097.91,1481.04,1097.83,1503.94z"/>
				
					<linearGradient id="SVGID_24_" gradientUnits="userSpaceOnUse" x1="3178.1013" y1="1655.4646" x2="3364.0835" y2="1889.4539" gradientTransform="matrix(-0.9663 0.2576 0.2576 0.9663 3759.3887 -923.8408)">
					<stop  offset="0" style="stop-color:#FFC444"/>
					<stop  offset="0.9964" style="stop-color:#F36F56"/>
				</linearGradient>
				<path class="st28" d="M1086.64,1555.63c-3.04-4.17-8.37-0.25-8.4,5.15c-0.03,5.4,5.2,11.01,10.27,9.94
					C1093.58,1569.65,1090.72,1561.24,1086.64,1555.63z"/>
			</g>
			<g>
				<path class="st29" d="M986.46,1940.17c-0.04,0-0.08,0-0.11-0.01c-0.56-0.06-0.96-0.57-0.9-1.13
					c3.29-29.62-2.84-51.14-8.26-70.12c-1.34-4.69-2.6-9.11-3.7-13.55c-6.01-24.26-8.65-33.63-11.43-43.54
					c-1.82-6.46-3.69-13.14-6.6-24.31c-0.14-0.55,0.18-1.1,0.73-1.24c0.55-0.14,1.1,0.19,1.24,0.73
					c2.91,11.15,4.78,17.82,6.59,24.27c2.79,9.93,5.43,19.32,11.45,43.61c1.09,4.41,2.35,8.81,3.68,13.48
					c5.47,19.17,11.66,40.89,8.33,70.91C987.41,1939.78,986.97,1940.17,986.46,1940.17z"/>
			</g>
			<path class="st12" d="M1084.18,1546.6l7.04,9.16c0,0,7.59,11.23,12.03,5.08c3.62-5.02,4.56-4.91,4.78-4.7
				c0.04,0.04,0.05,0.1,0.06,0.1c0.06-0.02-0.53-2.5-1.07-4.68c1.88,2.69,4.46,7.06,6.02,12.93c1.52,5.71,3.15,11.82-0.07,17.68
				c-0.19,0.34-3.73,6.59-10.35,8.1c0,0-2.6,0.59-13.61-1.34c0,0,12.03-8.73,12.21-10.8c0.5-5.64-7.32-8.68-13.13-20.24
				C1085.87,1553.42,1084.76,1549.38,1084.18,1546.6z"/>
		</g>
	</g>
</g>
</svg>
