<?xml version="1.0" encoding="utf-8"?>
<!-- Generator: Adobe Illustrator 23.0.1, SVG Export Plug-In . SVG Version: 6.00 Build 0)  -->
<svg version="1.1" id="Layer_1" xmlns="http://www.w3.org/2000/svg" xmlns:xlink="http://www.w3.org/1999/xlink" x="0px" y="0px"
	 viewBox="0 0 54 54" style="enable-background:new 0 0 54 54;" xml:space="preserve">
<style type="text/css">
	.st0{fill:#FFFFFF;}
</style>
<path class="st0" d="M28.14,12.61c0.55,0,1-0.45,1-1V10.9c0-0.55-0.45-1-1-1s-1,0.45-1,1v0.71C27.14,12.16,27.59,12.61,28.14,12.61z
	"/>
<path class="st0" d="M18.92,15.28c0.19,0.19,0.44,0.29,0.71,0.29c0.27,0,0.52-0.1,0.71-0.29c0.39-0.39,0.39-1.02,0.01-1.41
	c0,0,0,0-0.01-0.01l-0.64-0.64c-0.39-0.39-1.03-0.39-1.42,0s-0.39,1.03,0,1.42L18.92,15.28z"/>
<path class="st0" d="M36.77,15.57c0.27,0,0.52-0.1,0.71-0.29l0.64-0.64c0.39-0.39,0.39-1.03,0-1.42c-0.39-0.39-1.03-0.39-1.42,0
	l-0.64,0.64c-0.39,0.39-0.39,1.02-0.01,1.41c0,0,0,0,0.01,0.01C36.25,15.47,36.5,15.57,36.77,15.57z"/>
<path class="st0" d="M15.87,22h0.76c0.55,0,1-0.45,1-1s-0.45-1-1-1h-0.76c-0.55,0-1,0.45-1,1S15.32,22,15.87,22z"/>
<path class="st0" d="M40.43,20h-0.77c-0.55,0-1,0.45-1,1s0.45,1,1,1h0.77c0.55,0,1-0.45,1-1S40.98,20,40.43,20z"/>
<path class="st0" d="M39.44,24.89H37c0.08-0.5,0.12-1,0.12-1.5c0-4.97-4.03-9-9-9s-9,4.03-9,9c0,0.5,0.04,1,0.12,1.5H16.5
	c-0.33,0-0.64,0.16-0.83,0.44l-2.81,4.2c0,0.02,0,0.04,0,0.06c-0.52,0.91-0.21,2.07,0.7,2.6c0.29,0.17,0.62,0.26,0.95,0.25h2.09
	l0.21,5c-0.01,1.4,1.11,2.54,2.51,2.55c0.14,0,0.28-0.01,0.42-0.03l2.16-0.28v3.47c0,0.55,0.45,1,1,1h12.33c0.55,0,1-0.45,1-1v-7.66
	c2.91-3.06,4-4.69,4.2-9.55c0.01-0.27-0.09-0.54-0.28-0.74C39.96,25.01,39.71,24.89,39.44,24.89z M21.15,23.39c0-3.87,3.13-7,7-7
	s7,3.13,7,7c0,0.5-0.06,1.01-0.16,1.5h-3.58l1-3.69c0.14-0.53-0.17-1.08-0.7-1.23c-0.29-0.08-0.59-0.02-0.84,0.15
	c-1.56,1.09-3.63,1.09-5.19,0c-0.44-0.33-1.07-0.25-1.4,0.19c-0.19,0.25-0.25,0.57-0.17,0.87l1,3.69h-3.8
	C21.21,24.38,21.15,23.89,21.15,23.39z M27.15,24.89l-0.59-2.16l0.19,0.05c1.02,0.26,2.1,0.26,3.12,0l-0.58,2.13L27.15,24.89z
	 M34.47,34.39c-0.18,0.19-0.28,0.44-0.28,0.7v7H23.88V39.3l1.89-0.44c1.24-0.3,2.29-1.12,2.87-2.25C29.25,35.4,30,33.82,30,33.8
	c0.25-0.5,0.04-1.1-0.45-1.34c-0.5-0.25-1.1-0.04-1.34,0.45c0,0-0.79,1.58-1.4,2.78c-0.3,0.6-0.85,1.05-1.5,1.21l-2.62,0.63
	l-3.25,0.41h-0.05c-0.15,0.03-0.31-0.01-0.42-0.12c-0.12-0.1-0.19-0.25-0.18-0.41v-0.06l-0.26-6c0-0.55-0.45-1-1-1h-2.85L17,26.9
	h21.37c-0.31,3.64-1.28,4.81-3.86,7.49H34.47z"/>
</svg>
