<?xml version="1.0" encoding="utf-8"?>
<!-- Generator: Adobe Illustrator 23.0.1, SVG Export Plug-In . SVG Version: 6.00 Build 0)  -->
<svg version="1.1" id="Layer_1" xmlns="http://www.w3.org/2000/svg" xmlns:xlink="http://www.w3.org/1999/xlink" x="0px" y="0px"
	 viewBox="0 0 54 54" style="enable-background:new 0 0 54 54;" xml:space="preserve">
<style type="text/css">
	.st0{fill:#FFFFFF;}
</style>
<path class="st0" d="M37.59,24.55l-4.15,4.14l-1.35-1.35c-0.41-0.41-1.07-0.41-1.48,0s-0.41,1.07,0,1.48l2.09,2.1
	c0.2,0.19,0.46,0.3,0.74,0.3c0.28,0.01,0.55-0.1,0.74-0.3L39.07,26c0.41-0.41,0.41-1.07,0-1.48s-1.07-0.41-1.48,0l0,0V24.55z"/>
<path class="st0" d="M14.66,17.54H21c0.58,0,1.05-0.47,1.05-1.05c0-0.58-0.47-1.05-1.05-1.05h-6.34c-0.58,0-1.05,0.47-1.05,1.05
	C13.61,17.07,14.08,17.54,14.66,17.54z"/>
<path class="st0" d="M23.74,19.63H21c-0.58,0-1.05,0.47-1.05,1.05c0,0.58,0.47,1.05,1.05,1.05l0,0h2.79c0.58,0,1.05-0.47,1.05-1.05
	c0-0.58-0.47-1.05-1.05-1.05H23.74z"/>
<path class="st0" d="M18.85,23.82h-4.19c-0.58,0-1.05,0.47-1.05,1.05c0,0.58,0.47,1.05,1.05,1.05h4.19c0.58,0,1.05-0.47,1.05-1.05
	C19.9,24.29,19.43,23.82,18.85,23.82z"/>
<path class="st0" d="M28.31,16.49c0-0.55-0.45-1-1-1h-2.14c-0.58,0-1.05,0.47-1.05,1.05c0,0.58,0.47,1.05,1.05,1.05h2.09
	c0.55,0.03,1.02-0.39,1.05-0.94C28.32,16.59,28.32,16.54,28.31,16.49z"/>
<path class="st0" d="M14.66,21.73h2.1c0.58,0,1.05-0.47,1.05-1.05c0-0.58-0.47-1.05-1.05-1.05h-2.1c-0.58,0-1.05,0.47-1.05,1.05
	C13.61,21.26,14.08,21.73,14.66,21.73z"/>
<path class="st0" d="M44.68,38.09l-2.89-5c2.59-3.04,2.99-7.38,1-10.84c-0.5-0.87-1.13-1.65-1.88-2.31v-4.85
	c-0.01-2.12-1.72-3.83-3.84-3.84H13.2c-2.12,0.01-3.84,1.72-3.85,3.84v16.76c0.01,2.12,1.73,3.84,3.85,3.84h7.34l-0.7,2.1h-0.29
	c-1.73,0-3.14,1.41-3.14,3.14V43c0,0.55,0.45,1,1,1h15.41c0.55,0,1-0.45,1-1v-2.07c0-1.73-1.41-3.14-3.14-3.14h-0.29l-0.7-2.1h1.35
	c1.13,0.46,2.35,0.7,3.57,0.7c0.57,0,1.14-0.05,1.7-0.16l2.89,5c0.58,1,1.65,1.6,2.8,1.57c0.55,0.01,1.09-0.14,1.56-0.42
	c0.71-0.42,1.23-1.1,1.44-1.9C45.21,39.67,45.1,38.81,44.68,38.09z M11.45,15.09c0-0.96,0.78-1.74,1.74-1.74c0,0,0.01,0,0.01,0
	h23.87c0.96-0.01,1.74,0.77,1.75,1.73c0,0,0,0.01,0,0.01v3.43c-4.66-2.32-10.31-0.42-12.63,4.24c-1.03,2.06-1.26,4.43-0.66,6.65
	H11.45L11.45,15.09z M13.2,33.6c-0.97,0-1.75-0.78-1.75-1.75V31.5h14.92c0.03,0.06,0.06,0.12,0.1,0.18c0.41,0.7,0.9,1.34,1.46,1.92
	H13.2z M28.2,37.79h-6.15l0.7-2.1h4.77L28.2,37.79z M30.7,39.88c0.55-0.03,1.02,0.4,1.05,0.95c0,0.02,0,0.03,0,0.05v1H18.5v-1
	c0-0.55,0.45-1,1-1c0.02,0,0.03,0,0.05,0H30.7z M34.61,34.3c-4.05-0.03-7.32-3.34-7.29-7.39s3.34-7.32,7.39-7.29
	c4.05,0.03,7.31,3.33,7.29,7.38c-0.02,4.05-3.32,7.32-7.37,7.3L34.61,34.3z M43,39.93c-0.06,0.27-0.24,0.5-0.48,0.64
	c-0.24,0.14-0.53,0.18-0.8,0.1c-0.27-0.06-0.5-0.24-0.64-0.48l-2.67-4.59c0.31-0.14,0.63-0.3,0.93-0.47c0.3-0.18,0.6-0.37,0.88-0.58
	l2.65,4.59C43.02,39.37,43.07,39.66,43,39.93z"/>
</svg>
