<?xml version="1.0" encoding="utf-8"?>
<!-- Generator: Adobe Illustrator 21.1.0, SVG Export Plug-In . SVG Version: 6.00 Build 0)  -->
<svg version="1.1" id="Layer_1" xmlns="http://www.w3.org/2000/svg" xmlns:xlink="http://www.w3.org/1999/xlink" x="0px" y="0px"
	 viewBox="0 0 44 48" enable-background="new 0 0 44 48" xml:space="preserve">
<g id="Page-1">
	<g id="ic-technology-android">
		<path id="Combined-Shape-Copy-5" fill="#FFFFFF" d="M35.6,13.7c0,0.1,0,0.2,0,0.3l0,0v19.5c0,2.1-1.7,3.8-3.8,3.8l0,0l-0.1,0
			l0,7.7c0,1.7-1.4,3-3,3c-1.7,0-3-1.3-3-3l0-7.7h-7.6l0,7.7c0,1.7-1.4,3-3,3c-1.7,0-3-1.3-3-3l0-7.7l-0.1,0c-2,0-3.7-1.6-3.8-3.6
			l0-0.2V14c0-0.1,0-0.2,0-0.3l0,0H35.6z M3,15.4c1.7,0,3,1.3,3,3v12.9c0,1.7-1.4,3-3,3c-1.7,0-3-1.3-3-3V18.4
			C0,16.8,1.4,15.4,3,15.4z M40.5,15.4c1.7,0,3,1.3,3,3v12.9c0,1.7-1.4,3-3,3c-1.7,0-3-1.3-3-3V18.4C37.4,16.8,38.8,15.4,40.5,15.4z
			 M34.6,0c0.2,0.1,0.2,0.3,0.1,0.4l-2.6,4.4c2.1,2,3.3,4.7,3.4,7.6H8c0-2.9,1.3-5.5,3.4-7.6L8.8,0.5C8.7,0.3,8.8,0.1,8.9,0
			C9.1,0,9.3,0,9.4,0.2l2.5,4.3C14,2.5,17,1.2,20.2,0.9h3.1c3.3,0.3,6.2,1.6,8.4,3.5l2.5-4.3C34.2,0,34.4,0,34.6,0z M16.1,5.5
			c-0.9,0-1.6,0.7-1.6,1.5l0,0c0,0.8,0.7,1.5,1.6,1.5c0.9,0,1.6-0.7,1.6-1.5l0,0C17.7,6.2,17,5.5,16.1,5.5z M27.8,5.5
			c-0.9,0-1.6,0.7-1.6,1.5l0,0c0,0.8,0.7,1.5,1.6,1.5c0.9,0,1.6-0.7,1.6-1.5l0,0C29.4,6.2,28.7,5.5,27.8,5.5z"/>
	</g>
</g>
</svg>
