<?xml version="1.0" encoding="utf-8"?>
<!-- Generator: Adobe Illustrator 21.1.0, SVG Export Plug-In . SVG Version: 6.00 Build 0)  -->
<svg version="1.1" xmlns="http://www.w3.org/2000/svg" xmlns:xlink="http://www.w3.org/1999/xlink" x="0px" y="0px"
	 viewBox="0 0 861.4 707.7" enable-background="new 0 0 861.4 707.7" xml:space="preserve">
<g id="Shadow">
</g>
<g id="object">
	<g>
		<g opacity="0.55">
			<path fill="#D6C3B2" d="M397.8,641.4c-24.4,0.1-48.8,0.5-73.1,2.4c-9.2,0.7-18.2,2.4-27.4,3c-18.4,1.3-36.4,3.8-54.9,4.9
				c-14.9,0.9-29.8,1.4-44.6,2.6c-13.9,1.1-29.3,0.8-43-1c-10.2-1.3-20.4-2.1-30.5-4.2c-11.2-2.4-23.4-4.1-35.1-4
				c-16.7,0.1-32.9,0.1-48.8,4.3c-5.6,1.5-12.5,3.9-16.7,7c-9.7,7.1-11,24.7-1.3,32.1c16.4,12.3,51.3,17.2,74.2,17.4
				c25.1,0.3,49.6-1.1,74.7-1.9c23.4-0.7,46.7-1.8,70.2-1.8c47.9,0.1,95.7,0,143.5-2.3c44.9-2.2,89.9-1.4,134.9-1.4
				c46.1,0,91.9,0.3,137.7,4.7c20,1.9,40.3,2.6,60.3,4c18,1.2,35.2,0,53.1-1.1c15-0.9,29.9-3.7,43.6-8.5
				c10.8-3.7,30.1-15.4,33.4-24.3c9.3-25-130.9-24.4-152.4-24.4c-24.1,0.1-48.3,0.6-72.4,0c-10.1-0.3-20.1-1.7-30-3.3
				c-9.8-1.6-19.7-1.2-29.7-1.8c-41.6-2.7-83.3-2.3-125-2.3C425,641.4,411.4,641.3,397.8,641.4z"/>
		</g>
		<path opacity="0.4" fill="#D6C3B2" d="M825.3,427.4c-87.2,148.8-317.2,212.7-497.5,201.8c-49.2-3-148.3-9-225.6-62.4
			C-46.3,464.3-23.4,249.9,118.8,123.7C137.1,107.5,263.8-1.4,461.3,0c144.6,1.1,246,60.7,258.4,68.1c15.6,9.4,50,31.7,81,67.1
			C873.4,218.4,879.8,334.4,825.3,427.4z"/>
		<g id="XMLID_263_">
			<g>
				<polygon fill="#E1CFB5" points="731.8,474.2 732,480.3 721.3,484.2 715.1,479.5 715.1,472.5 721.1,472.1 721.3,470.6 
					723.2,469.3 				"/>
			</g>
		</g>
		<g>
			<g>
				<g>
					<g>
						<g>
							<polygon fill="#353A85" points="513.5,522 515.8,575.2 509.1,665.6 499,666.3 486.8,584.2 469.9,514.7 							"/>
						</g>
						<g>
							<polygon fill="#292949" points="499.5,673.1 514.6,673.1 515.3,668.1 509.8,664.4 499,665.1 							"/>
						</g>
					</g>
					<g>
						<g>
							<polygon fill="#353A85" points="442.3,506.2 440.1,546.4 446.6,665.9 456.7,666.4 471.8,588 485.1,502.1 							"/>
						</g>
						<g>
							<polygon fill="#292949" points="456.3,673.5 441.6,674.1 440.1,669.9 445.8,664.7 456.7,665.2 							"/>
						</g>
					</g>
					<g>
						<g>
							<path fill="#D67086" d="M500.8,384.8l-31.4-3.4c0,0-17.5,1.9-29.3,43.4c-6.6,23.1-8.6,59.5-9.1,87.2
								c0.7,4,5.1,21.3,23.3,18.4c31.3-5.1,48-10.1,61.6-7.6c11.6,2.5,10.6-13.5,9.4-25.7l-4.6-37.8L500.8,384.8z"/>
						</g>
					</g>
					<g>
						<g>
							<path fill="#C17E72" d="M494.8,345.6c-7.9-1.7-16.1-3.3-24-1.7c-1.7,0.3-3.6,0.9-4.5,2.4c-0.4,0.6-0.6,1.3-0.7,1.9
								c-2,7.4-4.5,18.5,0.4,25.3c0.9,1.3,2.2,2.3,3.5,3.2c1.8,1.1,3.8,1.9,5.9,2.3c-0.4,1.8-1,3.7-1.8,5.4
								c1.8,2.7,10.3,3.1,11.8,0.4c0.1-2.3,0.2-4.5,0.3-6.8c1-0.4,2-0.9,3-1.5c3.6-2.4,6-6,7.4-10c1.5-4.4,3.6-8.6,5-13.1
								c0.5-1.6,0.9-3.5,0-5c-0.9-1.6-2.9-2.1-4.7-2.5C495.8,345.9,495.3,345.8,494.8,345.6z"/>
						</g>
						<g>
							<path fill="#353A85" d="M498.2,366.3c3.8-3.9,8.3-9.4,8.6-14.3c0.3-4.1-0.3-9.7-2.6-13.2c-2.2-3.3-7.7-5.1-10.9-7.1
								c-3.1-1.8-6.2-3.6-9.3-5.4c-0.6-0.4-1.3-0.8-2-0.9c-0.9-0.2-1.8,0.1-2.6,0.3c-7.3,1.9-14.6,3.8-21.9,5.7
								c-1.4,0.4-3,0.9-3.5,2.2c-0.3,0.8-0.1,1.7,0.1,2.6c0.8,3.8,2.4,7.7,2.8,11.5c0.6,3,0.5,5.7,2.7,7.9c2.1,2.1,4.9,3.2,6.5,5.8
								c1.2,1.8,1.7,4.1,2.6,6c4.3,9,21.6,6.6,27.5,0.9C496.9,367.6,497.6,367,498.2,366.3z"/>
						</g>
					</g>
				</g>
				<g>
					<polygon fill="#D67086" points="494.2,387.4 515.8,364.1 510.7,300.9 520.2,296.7 540.1,360.3 533.1,379.9 504.1,418.9 					
						"/>
				</g>
				<g>
					<path fill="#C17E72" d="M518.1,297.6c0,0,0-5.7,0-5.8c0-2.1-5.3-7-6.7-8.8c-0.8-1-4.3,4.5-4.4,5.4c-0.1,1.6,2.2,4.9,2.8,6.5
						l-1.9,2.7l2.7,3.3L518.1,297.6z"/>
				</g>
				<g>
					<polygon fill="#D67086" points="455.5,392.3 431.1,372 427.9,308.6 418,305.7 406.4,371.4 416,389.9 449.7,424.7 					"/>
				</g>
				<g>
					<path fill="#C17E72" d="M420.1,306.3c0,0-0.7-5.6-0.8-5.7c-0.3-2.1,4.4-7.7,5.5-9.6c0.6-1.1,4.9,3.9,5,4.8
						c0.3,1.5-1.5,5.1-1.9,6.8l2.2,2.4l-2.2,3.6L420.1,306.3z"/>
				</g>
			</g>
		</g>
		<g>
			<path fill="#EFBFA5" d="M71.6,352.9c-4-1.9-7.7-4.3-11.1-7.1c-1.1-0.9-2.3-2.2-1.9-3.6c0.4-1.6,2.5-1.9,4.2-1.8
				c3.1,0.3,6.1,1.2,8.8,2.6c0.7-0.2-0.2-1.3,0.1-1.9c0.1-0.3,0.5-0.4,0.8-0.4c4.4-0.2,6.1,5.8,7.7,8.7c-3.1,1.6-6.3,1.7-9,4.1
				L71.6,352.9z"/>
		</g>
		<g>
			<path fill="#EFBFA5" d="M261.2,424.4c0,0,5.6,0.8,5.7,0.8c2.1,0.3,11.2-4.3,13.2-5.4c1.1-0.6-7.3-4.9-8.2-5
				c-1.5-0.3-5.1,1.4-6.8,1.8l-2.4-2.3l-3.6,2.2L261.2,424.4z"/>
		</g>
		<g>
			<polygon fill="#292949" points="120.9,660.3 120.1,666.5 131.7,674.3 138.7,668.9 133.3,661.9 121.7,654.1 			"/>
		</g>
		<g>
			<g>
				<polygon fill="#292949" points="120.5,658.3 129.5,579.2 118.7,490.8 121.1,472 169.2,470.2 170.9,500.8 162.8,579.4 
					132.5,662.3 				"/>
			</g>
		</g>
		<g>
			<polygon fill="#2C2584" points="176.8,384.4 198.4,397.1 215.5,421.2 261.2,414.5 262.6,427.1 210.8,444.4 184.2,434.4 			"/>
		</g>
		<g>
			<g>
				<polygon fill="#292949" points="204.4,479 204.6,558.7 188.5,661.4 176.9,661.3 170.6,566.3 155.7,471.3 				"/>
			</g>
			<g>
				<polygon fill="#292949" points="177,666.1 189.4,672.5 195.7,666.3 189.5,660 177,659.9 				"/>
			</g>
		</g>
		<g>
			<g>
				<path fill="#3D2FA3" d="M113.7,506.1c0.1-3.5,0.3-6.3,0.3-7.4c0.2-9.3,1.1-18.5,2.2-27.7c1-8.2,2.4-28.7,3.8-36.9
					c1.2-6.8,5.2-23.7,8.2-29.9c7.3-15.6,5-17.1,37.1-21.7c14-2,17.4,6.7,28.9,16.8c1.1,1,1.1,6.9,1.3,8.5c0.5,2.8,1,5.5,1.5,8.2
					c0.4,2.2,0.9,4.3,1.5,6.4l0,0c0,0,9.6,43.9,16,53.2c6.4,9.3,19.5,22.3-2.5,30.3c-3.9,1.3-7.8,2.5-11.9,3.1c0,0-18-2-27.3-1.9
					c-8.5,0.1-17.1,0.9-25.5,2.4c-5.6,0.9-11.3,2.3-16.4,4.9c-4.8,2.5-8.2,6.2-13.1,8.8c-0.5,0.2-1,0.5-1.5,0.4
					C113.6,523.2,113.5,513.4,113.7,506.1z"/>
			</g>
		</g>
		<g>
			<g>
				<path fill="#EFBFA5" d="M162.4,386.5c-1.3,1.2-4.9,2.6-9.1,2.3c-0.9-0.1-1.6-0.6-1.8-1.5c-0.7-2.3-1.2-4.7-1.6-7.1
					c-3.2-0.1-6.9-0.6-8.3-3.5c-0.4-0.9-0.6-1.9-0.7-2.9c-0.5-4.1-1-8.2-1.6-12.3c-0.2-1.4-0.4-2.9,0-4.2c0.7-2.4,2.9-4.1,5.1-5.2
					c5.7-2.9,12.6-3.6,18.5-1.1c1.6,0.7,3.1,1.6,4.1,2.9c1.6,2.1,1.7,4.9,1.8,7.5c0.1,2.4,0.2,4.8,0.3,7.2c0.1,2.8,0,6-2.1,7.7
					c-1.2,0.9-2.8,1.2-3.7,2.4C161.6,380.9,162.8,384,162.4,386.5z"/>
			</g>
			<g>
				<path fill="#292949" d="M185.2,337.2c0.3-1.2,0.6-2.3,1.1-3.4c1-2.4,2.4-4.6,2.9-7.1c0.6-2.5,0.2-5.5-1.9-7
					c-1.3-1-3.1-1.1-4.7-1.1c-5.4,0.1-10.9,1.6-15.5,4.5c-4.4,2.7-8.1,6-13.5,5.7c-5.1-0.3-8.1,1.4-12.4,4.6
					c-4.6,3.4-11.3,6-15.2,10c-1.6,1.7-2.6,3.8-3.3,6.1c-2.2,7.8,0.5,16.7,6.7,21.9c1.4,1.2,2.9,2.2,4.5,3.1
					c3.2,1.9,7.1,4.2,10.8,4.2c-0.8-3-6.4-11.6-4.9-14.7c2.4-5,11.1-6.2,15.9-6.6c5.2-0.5,10.7,1.7,15.8,0.9
					c3.7-0.5,7.6-3.6,10.1-6.4C184.5,348.4,184.2,341.4,185.2,337.2z"/>
			</g>
		</g>
		<g>
			<polygon fill="#2C2584" points="137.3,389.4 112.1,395.8 81.7,348.6 68.9,352.1 90.2,420 139.4,426 			"/>
		</g>
		<g>
			<g id="XMLID_264_">
				<g id="XMLID_266_">
					<g id="XMLID_280_">
						<g id="XMLID_282_">
							<g>
								<path fill="#292949" d="M750.9,651.2c1.1-1.2,2.4-1.9,3.9-1.7c1.4,0.2,2.7,1.2,3.2,2.4c0.4,0.9,0.5,1.8,0.6,2.8
									c0.4,4.9,0.4,16.5-6.2,18.2c-2.7,0.7-5-1.2-5.7-3.7C745.5,665.6,747.2,655.3,750.9,651.2z"/>
							</g>
						</g>
						<g id="XMLID_281_">
							<g>
								<path fill="#F4C7B3" d="M748.6,577.3l0.3,29.9c-0.4,13.3,1.7,26.6,1.3,39.9c-0.1,3.1-0.9,6.3-0.1,9.3c0.8,3,3.2,3.5,5.6,2
									c3.3-2,2.8-6.7,3.3-10.1c1.5-9.4,3.3-18.7,4.9-28.1c0.8-4.6-0.8-11-0.5-15.7c0,0,4.8-25,4.8-25L748.6,577.3z"/>
							</g>
						</g>
					</g>
					<g id="XMLID_279_">
						<g>
							<polygon fill="#292949" points="782.7,529.1 769.7,586.8 766.9,641.4 746.3,640.9 740.7,488.3 780.7,489.1 							"/>
						</g>
					</g>
					<g id="XMLID_274_">
						<g id="XMLID_276_">
							<g id="XMLID_278_">
								<g>
									<path fill="#292949" d="M721.4,650.1c1.2-1.2,2.5-1.7,3.9-1.4c1.4,0.3,2.6,1.3,3.1,2.6c0.4,0.9,0.4,1.9,0.4,2.8
										c0.2,4.9-0.3,16.6-6.9,17.9c-2.8,0.5-4.9-1.5-5.6-4C715.5,664.2,717.5,654,721.4,650.1z"/>
								</g>
							</g>
							<g id="XMLID_277_">
								<g>
									<path fill="#F4C7B3" d="M732.3,581.5l-1.7,29.8c-0.1,8.3-1.2,16.5-2.1,24.7c-0.8,7.6,0.4,15.6-3.6,22.6
										c-1.3,2.2-3.8,3.6-5.6,1c-1.4-2-0.6-5.4-0.8-7.8c-1.1-9.5-2.4-18.9-3.5-28.3c-0.6-4.6,1.3-11,1.2-15.7
										c0,0-3.6-25.2-3.6-25.2L732.3,581.5z"/>
								</g>
							</g>
						</g>
						<g id="XMLID_275_">
							<g>
								<polygon fill="#292949" points="706.2,525.5 704.5,581.6 713.3,638.3 734.3,638.9 733.3,577.6 744.4,526.7 748.2,493.4 
									714.9,489.4 								"/>
							</g>
						</g>
					</g>
					<g id="XMLID_273_">
						<g>
							<polygon fill="#8CABEF" points="732.5,374.7 768.3,373.9 789.1,412.5 781.7,448.7 780.4,492 729.3,492.7 712.5,490 
								716.9,443.7 714.4,381.9 							"/>
						</g>
					</g>
					<g id="XMLID_267_">
						<g id="XMLID_271_">
							<g>
								<path fill="#F4C7B3" d="M737.2,341.3c7.1-15,27-7,29.8,7.4c1.8,9.4-6.5,20.4-16.2,22c-0.1,0.4-1.1,3.4-1.1,3.7
									c-0.2,1.5-0.5,2.9-0.9,4.3c-0.1,0.5-8.2-1.9-9.1-2.2c-0.3-0.1-0.7-0.2-0.8-0.5c-0.3-0.6,1.4-4.7,1.5-5.3
									c0.1-0.7,0.3-1.3,0.4-2c-4.4-2.8-6.8-7.9-7.1-12.9C733.5,350.7,735.1,345.8,737.2,341.3z"/>
							</g>
						</g>
						<g id="XMLID_268_">
							<g id="XMLID_270_">
								<g>
									<path fill="#292949" d="M752.2,328.6c1,1.2,1.3,2.9,1.4,4.4c0.1,0.9,0.2,1.9-0.1,2.7c-1.1,3.5-4.6,2.9-7.5,3.7
										c-3.5,1-6.7,3.3-8.9,6.1c-3.4,4.4-2.8,10.5-2.1,15.8c0.2,1.9,0.8,4.7-0.8,6.1c-1.6,1.5-4.9,0.9-6.5-0.2
										c-1.5-0.9-2.6-2.5-4.3-3c-1.8-0.5-4.3,0-5-1.7c-0.2-0.5-0.1-1.1-0.4-1.5c-0.9-1.5-3.5-0.1-4.9-1.3c-0.8-0.7-0.7-2-0.2-3.1
										c0.4-1,1-2,0.9-3.1c-0.1-0.9-0.7-1.7-1-2.6c-0.6-1.7-0.1-3.9,1.2-5.1c2.5-2.4,6.8-1.4,9.5-3.6c1.4-1.1,2.1-2.9,2.7-4.6
										c0.7-1.7,1.4-3.5,2.9-4.5c1.8-1.3,4.2-0.8,6-2.3c1.1-0.9,1.9-2.2,3-2.9c1.5-1,4.4-1.6,6.2-2
										C747.2,325.3,750.3,326.2,752.2,328.6z"/>
								</g>
							</g>
							<g id="XMLID_269_">
								<g>
									<path fill="#292949" d="M762.5,354.9c-0.5,5.2-3.6,10.4-1.7,15.2c1.9,4.8,7.8,6.3,12.8,7.1c0.8,0.1,11.4,2.2,11.5,2
										c1.2-3.5,2.4-7.1,4.6-10c2.2-2.9,5.6-5.2,9.2-5c-1-0.3-1.4-1.6-1.2-2.7c0.2-1.1,0.9-2,1.3-2.9c1.1-2.4,0.6-5.5-1.1-7.4
										c-3.4-3.9-10.4-3.2-13.3-7.6c-1.7-2.7-1.1-6.4-1.8-9.5c-1.4-6.2-7.8-8.1-12.3-11.3c-4.8-3.4-9.5-5.5-15.5-5.1
										c-7.5,0.4-13.7,7.3-11.7,14.7c2.7,9.4,17.3,10.2,19,19.7C762.6,352.9,762.6,353.9,762.5,354.9z"/>
								</g>
							</g>
						</g>
					</g>
				</g>
				<g id="XMLID_265_">
					<g>
						<polygon fill="#F9F9F9" points="757.7,374.5 746.6,390.2 741.4,389.8 732.7,373.9 						"/>
					</g>
				</g>
			</g>
			<g>
				<path fill="#8CABEF" d="M732.7,373.9l-20.2,1.1c0,0-22.7,11.2-24.2,10.3c-1.5-0.8-26-49.9-26-49.9l-12,3.9l15,56.1l14.5,15
					l41-6.8L732.7,373.9z"/>
			</g>
			<g>
				<path fill="#F4C7B3" d="M652.1,338.6c0,0-3.2-4.7-3.2-4.8c-1.2-1.8,0.5-8.8,0.6-11c0.1-1.3,6.1,1.3,6.6,2.1
					c0.9,1.3,0.9,5.3,1.3,6.9l3.1,1.2l-0.4,4.2L652.1,338.6z"/>
			</g>
		</g>
		<g>
			<g>
				<polygon fill="#373F8C" points="227.6,193.2 164.4,164.6 164.4,88.7 227.6,117.2 				"/>
			</g>
			<g>
				<polygon fill="#333A7F" points="227.6,193.2 290.7,164.6 290.7,88.7 227.6,117.2 				"/>
			</g>
			<g>
				<polygon fill="#3F4991" points="164.4,88.7 227.6,117.2 290.7,88.7 227.6,62.8 				"/>
			</g>
		</g>
		<g>
			<g>
				<polygon fill="#5D66D3" points="732,150.8 678.9,126.8 678.9,63 732,87 				"/>
			</g>
			<g>
				<polygon fill="#474EBB" points="732,150.8 785.1,126.8 785.1,63 732,87 				"/>
			</g>
			<g>
				<polygon fill="#717DDB" points="678.9,63 732,87 785.1,63 732,41.2 				"/>
			</g>
		</g>
		<g>
			<path fill="#D67086" d="M410.9,211.4l-7.4-3.4l1.3-2.9l7.4,3.4L410.9,211.4z M397.6,205.4l-8.7-3.9l1.3-2.9l8.7,3.9L397.6,205.4z
				 M383.1,198.8l-8.7-3.9l1.3-2.9l8.7,3.9L383.1,198.8z M368.6,192.3l-8.7-3.9l1.3-2.9l8.7,3.9L368.6,192.3z M354.2,185.7l-8.7-3.9
				l1.3-2.9l8.7,3.9L354.2,185.7z M339.7,179.1l-8.7-3.9l1.3-2.9l8.7,3.9L339.7,179.1z M325.2,172.6l-8.7-3.9l1.3-2.9l8.7,3.9
				L325.2,172.6z M310.7,166l-8.7-3.9l1.3-2.9l8.7,3.9L310.7,166z M296.2,159.4l-8.7-3.9l1.3-2.9l8.7,3.9L296.2,159.4z M281.7,152.9
				l-8.7-3.9l1.3-2.9l8.7,3.9L281.7,152.9z M267.2,146.3l-8.7-3.9l1.3-2.9l8.7,3.9L267.2,146.3z"/>
		</g>
		<g>
			<path fill="#D67086" d="M99.6,211.6l-1.9-2.6l3.9-2.9l1.9,2.6L99.6,211.6z M108.7,204.9l-1.9-2.6l7.7-5.7l1.9,2.6L108.7,204.9z
				 M121.4,195.5l-1.9-2.6l7.7-5.7l1.9,2.6L121.4,195.5z M134.2,186l-1.9-2.6l7.7-5.7l1.9,2.6L134.2,186z M147,176.5l-1.9-2.6
				l7.7-5.7l1.9,2.6L147,176.5z M159.8,167l-1.9-2.6l7.7-5.7l1.9,2.6L159.8,167z M172.6,157.6l-1.9-2.6l7.7-5.7l1.9,2.6L172.6,157.6
				z M185.3,148.1l-1.9-2.6l7.7-5.7l1.9,2.6L185.3,148.1z"/>
		</g>
		<g>
			<g>
				<polygon fill="#5D66D3" points="77.3,305.2 24.2,281.2 24.2,217.4 77.3,241.4 				"/>
			</g>
			<g>
				<polygon fill="#474EBB" points="77.3,305.2 130.4,281.2 130.4,217.4 77.3,241.4 				"/>
			</g>
			<g>
				<polygon fill="#717DDB" points="24.2,217.4 77.3,241.4 130.4,217.4 77.3,195.6 				"/>
			</g>
		</g>
		<g>
			<path fill="#D67086" d="M408.4,226.3l-1.2-3l0.3-0.1l1.2,3L408.4,226.3z M414.5,223.8l-1.2-3l8.9-3.5l1.2,3L414.5,223.8z
				 M429.3,218l-1.2-3l8.9-3.5l1.2,3L429.3,218z M444.1,212.1l-1.2-3l8.9-3.5l1.2,3L444.1,212.1z M458.9,206.2l-1.2-3l8.9-3.5l1.2,3
				L458.9,206.2z M473.7,200.3l-1.2-3l8.9-3.5l1.2,3L473.7,200.3z M488.5,194.5l-1.2-3l8.9-3.5l1.2,3L488.5,194.5z M503.3,188.6
				l-1.2-3l8.9-3.5l1.2,3L503.3,188.6z M518,182.7l-1.2-3l8.9-3.5l1.2,3L518,182.7z M532.8,176.8l-1.2-3l8.9-3.5l1.2,3L532.8,176.8z
				 M547.6,171l-1.2-3l8.9-3.5l1.2,3L547.6,171z M562.4,165.1l-1.2-3l8.9-3.5l1.2,3L562.4,165.1z M577.2,159.2l-1.2-3l8.9-3.5l1.2,3
				L577.2,159.2z M592,153.3l-1.2-3l8.9-3.5l1.2,3L592,153.3z M606.7,147.5l-1.2-3l8.9-3.5l1.2,3L606.7,147.5z M621.5,141.6l-1.2-3
				l8.9-3.5l1.2,3L621.5,141.6z M636.3,135.7l-1.2-3l8.9-3.5l1.2,3L636.3,135.7z M651.1,129.8l-1.2-3l8.9-3.5l1.2,3L651.1,129.8z
				 M665.9,124l-1.2-3l8.9-3.5l1.2,3L665.9,124z M680.7,118.1l-1.2-3l8.9-3.5l1.2,3L680.7,118.1z M695.5,112.2l-1.2-3l8.9-3.5l1.2,3
				L695.5,112.2z"/>
		</g>
		<g>
			<g>
				<polygon fill="#5D66D3" points="461.6,313.8 354,265.2 354,135.8 461.6,184.4 				"/>
			</g>
			<g>
				<polygon fill="#474EBB" points="461.6,313.8 569.2,265.2 569.2,135.8 461.6,184.4 				"/>
			</g>
			<g>
				<polygon fill="#717DDB" points="354,135.8 461.6,184.4 569.2,135.8 461.6,91.6 				"/>
			</g>
		</g>
		<g>
			<path fill="#D67086" d="M639.6,282.2l-8.7-3.9l1.3-2.9l8.7,3.9L639.6,282.2z M625.1,275.7l-8.7-3.9l1.3-2.9l8.7,3.9L625.1,275.7z
				 M610.6,269.2l-8.7-3.9l1.3-2.9l8.7,3.9L610.6,269.2z M596,262.7l-8.7-3.9l1.3-2.9l8.7,3.9L596,262.7z M581.5,256.2l-8.7-3.9
				l1.3-2.9l8.7,3.9L581.5,256.2z M567,249.7l-8.7-3.9l1.3-2.9l8.7,3.9L567,249.7z M552.5,243.2l-8.7-3.9l1.3-2.9l8.7,3.9
				L552.5,243.2z M538,236.7l-8.7-3.9l1.3-2.9l8.7,3.9L538,236.7z M523.4,230.2l-8.7-3.9l1.3-2.9l8.7,3.9L523.4,230.2z"/>
		</g>
		<g>
			<path fill="#D67086" d="M320.5,283.3l-1.7-2.7l8-5.2l1.7,2.7L320.5,283.3z M333.9,274.6l-1.7-2.7l8-5.2l1.7,2.7L333.9,274.6z
				 M347.2,266l-1.7-2.7l8-5.2l1.7,2.7L347.2,266z M360.6,257.3l-1.7-2.7l8-5.2l1.7,2.7L360.6,257.3z M373.9,248.7l-1.7-2.7l8-5.2
				l1.7,2.7L373.9,248.7z M387.3,240l-1.7-2.7l8-5.2l1.7,2.7L387.3,240z M400.6,231.3l-1.7-2.7l8-5.2l1.7,2.7L400.6,231.3z"/>
		</g>
		<g>
			<g>
				<polygon fill="#5D66D3" points="283.7,419.9 210.1,386.6 210.1,298.1 283.7,331.3 				"/>
			</g>
			<g>
				<polygon fill="#474EBB" points="283.7,419.9 357.3,386.6 357.3,298.1 283.7,331.3 				"/>
			</g>
			<g>
				<polygon fill="#717DDB" points="210.1,298.1 283.7,331.3 357.3,298.1 283.7,267.9 				"/>
			</g>
		</g>
		<g>
			<g>
				<polygon fill="#373F8C" points="680.7,343.3 607.1,310 607.1,221.5 680.7,254.7 				"/>
			</g>
			<g>
				<polygon fill="#333A7F" points="680.7,343.3 754.3,310 754.3,221.5 680.7,254.7 				"/>
			</g>
			<g>
				<polygon fill="#3F4991" points="607.1,221.5 680.7,254.7 754.3,221.5 680.7,191.3 				"/>
			</g>
		</g>
		<g>
			<path fill="#F4C7B3" d="M746.2,478.1c-2.2,2.2-5.2,4.1-8.3,3.7c-1.2-0.2-2.4-0.4-3.7-0.6c-1-0.2-1.9-0.5-2.7-1.1
				c-0.8-0.6-1.2-1.7-0.9-2.7c0.5-1.3,2.1-1.7,3.3-2.4c1.5-0.9,2.4-2.5,3.6-3.8c2.7-3,6.3-3.3,9.7-4.9c0.2-0.1,2,2,2.2,2.2
				c1.2,1.4,1.3,1.7,0.6,3.4C749.2,474.1,747.9,476.3,746.2,478.1z"/>
		</g>
		<g id="XMLID_272_">
			<g>
				<polygon fill="#8CABEF" points="769.5,376.5 798.6,420.8 794.3,445.5 749.2,476.8 740.7,469.3 770.8,431.3 769.7,407.2 				"/>
			</g>
		</g>
	</g>
</g>
</svg>
