<?xml version="1.0" encoding="utf-8"?>
<!-- Generator: Adobe Illustrator 21.1.0, SVG Export Plug-In . SVG Version: 6.00 Build 0)  -->
<svg version="1.1" id="Layer_1" xmlns="http://www.w3.org/2000/svg" xmlns:xlink="http://www.w3.org/1999/xlink" x="0px" y="0px"
	 viewBox="0 0 1516.2 67" enable-background="new 0 0 1516.2 67" xml:space="preserve">
<g>
	<g id="logo-brand-black-bcg" transform="translate(470.000000, 17.000000)">
		<path id="Combined-Shape" fill="#252B33" d="M288.7,0.5c1.8,0,3.5,0.3,5.1,0.7c1.6,0.5,3,1.2,4.3,2.1l-3.3,5.3
			c-0.8-0.6-1.8-1.1-2.8-1.4c-1-0.3-2.1-0.5-3.3-0.5c-2.7,0-5.2,1.1-6.9,2.9c-1.8,1.8-2.8,4.2-2.8,6.9c0,2.7,1.1,5.2,2.8,7
			c1.7,1.8,4.2,2.9,6.9,2.9c2.1,0,4-0.7,5.5-1.9c1.5-1.2,2.6-2.8,3.1-4.8h-9.5l3.8-5.9h12.4c0.1,0.4,0.1,0.9,0.2,1.3
			c0,0.4,0.1,0.9,0.1,1.4c0,4.4-1.7,8.4-4.5,11.3c-2.8,2.9-6.7,4.7-11.1,4.7c-2.9,0-5.5-0.7-7.8-1.9c-2.3-1.2-4.2-2.9-5.6-5
			c-1.5,2.1-3.4,3.8-5.6,5c-2.3,1.2-4.9,1.9-7.7,1.9c-2.4,0-4.7-0.5-6.7-1.4c-2-0.9-3.8-2.2-5.3-3.9c-0.8,1.4-2,2.5-3.5,3.4
			c-1.5,0.8-3.2,1.3-5.2,1.3h-15.8V1.2h14.3c2.3,0,4.3,0.6,5.9,1.7c1.6,1.1,2.8,2.6,3.3,4.3c1.4-2,3.4-3.7,5.6-4.8
			c2.2-1.2,4.8-1.8,7.6-1.8c1.8,0,3.5,0.2,5.1,0.7c1.6,0.5,3,1.1,4.3,2l-3.4,5.3c-0.8-0.6-1.7-1.1-2.7-1.4s-2.1-0.5-3.2-0.5
			c-2.8,0-5.3,1.2-7.1,3c-1.8,1.8-2.9,4.3-2.9,6.9c0,2.7,1.1,5.2,2.9,7c1.8,1.8,4.3,2.9,7.1,2.9c1.4,0,2.6-0.3,3.8-0.7
			s2.2-1.2,3.2-2.2c2.3-2.3,2.7-5.2,3.4-8.3c0.7-3.2,1.6-6.6,5-10c1.4-1.4,3.1-2.6,5-3.4C284.1,0.9,286.3,0.5,288.7,0.5z
			 M336.8,25.1v4.2c0,0.5,0.2,0.9,0.5,1.3c0.3,0.3,0.7,0.5,1.3,0.5c0.5,0,0.9-0.2,1.2-0.5c0.3-0.3,0.5-0.8,0.5-1.3v-4.2h1.1v4.2
			c0,0.8-0.3,1.5-0.8,2c-0.5,0.5-1.2,0.8-2,0.8c-0.8,0-1.5-0.3-2-0.8c-0.5-0.5-0.8-1.2-0.8-2v-4.2H336.8z M330.6,24.9
			c1,0,1.9,0.4,2.5,1c0.6,0.6,1,1.5,1,2.5c0,1-0.4,1.9-1,2.5s-1.5,1-2.5,1s-1.9-0.4-2.5-1s-1-1.5-1-2.5c0-1,0.4-1.9,1-2.5
			C328.8,25.3,329.6,24.9,330.6,24.9z M315.9,24.9c0.4,0,0.8,0.1,1.2,0.2c0.4,0.1,0.7,0.3,1,0.5l-0.3,0.4l-0.3,0.4
			c-0.2-0.2-0.5-0.3-0.7-0.4c-0.3-0.1-0.5-0.1-0.8-0.1c-0.7,0-1.3,0.3-1.7,0.7c-0.4,0.5-0.7,1.1-0.7,1.8c0,0.7,0.3,1.3,0.7,1.8
			c0.4,0.5,1,0.7,1.7,0.7c0.6,0,1.1-0.2,1.5-0.5c0.4-0.3,0.6-0.8,0.7-1.4h-2.3l0.6-1h2.7c0,0.1,0,0.1,0,0.2c0,0.1,0,0.2,0,0.3
			c0,1-0.3,1.8-0.9,2.4c-0.6,0.6-1.4,1-2.4,1c-1,0-1.9-0.4-2.5-1c-0.6-0.6-1-1.5-1-2.5c0-1,0.4-1.9,1-2.5
			C314,25.3,314.9,24.9,315.9,24.9z M346,25.1c0.7,0,1.3,0.2,1.7,0.6c0.4,0.4,0.6,1,0.6,1.6s-0.2,1.2-0.6,1.6
			c-0.4,0.4-1,0.6-1.7,0.6h-1.5v2.4h-1.1v-6.8H346z M323.5,25.1c0.7,0,1.3,0.2,1.7,0.6c0.4,0.4,0.6,0.9,0.6,1.6c0,0.5-0.1,1-0.4,1.3
			c-0.3,0.3-0.6,0.6-1.1,0.7l0.8,1.3l0.8,1.3h-1.3l-0.8-1.2l-0.8-1.2h-1.3v2.5h-1.1v-6.8H323.5z M330.6,25.9c-0.7,0-1.3,0.3-1.7,0.7
			c-0.4,0.5-0.7,1.1-0.7,1.8c0,0.7,0.3,1.3,0.7,1.8c0.4,0.5,1.1,0.7,1.7,0.7c0.7,0,1.3-0.3,1.8-0.7c0.4-0.5,0.7-1.1,0.7-1.8
			c0-0.7-0.3-1.3-0.7-1.8S331.3,25.9,330.6,25.9z M346,26.1h-1.5v2.5h1.5c0.4,0,0.7-0.1,0.9-0.3c0.2-0.2,0.4-0.5,0.4-0.9
			c0-0.4-0.1-0.7-0.4-0.9C346.6,26.2,346.3,26.1,346,26.1z M323.5,26.1h-1.7v2.4h1.7c0.3,0,0.6-0.1,0.9-0.3c0.2-0.2,0.3-0.5,0.3-0.9
			c0-0.4-0.1-0.7-0.3-0.9C324.1,26.2,323.8,26.1,323.5,26.1z M240.8,19.2h-9.1v7h9.1c1,0,1.9-0.4,2.6-1c0.7-0.6,1.1-1.5,1.1-2.5
			c0-1-0.4-1.9-1.1-2.5C242.7,19.5,241.8,19.2,240.8,19.2z M315.9,13c0.5,0,0.9,0.1,1.3,0.2c0.4,0.1,0.7,0.3,1,0.6l-0.3,0.4
			l-0.3,0.4c-0.3-0.2-0.5-0.4-0.8-0.5c-0.3-0.1-0.6-0.2-1-0.2c-0.7,0-1.3,0.3-1.7,0.7c-0.4,0.5-0.7,1.1-0.7,1.8
			c0,0.7,0.3,1.4,0.7,1.8c0.4,0.5,1,0.7,1.7,0.7c0.4,0,0.7-0.1,1-0.2c0.3-0.1,0.6-0.3,0.8-0.5l0.6,0.9c-0.3,0.2-0.6,0.4-1,0.6
			c-0.4,0.1-0.8,0.2-1.3,0.2c-1,0-1.9-0.4-2.6-1c-0.6-0.6-1-1.5-1-2.5c0-1,0.4-1.9,1-2.5S314.9,13,315.9,13z M374.6,13
			c0.4,0,0.8,0.1,1.2,0.2c0.4,0.1,0.7,0.3,1,0.5l-0.6,0.9c-0.2-0.2-0.5-0.3-0.7-0.4c-0.3-0.1-0.5-0.1-0.8-0.1
			c-0.7,0-1.3,0.3-1.7,0.7c-0.4,0.5-0.7,1.1-0.7,1.8c0,0.7,0.3,1.4,0.7,1.8c0.4,0.5,1,0.7,1.7,0.7c0.6,0,1.1-0.2,1.5-0.5
			c0.4-0.3,0.6-0.8,0.7-1.4h-2.3l0.3-0.5l0.3-0.5h2.7c0,0.1,0,0.1,0,0.2c0,0.1,0,0.2,0,0.3c0,1-0.3,1.8-0.9,2.4
			c-0.6,0.6-1.4,1-2.4,1c-1,0-1.9-0.4-2.5-1c-0.6-0.6-1-1.5-1-2.5c0-1,0.4-1.9,1-2.5S373.6,13,374.6,13z M337.6,13
			c0.4,0,0.8,0.1,1.1,0.2c0.3,0.1,0.7,0.3,0.9,0.5l-0.5,0.9c-0.3-0.2-0.5-0.3-0.8-0.4c-0.3-0.1-0.5-0.1-0.8-0.1
			c-0.4,0-0.7,0.1-0.9,0.3c-0.2,0.2-0.3,0.4-0.3,0.7c0,0.3,0.1,0.5,0.4,0.7c0.3,0.2,0.6,0.3,1.1,0.4c0.5,0.2,1,0.3,1.4,0.6
			c0.4,0.3,0.6,0.7,0.6,1.4c0,0.6-0.2,1.1-0.6,1.5c-0.4,0.4-1,0.6-1.8,0.6c-0.5,0-1-0.1-1.4-0.2c-0.4-0.1-0.7-0.3-1-0.5l0.3-0.4
			l0.3-0.4c0.3,0.2,0.6,0.4,0.9,0.5c0.3,0.1,0.6,0.2,1,0.2c0.4,0,0.7-0.1,1-0.3c0.2-0.2,0.3-0.4,0.3-0.7c0-0.3-0.1-0.5-0.4-0.7
			c-0.3-0.2-0.6-0.3-1.1-0.4c-0.5-0.2-1.1-0.3-1.4-0.6c-0.4-0.3-0.6-0.7-0.6-1.4c0-0.6,0.2-1.1,0.6-1.5
			C336.3,13.2,336.9,13,337.6,13z M322.7,13c1,0,1.9,0.4,2.5,1c0.6,0.6,1,1.5,1,2.5c0,1-0.4,1.9-1,2.5c-0.6,0.6-1.5,1-2.5,1
			c-1,0-1.9-0.4-2.5-1c-0.6-0.6-1-1.5-1-2.5c0-1,0.4-1.9,1-2.5C320.8,13.4,321.7,13,322.7,13z M342.6,13.1v4.2
			c0,0.5,0.2,0.9,0.5,1.3c0.3,0.3,0.7,0.5,1.3,0.5c0.5,0,0.9-0.2,1.2-0.5c0.3-0.3,0.5-0.8,0.5-1.3v-4.2h1.1v4.2c0,0.8-0.3,1.5-0.8,2
			c-0.5,0.5-1.2,0.8-2,0.8c-0.8,0-1.5-0.3-2-0.8c-0.5-0.5-0.8-1.2-0.8-2v-4.2H342.6z M361.5,13.1v6.8h-1.1v-6.8H361.5z M329.2,13.1
			l3.2,5.1v-5.1h1v6.8h-1.3l-3.3-5.3v5.3h-1v-6.8H329.2z M365.3,13.1l3.2,5.1v-5.1h1v6.8h-1.3l-3.3-5.3v5.3h-1v-6.8H365.3z
			 M350.2,13.1v5.8h3.4v1h-4.4v-6.8H350.2z M358.8,13.1v1h-2.1v5.8h-1.1v-5.8h-2.1v-1H358.8z M322.7,14c-0.7,0-1.3,0.3-1.7,0.7
			c-0.4,0.5-0.7,1.1-0.7,1.8c0,0.7,0.3,1.3,0.7,1.8c0.4,0.5,1.1,0.7,1.7,0.7c0.7,0,1.3-0.3,1.8-0.7c0.4-0.5,0.7-1.1,0.7-1.8
			c0-0.7-0.3-1.3-0.7-1.8C324,14.3,323.4,14,322.7,14z M239.3,6.9h-7.6v6.7h7.6c1,0,1.8-0.4,2.4-1c0.6-0.6,1-1.4,1-2.4
			s-0.4-1.8-1-2.4C241.1,7.2,240.3,6.9,239.3,6.9z M322.5,1c1,0,1.9,0.4,2.5,1c0.6,0.6,1,1.5,1,2.5c0,1-0.4,1.9-1,2.5s-1.5,1-2.5,1
			c-1,0-1.9-0.4-2.5-1c-0.6-0.6-1-1.5-1-2.5c0-1,0.4-1.9,1-2.5C320.6,1.4,321.5,1,322.5,1z M329.6,1c0.4,0,0.8,0.1,1.1,0.2
			c0.3,0.1,0.7,0.3,0.9,0.5l-0.3,0.4l-0.3,0.4c-0.3-0.2-0.5-0.3-0.8-0.4c-0.3-0.1-0.5-0.1-0.8-0.1c-0.4,0-0.7,0.1-0.9,0.3
			c-0.2,0.2-0.3,0.4-0.3,0.7c0,0.3,0.1,0.5,0.4,0.7c0.3,0.2,0.6,0.3,1.1,0.4c0.5,0.2,1,0.3,1.4,0.6C331.7,5,332,5.4,332,6
			c0,0.6-0.2,1.1-0.6,1.5c-0.4,0.4-1,0.6-1.8,0.6c-0.5,0-1-0.1-1.4-0.2c-0.4-0.1-0.7-0.3-1-0.5l0.5-0.9c0.3,0.2,0.6,0.4,0.9,0.5
			c0.3,0.1,0.6,0.2,1,0.2c0.4,0,0.7-0.1,1-0.3s0.3-0.4,0.3-0.7c0-0.3-0.1-0.5-0.4-0.7c-0.3-0.2-0.6-0.3-1.1-0.4
			c-0.5-0.2-1.1-0.3-1.4-0.6s-0.6-0.7-0.6-1.4c0-0.6,0.2-1.1,0.6-1.5C328.4,1.2,328.9,1,329.6,1z M342.7,1c1,0,1.9,0.4,2.5,1
			c0.6,0.6,1,1.5,1,2.5c0,1-0.4,1.9-1,2.5c-0.6,0.6-1.5,1-2.5,1c-1,0-1.9-0.4-2.5-1c-0.6-0.6-1-1.5-1-2.5c0-1,0.4-1.9,1-2.5
			C340.8,1.4,341.7,1,342.7,1z M315.4,1.2c0.6,0,1.1,0.2,1.5,0.5c0.4,0.3,0.6,0.8,0.6,1.3c0,0.3-0.1,0.6-0.2,0.8
			c-0.1,0.2-0.3,0.4-0.6,0.6c0.3,0.2,0.6,0.4,0.8,0.7c0.2,0.3,0.3,0.6,0.3,1c0,0.6-0.2,1-0.6,1.4c-0.4,0.4-0.9,0.6-1.6,0.6h-2.9V1.2
			H315.4z M338.4,1.2v1h-2.1V8h-1.1V2.2H333v-1H338.4z M349.2,1.2l3.2,5.1V1.2h1V8h-1.3l-3.3-5.3V8h-1V1.2H349.2z M322.5,2
			c-0.7,0-1.3,0.3-1.7,0.7c-0.4,0.5-0.7,1.1-0.7,1.8c0,0.7,0.3,1.3,0.7,1.8c0.4,0.5,1.1,0.7,1.7,0.7c0.7,0,1.3-0.3,1.8-0.7
			c0.4-0.5,0.7-1.1,0.7-1.8s-0.3-1.3-0.7-1.8C323.8,2.3,323.2,2,322.5,2z M342.7,2c-0.7,0-1.3,0.3-1.7,0.7c-0.4,0.5-0.7,1.1-0.7,1.8
			c0,0.7,0.3,1.3,0.7,1.8c0.4,0.5,1.1,0.7,1.7,0.7c0.7,0,1.3-0.3,1.8-0.7c0.4-0.5,0.7-1.1,0.7-1.8s-0.3-1.3-0.7-1.8
			C344,2.3,343.4,2,342.7,2z M315.5,5h-1.8v2h1.8c0.3,0,0.6-0.1,0.8-0.3c0.2-0.2,0.3-0.4,0.3-0.7c0-0.3-0.1-0.5-0.3-0.7
			C316.1,5.1,315.8,5,315.5,5z M315.4,2.1h-1.6V4h1.6c0.3,0,0.5-0.1,0.7-0.3c0.2-0.2,0.3-0.4,0.3-0.7c0-0.3-0.1-0.5-0.3-0.7
			C315.9,2.2,315.6,2.1,315.4,2.1z"/>
	</g>
	<g id="logo-brand-black-mtn" transform="translate(175.000000, 8.000000)">
		<path id="Combined-Shape_1_" fill="#252B33" d="M225.6,0.5c33.4,0,60.5,11.2,60.5,25c0,13.8-27.1,25-60.5,25s-60.5-11.2-60.5-25
			C165.1,11.7,192.2,0.5,225.6,0.5z M251.3,13h-7.2l-6.2,25h6.6l3.4-13.6l3.4,13.6h6.9l6.2-25h-6.5l-3.4,13.3L251.3,13z M203,13h-10
			l-6.2,25h6.9l4.1-16.1V38h5.3l7.8-16.1L207.1,38h6.6l6.2-25h-10.3L203,27.6V13z M230.2,34.4h-7.1l-0.9,3.6h7.1L230.2,34.4z
			 M242.3,13h-20.7l-1.6,6.3h6.8l-3.3,13.3h7.1l3.3-13.3h6.8L242.3,13z"/>
	</g>
	<g id="logo-brand-black-mtu" transform="translate(326.000000, 9.000000)">
		<path id="Combined-Shape_2_" fill="#252B33" d="M255,0.6c0,0-11.6,41.1-11.9,42.2c-0.4,1.3-2.7,5.6-7.5,5.6h-35.8
			c-1.6,0-5.7-0.8-4.5-5.7c1.3-5.2,9.6-34.2,10.1-35.9c0.9-2.9,3.7-6.2,8.5-6.2H255z M308.2,0.6c0,0-11.6,41.1-11.9,42.2
			c-0.4,1.3-2.7,5.6-7.5,5.6h-35.8c-1.6,0-5.7-0.8-4.5-5.7c1.3-5.2,9.6-34.2,10.1-35.9c0.9-2.9,3.7-6.2,8.5-6.2H308.2z M218,32.1
			h-13.2c-1.5,0-1.8,1-2,1.5c-0.2,0.5-1.9,7.1-1.9,7.1h3.9l1.8-6.3h2.3l-1.8,6.3h3.9l1.8-6.3h2.3l-1.8,6.3h3.9c0,0,1.6-5.6,1.9-6.8
			C219.4,32.7,218.7,32.1,218,32.1z M227,29.7l-4.2,1.2l-0.3,1.2h-2.2l-0.7,2.2h2.2c0,0-1,3.4-1.3,4.7c-0.3,1.3,0.7,1.6,1.1,1.6h5.2
			l0.6-2.3h-2.9l1.1-4.1h4.5c0,0-0.8,2.8-1.2,4.4c-0.4,1.6,0.5,2,1.2,2h6.9c1.3,0,1.8-1.2,1.9-1.8c0.1-0.6,2-6.8,2-6.8h-3.9
			l-1.8,6.3H233l1.7-6.3h-8.3L227,29.7z"/>
	</g>
	<g id="logo-brand-black-sanchobbdo" transform="translate(653.000000, 11.000000)">
		<path id="Shape_1_" fill="#252B33" d="M331.1,28.2c3.8-3.6,9.7-3.6,13.5,0c1.7,1.7,2.7,4.1,2.7,6.5v0c0,2.4-1,4.8-2.7,6.5
			c-1.8,1.8-4.2,2.7-6.8,2.7c-2.5,0-4.9-0.9-6.8-2.7c-1.1-1.1-1.8-2.4-2.3-3.8c-0.4,1.3-1.2,2.6-2.2,3.6c-1.8,1.7-4.3,2.6-6.8,2.6
			h-7l0-3c-0.3,0.7-0.8,1.3-1.5,1.7c-1.2,0.8-2.9,1.2-4.8,1.2H298l0-3c-0.3,0.7-0.8,1.3-1.5,1.7c-1.2,0.8-2.9,1.2-4.8,1.2h-8.5V25.8
			h8.3c1.8,0,3.3,0.4,4.4,1.3c1.1,0.8,1.7,2.2,1.7,3.5v0c0,1.4-0.6,2.8-1.8,3.6l0,0l0.1,0.1c1,0.5,1.7,1.1,2.2,2.1l0-10.6h8.3
			c1.8,0,3.3,0.4,4.4,1.3c1.1,0.8,1.7,2.2,1.7,3.5v0c0,1.4-0.6,2.8-1.8,3.6l0,0l0.1,0.1c1,0.5,1.7,1.1,2.2,2.1l0-10.6h7
			c2.5-0.1,4.9,0.8,6.8,2.5c1,1,1.8,2.3,2.2,3.6C329.3,30.5,330.1,29.2,331.1,28.2z M337.9,29.7c-2.8,0-4.7,2.2-4.7,4.9v0
			c0,2.7,2,5,4.7,4.9c2.8,0,4.7-2.2,4.7-4.9v0C342.6,32,340.6,29.7,337.9,29.7z M293.4,37c-0.6-0.3-1.2-0.5-1.9-0.4h-3.9l0,0v2.9h4
			c0.6,0,1.2-0.1,1.7-0.4c0.4-0.2,0.6-0.6,0.5-1.1v0C294,37.6,293.8,37.2,293.4,37z M308.2,37c-0.6-0.3-1.2-0.5-1.9-0.4h-3.9v2.9h4
			c0.6,0,1.2-0.1,1.7-0.4c0.4-0.2,0.6-0.6,0.5-1.1v0C308.8,37.6,308.6,37.2,308.2,37z M319.8,30h-2.5v9.5h2.5c2.9,0,4.7-1.9,4.7-4.7
			v0C324.5,31.9,322.7,30,319.8,30z M305.9,29.9l-0.1,0h-3.3v2.8h3c0.6,0,1.2-0.1,1.7-0.4c0.4-0.2,0.6-0.6,0.5-1v0
			c0-0.4-0.2-0.7-0.5-1c-0.5-0.3-1-0.4-1.6-0.4L305.9,29.9z M291.1,29.9l-0.1,0h-3.3v2.8h3c0.6,0,1.2-0.1,1.8-0.4
			c0.4-0.2,0.6-0.6,0.5-1v0c0-0.4-0.2-0.7-0.5-1c-0.5-0.3-1-0.4-1.6-0.4L291.1,29.9z"/>
		<path id="Shape_3_copy" fill="#252B33" d="M255.1,16.7l2.7-3.3c1.6,1.4,3.7,2.1,5.8,2.1c1.3,0,2.1-0.5,2.1-1.2v-0.1
			c0-0.8-0.6-1.1-3-1.7c-3.8-0.9-6.7-1.9-6.7-5.6V6.9c0-3.3,2.6-5.7,6.9-5.7c3,0,5.4,0.8,7.3,2.4L267.7,7c-1.4-1.1-3.2-1.7-5-1.8
			c-1.2,0-1.8,0.5-1.8,1.1v0.1c0,0.8,0.6,1.2,3.1,1.7c4.1,0.9,6.6,2.2,6.6,5.6v0.1c0,3.7-2.9,5.8-7.2,5.8
			C260.4,19.7,257.4,18.7,255.1,16.7z M279.7,1.3h4.8l7.6,18h-5.3l-1.3-3.2h-6.9l-1.3,3.2h-5.2L279.7,1.3z M284.1,12.3l-2-5.1
			l-2,5.1H284.1z M294.7,1.5h4.6l7.3,9.5V1.5h4.9v17.9h-4.3l-7.6-9.8v9.8h-4.9V1.5L294.7,1.5z M315,10.4L315,10.4
			c0-5.3,4-9.3,9.4-9.3c3.6,0,6,1.5,7.6,3.7l-3.7,2.9c-1-1.3-2.2-2.1-3.9-2.1c-2.5,0-4.3,2.1-4.3,4.8v0.1c0,2.7,1.8,4.8,4.3,4.8
			c1.9,0,3-0.9,4-2.2l3.7,2.7c-1.7,2.3-3.9,4-7.9,4c-2.5,0-4.8-0.9-6.6-2.7C316,15.3,315,12.9,315,10.4L315,10.4z M335.2,1.5h4.9
			v6.7h6.3V1.5h4.9v17.9h-4.9v-6.8h-6.3v6.8h-4.9V1.5z M354.9,10.4L354.9,10.4c0-5.2,4.1-9.3,9.6-9.3s9.6,4.1,9.6,9.2v0.1
			c0,5.1-4.1,9.3-9.6,9.3C358.9,19.7,354.9,15.6,354.9,10.4L354.9,10.4z M369,10.4L369,10.4c0-2.7-1.8-4.9-4.6-4.9
			c-2.7,0-4.5,2.2-4.5,4.8v0.1c0,2.6,1.9,4.8,4.6,4.8C367.2,15.2,369,13,369,10.4L369,10.4z"/>
	</g>
	<g id="logo-brand-black-haas" transform="translate(1479.000000, 3.000000)">
		<path id="Combined-Shape_6_" fill="#252B33" d="M-318.9,0.5L-318.9,0.5l8.4,0c0.2,0,0.4,0,0.4,0.2c0.1,0.1,0,0.3-0.1,0.5
			c-0.1,0.1-2.5,4.4-5.8,10v32.3h-10.7c-1.7,0-2,0.6-2.5,1.5c-0.5,0.9-2.2,3.9-2.7,4.8s-0.2,2.1,1.2,2.1h4c0,0-0.8,1.5-1.2,2.2
			c-0.3,0.6-1.1,0.7-1.6,0.7h-4.3v2.9h5.8c1.9,0,2.5-1.5,2.5-1.5s1.8-3.2,2.4-4.4c1.1-1.9,0.8-2.8-0.7-2.8h-4.1l1.2-2.1
			c0.3-0.5,0.6-0.4,0.6-0.4h10.1v12c0,1.1-0.9,2-2,2h-55.9c-1.1,0-2-0.9-2-2v-4.2h9.7l-1.9,3.3h3.5l8-14.1h-3.4l-4.5,7.8h-11.4V29.9
			h-8.2c-0.1,0-0.2-0.1-0.3-0.1c0-0.1,0-0.1,0-0.1c0-0.1,0.1-0.2,0.1-0.2l1.2-2.1c1.2-2,2.9-5.1,3-5.2c0.1-0.3,0.3-0.4,0.6-0.4h3.7
			V6.7c0-1.1,0.9-2,2-2h34.1c1.3-2.3,2.3-4,2.3-4l0,0c0.1-0.1,0.2-0.2,0.4-0.1h8.8c0.1,0,0.2,0.1,0.3,0.1c0,0.1,0.1,0.2,0,0.3
			c0,0-0.8,1.4-2.1,3.7h8.5c1.2-2,2-3.4,2.3-3.9C-319.2,0.6-319,0.5-318.9,0.5L-318.9,0.5z M-349.8,43.5h-3.3c0,0-4.7,7.9-4.9,8.3
			c-0.2-0.6-1.4-0.5-2.2-0.5c-0.4,0.7-1.6,2.9-1.6,2.9h1.4c0.9,0,0.8,0.5,0.4,1.1c-0.3,0.6-1.3,2.2-1.3,2.2h3.4L-349.8,43.5z
			 M-345,43.5h-3.3l-8.2,14h3.5L-345,43.5z M-335.2,43.5h-3.5l-5.8,9.8v-9.1l-2.8,4.9l0,2.5c-0.2-0.4-0.7-0.4-1.3-0.4
			c-0.2,0.4-1.7,2.9-1.7,2.9h1.7c1.1,0,1.3,0.4,1.3,1v2.3h4L-335.2,43.5z M-334.7,44.3l-2.9,5.1v2.3c-0.2-0.4-0.4-0.4-1.2-0.4
			c-0.3,0.4-1.7,2.9-1.7,2.9h1.5c1.1,0,1.4,0.2,1.4,1.2v2.2h2.8V44.3z M-337.1,0.8L-337.1,0.8c-0.1,0.1-11.6,20.2-12.1,21l-0.1,0.1
			h-30.3c-0.1,0-0.2,0-0.3,0.2c-0.1,0.1-1.4,2.5-3,5.3l-1.2,2.1c0,0,0,0,0,0.1h30.3c0,0-4.9,8.5-5.2,9h9.2
			c1.4-2.4,21-36.9,21.5-37.7l0,0h-8.7C-337,0.8-337.1,0.8-337.1,0.8z M-310.3,0.8h-0.1l-3.5,0h-4.8c-0.2,0-0.2,0-0.2,0.1
			c-1.2,2-11.7,19.8-13.1,22.3l-0.2,0.3l-0.1-0.3c-0.6-1.4-3.2-1.3-4.9-1.3h-0.7c-0.7,1.2-3.5,6.4-4.2,7.6l0.3,0c0.7,0,2,0,3.2,0
			c0.9,0,1.3,0.4,1.5,0.8c0.2,0.3,0.2,0.6,0.2,1c0,0.5-0.1,1-0.4,1.4c-0.6,1-2.8,4.8-3.3,5.8h8.7c1.1-1.9,21.4-37.3,21.6-37.6
			C-310.4,0.9-310.3,0.9-310.3,0.8z"/>
	</g>
	<g id="logo-brand-black-tata" transform="translate(1584.000000, 0.000000)">
		<path id="Combined-Shape_7_" fill="#252B33" d="M-323.6,47.5l7.2,18.5h-7.3l-3.8-11.2l-3.7,11.2h-7l6.8-18.5L-323.6,47.5z
			 M-287.9,47.5l7.3,18.5h-7.3l-3.7-11.2l-3.8,11.2h-7l6.8-18.5H-287.9z M-336.4,47.4v5.4h-5.1V66h-7.6V52.9h-5.3v-5.4H-336.4z
			 M-300.6,47.4v5.4h-5.1V66h-7.6V52.9h-5.3v-5.4H-300.6z M-317.6,1c12,0,22.3,5.1,26.1,12.2c-4.5-0.7-25.2-5.7-24.9-1.6V38
			c-0.4,0-0.8,0-1.2,0c-0.4,0-0.8,0-1.3,0V11.7c0.2-4.1-20.4,0.9-24.9,1.6C-339.9,6.1-329.6,1-317.6,1z M-290.2,16.5
			c0.2,1,0.4,2,0.4,3c0,8.1-7.9,15.1-18.9,17.6c-1.8-8.1-5.1-21.5-3.4-22.4C-309.6,13-295.5,15.1-290.2,16.5z M-323.2,14.6
			c1.7,1-1.6,14.3-3.4,22.4c-10.9-2.5-18.8-9.4-18.8-17.5c0-1,0.1-2,0.4-3C-339.7,15.1-325.7,13-323.2,14.6z"/>
	</g>
	<g id="logo-brand-black-yahoo" transform="translate(1688.000000, 17.000000)">
		<path id="Fill-15" fill="#252B33" d="M-291.1,8.3V10c-1-1.2-2.7-2.1-4.8-2.1c-4.8,0-8.4,4.3-8.4,9.3c0,5.1,3.6,9.3,8.4,9.3
			c2,0,3.8-0.8,4.8-2.1V26h6V8.3H-291.1z M-283,0.5V26h6.2v-9.4c0-1.8,0.9-2.9,2.3-2.9c1.4,0,2.1,1,2.1,2.7V26h6.2V14.9
			c0-4.3-2.3-7-6.1-7c-2,0-3.6,0.8-4.6,2.1V0.5H-283z M-226,17.2c0,5.3-4,9.3-9.4,9.3c-5.4,0-9.4-4-9.4-9.3c0-5.3,4-9.3,9.4-9.3
			C-230,7.9-226,11.9-226,17.2z M-245.9,17.2c0,5.3-4,9.3-9.4,9.3c-5.4,0-9.4-4-9.4-9.3c0-5.3,4-9.3,9.4-9.3
			C-250,7.9-245.9,11.9-245.9,17.2z M-324.4,8.3l7.5,17.8l-2.7,6.4h6.6l10-24.2h-6.6l-4.1,10.3l-4-10.3H-324.4z M-294.6,20.8
			c-2.1,0-3.7-1.6-3.7-3.6c0-2,1.6-3.6,3.7-3.6c2,0,3.6,1.6,3.6,3.6C-290.9,19.2-292.5,20.8-294.6,20.8z M-251.8,17.2
			c0-2-1.5-3.6-3.5-3.6c-2,0-3.5,1.6-3.5,3.6s1.5,3.6,3.5,3.6C-253.3,20.7-251.8,19.1-251.8,17.2z M-231.9,17.2c0-2-1.5-3.6-3.5-3.6
			c-2,0-3.5,1.6-3.5,3.6s1.5,3.6,3.5,3.6C-233.4,20.7-231.9,19.1-231.9,17.2z M-225.2,22.2c0,2.2,1.7,4,4,4c2.4,0,4.2-1.9,4.2-4.2
			c0-2.3-1.7-4-4-4C-223.4,18-225.2,20-225.2,22.2z M-216.3,0.5l-6.6,16h7.4l6.6-16H-216.3z"/>
	</g>
	<g id="logo-brand-black-best-buy" transform="translate(2018.000000, 8.000000)">
		<path id="Combined-Shape_9_" fill="#252B33" d="M-1895.1,36.8v13.6h-17.3l-4.1-4.1v-5.5l4.1-4.1H-1895.1z M-1948.2,25V38
			c0,1.3,1.3,2.5,2.7,2.5c1.3,0,2.6-1.1,2.6-2.6V25h6.9v12.8c0,5.1-4.2,9.1-9.7,9.1c-5.5,0-9.4-4.4-9.4-9.4V25H-1948.2z
			 M-1964.7,25.1c4.5,0,7.9,2.3,7.9,5.7c0,2.6-1.7,3.9-3.2,4.5c2.5,0.7,4.7,2.2,4.7,5.3c0,4.5-4,6.1-8.3,6.1l-0.2,0h-11.3V25.1
			H-1964.7z M-1928.6,25l4.6,7.4l4.6-7.4h7l-8.2,13.9v7.6h-6.9v-7.7l-8.1-13.9H-1928.6z M-1914,42.7c-0.5,0-0.9,0.4-0.9,0.9
			s0.4,0.9,0.9,0.9s0.9-0.4,0.9-0.9S-1913.5,42.7-1914,42.7z M-1964.9,37.8h-3.4v3.9h3.2c1.4,0,2.4-0.9,2.4-2
			C-1962.8,38.7-1963.8,37.8-1964.9,37.8z M-1965.8,30.1h-2.6v3.2h2.6c1,0,1.8-0.8,1.8-1.6C-1963.9,30.9-1964.7,30.1-1965.8,30.1z
			 M-1933.1,0.5c3.4,0,5.9,1.2,7.5,2.7l0.2,0.2l-4.1,3.9c0,0-1.2-1.1-2.8-1.1c-1,0-1.9,0.5-1.9,1.3c0,2.3,9.5,1.2,9.5,8.5
			c0,4.5-3.9,7.3-8.8,7.3c-4.7,0-7.3-1.8-9-3.4l-0.1-0.1l4.1-3.9c1,0.8,2.3,1.8,3.9,1.8c1.4,0,2.2-0.8,2.2-1.6
			c0-2.3-9.4-1.2-9.4-8.6C-1941.8,3.6-1938.4,0.5-1933.1,0.5z M-1970.4,1.1c4.5,0,7.9,2.3,7.9,5.7c0,2.6-1.7,3.9-3.2,4.5
			c2.5,0.7,4.7,2.2,4.7,5.3c0,4.5-4,6.1-8.3,6.1l-0.2,0h-11.3V1.1H-1970.4z M-1943,1.1v5.2h-10.5v2.8h8.6v4.9h-8.6v3.5h10.5v5.2
			h-17.5V1.1H-1943z M-1906.7,1.1v5.2h-5.7v16.4h-6.9V6.3h-5.7V1.1H-1906.7z M-1970.6,13.9h-3.4v3.9h3.2c1.4,0,2.4-0.9,2.4-2
			C-1968.4,14.7-1969.4,13.9-1970.6,13.9z M-1971.4,6.2h-2.6v3.2h2.6c1,0,1.8-0.8,1.8-1.6C-1969.5,7-1970.3,6.2-1971.4,6.2z"/>
	</g>
	<g id="logo-brand-black-essilor" transform="translate(2134.000000, 2.000000)">
		<path id="Combined-Shape_10_" fill="#252B33" d="M-1882.8,52c4.9,0,7.3,1.8,7.3,5.3c0,3.5-2.4,5.2-7.3,5.2c-4.9,0-7.3-1.8-7.3-5.2
			C-1890.1,53.7-1887.7,52-1882.8,52z M-1942.9,49.6c3,0,5.7,1.3,7.1,3.4c-0.2,0.1-6,3.7-6.6,4.1l0,0c-0.6,0.4-1.5,0.2-1.9-0.4
			c-0.2-0.3-0.3-0.7-0.2-1c0.1-0.3,0.2-0.6,0.5-0.8l0.1-0.1l3.6-2.2l-0.2-0.1c-0.7-0.3-1.5-0.5-2.4-0.5c-2.8,0-4.7,1.6-4.7,3.9
			c0,2.3,1.9,3.9,4.7,3.9c2.6,0,4.5-1.4,4.7-3.5l0-0.2h3.3c-0.1,3.5-3.6,6.2-8,6.2c-4.5,0-8-2.8-8-6.3
			C-1950.9,52.4-1947.4,49.6-1942.9,49.6z M-1895.8,47.5v10.6c0,0.5-0.2,1.4,0.4,1.7c0.8,0.4,2.5,0.2,4.4,0.2v1.8
			c-7.6,0.4-7.8-0.5-7.9-3.4l0-10.9H-1895.8z M-1912.7,51.5c4.2,0,6.3,1,6.3,3.1h-3.1c0-0.3-0.1-0.5-0.4-0.7
			c-0.5-0.3-1.4-0.4-2.8-0.4s-2.4,0.1-2.8,0.4c-0.3,0.1-0.4,0.4-0.4,0.7c0,0.4,0.2,0.6,0.6,0.8c0.4,0.1,1.3,0.2,2.8,0.3
			c1.8,0.1,3.1,0.2,4,0.5c1.5,0.5,2.2,1.3,2.2,2.6c0,2.1-2.1,3.1-6.3,3.1c-4.2,0-6.3-1-6.3-3.1h3.1c0,0.3,0.1,0.5,0.4,0.7
			c0.5,0.3,1.4,0.4,2.8,0.4s2.4-0.1,2.8-0.4c0.3-0.1,0.4-0.4,0.4-0.7c0-0.4-0.2-0.6-0.5-0.8c-0.4-0.1-1.3-0.2-2.8-0.3
			c-1.8-0.1-3.1-0.2-4-0.5c-1.5-0.5-2.2-1.3-2.2-2.6C-1919.1,52.6-1917,51.5-1912.7,51.5z M-1927.2,51.5c4.2,0,6.3,1,6.3,3.1h-3.1
			c0-0.3-0.1-0.5-0.4-0.7c-0.5-0.3-1.4-0.4-2.8-0.4c-1.4,0-2.4,0.1-2.8,0.4c-0.3,0.1-0.4,0.4-0.4,0.7c0,0.4,0.2,0.6,0.6,0.8
			c0.4,0.1,1.3,0.2,2.8,0.3c1.8,0.1,3.1,0.2,4,0.5c1.5,0.5,2.2,1.3,2.2,2.6c0,2.1-2.1,3.1-6.3,3.1c-4.2,0-6.3-1-6.3-3.1h3.1
			c0,0.3,0.1,0.5,0.4,0.7c0.5,0.3,1.4,0.4,2.8,0.4c1.4,0,2.4-0.1,2.8-0.4c0.3-0.1,0.4-0.4,0.4-0.7c0-0.4-0.2-0.6-0.5-0.8
			c-0.4-0.1-1.3-0.2-2.8-0.3c-1.8-0.1-3.1-0.2-4-0.5c-1.5-0.5-2.2-1.3-2.2-2.6C-1933.5,52.6-1931.4,51.5-1927.2,51.5z M-1901.3,51.5
			v10.3h-3.1V51.5H-1901.3z M-1865.9,51.5v2c-1.9,0-3.2,0.2-4,0.5c-0.5,0.3-0.8,0.7-0.8,1.2v6.5h-3.1v-6.5
			C-1873.7,52.8-1871.1,51.5-1865.9,51.5z M-1882.8,54c-1.6,0-2.8,0.3-3.4,0.9c-0.5,0.5-0.8,1.3-0.8,2.3c0,1.1,0.3,1.8,0.8,2.3
			c0.6,0.6,1.8,0.9,3.4,0.9s2.8-0.3,3.4-0.9c0.5-0.5,0.8-1.2,0.8-2.3c0-1.1-0.3-1.8-0.8-2.3C-1880,54.3-1881.2,54-1882.8,54z
			 M-1901.3,47.5v2h-3.1v-2H-1901.3z M-1866,0.5v42.6h-84.3V0.5H-1866z M-1905.7,5c-20.6,0.5-26.5,17.9-26.5,17.9l-0.1,0.2
			c0,0,7.8,14.4,24.9,14.1c20.3-0.3,26.4-18,26.4-18C-1890.2,4.2-1905.7,5-1905.7,5z M-1902.9,7.4c0,0,13.5,2.5,18.5,17.4
			c0,0-8.9,14.2-26.5,10.4c-14.8-3.2-18.7-17.3-18.7-17.3l0.1-0.1C-1929.4,17.8-1920.8,3.7-1902.9,7.4z M-1906.6,11.5
			c-7.1,0-12.6,4.4-12.6,10s5.5,10,12.6,10c7,0,12.5-4.3,12.6-9.9h-5.3c-0.1,3.5-3.1,5.9-7.3,5.9c-4.3,0-7.3-2.5-7.3-6
			c0-3.6,3-6,7.3-6c1.3,0,2.6,0.2,3.7,0.7l0.2,0.1l-5.5,3.4c-0.5,0.3-0.9,0.8-1,1.4c-0.1,0.6,0,1.1,0.3,1.6c0.7,1,2.1,1.3,3.1,0.6
			l10.4-6.5C-1897.5,13.5-1901.8,11.5-1906.6,11.5z"/>
	</g>
</g>
</svg>
