<?xml version="1.0" encoding="utf-8"?>
<!-- Generator: Adobe Illustrator 21.1.0, SVG Export Plug-In . SVG Version: 6.00 Build 0)  -->
<svg version="1.1" id="Layer_1" xmlns="http://www.w3.org/2000/svg" xmlns:xlink="http://www.w3.org/1999/xlink" x="0px" y="0px"
	 viewBox="0 0 50 50" enable-background="new 0 0 50 50" xml:space="preserve">
<g>
	<path fill="#FFFFFF" d="M48.5,17.3L45.8,6.7c-0.3-1.3-1.5-2.2-2.8-2.2H7.1c-1.3,0-2.5,0.9-2.9,2.2L1.5,17.3c0,0.1,0,0.2,0,0.4
		c0,4,3.1,7.3,7,7.3c2.2,0,4.2-1.1,5.5-2.8c1.3,1.7,3.3,2.8,5.5,2.8s4.2-1.1,5.5-2.8c1.3,1.7,3.3,2.8,5.5,2.8s4.2-1.1,5.5-2.8
		c1.3,1.7,3.3,2.8,5.5,2.8c3.8,0,7-3.3,7-7.3C48.5,17.5,48.5,17.4,48.5,17.3z"/>
	<path fill="#FFFFFF" d="M36,26.2c-3.2,2.2-7.8,2.2-11,0c-3.2,2.2-7.8,2.2-11,0c-1.6,1.1-3.5,1.7-5.5,1.7c-1.4,0-2.8-0.3-4-0.9v15.6
		c0,1.6,1.3,2.9,2.9,2.9h11.8V33.8h11.8v11.8h11.8c1.6,0,2.9-1.3,2.9-2.9V27c-1.2,0.6-2.6,0.9-4,0.9C39.5,27.9,37.6,27.3,36,26.2z"
		/>
</g>
</svg>
