<?xml version="1.0" encoding="utf-8"?>
<!-- Generator: Adobe Illustrator 23.0.1, SVG Export Plug-In . SVG Version: 6.00 Build 0)  -->
<svg version="1.1" id="Layer_1" xmlns="http://www.w3.org/2000/svg" xmlns:xlink="http://www.w3.org/1999/xlink" x="0px" y="0px"
	 viewBox="0 0 46 46" style="enable-background:new 0 0 46 46;" xml:space="preserve">
<style type="text/css">
	.st0{fill:#FFFFFF;}
</style>
<g id="Page-1">
	<g id="ic-technology-appium">
		<path id="Combined-Shape" class="st0" d="M0,23.34l0.04,0.07c2.95,5.49,9.54,8.23,18.39,6.1l0.68-0.16l0.42-0.1
			c3.75-1.1,7.6-3.22,10.23-5.18l0.28-0.21l0.24,0.27c5.98,6.79,5.87,13.67,1.33,18.35l-0.19,0.19l-0.35,0.17
			c-0.1,0.05-0.22,0.1-0.35,0.16c-0.66,0.3-1.41,0.59-2.24,0.87c-4.78,1.59-9.78,1.85-14.44-0.06c-0.35-0.15-0.71-0.3-1.05-0.47
			C5.05,39.92,0.16,31.36,0,23.72L0,23.34z M35.38,4.53l0.29,0.05L35.55,4.5c1.17,0.75,2.86,2.15,4.55,4.16
			c2.76,3.28,4.53,7.09,4.82,11.42l0.05,0.49c0.81,8.67-4.17,17.07-10.7,20.78l-0.2,0.11l0.02-0.03c3.2-5.31,2.57-10.81-1.14-16
			l-0.35-0.48c-3.01-3.98-7.78-7.55-12.04-9.43l-0.45-0.19l0.08-0.24C22.65,7.49,27.67,3.41,35.38,4.53z M32.56,2.46l0.3,0.17
			l-0.15-0.01C26.52,2.49,20.9,6.82,18.34,15.5l-0.2,0.67l-0.11,0.33c-0.98,3.75-1.03,7.67-0.7,11.01l0.06,0.51l-0.25,0.06
			c-7.81,1.66-13.85-0.64-16.72-7.84l-0.11-0.28l0.02-0.28L0.4,19.1c0.03-0.21,0.06-0.43,0.1-0.66c0.21-1.32,0.56-2.73,1.07-4.18
			c1.44-4.1,3.88-7.61,7.54-10.07C16.06-0.99,25.89-1.12,32.56,2.46z"/>
	</g>
</g>
</svg>
