<?xml version="1.0" encoding="utf-8"?>
<!-- Generator: Adobe Illustrator 23.0.1, SVG Export Plug-In . SVG Version: 6.00 Build 0)  -->
<svg version="1.1" id="Layer_1" xmlns="http://www.w3.org/2000/svg" xmlns:xlink="http://www.w3.org/1999/xlink" x="0px" y="0px"
	 viewBox="0 0 60 48" style="enable-background:new 0 0 60 48;" xml:space="preserve">
<style type="text/css">
	.st0{fill:#FFFFFF;}
</style>
<g id="Page-1">
	<g id="ic-technology-aws">
		<path id="Shape" class="st0" d="M17.51,30.1l-5.49,2.36l5.09,2.18l5.9-2.18L17.51,30.1z M9.25,33.05L9.06,43.67l8.04,3.54V36.19
			L9.25,33.05L9.25,33.05z M25.77,33.05l-7.26,2.77v10.4l7.26-2.95V33.05z M34.43,0.01L28.9,2.37l5.13,2.18l5.9-2.18L34.43,0.01
			L34.43,0.01z M26.76,3.15v10.62l6.86,1.99l0.22-9.66L26.76,3.15L26.76,3.15z M42.1,3.74L35.61,6.5v10.44l6.49-2.95V3.74L42.1,3.74
			z M8.45,14.96l-5.49,2.36l5.09,2.18l5.9-2.18L8.45,14.96L8.45,14.96z M0.19,17.91L0.01,28.53l8.04,3.54V21.04L0.19,17.91z
			 M16.71,17.91l-7.26,2.77v10.4l7.26-2.95V17.91z M26.15,14.57l-5.49,2.36l5.09,2.18l5.9-2.18L26.15,14.57z M17.89,17.52
			l-0.18,10.62l8.04,3.54V20.65L17.89,17.52z M34.41,17.52l-7.26,2.77v10.4l7.26-2.95V17.52z M51.72,0.01l-5.49,2.36l5.09,2.18
			l5.9-2.18L51.72,0.01z M43.46,2.96l-0.18,10.62l8.04,3.54V6.1L43.46,2.96z M59.98,2.96l-7.26,2.77v10.4l7.26-2.95V2.96z"/>
	</g>
</g>
</svg>
