<?xml version="1.0" encoding="utf-8"?>
<!-- Generator: Adobe Illustrator 23.0.1, SVG Export Plug-In . SVG Version: 6.00 Build 0)  -->
<svg version="1.1" id="Layer_1" xmlns="http://www.w3.org/2000/svg" xmlns:xlink="http://www.w3.org/1999/xlink" x="0px" y="0px"
	 viewBox="0 0 42 48" style="enable-background:new 0 0 42 48;" xml:space="preserve">
<style type="text/css">
	.st0{fill:#FFFFFF;}
</style>
<g id="Page-1">
	<g id="ic-technology-drupal">
		<path id="Shape-Copy-4" class="st0" d="M31.45,8.93C29,7.4,26.69,6.8,24.38,5.27C22.94,4.3,20.95,1.99,19.29,0
			c-0.32,3.19-1.29,4.49-2.4,5.41c-2.36,1.85-3.84,2.4-5.87,3.51C9.3,9.8,0,15.35,0,27.28C0,39.21,10.04,48,21.18,48
			C32.33,48,42,39.91,42,27.65S32.93,9.85,31.45,8.93z M31.72,43.65c-0.23,0.23-2.36,1.71-4.86,1.94c-2.5,0.23-5.87,0.37-7.91-1.48
			c-0.32-0.32-0.23-0.79,0-0.97c0.23-0.18,0.42-0.32,0.69-0.32c0.28,0,0.23,0,0.37,0.09c0.92,0.74,2.31,1.34,5.27,1.34
			c2.96,0,5.04-0.83,5.97-1.53c0.42-0.32,0.6-0.05,0.65,0.14C31.95,43.05,32.05,43.33,31.72,43.65z M23.63,39.44
			c0.51-0.46,1.34-1.2,2.13-1.53c0.79-0.32,1.2-0.28,1.94-0.28c0.74,0,1.53,0.05,2.08,0.42c0.55,0.37,0.88,1.2,1.06,1.66
			c0.18,0.46,0,0.74-0.37,0.92c-0.32,0.19-0.37,0.09-0.69-0.51c-0.32-0.6-0.6-1.2-2.22-1.2s-2.13,0.55-2.91,1.2
			c-0.79,0.65-1.06,0.88-1.34,0.51C23.03,40.27,23.12,39.9,23.63,39.44L23.63,39.44z M35.88,39.81c-1.66-0.14-5-5.32-7.12-5.41
			c-2.68-0.09-8.51,5.6-13.09,5.6c-2.77,0-3.61-0.42-4.53-1.02c-1.39-0.97-2.08-2.45-2.04-4.49c0.05-3.61,3.42-6.98,7.68-7.03
			c5.41-0.05,9.16,5.36,11.89,5.32c2.31-0.05,6.75-4.58,8.93-4.58c2.31,0,2.96,2.4,2.96,3.84c0,1.43-0.46,4.02-1.57,5.64
			C37.87,39.3,37.18,39.9,35.88,39.81L35.88,39.81z"/>
	</g>
</g>
</svg>
