<?xml version="1.0" encoding="utf-8"?>
<!-- Generator: Adobe Illustrator 23.0.1, SVG Export Plug-In . SVG Version: 6.00 Build 0)  -->
<svg version="1.1" id="Layer_1" xmlns="http://www.w3.org/2000/svg" xmlns:xlink="http://www.w3.org/1999/xlink" x="0px" y="0px"
	 viewBox="0 0 43 48" style="enable-background:new 0 0 43 48;" xml:space="preserve">
<style type="text/css">
	.st0{fill:#FFFFFF;}
</style>
<g id="Page-1">
	<g id="ic-technology-dynamodb">
		<path id="Combined-Shape" class="st0" d="M37.02,36.47l0.39,0.17l0.09-0.06v6.44l-0.16,0.22L29.1,48h-0.6l0-8.92L37.02,36.47z
			 M6,36.88l8.1,2.38l0.89,0l0,8.74h-0.6L6,43.83V36.88z M27,39.26V48H16.5v-8.74H27z M42.58,32.99l0,4.39l-3.49,5.84v-7.3
			l0.03-0.01l1.43-1.49L42.58,32.99z M4.5,4.5v7.12l9.82-2.88h13.36l9.4,2.88l0.14-0.05l4.63,3.27L42,15.13l-1.46,0.16v1.17
			l-3.46-1.82l-9.4-2.15H14.32L4.5,14.64v7.1l9.82-0.37h13.36l9.4,0.37l0.07-0.03l4.53,0.42L42,22.2l-1.46,0.02v2.08L42,24.32
			l-0.31,0.15l-4.39,0.37l-0.21-0.1l-9.4,0.38H14.32v-0.01L4.5,24.75v7.11l9.82,2.15l13.36,0l9.43-2.14l0.11-0.23l3.12-1.66
			l0.19,0.08v1.18L42,31.39l-0.2,0.32l-4.56,3.22l-0.13-0.05l-9.43,2.89H14.32L4.5,34.88V42L0,36.31v-4.97l0.06,0.05l1.4-0.15v-1.21
			L0,29.24v-4.95l0.23,0.02l1.23-0.02v-2.08L0.04,22.2L0,22.2v-4.95l1.46-0.77v-1.19l-1.42-0.15L0,15.17v-4.97L4.5,4.5z M6,26.31
			l6.82,0.25l0,0.06l2.18,0v5.88l-0.52,0L6,30.65V26.31z M27,26.62v5.88l-10.5,0v-5.88H27z M36.79,26.26l0.25,0.11l0.47-0.04v3.46
			l-1.41,0.75l-0.01,0.02l-7.57,1.72l0-5.69L36.79,26.26z M42.58,25.7v4.23l-0.54-0.06l0-0.86l-1.79-0.7l-1.16,0.62v-2.74l3-0.25
			L42.58,25.7z M39.09,17.4l2.95,1.55l0-1.54l0.54,0.41l0,2.97L42,20.67l-0.18-0.03l-2.73-0.25V17.4z M28.5,14.22l8.05,1.85
			l0.95,0.5v3.68l-0.63-0.06l-0.1,0.05l-8.26-0.33L28.5,14.22z M15,13.99l0,5.89l-0.68,0L6,20.19v-4.34l8.48-1.86L15,13.99z
			 M27,13.99v5.89H16.5v-5.89H27z M39.09,4.76l3.49,5.84l0,2.92l-3.49-2.46L39.09,4.76z M29.1,0l8.23,4.76l0.16,0.23v4.95
			l-0.02-0.02l-0.41,0.13L28.5,7.42l0-7.42H29.1z M15,0l0,7.24l-0.89,0L6,9.61V4.16L14.4,0H15z M27,0v7.24H16.5V0H27z"/>
	</g>
</g>
</svg>
