<?xml version="1.0" encoding="utf-8"?>
<!-- Generator: Adobe Illustrator 23.0.1, SVG Export Plug-In . SVG Version: 6.00 Build 0)  -->
<svg version="1.1" id="Layer_1" xmlns="http://www.w3.org/2000/svg" xmlns:xlink="http://www.w3.org/1999/xlink" x="0px" y="0px"
	 viewBox="0 0 37 55" style="enable-background:new 0 0 37 55;" xml:space="preserve">
<style type="text/css">
	.st0{fill:#FFFFFF;}
</style>
<g id="Page-1">
	<g id="ic-technology-firebase">
		<path id="Combined-Shape" class="st0" d="M29.86,15.33c0.65-0.65,1.58-0.27,1.73,0.63l0,0l4.7,28.95l-16.46,9.18
			c-1.03,0.58-2.29,0.58-3.33,0l0,0L0.19,44.97L29.86,15.33z M19.09,10.54l0.09,0.15l4.57,8.7l-4.78,5.2L0.64,42.84l-0.5,0.2
			L0,43.18l14.62-27.94l2.63-4.64C17.66,9.82,18.61,9.85,19.09,10.54z M6.26,0.98c0.17-1.1,1.5-1.35,2.03-0.37l0,0l6.3,11.91
			L0.41,39.41l-0.23,0.45L6.26,0.98z"/>
	</g>
</g>
</svg>
