<?xml version="1.0" encoding="utf-8"?>
<!-- Generator: Adobe Illustrator 23.0.1, SVG Export Plug-In . SVG Version: 6.00 Build 0)  -->
<svg version="1.1" id="Layer_1" xmlns="http://www.w3.org/2000/svg" xmlns:xlink="http://www.w3.org/1999/xlink" x="0px" y="0px"
	 viewBox="0 0 48 39" style="enable-background:new 0 0 48 39;" xml:space="preserve">
<style type="text/css">
	.st0{fill:#FFFFFF;}
</style>
<g id="Page-1">
	<g id="ic-technology-google-cloud">
		<path id="Combined-Shape" class="st0" d="M9.83,6.34c6.85-7.76,18.7-8.5,26.47-1.65l0,0l-0.01,0.1l0.08-0.08
			c2.62,2.33,4.54,5.34,5.54,8.69l0.13,0.44c4.95,3.35,7.12,9.54,5.35,15.25c-1.77,5.71-7.08,9.58-13.05,9.53l0,0H23.91l-0.06-0.06
			l-10.38,0c-2.82,0.01-5.58-0.86-7.87-2.49l-0.31-0.23l0.01-0.06L5.29,35.8c-4.5-3.46-6.36-9.35-4.69-14.75l0.1-0.32
			c0.99-2.93,2.91-5.36,5.37-6.98l-0.12,0.03l0,0l-0.18,0.06C6.54,11.06,7.92,8.5,9.83,6.34z M30.48,10.64
			c-4.28-3.47-10.53-2.99-14.24,1.08c-0.04-0.01-0.08,0.01-0.12,0.03l0.29,0.06c3.1,0.68,5.9,2.43,7.87,5l0,0l-6.05,6.05
			c-0.52-1.15-1.45-2.08-2.6-2.6c-2.62-1.18-5.71-0.02-6.89,2.6s-0.02,5.71,2.6,6.89l0,0c0.67,0.31,1.4,0.47,2.14,0.47l0,0H23.9
			l0,0.07l0.01-0.01h10.42c2.88,0,5.21-2.33,5.21-5.21c0-2.88-2.33-5.21-5.21-5.21l0,0v-1.04c0.06-3.19-1.35-6.24-3.82-8.26
			l0.09,0.07L30.48,10.64z"/>
	</g>
</g>
</svg>
