<?xml version="1.0" encoding="utf-8"?>
<!-- Generator: Adobe Illustrator 23.0.1, SVG Export Plug-In . SVG Version: 6.00 Build 0)  -->
<svg version="1.1" id="Layer_1" xmlns="http://www.w3.org/2000/svg" xmlns:xlink="http://www.w3.org/1999/xlink" x="0px" y="0px"
	 viewBox="0 0 54 39" style="enable-background:new 0 0 54 39;" xml:space="preserve">
<style type="text/css">
	.st0{fill:#FFFFFF;}
</style>
<g id="Page-1">
	<g id="ic-technology-gradle">
		<path id="Shape" class="st0" d="M39.17,2.25c3.37-3.08,8.64-2.99,11.9,0.2c3.18,3.13,6.79,11.76-6.95,21.82
			c-3.97,2.91-5.36,8.71-5.44,13.75c-0.01,0.43-0.37,0.78-0.81,0.78l0,0H34.2c-0.41,0-0.75-0.3-0.8-0.7
			c-0.36-2.72-2.73-4.75-5.53-4.75s-5.17,2.03-5.53,4.75c-0.05,0.4-0.4,0.7-0.8,0.7l0,0h-3.7c-0.41,0-0.76-0.3-0.81-0.7
			c-0.35-2.73-2.72-4.77-5.52-4.77s-5.17,2.04-5.52,4.77c-0.05,0.4-0.4,0.7-0.8,0.7l0,0h-3.8c-0.39,0-0.72-0.27-0.8-0.65
			c-2.09-10.84,1.8-19.38,8.21-23.81l0,0L12.12,20c0.81,1.35,2.29,2.18,3.88,2.18c0.76,0,1.51-0.19,2.17-0.56l0,0l1.57-0.85h0.05
			c1.84-1.11,3.58-2.37,5.19-3.77c0.17-0.16,0.27-0.38,0.27-0.61c0-0.24-0.11-0.46-0.31-0.61l0,0l-0.1-0.07
			c-0.32-0.2-0.73-0.17-1.03,0.07c-1.53,1.34-3.18,2.54-4.93,3.6l0,0l-1.57,0.86l0.07-0.05l-0.09,0.05
			c-1.33,0.73-3.02,0.27-3.79-1.02l0,0l-3.53-5.98c-0.39-0.67-0.47-1.46-0.24-2.19s0.77-1.33,1.48-1.65
			c20.59-9.59,29.66,9.05,36.46,2.4c1.41-1.37,1.83-3.44,1.07-5.24C48,4.76,46.21,3.6,44.22,3.6c-1.06,0-2.09,0.33-2.94,0.96
			c-0.32,0.24-0.78,0.21-1.07-0.07l0,0l-1.07-1.08c-0.15-0.16-0.24-0.36-0.24-0.58C38.91,2.61,39.01,2.4,39.17,2.25z M37.58,15.72
			c-0.32-0.69-1.09-1.08-1.85-0.91s-1.3,0.82-1.3,1.58l0,0l2.62,1.29C37.68,17.23,37.9,16.42,37.58,15.72z"/>
	</g>
</g>
</svg>
