<?xml version="1.0" encoding="utf-8"?>
<!-- Generator: Adobe Illustrator 21.1.0, SVG Export Plug-In . SVG Version: 6.00 Build 0)  -->
<svg version="1.1" id="Layer_1" xmlns="http://www.w3.org/2000/svg" xmlns:xlink="http://www.w3.org/1999/xlink" x="0px" y="0px"
	 viewBox="0 0 48 48" enable-background="new 0 0 48 48" xml:space="preserve">
<g id="Page-1">
	<g id="ic-technology-ionic">
		<path id="Combined-Shape" fill="#FFFFFF" d="M24,0c3.8,0,7.6,0.9,11,2.7l0,0l0.4,0.2l-0.4,0.3c-1,0.8-1.7,1.8-2.2,2.9l0,0
			l-0.1,0.3l-0.3-0.1c-8.5-4.1-18.8-1.4-24.3,6.2s-4.8,18.2,1.7,25s17,8.1,24.9,2.9s11-15.2,7.4-24l0,0L42,16.2l0.3-0.1
			c1.2-0.4,2.2-1.1,3-2.1l0,0l0.3-0.4l0.2,0.5l0,0c4.4,9.7,1.9,21.1-6.1,28.1S20,49.9,11,44.2S-2,27.5,1,17.2S13.3,0,24,0z M24,13.1
			c6,0,10.9,4.9,10.9,10.9c0,6-4.9,10.9-10.9,10.9S13.1,30.1,13.1,24S18,13.1,24,13.1z M39.7,4.1c2.8,0,5,2.2,5,5s-2.2,5-5,5
			s-5-2.2-5-5S37,4.1,39.7,4.1z"/>
	</g>
</g>
</svg>
