<?xml version="1.0" encoding="utf-8"?>
<!-- Generator: Adobe Illustrator 23.0.1, SVG Export Plug-In . SVG Version: 6.00 Build 0)  -->
<svg version="1.1" id="Layer_1" xmlns="http://www.w3.org/2000/svg" xmlns:xlink="http://www.w3.org/1999/xlink" x="0px" y="0px"
	 viewBox="0 0 41 54" style="enable-background:new 0 0 41 54;" xml:space="preserve">
<style type="text/css">
	.st0{fill:#FFFFFF;}
</style>
<g id="Page-1">
	<g id="ic-technology-java">
		<path id="Combined-Shape" class="st0" d="M40.09,48.82c-0.36,4.59-15.39,5.56-25.18,4.94c-6.43-0.41-7.68-1.44-7.68-1.44
			c6.11,1,16.42,1.18,24.77-0.38C39.41,50.56,40.09,48.82,40.09,48.82z M8.71,45.92c0,0-0.68-0.05-1.87,0.21
			c-1.14,0.24-4.78,1.41-2.84,2.24c5.39,2.33,24.82,1.77,30.96-0.07c3.23-0.97,1.69-2.23,1.69-2.23c5.63,2.52-12.23,7.58-33.92,4.09
			C-5.23,48.88,6.55,44.41,8.71,45.92z M14.39,43.3c4.31,0.49,6.51,0.42,11.26-0.47c0,0,1.25,0.78,2.99,1.45
			c-10.54,4.48-23.82-0.17-15.97-2.51l0.24-0.07C12.91,41.7,10.84,42.9,14.39,43.3z M11.61,35.8c0,0-2.33,1.71,1.23,2.08
			c4.6,0.47,8.23,0.51,14.53-0.69l0.02,0.02c0.15,0.14,0.97,0.9,2.21,1.33C16.73,42.27,2.41,38.83,11.61,35.8z M31.43,39.77
			c0,0,0.16-0.14,0.2-0.27c10.2-5.26,5.48-10.31,2.19-9.63c-0.8,0.17-1.17,0.31-1.17,0.31s0.3-0.47,0.87-0.67
			C40.04,27.26,45.05,36.22,31.43,39.77z M13.91,29.68l-0.02,0c-0.44,0.1-9.71,2.34-3.48,3.17c2.69,0.36,8.06,0.28,13.07-0.14
			c4.09-0.34,8.19-1.07,8.19-1.07s-1.44,0.61-2.48,1.32c-10.03,2.62-29.41,1.4-23.83-1.28C10.07,29.42,13.91,29.68,13.91,29.68z
			 M32.29,11.01c-11.85,6.82-9.67,8.8-6.81,12.78c3.06,4.27-3.6,7.68-3.6,7.68s3.31-2.69,0.69-5.69
			C13.69,15.62,32.29,11.02,32.29,11.01z M25.49,0l0.02,0.02c0.4,0.43,5.19,5.93-5.38,14.2c-8.83,6.91-2.01,10.86,0,15.36
			c-5.15-4.61-8.93-8.67-6.4-12.45C17.45,11.59,27.76,8.9,25.49,0z"/>
	</g>
</g>
</svg>
