<?xml version="1.0" encoding="utf-8"?>
<!-- Generator: Adobe Illustrator 23.0.1, SVG Export Plug-In . SVG Version: 6.00 Build 0)  -->
<svg version="1.1" id="Layer_1" xmlns="http://www.w3.org/2000/svg" xmlns:xlink="http://www.w3.org/1999/xlink" x="0px" y="0px"
	 viewBox="0 0 40 54" style="enable-background:new 0 0 40 54;" xml:space="preserve">
<style type="text/css">
	.st0{fill:#FFFFFF;}
</style>
<g id="Page-1">
	<g id="ic-technology-jenkins">
		<path id="Combined-Shape" class="st0" d="M27.87,1.82c1.16,0.87,3.01,2.72,3.67,4.06c0.76,1.52,1.16,3.49,1.28,5.58
			c0.18,0.17,0.35,0.34,0.52,0.51c3.53,3.61,5.71,8.6,5.71,14.12c0,3.7-0.99,7.18-2.71,10.15c0.43,0.19,0.8,0.52,1.05,1.06
			c0.41,0.87,0.89,2.32,1.08,3.22c0.29,1.25-0.32,3.91-1.62,4.32c-1.15,0.37-2.48,0.35-3.85,0.08c-0.17-0.14-0.34-0.37-0.47-0.61
			c-0.98-0.03-1.91,0.05-2.67,0.46c0.08,0.73-0.41,0.84-0.89,0.99c-0.34,1.36,0.69,3.13,0.44,4.35c-0.17,0.89-1.25,1.02-2.05,1.18
			c-0.03,0.49,0.03,0.9,0.09,1.31c-0.18,0.67-0.99,1.05-1.77,1.15c-2.55,0.31-6.42,0.44-8.86-0.44c-0.69-1.68-1.22-3.71-1.79-5.62
			c-2.38,0.26-4.32-1.02-6.14-1.88c-0.63-0.29-1.5-0.46-1.74-0.96c-0.23-0.49-0.14-1.42-0.2-2.29c-0.03-0.43-0.05-0.85-0.08-1.28
			c-0.4-0.35-0.79-0.71-1.16-1.09C2.19,36.59,0,31.6,0,26.1s2.19-10.5,5.71-14.12c0.45-0.46,0.92-0.89,1.4-1.3
			c0.07-1.95,0.6-3.56,1.97-4.17c0.64-2.55,2.93-3.39,5.09-4.66c0.81-0.47,1.7-0.78,2.61-1.12C20.08-0.47,25.13-0.24,27.87,1.82z
			 M14.84,39.62c0.5,4.6,1.22,8.45,2.55,12.53c2.95,0.9,6.49,0.98,9.11,0.17c-0.47-2.29-0.28-5.09-0.55-7.55
			c-0.21-1.85-0.11-3.7-0.4-5.58C22.38,38.53,17.92,39.04,14.84,39.62z M26.63,46.1c-0.05,1.15,0.11,2.96,0.17,4.17
			c0.76,0,1.08-0.17,1.65-0.35c0.06-1.41-0.44-2.7-0.6-3.99C27.55,45.82,27,46.11,26.63,46.1z M11.9,25.82
			c-2.4,0.95-4.64,2.58-6.65,4.14c1.91,4.11,2.69,9.14,2.83,13.98c2.19,1.02,4.11,2.51,7.09,2.66c-0.35-2.43-0.66-4.61-0.86-6.91
			c-0.75-0.32-1.82,0.02-2.52-0.09c0-0.84,1.07-0.37,1.16-0.93c0.06-0.43-0.6-0.46-0.38-1.13c0.55,0.2,0.84,0.64,1.42,0.81
			c0.53-1.16,0-3.22,0.08-4.2c0.02-0.18,0.09-1.01,0.5-0.87c0.37,0.12-0.02,2.22,0.02,3.13c0.03,0.86-0.11,1.67,0.24,2.2
			c2.87-0.4,5.79-0.64,8.91-0.73c-0.69-0.29-1.5-0.57-2.38-1.07c-0.49-0.28-2-0.84-2.14-1.3c-0.23-0.73,0.58-1.12,0.72-1.74
			c-1.45,0.79-1.73-0.76-2.08-1.85c-0.31-0.99-0.49-1.74-0.57-2.31c-1.27-0.64-2.61-1.24-3.68-2C13.41,27.47,12.09,25.75,11.9,25.82
			z M27.84,39.04c-0.53,0.02-1.01,0-1.54,0.18c-0.03,1.97,0.09,3.93,0.24,5.9c0.76-0.11,1.27-0.18,1.97-0.35
			C28.28,42.87,28.31,40.72,27.84,39.04z M34.71,37.16c-1.05,0.67-2.9,0.87-3.67,1.68c0.38,1.28,0.5,3.03,0.66,4.64
			c1.31,0.08,2.92-0.37,4.02,0.11c-0.76,0.24-1.74,0.24-2.4,0.61c0.55,0.26,1.8,0.21,2.63,0.02c1.13-0.28,1.83-1.65,1.51-3.07
			c-0.21-0.95-0.58-2.75-0.99-3.36C36.18,37.34,35.37,36.75,34.71,37.16z M29.01,38.9c0.17,1.6,0.55,3.38,0.69,5.07
			c0.53,0.02,0.83-0.24,1.27-0.32c0.03-1.48-0.12-3.53-0.84-4.75C29.76,38.82,29.35,38.9,29.01,38.9z M35.95,41.79
			c-1.02,0.02-2.29,0-3.27-0.08C33.26,41.09,35.29,41.48,35.95,41.79z M35.63,40.28c-0.92,0.09-1.99,0.24-2.9,0.17
			C33.17,39.77,34.85,40.02,35.63,40.28z M35.14,38.53c-1.12,0.23-1.89,1.31-2.99,1.24C32.76,38.93,33.8,38.56,35.14,38.53z
			 M7.22,12.16l0.31-0.28c-0.34,0.3-0.66,0.61-0.98,0.93c-3.32,3.41-5.38,8.1-5.38,13.29s2.06,9.89,5.38,13.29l0.17,0.17
			c-0.12-1.22-0.31-2.44-0.63-3.7c-0.26-1.04-0.73-1.94-1.05-2.93c-0.31-0.92-0.83-2.06-0.96-2.98c-0.2-1.36,1.08-1.44,1.89-2.03
			c1.27-0.92,2.26-1.42,3.64-2.25c0.41-0.24,1.63-0.86,1.77-1.15c0.28-0.57-0.47-1.36-0.67-1.8c-0.32-0.7-0.49-1.3-0.53-1.99
			c-1.15-0.18-2.03-0.87-2.55-1.63c-0.87-1.28-1.48-3.65-0.72-5.44c0.06-0.14,0.35-0.43,0.4-0.64C7.36,12.76,7.29,12.46,7.22,12.16z
			 M29.49,24.77c-0.32,0.5-1.05,0.84-1.33,1.25c2-0.96,2.37,3.62,1.57,5.1c0.12,0.44,0.53,0.61,0.7,1.01c-1.12,2-2.35,3.87-3.5,5.84
			c0.84-0.53,2.06-0.09,3.06-0.49c0.37-0.14,0.63-0.98,0.9-1.65c0.76-1.83,1.56-4.16,1.91-5.9c0.08-0.4,0.31-1.27,0.24-1.62
			c-0.09-0.64-0.95-1.12-1.39-1.5C30.85,26.08,30.34,25.46,29.49,24.77z M22.78,32.07c-1.15,0.76-2.4,1.5-2.73,2.89
			c1.65,0.93,3.56,1.83,5.42,2.4C24.68,35.49,23.96,33.57,22.78,32.07z M27.43,31.6c-0.08,1.86-0.29,4.31-0.78,5.76
			c1.18-1.51,2.14-3.25,3.13-4.97C29.35,31.7,28.46,31.11,27.43,31.6z M32.85,13.18l-0.01,0.41c-0.07,2.1-0.39,4.22-0.91,6.05
			c-0.17,0.58-0.4,1.42-0.73,2.12c-0.23,0.49-0.95,1.45-0.87,1.88c0.09,0.44,1.65,1.62,1.99,1.94c0.6,0.58,1.74,1.34,1.83,2.08
			c0.11,0.78-0.34,1.85-0.57,2.6c-0.73,2.51-1.47,4.81-2.31,7.06c1.01-0.5,2.51-1.19,3.81-1.26l-0.1,0.17
			c1.83-2.92,2.89-6.39,2.89-10.12C37.88,21.09,35.96,16.55,32.85,13.18z M25.21,30.82L25.21,30.82c-0.44-0.05-0.83,0.52-1.41,0.28
			c-0.14,0.15-0.26,0.31-0.4,0.46c1.28,1.56,1.88,3.76,2.87,5.58c0.53-1.76,0.47-3.67,0.6-5.58C26.14,31.58,25.73,30.86,25.21,30.82
			z M25.91,33.81c0.23,0,0.4,0.17,0.4,0.4c0,0.21-0.18,0.4-0.4,0.4c-0.21,0-0.4-0.18-0.4-0.4C25.52,34,25.7,33.81,25.91,33.81z
			 M17.95,30.02c0.05,0.89,0.5,1.82,0.7,2.41c0.09,0.28,0.12,0.57,0.35,0.63c0.41,0.09,1.79-0.44,2.17-0.66
			c0.83-0.44,1.47-1.16,2.17-1.65l0.03-0.7c-0.43-0.21-0.9-0.35-1.53-0.38c0.41-0.21,1.04-0.21,1.42-0.46c0-0.09,0-0.18,0.02-0.28
			c-0.7-0.08-0.96-0.38-1.44-0.64c-0.75-0.41-1.88-0.86-2.86-1.04C17.78,27.03,17.91,28.91,17.95,30.02z M25.52,31.96
			c0.23,0,0.4,0.18,0.4,0.4c0,0.21-0.18,0.4-0.4,0.4c-0.21,0-0.4-0.18-0.4-0.4C25.12,32.15,25.3,31.96,25.52,31.96z M18.92,27.61
			c0.88,0.16,1.97,0.57,2.75,1l0.39,0.25l0.2,0.12l0.18,0.1l-0.03,0.01c-0.35,0.08-0.53,0.13-0.73,0.23l-1.28,0.64l1.43,0.07
			l0.3,0.03c0.19,0.02,0.38,0.06,0.56,0.12l0.3,0.11l-0.01,0.26l-0.2,0.15l-0.55,0.46l-0.13,0.11c-0.47,0.39-0.77,0.62-1.1,0.8
			c-0.48,0.26-1.49,0.61-1.82,0.63l-0.06,0c0.01,0,0.01-0.01,0.01-0.01l-0.11-0.37l-0.31-0.83c-0.17-0.45-0.28-0.81-0.33-1.15
			l-0.02-0.17l-0.02-0.35c-0.01-0.28-0.02-0.47-0.02-0.65l0-0.14c0.01-0.52,0.06-0.91,0.17-1.16
			C18.57,27.63,18.69,27.57,18.92,27.61z M25.55,28.34c0.08,0.21,0.2,0.38,0.21,0.66c0.41-0.11,0.9-0.03,1.25,0.14
			c-0.41,0.05-0.86,0.05-1.13,0.24c-0.09,0.29,0.03,0.67-0.05,1.07c0.96,0.28,2.08,0.41,3.3,0.46c0.23-0.31,0.32-0.89,0.29-1.48
			c-0.03-0.7-0.21-2.15-0.66-2.41C27.85,26.48,26.23,28.1,25.55,28.34z M28.58,27.36c0.2,0.12,0.43,1.17,0.47,2.1l0.01,0.23
			c0,0.3-0.04,0.57-0.11,0.77l-0.03,0.08l-0.27-0.01c-0.83-0.05-1.6-0.15-2.29-0.32l-0.12-0.03l-0.02-0.48l0-0.06l0.08-0.02
			c0.06-0.01,0.13-0.03,0.21-0.04l0.55-0.06l1.31-0.15l-1.19-0.57l-0.2-0.08c-0.28-0.1-0.59-0.15-0.89-0.14l-0.04,0l-0.02-0.06
			l0.22-0.13l0.64-0.43l0.33-0.21c0.1-0.06,0.2-0.12,0.29-0.17C28.02,27.31,28.38,27.24,28.58,27.36z M23.79,28.94
			c-0.05,0.53,0.08,0.7,0.18,1.31C25.71,30.8,25.42,27.85,23.79,28.94z M24.81,29.46l0,0.12c-0.01,0.26-0.16,0.43-0.45,0.42
			l-0.06-0.01l-0.12-0.52l-0.02-0.16l-0.01-0.14l0.09-0.04C24.59,28.98,24.77,29.13,24.81,29.46z M14.67,27
			c-0.63,0.64,1.76,1.5,2.51,1.54c0-0.4,0.23-0.78,0.18-1.07C16.46,27.32,15.28,27.43,14.67,27z M26.22,26.97
			c-1.19,0.11-2.69,0.84-3.85,0.32c0,0.06-0.08,0.05-0.09,0.09c0.81,0.63,1.41,0.76,2.49,0.7C25.26,27.73,25.7,27.3,26.22,26.97z
			 M18.67,1.74c-1.93,0.96-4.52,2.55-5.41,4.55c0.83,1.94-0.24,3.71-0.32,5.68c-0.03,1.05,0.49,1.96,0.53,3.1
			c-0.29,0.47-1.15,0.52-1.74,0.49c-0.2-1.01-0.55-2.14-1.59-2.26c-1.47-0.17-2.55,1.05-2.61,2.32c-0.08,1.5,1.15,3.97,2.89,3.8
			c0.67-0.06,0.84-0.73,1.57-0.73c0.4,0.79-0.61,1.04-0.72,1.6c-0.03,0.15,0.08,0.72,0.15,0.99c0.32,1.3,1.02,2.99,1.71,3.99
			c0.89,1.27,2.61,1.45,4.48,1.57c0.34-0.72,1.56-0.66,2.35-0.47c-0.96-0.38-1.85-1.3-2.58-2.11c-0.84-0.93-1.7-1.93-1.74-3.15
			c1.6,2.22,2.92,4.16,5.82,5.13c2.2,0.73,4.77-0.34,6.46-1.53c0.7-0.49,1.12-1.28,1.62-1.99c1.86-2.69,2.73-6.51,2.55-10.22
			c-0.08-1.53-0.08-3.06-0.6-4.08c-0.53-1.07-2.35-2.05-3.42-1.07c-0.2-1.05,0.89-1.7,2.15-1.31c-0.9-1.18-1.85-2.57-3.15-3.3
			C24.84,1.5,21.05,0.55,18.67,1.74z M21.31,20.61c0.86,2.14,3.77,1.89,6.23,1.83c-0.11,0.28-0.34,0.61-0.64,0.72
			c-0.79,0.32-2.96,0.57-4.06-0.02c-0.69-0.37-1.15-1.21-1.53-1.7C21.15,21.22,20.23,20.63,21.31,20.61z M21.54,19.42
			c1.22,0.64,3.48,0.72,5.16,0.67c0.09,0.37,0.09,0.83,0.09,1.27C24.65,21.45,22.11,20.92,21.54,19.42z M30.77,18.61
			c-0.66,1.25-1.59,2.63-3.51,2.67c-0.05-0.4-0.08-1.02,0-1.27C28.74,19.86,29.66,19.11,30.77,18.61z M26.45,11.29
			c0.57,1.31,1.99,3.01,3.01,4.14c0.26,0.28,0.67,0.55,0.72,0.73c0.12,0.47-0.26,1.03-0.29,1.4l0,0.11c-1.41,0.9-2.98,1.89-5.3,1.67
			c-0.49-0.43-0.69-1.39-0.2-2.02c0.24,0.43,0.09,1.22,0.79,1.34c1.31,0.23,2.84-0.81,3.79-1.16c0.58-0.99-0.05-1.34-0.58-1.99
			c-1.08-1.3-2.52-2.92-2.48-4.86C26.36,10.34,26.39,11.15,26.45,11.29z M11.3,16.58l-0.03,0.15c-0.44-0.26-0.55-1.36-1.07-1.39
			c-0.75-0.05-0.61,1.44-0.61,2.31c-0.5-0.46-0.6-1.89-0.23-2.63c-0.43-0.21-0.61,0.23-0.86,0.38C8.82,13.23,11.64,14.33,11.3,16.58
			z M12.61,6.59c-1.48,0.12-2.69,0.72-3.56,1.7C8.1,9.34,8.3,11.29,8.4,12.7c1.73-1.08,4,0.09,3.99,1.93
			c0.83-0.02,0.31-1.02,0.15-1.68C12.06,10.82,13.37,8.53,12.61,6.59z M21.65,9.82c0.43,0.78,0.57,1.59,1.16,2.17
			c0.28,0.26,0.79,0.58,0.53,1.31c-0.06,0.17-0.5,0.55-0.76,0.63c-0.93,0.28-3.12,0.06-2.38-1.12c0.78,0.03,1.82,0.5,2.4-0.06
			C22.15,12.06,21.36,10.65,21.65,9.82z M30.33,9.79c0.44,0.92,0.83,1.89,1.39,2.72c-0.38,0.89-2.84,1.65-2.81,0.09
			c0.53-0.23,1.45-0.05,1.93-0.35c-0.28-0.75-0.66-1.39-0.6-2.46v0H30.33z M19.86,6.42c0.49,0.06,1.16,0.52,0.79,1.15
			c-1.97-0.46-2.95,0.83-3.54,2.15c-0.53-0.12-0.32-0.86-0.18-1.22C17.28,7.53,18.7,6.23,19.86,6.42z M15.86,2.19
			c-2.15,0.61-4.92,2.18-5.81,4.13c0.69-0.11,1.16-0.44,1.83-0.49c0.26-0.02,0.6,0.11,0.89,0.03c0.58-0.15,1.08-1.47,1.53-1.96
			c0.43-0.47,0.95-0.69,1.3-1.12c0.23-0.11,0.57-0.11,0.58-0.44C16.09,2.23,15.98,2.15,15.86,2.19z"/>
	</g>
</g>
</svg>
