<?xml version="1.0" encoding="utf-8"?>
<!-- Generator: Adobe Illustrator 23.0.1, SVG Export Plug-In . SVG Version: 6.00 Build 0)  -->
<svg version="1.1" id="Layer_1" xmlns="http://www.w3.org/2000/svg" xmlns:xlink="http://www.w3.org/1999/xlink" x="0px" y="0px"
	 viewBox="0 0 47 47" style="enable-background:new 0 0 47 47;" xml:space="preserve">
<style type="text/css">
	.st0{fill:#FFFFFF;}
</style>
<g id="Page-1">
	<g id="ic-technology-joomla">
		<path id="Combined-Shape" class="st0" d="M28.6,14.38l4.49,4.48l4.61,4.6l0.9,0.9c2.56,2.55,3.6,6.24,2.74,9.74
			c3.08,0.44,5.37,3.07,5.37,6.17c0,3.44-2.8,6.22-6.25,6.23c-2.97,0-5.53-2.08-6.12-4.98c-3.66,1.12-7.64,0.14-10.35-2.55l0,0h0.01
			l4.61-4.6c1.5,1.48,3.91,1.47,5.4-0.01c1.49-1.5,1.49-3.91-0.01-5.4l0,0l-0.9-0.9l-4.61-4.6l-4.5-4.49L28.6,14.38L28.6,14.38z
			 M7.5,24.37l4.61,4.6c-1.48,1.5-1.47,3.9,0.01,5.38c0.72,0.72,1.69,1.12,2.71,1.12s1.99-0.4,2.72-1.12l0,0l0.9-0.9l4.61-4.59
			l4.5-4.49l4.61,4.6l-4.5,4.48l-4.61,4.6l-0.91,0.9c-2.57,2.56-6.3,3.59-9.82,2.72c-0.66,2.82-3.18,4.82-6.09,4.83
			C2.8,46.49,0,43.7,0,40.27c0-2.89,1.99-5.39,4.81-6.06C3.9,30.69,4.93,26.95,7.5,24.37L7.5,24.37z M6.31,0
			c3.06,0,5.67,2.21,6.17,5.22c3.48-0.82,7.14,0.22,9.67,2.73l0,0l-4.61,4.6c-1.5-1.47-3.91-1.47-5.4,0.02
			c-1.5,1.49-1.5,3.91-0.01,5.41l0,0l0.91,0.9l4.61,4.59l4.51,4.49h-0.01l-4.61,4.59l-4.51-4.48l-4.61-4.6l-0.9-0.89
			c-2.69-2.69-3.69-6.63-2.59-10.26C2.14,11.68,0.06,9.2,0.06,6.23c0-1.65,0.66-3.23,1.83-4.4S4.65,0,6.31,0z M40.4,0
			c3.45,0,6.25,2.79,6.25,6.23c0,3.12-2.31,5.76-5.42,6.18c1.04,3.6,0.04,7.48-2.62,10.14l0,0L34,17.96c1.49-1.5,1.49-3.91-0.01-5.4
			s-3.92-1.48-5.42,0.01l0,0l-0.9,0.9l-4.61,4.59l-4.51,4.49l-4.61-4.6l4.51-4.49l5.51-5.49c2.68-2.67,6.61-3.67,10.25-2.61
			C34.64,2.29,37.28,0,40.4,0z"/>
	</g>
</g>
</svg>
