<?xml version="1.0" encoding="utf-8"?>
<!-- Generator: Adobe Illustrator 23.0.1, SVG Export Plug-In . SVG Version: 6.00 Build 0)  -->
<svg version="1.1" id="Layer_1" xmlns="http://www.w3.org/2000/svg" xmlns:xlink="http://www.w3.org/1999/xlink" x="0px" y="0px"
	 viewBox="0 0 18 40" style="enable-background:new 0 0 18 40;" xml:space="preserve">
<style type="text/css">
	.st0{fill:#FFFFFF;}
</style>
<g id="Page-1">
	<g id="ic-technology-mango-db">
		<path id="Shape-Copy-10" class="st0" d="M17.92,17.74c-0.12-1.61-0.5-3.17-1.03-4.69c-1.09-3.4-2.85-6.41-5.32-9
			C10.95,3.4,10.26,2.8,9.82,1.99C9.55,1.47,9.28,0.95,9.01,0.43L8.84,0C8.82,0.1,8.8,0.13,8.8,0.17c-0.02,0.85-0.5,1.42-1.1,1.96
			c-0.67,0.6-1.3,1.26-1.95,1.89C5.09,4.89,4.42,5.76,3.76,6.63C3.23,7.61,2.69,8.6,2.15,9.58l-1.07,2.9l-0.03,0.05
			c-0.59,1.94-0.88,3.94-1.03,5.95c-0.05,0.76,0.01,1.53,0.05,2.29c0.06,1.09,0.25,2.16,0.53,3.21c1.03,3.83,3.12,7,5.99,9.7
			c0.53,0.5,1.08,0.96,1.63,1.43c0.1-0.32,0.17-0.65,0.26-0.97c0.09-0.32,0.17-0.64,0.23-0.97c-0.06,0.32-0.12,0.65-0.19,0.97
			L8.25,35.1l0.25,0.84l0.23,1.31l0.11,1.36c0,0.28-0.01,0.55,0,0.83c0,0.07,0.1,0.14,0.15,0.2l0.46,0.16L9.94,40l-0.08-1.21l0-1.19
			l0.17-1.82l0.12-0.4l0.35-0.61c0.43-0.34,0.89-0.65,1.27-1.04c0.7-0.69,1.41-1.39,2.04-2.15c0.82-0.98,1.52-2.05,2.09-3.2
			c0.38-0.77,0.73-1.55,1.03-2.36c0.26-0.71,0.42-1.45,0.62-2.18c0.02-0.05,0.04-0.1,0.05-0.16C18.01,21.72,18.08,19.74,17.92,17.74
			z M9.97,34.35L9.7,33.76L9.97,34.35l0.4,0.34L9.97,34.35z"/>
	</g>
</g>
</svg>
