<?xml version="1.0" encoding="utf-8"?>
<!-- Generator: Adobe Illustrator 23.0.1, SVG Export Plug-In . SVG Version: 6.00 Build 0)  -->
<svg version="1.1" id="Layer_1" xmlns="http://www.w3.org/2000/svg" xmlns:xlink="http://www.w3.org/1999/xlink" x="0px" y="0px"
	 viewBox="0 0 50 54" style="enable-background:new 0 0 50 54;" xml:space="preserve">
<style type="text/css">
	.st0{fill:#FFFFFF;}
</style>
<g id="Page-1">
	<g id="ic-technology-ms-sql">
		<path id="Combined-Shape-Copy-9" class="st0" d="M20.07,0c0.09,0.01,0.11,0.04,0.25,0.6c0.25,0.92,0.71,2.19,1.2,3.29
			c0.62,1.42,1.69,3.53,2.66,5.23l0,0l0.17,0.29c1.77,0.27,3.95,0.65,4.94,0.84c5.26,1.04,9.42,2.44,12.64,4.23
			c2.34,1.31,4.25,2.89,5.82,4.83c0.54,0.67,0.99,1.3,1.65,2.31l0,0l0.11,0.18l-0.75,0.11c-4.83,0.74-12.12,2.5-18.71,4.45
			c0,0.06,0.01,0.15,0.03,0.25c0.2,1.17,0.34,2.36,0.41,3.83c0.05,0.9,0.02,3.56-0.03,4.35c-0.22,2.84-0.56,5.23-0.98,7.03
			c-0.71,2.97-2.03,6.44-3.85,10.14c-0.53,1.09-0.99,1.96-1.06,2c-0.03,0.02-0.84,0.02-1.44,0c-2.96-0.11-8.34-0.87-11.12-1.58
			c-1.67-0.42-3.9-1.16-5.22-1.74c-2.59-1.14-4.81-2.8-5.93-4.44C0,44.94-0.22,43.55,0.23,42.18c0.25-0.76,0.84-1.75,1.59-2.68
			c0.5-0.62,1.48-1.6,2.15-2.13c0.04-0.03,0.08-0.07,0.13-0.1L4.01,37.3c5.55-4.54,9.15-8.64,10.86-12.35
			c0.96-2.07,1.35-3.85,1.3-5.88c-0.08-3.16-0.96-5.44-2.98-7.77c-0.42-0.48-3.66-3.64-4.05-4.02L9.09,7.25
			C8.74,6.92,8.43,6.61,8.32,6.34C8.28,6.24,8.26,6.14,8.25,6.05L8.22,6.02c0-0.1,0.02-0.2,0.05-0.28l0,0L8.3,5.69
			c0.02-0.04,0.03-0.06,0.03-0.06c0,0,0,0.01,0,0.01c0.18-0.26,0.65-0.72,1.05-1c1.21-0.85,3.18-1.83,5.72-2.86
			C16.97,1.02,19.89-0.02,20.07,0L20.07,0z M26.17,48.33c-0.07,0.01-0.28,0.1-0.53,0.21c-1.62,0.75-3.21,1.37-4.83,1.86
			c-1.28,0.39-2.54,0.71-5.17,1.3l0,0l-1.22,0.28l0.2,0.04c0.86,0.2,4.29,0.79,6.33,1.1c1.17,0.17,3.1,0.44,3.24,0.45
			c0.06,0.01,0.1-0.06,0.2-0.32C24.87,52.09,26.2,48.42,26.17,48.33L26.17,48.33z M17.39,45.91c0,0.01-0.23,0.34-0.5,0.75
			c-0.98,1.49-2.15,3.06-3.33,4.46c-0.24,0.28-0.43,0.53-0.43,0.55c0,0.03,0.27,0.11,0.35,0.09c0.03-0.01,0.59-0.16,1.24-0.35
			c3.51-1.01,7.82-2.27,9.23-2.71c0.89-0.28,2.09-0.68,2.15-0.71c0.03-0.02-0.07-0.04-0.25-0.06c-1.19-0.1-3.21-0.44-4.6-0.79
			c-1.13-0.29-1.98-0.54-3.04-0.94C17.76,46.03,17.4,45.9,17.39,45.91z M15.95,45.95c-0.01-0.01-0.21,0.05-0.45,0.12
			c-1.3,0.41-3.3,0.97-6.89,1.95c-1.35,0.37-2.48,0.67-2.49,0.68c-0.07,0.02,0.75,0.54,1.41,0.89c0.52,0.28,1.23,0.6,1.91,0.87
			c0.55,0.22,2.62,0.95,2.92,1.03l0,0l0.12,0.03l0.24-0.42c0.14-0.23,0.39-0.64,0.55-0.9c0.17-0.27,0.66-1.04,1.09-1.72
			C15.38,46.89,15.96,45.95,15.95,45.95z M10.85,41.24L9.4,42.98c-2.11,2.53-3.08,3.75-3.85,4.86l0,0l-0.24,0.34l0.15,0.11
			c0.08,0.06,0.16,0.11,0.16,0.11c0.01,0,1.08-0.37,2.39-0.83c2.32-0.8,7.33-2.57,7.39-2.62c0.02-0.01-0.18-0.14-0.44-0.29
			c-1.46-0.85-2.67-1.82-3.85-3.14l0,0L10.85,41.24z M9.8,40.84c-0.01,0-0.39,0.09-0.87,0.2c-0.48,0.11-1.8,0.43-2.94,0.69
			c-2.05,0.47-4.24,0.99-4.36,1.02c-0.08,0.02-0.08,0.22,0.01,0.61C1.83,44.21,2.3,45.13,3.01,46c0.34,0.43,1.09,1.19,1.53,1.55l0,0
			l0.37,0.31l0.34-0.53c0.19-0.29,0.52-0.78,0.75-1.1c0.22-0.31,0.81-1.14,1.32-1.86C8.77,42.35,9.82,40.85,9.8,40.84z M28.51,40.2
			c-0.02,0-0.15,0.05-0.3,0.15c-1.33,0.79-5.2,2.64-8.93,4.27c-0.62,0.27-1.12,0.5-1.1,0.52c0.05,0.04,0.87,0.41,1.44,0.64
			c2.05,0.82,4.23,1.43,6.67,1.87c0.05,0.02,0.1,0.02,0.11,0.02c0.01,0,0.18-0.51,0.38-1.14c0.45-1.41,0.7-2.22,0.98-3.24
			C28.1,42.07,28.51,40.39,28.51,40.2z M20.4,37.38c-0.01,0-0.27,0.11-0.59,0.24c-2.26,0.96-4.53,1.75-7.2,2.48l0,0l-0.75,0.2
			l0.15,0.18c1.01,1.27,2.55,2.57,4.29,3.64c0.3,0.18,0.54,0.33,0.55,0.33c0.01,0,0.26-0.43,0.57-0.97c1.2-2.11,2.13-3.99,2.85-5.71
			C20.35,37.56,20.41,37.39,20.4,37.38z M21.71,36.95c-0.01,0.01-0.05,0.15-0.11,0.3c-0.52,1.62-1.56,3.95-2.58,5.86
			c-0.19,0.35-0.34,0.64-0.34,0.65c0,0.01,0.09-0.02,0.19-0.06c0.1-0.04,0.62-0.24,1.16-0.43c3.67-1.37,7.25-2.85,8.34-3.46l0,0
			l0.26-0.15l-0.19-0.04c-2.08-0.48-4.53-1.42-6.28-2.44C21.91,37.05,21.71,36.95,21.71,36.95z M8.91,34.67
			c-0.01,0-0.01,0-0.02,0.01c0,0-0.01,0-0.01,0.01c-0.39,0.2-0.77,0.41-1.15,0.62l0.44-0.24c-0.46,0.25-1.04,0.58-1.5,0.83
			c-1.16,0.66-1.85,1.18-2.7,2.06c-1.28,1.32-2.2,2.89-2.39,4.1c-0.02,0.14-0.02,0.15,0.04,0.13c0.03-0.01,0.48-0.13,0.98-0.27
			c1.71-0.47,7.13-2.05,7.19-2.1c0.01-0.01-0.12-0.29-0.29-0.62c-0.59-1.21-0.79-2.09-0.72-3.29c0.02-0.27,0.06-0.66,0.09-0.87
			C8.94,34.74,8.95,34.67,8.91,34.67L8.91,34.67z M29.25,32.26l-0.13,0.1c-0.16,0.15-0.92,0.69-1.42,1.02
			c-1.34,0.89-2.88,1.79-4.49,2.62c-0.4,0.21-0.75,0.39-0.75,0.4c-0.03,0.03,1.12,0.74,1.92,1.18c1.21,0.66,2.54,1.23,3.77,1.61
			c0.28,0.08,0.52,0.15,0.52,0.15c0.01-0.01,0.05-0.27,0.1-0.59c0.29-1.82,0.48-4.32,0.48-6.15l0,0V32.26z M15.09,31.74l-0.46,0.2
			c-1.48,0.65-2.87,1.3-4.21,1.96c-0.06,0.07-0.08,0.19-0.14,0.49c-0.14,0.69-0.16,1.8-0.04,2.44c0.12,0.65,0.35,1.35,0.63,1.9
			c0.13,0.25,0.15,0.27,0.19,0.21c0.02-0.03,0.21-0.33,0.41-0.65c1.16-1.85,2.03-3.37,2.83-4.91
			C14.65,32.69,15.01,31.95,15.09,31.74z M16.78,31.03c-0.11,0.04-0.21,0.09-0.32,0.13c-0.01,0.02-0.03,0.05-0.04,0.09
			c-0.02,0.08-0.16,0.44-0.3,0.8c-0.82,2.08-2.28,5.01-3.24,6.51c-0.21,0.34-0.24,0.38-0.16,0.35c0.46-0.15,0.92-0.3,1.39-0.45
			c1.94-0.62,3.63-1.21,5.17-1.8c1.34-0.51,1.32-0.5,1.27-0.55c-0.02-0.02-0.2-0.18-0.4-0.34c-0.61-0.51-1.34-1.3-1.89-2.04
			c-0.51-0.67-1.1-1.72-1.36-2.43c-0.05-0.15-0.11-0.28-0.12-0.29L16.78,31.03z M23.37,28.51l-0.18,0.06
			c-0.01,0.1-0.01,0.3-0.02,0.73c-0.02,1.65-0.33,3.71-0.88,5.75c-0.07,0.25-0.11,0.45-0.1,0.45c0.01,0,0.34-0.14,0.75-0.32
			c2.28-1.01,4.14-2,5.63-3.02c0.7-0.47,0.66-0.43,0.36-0.56c-0.98-0.43-3.28-1.7-4.97-2.75C23.66,28.67,23.48,28.56,23.37,28.51z
			 M22.12,28.95l-0.25,0.09l0,0l-0.6,0.22c-1.27,0.47-2.48,0.94-3.64,1.42c0.05,0.17,0.29,0.75,0.45,1.06
			c0.37,0.72,0.87,1.45,1.51,2.19c0.37,0.43,1.49,1.52,1.53,1.48c0.02-0.02,0.1-0.27,0.19-0.57c0.38-1.25,0.61-2.36,0.75-3.56
			C22.12,30.82,22.15,29.24,22.12,28.95z M19.09,25.47l-0.02,0c-0.02,0.01-0.17,0.2-0.34,0.4c-1.59,1.95-3.71,3.89-6.17,5.66
			C12.25,31.76,12,31.95,12,31.96c0,0.01,0.33-0.15,0.73-0.35c0.4-0.2,1.02-0.49,1.37-0.65c1.25-0.57,3.11-1.34,5.12-2.12l0,0
			l1.12-0.43l-0.02-0.16c-0.09-0.75-0.45-1.68-0.92-2.38C19.18,25.54,19.13,25.46,19.09,25.47L19.09,25.47z M17.82,25.78
			c-0.03-0.03-2.81,1.85-4.02,2.71c-0.45,0.32-0.51,0.38-0.82,0.78c-0.47,0.6-0.88,1.1-1.42,1.68c-0.85,0.92-0.93,1.01-0.87,0.97
			c0.02-0.02,0.25-0.16,0.49-0.31c1.94-1.23,3.51-2.48,5.09-4.1C16.92,26.87,17.85,25.81,17.82,25.78z M28.81,26.74l-0.1,0.03
			c-1.56,0.47-3.06,0.96-4.47,1.43c0.26,0.21,1.81,1.22,2.62,1.74l0.14,0.09c0.93,0.57,2.12,1.28,2.18,1.28
			c0.02,0,0.02-0.22,0.01-0.56C29.14,29.34,28.93,27.2,28.81,26.74z M26.69,20.78c-0.02-0.02-1.62,0.78-2.63,1.32
			c-1.51,0.81-3.9,2.17-4.05,2.31c-0.04,0.04-0.01,0.13,0.18,0.51c0.44,0.9,0.7,1.95,0.7,2.94c0,0.19,0.01,0.31,0.03,0.3
			c0.02-0.01,0.37-0.41,0.78-0.89c0.98-1.16,2.41-2.94,3.21-4.01C25.59,22.37,26.71,20.8,26.69,20.78z M28.41,20.35l-0.29,0.44
			c-1.43,2.13-3.35,4.32-5.51,6.31c-0.76,0.69-0.8,0.74-0.77,0.74l0.01,0c0.02,0,0.34-0.11,0.72-0.25c3.39-1.24,6.29-2.17,10.05-3.2
			l0,0l0.66-0.19l-0.1-0.11c-0.18-0.2-1.08-1.01-1.55-1.39c-0.83-0.69-1.91-1.49-2.83-2.08l0,0L28.41,20.35z M16.33,23.31
			c-0.02,0-0.1,0.18-0.16,0.42c-0.18,0.55-0.43,1.18-0.69,1.71c-0.29,0.6-0.56,1.06-1.1,1.89c-0.08,0.12-0.06,0.11,0.66-0.47
			c0.69-0.55,1.87-1.44,2.65-1.99c0.28-0.2,0.49-0.38,0.48-0.39c-0.42-0.34-0.89-0.66-1.41-0.95
			C16.54,23.41,16.35,23.31,16.33,23.31z M40.59,15.46c-0.02-0.02-1.07,0.29-2.07,0.6c-1.89,0.58-4.42,1.48-6.27,2.23
			c-1.06,0.42-2.45,1.02-2.45,1.05c0,0.01,0.07,0.07,0.16,0.14c0.09,0.07,0.36,0.29,0.61,0.49c1.3,1.08,2.4,2.28,3.32,3.65
			c0.11,0.18,0.22,0.33,0.23,0.33c0.01,0,0.28-0.34,0.61-0.75c0.32-0.41,1.29-1.63,2.15-2.71c1.63-2.04,2.35-2.98,2.85-3.68
			C40.06,16.32,40.6,15.47,40.59,15.46z M41.22,15.62l-0.01,0.02c-0.04,0.08-0.19,0.39-0.36,0.75c-1.34,2.7-2.48,4.21-4.98,6.6
			c-0.4,0.38-0.72,0.7-0.71,0.7c0.02,0,0.27-0.06,0.56-0.12c4.25-1.02,8.67-1.75,12.12-2.01c0.44-0.03,0.82-0.07,0.82-0.07
			c0.02-0.01-1.06-1.12-1.49-1.54c-1.54-1.5-3.49-2.97-5.49-4.1C41.45,15.71,41.25,15.61,41.22,15.62L41.22,15.62z M21.89,17.68
			c-0.02-0.02-1.65,1.28-2.42,1.94c-1.07,0.92-2.48,2.18-2.48,2.25c0,0.02,0.17,0.11,0.39,0.23c0.56,0.29,0.99,0.6,1.53,1.12l0,0
			l0.46,0.44l0.2-0.33c0.11-0.19,0.3-0.52,0.43-0.75c0.55-0.98,1.12-2.28,1.45-3.32C21.63,18.71,21.91,17.71,21.89,17.68z
			 M22.95,17.48c-0.02,0-0.06,0.08-0.09,0.2c-0.34,1.56-0.93,3.16-1.66,4.5c-0.22,0.4-0.23,0.43-0.2,0.43c0.01,0,0.34-0.2,0.73-0.43
			c1.38-0.83,2.7-1.56,4.24-2.33c0.48-0.24,0.88-0.44,0.87-0.45c-0.06-0.05-1.16-0.64-1.9-1.01C24.13,18.01,23.07,17.51,22.95,17.48
			z M16.65,15.43l-0.02,0c-0.01,0.01,0.02,0.2,0.04,0.43c0.26,1.79,0.3,3.56,0.11,4.93c-0.01,0.07,0,0.11,0.02,0.11
			c0.02,0,0.33-0.29,0.7-0.64c1.24-1.19,2.27-2.13,3.35-3.02c0.26-0.23,0.48-0.42,0.48-0.43c0-0.05-1.98-0.71-2.92-0.97
			c-0.62-0.17-1.76-0.44-1.78-0.42L16.65,15.43z M30.87,11.93c-0.03-0.03-1.84,0.96-2.94,1.63c-1.39,0.83-4.04,2.57-3.98,2.62
			c0.01,0.02,0.3,0.13,0.62,0.27c1.18,0.49,2.26,1.01,3.21,1.57c0.25,0.15,0.48,0.27,0.49,0.26c0.02-0.01,0.17-0.25,0.34-0.56
			c0.98-1.7,1.77-3.51,2.07-4.72C30.79,12.62,30.89,11.96,30.87,11.93z M31.49,12.03c-0.02,0-0.05,0.12-0.06,0.28
			c-0.14,1.65-0.71,3.59-1.58,5.44c-0.11,0.23-0.19,0.42-0.17,0.42c0.02,0,0.23-0.08,0.47-0.18c2.91-1.18,5.93-2.11,9.46-2.92l0,0
			l0.42-0.1l-0.6-0.27c-1.44-0.65-3.66-1.46-5.58-2.04C33.06,12.44,31.56,12.03,31.49,12.03z M21.58,10.14
			c-0.07-0.02-2.32,1.71-3.15,2.44c-0.43,0.38-1.45,1.4-1.45,1.45c0,0.02,0.57,0.19,1.26,0.38c1.22,0.34,2.65,0.76,3.53,1.04l0,0
			l0.43,0.14l0.02-0.08c0.02-0.04,0.03-0.36,0.05-0.7c0.05-1.23-0.09-2.56-0.39-3.74C21.71,10.43,21.63,10.15,21.58,10.14z
			 M22.16,10.22l-0.01,0c-0.01,0.01,0.04,0.13,0.1,0.26c0.57,1.32,0.89,2.89,0.89,4.45c0,0.29,0.01,0.52,0.02,0.52
			c0.01,0,0.36-0.23,0.78-0.51c1.6-1.06,3.21-1.94,5.37-2.91c0.55-0.25,0.72-0.34,0.67-0.36c-0.1-0.04-1.75-0.38-2.89-0.6
			c-1.53-0.29-4.9-0.87-4.93-0.85L22.16,10.22z M14.48,8.79C14.48,8.79,14.48,8.79,14.48,8.79c0.01,0.06,0.08,0.21,0.16,0.37
			c0.56,1.19,1.17,2.87,1.47,4.01c0.04,0.17,0.09,0.31,0.09,0.31s0.21-0.2,0.44-0.43c0.59-0.59,1.41-1.24,2.32-1.85
			c0.36-0.25,1.45-0.89,1.72-1.03c0.12-0.07,0.22-0.12,0.22-0.14c0-0.02-0.21-0.07-0.48-0.11c-1.6-0.27-4.1-0.74-5.49-1.05
			C14.7,8.81,14.52,8.79,14.48,8.79z M10.45,7.68c0,0.01,0.17,0.16,0.4,0.32c1.76,1.37,3.27,3.08,4.23,4.77
			c0.11,0.19,0.2,0.33,0.21,0.32c0.01,0-0.07-0.33-0.18-0.71c-0.28-1.01-1.11-3.65-1.16-3.71c-0.01,0-0.42-0.11-0.91-0.24
			c-0.36-0.09-0.72-0.19-1.08-0.29C11.47,8,11.07,7.88,10.76,7.77C10.59,7.72,10.45,7.67,10.45,7.68z M21.53,6.29
			c-0.01-0.01-0.02,0-0.03,0.02c-0.03,0.02-0.2,0.17-0.39,0.33c-0.77,0.65-1.64,1.25-2.5,1.72c-0.11,0.06-0.19,0.11-0.19,0.12
			l0.43,0.06c1.28,0.21,2.64,0.43,4.26,0.68c0-0.01-0.02-0.03-0.03-0.05c-0.21-0.32-1.08-1.97-1.36-2.58
			C21.6,6.37,21.56,6.29,21.53,6.29z M12.03,4.08l0.43,0.38c0.43,0.41,1.57,1.49,3.01,2.89l0,0l0.78,0.76
			c0.26,0.04,0.53,0.09,0.79,0.13c0.08-0.03,0.28-0.15,0.5-0.28c0.89-0.55,2.17-1.26,3.33-1.84c0.3-0.14,0.52-0.26,0.52-0.27
			c-0.01,0-0.24-0.02-0.51-0.05c-2.41-0.2-6.78-1.03-8.52-1.62l0,0L12.03,4.08z M11.7,4.33l-0.11,0.07
			c-1.18,0.83-1.88,1.65-1.89,2.2l0,0l0,0.09c0.09,0.03,0.17,0.06,0.25,0.09c0.74,0.25,1.68,0.47,2.17,0.58
			c0.67,0.14,1.57,0.31,2.38,0.45c-0.03-0.04-0.13-0.16-0.24-0.3c-0.14-0.17-0.78-0.95-1.41-1.74l0,0L11.7,4.33z M19.94,0.42
			c-0.24,0.04-3.32,1.32-4.45,1.84c-0.88,0.41-2.87,1.45-2.84,1.48c0,0.01,0.37,0.07,0.8,0.12c2.71,0.38,6.46,1.02,7.3,1.25
			c0.35,0.11,0.35,0.16,0.05-0.74c-0.4-1.19-0.66-2.3-0.8-3.44C19.98,0.65,19.95,0.43,19.94,0.42L19.94,0.42z"/>
	</g>
</g>
</svg>
