<?xml version="1.0" encoding="utf-8"?>
<!-- Generator: Adobe Illustrator 23.0.1, SVG Export Plug-In . SVG Version: 6.00 Build 0)  -->
<svg version="1.1" id="Layer_1" xmlns="http://www.w3.org/2000/svg" xmlns:xlink="http://www.w3.org/1999/xlink" x="0px" y="0px"
	 viewBox="0 0 98 51" style="enable-background:new 0 0 98 51;" xml:space="preserve">
<style type="text/css">
	.st0{fill:#FFFFFF;}
</style>
<g id="Page-1">
	<g id="ic-technology-my-sql">
		<path id="Combined-Shape" class="st0" d="M40.44,35.68c0.02,0,0,11.4,0,11.45c0.02,2.82-3.49,3.41-5.1,3.46H25.15v-2.18l0.3,0
			c1.67,0,9.87,0.02,9.89,0c2.08-0.2,1.83-1.24,1.83-1.58V46h-6.85c-3.19-0.05-5.22-1.43-5.24-3.04c0-0.15,0.07-7.17,0-7.25h3.22
			v7.02c-0.02,0.4,0.12,1.29,1.9,1.31c0.89,0.02,6.95,0,7,0v-8.36H40.44z M70.42,31.23c0.3,0,0.57,0,0.89,0.05
			c2.7,0.37,4.08,1.56,4.08,3.51v7.67c0,1.58-0.59,2.42-1.93,2.97l3.19,2.87h-3.76L70.32,46l-2.6,0.15h-3.44
			c-0.59,0-1.21-0.07-1.9-0.27c-2.05-0.54-3.04-1.63-3.04-3.41v-7.67c0-1.95,1.36-3.14,4.08-3.51c0.27-0.05,0.59-0.05,0.87-0.05
			H70.42z M20.88,31.21c0.96,0.3,1.45,0.85,1.5,1.95l0,0.2V46.1h-3.22V33.33l-5,11.13c-0.59,1.34-1.38,1.81-2.97,1.81
			c-1.51,0-2.3-0.43-2.89-1.63l-0.08-0.18l-5-11.13V46.1H0V33.36c0-1.24,0.49-1.83,1.53-2.15c2.37-0.74,4.02-0.14,4.77,1.4
			l0.07,0.16l4.75,10.96l4.9-10.96C16.77,31.11,18.43,30.44,20.88,31.21z M57.41,31.18v2.15h-9.23c-0.1,0-0.22,0.02-0.32,0.02
			c-1.14,0.1-1.48,0.3-1.63,0.96c-0.02,0.07-0.02,0.12-0.02,0.18l0,0.09v1.46c0,0.1,0,0.2,0.02,0.3c0.14,0.82,0.7,1.22,1.87,1.26
			l0.21,0h3.91c0.96,0,1.95,0.15,2.77,0.47c1.43,0.54,2.22,1.37,2.29,2.23l0.01,0.14v2.37c0,1.14-0.69,2-2.08,2.65
			c-0.76,0.36-1.69,0.57-2.67,0.61l-0.33,0.01h-9.27v-2.15h8.9c0.12,0,0.22-0.02,0.35-0.02c0.62-0.05,1.09-0.2,1.36-0.45
			c0.28-0.22,0.43-0.47,0.46-0.68l0.01-0.09v-1.88c0-0.22-0.07-0.4-0.25-0.59c-0.32-0.37-0.74-0.54-1.78-0.64
			c-0.1-0.02-0.22-0.02-0.35-0.02H48.3c-0.32,0-0.62-0.02-0.94-0.02c-2.65-0.29-4.29-1.45-4.4-2.85l-0.01-0.15v-1.88
			c0-1.66,0.84-2.6,2.77-3.22c0.57-0.16,1.19-0.26,2.33-0.27l0.27,0H57.41z M80.63,31.18v11.16c0,1.09,0.66,1.57,2.4,1.61l0.22,0
			h8.46v2.15H83.3c-0.3,0-0.62-0.02-0.91-0.05c-3.24-0.24-4.87-1.41-4.97-3.51l0-0.2V31.18H80.63z M94.31,43.94v0.37h-0.64v1.78
			H93.2v-1.78h-0.64v-0.37H94.31z M95.45,43.94l0.57,1.48l0.57-1.48h0.64v2.15h-0.42v-1.63h-0.02l-0.62,1.63h-0.32l-0.62-1.63v1.63
			h-0.45v-2.15H95.45z M70.07,33.38h-4.9c-1.43,0-2.35,0.62-2.35,1.58v7.3c0,0.12,0.02,0.22,0.05,0.35c0.2,0.89,1.04,1.38,2.3,1.38
			h2.94l-2.7-2.42h3.76l2.35,2.1c0.42-0.22,0.72-0.57,0.82-1.01c0.02-0.12,0.02-0.22,0.02-0.32v-7.37c0-0.07,0-0.17-0.02-0.27
			C72.15,33.85,71.31,33.38,70.07,33.38z M67.3,1.55c0.37,0.22,0.77,0.69,1.14,0.84c0.62,0.05,1.24,0.07,1.86,0.12
			c1.16,0.27,2.25,0.49,3.17,1.01c4.28,2.5,7.02,5.05,9.6,9.25c0.52,0.89,0.82,1.85,1.24,2.82c0.62,1.43,1.31,2.92,2.03,4.3
			c0.35,0.64,0.57,1.36,1.01,1.9c0.2,0.25,0.69,0.32,0.96,0.45c0.84,0.42,1.81,0.74,2.6,1.26c1.41,0.89,2.8,1.95,4.06,3.04
			c0.42,0.34,0.7,0.84,1.05,1.26l0.18,0.2v0.22L95,28.59c-0.87,0.22-1.63,0.17-2.47,0.4c-0.5,0.12-1.14,0.32-1.68,0.4
			c0,0.02,0.02,0.02,0.05,0.05c0.32,0.89,2.05,1.66,2.82,2.2c0.86,0.62,1.68,1.35,2.35,2.16l0.25,0.31l0.74,0.74
			c0.12,0.2,0.17,0.44,0.28,0.65l0.09,0.14v0.05c-0.32-0.12-0.52-0.42-0.77-0.62c-0.54-0.4-1.09-0.84-1.66-1.19
			c-0.92-0.59-2-0.92-2.99-1.51c-0.54-0.35-1.06-0.74-1.56-1.14c-0.47-0.35-0.99-1.01-1.31-1.51c-0.15-0.27-0.2-0.59-0.4-0.79
			c0.07-0.47,0.64-0.47,1.01-0.62c1.31-0.57,2.82-0.74,4.8-0.69c-0.05-0.52-1.29-1.14-1.68-1.41c-0.82-0.57-1.63-1.19-2.5-1.68
			c-0.45-0.27-1.21-0.49-1.68-0.69c-0.67-0.27-2.15-0.54-2.55-1.06c-0.72-0.96-1.24-2.15-1.73-3.34c-0.52-1.16-1.19-2.4-1.71-3.61
			c-0.25-0.59-0.37-1.11-0.67-1.68c-1.83-3.49-4.48-6.41-7.74-8.46c-1.06-0.69-2.25-1.31-3.56-1.71c-0.64-0.19-1.38-0.13-2.08-0.21
			L68.31,3.7h-0.49C67.37,3.58,67,3.11,66.63,2.86C65.87,2.34,65.1,2,64.21,1.6c-0.35-0.12-1.26-0.47-1.58-0.22
			c-0.2,0.07-0.27,0.15-0.35,0.35c-0.17,0.3,0,0.74,0.12,1.01c0.37,0.79,0.89,1.26,1.36,1.93c0.42,0.57,0.92,1.24,1.24,1.9
			c0.64,1.38,0.92,2.92,1.51,4.3c0.25,0.52,0.57,1.11,0.92,1.56c0.27,0.37,0.74,0.67,0.89,1.14c0.32,0.49-0.45,2.13-0.62,2.65
			c-0.64,2.03-0.5,4.85,0.22,6.6c0.3,0.69,0.57,1.51,1.36,1.71c0.05-0.05,0.02-0.02,0.12-0.07c0.15-1.34,0.22-2.65,0.67-3.71
			c0.3-0.67,0.82-1.14,1.19-1.71c0.27,0.17,0.27,0.62,0.4,0.92c0.32,0.77,0.67,1.61,1.06,2.37c0.84,1.58,1.76,3.12,2.77,4.5
			c0.37,0.49,0.87,1.04,1.31,1.48c0.14,0.14,0.31,0.23,0.45,0.37l0.1,0.12h0.07v0.05c-0.77-0.25-1.24-1.01-1.81-1.46
			c-1.14-0.84-2.47-2.13-3.22-3.34c-0.23-0.44-0.46-0.89-0.69-1.34l-0.33-0.69v-0.05c-0.15,0.2-0.1,0.4-0.17,0.67
			c-0.32,1.26-0.07,2.65-1.19,3.12c-1.29,0.52-2.2-0.84-2.6-1.46c-1.29-2.08-1.61-5.52-0.74-8.31c0.2-0.62,0.22-1.36,0.57-1.85
			c-0.05-0.45-0.42-0.57-0.62-0.84c-0.35-0.47-0.64-1.01-0.92-1.53c-0.52-1.01-0.87-2.23-1.29-3.34c-0.17-0.45-0.2-0.87-0.4-1.29
			c-0.3-0.64-0.82-1.29-1.24-1.85c-0.59-0.82-2.25-2.4-1.58-4.01C62.25-1.29,65.89,0.66,67.3,1.55z M69.33,6.13
			c0.22,0.2,0.52,0.32,0.69,0.57c0.12,0.17,0.15,0.35,0.27,0.49c0,0.56-0.12,0.93-0.4,1.16l-0.1,0.07L69.72,8.5
			c-0.17-0.4-0.37-0.79-0.54-1.19c-0.2-0.28-0.46-0.51-0.66-0.79L68.39,6.3h-0.07V6.25C68.64,6.18,68.93,6.13,69.33,6.13z"/>
	</g>
</g>
</svg>
