<?xml version="1.0" encoding="utf-8"?>
<!-- Generator: Adobe Illustrator 23.0.1, SVG Export Plug-In . SVG Version: 6.00 Build 0)  -->
<svg version="1.1" id="Layer_1" xmlns="http://www.w3.org/2000/svg" xmlns:xlink="http://www.w3.org/1999/xlink" x="0px" y="0px"
	 viewBox="0 0 60 24" style="enable-background:new 0 0 60 24;" xml:space="preserve">
<style type="text/css">
	.st0{fill:#FFFFFF;}
</style>
<g id="Page-1">
	<g id="ic-technology-microsoft-dot-net">
		<path id="Combined-Shape" class="st0" d="M59.78,0c-8.11,14.26-13.01,22.83-17.87,22.83c-0.26,0-0.5-0.04-0.73-0.13l0,0l0.1-0.02
			l0.04-0.01l-0.04,0.01l-0.04,0.01h-0.01l-0.05,0.01c-0.66-0.24-1.21-0.8-1.69-1.6c0,0.01,0,0.01,0,0.01l0,0.01
			c0.48,0.8,1.03,1.36,1.69,1.6l-0.01,0l0.02,0c0.23,0.08,0.47,0.13,0.73,0.13l-1.85,0.01l0-0.01h-5.02c0.22,0,0.42,0,0.62-0.01
			l-0.31,0.01l0,0l-0.32,0c-0.35,0-0.69-0.03-1.01-0.1c-0.08-0.02-0.17-0.04-0.25-0.06l-0.24-0.07c0.16,0.05,0.32,0.09,0.49,0.12
			c0.32,0.06,0.66,0.1,1.01,0.1h-5v0c0.36,0,0.72-0.03,1.09-0.08l-0.36,0.04c-0.24,0.02-0.48,0.03-0.72,0.03
			c-6.3,0-7.12-11.57-9.27-18.05c-1.51,1.48-3.04,3.3-4.56,5.42c0.77-2.37,1.4-4.19,2.03-5.58l-0.01,0.02c0,0,0,0,0,0
			c-0.62,1.38-1.25,3.19-2.01,5.55c-0.63,1.93-1.34,4.24-2.21,6.97c-1.15,3.61-3.46,6.1-8.51,6.24l0.32-0.01H5.78l-0.02,0L5.7,23.41
			H5.69L5.5,23.43H4.66l-1.83,0.01H2.56c0.25-1.9,0.61-3.7,1.05-5.41C8.61,8.56,10.97,2.57,15.15,0.95l0,0l0.03-0.01l0.08-0.03
			l0.04-0.01l0.08-0.03l0.19-0.06l0.03-0.01l0.08-0.02l0.04-0.01l0.08-0.02l0.03-0.01l0.27-0.07l0.04-0.01l0.08-0.01l0.04-0.01
			l0.08-0.02h0.02l0.16-0.03l0.03-0.01l0.08-0.01l0.04-0.01l0.05-0.01l-0.02,0l-0.03,0L16.6,0.56l-0.08,0.01H16.5L16.33,0.6h-0.02
			l-0.08,0.01L16.2,0.63l-0.08,0.01l-0.04,0.01l-0.27,0.07l-0.03,0.01l-0.08,0.02l-0.04,0.01l-0.08,0.02l-0.03,0.01l-0.19,0.06h0
			l-0.08,0.03L15.26,0.9L15.25,0.9l-0.08,0.03h-0.01l-0.01,0.01l-0.01,0.01v0l-0.22,0.09C10.88,2.78,8.52,8.73,3.61,18.02
			c0.38-1.45,0.81-2.82,1.3-4.12l-0.16,0.43c-0.42,1.17-0.81,2.4-1.14,3.68c-0.89,1.69-1.87,3.5-2.96,5.41l0,0H0
			C3.4,10.49,10.94,0.49,16.41,0.49c0.18,0,0.35,0.01,0.52,0.03l0,0l-0.09,0.01h0.1l0,0l0.02,0h0.11l0.08,0l0,0l0.2-0.01
			c0.11,0,0.22,0,0.33,0.01l6.25,0l0,0v0l2,0c0.24-0.02,0.47-0.03,0.71-0.03c0.1,0,0.19,0,0.28,0.01L26.62,0.5l0,0l2.49,0.01
			c-0.39,0-0.79,0.03-1.18,0.09c0.39-0.06,0.79-0.09,1.18-0.09c6.34,0,7.13,11.73,9.32,18.18c-0.53,0.5-1.05,0.95-1.58,1.36
			l0.23-0.18c0.45-0.36,0.9-0.76,1.35-1.18l0,0l0,0c0-0.01,0.01-0.01,0.01-0.01c1.13-2.51,2.3-6.46,4.23-12.54
			c1.1-3.48,3.3-5.84,8-6.11l-0.01,0l0-0.01L51.14,0h2.99l0,0H56c-6.73,11.82-8.89,19.74-13.17,22.09l0.01,0l0.01,0l0.18-0.11
			c4.09-2.45,6.29-10.1,12.67-21.44L56.01,0h0.59c-0.04,0.16-0.09,0.33-0.13,0.49L56.6,0l0,0H59.78z M3.61,18.02
			c-0.44,1.71-0.8,3.51-1.05,5.41l0,0h-1.9C1.74,21.52,2.72,19.72,3.61,18.02L3.61,18.02z"/>
	</g>
</g>
</svg>
