<?xml version="1.0" encoding="utf-8"?>
<!-- Generator: Adobe Illustrator 23.0.1, SVG Export Plug-In . SVG Version: 6.00 Build 0)  -->
<svg version="1.1" id="Layer_1" xmlns="http://www.w3.org/2000/svg" xmlns:xlink="http://www.w3.org/1999/xlink" x="0px" y="0px"
	 viewBox="0 0 60 36" style="enable-background:new 0 0 60 36;" xml:space="preserve">
<style type="text/css">
	.st0{fill:#FFFFFF;}
</style>
<g id="Page-1">
	<g id="ic-technology-node-js">
		<path id="Combined-Shape-Copy-8" class="st0" d="M30.24,21.67l5.41,3.07c0.35,0.2,0.57,0.57,0.57,0.97v6.13
			c0,0.4-0.22,0.77-0.57,0.97l-5.41,3.07C30.07,35.96,29.86,36,29.67,36c-0.2,0-0.39-0.05-0.57-0.15l-1.8-1.05
			c-0.27-0.15-0.14-0.2-0.05-0.23c0.37-0.12,0.43-0.15,0.81-0.36c0.04-0.03,0.1-0.01,0.14,0.01l1.38,0.81
			c0.05,0.03,0.12,0.03,0.16,0l5.41-3.07c0.05-0.03,0.08-0.08,0.08-0.15V25.7c0-0.07-0.03-0.12-0.08-0.15l-5.41-3.06
			c-0.05-0.03-0.12-0.03-0.16,0l-5.41,3.06c-0.05,0.03-0.08,0.09-0.08,0.15v6.13c0,0.05,0.03,0.12,0.08,0.15l1.48,0.84
			c0.8,0.4,1.3-0.07,1.3-0.53v-6.05c0-0.08,0.07-0.16,0.16-0.16h0.69c0.08,0,0.16,0.07,0.16,0.16v6.05c0,1.05-0.58,1.66-1.6,1.66
			c-0.31,0-0.56,0-1.25-0.33l-1.42-0.8c-0.35-0.2-0.57-0.57-0.57-0.97v-6.13c0-0.4,0.22-0.77,0.57-0.97l5.41-3.07
			C29.44,21.49,29.91,21.49,30.24,21.67z M31.14,25.89c1.74,0,2.59,0.58,2.7,1.86c0,0.04-0.01,0.08-0.04,0.12
			c-0.03,0.03-0.07,0.05-0.11,0.05h-0.71c-0.07,0-0.14-0.05-0.15-0.12c-0.16-0.73-0.58-0.97-1.7-0.97c-1.25,0-1.4,0.43-1.4,0.74
			c0,0.39,0.18,0.5,1.86,0.72c1.67,0.21,2.45,0.52,2.45,1.66c-0.01,1.17-0.99,1.83-2.71,1.83c-2.37,0-2.86-1.06-2.86-1.97
			c0-0.08,0.07-0.16,0.16-0.16h0.71c0.08,0,0.15,0.05,0.15,0.13c0.11,0.7,0.42,1.05,1.86,1.05c1.14,0,1.63-0.25,1.63-0.85
			c0-0.35-0.14-0.6-1.91-0.77c-1.48-0.15-2.4-0.47-2.4-1.62C28.67,26.52,29.59,25.89,31.14,25.89z M40.46,0.01l0.07,0.03l3.43,1.87
			c0.19,0.1,0.31,0.28,0.34,0.49l0.01,0.11v16.2c0,0.21-0.1,0.4-0.26,0.53l-0.09,0.06l-5.75,3.26c-0.18,0.1-0.4,0.12-0.6,0.04
			l-0.09-0.04l-5.75-3.26c-0.19-0.1-0.31-0.28-0.34-0.48l-0.01-0.1v-6.5c0-0.2,0.1-0.4,0.26-0.53l0.09-0.06l5.75-3.26
			c0.18-0.1,0.4-0.12,0.6-0.04l0.09,0.04l1.44,0.81c0.08,0.04,0.16,0.04,0.24,0c0.06-0.04,0.1-0.09,0.11-0.15l0.01-0.06V0.33
			c0-0.12,0.07-0.23,0.18-0.29C40.26,0,40.36-0.01,40.46,0.01z M21.81,8.32c0.21-0.12,0.48-0.12,0.69,0l0,0l5.71,3.23
			c0.2,0.12,0.34,0.35,0.34,0.58l0,0v6.47c0,0.24-0.12,0.47-0.34,0.58l0,0l-5.71,3.23c-0.21,0.12-0.48,0.12-0.69,0l0,0l-5.71-3.23
			c-0.2-0.12-0.34-0.35-0.34-0.58l0,0v-6.47c0-0.24,0.12-0.47,0.34-0.58l0,0L21.81,8.32z M53.26,8.29c0.21-0.12,0.48-0.12,0.69,0
			l0,0l5.71,3.24c0.2,0.12,0.34,0.35,0.34,0.58l0,0v1.58c0,0.24-0.12,0.47-0.34,0.58l0,0l-3.42,1.95c-0.11,0.07-0.24,0.07-0.35,0
			c-0.11-0.05-0.18-0.17-0.18-0.29l0,0v-1.59c0-0.12-0.07-0.23-0.18-0.29l0,0l-1.8-1.01c-0.11-0.07-0.24-0.07-0.35,0l0,0l-1.8,1.01
			c-0.11,0.05-0.18,0.17-0.18,0.29l0,0v2.03c0,0.12,0.07,0.23,0.18,0.29l0,0l5.78,3.26c0.11,0.05,0.18,0.17,0.18,0.29
			s-0.07,0.24-0.18,0.29l0,0l-3.46,1.89c-0.2,0.12-0.46,0.12-0.68,0l0,0l-5.71-3.19c-0.22-0.12-0.35-0.35-0.35-0.58l0,0v-6.5
			c0-0.24,0.14-0.47,0.35-0.58l0,0L53.26,8.29z M6.47,8.12c0.11,0.01,0.22,0.04,0.31,0.09l0,0l5.75,3.24
			c0.22,0.12,0.35,0.35,0.35,0.58l0,0l0.01,8.72c0,0.12-0.07,0.24-0.18,0.29c-0.11,0.07-0.24,0.07-0.35,0l0,0l-3.42-1.91
			c-0.22-0.12-0.35-0.35-0.35-0.58l0,0v-4.08c0-0.24-0.14-0.47-0.35-0.58l0,0l-1.45-0.82C6.7,13,6.58,12.97,6.46,12.97
			S6.21,13,6.1,13.06l0,0l-1.45,0.82c-0.22,0.12-0.35,0.35-0.35,0.58l0,0v4.08c0,0.24-0.14,0.47-0.35,0.58l0,0l-3.42,1.91
			c-0.1,0.07-0.23,0.07-0.34,0C0.08,21,0.01,20.88,0.01,20.76l0,0L0,12.04c0-0.24,0.14-0.47,0.35-0.58l0,0L6.1,8.21
			c0.09-0.05,0.2-0.09,0.31-0.09l0,0H6.47z M37.83,13.06l-0.06,0.02l-1.97,1.12c-0.04,0.02-0.07,0.05-0.08,0.1l-0.01,0.05v2.23
			c0,0.04,0.02,0.09,0.05,0.12l0.04,0.03l1.97,1.12c0.04,0.02,0.08,0.02,0.12,0.02l0.06-0.02l1.97-1.12
			c0.04-0.02,0.07-0.05,0.08-0.1L40,16.57v-2.23c0-0.04-0.02-0.09-0.05-0.12l-0.04-0.03l-1.97-1.12
			C37.91,13.06,37.87,13.05,37.83,13.06z M53.65,13.98l1.1,0.62c0.04,0.03,0.07,0.07,0.07,0.12v1.25c0,0.05-0.03,0.09-0.07,0.12
			l-1.1,0.62c-0.04,0.03-0.09,0.03-0.14,0l-1.1-0.62c-0.04-0.03-0.07-0.07-0.07-0.12v-1.25c0-0.05,0.03-0.09,0.07-0.12l1.1-0.62
			C53.56,13.95,53.61,13.95,53.65,13.98z"/>
	</g>
</g>
</svg>
