<?xml version="1.0" encoding="utf-8"?>
<!-- Generator: Adobe Illustrator 23.0.1, SVG Export Plug-In . SVG Version: 6.00 Build 0)  -->
<svg version="1.1" id="Layer_1" xmlns="http://www.w3.org/2000/svg" xmlns:xlink="http://www.w3.org/1999/xlink" x="0px" y="0px"
	 viewBox="0 0 128 16" style="enable-background:new 0 0 128 16;" xml:space="preserve">
<style type="text/css">
	.st0{fill:#FFFFFF;}
</style>
<g id="Page-1">
	<g id="Brand-Logo" transform="translate(-1250.000000, -5024.000000)">
		<g id="ic-technology-oracle" transform="translate(1250.000000, 5024.000000)">
			<path class="st0" d="M92.66,0h2.72v13.38h11.8L105.44,16H92.66V0L92.66,0z M71.29,16L61.22,0.76c-0.62-0.99-2.27-0.99-2.97,0.04
				L48.27,16h3.3l3.01-4.59h6.43l1.69-2.61h-6.43l3.51-5.27L67.99,16H71.29L71.29,16z M77.41,0.01c-4.6,0-7.63,3.58-7.63,7.99
				c0,4.41,3.03,7.99,7.63,7.99l11.18-0.01l1.75-2.59H77.5c-3.1,0-4.91-2.41-4.91-5.39s1.81-5.39,4.91-5.39h11.45L90.63,0
				L77.41,0.01L77.41,0.01z M7.63,2.61h11.8c3.1,0,4.91,2.41,4.91,5.39s-1.81,5.39-4.91,5.39H7.63c-3.1,0-4.91-2.41-4.91-5.39
				S4.53,2.61,7.63,2.61z M7.63,0.01C3.03,0.01,0,3.59,0,8C0,12.42,3.03,16,7.63,16h11.8c4.6,0,7.63-3.58,7.63-7.99
				c0-4.41-3.03-7.99-7.63-7.99H7.63z M110.08,9.27c0.44,2.37,2.14,4.12,4.79,4.12h12.85l-1.75,2.59L114.78,16
				c-4.6,0-7.63-3.58-7.63-7.99c0-4.41,3.03-7.99,7.63-7.99L128,0l-1.69,2.61h-11.45c-2.61,0-4.31,1.73-4.79,4.04h16.15l-1.73,2.61
				L110.08,9.27L110.08,9.27L110.08,9.27z M42.44,9.5c2.7-0.05,4.86-2.16,4.86-4.75s-2.16-4.7-4.86-4.75L28.56,0v16h3.05V2.61h10.83
				c1.23,0,2.23,0.96,2.23,2.14s-1,2.14-2.23,2.14h-8.68l9.79,9.09h3.94l-7.01-6.48L42.44,9.5L42.44,9.5z"/>
		</g>
	</g>
</g>
</svg>
