<?xml version="1.0" encoding="utf-8"?>
<!-- Generator: Adobe Illustrator 23.0.1, SVG Export Plug-In . SVG Version: 6.00 Build 0)  -->
<svg version="1.1" id="Layer_1" xmlns="http://www.w3.org/2000/svg" xmlns:xlink="http://www.w3.org/1999/xlink" x="0px" y="0px"
	 viewBox="0 0 60 29" style="enable-background:new 0 0 60 29;" xml:space="preserve">
<style type="text/css">
	.st0{fill:#FFFFFF;}
</style>
<g id="Page-1">
	<g id="ic-technology-php">
		<path id="Shape-Copy" class="st0" d="M15.07,5.87c4.55,0.28,6.82,2.51,6.82,6.43c0,6.71-5.4,10.62-10.24,10.34H6.54L5.4,28.5H0
			L4.55,5.87H15.07z M12.8,10.06H9.1l-1.42,8.38h3.41c2.56-0.28,4.83-1.12,5.12-5.87C16.21,10.9,14.79,10.06,12.8,10.06L12.8,10.06z
			 M20.84,22.63L25.39,0h5.4l-1.14,5.87h5.12c4.55,0.28,6.26,2.51,5.69,5.31l-1.99,11.46h-5.69l1.99-10.34
			c0.28-1.4,0.28-2.24-1.71-2.24H28.8l-2.56,12.57H20.84L20.84,22.63z M53.18,5.87C57.73,6.15,60,8.38,60,12.29
			c0,6.71-5.4,10.62-10.24,10.34h-5.12l-1.14,5.87h-5.4l4.55-22.63H53.18z M50.9,10.06h-3.7l-1.42,8.38h3.41
			c2.56-0.28,4.83-1.12,5.12-5.87C54.31,10.9,52.89,10.06,50.9,10.06L50.9,10.06z"/>
	</g>
</g>
</svg>
