<?xml version="1.0" encoding="utf-8"?>
<!-- Generator: Adobe Illustrator 23.0.1, SVG Export Plug-In . SVG Version: 6.00 Build 0)  -->
<svg version="1.1" id="Layer_1" xmlns="http://www.w3.org/2000/svg" xmlns:xlink="http://www.w3.org/1999/xlink" x="0px" y="0px"
	 viewBox="0 0 48 50" style="enable-background:new 0 0 48 50;" xml:space="preserve">
<style type="text/css">
	.st0{fill:#FFFFFF;}
</style>
<g id="Page-1">
	<g id="ic-technology-postgresql">
		<path id="Combined-Shape" class="st0" d="M34.45,0l0.37,0c4.9,0.06,8.96,1.97,11.74,5.52c1.05,1.34,1.95,4.31,0.27,10.83
			c-1.04,4.03-2.85,8.32-5.08,12.07c0.59-0.02,1.4-0.1,2.49-0.33c0.62-0.13,1.15-0.16,1.61-0.09c0.98,0.15,1.73,0.75,2.02,1.63
			c0.84,2.55-2.73,4.44-3.85,4.95c-1.41,0.66-3.71,1.05-5.59,0.97l0,0l-0.09-0.01l-0.34-0.03l-0.03,0.26
			c-0.01,0.12-0.03,0.26-0.05,0.39c-0.13,4.84-0.82,7.92-2.26,9.96c-1.52,2.16-3.61,2.76-5.46,3.16c-0.52,0.11-1.11,0.19-1.73,0.19
			c-1.23,0-2.58-0.32-3.69-1.37c-1.08-1.01-1.5-2.31-1.75-3.08c-0.04-0.12-0.08-0.24-0.1-0.31c-0.51-1.37-0.68-3.32-0.78-5.84
			c-0.01-0.37-0.03-0.77-0.04-1.17c-0.01-0.25-0.01-0.54-0.03-0.84c-1.7,0.75-3.7,0.88-5.83,0.35c-0.59-0.15-1.18-0.4-1.67-0.7
			c-0.38-0.24-0.67-0.5-0.88-0.76c-1.7,1.42-3.31,1.21-4.2,0.91c-1.59-0.53-3-2-4.32-4.51c-0.93-1.76-1.83-4.06-2.68-6.83
			c-1.47-4.81-2.4-9.89-2.49-11.56C-0.23,8.52,1.19,4.76,4.25,2.59c2.53-1.79,5.99-2.34,10.28-1.63c1.83,0.3,3.41,0.77,4.39,1.1
			c1.78-1.06,3.86-1.57,6.22-1.53c1.26,0.02,2.46,0.13,3.57,0.33c1.2-0.37,3.49-0.89,6.1-0.85L34.45,0z M34.43,1.32l-0.3,0
			c-2.81,0.06-5.1,0.76-5.57,0.97c-1.06-0.26-2.22-0.43-3.48-0.45c-2.31-0.04-4.31,0.52-5.96,1.64c-0.72-0.27-2.57-0.9-4.84-1.27
			c-3.92-0.63-7.04-0.15-9.26,1.42c-2.65,1.88-3.88,5.24-3.64,9.99c0.08,1.6,0.99,6.51,2.43,11.22c1.89,6.2,3.95,9.7,6.11,10.42
			c0.25,0.08,0.55,0.14,0.87,0.14c0.79,0,1.76-0.36,2.76-1.57c1.23-1.47,2.5-2.91,3.81-4.31c0.85,0.46,1.78,0.71,2.74,0.74
			c0,0.02,0,0.05,0.01,0.07c-0.16,0.2-0.33,0.4-0.48,0.6c-0.66,0.84-0.8,1.02-2.93,1.45c-0.61,0.13-2.22,0.46-2.24,1.59
			c-0.03,1.23,1.9,1.75,2.12,1.81c0.77,0.19,1.5,0.29,2.21,0.29c1.71,0,3.22-0.56,4.42-1.65c-0.04,4.4,0.15,8.73,0.67,10.05
			c0.43,1.08,1.49,3.72,4.82,3.72c0.49,0,1.03-0.06,1.62-0.18c3.48-0.75,4.99-2.28,5.58-5.68c0.31-1.81,0.85-6.14,1.1-8.46
			c0.53,0.17,1.22,0.24,1.96,0.24c1.55,0,3.33-0.33,4.45-0.85c1.26-0.58,3.53-2.02,3.12-3.26c-0.21-0.64-0.9-0.85-2.04-0.62
			c-3.38,0.7-4.6,0.21-4.99-0.08c2.63-4.01,4.79-8.85,5.96-13.37c0.55-2.14,0.86-4.13,0.88-5.75c0.03-1.78-0.28-3.09-0.9-3.88
			c-2.52-3.22-6.22-4.95-10.69-4.99l0,0L34.43,1.32z M24.72,3.23l0.34,0c5.1,0.08,8.37,2.7,10.22,4.88c1.59,1.88,2.45,3.77,2.8,4.79
			c-2.59-0.26-4.34,0.25-5.23,1.52c-1.94,2.77,1.06,8.15,2.5,10.74c0.26,0.47,0.49,0.88,0.56,1.06c0.47,1.14,1.08,1.9,1.52,2.45
			c0.14,0.17,0.27,0.33,0.37,0.48c-0.78,0.23-2.19,0.75-2.06,3.35c-0.1,1.31-0.84,7.43-1.21,9.6c-0.49,2.86-1.54,3.92-4.5,4.56
			c-3.07,0.66-4.15-0.91-4.87-2.7c-0.46-1.15-0.69-6.36-0.53-12.11c0-0.08-0.01-0.15-0.03-0.22c-0.02-0.14-0.05-0.27-0.09-0.41
			c-0.24-0.84-0.82-1.54-1.52-1.83c-0.28-0.12-0.79-0.33-1.4-0.17c0.13-0.54,0.36-1.15,0.6-1.81l0,0l0.1-0.28l0.13-0.32
			c0.09-0.21,0.19-0.43,0.29-0.66c0.83-1.85,1.97-4.39,0.74-10.11c-0.46-2.15-2.01-3.19-4.36-2.95c-1.41,0.15-2.7,0.71-3.34,1.04
			c-0.14,0.07-0.26,0.14-0.38,0.2c0.18-2.16,0.86-6.2,3.39-8.76c1.6-1.61,3.72-2.4,6.31-2.36L24.72,3.23z M21.51,30.85
			c0.39-0.39,0.59-0.31,0.94-0.17c0.3,0.13,0.6,0.51,0.72,0.93c0.06,0.2,0.12,0.58-0.09,0.87c-1.77,2.47-4.34,2.44-6.19,1.98
			c-0.38-0.1-0.72-0.26-0.92-0.4c0.17-0.08,0.47-0.19,0.98-0.29c2.51-0.52,2.89-0.88,3.74-1.95c0.16-0.2,0.33-0.41,0.54-0.67l0,0
			l0.17-0.2L21.51,30.85z M5.81,4.77c3.65-2.59,9.64-1.04,12.05-0.25c-0.03,0.03-0.07,0.07-0.1,0.1
			c-3.95,3.99-3.86,10.81-3.85,11.23c0,0.16,0.01,0.39,0.03,0.7c0.07,1.15,0.19,3.28-0.14,5.7c-0.31,2.25,0.38,4.45,1.9,6.03
			c0.16,0.16,0.32,0.32,0.49,0.46c-0.68,0.73-2.15,2.33-3.72,4.21c-1.11,1.33-1.87,1.08-2.13,0.99c-1.64-0.55-3.54-4.02-5.22-9.51
			c-1.45-4.76-2.3-9.54-2.37-10.89C2.55,9.32,3.57,6.36,5.81,4.77z M38.58,30.37c0.06,0.05,0.12,0.1,0.19,0.14
			c1.13,0.75,3.15,0.83,5.99,0.24l0,0l0.03-0.01l-0.12,0.11c-0.39,0.34-1.01,0.77-1.85,1.16c-0.8,0.37-2.14,0.65-3.41,0.71
			c-1.41,0.07-2.12-0.16-2.29-0.29c-0.08-1.62,0.53-1.79,1.17-1.97C38.38,30.43,38.48,30.4,38.58,30.37z M15.3,16.04
			c0.58-0.51,3.25-1.95,5.16-1.51c0.87,0.2,1.4,0.79,1.62,1.81c1.14,5.28,0.15,7.48-0.65,9.25c-0.16,0.36-0.32,0.71-0.45,1.07l0,0
			l-0.1,0.28l-0.15,0.41c-0.2,0.54-0.38,1.06-0.5,1.55c-1.3,0-2.57-0.56-3.54-1.57c-1.23-1.28-1.78-3.06-1.53-4.88
			c0.36-2.55,0.23-4.78,0.15-5.97C15.32,16.3,15.31,16.16,15.3,16.04z M34.52,2.7l0.39,0c4.01,0.09,7.18,1.59,9.43,4.46
			c1.72,2.2-0.17,12.22-5.66,20.86c-0.06-0.07-0.11-0.14-0.17-0.21l0,0l-0.07-0.09l0.16-0.28c1.23-2.25,0.97-4.46,0.73-6.44
			c-0.1-0.84-0.2-1.64-0.17-2.39c0.03-0.79,0.13-1.47,0.23-2.13c0.12-0.81,0.25-1.65,0.22-2.64c0.03-0.1,0.04-0.23,0.02-0.37
			c-0.09-0.95-1.17-3.79-3.38-6.35c-1.21-1.4-2.97-2.98-5.37-4.04c1.03-0.21,2.45-0.41,4.03-0.38L34.52,2.7z M33.97,15.22
			c0.43-0.61,1.52-1.24,4.26-0.9c-0.01,0.69-0.11,1.31-0.21,1.96c-0.11,0.7-0.22,1.42-0.25,2.3c-0.03,0.85,0.08,1.74,0.18,2.6
			c0.21,1.73,0.42,3.52-0.41,5.28c-0.14-0.24-0.26-0.5-0.37-0.75c-0.1-0.25-0.33-0.65-0.64-1.2C35.35,22.33,32.53,17.28,33.97,15.22
			z M20.09,15.24c-0.44-0.04-0.82,0.03-1.02,0.19c-0.13,0.1-0.17,0.21-0.18,0.29c-0.03,0.21,0.12,0.44,0.21,0.56
			c0.25,0.34,0.62,0.57,0.99,0.62c0.05,0.01,0.11,0.01,0.16,0.01c0.61,0,1.16-0.47,1.21-0.83c0.06-0.44-0.58-0.73-1.19-0.82l0,0
			L20.09,15.24z M36.94,15.27c-0.05-0.34-0.66-0.44-1.24-0.36c-0.58,0.08-1.14,0.34-1.1,0.69c0.04,0.27,0.52,0.73,1.1,0.73
			c0.05,0,0.1,0,0.15-0.01c0.38-0.05,0.66-0.3,0.8-0.44C36.85,15.66,36.97,15.42,36.94,15.27z"/>
	</g>
</g>
</svg>
