<?xml version="1.0" encoding="utf-8"?>
<!-- Generator: Adobe Illustrator 23.0.1, SVG Export Plug-In . SVG Version: 6.00 Build 0)  -->
<svg version="1.1" id="Layer_1" xmlns="http://www.w3.org/2000/svg" xmlns:xlink="http://www.w3.org/1999/xlink" x="0px" y="0px"
	 viewBox="0 0 48 48" style="enable-background:new 0 0 48 48;" xml:space="preserve">
<style type="text/css">
	.st0{fill:#FFFFFF;}
</style>
<g id="Page-1">
	<g id="ic-technology-phthon">
		<path id="Combined-Shape" class="st0" d="M40.99,12.01c0.29-0.01,6.76-0.16,6.76,11.8c0,12.23-7.76,11.35-7.76,11.35H23.83v1.64
			H35.4l0.01,5.45c0,0,0.76,5.26-11.36,5.26c-12.67,0-11.69-6.34-11.69-6.34V30.69c0-6.02,5.82-6.22,6.4-6.23l11.52,0
			c6.88,0,6.66-6.77,6.66-6.77v-5.68L40.99,12.01z M30.43,39.68c-1.15,0-2.08,0.93-2.08,2.08c0,1.15,0.93,2.08,2.08,2.08
			s2.08-0.93,2.08-2.08C32.51,40.61,31.58,39.68,30.43,39.68z M23.7,0c12.67,0,11.69,6.34,11.69,6.34v0v10.47
			c0,6.02-5.82,6.22-6.4,6.23l-11.52,0c-6.33,0-6.65,5.74-6.66,6.65l0,5.8l-4.05,0C6.47,35.5,0,35.65,0,23.69
			c0-12.23,7.76-11.35,7.76-11.35h16.16V10.7H12.35l-0.01-5.45C12.34,5.26,11.58,0,23.7,0z M17.32,3.66c-1.15,0-2.08,0.93-2.08,2.08
			s0.93,2.08,2.08,2.08s2.08-0.93,2.08-2.08S18.48,3.66,17.32,3.66z"/>
	</g>
</g>
</svg>
