<?xml version="1.0" encoding="utf-8"?>
<!-- Generator: Adobe Illustrator 23.0.1, SVG Export Plug-In . SVG Version: 6.00 Build 0)  -->
<svg version="1.1" id="Layer_1" xmlns="http://www.w3.org/2000/svg" xmlns:xlink="http://www.w3.org/1999/xlink" x="0px" y="0px"
	 viewBox="0 0 51 32" style="enable-background:new 0 0 51 32;" xml:space="preserve">
<style type="text/css">
	.st0{fill:#FFFFFF;}
</style>
<g id="Page-1">
	<g id="ic-technology-rails">
		<path id="Combined-Shape-Copy-21" class="st0" d="M26.29,2.36C39.31,1.06,51,12.73,51,12.73s-0.38,0.27-0.79,0.61
			c-12.77-9.44-20.58-4.99-23.03-3.8c-11.24,6.27-7.85,21.77-7.85,21.77l0,0H1.57c0,0,0.01-0.08,0.03-0.22l0.01-0.07
			c0.19-1.36,1.2-7.33,5.34-14.23C11.67,8.9,19.72,2.95,26.29,2.36z M20.01,26.8l2.43,0.88c0.13,1.06,0.34,2.05,0.54,2.92l0,0
			l-2.7-0.97C20.17,28.96,20.06,28,20.01,26.8L20.01,26.8z M1.12,19.52l2.59,0.94c-0.36,0.83-0.83,1.93-1.12,2.7l0,0L0,22.22
			C0.22,21.61,0.7,20.49,1.12,19.52L1.12,19.52z M21.03,18.62l1.62,1.28c-0.22,0.88-0.38,1.75-0.47,2.63l0,0l-1.82-1.44
			C20.53,20.28,20.73,19.45,21.03,18.62L21.03,18.62z M25.01,12.35l1.01,1.53c-0.49,0.52-0.94,1.03-1.33,1.6l0,0l-1.08-1.62
			C24.02,13.33,24.49,12.82,25.01,12.35L25.01,12.35z M8.9,9.02l1.6,1.39c-0.54,0.56-1.06,1.17-1.53,1.78l0,0L7.24,10.7
			C7.76,10.14,8.32,9.58,8.9,9.02L8.9,9.02z M31.19,8.93l0.49,1.48c-0.65,0.2-1.3,0.47-1.96,0.79l0,0l-0.52-1.55
			C29.77,9.4,30.42,9.15,31.19,8.93L31.19,8.93z M36.45,8.39c0.72,0.04,1.46,0.13,2.23,0.29l0,0l-0.09,1.39
			c-0.74-0.16-1.48-0.25-2.23-0.27l0,0L36.45,8.39z M17.99,2.18L19,3.73c-0.58,0.29-1.15,0.63-1.73,0.99l0,0l-1.03-1.57
			C16.84,2.79,17.43,2.47,17.99,2.18L17.99,2.18z M36.5,1.33c1.42,0.4,1.98,0.67,2.18,0.79l0,0l-0.09,1.51
			c-0.72-0.29-1.44-0.56-2.18-0.81l0,0L36.5,1.33z M27.91,0l0.45,1.37h-0.22c-0.65,0-1.3,0.02-1.96,0.09l0,0l-0.43-1.33
			C26.49,0.04,27.21,0,27.91,0L27.91,0z"/>
	</g>
</g>
</svg>
