<?xml version="1.0" encoding="utf-8"?>
<!-- Generator: Adobe Illustrator 21.1.0, SVG Export Plug-In . SVG Version: 6.00 Build 0)  -->
<svg version="1.1" id="Layer_1" xmlns="http://www.w3.org/2000/svg" xmlns:xlink="http://www.w3.org/1999/xlink" x="0px" y="0px"
	 viewBox="0 0 48 43" enable-background="new 0 0 48 43" xml:space="preserve">
<g id="Page-1">
	<g id="ic-technology-react-native">
		<path id="Combined-Shape-Copy-22" fill="#FFFFFF" d="M25.2,4.2c4.1-3.6,8.2-5.1,10.7-3.7c2.6,1.5,3.4,6.1,2.2,11.8
			c-0.1,0.3-0.2,0.7-0.2,1.1c0.5,0.2,1,0.3,1.5,0.5c5.2,1.8,8.5,4.6,8.5,7.5c0,3-3.6,6-9.1,7.8c-0.3,0.1-0.6,0.2-0.9,0.3
			c0.1,0.4,0.2,0.9,0.3,1.3c1.1,5.5,0.2,10-2.3,11.5c-2.5,1.4-6.5,0-10.6-3.5c-0.4-0.4-0.9-0.8-1.3-1.2c-0.3,0.3-0.7,0.6-1,0.9
			c-4.2,3.7-8.5,5.2-11.1,3.7c-2.5-1.4-3.3-5.6-2.3-10.9c0.1-0.6,0.2-1.1,0.4-1.7c-0.4-0.1-0.9-0.3-1.3-0.4C3.5,27.3,0,24.3,0,21.3
			c0-2.9,3.2-5.7,8.3-7.4c0.6-0.2,1.2-0.4,1.8-0.6c-0.1-0.5-0.3-1.1-0.4-1.6C8.7,6.4,9.4,2.1,11.9,0.6c2.6-1.5,7,0.1,11.3,4
			C23.5,4.8,23.8,5,24,5.3c0.3-0.3,0.6-0.5,0.9-0.8l0,0L25.2,4.2z M36,29.9l-0.2,0c-1.9,0.4-4,0.8-6.3,1c-1.3,1.9-2.7,3.6-4,5.1
			c0.4,0.4,0.8,0.8,1.2,1.1c3.5,3,6.7,4.1,8.2,3.3c1.6-0.9,2.3-4.6,1.3-9.3C36.2,30.7,36.1,30.3,36,29.9z M12.1,30l0,0.1
			c-0.1,0.4-0.2,0.7-0.2,1l0,0l-0.1,0.4c-0.9,4.5-0.2,7.9,1.3,8.8c1.6,0.9,5.1-0.3,8.7-3.5c0.3-0.3,0.6-0.5,0.9-0.8
			c-1.4-1.5-2.8-3.2-4.1-5.1C16.2,30.7,14,30.4,12.1,30z M26.9,31.1l-0.2,0c-0.9,0-1.8,0.1-2.7,0.1c-1,0-1.9,0-2.8-0.1
			c0.9,1.2,1.9,2.4,2.9,3.5C25,33.5,26,32.3,26.9,31.1z M24,13.6c-1.5,0-2.9,0.1-4.4,0.2c-0.8,1.2-1.6,2.4-2.3,3.7l0,0L17,18
			c-0.6,1.1-1.2,2.3-1.8,3.4c0.6,1.3,1.3,2.6,2,3.9c0.7,1.3,1.5,2.5,2.3,3.7c1.4,0.1,2.9,0.1,4.3,0.1c1.5,0,3-0.1,4.4-0.2
			c0.8-1.2,1.6-2.4,2.3-3.7c0.7-1.3,1.4-2.6,2.1-3.9c-0.6-1.3-1.3-2.6-2.1-3.9c-0.7-1.3-1.5-2.5-2.3-3.7C27,13.7,25.5,13.6,24,13.6z
			 M14.2,23.8l-0.1,0.1c-0.6,1.4-1.1,2.8-1.5,4.1c1.4,0.3,2.9,0.5,4.4,0.7c-0.5-0.8-1-1.6-1.5-2.5C15.1,25.4,14.6,24.6,14.2,23.8z
			 M33.9,23.7l-0.1,0.2c-0.4,0.8-0.8,1.6-1.3,2.3c-0.5,0.8-1,1.7-1.5,2.4c1.6-0.2,3.1-0.4,4.5-0.8C35.1,26.6,34.5,25.2,33.9,23.7z
			 M10.7,15.3l-0.2,0.1c-0.5,0.1-1,0.3-1.4,0.5c-4.3,1.5-7,3.7-7,5.5c0,1.8,2.8,4.3,7.4,5.8c0.4,0.1,0.8,0.3,1.2,0.4
			c0.6-2,1.4-4.1,2.4-6.1C12,19.3,11.3,17.3,10.7,15.3z M37.4,15.3L37.4,15.3c-0.6,2-1.4,4-2.3,6c1,2.1,1.8,4.2,2.4,6.1l0.3-0.1l0,0
			l0.5-0.1c4.8-1.6,7.7-4,7.7-5.8c0-1.7-2.7-4-7.2-5.5C38.3,15.6,37.9,15.5,37.4,15.3z M24,17c2.4,0,4.3,1.9,4.3,4.3
			s-1.9,4.3-4.3,4.3s-4.3-1.9-4.3-4.3S21.6,17,24,17z M31,14.1l0.1,0.1c0.5,0.7,0.9,1.5,1.4,2.3c0.5,0.8,0.9,1.7,1.4,2.5
			c0.6-1.4,1.1-2.8,1.5-4.1C34,14.5,32.5,14.2,31,14.1z M17,14l-0.5,0.1c-1.3,0.2-2.6,0.4-3.8,0.7c0.4,1.3,0.9,2.7,1.5,4.2
			c0.4-0.8,0.9-1.7,1.4-2.5l0,0l0.3-0.6l0,0l0.3-0.4C16.4,15,16.7,14.5,17,14z M34.8,2.3c-1.6-0.8-4.8,0.5-8.3,3.5
			c-0.4,0.3-0.7,0.7-1.1,1c1.4,1.5,2.7,3.2,4.1,5.1c2.3,0.2,4.4,0.6,6.4,1c0.1-0.3,0.1-0.6,0.2-1C37.2,7,36.5,3.2,34.8,2.3L34.8,2.3
			L34.8,2.3z M21.6,5.9C18,2.7,14.5,1.5,13,2.4c-1.5,0.9-2.1,4.4-1.2,9c0.1,0.5,0.2,1,0.3,1.5c2-0.5,4.1-0.8,6.4-1
			c1.3-1.9,2.7-3.6,4.1-5.1c-0.2-0.2-0.5-0.5-0.7-0.7l0,0L21.6,5.9z M24,8.2l-0.2,0.2c-0.9,1-1.8,2.1-2.7,3.2c0.9,0,1.9-0.1,2.8-0.1
			c1,0,1.9,0,2.8,0.1C25.9,10.4,25,9.3,24,8.2z"/>
	</g>
</g>
</svg>
