<?xml version="1.0" encoding="utf-8"?>
<!-- Generator: Adobe Illustrator 23.0.1, SVG Export Plug-In . SVG Version: 6.00 Build 0)  -->
<svg version="1.1" id="Layer_1" xmlns="http://www.w3.org/2000/svg" xmlns:xlink="http://www.w3.org/1999/xlink" x="0px" y="0px"
	 viewBox="0 0 48 43" style="enable-background:new 0 0 48 43;" xml:space="preserve">
<style type="text/css">
	.st0{fill:#FFFFFF;}
</style>
<g id="Page-1">
	<g id="ic-technology-react-native">
		<path id="Combined-Shape-Copy-22" class="st0" d="M25.22,4.2c4.14-3.6,8.23-5.1,10.73-3.66c2.61,1.51,3.38,6.08,2.21,11.76
			c-0.07,0.35-0.15,0.7-0.24,1.05c0.53,0.15,1.05,0.32,1.54,0.49c5.18,1.78,8.53,4.58,8.53,7.47c0,3.01-3.58,5.96-9.08,7.79
			c-0.29,0.1-0.59,0.19-0.89,0.28c0.11,0.44,0.2,0.86,0.29,1.28c1.09,5.49,0.25,10-2.32,11.49c-2.49,1.44-6.52,0.03-10.6-3.48
			c-0.43-0.37-0.86-0.77-1.3-1.18c-0.33,0.32-0.67,0.63-1,0.92c-4.21,3.68-8.54,5.21-11.11,3.72c-2.5-1.44-3.28-5.64-2.28-10.92
			c0.11-0.56,0.23-1.13,0.38-1.71c-0.45-0.13-0.88-0.26-1.3-0.41C3.48,27.27,0,24.29,0,21.31c0-2.88,3.25-5.66,8.33-7.43
			c0.57-0.2,1.16-0.38,1.78-0.56c-0.13-0.54-0.25-1.07-0.35-1.59C8.7,6.35,9.44,2.05,11.94,0.61c2.61-1.51,6.95,0.11,11.29,3.96
			c0.26,0.23,0.53,0.48,0.79,0.73c0.29-0.27,0.57-0.54,0.86-0.8l0,0L25.22,4.2z M36.04,29.9l-0.22,0.05
			c-1.93,0.43-4.05,0.75-6.28,0.95c-1.32,1.91-2.67,3.63-4.02,5.11c0.4,0.39,0.81,0.76,1.21,1.1c3.49,3,6.72,4.14,8.24,3.26
			c1.59-0.92,2.28-4.59,1.34-9.31C36.23,30.68,36.14,30.29,36.04,29.9z M12.06,29.99l-0.03,0.13c-0.09,0.35-0.16,0.7-0.24,1.04l0,0
			l-0.08,0.42c-0.86,4.52-0.23,7.89,1.28,8.77c1.6,0.92,5.12-0.32,8.74-3.49c0.3-0.26,0.61-0.55,0.91-0.84
			c-1.4-1.51-2.79-3.22-4.12-5.09C16.21,30.74,14.03,30.42,12.06,29.99z M26.9,31.07l-0.22,0.01c-0.88,0.04-1.77,0.05-2.67,0.05
			c-0.95,0-1.89-0.02-2.81-0.05c0.95,1.25,1.92,2.41,2.89,3.46C25.02,33.51,25.96,32.34,26.9,31.07z M24,13.62
			c-1.48,0-2.94,0.06-4.37,0.16c-0.81,1.18-1.59,2.42-2.33,3.71l0,0l-0.28,0.49c-0.63,1.12-1.22,2.26-1.76,3.38
			c0.62,1.29,1.31,2.58,2.05,3.87c0.75,1.29,1.53,2.53,2.35,3.72c1.4,0.09,2.85,0.14,4.35,0.14c1.5,0,2.97-0.05,4.4-0.15
			c0.78-1.17,1.55-2.41,2.3-3.72c0.75-1.3,1.44-2.6,2.06-3.89c-0.63-1.26-1.32-2.55-2.07-3.85c-0.74-1.29-1.52-2.52-2.31-3.69
			C26.95,13.68,25.49,13.62,24,13.62z M14.17,23.77l-0.06,0.15c-0.58,1.4-1.08,2.77-1.49,4.09c1.37,0.3,2.85,0.54,4.42,0.71
			c-0.52-0.8-1.02-1.63-1.51-2.47C15.06,25.43,14.6,24.6,14.17,23.77z M33.87,23.7l-0.1,0.2c-0.41,0.78-0.84,1.56-1.29,2.34
			c-0.48,0.84-0.98,1.65-1.47,2.44c1.58-0.19,3.09-0.45,4.48-0.76C35.05,26.58,34.51,25.16,33.87,23.7z M10.65,15.3l-0.21,0.06
			c-0.5,0.14-0.98,0.3-1.44,0.46c-4.35,1.52-6.95,3.74-6.95,5.49c0,1.84,2.84,4.27,7.39,5.83c0.38,0.13,0.78,0.25,1.18,0.37
			c0.61-1.98,1.41-4.05,2.37-6.15C12.04,19.3,11.26,17.25,10.65,15.3z M37.37,15.33l-0.02,0.07c-0.59,1.89-1.37,3.88-2.31,5.92
			c1,2.11,1.82,4.16,2.43,6.08l0.35-0.1l0,0l0.46-0.15c4.75-1.57,7.68-3.98,7.68-5.84c0-1.74-2.71-4-7.15-5.53
			C38.34,15.62,37.86,15.47,37.37,15.33z M24,17.03c2.37,0,4.29,1.92,4.29,4.29S26.37,25.6,24,25.6s-4.29-1.92-4.29-4.29
			S21.63,17.03,24,17.03z M31.01,14.05l0.07,0.11c0.47,0.74,0.93,1.51,1.39,2.29c0.49,0.84,0.95,1.67,1.38,2.5
			c0.61-1.42,1.12-2.81,1.54-4.13C34.01,14.5,32.54,14.25,31.01,14.05z M17,14.05l-0.51,0.07c-1.34,0.18-2.63,0.41-3.84,0.68
			c0.42,1.34,0.93,2.74,1.52,4.15c0.43-0.83,0.88-1.66,1.35-2.48l0,0l0.33-0.57l0.01,0l0.25-0.42C16.4,15,16.7,14.52,17,14.05z
			 M34.83,2.27c-1.55-0.76-4.8,0.47-8.27,3.48c-0.37,0.32-0.73,0.66-1.1,1.01c1.37,1.48,2.74,3.19,4.06,5.06
			c2.26,0.21,4.43,0.55,6.42,1.01c0.08-0.32,0.15-0.64,0.21-0.95c1.01-4.9,0.38-8.64-1.22-9.57l0,0L34.83,2.27z M21.64,5.9
			c-3.66-3.18-7.1-4.43-8.67-3.52c-1.51,0.87-2.11,4.35-1.2,8.96c0.09,0.48,0.2,0.98,0.33,1.48c1.99-0.45,4.15-0.79,6.41-1
			c1.32-1.86,2.7-3.56,4.09-5.06c-0.24-0.23-0.48-0.45-0.72-0.66l0,0L21.64,5.9z M24.02,8.23l-0.15,0.16
			c-0.91,0.99-1.81,2.08-2.7,3.24c0.93-0.04,1.88-0.07,2.83-0.07c0.96,0,1.91,0.02,2.85,0.07C25.92,10.4,24.97,9.25,24.02,8.23z"/>
	</g>
</g>
</svg>
