<?xml version="1.0" encoding="utf-8"?>
<!-- Generator: Adobe Illustrator 23.0.1, SVG Export Plug-In . SVG Version: 6.00 Build 0)  -->
<svg version="1.1" id="Layer_1" xmlns="http://www.w3.org/2000/svg" xmlns:xlink="http://www.w3.org/1999/xlink" x="0px" y="0px"
	 viewBox="0 0 48 48" style="enable-background:new 0 0 48 48;" xml:space="preserve">
<style type="text/css">
	.st0{fill:#FFFFFF;}
</style>
<g>
	<path id="path-1" class="st0" d="M44.5,36.2c-1.37,2.4-3.15,4.54-5.24,6.32C35.12,45.94,29.8,48,24,48
		c-6.79,0-12.91-2.82-17.28-7.34c0.52,0.17,1.06,0.33,1.56,0.47c4.16,1.15,8.64,1.12,12.78-0.1c2.65-0.78,5.14-2.03,7.75-2.97
		C33.78,36.27,39.25,35.64,44.5,36.2z M13.62,29.42c5.36,0.73,10.16,3.72,15.44,4.89c4.27,0.94,8.79,0.65,12.9-0.84
		c1.74-0.63,3.46-1.46,5.01-2.49c-0.48,1.57-1.11,3.07-1.88,4.49l-0.13-0.01c-5.4-0.58-10.97,0.08-16.02,1.9l-0.64,0.24
		c-0.35,0.13-0.72,0.28-1.17,0.46l-2.58,1.06c-1.42,0.58-2.3,0.89-3.32,1.19c-4,1.18-8.34,1.21-12.37,0.1l-0.75-0.22
		c-0.57-0.17-1.04-0.32-1.47-0.49l-1.13-0.43c-1.75-2.19-3.12-4.7-4.01-7.42C5.18,29.74,9.49,28.85,13.62,29.42z M47.99,24.88
		l-0.01,0.31c-0.08,1.63-0.32,3.22-0.71,4.75l-0.42,0.29c-1.52,1.04-3.28,1.93-5.16,2.61c-3.97,1.43-8.35,1.72-12.48,0.81l-0.6-0.14
		c-1.57-0.38-3.01-0.89-5.67-1.92l-1.19-0.46c4.62-2.13,8.8-5.27,13.69-6.66C39.5,23.3,44,23.48,47.99,24.88z M42.93,9.45
		c1.1,1.36,2.06,2.85,2.84,4.44c0.8,1.72,1.4,3.54,1.77,5.45l0.15,0.11c-1.64-1.2-3.49-2.22-5.38-2.96
		c-4.33-1.69-9.18-2.05-13.7-1.01L28,15.62c-1.64,0.41-3.12,0.95-5.55,1.96l-2.56,1.08c-1.7,0.72-3.12,1.26-4.4,1.67
		c2.67,0.53,5.24,1.55,7.74,2.63c2.18,0.94,4.35,1.95,6.58,2.74c-0.73,0.37-1.53,0.8-2.43,1.3l-2.15,1.2
		c-1.94,1.08-3.18,1.72-4.4,2.26l-0.23,0.1l-0.12-0.05c-3.01-1.14-4.8-1.66-6.94-1.95c-4.23-0.58-8.67,0.3-12.49,2.46
		C0.37,28.8,0,26.44,0,24l0,0.05c1.09-0.86,2.36-1.63,3.6-2.23c0.75-0.36,1.52-0.67,2.31-0.93c-1.81-0.42-3.58-1.13-5.18-2.12
		L0.6,18.69c0.36-1.46,0.85-2.86,1.47-4.2c3.85-2.09,8.38-3.29,12.77-3.24c5.51,0.06,10.91,1.87,16.41,1.74
		C35.34,12.88,39.46,11.59,42.93,9.45z M42.23,17.14c1.92,0.76,3.82,1.83,5.48,3.11C47.9,21.48,48,22.73,48,24l0-0.22
		c-4.04-1.3-8.49-1.41-12.5-0.26c-1.47,0.42-2.75,0.91-4.32,1.67l0.04,0.02c-1.35-0.44-2.63-0.95-4.77-1.88l-2.5-1.09
		c-2.1-0.91-3.85-1.58-5.45-2.07c0.48-0.19,0.95-0.38,1.43-0.58l3.16-1.35c1.96-0.83,3.94-1.59,6.01-2.07
		C33.44,15.16,38.08,15.51,42.23,17.14z M0.91,19.37c1,0.62,2.07,1.14,3.18,1.55L3.7,21.1c-1.14,0.55-2.27,1.22-3.25,1.94
		C0.51,21.79,0.67,20.57,0.91,19.37z M34.54,2.46c0.33,0.15,0.66,0.32,0.99,0.48c2.66,1.46,5.02,3.41,6.94,5.73l0.28-0.16
		c-3.47,2.1-7.53,3.32-11.49,3.42c-2.06,0.05-3.89-0.12-7.03-0.6l-3.17-0.5c-2.92-0.45-4.51-0.61-6.45-0.63
		c-3.97-0.04-8.11,0.88-11.83,2.58c1.17-2.21,2.68-4.22,4.46-5.96L7.08,6.77c2.66,0.81,5.55,1.01,8.28,0.52
		c4.52-0.81,8.53-3.35,13-4.39C30.35,2.44,32.51,2.31,34.54,2.46z M23.98,0l-0.01,0c2.94,0,5.76,0.53,8.37,1.5
		c-1.46,0.02-2.92,0.2-4.28,0.52c-1.64,0.39-2.91,0.85-5.49,1.92l-1.61,0.67c-2.5,1.02-3.87,1.48-5.53,1.78
		c-2.38,0.44-4.93,0.3-7.32-0.38c4.06-3.59,9.34-5.83,15.13-6.01l0,0L23.6,0l0,0L23.98,0z"/>
</g>
<g id="Page-1">
	<g id="ic-technology-realm">
		<g id="Combined-Shape">
			<path id="path-1_1_" class="st0" d="M44.5,36.2c-1.37,2.4-3.15,4.54-5.24,6.32C35.12,45.94,29.8,48,24,48
				c-6.79,0-12.91-2.82-17.28-7.34c0.52,0.17,1.06,0.33,1.56,0.47c4.16,1.15,8.64,1.12,12.78-0.1c2.65-0.78,5.14-2.03,7.75-2.97
				C33.78,36.27,39.25,35.64,44.5,36.2z M13.62,29.42c5.36,0.73,10.16,3.72,15.44,4.89c4.27,0.94,8.79,0.65,12.9-0.84
				c1.74-0.63,3.46-1.46,5.01-2.49c-0.48,1.57-1.11,3.07-1.88,4.49l-0.13-0.01c-5.4-0.58-10.97,0.08-16.02,1.9l-0.64,0.24
				c-0.35,0.13-0.72,0.28-1.17,0.46l-2.58,1.06c-1.42,0.58-2.3,0.89-3.32,1.19c-4,1.18-8.34,1.21-12.37,0.1l-0.75-0.22
				c-0.57-0.17-1.04-0.32-1.47-0.49l-1.13-0.43c-1.75-2.19-3.12-4.7-4.01-7.42C5.18,29.74,9.49,28.85,13.62,29.42z M47.99,24.88
				l-0.01,0.31c-0.08,1.63-0.32,3.22-0.71,4.75l-0.42,0.29c-1.52,1.04-3.28,1.93-5.16,2.61c-3.97,1.43-8.35,1.72-12.48,0.81
				l-0.6-0.14c-1.57-0.38-3.01-0.89-5.67-1.92l-1.19-0.46c4.62-2.13,8.8-5.27,13.69-6.66C39.5,23.3,44,23.48,47.99,24.88z
				 M42.93,9.45c1.1,1.36,2.06,2.85,2.84,4.44c0.8,1.72,1.4,3.54,1.77,5.45l0.15,0.11c-1.64-1.2-3.49-2.22-5.38-2.96
				c-4.33-1.69-9.18-2.05-13.7-1.01L28,15.62c-1.64,0.41-3.12,0.95-5.55,1.96l-2.56,1.08c-1.7,0.72-3.12,1.26-4.4,1.67
				c2.67,0.53,5.24,1.55,7.74,2.63c2.18,0.94,4.35,1.95,6.58,2.74c-0.73,0.37-1.53,0.8-2.43,1.3l-2.15,1.2
				c-1.94,1.08-3.18,1.72-4.4,2.26l-0.23,0.1l-0.12-0.05c-3.01-1.14-4.8-1.66-6.94-1.95c-4.23-0.58-8.67,0.3-12.49,2.46
				C0.37,28.8,0,26.44,0,24l0,0.05c1.09-0.86,2.36-1.63,3.6-2.23c0.75-0.36,1.52-0.67,2.31-0.93c-1.81-0.42-3.58-1.13-5.18-2.12
				L0.6,18.69c0.36-1.46,0.85-2.86,1.47-4.2c3.85-2.09,8.38-3.29,12.77-3.24c5.51,0.06,10.91,1.87,16.41,1.74
				C35.34,12.88,39.46,11.59,42.93,9.45z M42.23,17.14c1.92,0.76,3.82,1.83,5.48,3.11C47.9,21.48,48,22.73,48,24l0-0.22
				c-4.04-1.3-8.49-1.41-12.5-0.26c-1.47,0.42-2.75,0.91-4.32,1.67l0.04,0.02c-1.35-0.44-2.63-0.95-4.77-1.88l-2.5-1.09
				c-2.1-0.91-3.85-1.58-5.45-2.07c0.48-0.19,0.95-0.38,1.43-0.58l3.16-1.35c1.96-0.83,3.94-1.59,6.01-2.07
				C33.44,15.16,38.08,15.51,42.23,17.14z M0.91,19.37c1,0.62,2.07,1.14,3.18,1.55L3.7,21.1c-1.14,0.55-2.27,1.22-3.25,1.94
				C0.51,21.79,0.67,20.57,0.91,19.37z M34.54,2.46c0.33,0.15,0.66,0.32,0.99,0.48c2.66,1.46,5.02,3.41,6.94,5.73l0.28-0.16
				c-3.47,2.1-7.53,3.32-11.49,3.42c-2.06,0.05-3.89-0.12-7.03-0.6l-3.17-0.5c-2.92-0.45-4.51-0.61-6.45-0.63
				c-3.97-0.04-8.11,0.88-11.83,2.58c1.17-2.21,2.68-4.22,4.46-5.96L7.08,6.77c2.66,0.81,5.55,1.01,8.28,0.52
				c4.52-0.81,8.53-3.35,13-4.39C30.35,2.44,32.51,2.31,34.54,2.46z M23.98,0l-0.01,0c2.94,0,5.76,0.53,8.37,1.5
				c-1.46,0.02-2.92,0.2-4.28,0.52c-1.64,0.39-2.91,0.85-5.49,1.92l-1.61,0.67c-2.5,1.02-3.87,1.48-5.53,1.78
				c-2.38,0.44-4.93,0.3-7.32-0.38c4.06-3.59,9.34-5.83,15.13-6.01l0,0L23.6,0l0,0L23.98,0z"/>
		</g>
	</g>
</g>
</svg>
