<?xml version="1.0" encoding="utf-8"?>
<!-- Generator: Adobe Illustrator 23.0.1, SVG Export Plug-In . SVG Version: 6.00 Build 0)  -->
<svg version="1.1" id="Layer_1" xmlns="http://www.w3.org/2000/svg" xmlns:xlink="http://www.w3.org/1999/xlink" x="0px" y="0px"
	 viewBox="0 0 48 39" style="enable-background:new 0 0 48 39;" xml:space="preserve">
<style type="text/css">
	.st0{fill:#FFFFFF;}
</style>
<g id="Page-1">
	<g id="ic-technology-redis">
		<path id="Combined-Shape" class="st0" d="M48,22.57C48,22.57,48,22.57,48,22.57l0,4.78c0,0.48-0.58,1.01-1.88,1.69
			c-2.56,1.34-15.83,6.79-18.66,8.26c-2.83,1.47-4.39,1.46-6.63,0.39c-2.23-1.07-16.35-6.77-18.9-7.99C0.67,29.1,0,28.59,0,28.11
			v-4.85l0,0.06c0.05,0.47,0.7,0.98,1.94,1.57c2.54,1.22,16.66,6.92,18.9,7.99c2.23,1.07,3.8,1.08,6.63-0.39
			c2.83-1.47,16.09-6.93,18.66-8.26C47.39,23.56,48,23.04,48,22.57z M48,14.72C48,14.72,48,14.72,48,14.72l0,4.79
			c0,0.48-0.58,1.01-1.88,1.69c-2.56,1.34-15.83,6.79-18.66,8.26c-2.83,1.47-4.39,1.46-6.63,0.39c-2.23-1.07-16.35-6.77-18.9-7.99
			C0.67,21.25,0,20.74,0,20.26V15.4l0,0.06c0.05,0.47,0.7,0.98,1.94,1.57c2.54,1.22,16.66,6.92,18.9,7.99
			c2.23,1.07,3.8,1.08,6.63-0.39c2.83-1.47,16.09-6.93,18.66-8.26C47.39,15.71,48,15.19,48,14.72z M48,6.58C48,6.58,48,6.58,48,6.58
			l0,4.78c0,0.48-0.58,1.01-1.88,1.68c-2.56,1.34-15.83,6.79-18.66,8.26c-2.83,1.47-4.39,1.46-6.63,0.39
			c-2.23-1.07-16.35-6.77-18.9-7.99C0.67,13.11,0,12.6,0,12.12V7.26l0,0.06C0.05,7.8,0.7,8.3,1.94,8.9
			c2.54,1.22,16.66,6.92,18.9,7.99c2.23,1.07,3.8,1.08,6.63-0.39c2.83-1.47,16.09-6.93,18.66-8.26C47.39,7.57,48,7.05,48,6.58z
			 M27.9,9.4l-3.33,4.89l-7.7-3.19L27.9,9.4z M34.74,4.12l6.53,2.58l-6.53,2.58l-0.71,0.28l-6.52-2.58L34.74,4.12z M13.89,4.74
			c3.26,0,5.9,1.02,5.9,2.29c0,1.26-2.64,2.29-5.9,2.29s-5.9-1.02-5.9-2.29C7.99,5.77,10.63,4.74,13.89,4.74z M21.05,0l3.33,1.3
			l3.14-1.03l-0.85,2.04l3.2,1.2l-4.13,0.43l-0.92,2.22l-1.49-2.48l-4.77-0.43l3.56-1.28L21.05,0z"/>
	</g>
</g>
</svg>
