<?xml version="1.0" encoding="utf-8"?>
<!-- Generator: Adobe Illustrator 23.0.1, SVG Export Plug-In . SVG Version: 6.00 Build 0)  -->
<svg version="1.1" id="Layer_1" xmlns="http://www.w3.org/2000/svg" xmlns:xlink="http://www.w3.org/1999/xlink" x="0px" y="0px"
	 viewBox="0 0 44 45" style="enable-background:new 0 0 44 45;" xml:space="preserve">
<style type="text/css">
	.st0{fill:#FFFFFF;}
</style>
<g id="Page-1_1_">
	<g id="ic-technology-selenium_1_">
		<path id="path1_1_" class="st0" d="M0.47,0.03c-0.09,0.03-0.17,0.11-0.2,0.23C0.23,0.44,0.26,44.74,0.31,44.83
			c0.02,0.04,0.07,0.1,0.11,0.12c0.1,0.07,43.08,0.06,43.18,0c0.04-0.02,0.09-0.08,0.11-0.12c0.06-0.11,0.08-38.08,0.02-38.23
			c-0.05-0.14-0.21-0.22-0.35-0.18c-0.1,0.03-0.05-0.02-11.55,12.73c-3.05,3.38-2.85,3.18-3.16,3.06c-0.09-0.04-7.27-7.31-7.38-7.47
			c-0.05-0.08-0.06-0.29-0.02-0.38c0.07-0.13,2.42-3.14,2.5-3.2c0.11-0.08,0.26-0.1,0.4-0.05c0.09,0.04,0.35,0.3,2.18,2.32
			c1.16,1.28,2.1,2.29,2.14,2.32c0.1,0.05,0.28,0.05,0.39,0C28.94,15.7,39.71,1.28,40.23,0.51c0.14-0.2,0.09-0.4-0.1-0.48
			C40.03-0.01,0.61-0.01,0.47,0.03 M13.76,20.95c1.98,0.25,3.71,0.94,5.22,2.07c0.36,0.27,0.44,0.41,0.35,0.64
			c-0.03,0.07-1.69,2.25-1.82,2.39c-0.23,0.25-0.38,0.23-0.88-0.14c-2.38-1.74-6.14-2.1-7.2-0.69C9.03,25.77,9,26.48,9.38,26.93
			c0.43,0.51,1.22,0.81,3.8,1.41c2.84,0.67,4.26,1.28,5.31,2.28c0.97,0.92,1.39,1.99,1.39,3.52c0,3.97-3.25,6.22-8.57,5.92
			c-2.4-0.13-4.76-1.07-6.49-2.59c-0.23-0.2-0.29-0.4-0.18-0.59c0.13-0.23,1.78-2.46,1.83-2.5c0.19-0.12,0.38-0.07,0.69,0.19
			c1.97,1.69,4.83,2.43,6.98,1.82c1.71-0.49,2.3-2.08,1.11-2.96c-0.55-0.41-1.17-0.62-3.44-1.17c-1.45-0.35-1.78-0.44-2.46-0.67
			c-2.94-0.98-4.28-2.55-4.28-5.04c-0.01-3.09,2.56-5.38,6.33-5.64C11.86,20.89,13.42,20.91,13.76,20.95 M29.48,25.6
			c3.69,0.24,6.21,2.93,6.47,6.91c0.07,1.13,0.05,1.34-0.17,1.45L35.68,34H30.7c-4.52,0-4.99,0-5.02,0.04
			c-0.07,0.08,0.09,0.67,0.31,1.1c0.44,0.87,1.2,1.52,2.15,1.85c1.36,0.47,3.44,0.09,4.83-0.88c0.2-0.14,0.36-0.16,0.5-0.07
			c0.09,0.06,1.25,1.7,1.35,1.9c0.13,0.26-0.01,0.42-0.76,0.87c-1.61,0.96-3.46,1.37-5.65,1.26c-3.15-0.16-5.85-2.46-6.51-5.54
			c-0.21-0.96-0.21-2.36,0-3.34c0.62-2.97,3.18-5.28,6.19-5.57c0.14-0.01,0.3-0.03,0.33-0.03C28.57,25.57,29.15,25.57,29.48,25.6
			 M28.58,28.5c-1.46,0.12-2.72,1.27-2.97,2.71c-0.06,0.36-0.51,0.32,3.38,0.32c2.38,0,3.35-0.01,3.38-0.03
			c0.13-0.07-0.05-0.83-0.31-1.31C31.4,28.94,30.21,28.37,28.58,28.5"/>
	</g>
</g>
</svg>
