<?xml version="1.0" encoding="utf-8"?>
<!-- Generator: Adobe Illustrator 23.0.1, SVG Export Plug-In . SVG Version: 6.00 Build 0)  -->
<svg version="1.1" id="Layer_1" xmlns="http://www.w3.org/2000/svg" xmlns:xlink="http://www.w3.org/1999/xlink" x="0px" y="0px"
	 viewBox="0 0 42 48" style="enable-background:new 0 0 42 48;" xml:space="preserve">
<style type="text/css">
	.st0{fill:#FFFFFF;}
</style>
<g id="Page-1">
	<g id="ic-technology-shopify-plus">
		<path id="Shopify-Copy" class="st0" d="M30.85,6.99l1.68,1.67c0,0,3.67,0.27,3.84,0.29c0.21,0.02,0.39,0.18,0.42,0.39
			C36.82,9.59,42,44.79,42,44.79l-12.71,2.76L30.85,6.99L30.85,6.99z M28.9,5.66c-0.08,0.01-0.16,0.03-0.24,0.05l-1.43,0.44
			c-0.85-2.46-2.35-4.73-5-4.73c-0.07,0-0.15,0-0.22,0.01C21.25,0.44,20.32,0,19.52,0c-6.16,0-9.1,7.74-10.03,11.67
			c-2.39,0.74-4.09,1.27-4.31,1.34c-1.34,0.42-1.38,0.46-1.56,1.73C3.5,15.7,0,42.87,0,42.87L27.24,48l0.03-0.01L28.9,5.66
			L28.9,5.66z M21.81,7.57l0,0.27l-4.76,1.48c0.92-3.55,2.64-5.27,4.14-5.92C21.56,4.36,21.81,5.72,21.81,7.57z M19.35,1.66
			c0.27,0,0.53,0.09,0.79,0.27c-1.97,0.93-4.09,3.29-4.98,7.98l-3.76,1.17C12.44,7.5,14.92,1.66,19.35,1.66L19.35,1.66z
			 M20.41,22.59c0,0-1.59-0.85-3.55-0.85c-2.87,0-3.01,1.81-3.01,2.26c0,2.49,6.44,3.44,6.44,9.26c0,4.58-2.89,7.53-6.79,7.53
			c-4.68,0-7.07-2.92-7.07-2.92l1.25-4.16c0,0,2.46,2.12,4.53,2.12c1.35,0,1.91-1.07,1.91-1.85c0-3.24-5.29-3.39-5.29-8.71
			c0-4.48,3.2-8.82,9.66-8.82c2.49,0,3.72,0.72,3.72,0.72L20.41,22.59L20.41,22.59z M23.42,7.34l0-0.5c0-1.53-0.21-2.76-0.55-3.74
			c1.36,0.17,2.27,1.73,2.85,3.52L23.42,7.34z"/>
	</g>
</g>
</svg>
