<?xml version="1.0" encoding="utf-8"?>
<!-- Generator: Adobe Illustrator 21.1.0, SVG Export Plug-In . SVG Version: 6.00 Build 0)  -->
<svg version="1.1" id="Layer_1" xmlns="http://www.w3.org/2000/svg" xmlns:xlink="http://www.w3.org/1999/xlink" x="0px" y="0px"
	 viewBox="0 0 48 48" enable-background="new 0 0 48 48" xml:space="preserve">
<g id="Page-1">
	<g id="ic-technology-swift">
		<path id="Combined-Shape" fill="#FFFFFF" d="M36.1,0c1,0.1,2.1,0.1,3.2,0.3c1,0.2,2,0.5,3,1c1,0.5,1.8,1.1,2.6,1.9
			c1.5,1.5,2.5,3.5,2.8,5.6c0.2,1,0.3,2.1,0.3,3.2l0,0H48v24.1c-0.1,1.1-0.2,2.1-0.3,3.2c-0.2,1.1-0.5,2.1-1,3.1
			c-0.5,1-1.1,1.8-1.8,2.5c-0.8,0.7-1.7,1.4-2.6,1.8c-0.9,0.5-1.9,0.8-2.9,1c-1,0.2-2.1,0.3-3.2,0.3l0,0H11.8
			c-1-0.1-2.1-0.1-3.2-0.3c-1-0.2-2-0.5-3-1c-0.9-0.5-1.8-1.1-2.5-1.8c-1.5-1.5-2.5-3.5-2.8-5.6c-0.2-1-0.3-2.1-0.3-3.2l0,0V11.7
			c0.1-1.1,0.2-2.1,0.3-3.1c0.2-1.1,0.5-2.1,1-3.1c0.5-1,1.1-1.8,1.9-2.5c0.2-0.2,0.4-0.3,0.6-0.5C4.4,2,5,1.5,5.7,1.1l0,0l0.7-0.3
			c0.7-0.3,1.5-0.5,2.2-0.6C9.5,0.1,10.2,0,11,0l0,0H36.1z M28.2,8.8c3.5,4.6,5.1,10.3,3.7,15.2c-0.1,0.5-0.3,0.9-0.5,1.3l0,0
			L30.8,25c-6-3.8-11.7-8.3-16.8-13.3c3.1,4.4,6.5,8.5,10.2,12.4c-5.1-3.1-9.9-6.7-14.5-10.6c0.6,0.9,1.2,1.8,2,2.7
			C16,21.7,21,26.7,26.6,31c-4.2,2.5-10.2,2.7-16.2,0c-1.5-0.6-2.8-1.4-4.1-2.4c2.7,4.1,6.6,7.3,11.1,9.2c5.8,2.4,11.5,2.2,15.7-0.2
			l0,0l0,0c2-0.8,6.1-2.1,8.3,2c0.5,1,1.6-4.2-2.4-9l0,0l-0.1-0.1c0.1-0.2,0.2-0.4,0.2-0.6C41.1,22.5,36.3,13.6,28.2,8.8z"/>
	</g>
</g>
</svg>
