<?xml version="1.0" encoding="utf-8"?>
<!-- Generator: Adobe Illustrator 23.0.1, SVG Export Plug-In . SVG Version: 6.00 Build 0)  -->
<svg version="1.1" id="Layer_1" xmlns="http://www.w3.org/2000/svg" xmlns:xlink="http://www.w3.org/1999/xlink" x="0px" y="0px"
	 viewBox="0 0 45 45" style="enable-background:new 0 0 45 45;" xml:space="preserve">
<style type="text/css">
	.st0{clip-path:url(#SVGID_2_);fill:#FFFFFF;}
</style>
<g>
	<defs>
		<rect id="SVGID_1_" width="45" height="45"/>
	</defs>
	<clipPath id="SVGID_2_">
		<use xlink:href="#SVGID_1_"  style="overflow:visible;"/>
	</clipPath>
	<path class="st0" d="M45,45H0V0h45V45z M36.18,20.68c-0.78-0.2-2.63-0.27-3.42-0.11c-2.43,0.45-4.13,2.02-4.61,4.27
		c-0.16,0.64-0.1,2.24,0.07,2.89c0.23,0.75,0.71,1.67,1.24,2.25c0.92,0.97,1.91,1.6,4.24,2.59c2.03,0.9,2.75,1.31,3.11,1.8
		c0.26,0.39,0.34,0.63,0.34,1.15c0,0.56-0.18,0.97-0.6,1.35c-0.97,0.88-2.92,0.98-4.39,0.22c-0.48-0.27-1.32-1.06-1.69-1.64
		l-0.29-0.4L28.9,35.8l-1.69,0.98l-0.43,0.27c-0.05,0.08,0.75,1.28,1.17,1.73c1.06,1.16,2.78,2.06,4.58,2.4
		c0.84,0.15,2.64,0.17,3.43,0.03c2.51-0.42,4.26-1.69,4.98-3.57c0.64-1.72,0.43-4.02-0.53-5.48c-0.84-1.31-2.24-2.22-5.46-3.6
		c-1.74-0.77-2.31-1.14-2.61-1.76c-0.14-0.29-0.2-0.49-0.2-0.85c0-1.18,0.9-1.89,2.25-1.8c0.93,0.07,1.53,0.43,2.12,1.26
		c0.18,0.29,0.36,0.48,0.41,0.45c1.18-0.73,3.13-2.05,3.13-2.11c-0.05-0.2-0.66-0.99-1.08-1.44c-0.79-0.82-1.66-1.34-2.81-1.61
		L36.18,20.68z M17.77,20.71L9.9,20.75v1.84l-0.03-0.01v1.83h5.85v16.65h4.15V24.41h5.85l0-2.34c0-0.75-0.01-1.29-0.04-1.31
		C25.67,20.72,22.11,20.71,17.77,20.71"/>
</g>
</svg>
