<?xml version="1.0" encoding="utf-8"?>
<!-- Generator: Adobe Illustrator 23.0.1, SVG Export Plug-In . SVG Version: 6.00 Build 0)  -->
<svg version="1.1" id="Layer_1" xmlns="http://www.w3.org/2000/svg" xmlns:xlink="http://www.w3.org/1999/xlink" x="0px" y="0px"
	 viewBox="0 0 48 48" style="enable-background:new 0 0 48 48;" xml:space="preserve">
<style type="text/css">
	.st0{fill:#FFFFFF;}
</style>
<g id="Page-1">
	<g id="ic-technology-wordpress">
		<path id="surface1-copy" class="st0" d="M24,0C10.77,0,0,10.77,0,24s10.77,24,24,24s24-10.77,24-24S37.23,0,24,0z M24,1.13
			c12.63,0,22.88,10.25,22.88,22.87c0,12.63-10.25,22.88-22.88,22.88S1.12,36.63,1.12,24C1.13,11.37,11.38,1.12,24,1.13L24,1.13z
			 M24,3.44C17.08,3.42,10.61,6.9,6.81,12.69c0.48,0.02,0.92,0,1.31,0c2.16,0,5.5-0.25,5.5-0.25c1.11-0.06,1.23,1.55,0.12,1.69
			c0,0-1.13,0.19-2.38,0.25l7.5,22.25l4.5-13.5l-3.19-8.75C19.08,14.31,18,14.13,18,14.13c-1.11-0.06-0.98-1.75,0.13-1.69
			c0,0,3.41,0.25,5.44,0.25c2.16,0,5.5-0.25,5.5-0.25c1.11-0.06,1.23,1.55,0.13,1.69c0,0-1.14,0.19-2.38,0.25l7.44,22.13l2.06-6.88
			c1.04-2.67,1.56-4.92,1.56-6.69c0-2.55-0.9-4.26-1.69-5.63c-1.04-1.69-2-3.18-2-4.87c0-1.89,1.41-3.63,3.44-3.63h0.25
			C34.09,5.34,29.14,3.42,24,3.44L24,3.44z M42.06,14.12c0.09,0.66,0.13,1.37,0.13,2.13c0,2.09-0.39,4.44-1.56,7.38l-6.25,18.19
			C40.7,38.12,44.59,31.33,44.56,24C44.56,20.42,43.67,17.05,42.06,14.12L42.06,14.12z M5.19,15.62C4.02,18.26,3.43,21.12,3.44,24
			c0,8.15,4.69,15.16,11.56,18.5L5.19,15.62z M24.37,25.81l-6.19,17.94c1.84,0.54,3.79,0.81,5.81,0.81c2.4,0,4.67-0.37,6.81-1.12
			c-0.05-0.09-0.09-0.21-0.12-0.31L24.37,25.81z"/>
	</g>
</g>
</svg>
