<?xml version="1.0" encoding="utf-8"?>
<!-- Generator: Adobe Illustrator 23.0.1, SVG Export Plug-In . SVG Version: 6.00 Build 0)  -->
<svg version="1.1" id="Layer_1" xmlns="http://www.w3.org/2000/svg" xmlns:xlink="http://www.w3.org/1999/xlink" x="0px" y="0px"
	 viewBox="0 0 57 18" style="enable-background:new 0 0 57 18;" xml:space="preserve">
<style type="text/css">
	.st0{fill:#FFFFFF;}
</style>
<g id="Page-1">
	<g id="ic-technology-wpf">
		<path id="WPF" class="st0" d="M4.67,17.81l6.81-13.03l0.42,13.03h3.89L24.82,0h-3.72l-6.16,12.33L14.5,0h-4.17L3.93,12.47L3.76,0
			H0l0.7,17.81H4.67z M26.49,17.81l1.49-6.79l2.58,0c1.59,0,2.68-0.04,3.27-0.12c1.04-0.14,1.86-0.34,2.47-0.6
			c0.61-0.26,1.18-0.65,1.71-1.16s0.98-1.19,1.34-2.04c0.37-0.85,0.55-1.73,0.55-2.62c0-0.97-0.23-1.81-0.69-2.51
			s-1.08-1.2-1.87-1.51C36.57,0.15,35.5,0,34.15,0l0,0h-7.6l-3.91,17.81H26.49z M29.92,8.07l-1.31,0l1.13-5.14h2.75
			c1.25,0,2.05,0.06,2.42,0.19c0.36,0.13,0.64,0.33,0.84,0.6c0.2,0.28,0.3,0.63,0.3,1.06c0,0.64-0.2,1.23-0.59,1.76
			s-0.93,0.92-1.61,1.17c-0.68,0.24-2.04,0.36-4.07,0.36L29.92,8.07z M43.86,17.81l1.66-7.58h9.05l0.65-2.98h-9.05l0.94-4.28h9.23
			L57,0H43.92l-3.91,17.81H43.86z"/>
	</g>
</g>
</svg>
