<?xml version="1.0" encoding="utf-8"?>
<!-- Generator: Adobe Illustrator 21.1.0, SVG Export Plug-In . SVG Version: 6.00 Build 0)  -->
<svg version="1.1" id="Layer_1" xmlns="http://www.w3.org/2000/svg" xmlns:xlink="http://www.w3.org/1999/xlink" x="0px" y="0px"
	 viewBox="0 0 48 42" enable-background="new 0 0 48 42" xml:space="preserve">
<g id="Page-1">
	<g id="ic-technology-xamarin">
		<path id="Shape-Copy-3" fill="#FFFFFF" d="M13.8,0c-1.3,0-2.6,0.7-3.2,1.8L0.5,19.2c-0.6,1.1-0.6,2.6,0,3.7l10.2,17.3
			c0.7,1.1,1.9,1.8,3.2,1.8h20.3c1.3,0,2.6-0.7,3.2-1.8l10.2-17.3c0.6-1.1,0.6-2.6,0-3.7L37.4,1.8C36.7,0.7,35.4,0,34.2,0H13.8
			L13.8,0z M14,10.1C14.1,10.1,14.1,10.1,14,10.1h3.6c0.2,0,0.3,0.1,0.4,0.2l5.9,10.4c0,0.1,0,0.1,0.1,0.2c0-0.1,0-0.1,0.1-0.2
			L30,10.4c0.1-0.1,0.2-0.2,0.4-0.2h3.5c0.3,0,0.5,0.4,0.4,0.7L28.5,21l5.8,10.2c0.2,0.3-0.1,0.7-0.4,0.7h-3.5
			c-0.2,0-0.3-0.1-0.4-0.2l-5.9-10.4c0-0.1,0-0.1-0.1-0.2c0,0.1,0,0.1-0.1,0.2L18,31.6c-0.1,0.1-0.2,0.2-0.4,0.2h-3.5
			c-0.3,0-0.6-0.4-0.4-0.7L19.5,21l-5.8-10.2C13.6,10.6,13.8,10.2,14,10.1L14,10.1L14,10.1z"/>
	</g>
</g>
</svg>
